<svg xmlns="http://www.w3.org/2000/svg" width="356" height="318" preserveAspectRatio="none" style="width:356px;height:318px;background:#fff"><defs><filter id="a" width="300%" height="300%" x="-1" y="-1"><feGaussianBlur result="blurOut" stdDeviation="2"/><feColorMatrix in="blurOut" result="blurOut2" values="0 0 0 0 0 0 0 0 0 0 0 0 0 0 0 0 0 0 .4 0"/><feOffset dx="4" dy="4" in="blurOut2" result="blurOut3"/><feBlend in="SourceGraphic" in2="blurOut3"/></filter></defs><text x="284" y="19.282" fill="#888" font-family="sans-serif" font-size="10" textLength="52">made by x</text><text x="119" y="45.636" font-family="sans-serif" font-size="14" font-weight="bold" textLength="108">My super title</text><rect width="48" height="40.297" x="10" y="69.938" fill="#A8EB99" filter="url(#a)" rx="7.5" ry="7.5" style="stroke:#000;stroke-width:1"/><text x="22" y="94.933" font-family="sans-serif" font-size="14" textLength="24">aaa</text><rect width="51" height="40.297" x="108" y="69.938" fill="#FBC" filter="url(#a)" rx="7.5" ry="7.5" style="stroke:#000;stroke-width:1"/><text x="120" y="94.933" font-family="sans-serif" font-size="14" textLength="27">bbb</text><text x="212" y="94.933" fill="#006400" font-family="sans-serif" font-size="14" textLength="24">ccc</text><path fill="none" d="M159 90.086h50" style="stroke:red;stroke-width:1;stroke-dasharray:5,5"/><path fill="none" d="M58 90.086h50" style="stroke:green;stroke-width:1;stroke-dasharray:5,5"/><rect width="42" height="40.297" x="10" y="138.383" fill="#A8EB99" filter="url(#a)" rx="7.5" ry="7.5" style="stroke:#000;stroke-width:1"/><text x="22" y="163.378" font-family="sans-serif" font-size="14" textLength="18">dd</text><rect width="42" height="40.297" x="102" y="138.383" fill="#EAB8DE" filter="url(#a)" rx="7.5" ry="7.5" style="stroke:#000;stroke-width:1"/><text x="114" y="163.378" font-family="sans-serif" font-size="14" textLength="18">ee</text><rect width="32" height="40.297" x="194" y="138.383" fill="#EAB8DE" filter="url(#a)" rx="7.5" ry="7.5" style="stroke:#000;stroke-width:1"/><text x="206" y="163.378" font-family="sans-serif" font-size="14" textLength="8">ff</text><rect width="61" height="56.594" x="276" y="130.234" fill="#FBE972" filter="url(#a)" rx="7.5" ry="7.5" style="stroke:#000;stroke-width:1"/><text x="288" y="155.23" font-family="sans-serif" font-size="14" textLength="4"> </text><text x="292" y="155.23" font-family="sans-serif" font-size="14" textLength="33">hello</text><text x="288" y="171.526" font-family="sans-serif" font-size="14" textLength="37">world</text><path fill="none" d="M226 158.531h50" style="stroke:green;stroke-width:1;stroke-dasharray:5,5"/><path fill="none" d="M144 158.531h50" style="stroke:red;stroke-width:1;stroke-dasharray:5,5"/><path fill="none" d="M52 158.531h50" style="stroke:green;stroke-width:1;stroke-dasharray:5,5"/><rect width="68" height="52.594" x="256" y="208.828" fill="#F3FBEC" rx=".5" ry=".5" style="stroke:#f3fbec;stroke-width:1;stroke-dasharray:4,4"/><text x="266" y="231.823" fill="gray" font-family="sans-serif" font-size="14" textLength="37">Short</text><text x="266" y="248.12" fill="gray" font-family="sans-serif" font-size="14" textLength="48">legend</text><text x="147" y="288.417" font-family="sans-serif" font-size="14" textLength="52">figure 1</text><text x="134" y="303.001" fill="#888" font-family="sans-serif" font-size="10" textLength="78">My super footer</text></svg>