<svg xmlns="http://www.w3.org/2000/svg" width="529" height="744" preserveAspectRatio="none" style="width:529px;height:744px;background:#fff"><defs><filter id="a" width="300%" height="300%" x="-1" y="-1"><feGaussianBlur result="blurOut" stdDeviation="2"/><feColorMatrix in="blurOut" result="blurOut2" values="0 0 0 0 0 0 0 0 0 0 0 0 0 0 0 0 0 0 .4 0"/><feOffset dx="4" dy="4" in="blurOut2" result="blurOut3"/><feBlend in="SourceGraphic" in2="blurOut3"/></filter></defs><text x="457" y="19.282" fill="#888" font-family="sans-serif" font-size="10" textLength="52">made by x</text><text x="217.5" y="45.636" font-family="sans-serif" font-size="14" font-weight="bold" textLength="84">语句和表达式</text><rect width="66" height="40.297" x="10" y="236.977" fill="#A8EB99" filter="url(#a)" rx="7.5" ry="7.5" style="stroke:#000;stroke-width:1"/><text x="22" y="261.972" font-family="sans-serif" font-size="14" textLength="42">表达式</text><rect width="52" height="40.297" x="126" y="130.234" fill="gold" filter="url(#a)" rx="7.5" ry="7.5" style="stroke:#000;stroke-width:1"/><text x="138" y="155.23" font-family="sans-serif" font-size="14" textLength="28">概念</text><rect width="224" height="40.297" x="228" y="69.938" fill="gold" filter="url(#a)" rx="7.5" ry="7.5" style="stroke:#000;stroke-width:1"/><text x="240" y="94.933" font-family="sans-serif" font-size="14" textLength="200">一个代码片段,它能够计算产生值</text><path fill="none" d="M178 150.383h10c15 0 15-60.297 30-60.297h10" style="stroke:red;stroke-width:1;stroke-dasharray:5,5"/><rect width="242" height="40.297" x="228" y="130.234" fill="gold" filter="url(#a)" rx="7.5" ry="7.5" style="stroke:#000;stroke-width:1"/><text x="240" y="155.23" font-family="sans-serif" font-size="14" textLength="102">所以它有返回值,</text><text x="342" y="155.23" font-family="sans-serif" font-size="14" textLength="4"> </text><text x="346" y="155.23" font-family="sans-serif" font-size="14" textLength="112">所以表达式有类型</text><path fill="none" d="M178 150.383h50" style="stroke:red;stroke-width:1;stroke-dasharray:5,5"/><rect width="282" height="40.297" x="228" y="190.531" fill="gold" filter="url(#a)" rx="7.5" ry="7.5" style="stroke:#000;stroke-width:1"/><text x="240" y="215.526" font-family="sans-serif" font-size="14" textLength="28">不以</text><text x="268" y="215.526" font-family="sans-serif" font-size="14" textLength="4"> </text><text x="272" y="215.526" font-family="sans-serif" font-size="14" textLength="5">;</text><text x="277" y="215.526" font-family="sans-serif" font-size="14" textLength="4"> </text><text x="281" y="215.526" font-family="sans-serif" font-size="14" textLength="46">号结尾,</text><text x="327" y="215.526" font-family="sans-serif" font-size="14" textLength="4"> </text><text x="331" y="215.526" font-family="sans-serif" font-size="14" textLength="84">如果后面加上</text><text x="415" y="215.526" font-family="sans-serif" font-size="14" textLength="4"> </text><text x="419" y="215.526" font-family="sans-serif" font-size="14" textLength="5">;</text><text x="424" y="215.526" font-family="sans-serif" font-size="14" textLength="4"> </text><text x="428" y="215.526" font-family="sans-serif" font-size="14" textLength="70">则变成语句</text><path fill="none" d="M178 150.383h10c15 0 15 60.297 30 60.297h10" style="stroke:red;stroke-width:1;stroke-dasharray:5,5"/><path fill="none" d="M76 257.125h10c15 0 15-106.742 30-106.742h10" style="stroke:green;stroke-width:1;stroke-dasharray:5,5"/><rect width="52" height="40.297" x="126" y="280.977" fill="#FBC" filter="url(#a)" rx="7.5" ry="7.5" style="stroke:#000;stroke-width:1"/><text x="138" y="305.972" font-family="sans-serif" font-size="14" textLength="28">分类</text><rect width="281" height="40.297" x="228" y="250.828" fill="#FBC" filter="url(#a)" rx="7.5" ry="7.5" style="stroke:#000;stroke-width:1"/><text x="240" y="275.823" font-family="sans-serif" font-size="14" textLength="33">左值:</text><text x="273" y="275.823" font-family="sans-serif" font-size="14" textLength="4"> </text><text x="277" y="275.823" font-family="sans-serif" font-size="14" textLength="172">表达一个内存地址,可以放到</text><text x="449" y="275.823" font-family="sans-serif" font-size="14" textLength="4"> </text><text x="453" y="275.823" font-family="sans-serif" font-size="14" textLength="12">=</text><text x="465" y="275.823" font-family="sans-serif" font-size="14" textLength="4"> </text><text x="469" y="275.823" font-family="sans-serif" font-size="14" textLength="28">左边</text><path fill="none" d="M178 301.125h10c15 0 15-30.148 30-30.148h10" style="stroke:red;stroke-width:1;stroke-dasharray:5,5"/><rect width="52" height="40.297" x="228" y="311.125" fill="#FBC" filter="url(#a)" rx="7.5" ry="7.5" style="stroke:#000;stroke-width:1"/><text x="240" y="336.12" font-family="sans-serif" font-size="14" textLength="28">右值</text><path fill="none" d="M178 301.125h10c15 0 15 30.148 30 30.148h10" style="stroke:red;stroke-width:1;stroke-dasharray:5,5"/><path fill="none" d="M76 257.125h10c15 0 15 44 30 44h10" style="stroke:green;stroke-width:1;stroke-dasharray:5,5"/><rect width="326" height="72.891" x="126" y="371.422" fill="#FBE972" filter="url(#a)" rx="7.5" ry="7.5" style="stroke:#000;stroke-width:1"/><text x="287" y="396.417" font-family="sans-serif" font-size="14" textLength="4"> </text><text x="138" y="412.714" font-family="sans-serif" font-size="14" textLength="302">{}表达式有返回值,即使里面全是语句,返回值是()</text><text x="205" y="429.011" font-family="sans-serif" font-size="14" textLength="94">注意这个时候()</text><text x="299" y="429.011" font-family="sans-serif" font-size="14" textLength="4"> </text><text x="303" y="429.011" font-family="sans-serif" font-size="14" textLength="70">表示一种值</text><path fill="none" d="M76 257.125h10c15 0 15 150.742 30 150.742h10" style="stroke:green;stroke-width:1;stroke-dasharray:5,5"/><rect width="52" height="40.297" x="10" y="524.609" fill="#E0FFFF" filter="url(#a)" rx="7.5" ry="7.5" style="stroke:#000;stroke-width:1"/><text x="22" y="549.605" font-family="sans-serif" font-size="14" textLength="28">语句</text><rect width="224" height="40.297" x="112" y="464.313" fill="#E0FFFF" filter="url(#a)" rx="7.5" ry="7.5" style="stroke:#000;stroke-width:1"/><text x="124" y="489.308" font-family="sans-serif" font-size="14" textLength="200">一个代码片段,表示执行一种动作</text><path fill="none" d="M62 544.758h10c15 0 15-60.297 30-60.297h10" style="stroke:green;stroke-width:1;stroke-dasharray:5,5"/><rect width="224" height="40.297" x="112" y="524.609" fill="#E0FFFF" filter="url(#a)" rx="7.5" ry="7.5" style="stroke:#000;stroke-width:1"/><text x="124" y="549.605" font-family="sans-serif" font-size="14" textLength="200">没有返回值,但是有类型,类型是()</text><path fill="none" d="M62 544.758h50" style="stroke:green;stroke-width:1;stroke-dasharray:5,5"/><rect width="187" height="40.297" x="112" y="584.906" fill="#E0FFFF" filter="url(#a)" rx="7.5" ry="7.5" style="stroke:#000;stroke-width:1"/><text x="124" y="609.901" font-family="sans-serif" font-size="14" textLength="75">表达式加上;</text><text x="199" y="609.901" font-family="sans-serif" font-size="14" textLength="4"> </text><text x="203" y="609.901" font-family="sans-serif" font-size="14" textLength="84">就变成了语句</text><path fill="none" d="M62 544.758h10c15 0 15 60.297 30 60.297h10" style="stroke:green;stroke-width:1;stroke-dasharray:5,5"/><rect width="68" height="52.594" x="429" y="647.203" fill="#F3FBEC" rx=".5" ry=".5" style="stroke:#f3fbec;stroke-width:1;stroke-dasharray:4,4"/><text x="439" y="670.198" fill="gray" font-family="sans-serif" font-size="14" textLength="37">Short</text><text x="439" y="686.495" fill="gray" font-family="sans-serif" font-size="14" textLength="48">legend</text><text x="246" y="726.792" font-family="sans-serif" font-size="14" textLength="27">图 1</text></svg>