<svg xmlns="http://www.w3.org/2000/svg" width="611.656" height="501.935"><defs><style>@font-face{font-family:&quot;Virgil&quot;;src:url(https://unpkg.com/@excalidraw/excalidraw@undefined/dist/excalidraw-assets/Virgil.woff2)}@font-face{font-family:&quot;Cascadia&quot;;src:url(https://unpkg.com/@excalidraw/excalidraw@undefined/dist/excalidraw-assets/Cascadia.woff2)}@font-face{font-family:&quot;Assistant&quot;;src:url(https://unpkg.com/@excalidraw/excalidraw@undefined/dist/excalidraw-assets/Assistant-Regular.woff2)}</style></defs><path fill="#fff" d="M0 0h611.656v501.935H0z"/><g stroke-linecap="round"><path fill="none" stroke="#1e1e1e" stroke-width="2" d="M10 176.913c98.47 25.89 493.05 128.18 591.66 154.17M12 176.413c98.3 26.05 490.71 130.07 588.89 155.86"/><path fill="#1e1e1e" fill-rule="evenodd" stroke-width="0" d="m601.15 332.543-13.36 2.66.02-10.58 11.48 6.67"/><path fill="none" stroke="#1e1e1e" stroke-width="2" d="M600.89 332.273c-3.68 1.28-10.82 2.17-14.76 2.65m14.76-2.65c-5.34 1.8-12.07 1.96-14.76 2.65m0 0c.74-2.57 2.5-5.65 3.23-12.25m-3.23 12.25c1.35-4.57 1.89-8.95 3.23-12.25m0 0c3.43 4.81 9.32 8.72 11.53 9.6m-11.53-9.6c4.16 3.61 7.11 5.64 11.53 9.6m0 0q0 0 0 0m0 0q0 0 0 0"/></g><g stroke-linecap="round"><path fill="none" stroke="#1e1e1e" stroke-width="2" d="M273.068 489.68c.12-77.46-.01-385.86-.01-463.02m-1.27 465.28c.02-77.25.39-388.99.5-466.81"/><path fill="#1e1e1e" fill-rule="evenodd" stroke-width="0" d="m273.958 25.41 3.11 15.27-12.74-2.94 7.06-11.59"/><path fill="none" stroke="#1e1e1e" stroke-width="2" d="M272.288 25.13c.98 4.06 4.91 7.72 6.33 13.6m-6.33-13.6c2.13 5.09 4.9 10.74 6.33 13.6m0 0c-2.96 1.06-6.77-1-12.68-.01m12.68.01c-5.29-.38-9.11-.29-12.68-.01m0 0c2.3-2.22 3.47-6.37 6.35-13.59m-6.35 13.59c1.76-4.26 4.13-7.9 6.35-13.59m0 0q0 0 0 0m0 0q0 0 0 0"/></g><g stroke-linecap="round"><path fill="none" stroke="#1e1e1e" stroke-width="2" d="M390.482 107.128c-42.43 52.22-212.21 259.65-254.58 311.54m253.3-312c-42.58 51.98-211.84 258.83-254.06 310.49"/><path fill="#1e1e1e" fill-rule="evenodd" stroke-width="0" d="m133.592 419.108 3.64-17.46 10.51 10.02-14.36 5.42"/><path fill="none" stroke="#1e1e1e" stroke-width="2" d="M135.142 417.158c2.69-4.35 3.98-8.66 3.7-14.54m-3.7 14.54c1.29-5.57 2.86-11.17 3.7-14.54m0 0c4.21 1.74 8.1 5.92 9.81 8.03m-9.81-8.03c3.01 1.92 4.81 3.85 9.81 8.03m0 0c-4.95 3.32-10.22 6.16-13.51 6.51m13.51-6.51c-4.73 2.58-10.78 4.61-13.51 6.51m0 0q0 0 0 0m0 0q0 0 0 0"/></g><text fill="#2f9e44" dominant-baseline="text-before-edge" font-family="Virgil, Segoe UI Emoji" font-size="36" style="white-space:pre" transform="translate(162.424 396.785)">X</text><text fill="#2f9e44" dominant-baseline="text-before-edge" font-family="Virgil, Segoe UI Emoji" font-size="36" style="white-space:pre" transform="translate(553.832 367.334)">Y</text><text fill="#2f9e44" dominant-baseline="text-before-edge" font-family="Virgil, Segoe UI Emoji" font-size="36" style="white-space:pre" transform="translate(289.81 10)">Z</text><g stroke-linecap="round"><path fill="none" stroke="#f08c00" stroke-width="2" d="M272.788 247.818c4.36-19.73 21.3-99.1 25.73-118.76m-23.71 117.69c4.26-19.5 18.69-96.42 22.71-116.22"/><path fill="#f08c00" fill-rule="evenodd" stroke-width="0" d="m299.478 129.448.8 14.64-9.9-1.67 6.02-9.93"/><path fill="none" stroke="#f08c00" stroke-width="2" d="M297.518 130.528c.73 3.34 1.5 7.79 3.62 14.55m-3.62-14.55c.78 5.79 2.85 10.13 3.62 14.55m0 0c-3.23-.94-6.35-.04-12.44-2.42m12.44 2.42c-3.91-.86-7.94-1.06-12.44-2.42m0 0c2.87-4.25 4.53-8.66 8.82-12.13m-8.82 12.13c2.89-2.84 5.56-7.03 8.82-12.13m0 0q0 0 0 0m0 0q0 0 0 0"/></g><path fill="none" stroke="#2f9e44" stroke-linecap="round" stroke-width="4" d="M272.396 248.366c-4.45 5.55-22.26 27.73-26.72 33.27m26.72-33.27c-4.45 5.55-22.26 27.73-26.72 33.27"/><path fill="none" stroke="#e03131" stroke-linecap="round" stroke-width="4" d="M245.431 282.843c6.04 1.83 30.19 9.14 36.23 10.97m-36.23-10.97c6.04 1.83 30.19 9.14 36.23 10.97"/><path fill="none" stroke="#1971c2" stroke-linecap="round" stroke-width="4" d="M297.08 134.075c-2.22 26.22-11.08 131.08-13.3 157.3m13.3-157.3c-2.22 26.22-11.08 131.08-13.3 157.3"/><text fill="#1971c2" dominant-baseline="text-before-edge" font-family="Helvetica, Segoe UI Emoji" font-size="36" style="white-space:pre" transform="translate(522.308 27.515)">2</text><text y="41.4" fill="#1971c2" dominant-baseline="text-before-edge" font-family="Helvetica, Segoe UI Emoji" font-size="36" style="white-space:pre" transform="translate(522.308 27.515)">1</text><text y="82.8" fill="#1971c2" dominant-baseline="text-before-edge" font-family="Helvetica, Segoe UI Emoji" font-size="36" style="white-space:pre" transform="translate(522.308 27.515)">3</text><path fill="#1971c2" d="m506.563 29.129-1.38-.01q-1.39 0-3.22.08-1.83.07-3.07.16-1.24.08-2.38.16-1.13.08-2.21.12-1.07.04-2.19.2-1.11.15-.21-.84.91-.99 1.04.85t.07 3.48q-.06 1.65-.22 3.66-.16 2-.34 4.39-.18 2.38-.31 4.93-.14 2.54-.24 5.11-.11 2.57-.19 5.1-.07 2.53-.13 5.02-.06 2.5-.1 4.96t-.07 4.95-.09 5.03q-.06 2.53-.14 4.8-.09 2.27-.11 4.15l-.06 3.7q-.03 1.82-.18 3.82-.16 2-.31 3.9-.15 1.89-.32 3.75-.16 1.86-.33 3.72-.18 1.86-.28 3.6-.11 1.74-.17 3.39-.07 1.65-.14 3.16-.07 1.52-.16 2.9t-.13 2.48-.13 2.8-.18 3.45q-.09 1.74-.13 2.87t-.08 2.48.01 2.64q.06 1.29-.01 2.44-.07 1.14-.54.18-.47-.97 1.2-.25 1.66.72 3.3 1.59t3.09 1.7q1.46.82 2.82 1.54t3.34 1.84q1.99 1.12 2.49 1.31.51.18.93.52.43.33.72.79.29.45.43.98.13.52.09 1.06t-.26 1.03q-.21.5-.57.9-.35.41-.82.68-.47.26-1 .37-.53.1-1.07.03-.53-.07-1.02-.31-.48-.23-.87-.61-.38-.38-.62-.87-.25-.48-.32-1.02-.08-.53.02-1.06t.37-1q.26-.47.66-.84.4-.36.9-.58.49-.21 1.03-.26.54-.04 1.06.08.53.13.98.42.46.29.8.71t.53.93q.19.5.2 1.04.02.54-.13 1.06-.16.52-.47.96-.32.44-.75.75-.44.32-.96.48-.51.16-1.05.15l-.54-.01-2.92-1.46q-2.92-1.46-4.3-2.21-1.39-.75-2.89-1.58t-2.91-1.57q-1.42-.75-2.65-1.31-1.22-.57-2.46-1.28-1.23-.72-1.79-2.13-.57-1.41-.37-2.67.19-1.25.28-2.69.08-1.44.31-2.85.22-1.41.43-2.6.2-1.2.48-2.99.29-1.8.61-3.39.33-1.58.51-2.68t.38-2.43q.21-1.32.39-2.79.17-1.47.32-3.13t.32-3.44.37-3.63.41-3.7q.2-1.84.39-3.71t.34-3.81q.15-1.95.27-3.75.12-1.81.22-3.68.11-1.88.17-4.12.05-2.25.06-4.76.01-2.52-.02-5.01t-.07-4.95-.1-4.96q-.06-2.49-.14-5.02-.08-2.52-.18-5.1-.11-2.57-.25-5.11t-.33-4.91q-.18-2.37-.37-4.34t-.31-3.48-.22-2.66-.12-2.37q-.03-1.23.46-2.4.49-1.18 2.32-1.9 1.82-.72 2.99-.77 1.16-.04 2.23 0 1.08.04 2.21.12 1.14.08 2.38.16 1.24.09 3.07.16 1.83.08 3.22.08 1.38-.01 1.68.03.31.04.6.15t.54.29q.26.17.47.4.2.23.34.51.15.27.22.57.08.31.08.61t-.08.61q-.07.3-.22.57-.14.28-.35.51-.2.23-.46.41-.25.17-.54.28t-.6.15zM556.334 25.518l1.48.02q1.48.02 2.69 0t2.91-.1q1.71-.08 3.03-.17t2.45.07q1.12.16 2.43.61 1.31.46 2.64.84 1.34.38 2.33.95 1 .56 1.54 1.51.54.96.63 2.53.08 1.57.05 3.52-.04 1.96-.15 3.59-.1 1.64-.25 3.53t-.25 3.68-.21 3.71q-.11 1.91-.2 3.88-.1 1.96-.08 3.7t.08 3.46.15 3.36q.08 1.64.21 3.35.12 1.7.23 3.38.12 1.68.21 3.21.08 1.53.12 3.08.05 1.54.08 2.98.04 1.44.13 2.76.08 1.33.19 2.6.1 1.27.22 2.4t.36 3.11q.23 1.98.41 3.9.19 1.92.28 3.56t.27 3.04q.18 1.41.35 3.15.17 1.73.32 3.2t.22 3.12.1 3.17.2 3.1q.16 1.58.22 3.04t.09 2.7.07 2.34q.04 1.11-.01 2.4-.05 1.3-.21 3.09-.16 1.8-.3 3.13t-.78 3.06-1.52 2.32q-.88.6-1.97 1.34t-2.3 1.53q-1.22.79-2.57 1.59-1.36.81-2.46 1.5-1.09.7-1.95 1.49-.85.79-2 1.46t-2.23 1.28q-1.09.61-3.42 1.84t-2.92 1.27q-.59.05-1.15-.09-.57-.14-1.07-.46t-.87-.79q-.37-.46-.58-1.01-.2-.56-.21-1.15-.02-.59.15-1.16.18-.56.52-1.04.35-.48.83-.83.48-.34 1.05-.52.55-.17 1.15-.15.59.01 1.14.22.56.2 1.02.57.46.38.78.87.32.5.46 1.08.14.57.09 1.16t-.28 1.14q-.24.54-.63.98-.4.44-.91.73-.52.29-1.1.4t-1.17.03q-.57-.08-1.1-.34-.53-.27-.95-.68-.42-.42-.68-.95t-.34-1.12.03-1.17.4-1.1q.3-.51.74-.9.44-.4.98-.63l.55-.24.9-.51q.91-.51 1.87-1.13t2.25-1.24 2.52-1.58q1.22-.97 2.39-1.73 1.17-.75 2.45-1.56l2.37-1.49q1.08-.68 2.3-1.24 1.22-.57 1.35-1.73.13-1.17.23-2.93.1-1.75.16-3.13t.1-2.51q.03-1.13.06-2.49t.04-2.57-.08-2.58q-.08-1.38-.06-2.86.01-1.48 0-2.92 0-1.43-.1-3.01-.09-1.58-.16-3.1-.08-1.51-.19-3.24-.1-1.73-.07-3.31.04-1.59 0-3.4t-.12-3.84l-.11-3.18q-.03-1.15-.08-2.47-.04-1.32-.06-2.72-.03-1.4-.01-2.82t.01-2.92q0-1.5-.02-2.97-.03-1.46-.14-3.12t-.27-3.42q-.15-1.77-.23-3.42t-.18-3.4q-.09-1.75-.18-3.55-.08-1.81-.18-3.77-.09-1.97-.2-3.88-.11-1.92-.21-3.71t-.25-3.68-.26-3.53q-.1-1.63-.14-2.78-.03-1.15 0-2.92.03-1.78.62-.85.6.92-.5.53-1.1-.4-2.62-1.13-1.53-.72-2.85-.81t-3.03-.17q-1.7-.08-2.91-.1t-2.69 0-1.78-.02q-.31-.04-.6-.15-.3-.11-.55-.28-.26-.18-.46-.41-.21-.24-.36-.51-.14-.28-.21-.58-.08-.3-.08-.61t.08-.61q.07-.3.21-.58.15-.27.36-.51.2-.23.46-.41.25-.17.55-.28.29-.11.6-.15z"/></svg>