<svg xmlns="http://www.w3.org/2000/svg" preserveAspectRatio="xMinYMin meet" viewBox="0 0 360 379"><svg id="d2-svg" width="360" height="379" class="d2-167722379" viewBox="0 0 360 379"><rect width="360" height="379" stroke-width="0" rx="0" style="fill:#fff"/><style>@keyframes dashdraw{0%{stroke-dashoffset:0}}.d2-167722379 .text-mono{font-family:&quot;d2-167722379-font-mono&quot;}@font-face{font-family:d2-167722379-font-mono;src:url(/stylesheets/font/Virgil-hand.woff2)}.d2-167722379 .text-mono-bold{font-family:&quot;d2-167722379-font-mono-bold&quot;}@font-face{font-family:d2-167722379-font-mono-bold;src:url(/stylesheets/font/Virgil-hand.woff2)}.connection,.shape{stroke-linejoin:round}.shape{shape-rendering:geometricPrecision}.connection{stroke-linecap:round}.d2-167722379 .fill-N1{fill:#000410}.d2-167722379 .fill-B5{fill:#f5f6f9}.d2-167722379 .fill-B6{fill:#fff}.d2-167722379 .stroke-B1,.d2-167722379 .stroke-B2{stroke:#000410}@media screen and (prefers-color-scheme:dark){.d2-167722379 .fill-N1{fill:#cdd6f4}.d2-167722379 .fill-B5{fill:#45475a}.d2-167722379 .fill-B6{fill:#313244}.d2-167722379 .stroke-B1,.d2-167722379 .stroke-B2{stroke:#cba6f7}}.dots-overlay{fill:url(#dots);mix-blend-mode:multiply}</style><defs><pattern id="dots" width="15" height="15" x="0" y="0" patternUnits="userSpaceOnUse"><path fill="#0A0F25" d="M2 2h1v1H2zM12 2h1v1h-1zM12 12h1v1h-1zM2 12h1v1H2zM2 7h1v1H2zM12 7h1v1h-1zM7 2h1v1H7zM7 12h1v1H7zM7 7h1v1H7z" opacity=".1" style="mix-blend-mode:multiply"/></pattern></defs><defs><filter id="shadow-filter" width="200%" height="200%" x="-50%" y="-50%"><feGaussianBlur in="SourceGraphic" stdDeviation="1.7"/><feFlood flood-color="#3d4574" flood-opacity=".4" result="ShadowFeFlood"/><feComposite in="ShadowFeFlood" in2="SourceAlpha" operator="in" result="ShadowFeComposite"/><feOffset dx="3" dy="5" in="ShadowFeComposite" result="ShadowFeOffset"/><feBlend in="SourceGraphic" in2="ShadowFeOffset" result="ShadowFeBlend"/></filter></defs><g id="top-row" class="empty"><g class="shape"><path fill="transparent" d="M0 0h360v379H0z" class="stroke-B1" style="stroke-width:0"/><path d="M0 0h360v379H0z" class="dots-overlay" style="stroke-width:0"/><path fill="transparent" d="M5 5h350v369H5z" class="stroke-B1" style="stroke-width:0"/></g></g><g id="top-row.stack"><g class="shape" filter="url(#shadow-filter)"><path d="M60 96h100v223H60z" class="stroke-B1 fill-B5" style="stroke-width:2"/><path d="M60 96h100v223H60z" class="dots-overlay" style="stroke-width:2"/></g><text x="110" y="84" class="text-mono fill-N1" style="text-anchor:middle;font-size:24px">栈</text></g><g id="top-row.heap"><g class="shape" filter="url(#shadow-filter)"><path d="M200 96h100v223H200z" class="stroke-B1 fill-B5" style="stroke-width:2"/><path d="M200 96h100v223H200z" class="dots-overlay" style="stroke-width:2"/></g><text x="250" y="84" class="text-mono fill-N1" style="text-anchor:middle;font-size:24px">堆</text></g><g id="top-row.stack.pad1" class="invisible"><g class="shape"><path fill="transparent" d="M60 96h100v80H60z" class="stroke-B1" style="stroke-width:2"/></g></g><g id="top-row.stack.c"><g class="shape"><path d="M60 176h100v21H60z" class="stroke-B1 fill-B6" style="stroke-width:2"/></g><text x="110" y="192" class="text-mono-bold fill-N1" style="text-anchor:middle;font-size:16px">c</text></g><g id="top-row.stack.a"><g class="shape"><path d="M60 197h100v21H60z" class="stroke-B1 fill-B6" style="stroke-width:2"/></g><text x="110" y="213" class="text-mono-bold fill-N1" style="text-anchor:middle;font-size:16px">a</text></g><g id="top-row.stack.b"><g class="shape"><path fill="#f0fff0" d="M60 218h100v21H60z" class="stroke-B1" style="stroke-width:2"/></g><text x="110" y="234" class="text-mono-bold fill-N1" style="text-anchor:middle;font-size:16px">b</text></g><g id="top-row.stack.pad3" class="invisible"><g class="shape"><path fill="transparent" d="M60 239h100v80H60z" class="stroke-B1" style="stroke-width:2"/></g></g><g id="top-row.heap.pad0" class="invisible"><g class="shape"><path fill="transparent" d="M200 96h100v80H200z" class="stroke-B1" style="stroke-width:2"/></g></g><g id="top-row.heap.a"><g class="shape"><path d="M200 176h100v21H200z" class="stroke-B1 fill-B6" style="stroke-width:2"/></g><text x="250" y="192" class="text-mono-bold fill-N1" style="text-anchor:middle;font-size:16px">&amp;a</text></g><g id="top-row.heap.pad1" class="invisible"><g class="shape"><path fill="transparent" d="M200 197h100v20H200z" class="stroke-B1" style="stroke-width:2"/></g></g><g id="top-row.heap.5"><g class="shape"><path d="M200 217h100v21H200z" class="stroke-B1 fill-B6" style="stroke-width:2"/></g><text x="250" y="233" class="text-mono-bold fill-N1" style="text-anchor:middle;font-size:16px">5</text></g><g id="top-row.heap.pad4" class="invisible"><g class="shape"><path fill="transparent" d="M200 238h100v80H200z" class="stroke-B1" style="stroke-width:2"/></g></g><g id="top-row.(stack.b -&gt; heap.5)[0]"><marker id="mk-2177206569" markerHeight="12" markerUnits="userSpaceOnUse" markerWidth="10" orient="auto" refX="7" refY="6" viewBox="0 0 10 12"><path stroke-width="2" d="m0 0 10 6-10 6z" class="connection" style="fill:#000410"/></marker><path fill="none" marker-end="url(#mk-2177206569)" d="M162 228.5h34" class="connection animated-connection stroke-B2" mask="url(#d2-167722379)" style="stroke-width:2;stroke-dasharray:6,5.919384;stroke-dashoffset:-119.193836;animation:dashdraw 2.959692s linear infinite"/></g><path id="top-row.(stack.c -&gt; heap.a)[0]" fill="none" marker-end="url(#mk-2177206569)" d="M162 186.5h34" class="connection animated-connection stroke-B2" mask="url(#d2-167722379)" style="stroke-width:2;stroke-dasharray:6,5.919384;stroke-dashoffset:-119.193836;animation:dashdraw 2.959692s linear infinite"/><path id="top-row.(heap.a -&gt; stack.a)[0]" fill="none" marker-end="url(#mk-2177206569)" d="m198.022 193.797-34.066 5.11" class="connection animated-connection stroke-B2" mask="url(#d2-167722379)" style="stroke-width:2;stroke-dasharray:6,5.919384;stroke-dashoffset:-119.193836;animation:dashdraw 2.959692s linear infinite"/><mask id="d2-167722379" width="360" height="379" x="0" y="0" maskUnits="userSpaceOnUse"><path fill="#fff" d="M0 0h360v379H0z"/><path fill="rgba(0,0,0,0.75)" d="M96 60h28v31H96zM236 60h28v31h-28zM106 176h8v21h-8zM105.5 197h9v21h-9zM106 218h8v21h-8zM240.5 176h19v21h-19zM245.5 217h9v21h-9z"/></mask></svg></svg>