<svg xmlns="http://www.w3.org/2000/svg" preserveAspectRatio="xMinYMin meet" viewBox="0 0 965 415"><svg id="d2-svg" width="965" height="415" class="d2-3310376270" viewBox="-1 0 965 415"><rect width="965" height="415" x="-1" stroke-width="0" rx="0" style="fill:#fff"/><style>.d2-3310376270 .text-mono{font-family:&quot;d2-3310376270-font-mono&quot;}@font-face{font-family:d2-3310376270-font-mono;src:url(/stylesheets/font/Virgil-hand.woff2)}.d2-3310376270 .text-mono-bold{font-family:&quot;d2-3310376270-font-mono-bold&quot;}@font-face{font-family:d2-3310376270-font-mono-bold;src:url(/stylesheets/font/Virgil-hand.woff2)}.d2-3310376270 .text-mono-italic{font-family:&quot;d2-3310376270-font-mono-italic&quot;}@font-face{font-family:d2-3310376270-font-mono-italic;src:url(/stylesheets/font/Virgil-hand.woff2)}.connection,.shape{stroke-linejoin:round}.shape{shape-rendering:geometricPrecision}.connection{stroke-linecap:round}.d2-3310376270 .fill-N1{fill:#000410}.d2-3310376270 .fill-B5{fill:#f5f6f9}.d2-3310376270 .fill-B6{fill:#fff}.d2-3310376270 .stroke-B1,.d2-3310376270 .stroke-N1{stroke:#000410}@media screen and (prefers-color-scheme:dark){.d2-3310376270 .fill-N1{fill:#cdd6f4}.d2-3310376270 .fill-B5{fill:#45475a}.d2-3310376270 .fill-B6{fill:#313244}.d2-3310376270 .stroke-N1{stroke:#cdd6f4}.d2-3310376270 .stroke-B1{stroke:#cba6f7}}.dots-overlay{fill:url(#dots);mix-blend-mode:multiply}</style><defs><pattern id="dots" width="15" height="15" x="0" y="0" patternUnits="userSpaceOnUse"><path fill="#0A0F25" d="M2 2h1v1H2zM12 2h1v1h-1zM12 12h1v1h-1zM2 12h1v1H2zM2 7h1v1H2zM12 7h1v1h-1zM7 2h1v1H7zM7 12h1v1H7zM7 7h1v1H7z" opacity=".1" style="mix-blend-mode:multiply"/></pattern></defs><defs><filter id="shadow-filter" width="200%" height="200%" x="-50%" y="-50%"><feGaussianBlur in="SourceGraphic" stdDeviation="1.7"/><feFlood flood-color="#3d4574" flood-opacity=".4" result="ShadowFeFlood"/><feComposite in="ShadowFeFlood" in2="SourceAlpha" operator="in" result="ShadowFeComposite"/><feOffset dx="3" dy="5" in="ShadowFeComposite" result="ShadowFeOffset"/><feBlend in="SourceGraphic" in2="ShadowFeOffset" result="ShadowFeBlend"/></filter></defs><g id="top-row" class="empty"><g class="shape"><path fill="transparent" d="M0 0h960v181H0z" class="stroke-B1" style="stroke-width:0"/><path d="M0 0h960v181H0z" class="dots-overlay" style="stroke-width:0"/><path fill="transparent" d="M5 5h950v171H5z" class="stroke-B1" style="stroke-width:0"/></g></g><g id="bottom-row" class="empty"><g class="shape"><path fill="transparent" d="M0 221h960v188H0z" class="stroke-B1" style="stroke-width:0"/><path d="M0 221h960v188H0z" class="dots-overlay" style="stroke-width:0"/><path fill="transparent" d="M5 226h950v178H5z" class="stroke-B1" style="stroke-width:0"/></g></g><g id="top-row.title" class="empty"><g class="shape"><path fill="transparent" d="M100 10h365v128H100z" class="stroke-B1" style="stroke-width:0"/></g><text x="282.5" y="165" class="text-mono-bold fill-N1" style="text-anchor:middle;font-size:22px">枚举不同变体内存占用情况</text></g><g id="top-row.code"><g style="display:block"><path d="M0 0h314v161H0z" class="shape stroke-N1" style="fill:#fff;stroke-width:2" transform="translate(475 10)"/><text y="1em" class="text-mono" transform="translate(483 18)"><tspan class="text-mono-bold">enum</tspan> <tspan fill="#458" class="text-mono-bold">Message</tspan><tspan fill="#bbb"> </tspan>{<tspan fill="#bbb">
</tspan></text><text y="2.3em" class="text-mono" transform="translate(483 18)"><tspan fill="#bbb">    </tspan>Quit,<tspan fill="#bbb">
</tspan></text><text y="3.6em" class="text-mono" transform="translate(483 18)"><tspan fill="#bbb">    </tspan>Move<tspan fill="#bbb"> </tspan>{<tspan fill="#bbb"> </tspan>x: <tspan fill="#458" class="text-mono-bold">i32</tspan>,<tspan fill="#bbb"> </tspan>y: <tspan fill="#458" class="text-mono-bold">i32</tspan> },<tspan fill="#bbb">
</tspan></text><text y="4.9em" class="text-mono" transform="translate(483 18)"><tspan fill="#bbb">    </tspan>Write(<tspan fill="#0086b3">String</tspan>),<tspan fill="#bbb">
</tspan></text><text y="6.2em" class="text-mono" transform="translate(483 18)"><tspan fill="#bbb">    </tspan>ChangeColor(<tspan fill="#458" class="text-mono-bold">i32</tspan>,<tspan fill="#bbb"> </tspan><tspan fill="#458" class="text-mono-bold">i32</tspan>,<tspan fill="#bbb"> </tspan><tspan fill="#458" class="text-mono-bold">i32</tspan>),<tspan fill="#bbb">
</tspan></text><text y="7.5em" class="text-mono" transform="translate(483 18)"><tspan fill="#bbb">    </tspan><tspan fill="#998" class="text-mono-italic">// Read(String),
</tspan></text><text y="8.8em" class="text-mono" transform="translate(483 18)">}</text></g></g><g id="bottom-row.tiger"><g class="shape" filter="url(#shadow-filter)"><rect width="960" height="30" y="257" class="stroke-B1 fill-B5" rx="10" style="stroke-width:2"/><rect width="960" height="30" y="257" class="dots-overlay" rx="10" style="stroke-width:2"/></g><text x="920" y="245" class="text-mono fill-N1" style="text-anchor:middle;font-size:24px">tiger</text></g><g id="bottom-row.bb" class="empty"><g class="shape"><path fill="transparent" d="M0 287h960v56H0z" class="stroke-B1" style="stroke-width:0"/><path d="M0 287h960v56H0z" class="dots-overlay" style="stroke-width:0"/></g></g><g id="bottom-row.tiger2"><g class="shape" filter="url(#shadow-filter)"><rect width="960" height="30" y="379" class="stroke-B1 fill-B5" rx="10" style="stroke-width:2"/><rect width="960" height="30" y="379" class="dots-overlay" rx="10" style="stroke-width:2"/></g><text x="912.5" y="367" class="text-mono fill-N1" style="text-anchor:middle;font-size:24px">tiger2</text></g><g id="bottom-row.tiger.&quot;cap:10&quot;"><g class="shape"><path d="M0 257h320v30H0z" class="stroke-B1 fill-B6" style="stroke-width:2"/></g><text x="160" y="277.5" class="text-mono-bold fill-N1" style="text-anchor:middle;font-size:16px">CAP:10</text></g><g id="bottom-row.tiger.ptr"><g class="shape"><path d="M320 257h320v30H320z" class="stroke-B1 fill-B6" style="stroke-width:2"/></g><text x="480" y="277.5" class="text-mono-bold fill-N1" style="text-anchor:middle;font-size:16px">PTR</text></g><g id="bottom-row.tiger.&quot;len:6&quot;"><g class="shape"><path d="M640 257h320v30H640z" class="stroke-B1 fill-B6" style="stroke-width:2"/></g><text x="800" y="277.5" class="text-mono-bold fill-N1" style="text-anchor:middle;font-size:16px">LEN:6</text></g><g id="bottom-row.bb.102" class="outside-empty"><g class="shape"><path fill="transparent" d="M0 313h320v30H0z" class="stroke-B1" style="stroke-width:0"/></g><text x="301" y="303" class="text-mono-bold fill-N1" style="text-anchor:middle;font-size:16px">102</text></g><g id="bottom-row.bb.p2" class="outside-empty"><g class="shape"><path fill="transparent" d="M320 313h320v30H320z" class="stroke-B1" style="stroke-width:0"/></g><text x="626" y="303" class="text-mono-bold fill-N1" style="text-anchor:middle;font-size:16px">P2</text></g><g id="bottom-row.bb.7-0" class="outside-empty"><g class="shape"><path fill="transparent" d="M640 313h320v30H640z" class="stroke-B1" style="stroke-width:0"/></g><text x="940.5" y="303" class="text-mono-bold fill-N1" style="text-anchor:middle;font-size:16px">7-0</text></g><g id="bottom-row.tiger2.&quot;cap:10&quot;"><g class="shape"><path d="M0 379h320v30H0z" class="stroke-B1 fill-B6" style="stroke-width:2"/></g><text x="160" y="399.5" class="text-mono-bold fill-N1" style="text-anchor:middle;font-size:16px">CAP:10</text></g><g id="bottom-row.tiger2.ptr"><g class="shape"><path d="M320 379h320v30H320z" class="stroke-B1 fill-B6" style="stroke-width:2"/></g><text x="480" y="399.5" class="text-mono-bold fill-N1" style="text-anchor:middle;font-size:16px">PTR</text></g><g id="bottom-row.tiger2.0x80"><g class="shape"><path d="M640 379h40v30h-40z" class="stroke-B1 fill-B6" style="stroke-width:2"/></g><text x="660" y="399.5" class="text-mono-bold fill-N1" style="text-anchor:middle;font-size:16px">0X80</text></g><g id="bottom-row.tiger2.1"><g class="shape"><path d="M680 379h280v30H680z" class="stroke-B1 fill-B6" style="stroke-width:2"/></g><text x="820" y="399.5" class="text-mono-bold fill-N1" style="text-anchor:middle;font-size:16px">1</text></g><g id="(top-row -&gt; bottom-row)[0]"><marker id="mk-4044349442" markerHeight="28" markerUnits="userSpaceOnUse" markerWidth="22" orient="auto" refX="13" refY="14" viewBox="0 0 22 28"><path stroke-width="6" d="m0 0 22 14L0 28z" class="connection" style="fill:#000410"/></marker><path fill="none" marker-end="url(#mk-4044349442)" d="M480 184v28" class="connection stroke-B1" mask="url(#d2-3310376270)" style="stroke-width:6"/></g><mask id="d2-3310376270" width="965" height="415" x="-1" y="0" maskUnits="userSpaceOnUse"><path fill="#fff" d="M-1 0h965v415H-1z"/><path fill="rgba(0,0,0,0.75)" d="M122.5 143h320v28h-320zM475 10h298v145H475zM885 221h70v31h-70zM870 343h85v31h-85zM131.5 261.5h57v21h-57zM465.5 261.5h29v21h-29zM776.5 261.5h47v21h-47zM287 287h28v21h-28zM617 287h18v21h-18zM926 287h29v21h-29zM131.5 383.5h57v21h-57zM465.5 383.5h29v21h-29zM641 383.5h38v21h-38zM816 383.5h8v21h-8z"/></mask></svg></svg>