<svg xmlns="http://www.w3.org/2000/svg" width="605.208" height="489.583" preserveAspectRatio="none" style="width:605px;height:489px;background:#fff" viewBox="0 0 605 489"><defs><filter id="a" width="300%" height="300%" x="-1" y="-1"><feGaussianBlur result="blurOut" stdDeviation="2.083"/><feColorMatrix in="blurOut" result="blurOut2" values="0 0 0 0 0 0 0 0 0 0 0 0 0 0 0 0 0 0 .4 0"/><feOffset dx="4.167" dy="4.167" in="blurOut2" result="blurOut3"/><feBlend in="SourceGraphic" in2="blurOut3"/></filter></defs><text x="515.625" y="41.961" fill="#2E2E2E" font-size="10.417" textLength="54.167">made by x</text><text x="157.292" y="108.547" fill="#BA55D3" font-size="20.833" font-weight="bold" textLength="287.5">命令的执行过程(以rustc举例)</text><path fill="#FFEFD5" d="M249.48 137.419v.219l10.416-.651 10.416.633 10.417.215 10.417-1.16 10.416.663 10.417-.364 10.417.045 10.416.329 10.417.07-.092-.221.902.704.58-.074.794.444.82.507.679.166-.027-.011.354.757.273.723.373.764.324.745.228.705h.204l.03 6.38.002 6.38-.147 6.38.072 6.38-.16 6.381.225.093-.762.548.144.922-.618.607-.039.847-.476.666-.066-.159-.68.442-.629.565-.841.052-.716.354-.75.271v.353l-10.418.08-10.416-.437-10.417.304-10.416-.896-10.417.893-10.417.274-10.416-.108-10.417.176-10.417-.639-.064-.155-.76-.359-.732-.295-.661-.125-.755-.35-.71-.241.218.09-.58-.85-.359-.759-.122-.66-.592-.856-.091-.648h-.18l.405-6.38-.074-6.38.104-6.38-.367-6.38.112-6.381.102.042.392-.7-.035-.878.425-.686.377-.708.264-.753.087.21.65-.516.798-.156.601-.63.72-.346z" filter="url(#a)" style="stroke:#333;stroke-width:1.0416666666666667"/><text x="260.938" y="164.347" fill="#2E2E2E" font-size="16.667" textLength="76.042">执行rustc</text><path fill="#E7FEFF" d="M101.042 200.57v.219l10.28-.65 10.279.632 10.28.215 10.28-1.16 10.279.663 10.28-.364 10.279.045 10.28.329 10.28-.65 10.279 1.297 10.28-1.233 10.279.45 10.28.657 10.28-.54 10.279.16 10.28-.104 10.279.22 10.28.063 10.28.36 10.279.09 10.28.008 10.279-.442 10.28.218 10.28.248 10.279-1.483 10.28 1.458 10.279-1.015 10.28.865 10.28-1.072 10.279.444 10.28.844 10.279-.823 10.28.16 10.28.243 10.279.081 10.28-.437 10.28.303 10.279-.3-.076-.183.85.58.772.39.722.272.76.359.654.108-.154-.064.25.714.315.74.486.812.26.718.369.763h.71l-.892 10.14-.175 10.14.595 10.14-.933 10.14.154 10.14 1.217 10.14-.222 10.14-.454 10.14.236.097-.644.597-.1.821-.218.773-.646.595-.154.8-.012-.031-.707.376-.667.474-.824.095-.674.454-.798.157v-.577l-10.28-.128-10.28 1.23-10.28-1.272-10.279 1.277-10.28-.315-10.279-.494-10.28-.09-10.28.847-10.279-.79-10.28.929-10.279-1.193-10.28 1.22-10.28-.14-10.279-.249-10.28-.206-10.279.708-10.28-.118-10.28-.463-10.279.103-10.28-.415-10.279.882-10.28-.585-10.28.019-10.279-.814-10.28.212-10.28.975-10.279-.105-10.28-.493-10.279-.29-10.28.107-10.28-.487-10.279 1.147-10.28.339-10.279-.223-10.28.176-10.28-.866-10.279.233-10.28-.09-.05-.125-.648-.09-.742-.317-.696-.207-.84-.556-.706-.231-.043-.018-.12-.66-.265-.72-.652-.88-.203-.694-.243-.711h.156l-.792-10.14 1.004-10.14-.099-10.14-.374-10.14.254-10.14.61-10.14-1.085-10.14.326-10.14.101.042.296-.74.25-.76.314-.733.296-.74.269-.752-.083-.2.766-.234.729-.324.806-.137.74-.297z" filter="url(#a)" style="stroke:#333;stroke-width:1.0416666666666667"/><text x="107.292" y="227.498" fill="#2E2E2E" font-size="16.667" font-weight="bold" textLength="312.5">会运行 ~/.cargo/bin/rustc 可执行文件</text><path fill="#E7FEFF" d="M95.833 236.637v.292l10.284-.867 10.283.844 10.283.286 10.283-1.546 10.283.883 10.283-.484 10.283.06 10.283.438 10.283-.866 10.284 1.73 10.283-1.645 10.283.6 10.283.875 10.283-.719 10.283.214 10.283-.139 10.283.292 10.284.085 10.283.48 10.283.12 10.283.01 10.283-.589 10.283.29 10.283.332 10.283-1.977 10.283 1.944 10.284-1.354 10.283 1.153 10.283-1.43 10.283.593 10.283 1.125 10.283-1.097 10.283.214 10.283.324 10.284.107 10.283-.583 10.283.404 10.283-1.194 10.283.795" style="stroke:#333;stroke-width:1.0416666666666667;stroke-dasharray:1,2"/><path fill="#2E2E2E" d="m115.64 254.068-.382.521-.452.764-.646.515-.678.282-.541.024-.696-.352-.656-.23-.498-.467-.261-.535-.155-.425-.152-.557-.246-.478.19-.467.165-.512.623-.405.438-.525.541-.174.645-.15.826.089.453.213.526.097.64.655.223.692.097.472-.11.778z" style="stroke:#2e2e2e;stroke-width:0"/><text x="119.792" y="257.316" fill="#2E2E2E" font-size="16.667" textLength="365.625">你会发现 ~/.cargo/bin/ 目录下的文件大小都一样</text><path fill="#2E2E2E" d="m115.64 273.469-.382.521-.452.764-.646.515-.678.282-.541.024-.696-.352-.656-.23-.498-.467-.261-.535-.155-.425-.152-.556-.246-.48.19-.466.165-.512.623-.405.438-.525.541-.174.645-.15.826.089.453.213.526.097.64.655.223.692.097.473-.11.778z" style="stroke:#2e2e2e;stroke-width:0"/><text x="119.792" y="276.717" fill="#2E2E2E" font-size="16.667" textLength="288.542">切换了toolchain 版本 ,这里的也不会变</text><path fill="#E7FEFF" d="M16.667 312.94v.218l10.359-.65 10.358.633 10.36.215 10.358-1.16 10.359.662 10.358-.363 10.36.045 10.358.328 10.359-.649 10.359 1.297 10.358-1.233 10.36.45 10.358.656 10.359-.539 10.359.16 10.358-.104 10.36.22 10.358.063 10.359.36 10.359.09 10.358.008 10.36-.442 10.358.217 10.359.249 10.359-1.483 10.358 1.458 10.36-1.015 10.358.865 10.359-1.072 10.359.444 10.358.844 10.36-.823 10.358.16 10.359.243 10.358.081 10.36-.438 10.358.304 10.359-.896 10.359.893 10.358.274 10.36-.108 10.358.176 10.359-1.142 10.359-.176 10.358.032 10.36.586 10.358-.143 10.359.914 10.359-.892 10.358-.175 10.36.595 10.358-.932 10.359.154 10.359.54.086.209.708.236.776.401.597-.034.821.511.695.203.189.078-.036.596.426.786.376.766.474.807.096.65h-.004l.486 10.14-1.059 10.14-.129 10.14 1.23 10.14-1.27 10.14 1.276 10.14-.315 10.14-.215 10.14-.086-.036-.333.725-.044.845-.548.635-.02.856-.495.657-.073-.177-.581.68-.754.263-.769.228-.763.242-.742.29v.757l-10.36-.118-10.358-.463-10.359.103-10.359-.415-10.358.882-10.36-.585-10.358.019-10.359-.814-10.358.212-10.36.975-10.358-.105-10.359-.493-10.359-.29-10.358.107-10.36-.487-10.358 1.147-10.359.338-10.359-.222-10.359.176-10.358-.866-10.36.233-10.358-.495-10.359.7-10.358-.039-10.36.318-10.358-.814-10.359.099-10.359.602-10.358.129-10.36-1.125-10.358.332-10.359.357-10.359-.791-10.358 1.004-10.36-.1-10.358-.373-10.359.253-10.359.61-10.358-1.084-10.36.654-10.358-.03-10.359-.178-10.359.027-10.358-.029-10.36-.768-10.358.232-10.359-.063-10.359.547-10.358.026-10.36.076-10.358-.471-10.359.233-10.358-.055-10.36.125.077.185-.756-.353-.858-.598-.682-.173-.803-.467-.66-.12.092.039-.202-.694-.326-.745-.62-.867-.016-.617-.454-.798h-.773l.982-10.14-.52-10.14.412-10.14.15-10.14.241-10.14-1.242-10.14 1.246-10.14-.496-10.14.057.023.362-.713.431-.684.067-.835.36-.714.249-.76.028.068.735-.31.71-.369.831-.076.561-.73z" filter="url(#a)" style="stroke:#333;stroke-width:1.0416666666666667"/><text x="22.917" y="339.868" fill="#2E2E2E" font-size="16.667" font-weight="bold" textLength="546.875">会去执行~/.rustup/toolchains/[当前使用的toolchain的名字]/rustc</text><path fill="#E7FEFF" d="M11.458 349.007v.292l10.36-.867 10.36.844 10.36.286 10.36-1.546 10.36.883 10.36-.484 10.36.06 10.36.438 10.359-.866 10.36 1.73 10.36-1.645 10.36.6 10.36.875 10.36-.719 10.36.214 10.359-.14 10.36.293 10.36.084 10.36.482 10.36.118 10.36.012 10.359-.59 10.36.29 10.36.332 10.36-1.978 10.36 1.945 10.36-1.355 10.36 1.154 10.359-1.43 10.36.593 10.36 1.125 10.36-1.097 10.36.213 10.36.325 10.359.107 10.36-.583 10.36.404 10.36-1.194 10.36 1.19 10.36.367 10.36-.144 10.359.234 10.36-1.523 10.36-.235 10.36.043 10.36.781 10.36-.19 10.36 1.219 10.359-1.19 10.36-.233 10.36.793 10.36-1.243 10.36.205 10.36 1.623 10.359-.902" style="stroke:#333;stroke-width:1.0416666666666667;stroke-dasharray:1,2"/><path fill="#2E2E2E" d="m31.264 366.438-.381.521-.452.764-.646.515-.678.281-.541.025-.696-.352-.656-.23-.498-.467-.261-.535-.155-.426-.152-.556-.246-.478.19-.467.165-.512.623-.405.438-.525.541-.175.645-.15.826.09.453.213.526.097.64.655.223.692.097.472-.11.778z" style="stroke:#2e2e2e;stroke-width:0"/><text x="35.417" y="369.686" fill="#2E2E2E" font-size="16.667" textLength="269.792">~/.cargo/bin/rustc 其实是代理程序</text><path fill="#2E2E2E" d="m31.264 385.839-.381.521-.452.764-.646.515-.678.281-.541.025-.696-.352-.656-.23-.498-.467-.261-.535-.155-.426-.152-.556-.246-.478.19-.468.165-.511.623-.405.438-.525.541-.175.645-.15.826.09.453.213.526.097.64.655.223.692.097.472-.11.778z" style="stroke:#2e2e2e;stroke-width:0"/><text x="35.417" y="389.087" fill="#2E2E2E" font-size="16.667" textLength="378.125">会根据当前toolchain 版本信息执行对应版本的命令</text><path fill="#333" d="M296.354 179.736h.098l-.29 4.167.282 4.167.095 4.166-.515 4.167.33 4.167" style="stroke:#333;stroke-width:3.125"/><path fill="#333" d="m292.188 190.153.067.027.632 2.003 1.03 2.162.9 2.11.474 1.94 1.063 2.175-.025-.01.721-2.129.847-2.078.935-2.042.633-2.164 1.056-1.994.136.136-1.124.543-.727.94-.68.987-.96.706-.812.855.017.016-.858-.858-.782-.781-.818-.819-.748-.748z" style="stroke:#333;stroke-width:1.0416666666666667"/><path fill="#333" d="M296.354 292.106h.098l-.29 4.167.282 4.166.095 4.167-.515 4.167.33 4.166" style="stroke:#333;stroke-width:3.125"/><path fill="#333" d="m292.188 302.523.067.027.632 2.003 1.03 2.161.9 2.11.474 1.94 1.063 2.175-.025-.01.721-2.128.847-2.078.935-2.042.633-2.164 1.056-1.994.136.136-1.124.542-.727.94-.68.988-.96.706-.812.855.017.016-.858-.858-.782-.781-.818-.819-.748-.748z" style="stroke:#333;stroke-width:1.0416666666666667"/><text x="286.979" y="451.346" fill="#2E2E2E" font-size="14.583" textLength="28.125">图 2</text></svg>