<svg xmlns="http://www.w3.org/2000/svg" xmlns:xlink="http://www.w3.org/1999/xlink" width="1257.292" height="1596.875" preserveAspectRatio="none" style="width:1257px;height:1596px;background:#fff" viewBox="0 0 1257 1596"><defs><filter id="a" width="300%" height="300%" x="-1" y="-1"><feGaussianBlur result="blurOut" stdDeviation="2.083"/><feColorMatrix in="blurOut" result="blurOut2" values="0 0 0 0 0 0 0 0 0 0 0 0 0 0 0 0 0 0 .4 0"/><feOffset dx="4.167" dy="4.167" in="blurOut2" result="blurOut3"/><feBlend in="SourceGraphic" in2="blurOut3"/></filter></defs><text x="1167.708" y="41.961" fill="#2E2E2E" font-size="10.417" textLength="54.167">made by x</text><text x="536.458" y="108.547" fill="#BA55D3" font-size="20.833" font-weight="bold" textLength="181.25">rustup的设计思路</text><path fill="#FFEFD5" d="M596.875 137.419v.219l10.208-.651 10.209.633 10.208.215 10.208-1.16 10.209.744-.01-.025.69.193.742.319.778.406.654.105.829.527.177.074-.075.579.444.794.507.82.14.668.332.748h.024l-.035 6.38.073 6.38.021 6.38.12 6.38-.203 6.381.215.09-.302.737-.442.68-.238.764-.228.769-.53.643-.096-.232-.55.755-.867-.008-.626.571-.874-.025-.67.464v-.071l-10.209.844-10.208-.823-10.208.16-10.209.243-10.208-.353.055.134-.792-.44-.698-.212-.85-.58-.624-.03-.774-.397.176.073-.338-.75-.251-.715-.657-.882-.36-.76-.095-.649h-.216l.195-6.38-.048-6.38.305-6.38-.297-6.38.06-6.381-.11-.046.489-.66.018-.856.352-.717.68-.581.097-.823.058.14.776-.21.596-.643.822-.1.773-.218z" filter="url(#a)" style="stroke:#333;stroke-width:1.0416666666666667"/><text x="608.333" y="164.347" fill="#2E2E2E" font-size="16.667" textLength="33.333">rust</text><path fill="none" d="M427.604 229.175v.292l10.363-.868 10.364.844 10.363.287 10.363-1.546 10.363.883 10.364-.484 10.363.06 10.363.437 10.363-.865 10.364 1.729 10.363-1.645 10.363.601 10.363.875 10.364-.72 10.363.215 10.363-.14 10.363.293 10.364.084 10.363.481 10.363.119 10.363.011 10.364-.59 10.363.29 10.363.332 10.363-1.977 10.364 1.944 10.363-1.354 10.363 1.153 10.363-1.429 10.364.593 10.363 1.125 10.363-1.098 10.363.214 10.364.324 10.363.108 10.363-.584 10.363.405 10.364-1.194 10.363.795" style="stroke:#333;stroke-width:1.5625"/><path fill="none" d="M396.354 259.709v.219l10.417-.65 10.416.632 10.417.215 10.417-1.16 10.416.663 10.417.08-.056-.136.742.319.778.406.654.105.902.705.663.127-.202-.084.444.794.507.82.139.668.354.757.284.728h-.034l.22 10.287.063 10.286.36 10.286.09 10.287.008 10.286-.707 10.287.081.034-.238.764-.228.768-.762.548.144.922-.523.647-.04-.096-.626.572-.873-.025-.68.442-.629.565-.835.067v-.05l-10.416.16-10.417.243-10.417.08-10.416-.437-10.417.303-10.417-.299-.076-.184-.623-.03-.701-.22-.75-.339-.715-.25-.818-.502-.155-.065-.359-.759-.295-.732-.125-.662-.35-.755-.241-.71h.71l-.892-10.287-.175-10.286.595-10.287-.933-10.286.154-10.286.54-10.287.209.086.237-.765.4-.697-.033-.877.51-.65.203-.78.079.19.595-.647.787-.184.766-.234.806-.136z" filter="url(#a)" style="stroke:#333;stroke-width:1.0416666666666667"/><text x="402.604" y="286.637" fill="#2E2E2E" font-size="16.667" textLength="50">编译器</text><path fill="none" d="M391.146 295.776v.292l10.416-.867 10.417.844 10.417.286 10.416-1.546 10.417.883 10.417-.484 10.416.592" style="stroke:#333;stroke-width:1.0416666666666667;stroke-dasharray:1,2"/><text x="402.604" y="316.455" fill="#2E2E2E" font-size="16.667" textLength="42.708">rustc</text><path fill="none" d="M498.438 250.008v.22l10.833-.651 10.833.632 10.833.215 10.834-1.159 10.833.662 10.833-.363 10.834.045 10.833.328 10.833-.649 10.834.72.073.178.58-.075.794.444.82.507.668.139.748.333.022.009.273.723.372.764.325.745.416.783.117.659h.7l.008 10.14-.443 10.14.218 10.14.249 10.14-1.483 10.14 1.458 10.14-1.016 10.14.31 10.14.17.07-.635.6-.168.793-.045.844-.559.632-.29.743.015.034-.706.38-.726.33-.792.17-.698.399-.775.213v-.597l-10.833.893-10.834.275-10.833-.108-10.833.175-10.834-1.142-10.833-.176-10.833.032-10.834.586-10.833-.143-10.834.205.091.218-.85-.58-.76-.359-.66-.122-.855-.592-.648-.09-.167-.07.07-.581-.374-.765-.209-.697-.644-.877-.202-.694h.333l.282-10.14-1.107-10.14.392-10.14.231-10.14.548-10.14-.683-10.14.486-10.14-.482-10.14-.178-.073.266-.753.684-.58-.087-.899.699-.573.142-.804.027.066.674-.457.725-.333.844-.044.636-.549z" filter="url(#a)" style="stroke:#333;stroke-width:1.0416666666666667"/><path fill="#2E2E2E" d="m513.035 273.688-.381.522-.452.764-.646.515-.678.281-.541.025-.696-.352-.656-.23-.498-.467-.261-.535-.155-.426-.152-.556-.246-.478.19-.467.165-.512.622-.405.438-.525.542-.175.645-.15.826.09.452.213.527.097.64.655.222.692.097.472-.11.778z" style="stroke:#2e2e2e;stroke-width:0"/><text x="517.188" y="276.937" fill="#2E2E2E" font-size="16.667" textLength="66.667">构建工具</text><path fill="#2E2E2E" d="m513.035 293.09-.381.521-.452.764-.646.515-.678.281-.541.025-.696-.352-.656-.23-.498-.467-.261-.535-.155-.426-.152-.556-.246-.478.19-.467.165-.512.622-.405.438-.525.542-.175.645-.15.826.09.452.213.527.097.64.655.222.692.097.472-.11.778z" style="stroke:#2e2e2e;stroke-width:0"/><text x="517.188" y="296.338" fill="#2E2E2E" font-size="16.667" textLength="83.333">包管理工具</text><path fill="none" d="M493.23 305.477v.292l10.795-.868 10.795.844 10.795.287 10.796-1.546 10.795.883 10.796-.485 10.795.06 10.796.438 10.795-.865 10.796 1.729 10.795-.77" style="stroke:#333;stroke-width:1.0416666666666667;stroke-dasharray:1,2"/><text x="504.688" y="326.156" fill="#2E2E2E" font-size="16.667" textLength="46.875">cargo</text><path fill="none" d="M646.354 259.709v.219l10.764-.65 10.764.632 10.764.215 10.764-1.16 10.764.663 10.764-.364 10.763.045 10.764.329 10.764-.65 10.764 1.297 10.764-1.233 10.764.657-.026-.064.82.507.668.14.757.354.723.273.74.315.058.024.325.745.416.782.332.748.308.738.087.646h.265l.218 10.287.249 10.286-1.483 10.286 1.458 10.287-1.016 10.286.31 10.287.17.07-.635.6-.168.794-.045.844-.559.631-.29.744.015.033-.706.38-.726.33-.792.17-.698.4-.775.212v-.596l-10.764.892-10.764.275-10.764-.108-10.764.176-10.764-1.142-10.764-.176-10.763.032-10.764.586-10.764-.144-10.764.915-10.764-.892-10.764.182-.045-.11-.661-.122-.856-.592-.716-.258-.582.07-.823-.513.14.058-.21-.697-.643-.877-.1-.652-.218-.7-.494-.815h-.492l.392-10.287.231-10.286.548-10.287-.684-10.286.487-10.286-.482-10.287-.178-.074.266-.753.684-.58-.087-.898.698-.574.142-.804.028.066.673-.457.725-.333.845-.044.636-.548z" filter="url(#a)" style="stroke:#333;stroke-width:1.0416666666666667"/><text x="652.604" y="286.637" fill="#2E2E2E" font-size="16.667" textLength="116.667">代码格式化工具</text><path fill="none" d="M641.146 295.776v.292l10.737-.867 10.737.844 10.737.286 10.738-1.546 10.737.883 10.737-.484 10.737.06 10.737.438 10.737-.866 10.738 1.73 10.737-1.645 10.737.6 10.737.275" style="stroke:#333;stroke-width:1.0416666666666667;stroke-dasharray:1,2"/><text x="652.604" y="316.455" fill="#2E2E2E" font-size="16.667" textLength="61.458">rustfmt</text><path fill="none" d="M815.104 274.618v.072l6.667-.216 6.667.21 6.666.072 6.667-.386 6.667.248-.01-.025.69.193.742.319.778.406.654.105.828.527.178.074-.075.579.444.794.507.82.14.668.332.748h.024l-.035 6.38.073 6.38.02 6.38.121 6.38-.203 6.38.215.09-.302.738-.442.68-.238.764-.228.769-.53.643-.096-.232-.551.755-.866-.008-.626.571-.874-.025-.67.464v-.024l-6.667.282-6.667-.275-6.667.054-6.666.08-6.667-.117.055.134-.792-.44-.698-.212-.85-.58-.623-.03-.775-.397.176.073-.338-.75-.251-.715-.657-.882-.36-.76-.095-.65h-.216l.195-6.38-.047-6.38.304-6.38-.297-6.38.06-6.38-.11-.046.49-.66.017-.856.353-.717.68-.581.096-.823.058.14.776-.21.597-.643.821-.1.773-.218z" filter="url(#a)" style="stroke:#333;stroke-width:1.0416666666666667"/><text x="826.563" y="301.546" fill="#2E2E2E" font-size="16.667" textLength="15.625">...</text><path fill="none" d="M427.604 362.378v.292l10.363-.868 10.364.844 10.363.287 10.363-1.546 10.363.883 10.364-.484 10.363.06 10.363.437 10.363-.865 10.364 1.729 10.363-1.644 10.363.6 10.363.875 10.364-.72 10.363.215 10.363-.14 10.363.293 10.364.084 10.363.481 10.363.119 10.363.011 10.364-.59 10.363.29 10.363.332 10.363-1.977 10.364 1.944 10.363-1.354 10.363 1.153 10.363-1.429 10.364.593 10.363 1.125 10.363-1.098 10.363.214 10.364.324 10.363.108 10.363-.584 10.363.405 10.364-1.194 10.363.795" style="stroke:#333;stroke-width:1.5625"/><path fill="#17A2B8" d="M681.77 411.001h.585l-1.735 10.742 1.688 10.743.573 10.742-3.092 10.742 1.766 10.742.216 10.742-.078-.387-4.159.872-4.109 1.12-4.28.267-3.94 1.964-4.268.33-.114-.571 4.245 1.226 4.281 1.405 4.073.363 4.195.973 4.154.772h-.089l.585 10.742.168 10.742.963 10.742.237 10.742.023 10.743-1.887 10.742v.707l10.2.58 10.2.663 10.199-3.954 10.2 3.888 10.2-2.708 10.199 2.306 10.2-2.857 10.2 1.184 10.199 2.25 10.2-2.195 10.199.428 10.2.648 10.2.216 10.199-1.167 10.2.808 10.2-2.387 10.199 2.38 10.2.732 10.2-.288 10.199.468 10.2-3.044 10.2-.47 10.199.086 10.2 1.726h-.164l-.382-10.569 2.438-10.568-2.378-10.57-.467-10.568 1.587-10.568-2.487-10.569.41-10.568 3.245-10.569-.592-10.569.83-10.568-2.934-10.569.894-10.568.208.209-1.905-1.906-2.78-2.78-1.836-1.836-1.938-1.938-2.166-2.166v1.81l-10.19-1.822-10.19 1.297-10.19-2.823-10.191-.343-10.19 3.28-10.19-3.39-10.19 3.405-10.19-.84-10.191-1.318-10.19-.239-10.19 2.257-10.19-2.105-10.191 2.475-10.19-3.18-10.19 3.251-10.19-.37-10.19-.664-10.191-.55-10.19 1.887-10.19-.314-10.19-1.234-10.19.275-10.191-.745" filter="url(#a)" style="stroke:#1592a6;stroke-width:1.0416666666666667"/><path fill="#17A2B8" d="M916.146 411.001h.194l-.578 2.083.563 2.084.19 2.083-1.03 2.083.66 2.084v-.072l2.084-.323 2.083.04 2.084.292 2.083-.577 2.083.64.363.362-2.858-2.858-1.8-1.8-1.672-1.671-2.422-2.423-2.027-2.027" style="stroke:#1592a6;stroke-width:1.0416666666666667"/><text x="693.229" y="436.888" fill="#FFF" font-size="16.667" textLength="212.5">管理上面的工具链(一堆工具)</text><path fill="#FFF" d="m701.577 453.04-.382.522-.451.764-.646.515-.679.282-.54.024-.696-.352-.656-.23-.498-.467-.261-.535-.155-.425-.152-.556-.246-.479.189-.467.166-.512.622-.405.438-.525.542-.174.644-.15.827.089.452.213.526.097.64.655.223.692.097.473-.11.778z" style="stroke:#fff;stroke-width:0"/><text x="705.729" y="456.289" fill="#FFF" font-size="16.667" textLength="66.667">下载安装</text><path fill="#FFF" d="m701.577 472.442-.382.521-.451.764-.646.515-.679.282-.54.024-.696-.352-.656-.23-.498-.467-.261-.535-.155-.425-.152-.556-.246-.479.189-.467.166-.512.622-.405.438-.525.542-.174.644-.15.827.089.452.213.526.097.64.655.223.692.097.473-.11.778z" style="stroke:#fff;stroke-width:0"/><text x="705.729" y="475.69" fill="#FFF" font-size="16.667" textLength="33.333">卸载</text><path fill="#FFF" d="m701.577 491.843-.382.521-.451.764-.646.515-.679.282-.54.024-.696-.352-.656-.23-.498-.467-.261-.535-.155-.425-.152-.556-.246-.479.189-.467.166-.512.622-.405.438-.525.542-.174.644-.15.827.089.452.213.526.097.64.655.223.692.097.473-.11.778z" style="stroke:#fff;stroke-width:0"/><text x="705.729" y="495.091" fill="#FFF" font-size="16.667" textLength="33.333">更新</text><path fill="#FFF" d="m701.577 511.244-.382.521-.451.764-.646.515-.679.282-.54.024-.696-.352-.656-.23-.498-.467-.261-.535-.155-.425-.152-.556-.246-.479.189-.467.166-.512.622-.405.438-.525.542-.174.644-.15.827.089.452.213.526.097.64.656.223.692.097.472-.11.778z" style="stroke:#fff;stroke-width:0"/><text x="705.729" y="514.492" fill="#FFF" font-size="16.667" textLength="66.667">切换版本</text><text x="693.229" y="533.893" fill="#FFF" font-size="16.667" textLength="142.708">相当于node的nvm</text><path fill="ivory" d="M589.063 458.462v.219l11.11-.65 11.112.632 11.11.215 11.112-1.16 11.111.663 11.111.081-.057-.137.743.32.778.405.654.106.902.704.663.127-.202-.083.444.794.507.82.139.668.354.757.284.727h-.012l.073 6.38.021 6.38.12 6.381.03 6.38-.232 6.38.217.09-.44.68-.239.765-.229.768-.761.548-.074.832.09.218-.866-.008-.626.572-.874-.025-.68.442-.727.327v.772l-11.11-.823-11.112.16-11.111.243-11.111.081-11.111-.437-11.111.004.038.092-.851-.581-.623-.03-.701-.22-.75-.34-.796-.447.196.082-.656-.882-.36-.76-.295-.732-.125-.662-.286-.729h-.068l.305-6.38-.298-6.38-.058-6.38.198-6.38-.079-6.38-.214-.09.353-.716.68-.582.236-.764.401-.697.07-.834-.043-.104.822-.1.772-.217.596-.646.786-.185z" filter="url(#a)" style="stroke:#333;stroke-width:1.0416666666666667"/><text x="595.313" y="485.391" fill="#2E2E2E" font-size="16.667" textLength="54.167">rustup</text><path fill="#FFFACD" d="M466.667 605.45v.22l10.478-.65 10.478.632 10.478.215 10.477-1.16 10.478.663 10.478-.363 10.478.045 10.478.328 10.478-.65 10.478 1.298 10.478-1.234 10.478.45 10.478.657 10.478-.54 10.478.161 10.478-.104 10.478.219 10.478.063 10.477.361 10.479.089 10.477.009 10.478-.443 10.478.218 10.478.248 10.478-1.482 10.478 1.458 10.478-1.016 10.478.865 10.478-1.072 10.478.445 10.478.843 10.478-.823 10.478.16 10.478.244 10.478.08 10.477-.437 10.479.303 10.477-.895 10.478.892 10.478.275 10.478-.108 10.478.176 10.478-1.142 10.478-.176 10.478.032 10.478.586 10.478-.144 10.478.915 10.478-.892 10.478-.175 10.478.595 10.478-.933 10.477.154 10.479 1.217 10.477-.222 10.478.311 10.478-1.1 10.478.667 10.478.283 10.478-1.107 10.478.392 10.478.231 10.478.548 10.478-.683 10.478.486 10.478-1.059 10.478-.129 10.478.706.067.161-.015-.33.31.454.107-.036.084-.09.183.146-.113-.047.321.255-.182.047.347.266-.306-.005.238.22h.643l-.138 10.322-.25 10.322-.206 10.322.708 10.322-.117 10.322-.463 10.322.103 10.322-.415 10.322.882 10.322-.585 10.321.018 10.322-.813 10.322.211 10.322.975 10.322-.105 10.322-.492 10.322.044 10.322-.103-.043-.028.16-.21.086.291.294.043.19-.298.05.07.168-.125.115-.258-.206-.117.133-.21-.091-.096.185v.296l-10.478-.039-10.478.319-10.478-.815-10.478.1-10.478.601-10.478.13-10.478-1.126-10.478.332-10.478.358-10.478-.792-10.478 1.004-10.478-.099-10.478-.374-10.477.254-10.479.61-10.477-1.085-10.478.654-10.478-.03-10.478-.177-10.478.026-10.478-.029-10.478-.768-10.478.233-10.478-.064-10.478.548-10.478.025-10.478.077-10.478-.472-10.478.233-10.478-.055-10.477.726-10.479-.156-10.477-.95-10.478.43-10.478-.526-10.478.902-10.478.333-10.478-.067-10.478-1.02-10.478.937-10.478-1.258-10.478.983-10.478-.52-10.478.412-10.478.15-10.478.241-10.478-1.242-10.477 1.246-10.479-.31-10.477.184-10.478.41-10.478-.774-10.478.177-10.478.04-10.478-.017-10.478-.207-10.478.742-10.478-1.376-10.478 1.224-10.478-1.239-10.478.087-10.478.605-10.478-.012-10.478-.543-10.477.944-10.478-.317-10.478.643-10.478-.757.088.214-.295-.418-.14-.045-.112.025-.083.094-.195-.175.13.054-.094-.161-.268-.233.253-.017-.062-.148-.264-.231h-.05l-.199-10.322-.17-10.322.195-10.322.367-10.322-.214-10.322-.364-10.322.943-10.322-.986-10.321 1.001-10.322-.078-10.322-.058-10.322.334-10.322-.977-10.322-.057-10.322.853-10.322-1.162-10.322.622-10.321-.075-.032.173-.1.046-.154-.076-.204.162-.105.075-.142.099.239.135-.092-.018-.46.236.155.07-.25z" filter="url(#a)" style="stroke:#333;stroke-width:1.0416666666666667"/><path fill="none" d="M563.542 605.45h.194l-.578 4.506.563 4.505.19 4.506-1.03 4.505.66 4.505-.05-.05-2.312 1.854-2.055 2.112-1.877 2.29-2.491 1.675-1.631 2.536v1.538l-10.937-3.29-10.938 1.202-10.937 1.75-10.938-1.439-10.937.428-10.938-.278-10.937.585-10.938-.496" style="stroke:#333;stroke-width:1.0416666666666667"/><text x="479.167" y="627.171" fill="#FF4500" font-size="16.667" textLength="71.875">channels</text><path fill="#17A2B8" d="M779.167 659.227h.583l-1.734 10.086 1.688 10.087.573 10.086-3.092 10.086 1.766 10.086-.969 10.087.12 10.086.875 10.086-1.73 10.086 1.92 10.087v1.538l10.276-3.29 10.275 1.202 10.276 1.75 10.276-1.439 10.276.428 10.276-.278 10.276.585 10.276.168 10.276.962 10.276.238 10.276.022 10.275-1.18 10.276.581 10.276.663 10.276-3.954 10.276 3.888 10.276-2.708 10.276 2.306 10.276-2.857 10.276 1.184 10.276 2.25 10.275-2.195 10.276.428 10.276.648 10.276.216 10.276-1.167 10.276.808 10.276-2.387 10.276 2.38 10.276.732 10.276-.288 10.275.469 10.276-3.045 10.276-.47 10.276.086 10.276 1.562 10.276.164h-.546l2.439-10.05-2.378-10.05-.468-10.049 1.587-10.05-2.486-10.05.41-10.049 3.245-10.05-.593-10.049-1.21-10.05.48.481-2.774-2.774-1.664-1.664-1.905-1.906-2.78-2.779-1.774-1.774v-.266l-10.272.616-10.272 1.46-10.272-1.822-10.272 1.297-10.272-2.823-10.272-.343-10.272 3.28-10.272-3.39-10.272 3.405-10.272-.84-10.272-1.318-10.272-.239-10.271 2.257-10.273-2.106-10.271 2.476-10.273-3.18-10.271 3.251-10.273-.37-10.272-.664-10.271-.55-10.273 1.887-10.271-.314-10.273-1.234-10.271.275-10.272-1.107-10.272 2.352-10.272-1.56-10.272.05-10.272-2.17-10.272.564-10.272 2.6-10.272-.28-10.272-1.313-10.272-.776-10.272.287-10.272.608" filter="url(#a)" style="stroke:#1592a6;stroke-width:1.0416666666666667"/><path fill="#17A2B8" d="M1148.958 659.227h.195l-.578 2.083.562 2.084.191 2.083-1.03 2.083.66 2.084v-.072l2.084-.323 2.083.04 2.083.292 2.084-.577 2.083.64.362.362-2.858-2.858-1.8-1.8-1.671-1.671-2.422-2.423-2.028-2.027" style="stroke:#1592a6;stroke-width:1.0416666666666667"/><text x="790.625" y="687.048" fill="#FFF" font-size="18.75" font-weight="bold" textLength="347.917">rustup对工具链的管理方式: channels</text><path fill="#FFF" d="m798.973 703.692-.382.521-.452.764-.645.515-.679.282-.54.024-.696-.352-.656-.23-.498-.467-.262-.535-.155-.425-.151-.557-.247-.478.19-.467.166-.512.622-.405.438-.525.542-.174.644-.15.826.089.453.213.526.097.64.655.223.692.097.473-.11.778z" style="stroke:#fff;stroke-width:0"/><text x="803.125" y="706.94" fill="#FFF" font-size="16.667" textLength="84.375">stable  --&gt;</text><a xlink:actuate="onRequest" xlink:href="https://github.com/rust-lang/rust/commits/stable" xlink:show="new" xlink:title="https://github.com/rust-lang/rust/commits/stable" xlink:type="simple" target="_top"><text x="892.708" y="706.94" fill="#FD7E14" font-size="16.667" text-decoration="underline" textLength="119.792">rust stable分支</text></a><text x="1012.5" y="706.94" fill="#FFF" font-size="16.667" textLength="65.625">,6周更新</text><path fill="#FFF" d="m798.973 723.093-.382.521-.452.764-.645.515-.679.282-.54.024-.696-.352-.656-.23-.498-.467-.262-.535-.155-.425-.151-.556-.247-.479.19-.467.166-.512.622-.405.438-.525.542-.174.644-.15.826.089.453.213.526.097.64.655.223.692.097.473-.11.778z" style="stroke:#fff;stroke-width:0"/><text x="803.125" y="726.341" fill="#FFF" font-size="16.667" textLength="82.292">beta    --&gt;</text><a xlink:actuate="onRequest" xlink:href="https://github.com/rust-lang/rust/commits/beta" xlink:show="new" xlink:title="https://github.com/rust-lang/rust/commits/beta" xlink:type="simple" target="_top"><text x="890.625" y="726.341" fill="#FD7E14" font-size="16.667" text-decoration="underline" textLength="107.292">rust beta分支</text></a><path fill="#FFF" d="m798.973 742.494-.382.521-.452.764-.645.515-.679.282-.54.024-.696-.352-.656-.23-.498-.467-.262-.535-.155-.425-.151-.556-.247-.479.19-.467.166-.512.622-.405.438-.525.542-.174.644-.15.826.089.453.213.526.097.64.656.223.691.097.473-.11.778z" style="stroke:#fff;stroke-width:0"/><text x="803.125" y="745.742" fill="#FFF" font-size="16.667" textLength="84.375">nightly --&gt;</text><a xlink:actuate="onRequest" xlink:href="https://github.com/rust-lang/rust/commits/master" xlink:show="new" xlink:title="https://github.com/rust-lang/rust/commits/master" xlink:type="simple" target="_top"><text x="892.708" y="745.742" fill="#FD7E14" font-size="16.667" text-decoration="underline" textLength="129.167">rust master分支</text></a><text x="1021.875" y="745.742" fill="#FFF" font-size="16.667" textLength="71.875">,每天更新</text><path fill="none" d="M526.042 666.104v.291l10.561-.867 10.561.844 10.562.287 10.561-1.546 10.561.883 10.562-.485 10.561.06 10.561.438 10.562-.866 10.561 1.73 10.561-1.645 10.562.6 10.561.875 10.561-.718 10.562.213 10.561-.139 10.562.293 10.56-.248" style="stroke:#333;stroke-width:1.5625"/><path fill="none" d="M495.833 688.5v.218l10.07-.65 10.07.633 10.069.215 10.07-1.16 10.069.663 10.069.08-.057-.136.743.318.778.407.654.105.902.704.663.128-.202-.084.443.794.508.82.139.668.354.757.283.728h-.01l.072 6.38.021 6.38.12 6.38.03 6.38-.233 6.38.218.091-.441.68-.238.765-.229.768-.761.547-.074.833.09.217-.866-.007-.626.571-.874-.025-.68.442-.727.327v.773l-10.07-.824-10.069.16-10.07.244-10.069.08-10.07-.437-10.069.004.038.092-.85-.58-.623-.03-.702-.221-.75-.339-.796-.447.197.081-.657-.882-.359-.76-.295-.732-.125-.661-.286-.73h-.068l.305-6.38-.298-6.38-.058-6.38.198-6.38-.079-6.38-.214-.089.353-.717.68-.581.236-.765.401-.697.07-.834-.043-.103.822-.1.772-.218.595-.646.787-.184z" filter="url(#a)" style="stroke:#333;stroke-width:1.0416666666666667"/><text x="502.083" y="715.428" fill="#2E2E2E" font-size="16.667" textLength="47.917">stable</text><path fill="none" d="M595.833 688.5v.218l9.584-.65 9.583.633 9.583.215 9.584-1.16 9.583.744-.01-.025.69.193.742.319.779.406.653.105.829.527.178.073-.075.58.444.794.507.82.139.668.332.748h.024l-.035 6.38.073 6.38.021 6.38.12 6.38-.203 6.38.216.09-.303.738-.441.68-.238.764-.229.768-.53.644-.096-.232-.55.754-.867-.007-.626.571-.873-.025-.671.464v-.071l-9.583.844-9.584-.824-9.583.16-9.583.244-9.584-.353.056.134-.793-.44-.698-.212-.85-.58-.623-.031-.774-.396.175.072-.338-.75-.251-.714-.657-.882-.36-.76-.095-.65h-.216l.196-6.38-.048-6.38.305-6.38-.298-6.38.061-6.38-.11-.046.488-.66.018-.856.353-.717.68-.581.096-.823.058.14.777-.21.596-.644.822-.099.772-.218z" filter="url(#a)" style="stroke:#333;stroke-width:1.0416666666666667"/><text x="602.083" y="715.428" fill="#2E2E2E" font-size="16.667" textLength="35.417">beta</text><path fill="none" d="M683.333 688.5v.218l10.938-.65 10.937.633 10.938.215 10.937-1.16 10.938.663 10.937.08-.056-.136.742.318.778.407.654.105.902.704.663.128-.202-.084.444.794.507.82.139.668.355.757.283.728h-.011l.073 6.38.02 6.38.121 6.38.03 6.38-.233 6.38.218.091-.442.68-.238.765-.228.768-.762.547-.074.833.09.217-.866-.007-.626.571-.873-.025-.68.442-.728.327v.773l-10.937-.824-10.938.16-10.937.244-10.938.08-10.937-.437-10.938.004.038.092-.85-.58-.623-.03-.702-.221-.75-.339-.796-.447.197.081-.657-.882-.359-.76-.295-.732-.125-.661-.286-.73h-.068l.305-6.38-.298-6.38-.058-6.38.198-6.38-.079-6.38-.214-.089.353-.717.68-.581.236-.765.401-.697.07-.834-.043-.103.822-.1.772-.218.595-.646.787-.184z" filter="url(#a)" style="stroke:#333;stroke-width:1.0416666666666667"/><text x="689.583" y="715.428" fill="#2E2E2E" font-size="16.667" textLength="53.125">nightly</text><path fill="none" d="M526.042 751.65v.292l10.561-.867 10.561.844 10.562.287 10.561-1.546 10.561.883 10.562-.485 10.561.06 10.561.438 10.562-.866 10.561 1.73 10.561-1.645 10.562.6 10.561.875 10.561-.719 10.562.214 10.561-.139 10.562.292 10.56-.248M221.875 824.28v.292l10.45-.868 10.448.844 10.45.287 10.449-1.546 10.45.883 10.448-.485 10.45.06 10.449.438 10.449-.865 10.45 1.729 10.448-1.645 10.45.601 10.449.875 10.45-.72 10.448.215 10.45-.14 10.449.293 10.449.084 10.45.481 10.448.119 10.45.011 10.449-.59 10.449.29 10.45.332 10.449-1.977 10.449 1.944 10.449-1.354 10.45 1.153 10.448-1.429 10.45.593 10.449 1.125 10.449-1.098 10.45.214 10.448.324 10.45.108 10.449-.584 10.45.405 10.448-1.194 10.45 1.19 10.449.366 10.449-.144 10.45.234 10.448-1.522 10.45-.235 10.449.043 10.45.781 10.448-.191 10.45 1.22 10.449-1.19 10.449-.234 10.45.794 10.448-1.243 10.45.205 10.449 1.622 10.449-.296 10.45.415 10.448-1.467 10.45.89 10.449.377 10.45-1.476 10.448.523 10.45.308 10.449.73 10.449-.911 10.45.648 10.448-1.411 10.45-.172 10.449 1.64 10.45-1.695 10.448 1.703 10.45-.42 10.449-.66 10.449-.119 10.45 1.129 10.448-1.053 10.45 1.238 10.449-1.59 10.45 1.625 10.448-.185 10.45-.672" style="stroke:#333;stroke-width:1.5625"/><path fill="#E0FFFF" d="M16.667 854.814v.219l10.523-.65 10.524.632 10.523.215 10.524-1.16 10.523.663 10.524-.364 10.523.045 10.524.329 10.523-.65 10.524 1.297 10.523-1.233 10.524.45 10.523.657 10.524-.54 10.523.16 10.524-.104 10.523.22 10.524.063 10.523.36 10.524.09 10.523.008 10.524-.442 10.523.218 10.524.248 10.523-1.483 10.524 1.458 10.523-1.015 10.524.865 10.523-1.072 10.524.444 10.523.844 10.524-.823 10.523.16 10.524.243 10.523.081 10.524-.437 10.523.303 10.524-.896 10.523.597.038.09.772.39.723.272.759.36.59-.047.801.46-.209-.087.315.741.486.811.26.719.587.853.087.646h-.182l-.176 10.14.595 10.14-.932 10.14.154 10.14 1.217 10.14-.223 10.14.312 10.14-.765 10.14-.104-.043-.099.822-.218.772-.646.596-.185.786-.274.75.017.04-.667.474-.823.094-.675.455-.872-.02-.663.482v-.705l-10.523 1.23-10.524-1.272-10.523 1.277-10.524-.315-10.523-.494-10.524-.09-10.523.847-10.524-.79-10.523.929-10.524-1.193-10.523 1.22-10.524-.14-10.523-.249-10.524-.206-10.523.708-10.524-.118-10.523-.463-10.524.104-10.523-.416-10.524.882-10.523-.585-10.524.019-10.523-.814-10.524.212-10.523.975-10.524-.105-10.523-.493-10.524-.29-10.523.107-10.524-.487-10.523 1.147-10.524.338-10.523-.222-10.524.176-10.523-.866-10.524.233-10.523-.495-10.524.7-10.523-.296.032.08-.696-.208-.84-.556-.724-.274-.66-.12-.795-.447.182.075-.652-.88-.203-.694-.195-.691-.548-.838-.11-.655h.368l-.099-10.14-.374-10.14.254-10.14.61-10.14-1.085-10.14.654-10.14-.03-10.14-.298-10.14.037.015.314-.733.296-.74.068-.835.377-.707.434-.683-.062-.148.807-.137.74-.297.746-.281.676-.45z" filter="url(#a)" style="stroke:#333;stroke-width:1.0416666666666667"/><text x="22.917" y="881.742" fill="#2E2E2E" font-size="16.667" textLength="235.417">rustup toolchain install stable</text><path fill="#E0FFFF" d="M11.458 890.881v.292l10.521-.867 10.521.844 10.52.287 10.522-1.547 10.52.883 10.521-.484 10.521.06 10.521.438 10.52-.866 10.522 1.73 10.52-1.645 10.521.6 10.521.875 10.521-.719 10.52.214 10.522-.139 10.52.292 10.521.084 10.521.482 10.521.118 10.52.012 10.522-.59 10.52.29 10.521.332 10.521-1.977L285 891.824l10.52-1.354 10.522 1.153 10.52-1.43 10.521.593 10.521 1.125 10.521-1.097 10.52.214 10.522.324 10.52.107 10.521-.583 10.521.404 10.521-1.194 10.52 1.19 10.522-.395" style="stroke:#333;stroke-width:1.0416666666666667;stroke-dasharray:1,2"/><path fill="#2E2E2E" d="m31.264 908.312-.381.521-.452.764-.646.515-.678.282-.541.024-.696-.352-.656-.23-.498-.467-.261-.535-.155-.425-.152-.557-.246-.478.19-.467.165-.512.623-.405.438-.525.541-.175.645-.15.826.09.453.213.526.097.64.655.223.692.097.472-.11.779z" style="stroke:#2e2e2e;stroke-width:0"/><text x="35.417" y="911.56" fill="#2E2E2E" font-size="16.667" textLength="382.292">容易想到会安装stable channel中最新版本的工具链</text><path fill="#2E2E2E" d="m31.264 927.713-.381.521-.452.764-.646.515-.678.282-.541.024-.696-.352-.656-.23-.498-.467-.261-.535-.155-.426-.152-.556-.246-.478.19-.467.165-.512.623-.405.438-.525.541-.174.645-.15.826.089.453.213.526.097.64.655.223.692.097.472-.11.779z" style="stroke:#2e2e2e;stroke-width:0"/><text x="35.417" y="930.961" fill="#2E2E2E" font-size="16.667" textLength="385.417">下载了rust stable分支里最新的commit(会设置tag)</text><path fill="#E0FFFF" d="M466.667 845.113v.22l10.304-.651 10.304.632 10.304.216 10.304-1.16 10.304.662 10.304-.363 10.304.045 10.304.328 10.304-.65 10.304 1.298 10.304-1.233 10.304.45 10.304.656 10.304-.54 10.304.161 10.305-.104 10.304.22 10.304.062 10.304.361 10.304.09 10.304.008 10.304-.443 10.304.218 10.304.249 10.304-1.483 10.304 1.458 10.304-1.016 10.304.865 10.304-1.072 10.304.445 10.304.844 10.304-.824 10.305.16 10.303.244 10.305.08 10.304-.437 10.304.004.038.092.622.03.85.58.772.39.723.271.678.163.196.081-.046.591.25.714.316.74.485.812.324.745h-.205l.915 10.052-.892 10.052-.175 10.052.595 10.052-.933 10.052.154 10.052 1.217 10.052-.222 10.052.311 10.052-.765 10.052-.103-.043-.1.822-.218.773-.646.595-.184.787-.274.75.016.04-.667.473-.823.095-.675.455-.871-.021-.663.483v-.706l-10.304 1.23-10.304-1.271-10.304 1.277-10.304-.315-10.305-.495-10.304-.089-10.304.846-10.304-.79-10.304.93-10.304-1.193-10.304 1.219-10.304-.139-10.304-.25-10.304-.205-10.304.707-10.304-.117-10.304-.463-10.304.103-10.304-.415-10.304.882-10.304-.585-10.305.018-10.304-.813-10.304.212-10.304.975-10.304-.106-10.304-.492-10.304-.291-10.304.108-10.304-.487-10.304 1.147-10.304.338-10.304-.222-10.304.175-10.304-.866-10.304.233-10.304-.09-.052-.125-.647-.09-.742-.316-.696-.207-.84-.556-.706-.232-.043-.018-.12-.66-.265-.72-.652-.88-.203-.694-.243-.71h.156l-.792-10.053 1.005-10.052-.1-10.052-.374-10.052.253-10.052.611-10.052-1.085-10.052.654-10.052-.03-10.053-.298-10.052.037.016.314-.733.296-.74.068-.835.377-.707.434-.683-.061-.149.806-.136.74-.297.746-.282.676-.45z" filter="url(#a)" style="stroke:#333;stroke-width:1.0416666666666667"/><text x="472.917" y="872.042" fill="#2E2E2E" font-size="16.667" textLength="342.708">rustup toolchain install nightly-2024-07-26</text><path fill="#E0FFFF" d="M461.458 881.18v.293l10.307-.868 10.307.844 10.307.287 10.307-1.546 10.307.883 10.307-.485 10.308.06 10.307.438 10.307-.865 10.307 1.729 10.307-1.645 10.307.601 10.307.875 10.307-.72 10.307.215 10.307-.14 10.307.293 10.307.084 10.307.481 10.307.119 10.307.011 10.307-.59 10.307.29 10.307.332 10.307-1.977 10.307 1.944 10.307-1.354 10.307 1.153 10.307-1.429 10.307.593 10.307 1.125 10.307-1.098 10.307.214 10.307.324 10.307.108 10.307-.584 10.307.405 10.307-.4" style="stroke:#333;stroke-width:1.0416666666666667;stroke-dasharray:1,2"/><path fill="#2E2E2E" d="m481.264 898.611-.381.522-.452.764-.646.514-.678.282-.541.024-.696-.352-.656-.23-.498-.467-.261-.534-.155-.426-.152-.556-.246-.479.19-.467.165-.512.623-.404.438-.526.542-.174.644-.15.826.09.453.212.526.097.64.656.223.692.097.472-.11.778z" style="stroke:#2e2e2e;stroke-width:0"/><text x="485.417" y="901.86" fill="#2E2E2E" font-size="16.667" textLength="204.167">channel名字-YYYY-MM-DD</text><path fill="#2E2E2E" d="m481.264 918.012-.381.522-.452.764-.646.514-.678.282-.541.024-.696-.352-.656-.23-.498-.467-.261-.534-.155-.426-.152-.556-.246-.479.19-.467.165-.512.623-.404.438-.526.542-.174.644-.15.826.09.453.212.526.097.64.656.223.692.097.472-.11.778z" style="stroke:#2e2e2e;stroke-width:0"/><text x="485.417" y="921.261" fill="#2E2E2E" font-size="16.667" textLength="156.25">nightly-时间: 基本ok</text><path fill="#2E2E2E" d="m481.264 937.413-.381.522-.452.764-.646.515-.678.281-.541.025-.696-.352-.656-.23-.498-.468-.261-.534-.155-.426-.152-.556-.246-.479.19-.467.165-.512.623-.404.438-.525.542-.175.644-.15.826.09.453.213.526.096.64.656.223.692.097.472-.11.778z" style="stroke:#2e2e2e;stroke-width:0"/><text x="485.417" y="940.662" fill="#2E2E2E" font-size="16.667" textLength="356.25">其他2个channel-时间: 需要确定那天有发布才行</text><path fill="#E0FFFF" d="M887.5 845.113v.22l10.322-.651 10.322.632 10.322.216 10.322-1.16 10.322.662 10.322-.363 10.322.045 10.322.328 10.322-.65 10.322 1.298 10.322-1.233 10.322.45 10.322.656 10.322-.54 10.322.161 10.322-.104 10.322.22 10.322.062 10.321.361 10.322.09 10.322.008 10.322-.443 10.322.218 10.322.249 10.322-1.483 10.322 1.458 10.322-1.016 10.322.865 10.322-1.072 10.322.445 10.322.844 10.322-.824 10.322.051.014.034.768.38.746.33.681.17.775.399.699.213-.184-.077.58.851.39.772.272.722.359.76.108.654h-.503l-.176 10.053.032 10.052.586 10.052-.143 10.052.914 10.052-.892 10.052-.175 10.052.595 10.052-.932 10.052.694 10.052-.166-.069.07.892-.374.708-.21.777-.643.596-.202.78.042.102-.7.392-.878-.036-.687.426-.707.376-.753.265v.678l-10.322-.683-10.322.486-10.322-1.058-10.322-.129-10.322 1.23-10.322-1.271-10.322 1.277-10.322-.315-10.322-.495-10.322-.089-10.322.846-10.322-.79-10.322.93-10.322-1.193-10.322 1.219-10.322-.139-10.322-.25-10.322-.205-10.321.707-10.322-.117-10.322-.463-10.322.103-10.322-.415-10.322.882-10.322-.585-10.322.018-10.322-.813-10.322.212-10.322.975-10.322-.106-10.322-.492-10.322-.291-10.322.336-.03-.07-.798-.456-.59.048-.693-.2-.765-.374-.807-.474.223.092-.572-.847-.233-.706-.457-.8-.09-.647-.396-.775h.257l.318-10.052-.815-10.052.1-10.052.602-10.052.129-10.052-1.125-10.052.332-10.052.357-10.052-.792-10.053.637-10.052.113.047.274-.749.19-.784.384-.704.493-.659.071-.833-.041-.1.82-.104.732-.315.714-.36.74-.297z" filter="url(#a)" style="stroke:#333;stroke-width:1.0416666666666667"/><text x="893.75" y="872.042" fill="#2E2E2E" font-size="16.667" textLength="223.958">rustup toolchain install 1.77</text><path fill="#E0FFFF" d="M882.292 881.18v.293l10.324-.868 10.325.844 10.325.287 10.325-1.546 10.324.883 10.325-.485 10.325.06 10.325.438 10.325-.865 10.324 1.729 10.325-1.645 10.325.601 10.325.875 10.324-.72 10.325.215 10.325-.14 10.324.293 10.325.084 10.325.481 10.325.119 10.324.011 10.325-.59 10.325.29 10.325.332 10.324-1.977 10.325 1.944 10.325-1.354 10.325 1.153 10.325-1.429 10.324.593 10.325 1.125 10.325-1.098 10.325.214 10.324-.146" style="stroke:#333;stroke-width:1.0416666666666667;stroke-dasharray:1,2"/><path fill="#2E2E2E" d="m902.098 898.611-.382.522-.452.764-.645.514-.679.282-.54.024-.696-.352-.656-.23-.498-.467-.262-.534-.155-.426-.151-.556-.247-.479.19-.467.166-.512.622-.404.438-.526.542-.174.644-.15.826.09.453.212.526.097.64.656.223.692.097.472-.11.778z" style="stroke:#2e2e2e;stroke-width:0"/><text x="906.25" y="901.86" fill="#2E2E2E" font-size="16.667" textLength="100">直接指定版本</text><a xlink:actuate="onRequest" xlink:href="https://github.com/rust-lang/rust/tags" xlink:show="new" xlink:title="https://github.com/rust-lang/rust/tags" xlink:type="simple" target="_top"><text x="1011.458" y="901.86" fill="#FD7E14" font-size="16.667" text-decoration="underline" textLength="76.042">rust的tag</text></a><path fill="#2E2E2E" d="m902.098 918.012-.382.522-.452.764-.645.514-.679.282-.54.024-.696-.352-.656-.23-.498-.467-.262-.534-.155-.426-.151-.556-.247-.479.19-.467.166-.512.622-.404.438-.526.542-.174.644-.15.826.09.453.212.526.097.64.656.223.692.097.472-.11.778z" style="stroke:#2e2e2e;stroke-width:0"/><text x="906.25" y="921.261" fill="#2E2E2E" font-size="16.667" textLength="315.625">指定1.77 会下载最新修订号的版本 1.77.2</text><path fill="#2E2E2E" d="m902.098 937.413-.382.522-.452.764-.645.515-.679.281-.54.025-.696-.352-.656-.23-.498-.468-.262-.534-.155-.426-.151-.556-.247-.479.19-.467.166-.512.622-.404.438-.525.542-.175.644-.15.826.09.453.213.526.096.64.656.223.692.097.472-.11.778z" style="stroke:#2e2e2e;stroke-width:0"/><text x="906.25" y="940.662" fill="#2E2E2E" font-size="16.667" textLength="307.292">也可以直接指定末尾的修订号比如 1.77.1</text><path fill="none" d="M221.875 976.884v.292l10.45-.868 10.448.844 10.45.287 10.449-1.546 10.45.883 10.448-.484 10.45.06 10.449.437 10.449-.865 10.45 1.729 10.448-1.644 10.45.6 10.449.875 10.45-.72 10.448.215 10.45-.14 10.449.293 10.449.084 10.45.481 10.448.119 10.45.011 10.449-.59 10.449.29 10.45.332 10.449-1.977 10.449 1.944 10.449-1.354 10.45 1.153 10.448-1.429 10.45.593 10.449 1.125 10.449-1.098 10.45.214 10.448.324 10.45.108 10.449-.583 10.45.404 10.448-1.194 10.45 1.19 10.449.366 10.449-.144 10.45.234 10.448-1.522 10.45-.235 10.449.043 10.45.781 10.448-.191 10.45 1.22 10.449-1.19 10.449-.233 10.45.793 10.448-1.243 10.45.205 10.449 1.622 10.449-.296 10.45.415 10.448-1.467 10.45.89 10.449.377 10.45-1.476 10.448.523 10.45.308 10.449.73 10.449-.91 10.45.647 10.448-1.411 10.45-.172 10.449 1.64 10.45-1.695 10.448 1.703 10.45-.42 10.449-.66 10.449-.118 10.45 1.128 10.448-1.053 10.45 1.238 10.449-1.59 10.45 1.625 10.448-.184 10.45-.673M440.885 1062.7v.291l10.38-.867 10.38.844 10.379.286 10.38-1.545 10.379.882 10.38-.484 10.379.06 10.38.438 10.379-.866 10.38 1.73 10.378-1.645 10.38.6 10.38.875 10.379-.719 10.38.214 10.379-.139 10.38.292 10.379.085 10.38.48 10.379.12 10.38.01 10.379-.589 10.38.29 10.379.332 10.379-1.977 10.38 1.944 10.379-1.354 10.38.411" style="stroke:#333;stroke-width:1.5625"/><path fill="#17A2B8" d="M99.219 1161.633h.584l-1.735 9.94 1.688 9.939.573 9.939-3.092 9.94 1.766 9.938.216 9.94v-1.185l10.333.12 10.333.875 10.334-1.73 10.333 3.458 10.333-3.29 10.334 1.202 10.333 1.75 10.333-1.439 10.334.428 10.333-.278 10.333.585 10.334.168 10.333.963 10.333.237 10.334.023 10.333-1.18 10.333.58 10.334.663 10.333-3.954 10.333 3.888 10.334-2.708 10.333 2.307 10.333-2.858 10.334 1.184 10.333.19h.687l-.732-5.13.143-5.13.216-5.13.072-5.13-.386-5.13v-.004l4.219-.569 4.01-1.614 4.323-.055 4.214-.594 4.067-1.331.081.404-4.136-.68-4.366-1.83-4.197-.986-4.161-.805-4.054-.27h-.054l-.128-3.047.813-3.046-.793-3.047-.156-3.047.318-3.047.15.15-2.67-2.67-1.986-1.987-1.319-1.318-2.223-2.223-2.369-2.369v2.04l-10.33-2.934-10.33 1.781-10.33.753-10.329-2.952-10.33 1.046-10.33.616-10.33 1.46-10.33-1.821-10.33 1.296-10.33-2.823-10.33-.343-10.329 3.28-10.33-3.39-10.33 3.405-10.33-.84-10.33-1.318-10.33-.238-10.33 2.257-10.329-2.106-10.33 2.475-10.33-3.18-10.33 3.251-10.33-.37-10.33-1.345" filter="url(#a)" style="stroke:#1592a6;stroke-width:1.0416666666666667"/><path fill="#17A2B8" d="M347.135 1161.633h.195l-.578 2.084.562 2.083.191 2.083-1.03 2.084.66 2.083v-.072l2.084-.323 2.083.04 2.083.292 2.084-.577 2.083.64.363.362-2.859-2.858-1.8-1.8-1.671-1.671-2.422-2.423-2.028-2.027" style="stroke:#1592a6;stroke-width:1.0416666666666667"/><text x="110.677" y="1187.52" fill="#FFF" font-size="16.667" textLength="133.333">把工具分门别类成</text><text x="110.677" y="1206.921" fill="#FFF" font-size="16.667" textLength="226.042">一个一个component进行管理</text><path fill="none" d="M383.594 1170.292v.22l10.416-.651 10.417.632 10.417.216 10.416-1.16 10.417.662 10.417-.363 10.416.045 10.417.328 10.417-.649 10.416 1.297 10.417-.577-.084-.202.794.444.82.507.668.139.757.354.728.284-.01-.005.372.765.325.745.416.782.333.748.09.648h.235l-.147 6.38.072 6.38.083 6.38-.494 6.38.25 6.38.218.09-.618.608-.038.847-.636.6-.168.793-.283.745.099.238-.842.052-.716.354-.706.38-.726.33-.792.172v-.004l-10.417.303-10.416-.895-10.417.892-10.417.275-10.416-.108-10.417.175-10.417-1.141-10.416-.177-10.417.033-10.417.586-10.416.06-.026-.062-.62-.024-.85-.58-.76-.359-.66-.121-.767-.379-.214-.088-.258-.717.07-.582-.374-.764-.209-.697-.54-.835h-.112l.222-6.38.094-6.38-.369-6.38.131-6.38.033-6.38.04.016.475-.667.094-.823.455-.675-.02-.871.482-.663-.09-.218.893.074.575-.697.9.089.696-.402z" filter="url(#a)" style="stroke:#333;stroke-width:1.0416666666666667"/><text x="389.844" y="1197.221" fill="#2E2E2E" font-size="16.667" textLength="102.083">components</text><path fill="none" d="M298.698 1257.727v.219l10.532-.65 10.533.632 10.532.215 10.532-1.16 10.533.663 10.532-.363 10.533.045 10.532.328 10.533-.65 10.532 1.298 10.532-1.234 10.533.451 10.532.656 10.533-.54 10.532.161 10.532-.104 10.533.219 10.532.063 10.533.361 10.532.09 10.533.008 10.532-.443 10.532.218 10.533.248 10.532-1.482 10.532 1.458 10.533-.707-.04-.095.847.571.6-.025.793.442.845.565.638.068-.016-.007.355.757.38.768.33.747.17.68.306.737h.3l-.896 10.287.893 10.286.274 10.287-.108 10.286.176 10.287-.639 10.286-.155-.064-.36.714-.294.74-.125.812-.35.718-.241.763.09.219-.85.03-.759.251-.66.488-.856.018-.648.52v-.541l-10.533 1.217-10.532-.223-10.532.312-10.533-1.1-10.532.667-10.532.283-10.533-1.108-10.532.393-10.533.23-10.532.548-10.533-.683-10.532.486-10.532-1.058-10.533-.129-10.532 1.23-10.533-1.271-10.532 1.277-10.532-.315-10.533-.495-10.532-.089-10.533.846-10.532-.79-10.533.929-10.532-1.192-10.532 1.219-10.533-.14-10.532-.504.033.08-.763-.37-.647-.087-.751-.341-.796-.448-.759-.359.086.036-.433-.79-.033-.624-.486-.811-.299-.734-.36-.76h-.634l.212-10.286.974-10.287-.105-10.286-.492-10.287-.291-10.286.336-10.287-.07-.029.155-.798.658-.59.41-.694.236-.765.136-.806.092.223.626-.572.767-.234.673-.457.826-.09z" filter="url(#a)" style="stroke:#333;stroke-width:1.0416666666666667"/><text x="304.948" y="1284.656" fill="#2E2E2E" font-size="16.667" textLength="271.875">rustup component add rust-docs</text><path fill="none" d="M293.49 1293.795v.292l10.528-.868 10.528.844 10.528.287 10.529-1.546 10.528.883 10.528-.485 10.529.06 10.528.438 10.528-.866 10.528 1.73 10.529-1.645 10.528.601 10.528.875 10.528-.72 10.529.215 10.528-.14 10.528.293 10.528.084 10.529.481 10.528.119 10.528.011 10.529-.59 10.528.29 10.528.332 10.528-1.977 10.529 1.944 10.528-1.354 10.528.412" style="stroke:#333;stroke-width:1.0416666666666667;stroke-dasharray:1,2"/><text x="304.948" y="1314.474" fill="#2E2E2E" font-size="16.667" textLength="145.833">添加组件rust-docs</text><path fill="#17A2B8" d="M793.49 1073.116h.583l-1.734 10.379 1.688 10.379.573 10.379-3.092 10.379 1.766 10.379-.97 10.379.12 10.379.876 10.379-1.73 10.379 3.457 10.378-1.537 10.38-.115-.573-4.088 1.226-4.052 1.405-4.261.363-4.139.974-4.179.771-.006-.029 4.205 1.024 4.178.889 4.23 1.148 4.182.91 4.045.225h1.886l-1.18 10.379.581 10.379.663 10.379-3.954 10.378 3.888 10.38-2.708 10.378 2.306 10.38-2.857 10.378 1.184 10.38 2.25 10.378-2.06 10.379v-.135l10.356.428 10.355.648 10.356.215 10.355-1.167 10.356.809 10.355-2.388 10.355 2.38 10.356.733 10.355-.288 10.356.468 10.355-3.045 10.355-.47 10.356.086 10.355 1.562 10.356-.382 10.355 2.439 10.355-2.378 10.356-.468 10.355 1.587 10.355-2.486 10.356.41 10.355 3.245 10.356-.593 10.355.83 10.355-2.934 10.356 1.78 10.355.754 10.356-2.952 10.355 1.046 10.355.616 10.356 1.46 10.355-1.822 10.355 1.297 10.356-1.285h-1.538l-.343-10.284 3.28-10.284-3.39-10.285 3.405-10.284-.84-10.284-1.318-10.284-.239-10.285 2.257-10.284-2.106-10.284 2.476-10.284-3.18-10.285 3.251-10.284-.37-10.284-.665-10.284-.549-10.285 1.887-10.284-.314-10.284-1.234-10.284.275-10.285-1.107-10.284 2.352-10.284-1.99-10.284.101.101-2.071-2.072-2.595-2.594-1.95-1.95-1.47-1.471-2.432-2.431v1.194l-10.353-1.313-10.354-.776-10.353.287-10.354-1.298-10.353 3.058-10.354.902-10.354-.592-10.353.468-10.354-2.31-10.353.622-10.354-1.319-10.353 1.866-10.354-.103-10.353.849-10.354-2.173-10.353.265-10.354 1.605-10.353.344-10.354-3-10.353.886-10.354.953-10.353-2.112-10.354 2.679-10.354-.265-10.353-.997-10.354.675-10.353 1.63-10.354-2.894-10.353 1.744-10.354-.082-10.353-.471-10.354.07-10.353-.392" filter="url(#a)" style="stroke:#1592a6;stroke-width:1.0416666666666667"/><path fill="#17A2B8" d="M1135.156 1073.116h.195l-.578 2.083.562 2.084.191 2.083-1.03 2.083.66 2.084v-.072l2.084-.323 2.083.04 2.083.292 2.084-.577 2.083.64.362.362-2.858-2.858-1.8-1.8-1.671-1.672-2.423-2.422-2.027-2.027" style="stroke:#1592a6;stroke-width:1.0416666666666667"/><text x="804.948" y="1099.003" fill="#FFF" font-size="16.667" textLength="237.5">rustup使用profile这样一个配置</text><text x="804.948" y="1118.404" fill="#FFF" font-size="16.667" textLength="226.042">来组织要下载哪些component</text><text x="804.948" y="1139.739" fill="#FFF" font-size="18.75" font-weight="bold" textLength="133.333">一共有3个配置:</text><text x="804.948" y="1159.631" fill="#FFF" font-size="16.667" textLength="15.625">1.</text><text x="825.781" y="1159.631" fill="#FFF" font-size="16.667" textLength="60.417">minimal</text><path fill="#FFF" d="M830.99 1172.546v.073l.729-.216.729.21.73.072.728-.386.73.247h-.028l-.12.73.014.729.11.729-.217.73.24.728v.192l-.729-.41-.729.15-.73.218-.728-.18-.73.03h.024l-.034-.729.073-.73.02-.728.12-.73z" style="stroke:#fff;stroke-width:0"/><text x="838.281" y="1179.032" fill="#FFF" font-size="16.667" textLength="83.333">最少的组件</text><path fill="#FFF" d="M830.99 1191.947v.073l.729-.216.729.21.73.072.728-.386.73.247h-.028l-.12.73.014.729.11.729-.217.73.24.728v.192l-.729-.41-.729.15-.73.218-.728-.18-.73.03h.024l-.034-.729.073-.73.02-.728.12-.73z" style="stroke:#fff;stroke-width:0"/><text x="838.281" y="1198.433" fill="#FFF" font-size="16.667" textLength="188.542">(rustc, rust-std, cargo)</text><text x="804.948" y="1217.834" fill="#FFF" font-size="16.667" textLength="15.625">2.</text><text x="825.781" y="1217.834" fill="#FFF" font-size="16.667" textLength="55.208">default</text><path fill="#FFF" d="M830.99 1230.75v.072l.729-.216.729.21.73.072.728-.386.73.247h-.028l-.12.73.014.729.11.729-.217.73.24.728v.193l-.729-.411-.729.15-.73.218-.728-.18-.73.03h.024l-.034-.729.073-.729.02-.73.12-.728z" style="stroke:#fff;stroke-width:0"/><text x="838.281" y="1237.236" fill="#FFF" font-size="16.667" textLength="83.333">默认的配置</text><path fill="#FFF" d="M830.99 1250.15v.073l.729-.216.729.21.73.072.728-.386.73.248h-.028l-.12.729.014.729.11.73-.217.728.24.73v.192l-.729-.411-.729.15-.73.218-.728-.18-.73.03h.024l-.034-.729.073-.729.02-.73.12-.728z" style="stroke:#fff;stroke-width:0"/><text x="838.281" y="1256.637" fill="#FFF" font-size="16.667" textLength="286.458">(额外多了rust-docs, rustfmt, clippy)</text><text x="804.948" y="1276.038" fill="#FFF" font-size="16.667" textLength="15.625">3.</text><text x="825.781" y="1276.038" fill="#FFF" font-size="16.667" textLength="73.958">complete</text><path fill="#FFF" d="M830.99 1288.953v.073l.729-.217.729.21.73.072.728-.386.73.248h-.028l-.12.729.014.729.11.73-.217.728.24.73v.192l-.729-.411-.729.15-.73.218-.728-.18-.73.03h.024l-.034-.729.073-.729.02-.729.12-.73z" style="stroke:#fff;stroke-width:0"/><text x="838.281" y="1295.439" fill="#FFF" font-size="16.667" textLength="66.667">所有组件</text><path fill="none" d="M695.573 1170.292v.22l10.268-.651 10.268.632 10.267.216 10.268-1.16 10.268.662 10.268-.363 10.268.444-.051-.123.778.406.654.106.902.704.58-.075.82.508-.064-.027.507.82.14.668.354.757.273.724.315.74h.062l.021 6.38.12 6.38.03 6.381.003 6.38-.236 6.38.082.034-.238.765-.229.768-.761.547.144.923-.523.646-.04-.095-.626.572-.873-.025-.68.442-.629.565-.835.067v-.05l-10.268.16-10.268.243-10.268.08-10.268-.437-10.267.303-10.268-.895-10.268.596.038.091-.702-.22-.75-.339-.714-.25-.883-.658-.672-.15-.21-.086-.294-.733-.125-.662-.35-.754-.023-.62-.523-.828h-.061l-.058-6.38.198-6.38-.311-6.38.051-6.38.18-6.38.209.086.236-.765.401-.697-.033-.877.51-.651.203-.78.078.19.596-.646.787-.184.765-.234.807-.137z" filter="url(#a)" style="stroke:#333;stroke-width:1.0416666666666667"/><text x="701.823" y="1197.221" fill="#2E2E2E" font-size="16.667" textLength="59.375">profiles</text><path fill="none" d="M622.656 1346.244v.22l10.367-.651 10.367.633 10.367.215 10.368-1.16 10.367.662 10.367-.363 10.367.045 10.367.328 10.367-.649 10.367 1.297 10.367-1.233 10.367.45 10.367.656 10.367-.539 10.367.16 10.367-.104 10.367.22 10.367.062 10.367.361 10.367.09 10.368-.7.09.218.68.17.764.371.769.382.547-.152.832.537.218.09-.008.607.572.847-.025.6.442.793.327.746h.772l-.823 10.286.16 10.287.244 10.286.08 10.287-.437 10.286.004 10.286.092.039-.58.622-.031.85-.22.772-.339.723-.448.677.082.197-.882-.047-.76.251-.732.315-.662.486-.728.324v-.205l-10.368.915-10.366-.892-10.368-.176-10.367.596-10.367-.933-10.367.154-10.367 1.217-10.367-.223-10.367.312-10.367-1.1-10.367.667-10.367.283-10.367-1.107-10.367.392-10.367.231-10.367.548-10.367-.684-10.368.487-10.367-1.06-10.367-.128-10.367.706.067.161-.899-.696-.573.088-.777-.402-.8-.458-.7-.219-.114-.047-.044-.628-.549-.838-.019-.618-.672-.889-.128-.663h.643l-.139-10.286-.249-10.286-.206-10.287.708-10.286-.118-10.287-.64-10.286.055.022.337-.723.177-.79.577-.624.125-.811.255-.757.023.055.633-.555.764-.24.86-.005.724-.338z" filter="url(#a)" style="stroke:#333;stroke-width:1.0416666666666667"/><text x="628.906" y="1373.173" fill="#2E2E2E" font-size="16.667" textLength="205.208">rustup set profile minimal</text><path fill="none" d="M617.448 1382.312v.292l10.37-.867 10.369.843 10.369.287 10.37-1.546 10.368.883 10.37-.484 10.37.06 10.369.437 10.369-.865 10.37 1.729 10.368-1.644 10.37.6 10.37.875 10.368-.72 10.37.215 10.369-.14 10.37.293 10.369.084 10.369.482 10.37.118 10.369.011 10.369-.943" style="stroke:#333;stroke-width:1.0416666666666667;stroke-dasharray:1,2"/><text x="628.906" y="1402.991" fill="#2E2E2E" font-size="16.667" textLength="160.417">设置使用minimal配置</text><path fill="#333" d="M427.604 230.737h.098l-.29 5.795.282 5.794.095 5.794-.515 5.794.33 5.795" style="stroke:#333;stroke-width:3.125"/><path fill="none" d="m423.438 249.292.067.027.632 2.003 1.03 2.162.9 2.11.474 1.94 1.063 2.175-.025-.01.721-2.129.847-2.077.935-2.043.633-2.164 1.056-1.994.136.136-1.124.543-.727.94-.68.987-.96.706-.812.855.017.016-.858-.857-.782-.782-.818-.819-.748-.748z" style="stroke:none;stroke-width:1.0416666666666667"/><path fill="#333" d="M552.604 230.737h.097l-.289 3.855.282 3.854.095 3.854-.515 3.854.33 3.854" style="stroke:#333;stroke-width:3.125"/><path fill="none" d="m548.438 239.592.067.027.632 2.002 1.03 2.162.9 2.11.474 1.94 1.063 2.175-.025-.01.721-2.128.847-2.078.935-2.043.633-2.163 1.056-1.995.136.136-1.124.543-.727.94-.68.987-.96.707-.812.854.017.017-.858-.858-.782-.782-.818-.818-.748-.748z" style="stroke:none;stroke-width:1.0416666666666667"/><path fill="#333" d="M710.938 230.737h.097l-.29 5.795.282 5.794.095 5.794-.515 5.794.33 5.795" style="stroke:#333;stroke-width:3.125"/><path fill="none" d="m706.77 249.292.069.027.632 2.003 1.029 2.162.9 2.11.474 1.94 1.063 2.175-.025-.01.721-2.129.847-2.077.935-2.043.633-2.164 1.056-1.994.136.136-1.124.543-.727.94-.679.987-.96.706-.812.855.016.016-.858-.857-.781-.782-.819-.819-.748-.748z" style="stroke:none;stroke-width:1.0416666666666667"/><path fill="#333" d="M831.77 230.737h.098l-.289 8.776.281 8.776.096 8.776-.515 8.776.33 8.776" style="stroke:#333;stroke-width:3.125"/><path fill="none" d="m827.604 264.2.068.028.632 2.003 1.03 2.161.899 2.11.475 1.94 1.063 2.175-.025-.01.72-2.128.848-2.078.935-2.042.632-2.164 1.057-1.994.135.136-1.124.542-.727.94-.678.988-.96.706-.813.855.017.016-.858-.858-.782-.781-.818-.819-.749-.748z" style="stroke:none;stroke-width:1.0416666666666667"/><path fill="#333" d="M427.604 331.844h.098l-.29 6.107.282 6.107.095 6.106-.515 6.107.33 6.107" style="stroke:#333;stroke-width:3.125"/><path fill="none" d="m423.438 351.961.067.027.632 2.003 1.03 2.162.9 2.11.474 1.94 1.063 2.175-.025-.01.721-2.128.847-2.078.935-2.043.633-2.164 1.056-1.994.136.136-1.124.543-.727.94-.68.987-.96.707-.812.854.017.017-.858-.858-.782-.782-.818-.818-.748-.749z" style="stroke:none;stroke-width:1.0416666666666667"/><path fill="#333" d="M552.604 341.545h.097l-.289 4.166.282 4.167.095 4.167-.515 4.166.33 4.167" style="stroke:#333;stroke-width:3.125"/><path fill="none" d="m548.438 351.961.067.027.632 2.003 1.03 2.162.9 2.11.474 1.94 1.063 2.175-.025-.01.721-2.128.847-2.078.935-2.043.633-2.164 1.056-1.994.136.136-1.124.543-.727.94-.68.987-.96.707-.812.854.017.017-.858-.858-.782-.782-.818-.818-.748-.749z" style="stroke:none;stroke-width:1.0416666666666667"/><path fill="#333" d="M710.938 331.844h.097l-.29 6.107.282 6.107.095 6.106-.515 6.107.33 6.107" style="stroke:#333;stroke-width:3.125"/><path fill="none" d="m706.77 351.961.069.027.632 2.003 1.029 2.162.9 2.11.474 1.94 1.063 2.175-.025-.01.721-2.128.847-2.078.935-2.043.633-2.164 1.056-1.994.136.136-1.124.543-.727.94-.679.987-.96.707-.812.854.016.017-.858-.858-.781-.782-.819-.818-.748-.749z" style="stroke:none;stroke-width:1.0416666666666667"/><path fill="#333" d="M831.77 316.935h.098l-.289 9.089.281 9.088.096 9.089-.515 9.088.33 9.089" style="stroke:#333;stroke-width:3.125"/><path fill="none" d="m827.604 351.961.068.027.632 2.003 1.03 2.162.899 2.11.475 1.94 1.063 2.175-.025-.01.72-2.128.848-2.078.935-2.043.632-2.164 1.057-1.994.135.136-1.124.543-.727.94-.678.987-.96.707-.813.854.017.017-.858-.858-.782-.782-.818-.818-.749-.749z" style="stroke:none;stroke-width:1.0416666666666667"/><path d="M622.396 179.736h.292l-.868 9.888.844 9.888.287 9.887-1.546 9.888.99 9.888" style="stroke:#000;stroke-width:2.0833333333333335"/><path d="m618.23 218.758.067.027.632 2.003 1.03 2.162.899 2.11.475 1.94 1.063 2.175-.025-.01.72-2.129.848-2.077.935-2.043.632-2.164 1.057-1.994.135.136-1.124.543-.727.94-.678.987-.96.706-.813.855.017.017-.858-.858-.782-.782-.818-.819-.749-.748z" style="stroke:#000;stroke-width:1.0416666666666667"/><text x="631.771" y="206.779" fill="green" font-size="15.625" textLength="31.25">需要</text><path d="M622.396 363.94h.292l-.868 10.503.844 10.502.287 10.503-1.546 10.502.883 10.502-.485 10.503.06 10.502.438 10.503.095 10.502" style="stroke:#000;stroke-width:2.0833333333333335"/><path d="m618.23 448.045.067.027.632 2.003 1.03 2.162.899 2.11.475 1.94 1.063 2.175-.025-.01.72-2.128.848-2.078.935-2.043.632-2.163 1.057-1.995.135.136-1.124.543-.727.94-.678.987-.96.707-.813.854.017.017-.858-.858-.782-.782-.818-.818-.749-.749z" style="stroke:#000;stroke-width:1.0416666666666667"/><text x="631.771" y="389.421" fill="green" font-size="15.625" textLength="46.875">设计出</text><text x="631.771" y="407.609" fill="green" font-size="15.625" textLength="5.208"> </text><path fill="#333" d="M526.042 667.666h.097l-.29 4.167.282 4.167.096 4.166-.516 4.167.33 4.167" style="stroke:#333;stroke-width:3.125"/><path fill="none" d="m521.875 678.083.068.027.632 2.003 1.029 2.161.9 2.11.474 1.94 1.064 2.176-.025-.01.72-2.129.848-2.078.935-2.042.632-2.164 1.056-1.994.136.136-1.124.542-.727.94-.679.988-.96.706-.812.855.016.016-.857-.858-.782-.781-.819-.819-.748-.748z" style="stroke:none;stroke-width:1.0416666666666667"/><path fill="#333" d="M619.792 667.666h.097l-.29 4.167.282 4.167.096 4.166-.516 4.167.33 4.167" style="stroke:#333;stroke-width:3.125"/><path fill="none" d="m615.625 678.083.068.027.632 2.003 1.029 2.161.9 2.11.474 1.94 1.064 2.176-.025-.01.72-2.129.848-2.078.935-2.042.632-2.164 1.056-1.994.136.136-1.124.542-.727.94-.679.988-.96.706-.812.855.016.016-.857-.858-.782-.781-.819-.819-.748-.748z" style="stroke:none;stroke-width:1.0416666666666667"/><path fill="#333" d="M716.146 667.666h.097l-.289 4.167.281 4.167.096 4.166-.515 4.167.33 4.167" style="stroke:#333;stroke-width:3.125"/><path fill="none" d="m711.98 678.083.067.027.632 2.003 1.03 2.161.899 2.11.475 1.94 1.063 2.176-.025-.01.72-2.129.848-2.078.935-2.042.632-2.164 1.057-1.994.135.136-1.124.542-.727.94-.678.988-.96.706-.813.855.017.016-.858-.858-.782-.781-.818-.819-.749-.748z" style="stroke:none;stroke-width:1.0416666666666667"/><path fill="#333" d="M526.042 730.817h.097l-.29 4.167.282 4.166.096 4.167-.516 4.167.33 4.166" style="stroke:#333;stroke-width:3.125"/><path fill="none" d="m521.875 741.234.068.027.632 2.003 1.029 2.161.9 2.11.474 1.94 1.064 2.175-.025-.01.72-2.128.848-2.078.935-2.042.632-2.164 1.056-1.994.136.136-1.124.542-.727.94-.679.988-.96.706-.812.854.016.017-.857-.858-.782-.781-.819-.819-.748-.748z" style="stroke:none;stroke-width:1.0416666666666667"/><path fill="#333" d="M619.792 730.817h.097l-.29 4.167.282 4.166.096 4.167-.516 4.167.33 4.166" style="stroke:#333;stroke-width:3.125"/><path fill="none" d="m615.625 741.234.068.027.632 2.003 1.029 2.161.9 2.11.474 1.94 1.064 2.175-.025-.01.72-2.128.848-2.078.935-2.042.632-2.164 1.056-1.994.136.136-1.124.542-.727.94-.679.988-.96.706-.812.854.016.017-.857-.858-.782-.781-.819-.819-.748-.748z" style="stroke:none;stroke-width:1.0416666666666667"/><path fill="#333" d="M716.146 730.817h.097l-.289 4.167.281 4.166.096 4.167-.515 4.167.33 4.166" style="stroke:#333;stroke-width:3.125"/><path fill="none" d="m711.98 741.234.067.027.632 2.003 1.03 2.161.899 2.11.475 1.94 1.063 2.175-.025-.01.72-2.128.848-2.078.935-2.042.632-2.164 1.057-1.994.135.136-1.124.542-.727.94-.678.988-.96.706-.813.854.017.017-.858-.858-.782-.781-.818-.819-.749-.748z" style="stroke:none;stroke-width:1.0416666666666667"/><path d="M622.396 500.78h.292l-.868 10.333.844 10.332.287 10.333-1.546 10.333.883 10.332-.485 10.333.06 10.333.438 10.333-.865 10.332 1.729 10.333-1.645 10.333.601 10.333.875 10.332-.72 10.333.215 10.333-.095 10.333" style="stroke:#000;stroke-width:2.0833333333333335"/><path d="m618.23 655.687.067.027.632 2.003 1.03 2.162.899 2.11.475 1.94 1.063 2.175-.025-.01.72-2.129.848-2.077.935-2.043.632-2.164 1.057-1.994.135.136-1.124.543-.727.94-.678.987-.96.706-.813.855.017.016-.858-.858-.782-.781-.818-.819-.749-.748z" style="stroke:#000;stroke-width:1.0416666666666667"/><text x="631.771" y="575.283" fill="green" font-size="15.625" textLength="229.167">rustup是如何管理这些工具链的?</text><text x="631.771" y="593.472" fill="green" font-size="15.625" textLength="5.208"> </text><path fill="#333" d="M221.875 825.842h.097l-.289 5.795.281 5.794.096 5.794-.515 5.794.33 5.795" style="stroke:#333;stroke-width:3.125"/><path fill="none" d="m217.708 844.397.068.027.632 2.003 1.03 2.162.9 2.11.474 1.94 1.063 2.175-.025-.01.72-2.129.848-2.077.935-2.043.632-2.164 1.057-1.994.136.136-1.124.543-.728.94-.678.987-.96.706-.813.855.017.016-.858-.858-.782-.781-.818-.819-.749-.748z" style="stroke:none;stroke-width:1.0416666666666667"/><path fill="#333" d="M657.292 825.842h.097l-.29 3.855.282 3.854.096 3.854-.516 3.854.33 3.854" style="stroke:#333;stroke-width:3.125"/><path fill="none" d="m653.125 834.697.068.027.632 2.002 1.029 2.162.9 2.11.474 1.94 1.064 2.175-.025-.01.72-2.128.848-2.078.935-2.043.632-2.163 1.056-1.995.136.136-1.124.543-.727.94-.679.987-.96.707-.812.854.016.017-.857-.858-.782-.782-.819-.818-.748-.748z" style="stroke:none;stroke-width:1.0416666666666667"/><path fill="#333" d="M1057.813 825.842h.097l-.29 3.855.282 3.854.095 3.854-.515 3.854.33 3.854" style="stroke:#333;stroke-width:3.125"/><path fill="none" d="m1053.646 834.697.068.027.632 2.002 1.029 2.162.9 2.11.474 1.94 1.063 2.175-.025-.01.721-2.128.847-2.078.936-2.043.632-2.163 1.056-1.995.136.136-1.124.543-.727.94-.679.987-.96.707-.812.854.016.017-.858-.858-.781-.782-.819-.818-.748-.748z" style="stroke:none;stroke-width:1.0416666666666667"/><path fill="#333" d="M221.875 946.35h.097l-.289 6.107.281 6.107.096 6.106-.515 6.107.33 6.107" style="stroke:#333;stroke-width:3.125"/><path fill="none" d="m217.708 966.467.068.027.632 2.003 1.03 2.162.9 2.11.474 1.94 1.063 2.175-.025-.01.72-2.128.848-2.078.935-2.043.632-2.163 1.057-1.995.136.136-1.124.543-.728.94-.678.987-.96.707-.813.854.017.017-.858-.858-.782-.782-.818-.818-.749-.749z" style="stroke:none;stroke-width:1.0416666666666667"/><path fill="#333" d="M657.292 956.05h.097l-.29 4.167.282 4.167.096 4.167-.516 4.166.33 4.167" style="stroke:#333;stroke-width:3.125"/><path fill="none" d="m653.125 966.467.068.027.632 2.003 1.029 2.162.9 2.11.474 1.94 1.064 2.175-.025-.01.72-2.128.848-2.078.935-2.043.632-2.163 1.056-1.995.136.136-1.124.543-.727.94-.679.987-.96.707-.812.854.016.017-.857-.858-.782-.782-.819-.818-.748-.749z" style="stroke:none;stroke-width:1.0416666666666667"/><path fill="#333" d="M1057.813 956.05h.097l-.29 4.167.282 4.167.095 4.167-.515 4.166.33 4.167" style="stroke:#333;stroke-width:3.125"/><path fill="none" d="m1053.646 966.467.068.027.632 2.003 1.029 2.162.9 2.11.474 1.94 1.063 2.175-.025-.01.721-2.128.847-2.078.936-2.043.632-2.163 1.056-1.995.136.136-1.124.543-.727.94-.679.987-.96.707-.812.854.016.017-.858-.858-.781-.782-.819-.818-.748-.749z" style="stroke:none;stroke-width:1.0416666666666667"/><path d="M622.396 753.213h.292l-.868 10.152.844 10.153.287 10.152-1.546 10.153.883 10.152-.485 10.152.593 10.153" style="stroke:#000;stroke-width:2.0833333333333335"/><path d="m618.23 813.863.067.027.632 2.003 1.03 2.162.899 2.11.475 1.94 1.063 2.175-.025-.01.72-2.129.848-2.077.935-2.043.632-2.164 1.057-1.994.135.136-1.124.543-.727.94-.678.987-.96.706-.813.855.017.017-.858-.858-.782-.782-.818-.819-.749-.748z" style="stroke:#000;stroke-width:1.0416666666666667"/><text x="631.771" y="801.884" fill="green" font-size="15.625" font-weight="bold" textLength="186.458">下载toolchain的三种方式</text><path fill="#333" d="M440.885 1212.61h.098l-.29 9.023.282 9.024.095 9.023-.515 9.024.33 9.023" style="stroke:#333;stroke-width:3.125"/><path fill="none" d="m436.719 1247.31.067.028.632 2.002 1.03 2.162.9 2.11.474 1.94 1.063 2.175-.025-.01.721-2.128.847-2.078.935-2.043.633-2.163 1.056-1.995.136.136-1.124.543-.727.94-.679.987-.96.707-.813.854.017.017-.858-.858-.781-.782-.819-.818-.748-.749z" style="stroke:none;stroke-width:1.0416666666666667"/><path fill="#333" d="M731.51 1212.61h.292l-.867 10.28.844 10.279.287 10.28-1.546 10.28.883 10.279-.485 10.28.06 10.279.438 10.28-.866 10.279 1.73 10.28-1.645 10.28.6 10.279.275 10.28" style="stroke:#333;stroke-width:3.125"/><path fill="none" d="m727.344 1335.828.067.027.633 2.003 1.029 2.161.9 2.11.474 1.94 1.063 2.175-.025-.01.721-2.128.847-2.078.935-2.043.633-2.163 1.056-1.994.136.136-1.124.542-.727.94-.679.988-.96.706-.813.854.017.017-.858-.858-.781-.782-.819-.818-.748-.748z" style="stroke:none;stroke-width:1.0416666666666667"/><path fill="#333" d="M440.885 1064.262h.292l-.867 10.603.844 10.603.286 10.603-1.545 10.603.882 10.603-.484 10.603.06 10.603.438 10.603-.866 10.603.96 10.603" style="stroke:#333;stroke-width:3.125"/><path fill="none" d="m436.719 1159.876.067.027.632 2.002 1.03 2.162.9 2.11.474 1.94 1.063 2.175-.025-.01.721-2.128.847-2.078.935-2.043.633-2.163 1.056-1.994.136.135-1.124.543-.727.94-.679.988-.96.706-.813.854.017.017-.858-.858-.781-.782-.819-.818-.748-.748z" style="stroke:none;stroke-width:1.0416666666666667"/><path fill="#333" d="M731.51 1064.262h.292l-.867 10.603.844 10.603.287 10.603-1.546 10.603.883 10.603-.485 10.603.06 10.603.438 10.603-.866 10.603.96 10.603" style="stroke:#333;stroke-width:3.125"/><path fill="none" d="m727.344 1159.876.067.027.633 2.002 1.029 2.162.9 2.11.474 1.94 1.063 2.175-.025-.01.721-2.128.847-2.078.935-2.043.633-2.163 1.056-1.994.136.135-1.124.543-.727.94-.679.988-.96.706-.813.854.017.017-.858-.858-.781-.782-.819-.818-.748-.748z" style="stroke:none;stroke-width:1.0416666666666667"/><path d="M622.396 978.447h.292l-.868 10.531.844 10.532.287 10.531-1.546 10.532.883 10.531-.485 10.532.06 10.532.533 10.531" style="stroke:#000;stroke-width:2.0833333333333335"/><path d="m618.23 1052.283.067.027.632 2.003 1.03 2.161.899 2.11.475 1.94 1.063 2.175-.025-.01.72-2.128.848-2.078.935-2.042.632-2.164 1.057-1.994.135.136-1.124.542-.727.94-.678.988-.96.706-.813.854.017.017-.858-.858-.782-.782-.818-.818-.749-.748z" style="stroke:#000;stroke-width:1.0416666666666667"/><text x="631.771" y="1003.927" fill="green" font-size="15.625" font-weight="bold" textLength="203.125">工具链中那么多工具,全安装?</text><text x="631.771" y="1022.115" fill="green" font-size="15.625" font-weight="bold" textLength="196.875">它又是如何管理这些工具的?</text><text x="631.771" y="1040.303" fill="green" font-size="15.625" textLength="5.208"> </text><path fill="none" d="M26.042 1440.255v.219l10.552-.65 10.553.632 10.552.215 10.553-1.16 10.552.663 10.553-.363 10.552.044 10.553.329 10.552-.65 10.553 1.297 10.553-1.233 10.552.45 10.553.657 10.552-.54 10.553.16 10.552-.104 10.553.22 10.552.063 10.553.36 10.552.09 10.553.008 10.552-.442 10.553-.265.062.148.768.382.547-.151.923.754.607-.008.776.4.171.071-.025.6.442.793.565.845.052.631.32.743h.11l.243 10.178.08 10.178-.437 10.178.303 10.178-.895 10.178.596 10.178.092.038-.22.771-.34.723-.25.759-.657.59-.15.802-.087-.21-.732.315-.662.486-.755.26-.62.588-.827.086v-.182l-10.553-.175-10.552.595-10.553-.933-10.552.154-10.553 1.217-10.552-.222-10.553.311-10.552-1.1-10.553.668-10.552.282-10.553-1.107-10.552.392-10.553.231-10.553.548-10.552-.683-10.553.486-10.552-1.059-10.553-.128-10.552 1.23-10.553-1.272-10.552 1.277-10.553-.315-10.552-.215-.036-.086-.748-.332-.628-.045-.838-.548-.618-.02-.815-.494-.178-.074.07-.58-.347-.755-.382-.769-.368-.762-.32-.743h.756l-.117-10.178-.463-10.178.103-10.178-.415-10.178.882-10.178-.747-10.178.05.02.31-.734.055-.84.37-.71.606-.612.135-.807.057.138.674-.457.7-.394.75-.272.674-.455z" style="stroke:#ba55d3;stroke-width:1.0416666666666667;stroke-dasharray:4,4"/><text x="46.875" y="1481.767" fill="#BA55D3" font-size="16.667" textLength="201.042">右键新标签打开该SVG图片</text><text x="613.021" y="1558.609" fill="#2E2E2E" font-size="14.583" textLength="28.125">图 1</text></svg>