<svg xmlns="http://www.w3.org/2000/svg" width="715" height="551" preserveAspectRatio="none" style="width:715px;height:551px;background:#eeebdc"><path fill="#EEEBDC" d="M0 0h715v551H0z" style="stroke:none;stroke-width:1"/><path fill="#FFF" d="M145 101.922h10v90.891h-10zM145 253.406h10V314h-10zM145 404.891h10v121.188h-10zM289 132.219h10v30.297h-10zM289 283.703h10V314h-10zM289 465.484h10v30.297h-10zM373 223.109h10v30.297h-10zM474.5 344.297h10v181.781h-10zM614.5 374.594h10v60.594h-10z" style="stroke:#181818;stroke-width:1"/><path d="M37 69.625v474.453M149.5 69.625v474.453M294 69.625v474.453M378 69.625v474.453M479 69.625v474.453M619 69.625v474.453" style="stroke:#181818;stroke-width:.5;stroke-dasharray:5,5"/><rect width="64" height="32.625" x="5" y="36" fill="#E2E2F0" rx="2.5" ry="2.5" style="stroke:#181818;stroke-width:.5"/><text x="12" y="57.852" font-family="sans-serif" font-size="16" font-weight="bold" textLength="50">Client</text><rect width="109" height="32.625" x="95.5" y="36" fill="#E2E2F0" rx="2.5" ry="2.5" style="stroke:#181818;stroke-width:.5"/><text x="102.5" y="57.852" font-family="sans-serif" font-size="16" font-weight="bold" textLength="95">API Server</text><text x="271" y="65.852" font-family="sans-serif" font-size="16" font-weight="bold" textLength="40">etcd</text><path fill="#E2E2F0" d="M276 15c0-10 18-10 18-10s18 0 18 10v26c0 10-18 10-18 10s-18 0-18-10V15" style="stroke:#181818;stroke-width:1.5"/><path fill="none" d="M276 15c0 10 18 10 18 10s18 0 18-10" style="stroke:#181818;stroke-width:1.5"/><rect width="102" height="32.625" x="327" y="36" fill="#E2E2F0" rx="2.5" ry="2.5" style="stroke:#181818;stroke-width:.5"/><text x="334" y="57.852" font-family="sans-serif" font-size="16" font-weight="bold" textLength="88">Scheduler</text><rect width="81" height="32.625" x="439" y="36" fill="#E2E2F0" rx="2.5" ry="2.5" style="stroke:#181818;stroke-width:.5"/><text x="446" y="57.852" font-family="sans-serif" font-size="16" font-weight="bold" textLength="67">Kubelet</text><rect width="179" height="32.625" x="530" y="36" fill="#E2E2F0" rx="2.5" ry="2.5" style="stroke:#181818;stroke-width:.5"/><text x="537" y="57.852" font-family="sans-serif" font-size="16" font-weight="bold" textLength="165">Container Runtime</text><path fill="#FFF" d="M145 101.922h10v90.891h-10zM145 253.406h10V314h-10zM145 404.891h10v121.188h-10zM289 132.219h10v30.297h-10zM289 283.703h10V314h-10zM289 465.484h10v30.297h-10zM373 223.109h10v30.297h-10zM474.5 344.297h10v181.781h-10zM614.5 374.594h10v60.594h-10z" style="stroke:#181818;stroke-width:1"/><path fill="#00BFFF" d="m133 97.922 10 4-10 4z" style="stroke:#00bfff;stroke-width:1"/><path d="M37 101.922h102" style="stroke:#00bfff;stroke-width:1"/><text x="44" y="96.62" font-family="sans-serif" font-size="14" textLength="59">创建 pod</text><path fill="#00BFFF" d="m277 128.219 10 4-10 4z" style="stroke:#00bfff;stroke-width:1"/><path d="M155 132.219h128" style="stroke:#00bfff;stroke-width:1"/><text x="162" y="126.917" font-family="sans-serif" font-size="14" textLength="87">存储 pod资源</text><path fill="#00BFFF" d="m166 158.516-10 4 10 4z" style="stroke:#00bfff;stroke-width:1"/><path d="M160 162.516h133" style="stroke:#00bfff;stroke-width:1"/><text x="172" y="157.214" font-family="sans-serif" font-size="14" textLength="56">存储完成</text><path fill="#00BFFF" d="m48 188.813-10 4 10 4z" style="stroke:#00bfff;stroke-width:1"/><path d="M42 192.813h107" style="stroke:#00bfff;stroke-width:1"/><text x="54" y="187.511" font-family="sans-serif" font-size="14" textLength="84">返回创建结果</text><path fill="#00BFFF" d="m361 219.11 10 4-10 4z" style="stroke:#00bfff;stroke-width:1"/><path d="M150 223.109h217" style="stroke:#00bfff;stroke-width:1"/><text x="157" y="217.808" font-family="sans-serif" font-size="14" textLength="157">通知调度器,未调度的pod</text><path fill="#00BFFF" d="m166 249.406-10 4 10 4z" style="stroke:#00bfff;stroke-width:1"/><path d="M160 253.406h217" style="stroke:#00bfff;stroke-width:1"/><text x="172" y="248.105" font-family="sans-serif" font-size="14" textLength="170">调度 pod,设置node name</text><path fill="#00BFFF" d="m277 279.703 10 4-10 4z" style="stroke:#00bfff;stroke-width:1"/><path d="M155 283.703h128" style="stroke:#00bfff;stroke-width:1"/><text x="162" y="278.401" font-family="sans-serif" font-size="14" textLength="115">存储 pod绑定信息</text><path fill="#00BFFF" d="m161 310-10 4 10 4z" style="stroke:#00bfff;stroke-width:1"/><path d="M155 314h138" style="stroke:#00bfff;stroke-width:1;stroke-dasharray:2,2"/><text x="167" y="308.698" font-family="sans-serif" font-size="14" textLength="56">存储完成</text><path fill="#00BFFF" d="m462.5 340.297 10 4-10 4z" style="stroke:#00bfff;stroke-width:1"/><path d="M150 344.297h318.5" style="stroke:#00bfff;stroke-width:1"/><text x="157" y="338.995" font-family="sans-serif" font-size="14" textLength="255">通知对应节点上的kubelet ,有绑定的pod</text><path fill="#00BFFF" d="m602.5 370.594 10 4-10 4z" style="stroke:#00bfff;stroke-width:1"/><path d="M484.5 374.594h124" style="stroke:#00bfff;stroke-width:1"/><text x="491.5" y="369.292" font-family="sans-serif" font-size="14" textLength="56">创建容器</text><path fill="#00BFFF" d="m166 400.89-10 4 10 4z" style="stroke:#00bfff;stroke-width:1"/><path d="M160 404.891h313.5" style="stroke:#00bfff;stroke-width:1;stroke-dasharray:2,2"/><text x="172" y="399.589" font-family="sans-serif" font-size="14" textLength="119">上报 Pod 运行状态</text><path fill="#00BFFF" d="m495.5 431.188-10 4 10 4z" style="stroke:#00bfff;stroke-width:1"/><path d="M489.5 435.188h129" style="stroke:#00bfff;stroke-width:1;stroke-dasharray:2,2"/><text x="501.5" y="429.886" font-family="sans-serif" font-size="14" textLength="84">创建容器完成</text><path fill="#00BFFF" d="m277 461.484 10 4-10 4z" style="stroke:#00bfff;stroke-width:1"/><path d="M155 465.484h128" style="stroke:#00bfff;stroke-width:1"/><text x="162" y="460.183" font-family="sans-serif" font-size="14" textLength="115">存储 pod绑定信息</text><path fill="#00BFFF" d="m166 491.781-10 4 10 4z" style="stroke:#00bfff;stroke-width:1"/><path d="M160 495.781h133" style="stroke:#00bfff;stroke-width:1;stroke-dasharray:2,2"/><text x="172" y="490.479" font-family="sans-serif" font-size="14" textLength="56">存储完成</text><path fill="#00BFFF" d="m161 522.078-10 4 10 4z" style="stroke:#00bfff;stroke-width:1"/><path d="M155 526.078h323.5" style="stroke:#00bfff;stroke-width:1;stroke-dasharray:2,2"/><text x="167" y="520.776" font-family="sans-serif" font-size="14" textLength="119">上报 Pod 运行状态</text></svg>