<svg xmlns="http://www.w3.org/2000/svg" width="379" height="308" preserveAspectRatio="none" style="width:379px;height:308px;background:#fff"><defs><filter id="a" width="300%" height="300%" x="-1" y="-1"><feGaussianBlur result="blurOut" stdDeviation="2"/><feColorMatrix in="blurOut" result="blurOut2" values="0 0 0 0 0 0 0 0 0 0 0 0 0 0 0 0 0 0 .4 0"/><feOffset dx="4" dy="4" in="blurOut2" result="blurOut3"/><feBlend in="SourceGraphic" in2="blurOut3"/></filter></defs><text x="135.5" y="32.995" font-family="sans-serif" font-size="14" font-weight="bold" textLength="98">阿里云镜像仓库</text><rect width="122" height="40.297" x="10" y="142.039" fill="#FBE972" filter="url(#a)" rx="7.5" ry="7.5" style="stroke:#000;stroke-width:1"/><text x="22" y="167.034" font-family="sans-serif" font-size="14" textLength="98">阿里云镜像仓库</text><rect width="178" height="56.594" x="182" y="57.297" fill="#FFFFE0" filter="url(#a)" rx="7.5" ry="7.5" style="stroke:#000;stroke-width:1"/><text x="194" y="82.292" font-family="sans-serif" font-size="14" textLength="154">通过git仓库的dockerfile</text><text x="243" y="98.589" font-family="sans-serif" font-size="14" textLength="56">编译镜像</text><path fill="none" d="M132 162.188h10c15 0 15-76.594 30-76.594h10" style="stroke:green;stroke-width:1;stroke-dasharray:5,5"/><rect width="143" height="56.594" x="182" y="133.891" fill="#94C644" filter="url(#a)" rx="7.5" ry="7.5" style="stroke:#000;stroke-width:1"/><text x="194" y="158.886" font-family="sans-serif" font-size="14" textLength="119">通过github-action</text><text x="225.5" y="175.183" font-family="sans-serif" font-size="14" textLength="56">编译推送</text><path fill="none" d="M132 162.188h50" style="stroke:green;stroke-width:1;stroke-dasharray:5,5"/><rect width="134" height="56.594" x="182" y="210.484" fill="gold" filter="url(#a)" rx="7.5" ry="7.5" style="stroke:#000;stroke-width:1"/><text x="194" y="235.48" font-family="sans-serif" font-size="14" textLength="110">本地编译,打上tag</text><text x="221" y="251.776" font-family="sans-serif" font-size="14" textLength="56">也能推送</text><path fill="none" d="M132 162.188h10c15 0 15 76.593 30 76.593h10" style="stroke:green;stroke-width:1;stroke-dasharray:5,5"/><text x="171" y="291.073" font-family="sans-serif" font-size="14" textLength="27">图 1</text></svg>