<svg xmlns="http://www.w3.org/2000/svg" width="704.051" height="731.458"><defs><style>@font-face{font-family:&quot;Virgil&quot;;src:url(https://unpkg.com/@excalidraw/excalidraw@undefined/dist/excalidraw-assets/Virgil.woff2)}@font-face{font-family:&quot;Cascadia&quot;;src:url(https://unpkg.com/@excalidraw/excalidraw@undefined/dist/excalidraw-assets/Cascadia.woff2)}@font-face{font-family:&quot;Assistant&quot;;src:url(https://unpkg.com/@excalidraw/excalidraw@undefined/dist/excalidraw-assets/Assistant-Regular.woff2)}</style></defs><path fill="#fff" d="M0 0h704.051v731.458H0z"/><text dominant-baseline="text-before-edge" font-family="Helvetica, Segoe UI Emoji" font-size="56.353" style="white-space:pre" transform="translate(17.853 320.779)">User </text><g fill-rule="evenodd" stroke-linecap="round"><path fill="none" stroke="#ced4da" d="M35.77 196.73q0 0 0 0m0 0q0 0 0 0m-14.3 28.64c10.65-12.25 21.3-24.5 45.92-52.83m-45.92 52.83c9.61-11.05 19.22-22.11 45.92-52.83M17.01 242.7 79.33 171m-62.32 71.7c16.85-19.39 33.7-38.77 62.32-71.7m-64.81 86.76c29.67-34.13 59.33-68.27 74.79-86.04m-74.79 86.04c18.71-21.54 37.43-43.07 74.79-86.04m-75.97 99.59c24.36-28.02 48.71-56.04 83.32-95.85m-83.32 95.85c22.08-25.41 44.17-50.81 83.32-95.85M11.5 285.61c35.04-40.31 70.09-80.62 92.51-106.41M11.5 285.61c35.42-40.75 70.85-81.5 92.51-106.41M14.92 293.88c21.83-25.12 43.67-50.24 95.78-110.19M14.92 293.88c25.35-29.17 50.7-58.33 95.78-110.19M24.89 294.6c28.58-32.88 57.15-65.75 91.85-105.66M24.89 294.6c27.97-32.17 55.93-64.34 91.85-105.66M35.52 294.56c18.06-20.77 36.12-41.55 86.6-99.62m-86.6 99.62c23.41-26.93 46.83-53.86 86.6-99.62m-75.97 99.59c25.72-29.59 51.44-59.18 80.7-92.83m-80.7 92.83c19.77-22.74 39.53-45.48 80.7-92.83m-70.07 92.8c20.03-23.04 40.06-46.08 74.79-86.04M56.78 294.5c19.89-22.89 39.79-45.78 74.79-86.04m-64.82 86.76c15.08-17.35 30.16-34.69 68.89-79.25m-68.89 79.25c18.41-21.17 36.81-42.34 68.89-79.25m-58.26 79.21c17.55-20.18 35.09-40.36 62.33-71.7m-62.33 71.7c19.84-22.82 39.68-45.64 62.33-71.7m-51.7 71.67c12.33-14.18 24.65-28.35 55.77-64.15m-55.77 64.15c20.45-23.52 40.9-47.04 55.77-64.15m-45.14 64.11c13-14.95 26-29.9 48.55-55.85m-48.55 55.85c13.44-15.46 26.88-30.92 48.55-55.85m-37.26 55.06c9.37-10.78 18.74-21.55 41.33-47.54m-41.33 47.54 41.33-47.54m-30.04 46.75c9.4-10.82 18.81-21.63 32.8-37.73m-32.8 37.73 32.8-37.73m-20.2 35.43c7.35-8.46 14.71-16.92 22.3-25.66m-22.3 25.66 22.3-25.66M10 293.58q0 0 0 0m0 0q0 0 0 0m12.04-.13c-3.34-2.91-6.69-5.82-10.57-9.19m10.57 9.19c-3.99-3.47-7.98-6.94-10.57-9.19m23.37 9.71c-6.23-5.41-12.45-10.82-22.64-19.68m22.64 19.68c-7.41-6.44-14.82-12.88-22.64-19.68m34.68 19.55c-12.11-10.53-24.23-21.06-33.21-28.87m33.21 28.87c-9.94-8.64-19.87-17.28-33.21-28.87m46 29.39C47.21 283.52 34.74 272.68 14.39 255m45.28 39.36C43.27 280.1 26.86 265.84 14.39 255m57.32 39.23c-19.27-16.76-38.54-33.51-55.84-48.55m55.84 48.55c-20.57-17.89-41.14-35.77-55.84-48.55m67.88 48.41c-24.38-21.19-48.76-42.39-65.66-57.07m65.66 57.07c-25.82-22.45-51.65-44.9-65.66-57.07m77.71 56.94L19.57 227.7m76.23 66.26c-21.17-18.4-42.34-36.8-76.23-66.26m87.51 65.47c-28.24-24.55-56.49-49.1-84.53-73.48m84.53 73.48c-22.56-19.61-45.12-39.23-84.53-73.48m95.82 72.69c-22.68-19.71-45.35-39.42-92.83-80.69m92.83 80.69-92.83-80.69m103.36 79.25-98.87-85.95m98.87 85.95c-30.87-26.84-61.74-53.67-98.87-85.95m109.4 84.5c-27.78-24.15-55.57-48.3-104.9-91.19m104.9 91.19c-26.33-22.88-52.65-45.77-104.9-91.19m113.17 87.78c-27.57-23.97-55.14-47.93-107.93-93.82m107.93 93.82c-26.04-22.64-52.08-45.27-107.93-93.82m113.18 87.78c-23.68-20.58-47.35-41.16-107.17-93.16m107.17 93.16c-28.3-24.59-56.59-49.19-107.17-93.16m109.4 84.5c-37.97-33.01-75.94-66.02-103.4-89.88m103.4 89.88C129.44 249 103.7 226.63 51.78 181.5m103.36 79.25c-33.2-28.87-66.41-57.73-96.6-83.98m96.6 83.98c-20.8-18.09-41.61-36.17-96.6-83.98m92.04 69.41c-21.33-18.54-42.65-37.07-84.53-73.48m84.53 73.48c-26.45-22.99-52.89-45.97-84.53-73.48M143 228.99c-24.24-21.07-48.48-42.14-67.93-59.04M143 228.99c-24.57-21.35-49.13-42.71-67.93-59.04m55.82 37.91c-12.59-10.94-25.19-21.89-43.02-37.39m43.02 37.39c-12.63-10.97-25.25-21.95-43.02-37.39"/><path fill="none" stroke="#000" stroke-width="2" d="M10 293.58c2.59-13.65 4.44-61.31 15.55-81.92 11.1-20.6 34.06-40.21 51.09-41.7 17.02-1.49 39.05 13.58 51.08 32.77 12.03 19.18 40.72 67.2 21.1 82.34-19.62 15.15-115.68 7.09-138.82 8.51m0 0c2.59-13.65 4.44-61.31 15.55-81.92 11.1-20.6 34.06-40.21 51.09-41.7 17.02-1.49 39.05 13.58 51.08 32.77 12.03 19.18 40.72 67.2 21.1 82.34-19.62 15.15-115.68 7.09-138.82 8.51"/></g><g stroke-linecap="round"><path fill="none" stroke="#ced4da" d="M52.02 118.318q0 0 0 0m0 0q0 0 0 0m-6.42 19.59 27.55-31.7m-27.55 31.7c7.46-8.59 14.93-17.18 27.55-31.7m-25.45 41.48c13.1-15.08 26.21-30.16 36.08-41.51m-36.08 41.51c9.76-11.24 19.53-22.47 36.08-41.51m-32.01 49.02c12.9-14.84 25.8-29.68 41.33-47.55m-41.33 47.55c13.77-15.85 27.55-31.7 41.33-47.55m-35.3 52.8c9.15-10.53 18.3-21.05 42.65-49.06m-42.65 49.06c10.34-11.9 20.68-23.79 42.65-49.06m-35.95 53.55c16.35-18.8 32.69-37.61 42.64-49.06m-42.64 49.06c15.41-17.73 30.83-35.47 42.64-49.06m-33.98 51.29c9.58-11.02 19.16-22.04 39.36-45.28m-39.36 45.28 39.36-45.28m-30.04 46.76c11.18-12.87 22.37-25.74 32.8-37.74m-32.8 37.74c10.77-12.4 21.55-24.8 32.8-37.74m-19.55 34.68c5.15-5.92 10.3-11.84 20.34-23.39m-20.34 23.39c7.53-8.66 15.06-17.32 20.34-23.39m-60.33 16.76q0 0 0 0m0 0q0 0 0 0m21.85 8.4c-10.74-9.34-21.48-18.68-31.7-27.56m31.7 27.56-31.7-27.56m42.99 26.77c-8.66-7.53-17.32-15.05-42.27-36.74m42.27 36.74c-16.27-14.14-32.54-28.29-42.27-36.74m51.29 33.98c-18.76-16.31-37.53-32.62-48.3-41.99m48.3 41.99c-10.61-9.22-21.23-18.45-48.3-41.99m55.06 37.27c-18-15.64-35.99-31.29-49.81-43.3m49.81 43.3c-16.66-14.48-33.31-28.96-49.81-43.3m55.81 37.92c-19.01-16.53-38.01-33.05-49.81-43.3m49.81 43.3c-12.06-10.49-24.12-20.97-49.81-43.3m53.55 35.95c-13.78-11.98-27.56-23.96-45.28-39.37m45.28 39.37c-15.51-13.49-31.03-26.97-45.28-39.37m47.51 30.7c-10.73-9.32-21.46-18.65-36.98-32.14m36.98 32.14c-9.71-8.44-19.43-16.88-36.98-32.14m33.93 18.89c-4.05-3.52-8.11-7.04-18.87-16.4m18.87 16.4c-5.6-4.87-11.2-9.73-18.87-16.4"/><path fill="none" stroke="#000" stroke-width="2" d="M116.17 136.768c0 1.62-.15 3.26-.44 4.86s-.73 3.2-1.3 4.75c-.57 1.54-1.29 3.06-2.14 4.5-.84 1.45-1.82 2.85-2.91 4.16a32.6 32.6 0 0 1-3.62 3.72 35 35 0 0 1-4.24 3.16c-1.5.96-3.11 1.82-4.76 2.55-1.65.74-3.39 1.37-5.15 1.87s-3.59.89-5.42 1.14-3.71.38-5.56.38-3.73-.13-5.56-.38a39.5 39.5 0 0 1-5.42-1.14c-1.77-.5-3.5-1.13-5.16-1.87-1.65-.73-3.25-1.59-4.75-2.55-1.5-.95-2.93-2.02-4.24-3.16-1.31-1.15-2.53-2.4-3.62-3.72a30 30 0 0 1-2.92-4.16 29 29 0 0 1-2.13-4.5c-.57-1.55-1.01-3.15-1.3-4.75s-.44-3.24-.44-4.86.15-3.27.44-4.87.73-3.2 1.3-4.74 1.29-3.07 2.13-4.51a30 30 0 0 1 2.92-4.16 32.5 32.5 0 0 1 3.62-3.71c1.31-1.15 2.74-2.22 4.24-3.17s3.1-1.81 4.75-2.55a38 38 0 0 1 5.16-1.87c1.76-.5 3.59-.88 5.42-1.14 1.83-.25 3.71-.38 5.56-.38s3.73.13 5.56.38c1.83.26 3.66.64 5.42 1.14s3.5 1.13 5.15 1.87 3.26 1.6 4.76 2.55 2.93 2.02 4.24 3.17a32.5 32.5 0 0 1 3.62 3.71c1.09 1.31 2.07 2.71 2.91 4.16a28.22 28.22 0 0 1 3.44 9.25c.29 1.6.37 4.06.44 4.87s.07-.81 0 0"/></g><text dominant-baseline="text-before-edge" font-family="Helvetica, Segoe UI Emoji" font-size="54.527" style="white-space:pre" transform="translate(474.138 317.957)">User </text><g fill-rule="evenodd" stroke-linecap="round"><path fill="none" stroke="#ced4da" d="M491.42 197.99q0 0 0 0m0 0q0 0 0 0m-15.61 30.15c16.79-19.32 33.58-38.63 45.92-52.83m-45.92 52.83c16.09-18.51 32.18-37.03 45.92-52.83m-48.42 67.89c13.14-15.11 26.28-30.23 61.67-70.94m-61.67 70.94c20.39-23.45 40.78-46.9 61.67-70.94m-64.16 86c20.61-23.71 41.22-47.41 73.48-84.52m-73.48 84.52c26.74-30.75 53.47-61.51 73.48-84.52m-75.31 98.83c31.06-35.73 62.12-71.47 82.66-95.1m-82.66 95.1c30.87-35.52 61.74-71.03 82.66-95.1m-84.5 109.4c21.54-24.77 43.07-49.54 91.85-105.66m-91.85 105.66c31.04-35.7 62.07-71.4 91.85-105.66m-85.81 110.91c21.04-24.2 42.07-48.4 91.85-105.66m-91.85 105.66c21.24-24.43 42.48-48.87 91.85-105.66m-81.22 105.63c33.02-37.99 66.04-75.98 87.26-100.38m-87.26 100.38c23.06-26.53 46.12-53.06 87.26-100.38m-76.63 100.34c20.93-24.08 41.87-48.16 81.35-93.58m-81.35 93.58c18.27-21.02 36.55-42.04 81.35-93.58m-70.72 93.55c15.64-17.99 31.28-35.99 76.1-87.55m-76.1 87.55c24.17-27.81 48.34-55.62 76.1-87.55m-66.13 88.27c16.66-19.16 33.32-38.33 70.2-80.76m-70.2 80.76c21.55-24.79 43.1-49.58 70.2-80.76m-59.57 80.72c16.14-18.55 32.27-37.11 64.3-73.96m-64.3 73.96c22.84-26.27 45.68-52.54 64.3-73.96m-53.67 73.93c19.5-22.43 39-44.86 57.74-66.42m-57.74 66.42c21.05-24.21 42.1-48.42 57.74-66.42m-47.1 66.38c19.8-22.77 39.6-45.55 50.51-58.11m-50.51 58.11c10.97-12.62 21.94-25.25 50.51-58.11m-39.88 58.08c9.65-11.11 19.31-22.22 43.95-50.57m-43.95 50.57c13.9-16 27.81-32 43.95-50.57m-32.67 49.78c12.34-14.2 24.69-28.4 35.43-40.75m-35.43 40.75c8.03-9.24 16.06-18.48 35.43-40.75m-22.83 38.45c8.38-9.64 16.77-19.29 24.93-28.68m-24.93 28.68c5.35-6.15 10.7-12.3 24.93-28.68m-11.68 25.63c4.76-5.48 9.53-10.95 12.47-14.34m-12.47 14.34c3.61-4.15 7.22-8.3 12.47-14.34m-140.64 19.52q0 0 0 0m0 0q0 0 0 0m12.04-.13c-4.19-3.65-8.38-7.29-10.57-9.19m10.57 9.19c-4.16-3.62-8.32-7.24-10.57-9.19m23.37 9.71c-5.61-4.87-11.21-9.74-22.64-19.68m22.64 19.68-22.64-19.68m34.68 19.55c-7.92-6.89-15.84-13.77-33.21-28.87m33.21 28.87c-10.34-8.99-20.68-17.98-33.21-28.87m46 29.39c-9.47-8.24-18.95-16.47-45.28-39.36m45.28 39.36c-17.97-15.63-35.95-31.25-45.28-39.36m57.32 39.23c-21.81-18.97-43.63-37.93-55.09-47.9m55.09 47.9c-16.32-14.2-32.65-28.39-55.09-47.9m67.13 47.76c-22.35-19.43-44.7-38.86-65.66-57.07m65.66 57.07c-23.3-20.25-46.6-40.51-65.66-57.07m76.95 56.28c-22.39-19.46-44.77-38.92-74.72-64.95m74.72 64.95c-28.83-25.05-57.65-50.11-74.72-64.95m86.76 64.82c-30.01-26.09-60.03-52.18-84.53-73.48m84.53 73.48c-17.8-15.47-35.6-30.95-84.53-73.48m95.82 72.69c-20.46-17.78-40.92-35.56-92.08-80.04m92.08 80.04c-27.59-23.98-55.17-47.96-92.08-80.04M585.44 289l-98.11-85.29M585.44 289l-98.11-85.29m107.13 82.53c-38.85-33.78-77.71-67.55-102.64-89.22m102.64 89.22c-34.93-30.37-69.87-60.74-102.64-89.22m110.15 85.15c-36.7-31.9-73.4-63.81-104.15-90.54m104.15 90.54c-25.32-22.01-50.64-44.03-104.15-90.54m108.65 83.85c-23.35-20.3-46.7-40.6-103.4-89.88m103.4 89.88c-30.35-26.39-60.71-52.77-103.4-89.88m104.12 79.9c-31.33-27.23-62.65-54.46-96.61-83.97m96.61 83.97c-30.53-26.53-61.05-53.06-96.61-83.97m94.31 71.37-87.55-76.1m87.55 76.1-87.55-76.1m82.23 60.88c-26.48-23.02-52.96-46.04-73.96-64.29m73.96 64.29c-20.59-17.9-41.19-35.8-73.96-64.29m64.87 45.79c-12.45-10.83-24.91-21.66-53.58-46.58m53.58 46.58c-15.71-13.66-31.42-27.32-53.58-46.58m37.7 22.17c-5.46-4.74-10.92-9.49-16.61-14.43m16.61 14.43-16.61-14.43"/><path fill="none" stroke="#000" stroke-width="2" d="M466.54 291.64c2.51-13.21 4.3-59.33 15.04-79.26 10.75-19.94 32.96-38.91 49.44-40.35 16.47-1.44 37.79 13.14 49.43 31.7 11.64 18.57 39.4 65.03 20.41 79.68-18.98 14.65-111.93 6.86-134.32 8.23m0 0c2.51-13.21 4.3-59.33 15.04-79.26 10.75-19.94 32.96-38.91 49.44-40.35 16.47-1.44 37.79 13.14 49.43 31.7 11.64 18.57 39.4 65.03 20.41 79.68-18.98 14.65-111.93 6.86-134.32 8.23"/></g><g stroke-linecap="round"><path fill="none" stroke="#ced4da" d="M507.093 122.178q0 0 0 0m0 0q0 0 0 0m-6.43 19.59 26.9-30.94m-26.9 30.94c7.93-9.12 15.86-18.24 26.9-30.94m-24.14 39.96c9.21-10.59 18.42-21.19 35.43-40.75m-35.43 40.75 35.43-40.75m-31.36 48.27c15.94-18.34 31.87-36.67 40.02-46.04m-40.02 46.04c8.42-9.69 16.84-19.37 40.02-46.04m-33.98 51.28c12.61-14.5 25.22-29.01 41.33-47.54m-41.33 47.54c15.04-17.3 30.08-34.61 41.33-47.54m-33.98 51.28c14.51-16.69 29.02-33.38 40.67-46.79m-40.67 46.79c8.39-9.65 16.78-19.31 40.67-46.79m-32.01 49.02c14.25-16.39 28.51-32.79 36.74-42.26m-36.74 42.26c13.81-15.88 27.62-31.76 36.74-42.26m-26.77 42.98c6.1-7.01 12.2-14.02 30.18-34.71m-30.18 34.71c8.31-9.56 16.62-19.12 30.18-34.71m-14.3 28.64c4.74-5.44 9.47-10.89 12.47-14.34m-12.47 14.34c3.9-4.49 7.81-8.98 12.47-14.34m-57.52 11.16q0 0 0 0m0 0q0 0 0 0m21.09 7.74c-11.88-10.33-23.77-20.67-30.19-26.24m30.19 26.24c-6.18-5.37-12.36-10.75-30.19-26.24m42.23 26.1c-15.11-13.14-30.23-26.28-41.51-36.08m41.51 36.08c-11.06-9.61-22.12-19.23-41.51-36.08m49.78 32.67c-13.14-11.42-26.29-22.85-46.04-40.02m46.04 40.02c-12.11-10.52-24.21-21.05-46.04-40.02m53.55 35.95c-13.1-11.39-26.21-22.79-49.05-42.64m49.05 42.64c-16.56-14.4-33.12-28.79-49.05-42.64m54.3 36.6c-16.77-14.58-33.55-29.16-47.54-41.33m47.54 41.33c-18.19-15.81-36.39-31.63-47.54-41.33m51.28 33.98c-9.68-8.42-19.37-16.84-42.26-36.74m42.26 36.74c-16.06-13.95-32.11-27.91-42.26-36.74m43.74 27.43c-7.83-6.81-15.65-13.61-33.21-28.87m33.21 28.87c-8.02-6.97-16.04-13.94-33.21-28.87m26.38 12.33c-2.07-1.79-4.13-3.59-7.55-6.56m7.55 6.56c-2.64-2.29-5.28-4.59-7.55-6.56"/><path fill="none" stroke="#000" stroke-width="2" d="M569.263 139.908a26.6 26.6 0 0 1-1.68 9.3c-.55 1.49-1.25 2.96-2.06 4.36-.82 1.4-1.77 2.76-2.82 4.02a31 31 0 0 1-3.51 3.59 34 34 0 0 1-4.1 3.07c-1.45.92-3 1.76-4.6 2.47s-3.28 1.32-4.99 1.8c-1.7.49-3.47.86-5.24 1.11a40 40 0 0 1-5.38.37c-1.8 0-3.61-.13-5.38-.37a39 39 0 0 1-5.25-1.11 36.34 36.34 0 0 1-9.59-4.27c-1.45-.92-2.83-1.96-4.1-3.07a30.4 30.4 0 0 1-3.5-3.59 28 28 0 0 1-2.82-4.02c-.82-1.4-1.51-2.87-2.07-4.36-.55-1.5-.98-3.04-1.26-4.59a26.6 26.6 0 0 1 0-9.42c.28-1.55.71-3.1 1.26-4.59.56-1.49 1.25-2.96 2.07-4.36.81-1.4 1.76-2.76 2.82-4.03 1.05-1.27 2.23-2.48 3.5-3.59s2.65-2.14 4.1-3.06c1.46-.93 3.01-1.76 4.61-2.47 1.59-.71 3.28-1.32 4.98-1.81 1.71-.48 3.48-.85 5.25-1.1 1.77-.24 3.58-.37 5.38-.37 1.79 0 3.61.13 5.38.37 1.77.25 3.54.62 5.24 1.1 1.71.49 3.39 1.1 4.99 1.81s3.15 1.54 4.6 2.47c1.45.92 2.83 1.95 4.1 3.06s2.45 2.32 3.51 3.59c1.05 1.27 2 2.63 2.82 4.03.81 1.4 1.51 2.87 2.06 4.36.56 1.49.98 3.04 1.26 4.59s.35 3.92.42 4.71c.07.78.07-.79 0 0"/></g><text dominant-baseline="text-before-edge" font-family="Helvetica, Segoe UI Emoji" font-size="20" style="white-space:pre" transform="translate(149.007 10)">2个人打电话,实际上我们是要确认4件事的!!</text><g stroke-linecap="round" mask="url(#mask-gkg1WDAoNFOmt0hERjB_q)"><path fill="none" stroke="#000" d="M169.554 126.15c41.6 6.63 207.85 32.14 249.38 38.6m-250.56-39.09c41.96 6.85 210.72 33.85 252.85 40.63"/><path fill-rule="evenodd" stroke-width="0" d="m421.324 165.14-15.66 6.53 2.99-14.56 12.11 10.46"/><path fill="none" stroke="#000" d="M421.224 166.29c-3.34.38-9.34 1.49-14.43 4.11m14.43-4.11c-4.92 1.64-8.74 2.76-14.43 4.11m0 0c.96-5.43 1.59-10.09 2.01-12.52m-2.01 12.52c.93-4.28.54-7.42 2.01-12.52m0 0c3.96 2.37 6.04 5.57 12.42 8.41m-12.42-8.41c3.47 2.56 8.63 4.83 12.42 8.41m0 0q0 0 0 0m0 0q0 0 0 0"/></g><mask id="mask-gkg1WDAoNFOmt0hERjB_q"><path fill="#fff" d="M0 0h519.75v264.752H0z"/><path d="M233.264 130.916H355.5v28H233.264z"/></mask><text x="61.118" dominant-baseline="text-before-edge" font-family="Helvetica, Segoe UI Emoji" font-size="20" style="white-space:pre" text-anchor="middle" transform="translate(233.264 130.916)">1.喂,能听到吗</text><g stroke-linecap="round" mask="url(#mask-NtUlnf-c-sA6pQ0Xrh9Ti)"><path fill="none" stroke="#000" d="M417.374 186.452c-39.88 7.63-199.26 37.73-239.13 45.61m240.82-46.57c-40.02 7.75-201.7 39.9-242.03 47.62"/><path fill-rule="evenodd" stroke-width="0" d="m176.874 232.352 11.82-6.79 4.56 12.48-14.71-5.63"/><path fill="none" stroke="#000" d="M177.034 233.112c3.01-2.58 4.47-4.77 12.12-8.83m-12.12 8.83c4.83-3.46 8.91-6.34 12.12-8.83m0 0c.51 3.71 2.04 6.62 2.43 12.44m-2.43-12.44c.15 2.42.72 5.53 2.43 12.44m0 0c-4.04-.82-9.06-3.43-14.55-3.61m14.55 3.61c-3.22-.87-7.77-1.86-14.55-3.61m0 0q0 0 0 0m0 0q0 0 0 0"/></g><mask id="mask-NtUlnf-c-sA6pQ0Xrh9Ti"><path fill="#fff" d="M0 0h757.977v332.988H0z"/><path d="M260.217 195.64h76.68v28h-76.68z"/></mask><text x="38.34" dominant-baseline="text-before-edge" font-family="Helvetica, Segoe UI Emoji" font-size="20" style="white-space:pre" text-anchor="middle" transform="translate(260.217 195.64)">2.能听到</text><g stroke-linecap="round" mask="url(#mask-78vh27tLFOqHUf6Iyq1xn)"><path fill="none" stroke="#000" d="M181.297 260.614c41.02 5.97 205.15 28.6 246.23 34.15m-244.35-34.8c40.95 5.68 202.97 27.08 243.67 32.93"/><path fill-rule="evenodd" stroke-width="0" d="m428.517 294.214-14.48 2.41.43-11.95 13.52 9.45"/><path fill="none" stroke="#000" d="M426.847 292.894c-2.79 1.71-6.82 3.17-14.33 4.43m14.33-4.43c-4.38 1.27-8.33 2.38-14.33 4.43m0 0c-.61-5.7 1.12-9.64 1.72-12.56m-1.72 12.56c.57-3.57 1.46-6.61 1.72-12.56m0 0c3.49 3.46 6.4 6.66 12.61 8.13m-12.61-8.13c4.94 2.8 8.94 4.71 12.61 8.13m0 0q0 0 0 0m0 0q0 0 0 0"/></g><mask id="mask-78vh27tLFOqHUf6Iyq1xn"><path fill="#fff" d="M0 0h527.012v394.289H0z"/><path d="M273.346 263.077h62.236v28h-62.236z"/></mask><text x="31.118" dominant-baseline="text-before-edge" font-family="Helvetica, Segoe UI Emoji" font-size="20" style="white-space:pre" text-anchor="middle" transform="translate(273.346 263.077)">3. 好的</text><g stroke-linecap="round"><path fill="none" stroke="#12b886" stroke-width=".5" d="M182.642 482.255q0 0 0 0m0 0q0 0 0 0m-10.75 18.47c5.16-8.97 12-13.83 17.71-20.38m-17.71 20.38c5.67-7.77 12.1-14.75 17.71-20.38m-17.32 26.02c8.44-8.76 17.71-19.16 24.93-28.68m-24.93 28.68c6.24-6.78 12.53-13.91 24.93-28.68m-24.53 34.33c9.22-14.62 21.71-25.33 30.17-34.72m-30.17 34.72c11.57-13.97 24.26-26.54 30.17-34.72m-29.12 39.61c13.4-15.3 26.19-30.35 32.8-37.74m-32.8 37.74c10.58-12.65 21.78-24.33 32.8-37.74m-31.75 42.62c12.49-14.65 27.83-31.51 35.42-40.75m-35.42 40.75c6.99-8.38 14.19-15.83 35.42-40.75m-32.4 43.38c12.11-16.45 28.57-32.66 36.08-41.51m-36.08 41.51c13.29-15.93 26.79-32.22 36.08-41.51m-33.72 44.89c7.56-9.13 15.85-19.52 36.74-42.27m-36.74 42.27c13.29-16.02 26.78-31 36.74-42.27m-33.72 44.89c10.82-15.48 23.1-28.25 37.39-43.02m-37.39 43.02c15.08-17.02 28.39-32.64 37.39-43.02m-35.03 46.4c8.56-9.36 17.51-18.86 37.4-43.02m-37.4 43.02c11.11-12.57 23.67-26.59 37.4-43.02m-32.41 43.38c9.93-14.39 21.16-25.35 34.11-39.25m-34.11 39.25c10.91-11.16 19.99-23.58 34.11-39.25m-29.13 39.61c8.06-8.99 16.17-19.58 30.84-35.47m-30.84 35.47c6.24-7.48 12.83-15.6 30.84-35.47m-26.5 36.58c9.24-11.08 16.46-18.01 28.21-32.45m-28.21 32.45c9.89-13.16 20.36-25.62 28.21-32.45m-23.23 32.81c9.55-10.35 18.43-18.42 25.59-29.43m-25.59 29.43c7.03-8.21 16.35-19.2 25.59-29.43m-21.91 31.3c6.76-8.06 12.66-13.71 17.05-19.62m-17.05 19.62c5.98-5.25 9.43-11.84 17.05-19.62"/><path fill="none" stroke="#000" d="M202.452 476.455c6.07.52 13.71 5.64 18.25 10.53 4.53 4.9 8.71 12.67 8.96 18.84.26 6.16-3.48 13.14-7.42 18.13-3.95 5-10.08 10.23-16.23 11.83-6.15 1.61-14.99.58-20.65-2.2-5.67-2.78-10.78-8.76-13.35-14.47-2.56-5.71-3.82-13.64-2.03-19.81 1.78-6.16 6.71-13.45 12.76-17.16s19.06-4.77 23.53-5.09c4.48-.32 3.59 2.39 3.3 3.19m-4.13-2.54c6.22.33 13.73 3.53 17.44 8.51 3.72 4.98 5.02 14.84 4.85 21.37-.17 6.52-2 13.21-5.88 17.8-3.88 4.58-11.14 8.54-17.4 9.69s-14.42-.05-20.16-2.82c-5.73-2.76-11.96-7.82-14.24-13.79s-1.66-15.99.57-22.05c2.24-6.06 7.07-11.29 12.84-14.29s18.18-2.93 21.78-3.7c3.59-.77.05-1.23-.22-.92"/></g><g fill-rule="evenodd" stroke-linecap="round"><path fill="#fff" stroke-width="0" d="m190.511 503.34 7.592 4.82 7.69-14.824 9.99 4.885-12.458 22.445-18.69-8.94 5.082-7.547"/><path fill="none" stroke="#000" d="M189.508 503.694c2.913 1.573 6.038 3.38 8.738 4.925m-8.738-4.925c2.477 1.166 5.055 3.067 8.738 4.925m0 0c2.614-4.392 5.1-7.56 8.805-15.62m-8.805 15.62c2.612-4.899 5.572-10.76 8.805-15.62m0 0c3.986 2.053 7.314 4.01 8.746 4.931M207.05 493c1.689 1.055 3.447 1.99 8.746 4.93m0 0c-3.857 6.516-8.515 14.474-13.21 23.433m13.21-23.433c-4.7 8.153-9.534 17.034-13.21 23.433m0 0c-5.215-3.72-11.961-6.456-17.484-9.855m17.484 9.855c-3.382-1.596-6.946-3.95-17.484-9.855m0 0c1.505-3.342 3.028-5.962 4.405-7.814m-4.405 7.814c1.512-2.845 3.216-5.684 4.405-7.814m0 0q0 0 0 0m0 0q0 0 0 0"/></g><text dominant-baseline="text-before-edge" font-family="Helvetica, Segoe UI Emoji" font-size="20" style="white-space:pre" transform="translate(249.734 471.123)">1.  B确认 A能说话</text><text y="28" dominant-baseline="text-before-edge" font-family="Helvetica, Segoe UI Emoji" font-size="20" style="white-space:pre" transform="translate(249.734 471.123)">2.  A确认 B能听到,并且能说话</text><text y="56" dominant-baseline="text-before-edge" font-family="Helvetica, Segoe UI Emoji" font-size="20" style="white-space:pre" transform="translate(249.734 471.123)">3.  B确认 A能听到 </text><g stroke-linecap="round"><path fill="none" stroke="#000" d="M288.931 590.78c.44 13.86 2.27 69.76 2.73 83.32m-1.01-84.4c.42 13.52.35 68.86.46 82.73"/><path fill-rule="evenodd" stroke-width="0" d="m292.691 672.04-6.5-15.06 10.08 1.48-6.47 15.63"/><path fill="none" stroke="#000" d="M291.111 672.43c-1.57-2.25-1.9-5.36-6.38-13.57m6.38 13.57c-1.52-3.06-2.78-5.31-6.38-13.57m0 0c4.32.04 7.83-1.23 12.67-.05m-12.67.05c4.05.32 6.95.29 12.67-.05m0 0c-3.81 4.17-4.17 10.56-6.29 13.62m6.29-13.62c-1.53 2.92-3.57 7.24-6.29 13.62m0 0q0 0 0 0m0 0q0 0 0 0"/></g><g stroke-linecap="round"><path fill="none" stroke="#000" d="M318.178 593.656c.46 13.57 1.21 66.89 1.08 80.47m-2.14-81.06c.45 13.68 1.17 68.13 1.6 82.03"/><path fill-rule="evenodd" stroke-width="0" d="m320.188 673.216-9.23-11.93 12.5 1.74-4.86 13.26"/><path fill="none" stroke="#000" d="M318.718 675.096c-.4-1.99-4.32-7.32-6.62-13.46m6.62 13.46c-2.14-3.64-3.8-8.21-6.62-13.46m0 0c4.75-1.22 9.19.46 12.67-.27m-12.67.27c2.65.1 5.72-.04 12.67-.27m0 0c-1.56 4.73-5.34 10.09-6.05 13.73m6.05-13.73c-1.65 3.23-2.51 5.25-6.05 13.73m0 0q0 0 0 0m0 0q0 0 0 0"/></g><text dominant-baseline="text-before-edge" font-family="Helvetica, Segoe UI Emoji" font-size="20" style="white-space:pre" transform="translate(169.05 693.458)">如果A不能听到,那么B说的长篇大伦可能白说了,气不气人吧.</text><text dominant-baseline="text-before-edge" font-family="Helvetica, Segoe UI Emoji" font-size="36" style="white-space:pre" transform="translate(67.248 115.369)">A</text><text dominant-baseline="text-before-edge" font-family="Helvetica, Segoe UI Emoji" font-size="36" style="white-space:pre" transform="translate(524.685 119.868)">B</text></svg>