<svg xmlns="http://www.w3.org/2000/svg" width="1060.909" height="806.968"><defs><style>@font-face{font-family:&quot;Virgil&quot;;src:url(https://unpkg.com/@excalidraw/excalidraw@undefined/dist/excalidraw-assets/Virgil.woff2)}@font-face{font-family:&quot;Cascadia&quot;;src:url(https://unpkg.com/@excalidraw/excalidraw@undefined/dist/excalidraw-assets/Cascadia.woff2)}@font-face{font-family:&quot;Assistant&quot;;src:url(https://unpkg.com/@excalidraw/excalidraw@undefined/dist/excalidraw-assets/Assistant-Regular.woff2)}</style></defs><path fill="#fff" d="M0 0h1060.909v806.968H0z"/><path fill="#5c940d" d="m113.974 274.129 2.95.04q2.95.03 18.15.06 15.2.02 33.25.04t54.81.03q36.76.02 67.99.02l64.47.02q33.24.01 72.04.01 38.79.01 71.19.01 32.4.01 50.32.01h36.21q18.29 0 31.41.01h75.23q2.82 0 4.41-.09 1.59-.1 2.8-.21 1.22-.11 2.88-.29 1.67-.18 3.74-.25 2.08-.07 2.43-.01.36.06.68.23.31.17.56.43t.4.59q.15.32.19.68.04.35-.04.7t-.26.66q-.19.31-.46.54-.28.23-.61.37-.33.13-.69.15t-.71-.08q-.35-.09-.65-.29-.29-.21-.51-.49-.22-.29-.33-.63-.12-.34-.12-.7 0-.35.12-.69.11-.34.33-.63t.51-.49q.3-.2.65-.3.35-.09.71-.07.36.01.69.15.33.13.61.36.27.24.46.55.18.3.26.66.08.35.04.7t-.19.68-.4.59-.57.43q-.31.17-.67.23l-.35.05-2.08-.06q-2.07-.07-3.74-.25-1.66-.18-2.88-.29-1.21-.11-2.8-.21t-4.41-.1h-15.04q-5.48.01-13.43.01h-78.17q-18.28.01-36.21.01h-50.32q-32.4.01-71.19.01-38.8.01-72.04.01l-64.47.02-67.99.02-54.81.03q-18.05.02-33.25.05-15.2.02-18.15.05-2.95.04-3.13.01-.19-.02-.37-.09-.17-.06-.33-.17-.15-.11-.28-.25-.12-.14-.21-.3-.09-.17-.13-.35-.05-.19-.05-.37t.05-.37q.04-.18.13-.35.09-.16.21-.3.13-.14.28-.25.16-.11.34-.18.17-.06.36-.08z"/><g stroke-linecap="round"><path fill="none" stroke="#e67700" d="M115.884 321.038c-.31-7.88-1.76-40.07-1.98-47.96m2.82 47.65c-.36-7.79-2.99-39.15-3.38-47.15"/><path fill="#e67700" fill-rule="evenodd" stroke-width="0" d="m113.604 273.478 6.49 12.84-12.79 1.28 5.81-14.89"/><path fill="none" stroke="#e67700" d="M113.344 273.578c1.97 2.52 2.54 6.19 7.25 13.13m-7.25-13.13c2.78 4.13 4.87 9.01 7.25 13.13m0 0c-2.96-.07-6.41-.02-12.65.86m12.65-.86c-4.02.63-8.06.72-12.65.86m0 0c1.64-6.28 3.77-11.22 5.4-13.99m-5.4 13.99c2.08-4.85 3.34-9.56 5.4-13.99m0 0q0 0 0 0m0 0q0 0 0 0"/></g><text dominant-baseline="text-before-edge" font-family="Helvetica, Segoe UI Emoji" font-size="20" style="white-space:pre" transform="translate(10 333.552)">preStop开始</text><g stroke-linecap="round"><path fill="none" stroke="#e67700" d="M311.35 322.155c-.18-8.03-1.51-40.57-1.69-48.75m1.23 48.38c-.24-7.9-1.61-39.68-1.73-47.75"/><path fill="#e67700" fill-rule="evenodd" stroke-width="0" d="m308.52 274.055 7.16 12.5-12.59 1.59 5.43-14.49"/><path fill="none" stroke="#e67700" d="M309.16 274.035c1.99 3.24 3.24 7.53 6.75 13.39m-6.75-13.39c1.27 2.8 2.99 5.83 6.75 13.39m0 0c-2.99.52-5.99.31-12.67.39m12.67-.39c-4.75.22-10.23.13-12.67.39m0 0c1.47-3.26 2.26-5.06 5.92-13.78m-5.92 13.78c1.59-3.04 2.59-6.3 5.92-13.78m0 0q0 0 0 0m0 0q0 0 0 0"/></g><text dominant-baseline="text-before-edge" font-family="Helvetica, Segoe UI Emoji" font-size="20" style="white-space:pre" transform="translate(202.738 337.728)">preStop结束</text><g stroke-linecap="round"><path fill="none" stroke="#5f3dc4" d="M316.462 220.789c-.49 7.78-2.95 39.22-3.57 47.04m3.16-46.1c-.56 7.61-3 37.43-3.62 45.19"/><path fill="#5f3dc4" fill-rule="evenodd" stroke-width="0" d="m312.282 267.249-5.71-14.77 12.34 1.03-6.32 14.14"/><path fill="none" stroke="#5f3dc4" d="M312.432 266.919c-2.1-3.94-2.7-8-5.22-14.06m5.22 14.06c-1.79-4.07-3.47-8.35-5.22-14.06m0 0c5.35.67 9.7 1.37 12.64 1.02m-12.64-1.02c3.61.14 7.8.77 12.64 1.02m0 0c-2.26 2.58-4.2 6.48-7.42 13.04m7.42-13.04c-3 4.78-5.08 8.82-7.42 13.04m0 0q0 0 0 0m0 0q0 0 0 0"/></g><text fill="#862e9c" dominant-baseline="text-before-edge" font-family="Helvetica, Segoe UI Emoji" font-size="20" style="white-space:pre" transform="translate(305.95 159.942)">发送sigterm信号</text><text y="23" fill="#862e9c" dominant-baseline="text-before-edge" font-family="Helvetica, Segoe UI Emoji" font-size="20" style="white-space:pre" transform="translate(305.95 159.942)">给容器,让容器自己优雅退出</text><g stroke-linecap="round"><path fill="none" stroke="#1864ab" d="M528.557 220.474c-.37 8.49-1.41 42.69-1.92 51.18m3.89-52.22c-.47 8.12-3.54 42.15-4.56 50.47"/><path fill="#1864ab" fill-rule="evenodd" stroke-width="0" d="m524.107 269.154-2.73-11.96 13.61-1.84-7.37 14.69"/><path fill="none" stroke="#1864ab" d="M525.967 269.904c-1.43-3.45-1.97-8.97-4.91-14.18m4.91 14.18c-1-4.45-3.02-8.87-4.91-14.18m0 0c4.53-.14 7.94-.45 12.61 1.31m-12.61-1.31c2.5.11 6.23.16 12.61 1.31m0 0c-1.15 1.93-2.96 4.42-7.7 12.87m7.7-12.87c-3.1 5.03-5.12 9.67-7.7 12.87m0 0q0 0 0 0m0 0q0 0 0 0"/></g><text fill="#1864ab" dominant-baseline="text-before-edge" font-family="Helvetica, Segoe UI Emoji" font-size="20" style="white-space:pre" transform="translate(548.313 221.95)">容器结束退出了,然后pod被删除了</text><path fill="#495057" d="m106.488 175.767-.04-1.21-.11-3.43q-.06-2.22-.1-3.31-.03-1.08.13-2.84t.32-3.22 1.04-3.95q.87-2.48 1.22-3.86.36-1.37.88-2.76.52-1.4 1.51-3.2t1.83-3.55 1.51-3.24 1.25-2.71 1.52-2.73q.94-1.5 1.62-2.6t1.81-2.56 1.87-2.52q.74-1.07 1.86-2.39t2.04-2.3 2.04-2.09q1.12-1.1 2.04-1.97t2.36-1.89 2.77-1.84 2.82-1.64q1.5-.83 2.69-1.46 1.2-.63 3.56-1.41 2.36-.77 4.01-1.37 1.65-.59 3.94-1.23 2.3-.64 4.07-1.28 1.78-.64 4.32-1.36 2.54-.73 4.46-1.29t4.5-1.14q2.57-.58 4.49-1.08 1.91-.5 4.69-.94 2.79-.45 4.81-.77t4.48-.57 4.33-.51q1.88-.27 4.21-.58t4.22-.5q1.9-.19 3.91-.37 2.02-.19 4.26-.36 2.24-.18 4.26-.27 2.03-.1 4.6-.12 2.58-.01 5.21-.01t4.61-.03q1.97-.03 3.66-.1 1.7-.07 4.35-.03 2.64.03 4.45-.01t4.16 0q2.34.04 3.86-.05 1.53-.08 4.1-.03 2.58.05 4.53.05 1.95-.01 4.64-.1t4.67-.26q1.98-.18 4.91-.48 2.92-.31 5.21-.56 2.29-.26 5.31-.74 3.03-.49 5.34-.95 2.32-.46 5.41-1.05 3.08-.58 5.42-1.09 2.33-.5 6.06-1.15t6.57-1.06l6.96-1.03q4.12-.61 7.09-1.15 2.98-.53 6.94-1.32 3.97-.8 6.69-1.39 2.72-.6 5.26-1.2 2.53-.6 4.26-1.14t3.12-1.06 2.68-1.14 3.18-1.73 3.36-2.28q1.46-1.17 3.01-2.47 1.54-1.3 2.98-2.69t2.27-2.45 1.4-2.07q.57-1 .65-2.39.08-1.4.03-2.68-.05-1.29.06-2.41.12-1.13.45-2.21.33-1.09 1.58-2.26 1.25-1.18 2.7-.94 1.46.23 2.51.96 1.06.74 2.8 2.07 1.73 1.33 2.72 2 .98.68 3.13 2.33t4 2.91 4.68 2.89q2.82 1.63 5.06 2.89 2.23 1.26 5.24 2.86l5.33 2.84q2.31 1.22 4.33 2.28 2.01 1.06 5.54 2.64 3.52 1.59 6.27 2.83 2.76 1.24 6.6 2.76t6.95 2.76q3.11 1.25 7.34 2.79 4.22 1.55 7.26 2.63 3.04 1.07 7.24 2.4 4.19 1.33 7.42 2.19 3.22.85 7.29 1.78 4.06.93 7.04 1.6 2.98.68 6.74 1.52 3.75.84 6.39 1.46t6.2 1.15q3.55.52 5.77.87 2.23.34 6.08.78 3.86.43 6.55.75 2.7.32 5.9.58t5.83.51q2.62.25 6 .5 3.38.24 5.85.34 2.46.11 6.01.29t6.5.26 6.95.4q4.01.31 7.36.45 3.36.13 6.28.34 2.92.2 6.85.42 3.92.23 6.86.46 2.93.24 6.47.61t6.08.65q2.55.29 5.91.68 3.37.39 6.07.84 2.71.44 6.16 1.17t5.95 1.3q2.51.57 5.86 1.35 3.34.78 5.81 1.37 2.47.6 4.93 1.31 2.46.72 4.96 1.46t4.67 1.49q2.16.74 3.78 1.2t3.52 1.13q1.91.67 3.29 1.08 1.38.42 3.03 1.03t2.91 1.02q1.25.4 2.63.97 1.37.57 2.46.97 1.09.39 2.39.96 1.3.58 3.37 1.53 2.08.96 2.98 1.54.91.57 2.78 1.78t3.2 2.24q1.32 1.04 2.26 1.77t2.81 2.21 3.62 3.05q1.74 1.58 3.1 3.17t2.21 2.83q.86 1.23 1.53 2.28.67 1.06 1.26 2.05.58.99 1.1 2.26.51 1.26.83 2.66.33 1.39.59 2.43.25 1.03.54 3.13t.48 2.62q.2.52.21 1.07t-.15 1.08-.49.98q-.32.45-.77.77-.45.33-.98.49-.53.15-1.08.14-.56-.02-1.08-.2-.51-.19-.95-.54-.43-.35-.73-.81-.29-.47-.43-1.01-.13-.54-.08-1.09.04-.55.26-1.06t.59-.92.85-.68q.49-.28 1.03-.38t1.09-.03q.55.08 1.05.32.49.25.88.64.4.39.64.89.25.5.32 1.05t-.03 1.09q-.11.54-.38 1.02-.27.49-.68.86-.42.37-.93.58-.5.21-1.06.26-.55.04-1.09-.08-.53-.14-1-.44t-.81-.73l-.35-.43-.29-1.86q-.3-1.87-.59-3.07t-.52-2.66q-.22-1.47-.45-2.6-.22-1.13-.77-2.39-.56-1.27-1.13-2.34-.56-1.07-1.18-2.16t-1.59-2.41-2.52-2.82-2.58-2.35-2.61-2.21q-1.58-1.37-2.93-2.3t-2.42-1.68q-1.07-.76-2.43-1.77-1.35-1.02-3.23-2.09t-3.08-1.68q-1.19-.61-2.27-1.15-1.08-.53-2.32-1.16-1.23-.63-2.42-1.18-1.19-.56-2.8-1.22-1.6-.66-2.89-1.25-1.29-.58-3.17-1.25-1.89-.68-3.46-1.3-1.56-.62-3.67-1.35t-4.61-1.47q-2.49-.74-4.89-1.44t-4.86-1.29-5.8-1.37l-5.83-1.34q-2.49-.57-5.88-1.29-3.39-.71-6.03-1.15t-6-.83q-3.37-.39-5.9-.68-2.53-.28-6.04-.65-3.51-.36-6.41-.6-2.91-.23-6.85-.45-3.95-.23-6.83-.43t-6.29-.34q-3.4-.14-7.34-.45-3.93-.32-6.91-.4-2.99-.07-6.52-.26-3.54-.18-6.04-.28-2.51-.11-5.92-.35-3.41-.25-6.02-.5-2.6-.25-5.85-.52-3.25-.26-5.94-.58l-6.6-.76q-3.91-.44-6.12-.78-2.22-.34-5.88-.89t-6.29-1.16q-2.63-.62-6.38-1.45-3.76-.84-6.74-1.51-2.99-.67-7.1-1.61t-7.39-1.8q-3.29-.87-7.53-2.2-4.24-1.34-7.3-2.4-3.06-1.07-7.32-2.62-4.27-1.54-7.38-2.76-3.12-1.22-7.03-2.73-3.91-1.52-6.68-2.71-2.77-1.2-6.39-2.76t-5.67-2.54q-2.06-.98-4.43-2.11l-5.46-2.59q-3.09-1.47-5.44-2.54-2.34-1.08-5.38-2.5t-5.2-2.44-4.55-2.29q-2.38-1.26-3.49-1.93-1.11-.66-2.43-1.46-1.32-.79-2.72-1.81-1.4-1.03-.34-.89 1.06.13 2.04-.65t.8.32-.25 2.24q-.07 1.15-.24 2.46-.18 1.31-.66 2.71t-1.35 2.62q-.87 1.23-2.11 2.53t-2.99 2.8-2.7 2.16q-.94.67-2.63 1.77-1.68 1.11-2.63 1.66t-3.1 1.43q-2.14.89-3.64 1.42-1.5.54-2.98.89t-3.28.78l-4.37 1.04q-2.56.61-5.3 1.21t-6.73 1.4q-4 .8-7.01 1.35-3.01.54-7.14 1.15-4.12.62-6.92 1.03-2.8.42-6.47 1.06-3.68.65-6.04 1.17-2.37.52-5.43 1.12-3.07.6-5.44 1.09-2.36.49-5.44 1.02-3.09.52-5.38.81-2.29.3-5.25.66-2.95.37-4.99.55-2.05.18-4.81.35t-4.71.16q-1.95 0-4.53.05-2.57.05-4.1-.03-1.52-.09-3.86-.05t-4.15 0-4.46 0-4.34-.03q-1.69-.06-3.66-.08t-4.59.01q-2.62.04-5.15.09-2.54.06-4.49.13-1.96.07-4.18.3-2.23.23-4.27.43-2.05.21-3.85.31-1.81.1-4.16.46-2.35.37-4.25.57t-4.29.49q-2.39.28-4.39.6t-4.64.81q-2.64.48-4.58.99t-4.41 1.15-4.36 1.23-4.3 1.41q-2.41.83-4.25 1.54-1.83.71-3.99 1.52-2.17.8-3.77 1.4t-3.67 1.54q-2.07.95-3.17 1.45-1.11.5-2.53 1.35-1.42.84-2.59 1.54-1.18.69-2.41 1.62-1.24.92-2.11 1.63-.88.71-2 1.83t-1.95 1.87q-.84.75-1.87 2.01-1.02 1.25-1.83 2.26-.81 1-1.82 2.42-1.01 1.41-1.73 2.39t-1.57 2.36q-.85 1.39-1.49 2.47-.63 1.08-1.32 2.51-.7 1.42-1.45 3.32-.75 1.91-1.52 3.61-.76 1.71-1.26 2.86t-.92 2.53-.91 3.54q-.5 2.15-.66 3.49-.16 1.33-.21 2.93t-.08 2.68q-.04 1.09-.11 3.31t-.11 3.43-.07 1.48q-.04.28-.14.54-.09.25-.25.48t-.37.41q-.2.18-.45.31-.24.13-.51.2-.27.06-.54.06t-.54-.06q-.27-.07-.52-.2-.24-.13-.45-.31-.2-.19-.36-.41-.16-.23-.26-.49-.09-.26-.13-.53z"/><text fill="#495057" dominant-baseline="text-before-edge" font-family="Helvetica, Segoe UI Emoji" font-size="20" style="white-space:pre" transform="translate(229.676 10)">terminationGracePeriodSeconds 默认是30s</text><path fill="#5c940d" d="m117.32 516.421 2.95.04q2.95.03 18.15.06 15.2.02 33.25.04t54.81.03q36.76.02 67.99.02l64.47.02q33.24.01 72.04.01 38.79.01 71.19.01 32.4.01 50.32.01h36.21q18.29 0 31.41.01h75.23q2.82 0 4.41-.09 1.59-.1 2.8-.21 1.22-.11 2.88-.29 1.67-.18 3.74-.25 2.08-.07 2.43-.01.36.06.68.23.31.17.56.43t.4.59q.15.32.19.68.04.35-.04.7t-.26.66q-.19.31-.46.54-.28.23-.61.37-.33.13-.69.15t-.71-.08q-.35-.09-.65-.29-.29-.21-.51-.49-.22-.29-.33-.63-.12-.34-.12-.7 0-.35.12-.69.11-.34.33-.63t.51-.49q.3-.2.65-.3.35-.09.71-.07.36.01.69.15.33.13.61.36.27.24.46.55.18.3.26.66.08.35.04.7t-.19.68-.4.59-.57.43q-.31.17-.67.23l-.35.05-2.08-.06q-2.07-.07-3.74-.25-1.66-.18-2.88-.29-1.21-.11-2.8-.21t-4.41-.1H680.3q-5.48.01-13.43.01H588.7q-18.28.01-36.21.01h-50.32q-32.4.01-71.19.01-38.8.01-72.04.01l-64.47.02-67.99.02-54.81.03q-18.05.02-33.25.05-15.2.02-18.15.05-2.95.04-3.13.01-.19-.02-.37-.09-.17-.06-.33-.17-.15-.11-.28-.25-.12-.14-.21-.3-.09-.17-.13-.35-.05-.19-.05-.37t.05-.37q.04-.18.13-.35.09-.16.21-.3.13-.14.28-.25.16-.11.34-.18.17-.06.36-.08z"/><g stroke-linecap="round"><path fill="none" stroke="#e67700" d="M119.69 563.55c-.36-7.88-1.66-39.6-1.94-47.56m1.35 47.36c-.45-8.06-1.46-40.39-1.65-48.21"/><path fill="#e67700" fill-rule="evenodd" stroke-width="0" d="m117.27 515.34 5.91 13.46-11.29-.26 5.08-13.83"/><path fill="none" stroke="#e67700" d="M117.45 515.14c3.29 5.36 5.37 10.74 6.73 13.41m-6.73-13.41c1.7 3.92 4.1 8.46 6.73 13.41m0 0c-3.41-.33-6.57.45-12.67.37m12.67-.37c-4.72.34-8.71.05-12.67.37m0 0c1.91-3.09 3.19-6.72 5.94-13.78m-5.94 13.78c1.52-3.98 3.39-8.32 5.94-13.78m0 0q0 0 0 0m0 0q0 0 0 0"/></g><text dominant-baseline="text-before-edge" font-family="Helvetica, Segoe UI Emoji" font-size="20" style="white-space:pre" transform="translate(13.346 575.845)">preStop开始</text><g stroke-linecap="round"><path fill="none" stroke="#e67700" d="M314.846 564.288c-.28-8.17-1.54-40.68-1.91-48.82m1.52 48.37c-.39-8.12-1.92-39.86-2.06-47.86"/><path fill="#e67700" fill-rule="evenodd" stroke-width="0" d="m312.786 515.598 5.94 13.31-12.59.69 6.19-12.94"/><path fill="none" stroke="#e67700" d="M312.396 515.978c2.48 4.34 4.27 8.54 6.81 13.36m-6.81-13.36c1.32 2.97 3.38 5.89 6.81 13.36m0 0c-2.58-.31-5.5-.39-12.67.45m12.67-.45c-4.71.31-8.96.47-12.67.45m0 0c1.96-5.23 3.79-10.18 5.86-13.81m-5.86 13.81c1.74-4.03 3.32-8.47 5.86-13.81m0 0q0 0 0 0m0 0q0 0 0 0"/></g><text dominant-baseline="text-before-edge" font-family="Helvetica, Segoe UI Emoji" font-size="20" style="white-space:pre" transform="translate(206.084 580.02)">preStop结束</text><g stroke-linecap="round"><path fill="none" stroke="#5f3dc4" d="M318.788 463.192c-.48 7.83-2.09 39.19-2.56 46.97m3.29-45.97c-.55 7.68-3.35 37.39-3.76 45.09"/><path fill="#5f3dc4" fill-rule="evenodd" stroke-width="0" d="m315.358 509.102-4.96-13.17 12 .47-6.27 13"/><path fill="none" stroke="#5f3dc4" d="M315.758 509.282c-1.87-3.81-2.51-7.87-5.29-14.03m5.29 14.03c-1.78-4.22-2.83-7.58-5.29-14.03m0 0c3.31.5 5.4.19 12.64.95m-12.64-.95c4.73.41 9.21.62 12.64.95m0 0c-1.85 3.08-4.36 6.41-7.35 13.08m7.35-13.08c-2.84 4.21-4.87 8.98-7.35 13.08m0 0q0 0 0 0m0 0q0 0 0 0"/></g><text fill="#862e9c" dominant-baseline="text-before-edge" font-family="Helvetica, Segoe UI Emoji" font-size="20" style="white-space:pre" transform="translate(309.297 402.235)">发送sigterm信号</text><text y="23" fill="#862e9c" dominant-baseline="text-before-edge" font-family="Helvetica, Segoe UI Emoji" font-size="20" style="white-space:pre" transform="translate(309.297 402.235)">给容器,让容器自己优雅退出</text><g stroke-linecap="round"><path fill="none" stroke="#1864ab" d="M707.452 462.463c.36 8.1 2.12 40.78 2.39 48.91m-1.56-49.46c.31 8.15 1 41.7 1.32 49.98"/><path fill="#1864ab" fill-rule="evenodd" stroke-width="0" d="m708.892 512.083-5.65-13.49 11.44-1.35-5.83 15.48"/><path fill="none" stroke="#1864ab" d="M709.602 511.893c-2.13-3.35-4.35-8.24-6.72-13.41m6.72 13.41c-1.7-2.65-3.23-5.43-6.72-13.41m0 0c4.62.23 8.86.11 12.67-.36m-12.67.36c4.08-.24 8.27-.23 12.67-.36m0 0c-1.46 3.32-3.63 6.91-5.95 13.77m5.95-13.77c-1.3 3.32-2.8 7.28-5.95 13.77m0 0q0 0 0 0m0 0q0 0 0 0"/></g><text fill="#1864ab" dominant-baseline="text-before-edge" font-family="Helvetica, Segoe UI Emoji" font-size="20" style="white-space:pre" transform="translate(718.899 465.166)">容器还没结束...</text><g stroke-linecap="round"><path fill="none" stroke="#c92a2a" d="M710.137 578.673c-.15-9.11.88-45.3.8-54.37m.94 56.43c-.33-9.4-1.7-48.49-1.65-58.25"/><path fill="#c92a2a" fill-rule="evenodd" stroke-width="0" d="m708.467 520.723 6.84 16.9-12.1.43 7.61-17.06"/><path fill="none" stroke="#c92a2a" d="M710.227 522.483c1 5.57 5.48 8.95 6.58 13.48m-6.58-13.48c2.38 4.06 4.02 9.69 6.58 13.48m0 0c-4 .48-9-.41-12.67.23m12.67-.23c-3.45-.49-6.69.33-12.67.23m0 0c.92-2.94 4.02-5.43 6.09-13.71m-6.09 13.71c.87-3.23 2.38-5.78 6.09-13.71m0 0q0 0 0 0m0 0q0 0 0 0"/></g><text fill="#c92a2a" dominant-baseline="text-before-edge" font-family="Helvetica, Segoe UI Emoji" font-size="20" style="white-space:pre" transform="translate(726.575 562.376)">这个时候就会发送一个sigkill信号</text><text y="23" fill="#c92a2a" dominant-baseline="text-before-edge" font-family="Helvetica, Segoe UI Emoji" font-size="20" style="white-space:pre" transform="translate(726.575 562.376)">将容器直接杀死,可能导致数据丢失</text><path fill="#5c940d" d="m115 703.757 2.95.04q2.95.03 18.15.06 15.2.02 33.25.04t54.81.03q36.76.02 67.99.02l64.47.02q33.24.01 72.04.01 38.79.01 71.19.01 32.4.01 50.32.01h36.21q18.29 0 31.41.01h75.23q2.82 0 4.41-.09 1.59-.1 2.8-.21 1.22-.11 2.88-.29 1.67-.18 3.74-.25 2.08-.07 2.43-.01.36.06.68.23.31.17.56.43t.4.59q.15.32.19.68.04.35-.04.7t-.26.66q-.19.31-.46.54-.28.23-.61.37-.33.13-.69.15t-.71-.08q-.35-.09-.65-.29-.29-.21-.51-.49-.22-.29-.33-.63-.12-.34-.12-.7 0-.35.12-.69.11-.34.33-.63t.51-.49q.3-.2.65-.3.35-.09.71-.07.36.01.69.15.33.13.61.36.27.24.46.55.18.3.26.66.08.35.04.7t-.19.68-.4.59-.57.43q-.31.17-.67.23l-.35.05-2.08-.06q-2.07-.07-3.74-.25-1.66-.18-2.88-.29-1.21-.11-2.8-.21t-4.41-.1h-15.04q-5.48.01-13.43.01h-78.17q-18.28.01-36.21.01h-50.32q-32.4.01-71.19.01-38.8.01-72.04.01l-64.47.02-67.99.02-54.81.03q-18.05.02-33.25.05-15.2.02-18.15.05-2.95.04-3.13.01-.19-.02-.37-.09-.17-.06-.33-.17-.15-.11-.28-.25-.12-.14-.21-.3-.09-.17-.13-.35-.05-.19-.05-.37t.05-.37q.04-.18.13-.35.09-.16.21-.3.13-.14.28-.25.16-.11.34-.18.17-.06.36-.08z"/><g stroke-linecap="round"><path fill="none" stroke="#e67700" d="M116.69 750.667c-.25-7.98-1.04-40.09-1.34-47.96m2.06 47.65c-.27-7.94-1.89-39.18-2.4-47.15"/><path fill="#e67700" fill-rule="evenodd" stroke-width="0" d="m115.31 702.457 7.57 14.86-13.91.09 5.9-13.95"/><path fill="none" stroke="#e67700" d="M115.01 703.207c2.13 3.35 2.78 5.79 7.1 13.21m-7.1-13.21c2.79 4.87 5.25 9.48 7.1 13.21m0 0c-3.16-.01-6.89.22-12.66.72m12.66-.72c-4.52.1-8.39.69-12.66.72m0 0c2.15-5.45 3.87-10.36 5.56-13.93m-5.56 13.93c1.99-4.61 3.45-9.08 5.56-13.93m0 0q0 0 0 0m0 0q0 0 0 0"/></g><text dominant-baseline="text-before-edge" font-family="Helvetica, Segoe UI Emoji" font-size="20" style="white-space:pre" transform="translate(11.026 763.181)">preStop开始</text><g stroke-linecap="round"><path fill="none" stroke="#e67700" d="M711.662 764.536c-.35-8.42-.88-43.36-1.06-52.1m2.94 51.44c-.48-8.68-3-44.19-3.57-53.17"/><path fill="#e67700" fill-rule="evenodd" stroke-width="0" d="m709.012 711.256 7.92 13.09-11.9.78 4.24-16.06"/><path fill="none" stroke="#e67700" d="M709.972 710.706c3.24 5.18 5.67 9.57 7.24 13.14m-7.24-13.14c2.09 4.1 4.4 8.81 7.24 13.14m0 0c-3.08-.6-7.48-.73-12.65.85m12.65-.85c-2.9-.22-6.12.58-12.65.85m0 0c1.74-5.07 3.19-6.57 5.41-13.99m-5.41 13.99c1.19-3.79 2.86-6.81 5.41-13.99m0 0q0 0 0 0m0 0q0 0 0 0"/></g><text dominant-baseline="text-before-edge" font-family="Helvetica, Segoe UI Emoji" font-size="20" style="white-space:pre" transform="translate(552.228 773.968)">preStop 还没结束</text><g stroke-linecap="round"><path fill="none" stroke="#c92a2a" d="M711.016 645.491c.14 8.62.88 43.44.87 52.05m-2.01-52.88c-.04 8.75 1.22 45.43 1.23 54.36"/><path fill="#c92a2a" fill-rule="evenodd" stroke-width="0" d="m711.576 699.451-7.79-15.54 13.48 1.14-6.65 13.61"/><path fill="none" stroke="#c92a2a" d="M711.106 699.021c-1.88-4.29-4.86-10.15-6.61-13.47m6.61 13.47c-1.81-4.16-3.47-6.76-6.61-13.47m0 0c2.52.26 6.92.84 12.68-.25m-12.68.25c2.46-.28 5.36.01 12.68-.25m0 0c-1.74 2.04-3.04 4.91-6.07 13.72m6.07-13.72c-2.25 4.05-3.16 7.86-6.07 13.72m0 0q0 0 0 0m0 0q0 0 0 0"/></g><text fill="#c92a2a" dominant-baseline="text-before-edge" font-family="Helvetica, Segoe UI Emoji" font-size="20" style="white-space:pre" transform="translate(719.786 645.543)">根据测试发现是会先发送sigterm 信号</text></svg>