<svg xmlns="http://www.w3.org/2000/svg" width="892" height="433" preserveAspectRatio="none" style="width:892px;height:433px;background:#eeebdc"><path fill="#EEEBDC" d="M0 0h892v433H0z" style="stroke:none;stroke-width:1"/><text x="419" y="27.995" font-family="sans-serif" font-size="14" font-weight="bold" textLength="56">对称加密</text><path d="M24 118.594v308.265M103 118.594v308.265M444.5 118.594v308.265" style="stroke:#181818;stroke-width:.5;stroke-dasharray:5,5"/><text x="5" y="115.292" font-family="sans-serif" font-size="14" textLength="32">User</text><circle cx="24" cy="50.797" r="8" fill="#E2E2F0" style="stroke:#181818;stroke-width:.5"/><path fill="none" d="M24 58.797v27m-13-19h26m-13 19-13 15m13-15 13 15" style="stroke:#181818;stroke-width:.5"/><rect width="62" height="32.625" x="72" y="84.969" fill="#E2E2F0" rx="2.5" ry="2.5" style="stroke:#181818;stroke-width:.5"/><text x="79" y="106.82" font-family="sans-serif" font-size="16" font-weight="bold" textLength="48">浏览器</text><rect width="83" height="32.625" x="403.5" y="84.969" fill="#E2E2F0" rx="2.5" ry="2.5" style="stroke:#181818;stroke-width:.5"/><text x="410.5" y="106.82" font-family="sans-serif" font-size="16" font-weight="bold" textLength="69">web服务</text><path fill="#00BFFF" d="m91 146.89 10 4-10 4z" style="stroke:#00bfff;stroke-width:1"/><path d="M24 150.891h73" style="stroke:#00bfff;stroke-width:1"/><text x="31" y="145.589" font-family="sans-serif" font-size="14" textLength="55">输入URL</text><path fill="#00BFFF" d="m433 188.336 10 4-10 4z" style="stroke:#00bfff;stroke-width:1"/><path d="M103 192.336h336" style="stroke:#00bfff;stroke-width:1"/><text x="110" y="187.034" font-family="sans-serif" font-size="14" textLength="210">发送我这个浏览器支持的加密算法</text><path fill="#FEFFDD" d="M450 163.89v42h301v-32l-10-10H450" style="stroke:#181818;stroke-width:.5"/><path fill="#FEFFDD" d="M741 163.89v10h10l-10-10" style="stroke:#181818;stroke-width:.5"/><text x="456" y="181.886" font-family="sans-serif" font-size="14" textLength="280">浏览器不能自个随便用一个加密算法直接加密</text><text x="456" y="198.183" font-family="sans-serif" font-size="14" textLength="126">需要先和服务器协商</text><path fill="#00BFFF" d="m114 246.078-10 4 10 4z" style="stroke:#00bfff;stroke-width:1"/><path d="M108 250.078h336" style="stroke:#00bfff;stroke-width:1"/><text x="120" y="228.48" font-family="sans-serif" font-size="14" textLength="224">服务器通过比对自己支持的加密算法</text><text x="120" y="244.776" font-family="sans-serif" font-size="14" textLength="157">返回一个大家都ok的算法</text><path fill="#FEFFDD" d="M450 221.633v26h313v-16l-10-10H450" style="stroke:#181818;stroke-width:.5"/><path fill="#FEFFDD" d="M753 221.633v10h10l-10-10" style="stroke:#181818;stroke-width:.5"/><text x="456" y="239.628" font-family="sans-serif" font-size="14" textLength="292">这个算法因为明文如果被黑客拦截就会被知道...</text><path fill="#00BFFF" d="m433 311.969 10 4-10 4z" style="stroke:#00bfff;stroke-width:1"/><path d="M103 315.969h336" style="stroke:#00bfff;stroke-width:1"/><text x="110" y="294.37" font-family="sans-serif" font-size="14" textLength="318">使用这个加密算法,加上自己生成的随机密钥(salt盐)</text><text x="110" y="310.667" font-family="sans-serif" font-size="14" textLength="210">加密数据和随机密钥发送给服务端</text><path fill="#FEFFDD" d="M450 263.078v75h435v-65l-10-10H450" style="stroke:#181818;stroke-width:.5"/><path fill="#FEFFDD" d="M875 263.078v10h10l-10-10" style="stroke:#181818;stroke-width:.5"/><text x="456" y="281.073" font-family="sans-serif" font-size="14" textLength="344">本身来说加密的数据,如果在随机密钥不被知道的情况下,</text><text x="456" y="297.37" font-family="sans-serif" font-size="14" textLength="414">即使被截取也无法解密,但是你这个随机数本身就没法保障不被拦截.</text><text x="456" y="313.667" font-family="sans-serif" font-size="14" textLength="399">题外话: 随机密钥肯定让客户端来生成, 如果服务端给客户端下发,</text><text x="456" y="329.964" font-family="sans-serif" font-size="14" textLength="262">100万个连接服务端就需要生成100万个...</text><path d="M445 365.563h42M487 365.563v13M446 378.563h41" style="stroke:#00bfff;stroke-width:1"/><path fill="#00BFFF" d="m456 374.563-10 4 10 4z" style="stroke:#00bfff;stroke-width:1"/><text x="452" y="360.261" font-family="sans-serif" font-size="14" textLength="56">解密数据</text><path fill="#00BFFF" d="m114 404.86-10 4 10 4z" style="stroke:#00bfff;stroke-width:1"/><path d="M108 408.859h336" style="stroke:#00bfff;stroke-width:1"/><text x="120" y="403.558" font-family="sans-serif" font-size="14" textLength="215">将请求的结果加密,发送给Browser</text></svg>