<svg xmlns="http://www.w3.org/2000/svg" preserveAspectRatio="xMinYMin meet" viewBox="0 0 434 455"><svg id="d2-svg" width="434" height="455" class="d2-1414393355" viewBox="-101 -101 434 455"><rect width="434" height="455" x="-101" y="-101" stroke-width="0" rx="0" style="fill:#fff"/><style>.d2-1414393355 .text-bold{font-family:&quot;d2-1414393355-font-bold&quot;}@font-face{font-family:d2-1414393355-font-bold;src:url(/stylesheets/font/Virgil-hand.woff2)}.d2-1414393355 .text-italic{font-family:&quot;d2-1414393355-font-italic&quot;}@font-face{font-family:d2-1414393355-font-italic;src:url(/stylesheets/font/Virgil-hand.woff2)}.connection,.shape{stroke-linejoin:round}.shape{shape-rendering:geometricPrecision}.connection{stroke-linecap:round}.d2-1414393355 .fill-N1{fill:#0a0f25}.d2-1414393355 .fill-N2{fill:#676c7e}.d2-1414393355 .fill-B6{fill:#f7f8fe}.d2-1414393355 .stroke-B1{stroke:#0d32b2}</style><g id="lady 1"><g class="shape"><path d="M0 0h86v66H0z" class="stroke-B1 fill-B6" style="stroke-width:2"/></g><text x="43" y="38.5" class="text-bold fill-N1" style="text-anchor:middle;font-size:16px">lady 1</text></g><g id="lady 2"><g class="shape"><path d="M146 0h86v66h-86z" class="stroke-B1 fill-B6" style="stroke-width:2"/></g><text x="189" y="38.5" class="text-bold fill-N1" style="text-anchor:middle;font-size:16px">lady 2</text></g><g id="barbie"><g class="shape"><path d="M71 187h90v66H71z" class="stroke-B1 fill-B6" style="stroke-width:2"/></g><text x="116" y="225.5" class="text-bold fill-N1" style="text-anchor:middle;font-size:16px">barbie</text></g><g id="(lady 1 -&gt; barbie)[0]"><marker id="mk-1323777345" markerHeight="12" markerUnits="userSpaceOnUse" markerWidth="10" orient="auto" refX="7" refY="6" viewBox="0 0 10 12"><path fill="pink" stroke-width="2" d="m0 0 10 6-10 6z" class="connection"/></marker><path fill="none" stroke="pink" marker-end="url(#mk-1323777345)" d="M43 67.5c0 46.8 9.4 71.2 44.559 116.831" class="connection" mask="url(#d2-1414393355)" style="stroke-width:2"/><text x="50.5" y="138" class="text-italic fill-N2" style="text-anchor:middle;font-size:16px">hi barbie</text></g><g id="(lady 2 -&gt; barbie)[0]"><path fill="none" stroke="pink" marker-end="url(#mk-1323777345)" d="M189 67.5c0 46.8-9.4 71.2-44.559 116.831" class="connection" mask="url(#d2-1414393355)" style="stroke-width:2"/><text x="181.5" y="138" class="text-italic fill-N2" style="text-anchor:middle;font-size:16px">hi barbie</text></g><mask id="d2-1414393355" width="434" height="455" x="-101" y="-101" maskUnits="userSpaceOnUse"><path fill="#fff" d="M-101-101h434v455h-434z"/><path fill="rgba(0,0,0,0.75)" d="M22.5 22.5h41v21h-41zM168.5 22.5h41v21h-41zM93.5 209.5h45v21h-45z"/><path d="M21 122h59v21H21zM152 122h59v21h-59z"/></mask></svg></svg>