<svg xmlns="http://www.w3.org/2000/svg" preserveAspectRatio="xMinYMin meet" viewBox="0 0 751 621"><svg id="d2-svg" width="751" height="621" class="d2-495917078" viewBox="0 0 751 621"><rect width="751" height="621" stroke-width="0" class="fill-N7" rx="0"/><style>@keyframes dashdraw{0%{stroke-dashoffset:0}}.d2-495917078 .text-mono{font-family:&quot;d2-495917078-font-mono&quot;}@font-face{font-family:d2-495917078-font-mono;src:url(/stylesheets/font/Virgil-hand.woff2)}.d2-495917078 .text-mono-bold{font-family:&quot;d2-495917078-font-mono-bold&quot;}@font-face{font-family:d2-495917078-font-mono-bold;src:url(/stylesheets/font/Virgil-hand.woff2)}.connection,.shape{stroke-linejoin:round}.shape{shape-rendering:geometricPrecision}.connection{stroke-linecap:round}.d2-495917078 .fill-N1{fill:#000410}.d2-495917078 .fill-B6,.d2-495917078 .fill-N7{fill:#fff}.d2-495917078 .stroke-B1,.d2-495917078 .stroke-B2{stroke:#000410}@media screen and (prefers-color-scheme:dark){.d2-495917078 .fill-N1{fill:#cdd6f4}.d2-495917078 .fill-N7{fill:#1e1e2e}.d2-495917078 .fill-B6{fill:#313244}.d2-495917078 .stroke-B1,.d2-495917078 .stroke-B2{stroke:#cba6f7}}.dots-overlay{fill:url(#dots);mix-blend-mode:multiply}</style><defs><pattern id="dots" width="15" height="15" x="0" y="0" patternUnits="userSpaceOnUse"><path fill="#0A0F25" d="M2 2h1v1H2zM12 2h1v1h-1zM12 12h1v1h-1zM2 12h1v1H2zM2 7h1v1H2zM12 7h1v1h-1zM7 2h1v1H7zM7 12h1v1H7zM7 7h1v1H7z" opacity=".1" style="mix-blend-mode:multiply"/></pattern></defs><defs><filter id="shadow-filter" width="200%" height="200%" x="-50%" y="-50%"><feGaussianBlur in="SourceGraphic" stdDeviation="1.7"/><feFlood flood-color="#3d4574" flood-opacity=".4" result="ShadowFeFlood"/><feComposite in="ShadowFeFlood" in2="SourceAlpha" operator="in" result="ShadowFeComposite"/><feOffset dx="3" dy="5" in="ShadowFeComposite" result="ShadowFeOffset"/><feBlend in="SourceGraphic" in2="ShadowFeOffset" result="ShadowFeBlend"/></filter></defs><g id="top-row" class="empty"><g class="shape"><path fill="transparent" d="M0 0h751v621H0z" class="stroke-B1" style="stroke-width:0"/><path d="M0 0h751v621H0z" class="dots-overlay" style="stroke-width:0"/><path fill="transparent" d="M5 5h741v611H5z" class="stroke-B1" style="stroke-width:0"/></g></g><g id="top-row.stack" class="empty"><g class="shape"><path fill="transparent" d="M60 96h231v465H60z" class="stroke-B1" style="stroke-width:0"/><path d="M60 96h231v465H60z" class="dots-overlay" style="stroke-width:0"/></g><text x="272" y="84" class="text-mono fill-N1" style="text-anchor:middle;font-size:24px">栈</text></g><g id="top-row.dot-container" class="empty"><g class="shape"><path fill="transparent" d="M331 60h220v501H331z" class="stroke-B1" style="stroke-width:0"/><path d="M331 60h220v501H331z" class="dots-overlay" style="stroke-width:0"/></g></g><g id="top-row.heap"><g class="shape" filter="url(#shadow-filter)"><path d="M591 96h100v465H591z" class="stroke-B1" style="fill:#f5f6f9;stroke-width:2"/><path d="M591 96h100v465H591z" class="dots-overlay" style="stroke-width:2"/></g><text x="641" y="84" class="text-mono fill-N1" style="text-anchor:middle;font-size:24px">堆</text></g><g id="top-row.stack.vec" class="label-container"><g class="shape"><path fill="transparent" d="M60 96h131v120H60z" class="stroke-B1" style="stroke-width:0"/></g><text x="171.5" y="206" class="text-mono-bold fill-N1" style="text-anchor:middle;font-size:16px">vec</text></g><g id="top-row.stack._vec" class="empty"><g class="shape" filter="url(#shadow-filter)"><path fill="transparent" d="M191 96h100v120H191z" class="stroke-B1" style="stroke-width:0"/><path d="M191 96h100v120H191z" class="dots-overlay" style="stroke-width:0"/></g></g><g id="top-row.stack.arr" class="label-container"><g class="shape"><path fill="transparent" d="M60 216h131v105H60z" class="stroke-B1" style="stroke-width:0"/></g><text x="171.5" y="311" class="text-mono-bold fill-N1" style="text-anchor:middle;font-size:16px">arr</text></g><g id="top-row.stack._arr" class="empty"><g class="shape"><path fill="transparent" d="M191 216h100v105H191z" class="stroke-B1" style="stroke-width:0"/><path d="M191 216h100v105H191z" class="dots-overlay" style="stroke-width:0"/></g></g><g id="top-row.stack.slice_vec" class="label-container"><g class="shape"><path fill="transparent" d="M60 321h131v120H60z" class="stroke-B1" style="stroke-width:0"/></g><text x="143" y="431" class="text-mono-bold fill-N1" style="text-anchor:middle;font-size:16px">slice_vec</text></g><g id="top-row.stack._slice_vec" class="empty"><g class="shape" filter="url(#shadow-filter)"><path fill="transparent" d="M191 321h100v120H191z" class="stroke-B1" style="stroke-width:0"/><path d="M191 321h100v120H191z" class="dots-overlay" style="stroke-width:0"/></g></g><g id="top-row.stack.slice_arr" class="label-container"><g class="shape"><path fill="transparent" d="M60 441h131v120H60z" class="stroke-B1" style="stroke-width:0"/></g><text x="143" y="551" class="text-mono-bold fill-N1" style="text-anchor:middle;font-size:16px">slice_arr</text></g><g id="top-row.stack._slice_arr" class="empty"><g class="shape" filter="url(#shadow-filter)"><path fill="transparent" d="M191 441h100v120H191z" class="stroke-B1" style="stroke-width:0"/><path d="M191 441h100v120H191z" class="dots-overlay" style="stroke-width:0"/></g></g><g id="top-row.dot-container.empty1" class="empty"><g class="shape"><path fill="transparent" d="M391 120h100v100H391z" class="stroke-B1" style="stroke-width:0"/></g></g><g id="top-row.dot-container.dot" class="empty"><g class="shape"><path fill="transparent" d="M391 260h100v70H391z" class="stroke-B1" style="stroke-width:0"/><path d="M391 260h100v70H391z" class="dots-overlay" style="stroke-width:0"/></g></g><g id="top-row.heap.pad0" class="invisible"><g class="shape"><path d="M591 96h100v20H591z" class="stroke-B1 fill-B6" style="stroke-width:2"/></g></g><g id="top-row.heap.pad1" class="invisible"><g class="shape"><path d="M591 116h100v20H591z" class="stroke-B1 fill-B6" style="stroke-width:2"/></g></g><g id="top-row.heap.pad2" class="invisible"><g class="shape"><path d="M591 136h100v20H591z" class="stroke-B1 fill-B6" style="stroke-width:2"/></g></g><g id="top-row.heap.pad3" class="invisible"><g class="shape"><path d="M591 156h100v20H591z" class="stroke-B1 fill-B6" style="stroke-width:2"/></g></g><g id="top-row.heap.5"><g class="shape"><path d="M591 176h100v21H591z" class="stroke-B1 fill-B6" style="stroke-width:2"/></g><text x="641" y="192" class="text-mono-bold fill-N1" style="text-anchor:middle;font-size:16px">5</text></g><g id="top-row.heap.4"><g class="shape"><path d="M591 197h100v21H591z" class="stroke-B1 fill-B6" style="stroke-width:2"/></g><text x="641" y="213" class="text-mono-bold fill-N1" style="text-anchor:middle;font-size:16px">4</text></g><g id="top-row.heap.3"><g class="shape"><path d="M591 218h100v21H591z" class="stroke-B1 fill-B6" style="stroke-width:2"/></g><text x="641" y="234" class="text-mono-bold fill-N1" style="text-anchor:middle;font-size:16px">3</text></g><g id="top-row.heap.2"><g class="shape"><path d="M591 239h100v21H591z" class="stroke-B1 fill-B6" style="stroke-width:2"/></g><text x="641" y="255" class="text-mono-bold fill-N1" style="text-anchor:middle;font-size:16px">2</text></g><g id="top-row.heap.1"><g class="shape"><path d="M591 260h100v21H591z" class="stroke-B1 fill-B6" style="stroke-width:2"/></g><text x="641" y="276" class="text-mono-bold fill-N1" style="text-anchor:middle;font-size:16px">1</text></g><g id="top-row.heap.pad4" class="invisible"><g class="shape"><path d="M591 281h100v20H591z" class="stroke-B1 fill-B6" style="stroke-width:2"/></g></g><g id="top-row.stack._vec.len"><g class="shape"><path fill="#f0fff0" d="M191 96h100v40H191z" class="stroke-B1" style="stroke-width:2"/></g><text x="241" y="121.5" class="text-mono-bold fill-N1" style="text-anchor:middle;font-size:16px">len</text></g><g id="top-row.stack._vec.ptr"><g class="shape"><path fill="#f0fff0" d="M191 136h100v40H191z" class="stroke-B1" style="stroke-width:2"/></g><text x="241" y="161.5" class="text-mono-bold fill-N1" style="text-anchor:middle;font-size:16px">ptr</text></g><g id="top-row.stack._vec.capacity"><g class="shape"><path fill="#f0fff0" d="M191 176h100v40H191z" class="stroke-B1" style="stroke-width:2"/></g><text x="241" y="201.5" class="text-mono-bold fill-N1" style="text-anchor:middle;font-size:16px">capacity</text></g><g id="top-row.stack._arr.&quot;...&quot;"><g class="shape"><path fill="transparent" d="M191 216h100v21H191z" class="stroke-B1" style="stroke-width:2"/></g><text x="241" y="232" class="text-mono-bold fill-N1" style="text-anchor:middle;font-size:16px">...</text></g><g id="top-row.stack._arr.4"><g class="shape"><path fill="#ffffe0" d="M191 237h100v21H191z" class="stroke-B1" style="stroke-width:2"/></g><text x="241" y="253" class="text-mono-bold fill-N1" style="text-anchor:middle;font-size:16px">4</text></g><g id="top-row.stack._arr.3"><g class="shape"><path fill="#ffffe0" d="M191 258h100v21H191z" class="stroke-B1" style="stroke-width:2"/></g><text x="241" y="274" class="text-mono-bold fill-N1" style="text-anchor:middle;font-size:16px">3</text></g><g id="top-row.stack._arr.2"><g class="shape"><path fill="#ffffe0" d="M191 279h100v21H191z" class="stroke-B1" style="stroke-width:2"/></g><text x="241" y="295" class="text-mono-bold fill-N1" style="text-anchor:middle;font-size:16px">2</text></g><g id="top-row.stack._arr.1"><g class="shape"><path fill="#ffffe0" d="M191 300h100v21H191z" class="stroke-B1" style="stroke-width:2"/></g><text x="241" y="316" class="text-mono-bold fill-N1" style="text-anchor:middle;font-size:16px">1</text></g><g id="top-row.stack._slice_vec.&quot;...&quot;"><g class="shape"><path fill="transparent" d="M191 321h100v40H191z" class="stroke-B1" style="stroke-width:2"/></g><text x="241" y="346.5" class="text-mono-bold fill-N1" style="text-anchor:middle;font-size:16px">...</text></g><g id="top-row.stack._slice_vec.len"><g class="shape"><path d="M191 361h100v40H191z" class="stroke-B1 fill-N7" style="stroke-width:2"/></g><text x="241" y="386.5" class="text-mono-bold fill-N1" style="text-anchor:middle;font-size:16px">len</text></g><g id="top-row.stack._slice_vec.ptr"><g class="shape"><path fill="#f0fff0" d="M191 401h100v40H191z" class="stroke-B1" style="stroke-width:2"/></g><text x="241" y="426.5" class="text-mono-bold fill-N1" style="text-anchor:middle;font-size:16px">ptr</text></g><g id="top-row.stack._slice_arr.&quot;...&quot;"><g class="shape"><path fill="transparent" d="M191 441h100v40H191z" class="stroke-B1" style="stroke-width:2"/></g><text x="241" y="466.5" class="text-mono-bold fill-N1" style="text-anchor:middle;font-size:16px">...</text></g><g id="top-row.stack._slice_arr.len"><g class="shape"><path d="M191 481h100v40H191z" class="stroke-B1 fill-N7" style="stroke-width:2"/></g><text x="241" y="506.5" class="text-mono-bold fill-N1" style="text-anchor:middle;font-size:16px">len</text></g><g id="top-row.stack._slice_arr.ptr"><g class="shape"><path d="M191 521h100v40H191z" class="stroke-B1 fill-N7" style="stroke-width:2"/></g><text x="241" y="546.5" class="text-mono-bold fill-N1" style="text-anchor:middle;font-size:16px">ptr</text></g><g id="top-row.dot-container.dot.circle" class="shape"><circle cx="426" cy="295" r="5" class="shape stroke-B1" style="stroke-width:0"/></g><g id="top-row.(stack._vec.ptr -&gt; heap.1)[0]"><marker id="mk-2177206569" markerHeight="12" markerUnits="userSpaceOnUse" markerWidth="10" orient="auto" refX="7" refY="6" viewBox="0 0 10 12"><path stroke-width="2" d="m0 0 10 6-10 6z" class="connection" style="fill:#000410"/></marker><path fill="none" marker-end="url(#mk-2177206569)" d="m292.922 171.053 307.234 88.342" class="connection animated-connection stroke-B2" mask="url(#d2-495917078)" style="stroke-width:2;stroke-dasharray:6,5.919384;stroke-dashoffset:-119.193836;animation:dashdraw 2.959692s linear infinite"/></g><path id="top-row.(stack._slice_vec.ptr -&gt; heap.1)[0]" fill="none" marker-end="url(#mk-2177206569)" d="m292.87 401.791 316.39-119.874" class="connection animated-connection stroke-B2" mask="url(#d2-495917078)" style="stroke-width:2;stroke-dasharray:6,5.919384;stroke-dashoffset:-119.193836;animation:dashdraw 2.959692s linear infinite"/><path id="top-row.(stack._slice_arr.ptr -- dot-container.dot.circle)[0]" fill="none" d="M257.202 519.402 422.4 299.799" class="connection stroke-B1" mask="url(#d2-495917078)" style="stroke-width:2"/><g id="top-row.(dot-container.dot.circle -&gt; stack._arr.1)[0]"><marker id="mk-3488378134" markerHeight="12" markerUnits="userSpaceOnUse" markerWidth="10" orient="auto" refX="7" refY="6" viewBox="0 0 10 12"><path stroke-width="2" d="m0 0 10 6-10 6z" class="connection" style="fill:#000410"/></marker><path fill="none" marker-end="url(#mk-3488378134)" d="m420.004 295.084-125.018 10.579" class="connection stroke-B1" mask="url(#d2-495917078)" style="stroke-width:2"/></g><mask id="d2-495917078" width="751" height="621" x="0" y="0" maskUnits="userSpaceOnUse"><path fill="#fff" d="M0 0h751v621H0z"/><path fill="rgba(0,0,0,0.75)" d="M258 60h28v31h-28zM627 60h28v31h-28zM157 190h29v21h-29zM157 295h29v21h-29zM100 415h86v21h-86zM100 535h86v21h-86zM636.5 176h9v21h-9zM636.5 197h9v21h-9zM636.5 218h9v21h-9zM636.5 239h9v21h-9zM637 260h8v21h-8zM226.5 105.5h29v21h-29zM227 145.5h28v21h-28zM202.5 185.5h77v21h-77zM228.5 216h25v21h-25zM236.5 237h9v21h-9zM236.5 258h9v21h-9zM236.5 279h9v21h-9zM237 300h8v21h-8zM228.5 330.5h25v21h-25zM226.5 370.5h29v21h-29zM227 410.5h28v21h-28zM228.5 450.5h25v21h-25zM226.5 490.5h29v21h-29zM227 530.5h28v21h-28z"/></mask></svg></svg>