<svg xmlns="http://www.w3.org/2000/svg" width="571" height="622" preserveAspectRatio="none" style="width:571px;height:622px;background:#fff"><defs><filter id="a" width="300%" height="300%" x="-1" y="-1"><feGaussianBlur result="blurOut" stdDeviation="2"/><feColorMatrix in="blurOut" result="blurOut2" values="0 0 0 0 0 0 0 0 0 0 0 0 0 0 0 0 0 0 .4 0"/><feOffset dx="4" dy="4" in="blurOut2" result="blurOut3"/><feBlend in="SourceGraphic" in2="blurOut3"/></filter></defs><text x="499" y="19.282" fill="#888" font-family="sans-serif" font-size="10" textLength="52">made by x</text><text x="252.5" y="45.636" font-family="sans-serif" font-size="14" font-weight="bold" textLength="56">模式匹配</text><rect width="150" height="40.297" x="10" y="305.422" fill="#A8EB99" filter="url(#a)" rx="7.5" ry="7.5" style="stroke:#000;stroke-width:1"/><text x="22" y="330.417" font-family="sans-serif" font-size="14" textLength="126">模式匹配的组成部分</text><rect width="52" height="40.297" x="210" y="236.977" fill="#FBC" filter="url(#a)" rx="7.5" ry="7.5" style="stroke:#000;stroke-width:1"/><text x="222" y="261.972" font-family="sans-serif" font-size="14" textLength="28">模式</text><rect width="220" height="40.297" x="312" y="69.938" fill="#FBC" filter="url(#a)" rx="7.5" ry="7.5" style="stroke:#000;stroke-width:1"/><text x="324" y="94.933" font-family="sans-serif" font-size="14" textLength="196">一个模式表示描述某种数据结构</text><path fill="none" d="M262 257.125h10c15 0 15-167.04 30-167.04h10" style="stroke:red;stroke-width:1;stroke-dasharray:5,5"/><rect width="66" height="40.297" x="312" y="267.125" fill="#FFFFE0" filter="url(#a)" rx="7.5" ry="7.5" style="stroke:#000;stroke-width:1"/><text x="324" y="292.12" font-family="sans-serif" font-size="14" textLength="42">可以是</text><rect width="94" height="40.297" x="428" y="130.234" fill="#FFFFE0" filter="url(#a)" rx="7.5" ry="7.5" style="stroke:#000;stroke-width:1"/><text x="440" y="155.23" font-family="sans-serif" font-size="14" textLength="70">简单的变量</text><path fill="none" d="M378 287.273h10c15 0 15-136.89 30-136.89h10" style="stroke:green;stroke-width:1;stroke-dasharray:5,5"/><rect width="108" height="56.594" x="428" y="190.531" fill="#FFFFE0" filter="url(#a)" rx="7.5" ry="7.5" style="stroke:#000;stroke-width:1"/><text x="461" y="215.526" font-family="sans-serif" font-size="14" textLength="42">字面量</text><text x="440" y="231.823" font-family="sans-serif" font-size="14" textLength="66">(比如数字:</text><text x="506" y="231.823" font-family="sans-serif" font-size="14" textLength="4"> </text><text x="510" y="231.823" font-family="sans-serif" font-size="14" textLength="14">3)</text><path fill="none" d="M378 287.273h10c15 0 15-68.445 30-68.445h10" style="stroke:green;stroke-width:1;stroke-dasharray:5,5"/><rect width="122" height="56.594" x="428" y="267.125" fill="#FFFFE0" filter="url(#a)" rx="7.5" ry="7.5" style="stroke:#000;stroke-width:1"/><text x="440" y="292.12" font-family="sans-serif" font-size="14" textLength="98">复杂的数据结构</text><text x="449" y="308.417" font-family="sans-serif" font-size="14" textLength="80">(比如结构体)</text><path fill="none" d="M378 287.273h10c15 0 15 8.149 30 8.149h10" style="stroke:green;stroke-width:1;stroke-dasharray:5,5"/><rect width="66" height="40.297" x="428" y="343.719" fill="#FFFFE0" filter="url(#a)" rx="7.5" ry="7.5" style="stroke:#000;stroke-width:1"/><text x="440" y="368.714" font-family="sans-serif" font-size="14" textLength="42">通配符</text><path fill="none" d="M378 287.273h10c15 0 15 76.594 30 76.594h10" style="stroke:green;stroke-width:1;stroke-dasharray:5,5"/><rect width="124" height="40.297" x="428" y="404.016" fill="#FFFFE0" filter="url(#a)" rx="7.5" ry="7.5" style="stroke:#000;stroke-width:1"/><text x="440" y="429.011" font-family="sans-serif" font-size="14" textLength="42">占位符</text><text x="482" y="429.011" font-family="sans-serif" font-size="14" textLength="4"> </text><text x="486" y="429.011" font-family="sans-serif" font-size="14" textLength="38">(比如:</text><text x="524" y="429.011" font-family="sans-serif" font-size="14" textLength="4"> </text><text x="528" y="429.011" font-family="sans-serif" font-size="14" textLength="12">_)</text><path fill="none" d="M378 287.273h10c15 0 15 136.891 30 136.891h10" style="stroke:green;stroke-width:1;stroke-dasharray:5,5"/><path fill="none" d="M262 257.125h10c15 0 15 30.148 30 30.148h10" style="stroke:red;stroke-width:1;stroke-dasharray:5,5"/><path fill="none" d="M160 325.57h10c15 0 15-68.445 30-68.445h10" style="stroke:green;stroke-width:1;stroke-dasharray:5,5"/><rect width="38" height="40.297" x="210" y="464.313" fill="gold" filter="url(#a)" rx="7.5" ry="7.5" style="stroke:#000;stroke-width:1"/><text x="222" y="489.308" font-family="sans-serif" font-size="14" textLength="14">值</text><rect width="206" height="40.297" x="298" y="464.313" fill="gold" filter="url(#a)" rx="7.5" ry="7.5" style="stroke:#000;stroke-width:1"/><text x="310" y="489.308" font-family="sans-serif" font-size="14" textLength="182">要与模式进行匹配的实际数据</text><path fill="none" d="M248 484.46h50" style="stroke:red;stroke-width:1;stroke-dasharray:5,5"/><path fill="none" d="M160 325.57h10c15 0 15 158.89 30 158.89h10" style="stroke:green;stroke-width:1;stroke-dasharray:5,5"/><rect width="52" height="40.297" x="210" y="532.758" fill="#E0FFFF" filter="url(#a)" rx="7.5" ry="7.5" style="stroke:#000;stroke-width:1"/><text x="222" y="557.753" font-family="sans-serif" font-size="14" textLength="28">绑定</text><rect width="192" height="56.594" x="312" y="524.609" fill="#E0FFFF" filter="url(#a)" rx="7.5" ry="7.5" style="stroke:#000;stroke-width:1"/><text x="364" y="549.605" font-family="sans-serif" font-size="14" textLength="88">当匹配成功后,</text><text x="324" y="565.901" font-family="sans-serif" font-size="14" textLength="168">会将相关的值绑定到变量上</text><path fill="none" d="M262 552.906h50" style="stroke:red;stroke-width:1;stroke-dasharray:5,5"/><path fill="none" d="M160 325.57h10c15 0 15 227.336 30 227.336h10" style="stroke:green;stroke-width:1;stroke-dasharray:5,5"/><text x="267" y="605.198" font-family="sans-serif" font-size="14" textLength="27">图 1</text></svg>