<svg xmlns="http://www.w3.org/2000/svg" width="921.017" height="707.529"><defs><style>@font-face{font-family:&quot;Virgil&quot;;src:url(https://unpkg.com/@excalidraw/excalidraw@undefined/dist/excalidraw-assets/Virgil.woff2)}@font-face{font-family:&quot;Cascadia&quot;;src:url(https://unpkg.com/@excalidraw/excalidraw@undefined/dist/excalidraw-assets/Cascadia.woff2)}@font-face{font-family:&quot;Assistant&quot;;src:url(https://unpkg.com/@excalidraw/excalidraw@undefined/dist/excalidraw-assets/Assistant-Regular.woff2)}</style></defs><path fill="#fff" d="M0 0h921.017v707.529H0z"/><g stroke-linecap="round"><path fill="none" stroke="#1e1e1e" stroke-width="2" d="M11.035 420.735c120.49-.6 602.2-3.16 722.6-3.73m-723.63 3.03c120.39-.44 602.76-1.32 723.29-1.55M705.125 428.805c10.57-1.74 18.84-5.53 28.17-10.32m-28.17 10.32c9.07-3.11 18.38-7.31 28.17-10.32"/><path fill="none" stroke="#1e1e1e" stroke-width="2" d="M705.085 408.285c10.67 5.19 18.95 8.34 28.21 10.2m-28.21-10.2c9 3.38 18.32 5.65 28.21 10.2"/></g><g stroke-linecap="round"><path fill="none" stroke="#1e1e1e" stroke-width="2" d="M368.311 697.526c-.8-106.61-4.07-532.32-5.18-638.95m4.33 637.86c-.94-106.46-3.62-529.94-4.76-636.22"/><path fill="none" stroke="#1e1e1e" stroke-width="2" d="M373.191 88.326c-4.16-8.58-7.53-21.37-10.49-28.11m10.49 28.11c-2.11-7.93-5.51-13.49-10.49-28.11M352.671 88.496c3.36-8.84 7.52-21.69 10.03-28.28m-10.03 28.28c2.99-7.97 4.69-13.58 10.03-28.28"/></g><text fill="#2f9e44" dominant-baseline="text-before-edge" font-family="Virgil, Segoe UI Emoji" font-size="36" style="white-space:pre" transform="translate(706.907 429.653)">X</text><text fill="#2f9e44" dominant-baseline="text-before-edge" font-family="Virgil, Segoe UI Emoji" font-size="36" style="white-space:pre" transform="translate(386.51 50.066)">y</text><g stroke-linecap="round"><path fill="none" stroke="#f08c00" stroke-width="2" d="M365.012 417.154c-13.66-18.55-68.72-93.55-82.66-111.92m81.28 110.88c-13.72-18.39-68.03-91.4-81.89-109.93"/><path fill="#f08c00" fill-rule="evenodd" stroke-width="0" d="m283.502 305.654 12.65 7.46-12.42 6.3-1.27-14.98"/><path fill="none" stroke="#f08c00" stroke-width="2" d="M281.742 306.184c3.39 2.61 5.37 3.27 13.21 7.11m-13.21-7.11c5.27 2.69 9.51 5.53 13.21 7.11m0 0c-2.85 2.03-3.95 4.15-10.17 7.58m10.17-7.58c-2.37 1.69-5.6 3.49-10.17 7.58m0 0c-.13-5.35-1.11-10.25-3.04-14.69m3.04 14.69c-.55-6.36-2.96-11.78-3.04-14.69m0 0q0 0 0 0m0 0q0 0 0 0"/></g><path fill="none" stroke="#f08c00" stroke-linecap="round" stroke-width="2" d="M324.632 410.108c-.03 2.72-.32 14.07-.43 16.83m-.08-15.9c-.13 2.55-.58 12.37-.42 15.07M287.293 411.614c-.11 2.88-.36 13.71-.25 16.49m1.18-16.83c.03 3.01-.09 14.56-.14 17.51"/><path fill="#f08c00" d="m359.753 381.585.89.04q.89.03 1.61.02.73 0 1.39-.01.67-.01 1.22-.03l1.11-.04q.55-.02 1.1-.06.55-.05 2.37-.03t2.04.07q.23.06.42.19.19.12.34.3.14.18.22.4.07.22.08.44 0 .23-.06.44-.07.22-.21.41-.13.19-.32.32t-.41.2q-.22.06-.45.06-.23-.01-.45-.09-.21-.08-.39-.23-.18-.14-.3-.34-.12-.19-.18-.42-.05-.22-.03-.44.02-.23.11-.44t.25-.38q.15-.17.36-.28.2-.11.42-.16.23-.04.46 0 .22.03.43.13.2.11.37.27.16.16.26.37t.13.43-.02.45q-.04.22-.16.42-.11.2-.28.35-.18.16-.39.25t-.44.1l-.23.02-1.69-.06q-1.7-.06-2.25-.11-.55-.04-1.1-.06l-1.11-.04q-.55-.02-1.22-.03-.66-.01-1.39-.01-.72-.01-1.61.02-.89.04-1.03.02-.15-.02-.29-.07-.14-.06-.27-.14-.12-.09-.22-.2t-.17-.24-.1-.28q-.04-.15-.04-.29t.04-.29q.03-.15.1-.28t.17-.24.22-.2q.13-.08.27-.14.14-.05.29-.07zM358.828 344.66l.79.02q.8.02 1.35.01.55-.02 1.36-.06l1.43-.07q.62-.03 1.38-.07t2.3-.04q1.54-.01 1.79.03.24.04.46.16t.39.3.28.4q.1.23.13.47.02.24-.03.48t-.18.45q-.13.22-.32.38t-.42.25-.47.1q-.25.02-.49-.05t-.44-.2q-.21-.14-.36-.34t-.23-.43q-.08-.24-.08-.48t.08-.48q.08-.23.23-.43t.36-.34q.2-.13.44-.2t.49-.05q.24.01.47.1t.42.25.32.38q.13.21.18.45t.03.48q-.03.24-.13.47-.11.22-.28.4t-.39.3-.46.16l-.25.04-1.54-.01q-1.54 0-2.3-.04t-1.38-.07l-1.43-.07q-.81-.04-1.36-.06-.55-.01-1.35.01-.79.02-.94 0-.16-.02-.31-.07-.15-.06-.28-.15t-.23-.21q-.11-.12-.18-.26t-.11-.29q-.04-.16-.04-.31t.04-.31q.04-.15.11-.29t.18-.26q.1-.12.23-.21t.28-.15q.15-.05.31-.07zM356.903 308.503l.71.01q.72.01 1.3 0 .59-.01 1.51-.04t1.53-.07q.6-.03 1.23-.02.64 0 1.28.03.65.03 1.27.05.62.01 2.14.05t1.78.08.49.16q.23.13.41.32t.29.42q.11.24.14.49.03.26-.03.52-.06.25-.19.47-.14.23-.34.4-.19.17-.44.26-.24.1-.5.11-.26.02-.51-.05-.26-.07-.47-.22-.22-.14-.38-.35t-.24-.46-.08-.51.08-.5.24-.45.38-.36q.21-.14.47-.21.25-.07.51-.06t.5.11q.25.1.45.27.19.17.33.39.13.22.19.48.06.25.03.51t-.14.49q-.11.24-.29.43t-.41.31-.49.17l-.26.04-1.97-.11q-1.97-.1-2.54-.15-.57-.04-1.45-.14t-1.48-.13q-.61-.04-1.53-.07t-1.51-.04q-.58-.01-1.3 0-.71.01-.86-.01-.16-.02-.31-.08-.15-.05-.28-.15-.13-.09-.24-.21-.1-.11-.18-.26-.07-.14-.11-.29-.04-.16-.04-.31t.04-.31q.04-.15.11-.29.08-.15.18-.27.11-.11.24-.2.13-.1.28-.15.15-.06.31-.08z"/><path fill="none" stroke="#f08c00" stroke-linecap="round" stroke-width="2" d="M443.166 408.862c-.05 2.56.28 12.85.37 15.53m.42-15.87c-.15 2.59-.77 13.86-.86 16.44M406.628 409.069c.09 2.8.11 14.5.17 17.31m-.85-16.25c.07 2.62.35 12.72.49 15.42"/><g stroke-linecap="round"><path fill="none" stroke="#1971c2" d="M367.127 416.165c6.76-5.39 33.82-26.95 40.59-32.34m-40.59 32.34c6.76-5.39 33.82-26.95 40.59-32.34"/><path fill="#1971c2" fill-rule="evenodd" stroke-width="0" d="m407.717 383.825-6.69 13.43-7.9-9.91z"/><path fill="none" stroke="#1971c2" d="M407.717 383.825c-1.97 3.97-3.95 7.93-6.69 13.43m6.69-13.43c-2.06 4.14-4.11 8.27-6.69 13.43m0 0c-2.19-2.75-4.39-5.51-7.9-9.91m7.9 9.91c-2.43-3.05-4.86-6.1-7.9-9.91m0 0c3.53-.85 7.05-1.7 14.59-3.52m-14.59 3.52c4.78-1.15 9.55-2.3 14.59-3.52m0 0q0 0 0 0m0 0q0 0 0 0"/></g><path fill="#f08c00" d="m362.244 526.343.89.04q.89.03 1.61.02.73 0 1.39-.01.67-.01 1.22-.03l1.11-.04q.55-.02 1.1-.06.55-.05 2.37-.03t2.04.07q.23.06.42.19.19.12.34.3.14.18.22.4.07.22.08.44 0 .23-.06.44-.07.22-.21.41-.13.19-.32.32t-.41.2q-.22.06-.45.06-.23-.01-.45-.09-.21-.08-.39-.23-.18-.14-.3-.34-.12-.19-.18-.42-.05-.22-.03-.44.02-.23.11-.44t.25-.38q.15-.17.36-.28.2-.11.42-.16.23-.04.46 0 .22.03.43.13.2.11.37.27.16.16.26.37t.13.43-.02.45q-.04.22-.16.42-.11.2-.28.35-.18.16-.39.25t-.44.1l-.23.02-1.69-.06q-1.7-.06-2.25-.11-.55-.04-1.1-.06l-1.11-.04q-.55-.02-1.22-.03-.66-.01-1.39-.01-.72-.01-1.61.02-.89.04-1.03.02-.15-.02-.29-.07-.14-.06-.27-.14-.12-.09-.22-.2t-.17-.24-.1-.28q-.04-.15-.04-.29t.04-.29q.03-.15.1-.28t.17-.24.22-.2q.13-.08.27-.14.14-.05.29-.07zM361.32 489.42l.79.02q.8.02 1.35.01.55-.02 1.36-.06l1.43-.07q.62-.03 1.38-.07t2.3-.04q1.54-.01 1.79.03.24.04.46.16t.39.3.28.4q.1.23.13.47.02.24-.03.48t-.18.45q-.13.22-.32.38t-.42.25-.47.1q-.25.02-.49-.05t-.44-.2q-.21-.14-.36-.34t-.23-.43q-.08-.24-.08-.48t.08-.48q.08-.23.23-.43t.36-.34q.2-.13.44-.2t.49-.05q.24.01.47.1t.42.25.32.38q.13.21.18.45t.03.48q-.03.24-.13.47-.11.22-.28.4t-.39.3-.46.16l-.25.04-1.54-.01q-1.54 0-2.3-.04t-1.38-.07l-1.43-.07q-.81-.04-1.36-.06-.55-.01-1.35.01-.79.02-.94 0-.16-.02-.31-.07-.15-.06-.28-.15t-.23-.21q-.11-.12-.18-.26t-.11-.29q-.04-.16-.04-.31t.04-.31q.04-.15.11-.29t.18-.26q.1-.12.23-.21t.28-.15q.15-.05.31-.07zM359.394 453.262l.71.01q.72.01 1.3 0 .59-.01 1.51-.04t1.53-.07q.6-.03 1.23-.02.64 0 1.28.03.65.03 1.27.05.62.01 2.14.05t1.78.08.49.16q.23.13.41.32t.29.42q.11.24.14.49.03.26-.03.52-.06.25-.19.47-.14.23-.34.4-.19.17-.44.26-.24.1-.5.11-.26.02-.51-.05-.26-.07-.47-.22-.22-.14-.38-.35t-.24-.46-.08-.51.08-.5.24-.45.38-.36q.21-.14.47-.21.25-.07.51-.06t.5.11q.25.1.45.27.19.17.33.39.13.22.19.48.06.25.03.51t-.14.49q-.11.24-.29.43t-.41.31-.49.17l-.26.04-1.97-.11q-1.97-.1-2.54-.15-.57-.04-1.45-.14t-1.48-.13q-.61-.04-1.53-.07t-1.51-.04q-.58-.01-1.3 0-.71.01-.86-.01-.16-.02-.31-.08-.15-.05-.28-.15-.13-.09-.24-.21-.1-.11-.18-.26-.07-.14-.11-.29-.04-.16-.04-.31t.04-.31q.04-.15.11-.29.08-.15.18-.27.11-.11.24-.2.13-.1.28-.15.15-.06.31-.08z"/><path fill="none" stroke="#f08c00" stroke-linecap="round" stroke-width="2" d="M524.847 408.07c.03 2.67.73 13.36.75 16.16m.11-15.16c-.02 2.76-.11 13.24-.29 15.72M488.688 408.906c.03 2.92-.54 14.5-.6 17.41m.19-16.36c-.04 2.8-.65 12.98-.68 15.58"/><path fill="#f08c00" d="m355.953 273.202.71.01q.72.01 1.3 0 .59-.01 1.51-.04t1.53-.07q.6-.03 1.23-.02.64 0 1.28.03.65.03 1.27.05.62.01 2.14.05t1.78.08.49.16q.23.13.41.32t.29.42q.11.24.14.49.03.26-.03.52-.06.25-.19.47-.14.23-.34.4-.19.17-.44.26-.24.1-.5.11-.26.02-.51-.05-.26-.07-.47-.22-.22-.14-.38-.35t-.24-.46-.08-.51.08-.5.24-.45.38-.36q.21-.14.47-.21.25-.07.51-.06t.5.11q.25.1.45.27.19.17.33.39.13.22.19.48.06.25.03.51t-.14.49q-.11.24-.29.43t-.41.31-.49.17l-.26.04-1.97-.11q-1.97-.1-2.54-.15-.57-.04-1.45-.14t-1.48-.13q-.61-.04-1.53-.07t-1.51-.04q-.58-.01-1.3 0-.71.01-.86-.01-.16-.02-.31-.08-.15-.05-.28-.15-.13-.09-.24-.21-.1-.11-.18-.26-.07-.14-.11-.29-.04-.16-.04-.31t.04-.31q.04-.15.11-.29.08-.15.18-.27.11-.11.24-.2.13-.1.28-.15.15-.06.31-.08z"/><g stroke-linecap="round"><path fill="none" stroke="#2f9e44" stroke-dasharray="8 9" stroke-width="1.5" d="M286.845 304.116c6.66-4.89 33.31-24.45 39.98-29.34"/><path fill="#2f9e44" fill-rule="evenodd" stroke-width="0" d="m326.825 274.776-7.21 13.15-7.5-10.22z"/><path fill="none" stroke="#2f9e44" stroke-width="1.5" d="M326.825 274.776c-2.01 3.66-4.01 7.32-7.21 13.15m0 0c-2.31-3.14-4.62-6.28-7.5-10.22m0 0c3.55-.71 7.11-1.41 14.71-2.93m0 0q0 0 0 0"/></g><text fill="#e03131" dominant-baseline="text-before-edge" font-family="Helvetica, Segoe UI Emoji" font-size="20" style="white-space:pre" transform="translate(258.538 302.931)">V</text><text fill="#e03131" dominant-baseline="text-before-edge" font-family="Helvetica, Segoe UI Emoji" font-size="20" style="white-space:pre" transform="translate(414.302 376.492)">W</text><g stroke-linecap="round"><path fill="none" stroke="#2f9e44" stroke-dasharray="1.5 8" stroke-width="2.5" d="M410.92 380.694c-14.04-18.32-71.22-90.85-85.13-108.7"/><path fill="#2f9e44" fill-rule="evenodd" stroke-width="0" d="m325.64 270.784 14.26 7.74-12.6 7.22-.98-13.71"/><path fill="none" stroke="#2f9e44" stroke-width="2.5" d="M325.79 271.994c2.8.8 7.48 4.99 13.38 6.79m0 0c-2.96 2.77-7.92 5.15-9.98 7.82m0 0c-.04-5-1.06-7.5-3.4-14.61m0 0q0 0 0 0"/></g><g stroke-linecap="round"><path fill="none" stroke="#e03131" stroke-width="4" d="M364.955 414.912c-6.76-23.72-33.81-118.6-40.57-142.32m40.57 142.32c-6.76-23.72-33.81-118.6-40.57-142.32"/><path fill="#e03131" fill-rule="evenodd" stroke-width="0" d="m324.385 272.592 9.82 11.34-12.19 3.47z"/><path fill="none" stroke="#e03131" stroke-width="4" d="M324.385 272.592c3.78 4.37 7.57 8.74 9.82 11.34m-9.82-11.34c3.23 3.74 6.47 7.47 9.82 11.34m0 0-12.19 3.47m12.19-3.47c-3.55 1.01-7.1 2.02-12.19 3.47m0 0c.79-4.98 1.59-9.96 2.37-14.81m-2.37 14.81c.85-5.31 1.7-10.63 2.37-14.81m0 0q0 0 0 0m0 0q0 0 0 0"/></g><path fill="none" stroke="#f08c00" stroke-linecap="round" stroke-width="2" d="M246.516 411.227c.02 2.76-.66 13.18-.65 15.77m.15-16.01c.24 2.6.85 12.41.92 15.13M208.957 411.673c.01 2.71.67 13.81.7 16.52m.14-16.91c-.06 2.75-.2 14.71-.37 17.55M172.686 410.237c.04 2.58-.44 13.07-.5 15.79m.04-16.32c-.03 2.63-.49 13.91-.53 16.83M135.278 410.703c-.06 2.84.07 14.37.13 17.29m.81-16.29c-.17 2.68-1.1 12.8-1.23 15.4M90.927 410.68c.07 2.8.3 13.56.26 16.27m-.91-16.67c.02 2.68.62 13.27.61 15.9M54.278 411.636c-.04 2.83-.53 14.07-.49 16.78m-.04-17.07c-.13 2.68-.61 13.46-.5 16.3"/><g stroke-linecap="round"><path fill="none" stroke="#1971c2" d="M367.078 417.384c28.37-19.92 141.85-99.62 170.22-119.54m-170.22 119.54c28.37-19.92 141.85-99.62 170.22-119.54"/><path fill="#1971c2" fill-rule="evenodd" stroke-width="0" d="m537.298 297.844-7.48 13-7.29-10.38z"/><path fill="none" stroke="#1971c2" d="M537.298 297.844c-2.61 4.53-5.22 9.06-7.48 13m7.48-13c-2.18 3.79-4.36 7.57-7.48 13m0 0c-2.46-3.49-4.91-6.98-7.29-10.38m7.29 10.38a4305 4305 0 0 1-7.29-10.38m0 0 14.77-2.62m-14.77 2.62c4.77-.84 9.55-1.69 14.77-2.62m0 0q0 0 0 0m0 0q0 0 0 0"/></g><g stroke-linecap="round"><path fill="none" stroke="#da77f2" stroke-width="4" d="M284.285 303.865c25.24-19.06 126.18-95.32 151.41-114.39m-151.41 114.39c25.24-19.06 126.18-95.32 151.41-114.39"/><path fill="#da77f2" fill-rule="evenodd" stroke-width="0" d="m435.695 189.475-7.02 13.25-7.64-10.11z"/><path fill="none" stroke="#da77f2" stroke-width="4" d="M435.695 189.475c-1.82 3.45-3.65 6.89-7.02 13.25m7.02-13.25c-1.59 3.01-3.19 6.02-7.02 13.25m0 0c-1.57-2.07-3.14-4.15-7.64-10.11m7.64 10.11c-2.14-2.82-4.27-5.64-7.64-10.11m0 0c4.59-.98 9.18-1.97 14.66-3.14m-14.66 3.14c4.63-.99 9.27-1.98 14.66-3.14m0 0q0 0 0 0m0 0q0 0 0 0"/></g><g stroke-linecap="round"><path fill="none" stroke="#e03131" stroke-width="4" d="M367.789 414.942c11.67-37.48 58.33-187.42 69.99-224.91m-69.99 224.91c11.67-37.48 58.33-187.42 69.99-224.91"/><path fill="#e03131" fill-rule="evenodd" stroke-width="0" d="m437.779 190.032 2.02 14.87-12.11-3.77z"/><path fill="none" stroke="#e03131" stroke-width="4" d="M437.779 190.032c.79 5.77 1.57 11.54 2.02 14.87m-2.02-14.87 2.02 14.87m0 0-12.11-3.77m12.11 3.77c-4.36-1.36-8.72-2.72-12.11-3.77m0 0c2.18-2.39 4.35-4.78 10.09-11.1m-10.09 11.1c2.62-2.88 5.24-5.76 10.09-11.1m0 0q0 0 0 0m0 0q0 0 0 0"/></g><text fill="#e03131" dominant-baseline="text-before-edge" font-family="Helvetica, Segoe UI Emoji" font-size="20" style="white-space:pre" transform="translate(478.8 183.27)">假设我们只对W进行缩放</text><text y="23" fill="#e03131" dominant-baseline="text-before-edge" font-family="Helvetica, Segoe UI Emoji" font-size="20" style="white-space:pre" transform="translate(478.8 183.27)">那么我们可以画出一条直线</text><text y="46" fill="#e03131" dominant-baseline="text-before-edge" font-family="Helvetica, Segoe UI Emoji" font-size="20" style="white-space:pre" transform="translate(478.8 183.27)">如果我们自由的缩放V和W</text><text y="69" fill="#e03131" dominant-baseline="text-before-edge" font-family="Helvetica, Segoe UI Emoji" font-size="20" style="white-space:pre" transform="translate(478.8 183.27)">则V和W的线性组合可得到这个二维上的每一个点</text><text fill="#da77f2" dominant-baseline="text-before-edge" font-family="Helvetica, Segoe UI Emoji" font-size="20" style="white-space:pre" transform="translate(427.844 154.713)">这条直线</text><g stroke-linecap="round"><path fill="none" stroke="#38d9a9" stroke-width="4" d="m367.529 421.81 138.89 142.55m-138.89-142.55 138.89 142.55"/><path fill="#38d9a9" fill-rule="evenodd" stroke-width="0" d="m506.419 564.36-14.03-5.32 9.08-8.84z"/><path fill="none" stroke="#38d9a9" stroke-width="4" d="M506.419 564.36c-4.71-1.79-9.42-3.57-14.03-5.32m14.03 5.32c-3.61-1.37-7.21-2.73-14.03-5.32m0 0c3.08-3 6.16-6 9.08-8.84m-9.08 8.84c3.47-3.38 6.93-6.75 9.08-8.84m0 0c1.84 5.26 3.68 10.52 4.95 14.16m-4.95-14.16c1.77 5.06 3.54 10.13 4.95 14.16m0 0q0 0 0 0m0 0q0 0 0 0"/></g><g stroke-linecap="round"><path fill="none" stroke="#ffd43b" stroke-width="4" d="M366.19 421.843c12.35 12.47 61.75 62.33 74.1 74.79m-74.1-74.79c12.35 12.47 61.75 62.33 74.1 74.79"/><path fill="#ffd43b" fill-rule="evenodd" stroke-width="0" d="m440.29 496.633-14.07-5.2 9-8.92z"/><path fill="none" stroke="#ffd43b" stroke-width="4" d="M440.29 496.633c-4.12-1.52-8.24-3.04-14.07-5.2m14.07 5.2c-4.25-1.57-8.5-3.14-14.07-5.2m0 0c1.9-1.88 3.8-3.76 9-8.92m-9 8.92c3.49-3.46 6.99-6.93 9-8.92m0 0c1.27 3.55 2.55 7.09 5.07 14.12m-5.07-14.12c1.66 4.62 3.32 9.24 5.07 14.12m0 0q0 0 0 0m0 0q0 0 0 0"/></g><text fill="#38d9a9" dominant-baseline="text-before-edge" font-family="Helvetica, Segoe UI Emoji" font-size="20" style="white-space:pre" transform="translate(493.679 523.692)">W</text><text fill="#ffd43b" dominant-baseline="text-before-edge" font-family="Helvetica, Segoe UI Emoji" font-size="20" style="white-space:pre" transform="translate(420.583 448.568)">V</text><text fill="#e03131" dominant-baseline="text-before-edge" font-family="Helvetica, Segoe UI Emoji" font-size="20" style="white-space:pre" transform="translate(553.61 499.128)">如果是这种情况</text><text y="23" fill="#e03131" dominant-baseline="text-before-edge" font-family="Helvetica, Segoe UI Emoji" font-size="20" style="white-space:pre" transform="translate(553.61 499.128)">V和W的线性组合的结果只能</text><text y="46" fill="#e03131" dominant-baseline="text-before-edge" font-family="Helvetica, Segoe UI Emoji" font-size="20" style="white-space:pre" transform="translate(553.61 499.128)">是一条通过原点(0,0) 的直线</text><text fill="#1e1e1e" dominant-baseline="text-before-edge" font-family="Helvetica, Segoe UI Emoji" font-size="20" style="white-space:pre" transform="translate(303.768 10)">向量的线性组合</text></svg>