<svg xmlns="http://www.w3.org/2000/svg" width="484" height="605" preserveAspectRatio="none" style="width:484px;height:605px;background:#fff"><rect width="89" height="194.672" x="76.5" y="246.08" fill="#F1F1F1" rx="2.5" ry="2.5" style="stroke:#181818;stroke-width:.5"/><circle cx="100.5" cy="262.08" r="11" fill="#B4A7E5" style="stroke:#181818;stroke-width:1"/><path d="M96.422 257.846v-2.157h7.39v2.157h-2.468v8.078h2.469v2.156h-7.391v-2.156h2.469v-8.078z"/><text x="116.5" y="266.927" font-family="sans-serif" font-size="14" font-style="italic" textLength="37">Store</text><path d="M77.5 278.08h87M77.5 286.08h87" style="stroke:#181818;stroke-width:.5"/><text x="82.5" y="303.075" font-family="sans-serif" font-size="14" textLength="37">Add()</text><text x="82.5" y="319.372" font-family="sans-serif" font-size="14" textLength="60">Update()</text><text x="82.5" y="335.669" font-family="sans-serif" font-size="14" textLength="56">Delete()</text><text x="82.5" y="351.966" font-family="sans-serif" font-size="14" textLength="33">List()</text><text x="82.5" y="368.263" font-family="sans-serif" font-size="14" textLength="66">ListKeys()</text><text x="82.5" y="384.56" font-family="sans-serif" font-size="14" textLength="35">Get()</text><text x="82.5" y="400.856" font-family="sans-serif" font-size="14" textLength="77">GetByKey()</text><text x="82.5" y="417.153" font-family="sans-serif" font-size="14" textLength="66">Replace()</text><text x="82.5" y="433.45" font-family="sans-serif" font-size="14" textLength="61">Resync()</text><rect width="162" height="162.078" x="315" y="7" fill="#F1F1F1" rx="2.5" ry="2.5" style="stroke:#181818;stroke-width:.5"/><circle cx="336.3" cy="23" r="11" fill="#B4A7E5" style="stroke:#181818;stroke-width:1"/><path d="M332.222 18.766v-2.157h7.39v2.157h-2.468v8.078h2.469V29h-7.391v-2.156h2.469v-8.078z"/><text x="351.7" y="27.847" font-family="sans-serif" font-size="14" font-style="italic" textLength="116">ThreadSafeStore</text><path d="M316 39h160" style="stroke:#181818;stroke-width:.5"/><text x="321" y="55.995" font-family="sans-serif" font-size="14" textLength="37">Add()</text><text x="321" y="72.292" font-family="sans-serif" font-size="14" textLength="60">Update()</text><text x="321" y="88.589" font-family="sans-serif" font-size="14" textLength="12">...</text><path d="M316 95.891h160" style="stroke:#181818;stroke-width:1;stroke-dasharray:1,2"/><text x="321" y="112.886" font-family="sans-serif" font-size="14" textLength="150">ListIndexFuncValues()</text><text x="321" y="129.183" font-family="sans-serif" font-size="14" textLength="64">ByIndex()</text><text x="321" y="145.48" font-family="sans-serif" font-size="14" textLength="94">GetIndexers()</text><text x="321" y="161.776" font-family="sans-serif" font-size="14" textLength="96">AddIndexers()</text><rect width="134" height="129.484" x="138" y="23.54" fill="#F1F1F1" rx="2.5" ry="2.5" style="stroke:#181818;stroke-width:.5"/><circle cx="177.75" cy="39.54" r="11" fill="#B4A7E5" style="stroke:#181818;stroke-width:1"/><path d="M173.672 35.306v-2.157h7.39v2.157h-2.468v8.078h2.469v2.156h-7.391v-2.156h2.469v-8.078z"/><text x="197.25" y="44.387" font-family="sans-serif" font-size="14" font-style="italic" textLength="47">Queue</text><path d="M139 55.54h132" style="stroke:#181818;stroke-width:.5"/><text x="144" y="72.535" font-family="sans-serif" font-size="14" textLength="101">interface Store</text><path d="M139 79.837h132" style="stroke:#181818;stroke-width:.5"/><text x="144" y="96.832" font-family="sans-serif" font-size="14" textLength="37">Pop()</text><text x="144" y="113.129" font-family="sans-serif" font-size="14" textLength="122">AddIfNotPresent()</text><text x="144" y="129.426" font-family="sans-serif" font-size="14" textLength="87">HasSynced()</text><text x="144" y="145.723" font-family="sans-serif" font-size="14" textLength="49">Close()</text><rect width="228" height="96.891" x="7" y="501.75" fill="#F1F1F1" rx="2.5" ry="2.5" style="stroke:#181818;stroke-width:.5"/><circle cx="95.75" cy="517.75" r="11" fill="orchid" style="stroke:#181818;stroke-width:1"/><path d="M95.234 518.313q-1.859-.704-2.515-1.47-.64-.78-.64-2.093 0-1.687 1.077-2.656 1.078-.969 2.953-.969.86 0 1.704.203.859.188 1.703.578v2.39q-.782-.562-1.61-.843-.812-.297-1.61-.297-.874 0-1.359.36-.468.359-.468 1.015 0 .516.344.86.343.328 1.437.734l1.063.406q1.484.547 2.187 1.453.719.907.719 2.282 0 1.875-1.11 2.797-1.109.921-3.359.921-.922 0-1.844-.218-.922-.22-1.781-.641v-2.531q.969.687 1.89 1.031.922.344 1.813.344.906 0 1.406-.407.5-.421.5-1.156 0-.562-.343-.968-.329-.422-.954-.672z"/><text x="116.25" y="522.597" font-family="sans-serif" font-size="14" textLength="42">cache</text><path d="M8 533.75h226" style="stroke:#181818;stroke-width:.5"/><text x="13" y="550.745" font-family="sans-serif" font-size="14" textLength="216">cacheStorage ThreadSafeStore</text><text x="13" y="567.042" font-family="sans-serif" font-size="14" textLength="121">keyFunc KeyFunc</text><path d="M8 574.344h226" style="stroke:#181818;stroke-width:1"/><text x="13" y="591.339" font-family="sans-serif" font-size="14" textLength="37">Add()</text><rect width="177" height="96.891" x="200.5" y="294.97" fill="#F1F1F1" rx="2.5" ry="2.5" style="stroke:#181818;stroke-width:.5"/><circle cx="251.75" cy="310.97" r="11" fill="orchid" style="stroke:#181818;stroke-width:1"/><path d="M251.234 311.533q-1.859-.704-2.515-1.47-.64-.78-.64-2.093 0-1.687 1.077-2.656 1.078-.969 2.953-.969.86 0 1.703.203.86.188 1.704.578v2.39q-.782-.562-1.61-.843-.812-.297-1.61-.297-.874 0-1.358.36-.47.359-.47 1.015 0 .516.345.86.343.328 1.437.734l1.063.406q1.484.547 2.187 1.453.719.907.719 2.282 0 1.875-1.11 2.797-1.109.921-3.359.921-.922 0-1.844-.218-.922-.22-1.781-.641v-2.531q.969.687 1.89 1.031.923.344 1.813.344.906 0 1.406-.406.5-.422.5-1.157 0-.562-.343-.968-.328-.422-.953-.672z"/><text x="272.25" y="315.817" font-family="sans-serif" font-size="14" textLength="66">DeltaFIFO</text><path d="M201.5 326.97h175" style="stroke:#181818;stroke-width:.5"/><text x="206.5" y="343.965" font-family="sans-serif" font-size="14" textLength="165">items map[string]Deltas</text><text x="206.5" y="360.262" font-family="sans-serif" font-size="14" textLength="98">queue []string</text><text x="206.5" y="376.559" font-family="sans-serif" font-size="14" textLength="121">keyFunc KeyFunc</text><path d="M201.5 383.861h175" style="stroke:#181818;stroke-width:.5"/><path fill="none" d="M137 67.04c-73.63 0-65.985 93.495-47.015 172.835" style="stroke:#181818;stroke-width:1"/><path fill="#181818" d="m91.38 245.71 1.797-9.683-2.96 4.82-4.82-2.96z" style="stroke:#181818;stroke-width:1"/><g fill="none"><path d="M121 459.11v42.2" style="stroke:#181818;stroke-width:1;stroke-dasharray:7,7"/><path d="m121 441.11-6 18h12z" style="stroke:#181818;stroke-width:1"/></g><path fill="none" d="M232.955 173.355c14.44 43.55 27.225 82.125 40.175 121.195" style="stroke:#181818;stroke-width:1;stroke-dasharray:7,7"/><path fill="none" d="m227.29 156.27-.03 18.974 11.39-3.777z" style="stroke:#181818;stroke-width:1"/><text x="248" y="212.147" font-family="sans-serif" font-size="13" textLength="94">实现Queue接口</text></svg>