<svg xmlns="http://www.w3.org/2000/svg" width="826" height="428" preserveAspectRatio="none" style="width:826px;height:428px;background:#eeebdc"><path fill="#EEEBDC" d="M0 0h826v428H0z" style="stroke:none;stroke-width:1"/><text x="337" y="27.995" font-family="sans-serif" font-size="14" font-weight="bold" textLength="154">非对称加密结合对称加密</text><path d="M24 118.594v302.672M103 118.594v302.672M406.5 118.594v302.672" style="stroke:#181818;stroke-width:.5;stroke-dasharray:5,5"/><text x="5" y="115.292" font-family="sans-serif" font-size="14" textLength="32">User</text><circle cx="24" cy="50.797" r="8" fill="#E2E2F0" style="stroke:#181818;stroke-width:.5"/><path fill="none" d="M24 58.797v27m-13-19h26m-13 19-13 15m13-15 13 15" style="stroke:#181818;stroke-width:.5"/><rect width="62" height="32.625" x="72" y="84.969" fill="#E2E2F0" rx="2.5" ry="2.5" style="stroke:#181818;stroke-width:.5"/><text x="79" y="106.82" font-family="sans-serif" font-size="16" font-weight="bold" textLength="48">浏览器</text><rect width="83" height="32.625" x="365.5" y="84.969" fill="#E2E2F0" rx="2.5" ry="2.5" style="stroke:#181818;stroke-width:.5"/><text x="372.5" y="106.82" font-family="sans-serif" font-size="16" font-weight="bold" textLength="69">web服务</text><path fill="#00BFFF" d="m91 146.89 10 4-10 4z" style="stroke:#00bfff;stroke-width:1"/><path d="M24 150.891h73" style="stroke:#00bfff;stroke-width:1"/><text x="31" y="145.589" font-family="sans-serif" font-size="14" textLength="55">输入URL</text><path fill="#00BFFF" d="m395 177.188 10 4-10 4z" style="stroke:#00bfff;stroke-width:1"/><path d="M103 181.188h298" style="stroke:#00bfff;stroke-width:1"/><text x="110" y="175.886" font-family="sans-serif" font-size="14" textLength="56">握手阶段</text><path fill="#00BFFF" d="m114 210.484-10 4 10 4z" style="stroke:#00bfff;stroke-width:1"/><path d="M108 214.484h298" style="stroke:#00bfff;stroke-width:1"/><text x="120" y="209.183" font-family="sans-serif" font-size="14" textLength="154">服务器发送公钥给浏览器</text><path fill="#FEFFDD" d="M412 194.188v26h147v-16l-10-10H412" style="stroke:#181818;stroke-width:.5"/><path fill="#FEFFDD" d="M549 194.188v10h10l-10-10" style="stroke:#181818;stroke-width:.5"/><text x="418" y="212.183" font-family="sans-serif" font-size="14" textLength="126">公钥可以被黑客获取</text><path fill="#00BFFF" d="m395 260.078 10 4-10 4z" style="stroke:#00bfff;stroke-width:1"/><path d="M103 264.078h298" style="stroke:#00bfff;stroke-width:1"/><text x="110" y="242.48" font-family="sans-serif" font-size="14" textLength="220">生成一个对称加密用的随机密钥(盐)</text><text x="110" y="258.776" font-family="sans-serif" font-size="14" textLength="280">接着用服务端发来的公钥加密后发送给服务端</text><path fill="#FEFFDD" d="M412 235.633v26h407v-16l-10-10H412" style="stroke:#181818;stroke-width:.5"/><path fill="#FEFFDD" d="M809 235.633v10h10l-10-10" style="stroke:#181818;stroke-width:.5"/><text x="418" y="253.628" font-family="sans-serif" font-size="14" textLength="386">即使被截取,由于黑客只有公钥,无法用公钥解密公钥加密的数据</text><path d="M407 294.375h42M449 294.375v13M408 307.375h41" style="stroke:#00bfff;stroke-width:1"/><path fill="#00BFFF" d="m418 303.375-10 4 10 4z" style="stroke:#00bfff;stroke-width:1"/><text x="414" y="289.073" font-family="sans-serif" font-size="14" textLength="214">使用私钥解密得到 对称加密的密钥</text><path fill="#00BFFF" d="m395 336.672 10 4-10 4z" style="stroke:#00bfff;stroke-width:1"/><path d="M103 340.672h298" style="stroke:#00bfff;stroke-width:1"/><text x="110" y="335.37" font-family="sans-serif" font-size="14" textLength="238">将请求用对称加密加密后发送给服务端</text><path fill="#FEFFDD" d="M412 320.375v26h391v-16l-10-10H412" style="stroke:#181818;stroke-width:.5"/><path fill="#FEFFDD" d="M793 320.375v10h10l-10-10" style="stroke:#181818;stroke-width:.5"/><text x="418" y="338.37" font-family="sans-serif" font-size="14" textLength="370">即使被黑客截取, 由于不知道 对称加密算法的密钥, 无法解密</text><path d="M407 390.266h42M449 390.266v13M408 403.266h41" style="stroke:#00bfff;stroke-width:1"/><path fill="#00BFFF" d="m418 399.266-10 4 10 4z" style="stroke:#00bfff;stroke-width:1"/><text x="414" y="368.667" font-family="sans-serif" font-size="14" textLength="266">使用之前浏览器发送的对称加密算法的密钥</text><text x="414" y="384.964" font-family="sans-serif" font-size="14" textLength="154">进行解密得到请求的数据</text></svg>