<svg xmlns="http://www.w3.org/2000/svg" width="1401" height="589" preserveAspectRatio="none" style="width:1401px;height:589px;background:#fff"><path fill="#C2F0FF" d="M0 0h175v28H0z" style="stroke:#c2f0ff;stroke-width:1"/><text x="36" y="18.847" font-family="sans-serif" font-size="14" font-weight="bold" textLength="103">APPLICATION</text><path fill="#F0F8FF" d="M0 28h175v28H0z" style="stroke:#f0f8ff;stroke-width:1"/><text x="51.5" y="46.847" font-family="sans-serif" font-size="14" font-weight="bold" textLength="72">AliceBlue</text><path fill="#FAEBD7" d="M0 56h175v28H0z" style="stroke:#faebd7;stroke-width:1"/><text x="34.5" y="74.847" font-family="sans-serif" font-size="14" font-weight="bold" textLength="106">AntiqueWhite</text><path fill="#0FF" d="M0 84h175v28H0z" style="stroke:#0ff;stroke-width:1"/><text x="67.5" y="102.847" font-family="sans-serif" font-size="14" font-weight="bold" textLength="40">Aqua</text><path fill="#7FFFD4" d="M0 112h175v28H0z" style="stroke:#7fffd4;stroke-width:1"/><text x="40.5" y="130.847" font-family="sans-serif" font-size="14" font-weight="bold" textLength="94">Aquamarine</text><path fill="azure" d="M0 140h175v28H0z" style="stroke:azure;stroke-width:1"/><text x="64" y="158.847" font-family="sans-serif" font-size="14" font-weight="bold" textLength="47">Azure</text><path fill="#FFC" d="M0 168h175v28H0z" style="stroke:#ffc;stroke-width:1"/><text x="50" y="186.847" font-family="sans-serif" font-size="14" font-weight="bold" textLength="75">BUSINESS</text><path fill="beige" d="M0 196h175v28H0z" style="stroke:beige;stroke-width:1"/><text x="65.5" y="214.847" font-family="sans-serif" font-size="14" font-weight="bold" textLength="44">Beige</text><path fill="bisque" d="M0 224h175v28H0z" style="stroke:bisque;stroke-width:1"/><text x="61" y="242.847" font-family="sans-serif" font-size="14" font-weight="bold" textLength="53">Bisque</text><path d="M0 252h175v28H0z" style="stroke:#000;stroke-width:1"/><text x="67" y="270.847" fill="#FFF" font-family="sans-serif" font-size="14" font-weight="bold" textLength="41">Black</text><path fill="#FFEBCD" d="M0 280h175v28H0z" style="stroke:#ffebcd;stroke-width:1"/><text x="22" y="298.847" font-family="sans-serif" font-size="14" font-weight="bold" textLength="131">BlanchedAlmond</text><path fill="#00F" d="M0 308h175v28H0z" style="stroke:#00f;stroke-width:1"/><text x="70.5" y="326.847" fill="#FFF" font-family="sans-serif" font-size="14" font-weight="bold" textLength="34">Blue</text><path fill="#8A2BE2" d="M0 336h175v28H0z" style="stroke:#8a2be2;stroke-width:1"/><text x="48" y="354.847" fill="#FFF" font-family="sans-serif" font-size="14" font-weight="bold" textLength="79">BlueViolet</text><path fill="brown" d="M0 364h175v28H0z" style="stroke:brown;stroke-width:1"/><text x="62" y="382.847" fill="#FFF" font-family="sans-serif" font-size="14" font-weight="bold" textLength="51">Brown</text><path fill="#DEB887" d="M0 392h175v28H0z" style="stroke:#deb887;stroke-width:1"/><text x="45" y="410.847" font-family="sans-serif" font-size="14" font-weight="bold" textLength="85">BurlyWood</text><path fill="#5F9EA0" d="M0 420h175v28H0z" style="stroke:#5f9ea0;stroke-width:1"/><text x="47.5" y="438.847" font-family="sans-serif" font-size="14" font-weight="bold" textLength="80">CadetBlue</text><path fill="#7FFF00" d="M0 448h175v28H0z" style="stroke:#7fff00;stroke-width:1"/><text x="43" y="466.847" font-family="sans-serif" font-size="14" font-weight="bold" textLength="89">Chartreuse</text><path fill="#D2691E" d="M0 476h175v28H0z" style="stroke:#d2691e;stroke-width:1"/><text x="48" y="494.847" fill="#FFF" font-family="sans-serif" font-size="14" font-weight="bold" textLength="79">Chocolate</text><path fill="coral" d="M0 504h175v28H0z" style="stroke:coral;stroke-width:1"/><text x="67" y="522.847" font-family="sans-serif" font-size="14" font-weight="bold" textLength="41">Coral</text><path fill="#6495ED" d="M0 532h175v28H0z" style="stroke:#6495ed;stroke-width:1"/><text x="26" y="550.847" font-family="sans-serif" font-size="14" font-weight="bold" textLength="123">CornflowerBlue</text><path fill="#FFF8DC" d="M0 560h175v28H0z" style="stroke:#fff8dc;stroke-width:1"/><text x="55.5" y="578.847" font-family="sans-serif" font-size="14" font-weight="bold" textLength="64">Cornsilk</text><path fill="#DC143C" d="M175 0h175v28H175z" style="stroke:#dc143c;stroke-width:1"/><text x="230" y="18.847" fill="#FFF" font-family="sans-serif" font-size="14" font-weight="bold" textLength="65">Crimson</text><path fill="#0FF" d="M175 28h175v28H175z" style="stroke:#0ff;stroke-width:1"/><text x="243" y="46.847" font-family="sans-serif" font-size="14" font-weight="bold" textLength="39">Cyan</text><path fill="#00008B" d="M175 56h175v28H175z" style="stroke:#00008b;stroke-width:1"/><text x="227.5" y="74.847" fill="#FFF" font-family="sans-serif" font-size="14" font-weight="bold" textLength="70">DarkBlue</text><path fill="#008B8B" d="M175 84h175v28H175z" style="stroke:#008b8b;stroke-width:1"/><text x="225" y="102.847" fill="#FFF" font-family="sans-serif" font-size="14" font-weight="bold" textLength="75">DarkCyan</text><path fill="#B8860B" d="M175 112h175v28H175z" style="stroke:#b8860b;stroke-width:1"/><text x="201.5" y="130.847" font-family="sans-serif" font-size="14" font-weight="bold" textLength="122">DarkGoldenRod</text><path fill="#A9A9A9" d="M175 140h175v28H175z" style="stroke:#a9a9a9;stroke-width:1"/><text x="226" y="158.847" font-family="sans-serif" font-size="14" font-weight="bold" textLength="73">DarkGray</text><path fill="#006400" d="M175 168h175v28H175z" style="stroke:#006400;stroke-width:1"/><text x="220" y="186.847" fill="#FFF" font-family="sans-serif" font-size="14" font-weight="bold" textLength="85">DarkGreen</text><path fill="#A9A9A9" d="M175 196h175v28H175z" style="stroke:#a9a9a9;stroke-width:1"/><text x="225.5" y="214.847" font-family="sans-serif" font-size="14" font-weight="bold" textLength="74">DarkGrey</text><path fill="#BDB76B" d="M175 224h175v28H175z" style="stroke:#bdb76b;stroke-width:1"/><text x="223" y="242.847" font-family="sans-serif" font-size="14" font-weight="bold" textLength="79">DarkKhaki</text><path fill="#8B008B" d="M175 252h175v28H175z" style="stroke:#8b008b;stroke-width:1"/><text x="211" y="270.847" fill="#FFF" font-family="sans-serif" font-size="14" font-weight="bold" textLength="103">DarkMagenta</text><path fill="#556B2F" d="M175 280h175v28H175z" style="stroke:#556b2f;stroke-width:1"/><text x="200.5" y="298.847" fill="#FFF" font-family="sans-serif" font-size="14" font-weight="bold" textLength="124">DarkOliveGreen</text><path fill="#9932CC" d="M175 308h175v28H175z" style="stroke:#9932cc;stroke-width:1"/><text x="218.5" y="326.847" fill="#FFF" font-family="sans-serif" font-size="14" font-weight="bold" textLength="88">DarkOrchid</text><path fill="#8B0000" d="M175 336h175v28H175z" style="stroke:#8b0000;stroke-width:1"/><text x="229.5" y="354.847" fill="#FFF" font-family="sans-serif" font-size="14" font-weight="bold" textLength="66">DarkRed</text><path fill="#E9967A" d="M175 364h175v28H175z" style="stroke:#e9967a;stroke-width:1"/><text x="216" y="382.847" font-family="sans-serif" font-size="14" font-weight="bold" textLength="93">DarkSalmon</text><path fill="#8FBC8F" d="M175 392h175v28H175z" style="stroke:#8fbc8f;stroke-width:1"/><text x="205.5" y="410.847" font-family="sans-serif" font-size="14" font-weight="bold" textLength="114">DarkSeaGreen</text><path fill="#483D8B" d="M175 420h175v28H175z" style="stroke:#483d8b;stroke-width:1"/><text x="208" y="438.847" fill="#FFF" font-family="sans-serif" font-size="14" font-weight="bold" textLength="109">DarkSlateBlue</text><path fill="#2F4F4F" d="M175 448h175v28H175z" style="stroke:#2f4f4f;stroke-width:1"/><text x="206.5" y="466.847" fill="#FFF" font-family="sans-serif" font-size="14" font-weight="bold" textLength="112">DarkSlateGray</text><path fill="#2F4F4F" d="M175 476h175v28H175z" style="stroke:#2f4f4f;stroke-width:1"/><text x="206" y="494.847" fill="#FFF" font-family="sans-serif" font-size="14" font-weight="bold" textLength="113">DarkSlateGrey</text><path fill="#00CED1" d="M175 504h175v28H175z" style="stroke:#00ced1;stroke-width:1"/><text x="204.5" y="522.847" font-family="sans-serif" font-size="14" font-weight="bold" textLength="116">DarkTurquoise</text><path fill="#9400D3" d="M175 532h175v28H175z" style="stroke:#9400d3;stroke-width:1"/><text x="222" y="550.847" fill="#FFF" font-family="sans-serif" font-size="14" font-weight="bold" textLength="81">DarkViolet</text><path fill="#FF8C00" d="M175 560h175v28H175z" style="stroke:#ff8c00;stroke-width:1"/><text x="216.5" y="578.847" font-family="sans-serif" font-size="14" font-weight="bold" textLength="92">Darkorange</text><path fill="#FF1493" d="M350 0h175v28H350z" style="stroke:#ff1493;stroke-width:1"/><text x="400.5" y="18.847" fill="#FFF" font-family="sans-serif" font-size="14" font-weight="bold" textLength="74">DeepPink</text><path fill="#00BFFF" d="M350 28h175v28H350z" style="stroke:#00bfff;stroke-width:1"/><text x="386" y="46.847" font-family="sans-serif" font-size="14" font-weight="bold" textLength="103">DeepSkyBlue</text><path fill="#696969" d="M350 56h175v28H350z" style="stroke:#696969;stroke-width:1"/><text x="404.5" y="74.847" fill="#FFF" font-family="sans-serif" font-size="14" font-weight="bold" textLength="66">DimGray</text><path fill="#696969" d="M350 84h175v28H350z" style="stroke:#696969;stroke-width:1"/><text x="404" y="102.847" fill="#FFF" font-family="sans-serif" font-size="14" font-weight="bold" textLength="67">DimGrey</text><path fill="#1E90FF" d="M350 112h175v28H350z" style="stroke:#1e90ff;stroke-width:1"/><text x="391.5" y="130.847" fill="#FFF" font-family="sans-serif" font-size="14" font-weight="bold" textLength="92">DodgerBlue</text><path fill="#B22222" d="M350 140h175v28H350z" style="stroke:#b22222;stroke-width:1"/><text x="403" y="158.847" fill="#FFF" font-family="sans-serif" font-size="14" font-weight="bold" textLength="69">FireBrick</text><path fill="#FFFAF0" d="M350 168h175v28H350z" style="stroke:#fffaf0;stroke-width:1"/><text x="393.5" y="186.847" font-family="sans-serif" font-size="14" font-weight="bold" textLength="88">FloralWhite</text><path fill="#228B22" d="M350 196h175v28H350z" style="stroke:#228b22;stroke-width:1"/><text x="387.5" y="214.847" fill="#FFF" font-family="sans-serif" font-size="14" font-weight="bold" textLength="100">ForestGreen</text><path fill="#F0F" d="M350 224h175v28H350z" style="stroke:#f0f;stroke-width:1"/><text x="407.5" y="242.847" fill="#FFF" font-family="sans-serif" font-size="14" font-weight="bold" textLength="60">Fuchsia</text><path fill="#DCDCDC" d="M350 252h175v28H350z" style="stroke:#dcdcdc;stroke-width:1"/><text x="397" y="270.847" font-family="sans-serif" font-size="14" font-weight="bold" textLength="81">Gainsboro</text><path fill="#F8F8FF" d="M350 280h175v28H350z" style="stroke:#f8f8ff;stroke-width:1"/><text x="391.5" y="298.847" font-family="sans-serif" font-size="14" font-weight="bold" textLength="92">GhostWhite</text><path fill="gold" d="M350 308h175v28H350z" style="stroke:gold;stroke-width:1"/><text x="419.5" y="326.847" font-family="sans-serif" font-size="14" font-weight="bold" textLength="36">Gold</text><path fill="#DAA520" d="M350 336h175v28H350z" style="stroke:#daa520;stroke-width:1"/><text x="394.5" y="354.847" font-family="sans-serif" font-size="14" font-weight="bold" textLength="86">GoldenRod</text><path fill="gray" d="M350 364h175v28H350z" style="stroke:gray;stroke-width:1"/><text x="419" y="382.847" font-family="sans-serif" font-size="14" font-weight="bold" textLength="37">Gray</text><path fill="green" d="M350 392h175v28H350z" style="stroke:green;stroke-width:1"/><text x="413" y="410.847" fill="#FFF" font-family="sans-serif" font-size="14" font-weight="bold" textLength="49">Green</text><path fill="#ADFF2F" d="M350 420h175v28H350z" style="stroke:#adff2f;stroke-width:1"/><text x="387" y="438.847" font-family="sans-serif" font-size="14" font-weight="bold" textLength="101">GreenYellow</text><path fill="gray" d="M350 448h175v28H350z" style="stroke:gray;stroke-width:1"/><text x="418.5" y="466.847" font-family="sans-serif" font-size="14" font-weight="bold" textLength="38">Grey</text><path fill="#F0FFF0" d="M350 476h175v28H350z" style="stroke:#f0fff0;stroke-width:1"/><text x="395" y="494.847" font-family="sans-serif" font-size="14" font-weight="bold" textLength="85">HoneyDew</text><path fill="#FF69B4" d="M350 504h175v28H350z" style="stroke:#ff69b4;stroke-width:1"/><text x="407.5" y="522.847" font-family="sans-serif" font-size="14" font-weight="bold" textLength="60">HotPink</text><path fill="#FFE0E0" d="M350 532h175v28H350z" style="stroke:#ffe0e0;stroke-width:1"/><text x="369.5" y="550.847" font-family="sans-serif" font-size="14" font-weight="bold" textLength="136">IMPLEMENTATION</text><path fill="#CD5C5C" d="M350 560h175v28H350z" style="stroke:#cd5c5c;stroke-width:1"/><text x="399" y="578.847" fill="#FFF" font-family="sans-serif" font-size="14" font-weight="bold" textLength="77">IndianRed</text><path fill="indigo" d="M525 0h175v28H525z" style="stroke:indigo;stroke-width:1"/><text x="588.5" y="18.847" fill="#FFF" font-family="sans-serif" font-size="14" font-weight="bold" textLength="48">Indigo</text><path fill="ivory" d="M525 28h175v28H525z" style="stroke:ivory;stroke-width:1"/><text x="593" y="46.847" font-family="sans-serif" font-size="14" font-weight="bold" textLength="39">Ivory</text><path fill="khaki" d="M525 56h175v28H525z" style="stroke:khaki;stroke-width:1"/><text x="591" y="74.847" font-family="sans-serif" font-size="14" font-weight="bold" textLength="43">Khaki</text><path fill="#E6E6FA" d="M525 84h175v28H525z" style="stroke:#e6e6fa;stroke-width:1"/><text x="575.5" y="102.847" font-family="sans-serif" font-size="14" font-weight="bold" textLength="74">Lavender</text><path fill="#FFF0F5" d="M525 112h175v28H525z" style="stroke:#fff0f5;stroke-width:1"/><text x="554" y="130.847" font-family="sans-serif" font-size="14" font-weight="bold" textLength="117">LavenderBlush</text><path fill="#7CFC00" d="M525 140h175v28H525z" style="stroke:#7cfc00;stroke-width:1"/><text x="567" y="158.847" font-family="sans-serif" font-size="14" font-weight="bold" textLength="91">LawnGreen</text><path fill="#FFFACD" d="M525 168h175v28H525z" style="stroke:#fffacd;stroke-width:1"/><text x="557.5" y="186.847" font-family="sans-serif" font-size="14" font-weight="bold" textLength="110">LemonChiffon</text><path fill="#ADD8E6" d="M525 196h175v28H525z" style="stroke:#add8e6;stroke-width:1"/><text x="576" y="214.847" font-family="sans-serif" font-size="14" font-weight="bold" textLength="73">LightBlue</text><path fill="#F08080" d="M525 224h175v28H525z" style="stroke:#f08080;stroke-width:1"/><text x="572.5" y="242.847" font-family="sans-serif" font-size="14" font-weight="bold" textLength="80">LightCoral</text><path fill="#E0FFFF" d="M525 252h175v28H525z" style="stroke:#e0ffff;stroke-width:1"/><text x="573.5" y="270.847" font-family="sans-serif" font-size="14" font-weight="bold" textLength="78">LightCyan</text><path fill="#FAFAD2" d="M525 280h175v28H525z" style="stroke:#fafad2;stroke-width:1"/><text x="524" y="298.847" font-family="sans-serif" font-size="14" font-weight="bold" textLength="177">LightGoldenRodYellow</text><path fill="#D3D3D3" d="M525 308h175v28H525z" style="stroke:#d3d3d3;stroke-width:1"/><text x="574.5" y="326.847" font-family="sans-serif" font-size="14" font-weight="bold" textLength="76">LightGray</text><path fill="#90EE90" d="M525 336h175v28H525z" style="stroke:#90ee90;stroke-width:1"/><text x="568.5" y="354.847" font-family="sans-serif" font-size="14" font-weight="bold" textLength="88">LightGreen</text><path fill="#D3D3D3" d="M525 364h175v28H525z" style="stroke:#d3d3d3;stroke-width:1"/><text x="574" y="382.847" font-family="sans-serif" font-size="14" font-weight="bold" textLength="77">LightGrey</text><path fill="#FFB6C1" d="M525 392h175v28H525z" style="stroke:#ffb6c1;stroke-width:1"/><text x="576.5" y="410.847" font-family="sans-serif" font-size="14" font-weight="bold" textLength="72">LightPink</text><path fill="#FFA07A" d="M525 420h175v28H525z" style="stroke:#ffa07a;stroke-width:1"/><text x="564.5" y="438.847" font-family="sans-serif" font-size="14" font-weight="bold" textLength="96">LightSalmon</text><path fill="#20B2AA" d="M525 448h175v28H525z" style="stroke:#20b2aa;stroke-width:1"/><text x="554" y="466.847" font-family="sans-serif" font-size="14" font-weight="bold" textLength="117">LightSeaGreen</text><path fill="#87CEFA" d="M525 476h175v28H525z" style="stroke:#87cefa;stroke-width:1"/><text x="562" y="494.847" font-family="sans-serif" font-size="14" font-weight="bold" textLength="101">LightSkyBlue</text><path fill="#789" d="M525 504h175v28H525z" style="stroke:#789;stroke-width:1"/><text x="555" y="522.847" font-family="sans-serif" font-size="14" font-weight="bold" textLength="115">LightSlateGray</text><path fill="#789" d="M525 532h175v28H525z" style="stroke:#789;stroke-width:1"/><text x="554.5" y="550.847" font-family="sans-serif" font-size="14" font-weight="bold" textLength="116">LightSlateGrey</text><path fill="#B0C4DE" d="M525 560h175v28H525z" style="stroke:#b0c4de;stroke-width:1"/><text x="556" y="578.847" font-family="sans-serif" font-size="14" font-weight="bold" textLength="113">LightSteelBlue</text><path fill="#FFFFE0" d="M700 0h175v28H700z" style="stroke:#ffffe0;stroke-width:1"/><text x="742" y="18.847" font-family="sans-serif" font-size="14" font-weight="bold" textLength="91">LightYellow</text><path fill="#0F0" d="M700 28h175v28H700z" style="stroke:#0f0;stroke-width:1"/><text x="769" y="46.847" font-family="sans-serif" font-size="14" font-weight="bold" textLength="37">Lime</text><path fill="#32CD32" d="M700 56h175v28H700z" style="stroke:#32cd32;stroke-width:1"/><text x="744.5" y="74.847" font-family="sans-serif" font-size="14" font-weight="bold" textLength="86">LimeGreen</text><path fill="linen" d="M700 84h175v28H700z" style="stroke:linen;stroke-width:1"/><text x="766" y="102.847" font-family="sans-serif" font-size="14" font-weight="bold" textLength="43">Linen</text><path fill="#EFEFFF" d="M700 112h175v28H700z" style="stroke:#efefff;stroke-width:1"/><text x="738.5" y="130.847" font-family="sans-serif" font-size="14" font-weight="bold" textLength="98">MOTIVATION</text><path fill="#F0F" d="M700 140h175v28H700z" style="stroke:#f0f;stroke-width:1"/><text x="754" y="158.847" fill="#FFF" font-family="sans-serif" font-size="14" font-weight="bold" textLength="67">Magenta</text><path fill="maroon" d="M700 168h175v28H700z" style="stroke:maroon;stroke-width:1"/><text x="758" y="186.847" fill="#FFF" font-family="sans-serif" font-size="14" font-weight="bold" textLength="59">Maroon</text><path fill="#66CDAA" d="M700 196h175v28H700z" style="stroke:#66cdaa;stroke-width:1"/><text x="710.5" y="214.847" font-family="sans-serif" font-size="14" font-weight="bold" textLength="154">MediumAquaMarine</text><path fill="#0000CD" d="M700 224h175v28H700z" style="stroke:#0000cd;stroke-width:1"/><text x="740" y="242.847" fill="#FFF" font-family="sans-serif" font-size="14" font-weight="bold" textLength="95">MediumBlue</text><path fill="#BA55D3" d="M700 252h175v28H700z" style="stroke:#ba55d3;stroke-width:1"/><text x="731" y="270.847" font-family="sans-serif" font-size="14" font-weight="bold" textLength="113">MediumOrchid</text><path fill="#9370D8" d="M700 280h175v28H700z" style="stroke:#9370d8;stroke-width:1"/><text x="731.5" y="298.847" font-family="sans-serif" font-size="14" font-weight="bold" textLength="112">MediumPurple</text><path fill="#3CB371" d="M700 308h175v28H700z" style="stroke:#3cb371;stroke-width:1"/><text x="718" y="326.847" font-family="sans-serif" font-size="14" font-weight="bold" textLength="139">MediumSeaGreen</text><path fill="#7B68EE" d="M700 336h175v28H700z" style="stroke:#7b68ee;stroke-width:1"/><text x="720.5" y="354.847" fill="#FFF" font-family="sans-serif" font-size="14" font-weight="bold" textLength="134">MediumSlateBlue</text><path fill="#00FA9A" d="M700 364h175v28H700z" style="stroke:#00fa9a;stroke-width:1"/><text x="707" y="382.847" font-family="sans-serif" font-size="14" font-weight="bold" textLength="161">MediumSpringGreen</text><path fill="#48D1CC" d="M700 392h175v28H700z" style="stroke:#48d1cc;stroke-width:1"/><text x="717" y="410.847" font-family="sans-serif" font-size="14" font-weight="bold" textLength="141">MediumTurquoise</text><path fill="#C71585" d="M700 420h175v28H700z" style="stroke:#c71585;stroke-width:1"/><text x="719.5" y="438.847" fill="#FFF" font-family="sans-serif" font-size="14" font-weight="bold" textLength="136">MediumVioletRed</text><path fill="#191970" d="M700 448h175v28H700z" style="stroke:#191970;stroke-width:1"/><text x="737" y="466.847" fill="#FFF" font-family="sans-serif" font-size="14" font-weight="bold" textLength="101">MidnightBlue</text><path fill="#F5FFFA" d="M700 476h175v28H700z" style="stroke:#f5fffa;stroke-width:1"/><text x="745.5" y="494.847" font-family="sans-serif" font-size="14" font-weight="bold" textLength="84">MintCream</text><path fill="#FFE4E1" d="M700 504h175v28H700z" style="stroke:#ffe4e1;stroke-width:1"/><text x="747.5" y="522.847" font-family="sans-serif" font-size="14" font-weight="bold" textLength="80">MistyRose</text><path fill="#FFE4B5" d="M700 532h175v28H700z" style="stroke:#ffe4b5;stroke-width:1"/><text x="751" y="550.847" font-family="sans-serif" font-size="14" font-weight="bold" textLength="73">Moccasin</text><path fill="#FFDEAD" d="M700 560h175v28H700z" style="stroke:#ffdead;stroke-width:1"/><text x="739" y="578.847" font-family="sans-serif" font-size="14" font-weight="bold" textLength="97">NavajoWhite</text><path fill="navy" d="M875 0h175v28H875z" style="stroke:navy;stroke-width:1"/><text x="943.5" y="18.847" fill="#FFF" font-family="sans-serif" font-size="14" font-weight="bold" textLength="38">Navy</text><path fill="#FDF5E6" d="M875 28h175v28H875z" style="stroke:#fdf5e6;stroke-width:1"/><text x="931" y="46.847" font-family="sans-serif" font-size="14" font-weight="bold" textLength="63">OldLace</text><path fill="olive" d="M875 56h175v28H875z" style="stroke:olive;stroke-width:1"/><text x="943" y="74.847" fill="#FFF" font-family="sans-serif" font-size="14" font-weight="bold" textLength="39">Olive</text><path fill="#6B8E23" d="M875 84h175v28H875z" style="stroke:#6b8e23;stroke-width:1"/><text x="924.5" y="102.847" fill="#FFF" font-family="sans-serif" font-size="14" font-weight="bold" textLength="76">OliveDrab</text><path fill="orange" d="M875 112h175v28H875z" style="stroke:orange;stroke-width:1"/><text x="933.5" y="130.847" font-family="sans-serif" font-size="14" font-weight="bold" textLength="58">Orange</text><path fill="#FF4500" d="M875 140h175v28H875z" style="stroke:#ff4500;stroke-width:1"/><text x="918.5" y="158.847" fill="#FFF" font-family="sans-serif" font-size="14" font-weight="bold" textLength="88">OrangeRed</text><path fill="orchid" d="M875 168h175v28H875z" style="stroke:orchid;stroke-width:1"/><text x="936.5" y="186.847" font-family="sans-serif" font-size="14" font-weight="bold" textLength="52">Orchid</text><path fill="#97FF97" d="M875 196h175v28H875z" style="stroke:#97ff97;stroke-width:1"/><text x="924.5" y="214.847" font-family="sans-serif" font-size="14" font-weight="bold" textLength="76">PHYSICAL</text><path fill="#EEE8AA" d="M875 224h175v28H875z" style="stroke:#eee8aa;stroke-width:1"/><text x="903" y="242.847" font-family="sans-serif" font-size="14" font-weight="bold" textLength="119">PaleGoldenRod</text><path fill="#98FB98" d="M875 252h175v28H875z" style="stroke:#98fb98;stroke-width:1"/><text x="921.5" y="270.847" font-family="sans-serif" font-size="14" font-weight="bold" textLength="82">PaleGreen</text><path fill="#AFEEEE" d="M875 280h175v28H875z" style="stroke:#afeeee;stroke-width:1"/><text x="906" y="298.847" font-family="sans-serif" font-size="14" font-weight="bold" textLength="113">PaleTurquoise</text><path fill="#D87093" d="M875 308h175v28H875z" style="stroke:#d87093;stroke-width:1"/><text x="908.5" y="326.847" font-family="sans-serif" font-size="14" font-weight="bold" textLength="108">PaleVioletRed</text><path fill="#FFEFD5" d="M875 336h175v28H875z" style="stroke:#ffefd5;stroke-width:1"/><text x="915" y="354.847" font-family="sans-serif" font-size="14" font-weight="bold" textLength="95">PapayaWhip</text><path fill="#FFDAB9" d="M875 364h175v28H875z" style="stroke:#ffdab9;stroke-width:1"/><text x="922.5" y="382.847" font-family="sans-serif" font-size="14" font-weight="bold" textLength="80">PeachPuff</text><path fill="peru" d="M875 392h175v28H875z" style="stroke:peru;stroke-width:1"/><text x="944" y="410.847" font-family="sans-serif" font-size="14" font-weight="bold" textLength="37">Peru</text><path fill="pink" d="M875 420h175v28H875z" style="stroke:pink;stroke-width:1"/><text x="946" y="438.847" font-family="sans-serif" font-size="14" font-weight="bold" textLength="33">Pink</text><path fill="plum" d="M875 448h175v28H875z" style="stroke:plum;stroke-width:1"/><text x="943.5" y="466.847" font-family="sans-serif" font-size="14" font-weight="bold" textLength="38">Plum</text><path fill="#B0E0E6" d="M875 476h175v28H875z" style="stroke:#b0e0e6;stroke-width:1"/><text x="915" y="494.847" font-family="sans-serif" font-size="14" font-weight="bold" textLength="95">PowderBlue</text><path fill="purple" d="M875 504h175v28H875z" style="stroke:purple;stroke-width:1"/><text x="937" y="522.847" fill="#FFF" font-family="sans-serif" font-size="14" font-weight="bold" textLength="51">Purple</text><path fill="red" d="M875 532h175v28H875z" style="stroke:red;stroke-width:1"/><text x="947.5" y="550.847" fill="#FFF" font-family="sans-serif" font-size="14" font-weight="bold" textLength="30">Red</text><path fill="#BC8F8F" d="M875 560h175v28H875z" style="stroke:#bc8f8f;stroke-width:1"/><text x="918" y="578.847" font-family="sans-serif" font-size="14" font-weight="bold" textLength="89">RosyBrown</text><path fill="#4169E1" d="M1050 0h175v28h-175z" style="stroke:#4169e1;stroke-width:1"/><text x="1099.5" y="18.847" fill="#FFF" font-family="sans-serif" font-size="14" font-weight="bold" textLength="76">RoyalBlue</text><path fill="#F8E7C0" d="M1050 28h175v28h-175z" style="stroke:#f8e7c0;stroke-width:1"/><text x="1096.5" y="46.847" font-family="sans-serif" font-size="14" font-weight="bold" textLength="82">STRATEGY</text><path fill="#8B4513" d="M1050 56h175v28h-175z" style="stroke:#8b4513;stroke-width:1"/><text x="1085.5" y="74.847" fill="#FFF" font-family="sans-serif" font-size="14" font-weight="bold" textLength="104">SaddleBrown</text><path fill="salmon" d="M1050 84h175v28h-175z" style="stroke:salmon;stroke-width:1"/><text x="1109" y="102.847" font-family="sans-serif" font-size="14" font-weight="bold" textLength="57">Salmon</text><path fill="#F4A460" d="M1050 112h175v28h-175z" style="stroke:#f4a460;stroke-width:1"/><text x="1088" y="130.847" font-family="sans-serif" font-size="14" font-weight="bold" textLength="99">SandyBrown</text><path fill="#2E8B57" d="M1050 140h175v28h-175z" style="stroke:#2e8b57;stroke-width:1"/><text x="1098.5" y="158.847" fill="#FFF" font-family="sans-serif" font-size="14" font-weight="bold" textLength="78">SeaGreen</text><path fill="#FFF5EE" d="M1050 168h175v28h-175z" style="stroke:#fff5ee;stroke-width:1"/><text x="1104" y="186.847" font-family="sans-serif" font-size="14" font-weight="bold" textLength="67">SeaShell</text><path fill="sienna" d="M1050 196h175v28h-175z" style="stroke:sienna;stroke-width:1"/><text x="1111" y="214.847" fill="#FFF" font-family="sans-serif" font-size="14" font-weight="bold" textLength="53">Sienna</text><path fill="silver" d="M1050 224h175v28h-175z" style="stroke:silver;stroke-width:1"/><text x="1115.5" y="242.847" font-family="sans-serif" font-size="14" font-weight="bold" textLength="44">Silver</text><path fill="#87CEEB" d="M1050 252h175v28h-175z" style="stroke:#87ceeb;stroke-width:1"/><text x="1106.5" y="270.847" font-family="sans-serif" font-size="14" font-weight="bold" textLength="62">SkyBlue</text><path fill="#6A5ACD" d="M1050 280h175v28h-175z" style="stroke:#6a5acd;stroke-width:1"/><text x="1101" y="298.847" fill="#FFF" font-family="sans-serif" font-size="14" font-weight="bold" textLength="73">SlateBlue</text><path fill="#708090" d="M1050 308h175v28h-175z" style="stroke:#708090;stroke-width:1"/><text x="1099.5" y="326.847" fill="#FFF" font-family="sans-serif" font-size="14" font-weight="bold" textLength="76">SlateGray</text><path fill="#708090" d="M1050 336h175v28h-175z" style="stroke:#708090;stroke-width:1"/><text x="1099" y="354.847" fill="#FFF" font-family="sans-serif" font-size="14" font-weight="bold" textLength="77">SlateGrey</text><path fill="snow" d="M1050 364h175v28h-175z" style="stroke:snow;stroke-width:1"/><text x="1115.5" y="382.847" font-family="sans-serif" font-size="14" font-weight="bold" textLength="44">Snow</text><path fill="#00FF7F" d="M1050 392h175v28h-175z" style="stroke:#00ff7f;stroke-width:1"/><text x="1087.5" y="410.847" font-family="sans-serif" font-size="14" font-weight="bold" textLength="100">SpringGreen</text><path fill="#4682B4" d="M1050 420h175v28h-175z" style="stroke:#4682b4;stroke-width:1"/><text x="1100.5" y="438.847" fill="#FFF" font-family="sans-serif" font-size="14" font-weight="bold" textLength="74">SteelBlue</text><path fill="#C9FFC9" d="M1050 448h175v28h-175z" style="stroke:#c9ffc9;stroke-width:1"/><text x="1084" y="466.847" font-family="sans-serif" font-size="14" font-weight="bold" textLength="107">TECHNOLOGY</text><path fill="tan" d="M1050 476h175v28h-175z" style="stroke:tan;stroke-width:1"/><text x="1123" y="494.847" font-family="sans-serif" font-size="14" font-weight="bold" textLength="29">Tan</text><path fill="teal" d="M1050 504h175v28h-175z" style="stroke:teal;stroke-width:1"/><text x="1121" y="522.847" fill="#FFF" font-family="sans-serif" font-size="14" font-weight="bold" textLength="33">Teal</text><path fill="#D8BFD8" d="M1050 532h175v28h-175z" style="stroke:#d8bfd8;stroke-width:1"/><text x="1111" y="550.847" font-family="sans-serif" font-size="14" font-weight="bold" textLength="53">Thistle</text><path fill="tomato" d="M1050 560h175v28h-175z" style="stroke:tomato;stroke-width:1"/><text x="1108" y="578.847" font-family="sans-serif" font-size="14" font-weight="bold" textLength="59">Tomato</text><path fill="#40E0D0" d="M1225 0h175v28h-175z" style="stroke:#40e0d0;stroke-width:1"/><text x="1272.5" y="18.847" font-family="sans-serif" font-size="14" font-weight="bold" textLength="80">Turquoise</text><path fill="violet" d="M1225 28h175v28h-175z" style="stroke:violet;stroke-width:1"/><text x="1290" y="46.847" font-family="sans-serif" font-size="14" font-weight="bold" textLength="45">Violet</text><path fill="wheat" d="M1225 56h175v28h-175z" style="stroke:wheat;stroke-width:1"/><text x="1287.5" y="74.847" font-family="sans-serif" font-size="14" font-weight="bold" textLength="50">Wheat</text><path fill="#FFF" d="M1225 84h175v28h-175z" style="stroke:#fff;stroke-width:1"/><text x="1290" y="102.847" font-family="sans-serif" font-size="14" font-weight="bold" textLength="45">White</text><path fill="#F5F5F5" d="M1225 112h175v28h-175z" style="stroke:#f5f5f5;stroke-width:1"/><text x="1263.5" y="130.847" font-family="sans-serif" font-size="14" font-weight="bold" textLength="98">WhiteSmoke</text><path fill="#FF0" d="M1225 140h175v28h-175z" style="stroke:#ff0;stroke-width:1"/><text x="1286.5" y="158.847" font-family="sans-serif" font-size="14" font-weight="bold" textLength="52">Yellow</text><path fill="#9ACD32" d="M1225 168h175v28h-175z" style="stroke:#9acd32;stroke-width:1"/><text x="1262" y="186.847" font-family="sans-serif" font-size="14" font-weight="bold" textLength="101">YellowGreen</text></svg>