<svg xmlns="http://www.w3.org/2000/svg" width="319" height="211" preserveAspectRatio="none" style="width:319px;height:211px;background:#fff"><defs><filter id="a" width="300%" height="300%" x="-1" y="-1"><feGaussianBlur result="blurOut" stdDeviation="2"/><feColorMatrix in="blurOut" result="blurOut2" values="0 0 0 0 0 0 0 0 0 0 0 0 0 0 0 0 0 0 .4 0"/><feOffset dx="4" dy="4" in="blurOut2" result="blurOut3"/><feBlend in="SourceGraphic" in2="blurOut3"/></filter></defs><text x="247" y="19.282" fill="#888" font-family="sans-serif" font-size="10" textLength="52">made by x</text><text x="119.5" y="45.636" font-family="sans-serif" font-size="14" font-weight="bold" textLength="70">非对称加密</text><rect width="52" height="40.297" x="10" y="100.086" fill="#A8EB99" filter="url(#a)" rx="7.5" ry="7.5" style="stroke:#000;stroke-width:1"/><text x="22" y="125.081" font-family="sans-serif" font-size="14" textLength="28">算法</text><rect width="108" height="40.297" x="112" y="69.938" fill="#FBE972" filter="url(#a)" rx="7.5" ry="7.5" style="stroke:#000;stroke-width:1"/><text x="124" y="94.933" font-family="sans-serif" font-size="14" textLength="28">RSA</text><text x="152" y="94.933" font-family="sans-serif" font-size="14" textLength="4"> </text><text x="156" y="94.933" font-family="sans-serif" font-size="14" textLength="52">(最常用)</text><path fill="none" d="M62 120.234h10c15 0 15-30.148 30-30.148h10" style="stroke:green;stroke-width:1;stroke-dasharray:5,5"/><rect width="188" height="40.297" x="112" y="130.234" fill="#E0FFFF" filter="url(#a)" rx="7.5" ry="7.5" style="stroke:#000;stroke-width:1"/><text x="124" y="155.23" font-family="sans-serif" font-size="14" textLength="94">Diffie-Hellman</text><text x="218" y="155.23" font-family="sans-serif" font-size="14" textLength="4"> </text><text x="222" y="155.23" font-family="sans-serif" font-size="14" textLength="66">(目前主流)</text><path fill="none" d="M62 120.234h10c15 0 15 30.149 30 30.149h10" style="stroke:green;stroke-width:1;stroke-dasharray:5,5"/><text x="141" y="194.526" font-family="sans-serif" font-size="14" textLength="27">图 1</text></svg>