<svg xmlns="http://www.w3.org/2000/svg" width="281" height="272" preserveAspectRatio="none" style="width:281px;height:272px;background:#fff"><defs><filter id="a" width="300%" height="300%" x="-1" y="-1"><feGaussianBlur result="blurOut" stdDeviation="2"/><feColorMatrix in="blurOut" result="blurOut2" values="0 0 0 0 0 0 0 0 0 0 0 0 0 0 0 0 0 0 .4 0"/><feOffset dx="4" dy="4" in="blurOut2" result="blurOut3"/><feBlend in="SourceGraphic" in2="blurOut3"/></filter></defs><text x="209" y="19.282" fill="#888" font-family="sans-serif" font-size="10" textLength="52">made by x</text><text x="107.5" y="45.636" font-family="sans-serif" font-size="14" font-weight="bold" textLength="56">模式匹配</text><rect width="150" height="40.297" x="10" y="130.234" fill="#A8EB99" filter="url(#a)" rx="7.5" ry="7.5" style="stroke:#000;stroke-width:1"/><text x="22" y="155.23" font-family="sans-serif" font-size="14" textLength="126">模式匹配的组成部分</text><rect width="52" height="40.297" x="210" y="69.938" fill="#FBC" filter="url(#a)" rx="7.5" ry="7.5" style="stroke:#000;stroke-width:1"/><text x="222" y="94.933" font-family="sans-serif" font-size="14" textLength="28">模式</text><path fill="none" d="M160 150.383h10c15 0 15-60.297 30-60.297h10" style="stroke:green;stroke-width:1;stroke-dasharray:5,5"/><rect width="38" height="40.297" x="210" y="130.234" fill="gold" filter="url(#a)" rx="7.5" ry="7.5" style="stroke:#000;stroke-width:1"/><text x="222" y="155.23" font-family="sans-serif" font-size="14" textLength="14">值</text><path fill="none" d="M160 150.383h50" style="stroke:green;stroke-width:1;stroke-dasharray:5,5"/><rect width="52" height="40.297" x="210" y="190.531" fill="#E0FFFF" filter="url(#a)" rx="7.5" ry="7.5" style="stroke:#000;stroke-width:1"/><text x="222" y="215.526" font-family="sans-serif" font-size="14" textLength="28">绑定</text><path fill="none" d="M160 150.383h10c15 0 15 60.297 30 60.297h10" style="stroke:green;stroke-width:1;stroke-dasharray:5,5"/><text x="122" y="254.823" font-family="sans-serif" font-size="14" textLength="27">图 1</text></svg>