<svg xmlns="http://www.w3.org/2000/svg" width="967.749" height="1215.069"><defs><style>@font-face{font-family:&quot;Virgil&quot;;src:url(https://unpkg.com/@excalidraw/excalidraw@undefined/dist/excalidraw-assets/Virgil.woff2)}@font-face{font-family:&quot;Cascadia&quot;;src:url(https://unpkg.com/@excalidraw/excalidraw@undefined/dist/excalidraw-assets/Cascadia.woff2)}@font-face{font-family:&quot;Assistant&quot;;src:url(https://unpkg.com/@excalidraw/excalidraw@undefined/dist/excalidraw-assets/Assistant-Regular.woff2)}</style></defs><path fill="#fff" d="M0 0h967.749v1215.069H0z"/><g stroke-linecap="round"><path fill="#82c91e" stroke-width="0" d="M308.973 152.698h141v41h-141"/><path fill="none" stroke="#000" d="M308.973 152.698h141m-141 0h141m0 0v41m0-41v41m0 0h-141m141 0h-141m0 0v-41m0 41v-41"/></g><text x="16.685" dominant-baseline="text-before-edge" font-family="Helvetica, Segoe UI Emoji" font-size="20" style="white-space:pre" text-anchor="middle" transform="translate(362.789 161.698)">Len</text><g stroke-linecap="round"><path fill="#82c91e" stroke-width="0" d="M309.17 194.129h141v41h-141"/><path fill="none" stroke="#000" d="M309.17 194.129h141m-141 0h141m0 0v41m0-41v41m0 0h-141m141 0h-141m0 0v-41m0 41v-41"/></g><text x="25.015" dominant-baseline="text-before-edge" font-family="Helvetica, Segoe UI Emoji" font-size="20" style="white-space:pre" text-anchor="middle" transform="translate(354.655 203.129)">*Data</text><path fill="none" stroke="#000" stroke-linecap="round" d="M309.392 69.451h139.77m-139.77 0h139.77m0 0v83.19m0-83.19v83.19m0 0h-139.77m139.77 0h-139.77m0 0v-83.19m0 83.19v-83.19M309.534 236.263h139.77m-139.77 0h139.77m0 0v489.94m0-489.94v489.94m0 0h-139.77m139.77 0h-139.77m0 0v-489.94m0 489.94v-489.94"/><text dominant-baseline="text-before-edge" font-family="Helvetica, Segoe UI Emoji" font-size="20" style="white-space:pre" transform="translate(354.826 38.755)">栈区</text><g stroke-linecap="round"><path fill="#fab005" stroke-width="0" d="M589.423 166.554h141v41h-141"/><path fill="none" stroke="#000" d="M589.423 166.554h141m-141 0h141m0 0v41m0-41v41m0 0h-141m141 0h-141m0 0v-41m0 41v-41"/></g><text x="16.123" dominant-baseline="text-before-edge" font-family="Helvetica, Segoe UI Emoji" font-size="20" style="white-space:pre" text-anchor="middle" transform="translate(643.8 175.554)">abc</text><path fill="none" stroke="#000" stroke-linecap="round" d="M589.674 125.913h141m-141 0h141m0 0v41m0-41v41m0 0h-141m141 0h-141m0 0v-41m0 41v-41M590.433 41.949h139.77m-139.77 0h139.77m0 0v83.19m0-83.19v83.19m0 0h-139.77m139.77 0h-139.77m0 0v-83.19m0 83.19v-83.19M590.245 208.105h139.77m-139.77 0h139.77m0 0v83.19m0-83.19v83.19m0 0h-139.77m139.77 0h-139.77m0 0v-83.19m0 83.19v-83.19"/><text dominant-baseline="text-before-edge" font-family="Helvetica, Segoe UI Emoji" font-size="20" style="white-space:pre" transform="translate(644.345 10)">堆区</text><g stroke-linecap="round"><path fill="none" stroke="#000" d="M455.627 216.56c38.2-6.38 76.41-12.76 128.05-21.39m-128.05 21.39c36.19-6.04 72.38-12.09 128.05-21.39"/><path fill-rule="evenodd" stroke-width="0" d="m583.677 195.17-12.36 8.49-2.09-12.5z"/><path fill="none" stroke="#000" d="M583.677 195.17c-3.69 2.53-7.38 5.07-12.36 8.49m12.36-8.49c-3.49 2.4-6.99 4.8-12.36 8.49m0 0c-.52-3.12-1.05-6.24-2.09-12.5m2.09 12.5c-.74-4.39-1.47-8.78-2.09-12.5m0 0c4.11 1.14 8.22 2.28 14.45 4.01m-14.45-4.01c4.28 1.19 8.57 2.38 14.45 4.01m0 0q0 0 0 0m0 0q0 0 0 0"/></g><g stroke-linecap="round"><path fill="#82c91e" stroke-width="0" d="M309.67 111.154h141v41h-141"/><path fill="none" stroke="#000" d="M309.67 111.154h141m-141 0h141m0 0v41m0-41v41m0 0h-141m141 0h-141m0 0v-41m0 41v-41"/></g><text x="18.345" dominant-baseline="text-before-edge" font-family="Helvetica, Segoe UI Emoji" font-size="20" style="white-space:pre" text-anchor="middle" transform="translate(361.824 120.154)">Cap</text><path fill="none" stroke="#1e1e1e" stroke-linecap="round" stroke-width="2" d="M588.89 390.646c54.65-.6 107.31-1.41 263.46 0m-263.46 0c90.55.73 181.59 1.54 263.46 0m0 0c-1.78 29.05-1.42 57.62 0 108.03m0-108.03c-.45 34.06-.2 66.31 0 108.03m0 0c-56.18.15-111.43 1-263.46 0m263.46 0c-63.7-1.63-125.73-.77-263.46 0m0 0c-1.05-29.72 1.03-61.72 0-108.03m0 108.03c.68-26.97.75-55.51 0-108.03"/><text fill="#1e1e1e" dominant-baseline="text-before-edge" font-family="Virgil, Segoe UI Emoji" font-size="20" style="white-space:pre" transform="translate(687.414 360.076)">只读区</text><text fill="#1e1e1e" dominant-baseline="text-before-edge" font-family="Virgil, Segoe UI Emoji" font-size="36" style="white-space:pre" transform="translate(690.427 425.262)">abc</text><g stroke-linecap="round"><path fill="none" stroke="#1e1e1e" stroke-width="2" d="M756.33 435.78c11.93-10.06 58.99-37.91 71.17-59.65 12.17-21.74 8.61-49.63 1.88-70.79-6.74-21.17-22.04-36.45-42.29-56.2-20.24-19.75-65.8-51.93-79.17-62.3m47.27 251.11c12.29-10.37 62.27-41.03 74.52-63.48 12.24-22.45 6.53-50.45-1.04-71.21-7.57-20.77-24.04-34.13-44.4-53.39-20.37-19.25-65.03-51.58-77.78-62.14"/><path fill="#1e1e1e" fill-rule="evenodd" stroke-width="0" d="m707.75 188.46 13.36 2.98-8.51 11.61-4.57-16.9"/><path fill="none" stroke="#1e1e1e" stroke-width="2" d="M706.49 187.73c3.53-.23 10.25 2.15 14.62 3.34m-14.62-3.34c5.07 1.81 9.41 3.03 14.62 3.34m0 0c-1.76 2.63-4.44 5.02-7.78 10.01m7.78-10.01c-2.05 2.6-4.5 5.71-7.78 10.01m0 0c-2.03-3.84-4.08-7.24-6.84-13.35m6.84 13.35c-2.22-3.87-4.87-9.49-6.84-13.35m0 0q0 0 0 0m0 0q0 0 0 0"/></g><text fill="#1e1e1e" dominant-baseline="text-before-edge" font-family="Virgil, Segoe UI Emoji" font-size="20" style="white-space:pre" transform="translate(857.749 292.31)">从只读区里</text><text y="25" fill="#1e1e1e" dominant-baseline="text-before-edge" font-family="Virgil, Segoe UI Emoji" font-size="20" style="white-space:pre" transform="translate(857.749 292.31)">复制到堆上</text><text fill="#1e1e1e" dominant-baseline="text-before-edge" font-family="Helvetica, Segoe UI Emoji" font-size="20" style="white-space:pre" transform="translate(129.166 147.672)">String 类型</text><text fill="#1e1e1e" dominant-baseline="text-before-edge" font-family="Helvetica, Segoe UI Emoji" font-size="20" style="white-space:pre" transform="translate(165.124 352.912)">let y = &amp;x[0..2];</text><g stroke-linecap="round"><path fill="#3bc9db" stroke-width="0" d="M308.313 349.442h141v41h-141"/><path fill="none" stroke="#000" d="M308.313 349.442h141m-141 0h141m0 0v41m0-41v41m0 0h-141m141 0h-141m0 0v-41m0 41v-41"/></g><text x="25.015" dominant-baseline="text-before-edge" font-family="Helvetica, Segoe UI Emoji" font-size="20" style="white-space:pre" text-anchor="middle" transform="translate(353.798 358.442)">*Data</text><g stroke-linecap="round"><path fill="#3bc9db" stroke-width="0" d="M308.962 307.416h141v41h-141"/><path fill="none" stroke="#000" d="M308.962 307.416h141m-141 0h141m0 0v41m0-41v41m0 0h-141m141 0h-141m0 0v-41m0 41v-41"/></g><text x="16.685" dominant-baseline="text-before-edge" font-family="Helvetica, Segoe UI Emoji" font-size="20" style="white-space:pre" text-anchor="middle" transform="translate(362.778 316.416)">Len</text><g stroke-linecap="round"><path fill="none" stroke="#1e1e1e" stroke-width="2" d="M448.884 373.1c22.66-28.69 113.1-142.86 135.55-171.4m-136.9 173.55c22.53-28.53 112.9-143.61 136-172.33"/><path fill="#1e1e1e" fill-rule="evenodd" stroke-width="0" d="m582.774 201.7-2.14 17.32-11.94-11.39 14.15-3.74"/><path fill="none" stroke="#1e1e1e" stroke-width="2" d="M583.534 202.92c-2.12 4.25-2.75 7.39-3.49 14.59m3.49-14.59c-.82 3.83-2.13 8.41-3.49 14.59m0 0c-4-3.32-7.15-6.71-9.93-7.88m9.93 7.88c-2.6-1.89-5.86-5.11-9.93-7.88m0 0c5.95-1.97 10.07-4.26 13.42-6.71m-13.42 6.71c4.5-2.6 8.28-3.64 13.42-6.71m0 0q0 0 0 0m0 0q0 0 0 0"/></g><text fill="#1e1e1e" dominant-baseline="text-before-edge" font-family="Helvetica, Segoe UI Emoji" font-size="20" style="white-space:pre" transform="translate(182.047 319.564)">&amp;str 切片</text><text fill="#1e1e1e" dominant-baseline="text-before-edge" font-family="Helvetica, Segoe UI Emoji" font-size="20" style="white-space:pre" transform="translate(68.096 185.935)">let x = String::from(&quot;abc&quot;);</text><text fill="#1e1e1e" dominant-baseline="text-before-edge" font-family="Helvetica, Segoe UI Emoji" font-size="20" style="white-space:pre" transform="translate(170.501 488.395)">let z = &quot;abc&quot;;</text><g stroke-linecap="round"><path fill="#e03131" stroke-width="0" d="M308.851 479.85h141v41h-141"/><path fill="none" stroke="#000" d="M308.851 479.85h141m-141 0h141m0 0v41m0-41v41m0 0h-141m141 0h-141m0 0v-41m0 41v-41"/></g><text x="25.015" dominant-baseline="text-before-edge" font-family="Helvetica, Segoe UI Emoji" font-size="20" style="white-space:pre" text-anchor="middle" transform="translate(354.336 488.85)">*Data</text><g stroke-linecap="round"><path fill="#e03131" stroke-width="0" d="M308.22 439.601h141v41h-141"/><path fill="none" stroke="#1e1e1e" d="M308.22 439.601h141m-141 0h141m0 0v41m0-41v41m0 0h-141m141 0h-141m0 0v-41m0 41v-41"/></g><text x="16.685" fill="#1e1e1e" dominant-baseline="text-before-edge" font-family="Helvetica, Segoe UI Emoji" font-size="20" style="white-space:pre" text-anchor="middle" transform="translate(362.036 448.601)">Len</text><text fill="#1e1e1e" dominant-baseline="text-before-edge" font-family="Helvetica, Segoe UI Emoji" font-size="20" style="white-space:pre" transform="translate(180.924 455.436)">&amp;str 切片</text><g stroke-linecap="round"><path fill="none" stroke="#1e1e1e" stroke-width="2" d="M456.182 502.935c36.63-6.16 184.33-31.48 221.36-37.98m-219.41 37.26c36.9-6.49 185.09-32.91 221.66-39.12"/><path fill="#1e1e1e" fill-rule="evenodd" stroke-width="0" d="m680.562 463.525-13.14 6.42-1.07-8.89 11.81.3"/><path fill="none" stroke="#1e1e1e" stroke-width="2" d="M679.792 463.095c-4.11 2.23-9.09 6.6-12.3 8.59m12.3-8.59c-3.19 1.73-5.66 4.03-12.3 8.59m0 0c-1.41-3.9-1.66-7.91-2.18-12.49m2.18 12.49c-.64-4.63-.98-9.17-2.18-12.49m0 0c3.07 1.44 7.19 1.24 14.48 3.9m-14.48-3.9c5.47 1.57 11.35 2.36 14.48 3.9m0 0q0 0 0 0m0 0q0 0 0 0"/></g><g stroke-linecap="round"><path fill="#be4bdb" stroke-width="0" d="M309.36 572.615h141v41h-141"/><path fill="none" stroke="#1e1e1e" d="M309.36 572.615h141m-141 0h141m0 0v41m0-41v41m0 0h-141m141 0h-141m0 0v-41m0 41v-41"/></g><text x="16.685" fill="#1e1e1e" dominant-baseline="text-before-edge" font-family="Helvetica, Segoe UI Emoji" font-size="20" style="white-space:pre" text-anchor="middle" transform="translate(363.176 581.615)">Len</text><g stroke-linecap="round"><path fill="#be4bdb" stroke-width="0" d="M309.394 615.027h141v41h-141"/><path fill="none" stroke="#000" d="M309.394 615.027h141m-141 0h141m0 0v41m0-41v41m0 0h-141m141 0h-141m0 0v-41m0 41v-41"/></g><text x="25.015" dominant-baseline="text-before-edge" font-family="Helvetica, Segoe UI Emoji" font-size="20" style="white-space:pre" text-anchor="middle" transform="translate(354.879 624.027)">*Data</text><g stroke-linecap="round"><path fill="none" stroke="#1e1e1e" stroke-width="2" d="M454.287 634.18c38.57-27.9 192.52-138.87 231.03-166.85m-232.23 165.7c38.48-27.71 193.05-136.43 231.71-164.06"/><path fill="#1e1e1e" fill-rule="evenodd" stroke-width="0" d="m684.387 467.28-8.21 13.99-6.21-8.31 15.75-4.74"/><path fill="none" stroke="#1e1e1e" stroke-width="2" d="M684.797 468.97c-2.49 5.04-4.29 9.07-7.43 13.03m7.43-13.03c-2.03 3.66-3.18 6.17-7.43 13.03m0 0c-2.11-3.42-5.31-8.87-7.33-10.35m7.33 10.35c-1.74-2.13-3.45-4.65-7.33-10.35m0 0c3.72.44 11.59-2.59 14.76-2.68m-14.76 2.68c6.21-.96 11.92-2.47 14.76-2.68m0 0q0 0 0 0m0 0q0 0 0 0"/></g><text fill="#1e1e1e" dominant-baseline="text-before-edge" font-family="Helvetica, Segoe UI Emoji" font-size="20" style="white-space:pre" transform="translate(21.491 623.94)">let static_s: &amp;&apos;static str = &quot;abc&quot;;</text><text fill="#1e1e1e" dominant-baseline="text-before-edge" font-family="Helvetica, Segoe UI Emoji" font-size="20" style="white-space:pre" transform="translate(131.741 587.595)">&amp;&apos;static str 切片</text><path fill="none" stroke="#1e1e1e" stroke-linecap="round" d="M345.327 923.6c36.12-.37 71.54.57 122.84 0m-122.84 0c38.66.58 78.25-.8 122.84 0m0 0c-2.17 7.78-.82 15.9 0 35m0-35c-.82 7.52-.2 17.52 0 35m0 0c-35.46-.21-74.43-1.2-122.84 0m122.84 0c-24.97-.55-51.94-1.54-122.84 0m0 0c-1.62-7.59-2.21-15.61 0-35m0 35c.36-10.29-.37-20.28 0-35"/><text x="6.078" fill="#1e1e1e" fill-opacity=".9" stroke-opacity=".9" dominant-baseline="text-before-edge" font-family="Virgil, Segoe UI Emoji" font-size="19.677" style="white-space:pre" text-anchor="middle" transform="translate(400.669 928.801)">5</text><path fill="none" stroke="#1e1e1e" stroke-linecap="round" d="M261.524 924.6c28.43-1.61 56.41-1.5 83.67 0m-83.67 0c30.76.01 61.83-.46 83.67 0m0 0c-1.34 7.35-1.15 17.13 0 35m0-35c.01 7.94.51 15.68 0 35m0 0c-23.61.49-44.63.9-83.67 0m83.67 0c-26.38-.09-50.7-1.46-83.67 0m0 0c-.04-11 2.34-22.11 0-35m0 35c-.58-9.1.2-17.05 0-35"/><text x="12.559" fill="#1e1e1e" fill-opacity=".9" stroke-opacity=".9" dominant-baseline="text-before-edge" font-family="Virgil, Segoe UI Emoji" font-size="19.677" style="white-space:pre" text-anchor="middle" transform="translate(290.8 929.801)">len</text><path fill="none" stroke="#1e1e1e" stroke-linecap="round" d="M345.327 892.8c32.88.76 61.52-.59 123.57 0m-123.57 0c30.2.91 60.58.61 123.57 0m0 0c-1.82 6.79 1.5 13.08 0 30.82m0-30.82c-.24 9.56-.74 19.74 0 30.82m0 0c-44.53.29-91.2-.32-123.57 0m123.57 0c-45.2-1.83-90.61-1.04-123.57 0m0 0c-1.23-10.58-1.55-21.42 0-30.82m0 30.82c.68-9.42.7-16.73 0-30.82"/><path fill="none" stroke="#1e1e1e" stroke-linecap="round" d="M261.524 889.8c20.45-1.2 42.4-1.66 83.67 0m-83.67 0c16.14-.35 32.69-.25 83.67 0m0 0c1.36 8.63.41 18.33 0 35m0-35c-1.03 11.33.48 23.96 0 35m0 0c-33.81-1.64-62.58 1.14-83.67 0m83.67 0c-18.96-1.01-38.39.17-83.67 0m0 0c-1.08-13.43-.26-23.93 0-35m0 35c.48-12.59.56-25.47 0-35"/><text x="14.634" fill="#1e1e1e" fill-opacity=".9" stroke-opacity=".9" dominant-baseline="text-before-edge" font-family="Virgil, Segoe UI Emoji" font-size="19.677" style="white-space:pre" text-anchor="middle" transform="translate(288.724 895.002)">ptr</text><path fill="none" stroke="#1e1e1e" stroke-linecap="round" d="M346.196 960.093c28.26.14 59.86-.32 123.29 0m-123.29 0c28.89-.19 58.93 1.47 123.29 0m0 0c1.12 9.6-1.4 18.99 0 35m0-35c1.04 7.42-.15 13.78 0 35m0 0c-30.13 1.46-59.47 1.6-123.29 0m123.29 0c-34.18.77-69.54.61-123.29 0m0 0c1.53-6.68-1.58-14.77 0-35m0 35c-.43-12.31-1.1-23.76 0-35"/><text x="6.078" fill="#1e1e1e" fill-opacity=".9" stroke-opacity=".9" dominant-baseline="text-before-edge" font-family="Virgil, Segoe UI Emoji" font-size="19.677" style="white-space:pre" text-anchor="middle" transform="translate(401.764 965.294)">5</text><path fill="none" stroke="#1e1e1e" stroke-linecap="round" d="M261.524 959.4c20.48-1.2 42.38-.5 83.67 0m-83.67 0c18.12-.34 36.77-.2 83.67 0m0 0c-2.07 10.35-1.28 19.89 0 35m0-35c-.8 11.44.59 20.82 0 35m0 0c-27.89.81-53.01 1.2-83.67 0m83.67 0c-21.93-.73-42.39.21-83.67 0m0 0c1.21-11.39 1.56-26.29 0-35m0 35c-.05-8.99.15-20.39 0-35"/><text x="16.346" fill="#1e1e1e" fill-opacity=".9" stroke-opacity=".9" dominant-baseline="text-before-edge" font-family="Virgil, Segoe UI Emoji" font-size="19.677" style="white-space:pre" text-anchor="middle" transform="translate(287.013 964.601)">cap</text><path fill="none" stroke="#1e1e1e" stroke-linecap="round" stroke-width="2" d="M697.766 1064.302h111.83m-111.83 0h111.83m0 0v35m0-35v35m0 0h-111.83m111.83 0h-111.83m0 0v-35m0 35v-35"/><text x="5.38" fill="#1e1e1e" fill-opacity=".9" stroke-opacity=".9" dominant-baseline="text-before-edge" font-family="Virgil, Segoe UI Emoji" font-size="19.677" style="white-space:pre" text-anchor="middle" transform="translate(748.304 1069.503)">e</text><path fill="none" stroke="#1e1e1e" stroke-linecap="round" stroke-width="2" d="M613.963 1064.302h83.67m-83.67 0h83.67m0 0v35m0-35v35m0 0h-83.67m83.67 0h-83.67m0 0v-35m0 35v-35"/><text x="2.665" fill="#1e1e1e" fill-opacity=".9" stroke-opacity=".9" dominant-baseline="text-before-edge" font-family="Virgil, Segoe UI Emoji" font-size="19.677" style="white-space:pre" text-anchor="middle" transform="translate(653.133 1069.503)">1</text><path fill="none" stroke="#1e1e1e" stroke-linecap="round" stroke-width="2" d="M697.56 1170.07h112.03m-112.03 0h112.03m0 0v35m0-35v35m0 0H697.56m112.03 0H697.56m0 0v-35m0 35v-35"/><text x="5.449" fill="#1e1e1e" fill-opacity=".9" stroke-opacity=".9" dominant-baseline="text-before-edge" font-family="Virgil, Segoe UI Emoji" font-size="19.677" style="white-space:pre" text-anchor="middle" transform="translate(748.126 1175.271)">o</text><path fill="none" stroke="#1e1e1e" stroke-linecap="round" stroke-width="2" d="M613.756 1170.07h83.67m-83.67 0h83.67m0 0v35m0-35v35m0 0h-83.67m83.67 0h-83.67m0 0v-35m0 35v-35"/><text x="6.294" fill="#1e1e1e" fill-opacity=".9" stroke-opacity=".9" dominant-baseline="text-before-edge" font-family="Virgil, Segoe UI Emoji" font-size="19.677" style="white-space:pre" text-anchor="middle" transform="translate(649.297 1175.271)">4</text><path fill="none" stroke="#1e1e1e" stroke-linecap="round" stroke-width="2" d="M697.766 1028.502h111.2m-111.2 0h111.2m0 0v35m0-35v35m0 0h-111.2m111.2 0h-111.2m0 0v-35m0 35v-35"/><text x="4.858" fill="#1e1e1e" fill-opacity=".9" stroke-opacity=".9" dominant-baseline="text-before-edge" font-family="Virgil, Segoe UI Emoji" font-size="19.677" style="white-space:pre" text-anchor="middle" transform="translate(748.508 1033.704)">h</text><path fill="none" stroke="#1e1e1e" stroke-linecap="round" stroke-width="2" d="M613.963 1028.502h83.67m-83.67 0h83.67m0 0v35m0-35v35m0 0h-83.67m83.67 0h-83.67m0 0v-35m0 35v-35"/><text x="6.766" fill="#1e1e1e" fill-opacity=".9" stroke-opacity=".9" dominant-baseline="text-before-edge" font-family="Virgil, Segoe UI Emoji" font-size="19.677" style="white-space:pre" text-anchor="middle" transform="translate(649.032 1033.704)">0</text><path fill="none" stroke="#1e1e1e" stroke-linecap="round" stroke-width="2" d="M697.766 1099.101h111.47m-111.47 0h111.47m0 0v35m0-35v35m0 0h-111.47m111.47 0h-111.47m0 0v-35m0 35v-35"/><text x="2.587" fill="#1e1e1e" fill-opacity=".9" stroke-opacity=".9" dominant-baseline="text-before-edge" font-family="Virgil, Segoe UI Emoji" font-size="19.677" style="white-space:pre" text-anchor="middle" transform="translate(750.915 1104.303)">l</text><path fill="none" stroke="#1e1e1e" stroke-linecap="round" stroke-width="2" d="M613.963 1099.101h83.67m-83.67 0h83.67m0 0v35m0-35v35m0 0h-83.67m83.67 0h-83.67m0 0v-35m0 35v-35"/><text x="7.003" fill="#1e1e1e" fill-opacity=".9" stroke-opacity=".9" dominant-baseline="text-before-edge" font-family="Virgil, Segoe UI Emoji" font-size="19.677" style="white-space:pre" text-anchor="middle" transform="translate(648.795 1104.303)">2</text><path fill="none" stroke="#1e1e1e" stroke-linecap="round" stroke-width="2" d="M697.766 1133.9h111.45m-111.45 0h111.45m0 0v35m0-35v35m0 0h-111.45m111.45 0h-111.45m0 0v-35m0 35v-35"/><text x="2.587" fill="#1e1e1e" fill-opacity=".9" stroke-opacity=".9" dominant-baseline="text-before-edge" font-family="Virgil, Segoe UI Emoji" font-size="19.677" style="white-space:pre" text-anchor="middle" transform="translate(750.907 1139.103)">l</text><path fill="none" stroke="#1e1e1e" stroke-linecap="round" stroke-width="2" d="M613.963 1133.9h83.67m-83.67 0h83.67m0 0v35m0-35v35m0 0h-83.67m83.67 0h-83.67m0 0v-35m0 35v-35"/><text x="6.698" fill="#1e1e1e" fill-opacity=".9" stroke-opacity=".9" dominant-baseline="text-before-edge" font-family="Virgil, Segoe UI Emoji" font-size="19.677" style="white-space:pre" text-anchor="middle" transform="translate(649.1 1139.103)">3</text><g stroke-linecap="round"><path fill="none" fill-opacity=".9" stroke="#1971c2" stroke-opacity=".9" stroke-width="4" d="M473.441 909.01c51.39 49.48 99.22 98.97 132.71 136.28m-132.71-136.28c45.18 45.14 90.34 92.32 132.71 136.28"/><g fill-opacity=".9" stroke-opacity=".9"><path fill="#1971c2" fill-rule="evenodd" stroke-width="0" d="m606.181 1045.6-14.09-7.66 7.58-8.27 5.83 15.78"/><path fill="none" stroke="#1971c2" stroke-width="4" d="M606.151 1045.29c-4.29-2.11-10.77-5.12-14-5.39m14 5.39c-4.91-2.33-10.2-4.06-14-5.39m0 0c3.23-2.49 5.46-4.79 9.13-8.79m-9.13 8.79c3.05-2.62 5.81-5.53 9.13-8.79m0 0c.07 4.9 2.1 7.54 4.87 14.18m-4.87-14.18c2.31 5.73 3.6 10.47 4.87 14.18m0 0q0 0 0 0m0 0q0 0 0 0"/></g></g><g stroke-linecap="round"><path fill="#b2f2bb" stroke-width="0" d="m261.165 854.254 82.12.53.96 36.59-84.36-.36"/><path fill="none" stroke="#1e1e1e" d="M261.225 856.214c31.46-1.51 64.62-.55 83.67 0m-83.67 0c31.17.05 64.12 1.52 83.67 0m0 0c-.63 10.69-.06 16.71 0 35m0-35c.77 6.78-.24 14.1 0 35m0 0c-23.35.91-44.42.18-83.67 0m83.67 0c-23.48.24-46.06.36-83.67 0m0 0c-1.3-10.18 1.01-21.49 0-35m0 35c.23-10.5.12-19.98 0-35"/></g><text x="22.758" fill="#1e1e1e" fill-opacity=".9" stroke-opacity=".9" dominant-baseline="text-before-edge" font-family="Virgil, Segoe UI Emoji" font-size="19.677" style="white-space:pre" text-anchor="middle" transform="translate(280.303 861.416)">name</text><g stroke-linecap="round"><path fill="#b2f2bb" stroke-width="0" d="m345.69 856.975 122.88-.36 1.67 37.1-125.06-.93"/><path fill="none" stroke="#1e1e1e" d="M346.34 856.815c28.66.15 52.49-1.09 123.57 0m-123.57 0c29.18-.81 59.39-1.42 123.57 0m0 0c-1.73 14.07-.4 27.45 0 35m0-35c-.4 7.27.67 15.76 0 35m0 0c-38.92 1.09-75.97-.34-123.57 0m123.57 0c-34.39.13-69.29-.72-123.57 0m0 0c-.44-11.44-.49-21.45 0-35m0 35c-.04-9.99-.81-18.73 0-35"/></g><text x="25.256" fill="#1e1e1e" fill-opacity=".9" stroke-opacity=".9" dominant-baseline="text-before-edge" font-family="Virgil, Segoe UI Emoji" font-size="19.677" style="white-space:pre" text-anchor="middle" transform="translate(382.87 862.016)">value</text><g stroke-linecap="round"><path fill="#a5d8ff" stroke-width="0" d="M697.993 995.475h111.2v35h-111.2"/><path fill="none" stroke="#1e1e1e" stroke-width="2" d="M697.993 995.475h111.2m-111.2 0h111.2m0 0v35m0-35v35m0 0h-111.2m111.2 0h-111.2m0 0v-35m0 35v-35"/></g><text x="25.256" fill="#1e1e1e" fill-opacity=".9" stroke-opacity=".9" dominant-baseline="text-before-edge" font-family="Virgil, Segoe UI Emoji" font-size="19.677" style="white-space:pre" text-anchor="middle" transform="translate(728.337 1000.677)">value</text><g stroke-linecap="round"><path fill="#a5d8ff" stroke-width="0" d="M614.19 995.475h83.67v35h-83.67"/><path fill="none" stroke="#1e1e1e" stroke-width="2" d="M614.19 995.475h83.67m-83.67 0h83.67m0 0v35m0-35v35m0 0h-83.67m83.67 0h-83.67m0 0v-35m0 35v-35"/></g><text x="23.25" fill="#1e1e1e" fill-opacity=".9" stroke-opacity=".9" dominant-baseline="text-before-edge" font-family="Virgil, Segoe UI Emoji" font-size="19.677" style="white-space:pre" text-anchor="middle" transform="translate(632.775 1000.677)">index</text><text fill="#1e1e1e" fill-opacity=".9" stroke-opacity=".9" dominant-baseline="text-before-edge" font-family="Virgil, Segoe UI Emoji" font-size="20" style="white-space:pre" transform="translate(134.38 898.1)">字符串</text><text fill="#1e1e1e" dominant-baseline="text-before-edge" font-family="Virgil, Segoe UI Emoji" font-size="20" style="white-space:pre" transform="translate(677.794 960.133)">heap</text><text fill="#1e1e1e" dominant-baseline="text-before-edge" font-family="Virgil, Segoe UI Emoji" font-size="20" style="white-space:pre" transform="translate(335.968 820.683)">stack</text><path fill="none" stroke="#1e1e1e" stroke-linecap="round" d="M349.687 1139.094c41.24-1.56 83.54-1.26 122.84 0m-122.84 0c28.27.99 56.06.05 122.84 0m0 0c-.25 14.66.01 25.8 0 35m0-35c-.1 11.91-.56 22.61 0 35m0 0c-34.05.18-66.09.09-122.84 0m122.84 0c-25.13-.8-50.28-.98-122.84 0m0 0c.64-11.53-2.03-21.33 0-35m0 35c.37-11.08 1.07-23.14 0-35"/><text x="7.003" fill="#1e1e1e" fill-opacity=".9" stroke-opacity=".9" dominant-baseline="text-before-edge" font-family="Virgil, Segoe UI Emoji" font-size="19.677" style="white-space:pre" text-anchor="middle" transform="translate(404.105 1144.295)">2</text><path fill="none" stroke="#1e1e1e" stroke-linecap="round" d="M265.884 1140.094c20.27 1.83 42.97.45 83.67 0m-83.67 0c32.05.71 62.69-.06 83.67 0m0 0c.46 12.39-1.25 27.25 0 35m0-35c-.42 12.26-.01 24.4 0 35m0 0c-27.18-1.63-51.87-.67-83.67 0m83.67 0c-25.61.87-52.12.4-83.67 0m0 0c.99-11.18 1.37-19.13 0-35m0 35c.05-13.4-1.25-25.48 0-35"/><text x="12.559" fill="#1e1e1e" fill-opacity=".9" stroke-opacity=".9" dominant-baseline="text-before-edge" font-family="Virgil, Segoe UI Emoji" font-size="19.677" style="white-space:pre" text-anchor="middle" transform="translate(295.16 1145.295)">len</text><path fill="none" stroke="#1e1e1e" stroke-linecap="round" d="M349.687 1108.294c48.55-.64 93.72 1.25 123.57 0m-123.57 0c44.66.18 87.56.52 123.57 0m0 0c.91 6.77-.43 14.4 0 30.82m0-30.82c.06 8.93.01 16.58 0 30.82m0 0c-26.97-1.74-54.46-.07-123.57 0m123.57 0c-49.05-.25-97.23.95-123.57 0m0 0c1.08-5.33.39-13.22 0-30.82m0 30.82c.04-6.92.26-13.9 0-30.82M265.884 1105.294c25.7 1.6 53.27.17 83.67 0m-83.67 0c23.23.32 45.97-.53 83.67 0m0 0c-.05 10.25-.11 21.94 0 35m0-35c-.02 8.03-.8 17.3 0 35m0 0c-22.59-.24-42.89-1.72-83.67 0m83.67 0c-28.75-.36-59.05-.17-83.67 0m0 0c.34-10.23-1.64-23.72 0-35m0 35c.05-9.91 1.06-20.45 0-35"/><text x="14.634" fill="#1e1e1e" fill-opacity=".9" stroke-opacity=".9" dominant-baseline="text-before-edge" font-family="Virgil, Segoe UI Emoji" font-size="19.677" style="white-space:pre" text-anchor="middle" transform="translate(293.085 1110.496)">ptr</text><g stroke-linecap="round"><path fill="#b2f2bb" stroke-width="0" d="m263.866 1073.538 87.23-1.57-2.71 35.98-83.82-2.81"/><path fill="none" stroke="#1e1e1e" d="M265.586 1071.708c30.48 1.74 61.66-.05 83.67 0m-83.67 0c27.27 1.06 53.98.39 83.67 0m0 0c-.91 9.49.25 18.86 0 35m0-35c-.6 7.15-.95 14.04 0 35m0 0c-25.48-.95-54.6.32-83.67 0m83.67 0c-27.88 1.07-55.18.73-83.67 0m0 0c.03-12.16.51-23.38 0-35m0 35c-.3-10.83-.8-21.74 0-35"/></g><text x="22.758" fill="#1e1e1e" fill-opacity=".9" stroke-opacity=".9" dominant-baseline="text-before-edge" font-family="Virgil, Segoe UI Emoji" font-size="19.677" style="white-space:pre" text-anchor="middle" transform="translate(284.663 1076.91)">name</text><g stroke-linecap="round"><path fill="#b2f2bb" stroke-width="0" d="m349.83 1073.549 123.42-2.81-.93 35.87-122.53.47"/><path fill="none" stroke="#1e1e1e" d="M350.7 1072.309c48.24-1.09 94.28.24 123.57 0m-123.57 0c43.53 0 87.77-.27 123.57 0m0 0c-1.9 8.94-1.37 20.45 0 35m0-35c-.07 11.73-.81 22.05 0 35m0 0c-33.47-1-67.26.72-123.57 0m123.57 0c-44.45-.37-90.54.24-123.57 0m0 0c.36-7.66-.48-19.12 0-35m0 35c-.7-10.92 1.08-23.53 0-35"/></g><text x="25.256" fill="#1e1e1e" fill-opacity=".9" stroke-opacity=".9" dominant-baseline="text-before-edge" font-family="Virgil, Segoe UI Emoji" font-size="19.677" style="white-space:pre" text-anchor="middle" transform="translate(387.23 1077.51)">value</text><g stroke-linecap="round"><path fill="none" stroke="#1971c2" stroke-width="4" d="M472.93 1126.488c19.23-8.38 96.13-41.88 115.36-50.26m-115.36 50.26c19.23-8.38 96.13-41.88 115.36-50.26"/><path fill="#1971c2" fill-rule="evenodd" stroke-width="0" d="m588.29 1076.228-9.93 11.24-5.07-11.62z"/><path fill="none" stroke="#1971c2" stroke-width="4" d="M588.29 1076.228c-2.42 2.73-4.83 5.47-9.93 11.24m9.93-11.24c-2.83 3.2-5.66 6.4-9.93 11.24m0 0c-1.11-2.55-2.23-5.1-5.07-11.62m5.07 11.62c-2-4.59-4-9.18-5.07-11.62m0 0c3.38.08 6.75.17 15 .38m-15-.38c3.43.08 6.87.17 15 .38m0 0q0 0 0 0m0 0q0 0 0 0"/></g><text fill="#1e1e1e" dominant-baseline="text-before-edge" font-family="Helvetica, Segoe UI Emoji" font-size="20" style="white-space:pre" transform="translate(10 932.058)">let s = String::from(&quot;hello&quot;);</text><text fill="#1e1e1e" dominant-baseline="text-before-edge" font-family="Helvetica, Segoe UI Emoji" font-size="20" style="white-space:pre" transform="translate(78.742 1120.572)">let slice = &amp;s[1..3];</text><path fill="none" stroke="#1e1e1e" stroke-linecap="round" stroke-width="2" d="M604.426 1066.933c-2.83 3.51-13.14 15.13-17.46 21.42s-8.72 11.37-8.45 16.33c.28 4.97 4.93 8.95 10.08 13.45 5.16 4.5 17.44 11.32 20.84 13.54m-6.4-66.06c-2.95 3.76-12.79 17.74-17.01 24.37s-8.68 10.6-8.29 15.4 4.99 8.95 10.6 13.4c5.62 4.46 19.47 11.4 23.08 13.33"/><text fill="#1e1e1e" dominant-baseline="text-before-edge" font-family="Helvetica, Segoe UI Emoji" font-size="20" style="white-space:pre" transform="translate(142.964 1086.109)">切片</text></svg>