<svg xmlns="http://www.w3.org/2000/svg" width="296" height="425" preserveAspectRatio="none" style="width:296px;height:425px;background:#fff"><defs><filter id="a" width="300%" height="300%" x="-1" y="-1"><feGaussianBlur result="blurOut" stdDeviation="2"/><feColorMatrix in="blurOut" result="blurOut2" values="0 0 0 0 0 0 0 0 0 0 0 0 0 0 0 0 0 0 .4 0"/><feOffset dx="4" dy="4" in="blurOut2" result="blurOut3"/><feBlend in="SourceGraphic" in2="blurOut3"/></filter></defs><text x="224" y="19.282" fill="#888" font-family="sans-serif" font-size="10" textLength="52">made by x</text><text x="95" y="45.636" font-family="sans-serif" font-size="14" font-weight="bold" textLength="96">unsafe的作用</text><rect width="52" height="40.297" x="10" y="206.828" fill="#A8EB99" filter="url(#a)" rx="7.5" ry="7.5" style="stroke:#000;stroke-width:1"/><text x="22" y="231.823" font-family="sans-serif" font-size="14" textLength="28">作用</text><rect width="94" height="40.297" x="112" y="69.938" fill="#FBE972" filter="url(#a)" rx="7.5" ry="7.5" style="stroke:#000;stroke-width:1"/><text x="124" y="94.933" font-family="sans-serif" font-size="14" textLength="70">裸指针操作</text><path fill="none" d="M62 226.977h10c15 0 15-136.891 30-136.891h10" style="stroke:green;stroke-width:1;stroke-dasharray:5,5"/><rect width="165" height="40.297" x="112" y="130.234" fill="#FBE972" filter="url(#a)" rx="7.5" ry="7.5" style="stroke:#000;stroke-width:1"/><text x="124" y="155.23" font-family="sans-serif" font-size="14" textLength="141">调用外部函数接口(FFI)</text><path fill="none" d="M62 226.977h10c15 0 15-76.594 30-76.594h10" style="stroke:green;stroke-width:1;stroke-dasharray:5,5"/><rect width="136" height="40.297" x="112" y="190.531" fill="#FBE972" filter="url(#a)" rx="7.5" ry="7.5" style="stroke:#000;stroke-width:1"/><text x="124" y="215.526" font-family="sans-serif" font-size="14" textLength="112">修改可变静态变量</text><path fill="none" d="M62 226.977h10c15 0 15-16.297 30-16.297h10" style="stroke:green;stroke-width:1;stroke-dasharray:5,5"/><rect width="150" height="56.594" x="112" y="250.828" fill="#FBE972" filter="url(#a)" rx="7.5" ry="7.5" style="stroke:#000;stroke-width:1"/><text x="124" y="275.823" font-family="sans-serif" font-size="14" textLength="126">定义和实现不安全的</text><text x="174" y="292.12" font-family="sans-serif" font-size="14" textLength="26">trait</text><path fill="none" d="M62 226.977h10c15 0 15 52.148 30 52.148h10" style="stroke:green;stroke-width:1;stroke-dasharray:5,5"/><rect width="150" height="56.594" x="112" y="327.422" fill="#FBE972" filter="url(#a)" rx="7.5" ry="7.5" style="stroke:#000;stroke-width:1"/><text x="173" y="352.417" font-family="sans-serif" font-size="14" textLength="28">修饰</text><text x="124" y="368.714" font-family="sans-serif" font-size="14" textLength="126">不安全的函数或方法</text><path fill="none" d="M62 226.977h10c15 0 15 128.742 30 128.742h10" style="stroke:green;stroke-width:1;stroke-dasharray:5,5"/><text x="129.5" y="408.011" font-family="sans-serif" font-size="14" textLength="27">图 1</text></svg>