<svg xmlns="http://www.w3.org/2000/svg" width="500" height="1255.208" preserveAspectRatio="none" style="width:500px;height:1255px" viewBox="0 0 500 1255"><path fill="none" d="M311.458 17.708v.22l10.278-.651 10.278.633 10.278.215 10.277-1.16 10.278.662 10.278-.363 10.278.045 10.278.328 10.277-.649 10.278 1.297 10.278-1.233 10.278.45 10.277.656 10.278-.539 10.278.09.01.021.575.212.617.312.598.263.635.355.511.057.215.089.247.59.108.533.311.617.32.621.02.496h-.752l1.458 10.601-1.015 10.602.865 10.601-1.072 10.602.444 10.6.844 10.602-.823 10.602.16 10.6.243 10.602.081 10.602-.437 10.601.303 10.601-.896 10.602.893 10.601.275 10.601-.108 10.602.175 10.601-1.142 10.602-.176 10.6.032 10.602.586 10.602-.143 10.601.205 10.601.218.09-.518.476-.299.567-.06.666-.532.47-.03.678-.069-.167-.434.619-.617.176-.55.34-.73-.095-.546.347v.332l-10.278.283-10.278-1.107-10.277.392-10.278.231-10.278.548-10.278-.683-10.277.486-10.278-1.059-10.278-.128-10.278 1.23-10.278-1.272-10.277 1.277-10.278-.315-10.278-.494-10.278.279-.047-.113-.481.016-.69-.487-.47.042-.742-.612-.516-.066.198.082-.287-.607-.32-.621-.308-.616-.026-.499-.477-.686h.639l-.463-10.601.103-10.601-.415-10.602.882-10.601-.585-10.601.018-10.602-.813-10.601.212-10.602.974-10.6-.105-10.602-.492-10.602-.29-10.601.107-10.601-.487-10.602 1.147-10.601.338-10.601-.222-10.602.176-10.601-.867-10.602.233-10.6-.494-10.602.7-10.602-.296-10.601.079.033.342-.549-.007-.693.275-.577.43-.512.101-.648.075.182.446-.59.632-.143.635-.134.488-.488z" style="stroke:#333;stroke-width:1.0416666666666667"/><path fill="none" d="m361.516 39.147-1.527 2.086-1.806 3.056-2.583 2.06-2.714 1.125-2.164.098-2.782-1.408-2.625-.92-1.992-1.869-1.044-2.138-.62-1.703-.607-2.224-.986-1.914.758-1.87.663-2.046 2.49-1.62 1.751-2.1 2.168-.698 2.578-.6 3.305.356 1.81.854 2.105.387 2.559 2.622.892 2.768.388 1.889-.44 3.112z" style="stroke:#2e2e2e;stroke-width:1.0416666666666667"/><path fill="#2E2E2E" d="M349.984 37.15q-1.58-.602-2.149-1.27-.57-.667-.57-1.79 0-1.448.928-2.262.928-.83 2.556-.83.732 0 1.464.179.733.163 1.45.488v2.05q-.685-.488-1.384-.732-.684-.244-1.368-.244-.764 0-1.171.31-.407.293-.407.862 0 .44.293.733t1.237.634l.911.342q1.27.472 1.872 1.253.618.782.618 1.954 0 1.61-.96 2.408-.944.798-2.864.798-.798 0-1.596-.195-.78-.196-1.53-.554v-2.18q.847.601 1.628.894t1.563.293q.764 0 1.188-.341.44-.358.44-.993 0-.489-.294-.847-.276-.358-.814-.57z"/><text x="376.042" y="41.662" fill="#555" font-family="Segoe Print" font-size="14.583" textLength="56.25">redisDb</text><path fill="none" d="M308.333 55.518v.291l10.695-.867 10.694.844 10.695.287 10.694-1.546 10.695.883 10.694-.485 10.694.06 10.695.438 10.694-.866 10.695 1.73 10.694-1.645 10.695.6 10.694.876 10.695-.72 10.694.12" style="stroke:#333;stroke-width:1.0416666666666667"/><text x="318.75" y="78.429" fill="#555" font-family="Segoe Print" font-size="14.583" textLength="63.542">dict *dict</text><path fill="none" d="M308.333 91.244v.291l10.695-.867 10.694.844 10.695.287 10.694-1.546 10.695.883 10.694-.485 10.694.06 10.695.438 10.694-.866 10.695 1.73 10.694-1.645 10.695.6 10.694.875 10.695-.719 10.694.12" style="stroke:#333;stroke-width:1.0416666666666667;stroke-dasharray:1,2"/><text x="318.75" y="114.155" fill="#555" font-family="Segoe Print" font-size="14.583" textLength="89.583">dict *expires</text><path fill="none" d="M308.333 126.97v.291l10.695-.867 10.694.844 10.695.287 10.694-1.546 10.695.883 10.694-.485 10.694.06 10.695.438 10.694-.866 10.695 1.73 10.694-1.645 10.695.6 10.694.875 10.695-.719 10.694.12" style="stroke:#333;stroke-width:1.0416666666666667;stroke-dasharray:1,2"/><text x="318.75" y="149.881" fill="#555" font-family="Segoe Print" font-size="14.583" textLength="138.542">dict *blocking_keys</text><path fill="none" d="M308.333 162.695v.292l10.695-.867 10.694.844 10.695.286 10.694-1.546 10.695.883 10.694-.484 10.694.06 10.695.438 10.694-.866 10.695 1.73 10.694-1.645 10.695.6 10.694.875 10.695-.719 10.694.12" style="stroke:#333;stroke-width:1.0416666666666667;stroke-dasharray:1,2"/><text x="318.75" y="185.607" fill="#555" font-family="Segoe Print" font-size="14.583" textLength="117.708">dict *ready_keys</text><path fill="none" d="M308.333 198.421v.292l10.695-.867 10.694.844 10.695.286 10.694-1.546 10.695.883 10.694-.484 10.694.06 10.695.438 10.694-.866 10.695 1.73 10.694-1.645 10.695.6 10.694.875 10.695-.719 10.694.12" style="stroke:#333;stroke-width:1.0416666666666667;stroke-dasharray:1,2"/><text x="318.75" y="221.333" fill="#555" font-family="Segoe Print" font-size="14.583" textLength="139.583">dict *watched_keys</text><path fill="none" d="M308.333 234.147v.292l10.695-.867 10.694.844 10.695.286 10.694-1.546 10.695.883 10.694-.484 10.694.06 10.695.438 10.694-.866 10.695 1.73 10.694-1.645 10.695.6 10.694.875 10.695-.719 10.694.12" style="stroke:#333;stroke-width:1.0416666666666667;stroke-dasharray:1,2"/><text x="318.75" y="257.059" fill="#555" font-family="Segoe Print" font-size="14.583" textLength="34.375">int id</text><path fill="none" d="M307.292 332.375v.219l10.156-.65 10.156.632 10.156.215 10.157-1.16 10.156.663 10.156-.363 10.156.045 10.157.328 10.156-.65 10.156 1.298 10.156-1.233 10.157.45 10.156.656 10.156-.54 10.156.161 10.157-.071-.005-.01.618.311.597.264.635.355.6.272.5.028.219.09.108.534.31.617.321.62-.212.4.475.686h.707l-1.016 10.405.865 10.405-1.071 10.406.444 10.405.844 10.405-.823 10.405.16 10.406.243 10.405.08 10.405-.437 10.405.303 10.406-.895 10.405.893 10.405.274 10.406-.108 10.405.176 10.405-1.142 10.405-.176 10.406.032 10.405.647 10.405-.019-.008-.288.571.038.706-.519.476-.298.567-.134.634.03.074-.708-.043-.57.291-.434.619-.617.176-.647.104v.765l-10.157-1.1-10.156.667-10.156.283-10.156-1.107-10.157.392-10.156.231-10.156.548-10.156-.684-10.157.487-10.156-1.06-10.156-.128-10.156 1.23-10.157-1.271-10.156 1.277-10.156-.315-10.156-.215-.036-.086-.6-.272-.482.017-.69-.487-.47.041-.669-.434-.177-.073.131-.434-.286-.607-.321-.62-.308-.616-.259-.596h.757l-.118-10.405-.463-10.405.103-10.406-.415-10.405.882-10.405-.585-10.405.019-10.406-.814-10.405.212-10.405.975-10.406-.105-10.405-.493-10.405-.29-10.405.107-10.406-.487-10.405 1.147-10.405.338-10.406-.222-10.405.176-10.405-.724-10.405-.044-.018.316-.56.092-.652.46-.5.231-.595.165-.622.074.178.485-.495.602-.214.666-.059.606-.204z" style="stroke:#333;stroke-width:1.0416666666666667"/><path fill="none" d="m376.62 353.813-1.527 2.087-1.806 3.055-2.583 2.06-2.714 1.126-2.164.098-2.782-1.409-2.624-.92-1.992-1.868-1.045-2.138-.62-1.703-.607-2.225-.986-1.914.758-1.869.663-2.047 2.49-1.619 1.751-2.1 2.168-.698 2.578-.6 3.305.356 1.81.854 2.105.387 2.56 2.622.891 2.768.388 1.888-.44 3.113z" style="stroke:#2e2e2e;stroke-width:1.0416666666666667"/><path fill="#2E2E2E" d="M365.088 351.817q-1.579-.603-2.149-1.27t-.57-1.79q0-1.449.928-2.262.928-.83 2.556-.83.732 0 1.465.178.732.163 1.448.489v2.05q-.683-.488-1.383-.732-.684-.244-1.367-.244-.765 0-1.172.31-.407.292-.407.862 0 .44.293.732.293.293 1.237.635l.911.342q1.27.472 1.872 1.253.618.781.618 1.953 0 1.611-.96 2.409-.944.798-2.864.798-.798 0-1.595-.196-.782-.195-1.53-.553v-2.181q.846.602 1.627.895t1.563.293q.765 0 1.188-.342.44-.358.44-.993 0-.488-.294-.846-.276-.358-.813-.57z"/><text x="391.146" y="356.328" fill="#555" font-family="Segoe Print" font-size="14.583" textLength="26.042">dict</text><path fill="none" d="M304.167 370.184v.292l10.547-.867 10.546.844 10.547.286 10.547-1.546 10.547.883 10.547-.484 10.547.06 10.547.438 10.547-.866 10.546 1.73 10.547-1.645 10.547.6 10.547.875 10.547-.719 10.547.214 10.547-.095" style="stroke:#333;stroke-width:1.0416666666666667"/><text x="314.583" y="393.096" fill="#555" font-family="Segoe Print" font-size="14.583" textLength="104.167">dictType *type</text><path fill="none" d="M304.167 405.91v.292l10.547-.867 10.546.844 10.547.286 10.547-1.546 10.547.883 10.547-.484 10.547.06 10.547.438 10.547-.866 10.546 1.73 10.547-1.645 10.547.6 10.547.875 10.547-.719 10.547.214 10.547-.095" style="stroke:#333;stroke-width:1.0416666666666667;stroke-dasharray:1,2"/><text x="314.583" y="428.822" fill="#555" font-family="Segoe Print" font-size="14.583" textLength="96.875">void *privdata</text><path fill="none" d="M304.167 441.636v.292l10.547-.867 10.546.844 10.547.286 10.547-1.546 10.547.883 10.547-.484 10.547.06 10.547.437 10.547-.865 10.546 1.729 10.547-1.644 10.547.6 10.547.875 10.547-.72 10.547.215 10.547-.095" style="stroke:#333;stroke-width:1.0416666666666667;stroke-dasharray:1,2"/><text x="314.583" y="464.548" fill="#555" font-family="Segoe Print" font-size="14.583" textLength="79.167">dictht ht[2]</text><path fill="none" d="M304.167 477.362v.292l10.547-.868 10.546.844 10.547.287 10.547-1.546 10.547.883 10.547-.484 10.547.06 10.547.437 10.547-.865 10.546 1.729 10.547-1.644 10.547.6 10.547.875 10.547-.72 10.547.215 10.547-.095" style="stroke:#333;stroke-width:1.0416666666666667;stroke-dasharray:1,2"/><text x="314.583" y="500.274" fill="#555" font-family="Segoe Print" font-size="14.583" textLength="105.208">long rehashidx</text><path fill="none" d="M304.167 513.088v.292l10.547-.868 10.546.844 10.547.287 10.547-1.546 10.547.883 10.547-.485 10.547.06 10.547.438 10.547-.865 10.546 1.729 10.547-1.644 10.547.6 10.547.875 10.547-.72 10.547.215 10.547-.095" style="stroke:#333;stroke-width:1.0416666666666667;stroke-dasharray:1,2"/><text x="314.583" y="536" fill="#555" font-family="Segoe Print" font-size="14.583" textLength="147.917">int16_t pauserehash</text><path fill="#17A2B8" d="M16.667 408h.583l-1.734 10.957 1.688 10.957.573 10.957-3.092 10.957 1.982 10.957v-.216l10.416-.969 10.417.12 10.417.876 10.416-1.731 10.417 3.458 10.417-3.289 10.416 1.202L100 463.985l10.417-1.438 10.416.428 10.417-.279 10.417.585 10.416.168 10.417.963 10.417.237 10.416.023 10.417-1.18 10.417.58 10.416.664L225 460.782l10.417 3.888 10.416-2.709 10.417 2.307 10.417-1.483h-.459l.395-4.645.75-4.645-.731-4.645.142-4.646-.097-4.645.138.282 8.156 4.052 7.954 3.639 8.244 4.23 7.774 3.273 8.359 4.464.45.648-7.706-5.053-8.289-5.89-7.858-5.271-9.864-8.154-7.358-4.553h-.604l.028-2.562.521-2.562-.127-2.562.813-2.562-.631-2.561-.115-.115-2.193-2.193-1.71-1.71-2.669-2.669-1.987-1.987L256.25 408v1.803l-10.417-.593-10.416.83L225 407.106l-10.417 1.78-10.416.754-10.417-2.952-10.417 1.046-10.416.616-10.417 1.46-10.417-1.822-10.416 1.297-10.417-2.823-10.417-.343-10.416 3.28-10.417-3.39-10.417 3.405-10.416-.84-10.417-1.318-10.417-.239-10.416 2.257-10.417-2.106-10.417 2.476L16.667 408" style="stroke:#1592a6;stroke-width:1.0416666666666667"/><path fill="#17A2B8" d="M256.25 408h-.512l1.084 2.083-.124 2.084-.221 2.083-.183 2.083-.044 2.084v.673l2.083-.105 2.084-.412 2.083.092 2.083-.369 2.084.12.469.47-2.451-2.451-2.072-2.072-2.595-2.595-1.95-1.95L256.25 408" style="stroke:#1592a6;stroke-width:1.0416666666666667"/><text x="28.125" y="431.953" fill="#FFF" font-family="Segoe Print" font-size="14.583" textLength="217.708">哈希表,0号表示正在使用的哈希表</text><text x="28.125" y="448.929" fill="#FFF" font-family="Segoe Print" font-size="14.583" textLength="161.458">1号表示rehash的哈希表</text><path fill="none" d="M293.75 611.313v.218l10.532-.65 10.533.633 10.532.215 10.533-1.16 10.532.663 10.532-.364 10.533.045 10.532.328 10.533-.649 10.532 1.297 10.532-1.233 10.533.45 10.532.656 10.533-.539 10.532.16 10.533-.104 10.532.22 10.532-.187.032.077.635.356.601.27.59.248.533.107.556.163.148.062.321.62-.213.4.693.776-.068.46.339.628h.556l-1.072 10.14.445 10.14.844 10.14-.824 10.14.16 10.14.244 10.14.08 10.14-.437 10.14.303 10.14-.895 10.14.892 10.14.275 10.14-.108 10.14.176 10.14-1.142 10.14-.176 10.14.679 10.14-.2-.083-.063.664-.288.571.037.706-.518.476-.188.612-.046-.11-.513.427-.709-.043-.57.292-.433.619-.676.035v.454l-10.532.311-10.532-1.1-10.533.668-10.532.282-10.533-1.107-10.532.393-10.533.23-10.532.548-10.532-.683-10.533.486-10.532-1.058-10.533-.13-10.532 1.231-10.532-1.271-10.533 1.277-10.532-.315-10.533-.495-10.532.28-.047-.114-.481.016-.69-.487-.471.042-.741-.611-.516-.067.198.082-.287-.607-.32-.621-.308-.615-.026-.5-.478-.685h.64l-.463-10.14.103-10.14-.415-10.14.882-10.14-.585-10.14.018-10.14-.813-10.14.211-10.14.975-10.14-.105-10.14-.492-10.14-.291-10.14.107-10.14-.486-10.14 1.146-10.14.339-10.14-.77-10.14.168.07.298-.567-.022-.7.315-.559.092-.652.369-.538.038.091.584-.256.63-.146.485-.495.602-.213z" style="stroke:#333;stroke-width:1.0416666666666667"/><path fill="none" d="m369.328 632.75-1.526 2.087-1.807 3.056-2.582 2.06-2.715 1.125-2.164.098-2.781-1.408-2.625-.92-1.992-1.868-1.045-2.139-.62-1.703-.607-2.224-.985-1.914.757-1.869.663-2.047 2.49-1.62 1.752-2.1 2.168-.698 2.577-.6 3.305.357 1.81.853 2.105.387 2.56 2.622.892 2.768.387 1.889-.439 3.112z" style="stroke:#2e2e2e;stroke-width:1.0416666666666667"/><path fill="#2E2E2E" d="M357.796 630.754q-1.579-.602-2.148-1.27-.57-.667-.57-1.79 0-1.448.928-2.262.928-.83 2.555-.83.733 0 1.465.179.733.163 1.449.488v2.051q-.684-.488-1.384-.732-.683-.245-1.367-.245-.765 0-1.172.31-.407.293-.407.862 0 .44.293.733t1.237.635l.912.341q1.27.472 1.871 1.253.619.782.619 1.954 0 1.611-.96 2.409-.945.797-2.865.797-.798 0-1.595-.195-.781-.196-1.53-.554v-2.18q.846.602 1.628.894.78.293 1.562.293.765 0 1.188-.341.44-.358.44-.993 0-.488-.293-.846-.277-.359-.814-.57z"/><text x="383.854" y="635.266" fill="#555" font-family="Segoe Print" font-size="14.583" textLength="40.625">dictht</text><path fill="none" d="M290.625 649.122v.292l10.307-.868 10.307.844 10.307.287 10.307-1.546 10.307.883 10.307-.485 10.307.06 10.307.438 10.307-.865 10.307 1.729 10.307-1.645 10.307.601 10.307.875 10.307-.72 10.307.215 10.307-.14 10.307.293 10.307.084 10.307-.332" style="stroke:#333;stroke-width:1.0416666666666667"/><text x="301.042" y="672.033" fill="#555" font-family="Segoe Print" font-size="14.583" textLength="116.667">dictEntry **table</text><path fill="none" d="M290.625 684.848v.292l10.307-.868 10.307.844 10.307.287 10.307-1.546 10.307.883 10.307-.485 10.307.06 10.307.438 10.307-.866 10.307 1.73 10.307-1.645 10.307.601 10.307.875 10.307-.72 10.307.214 10.307-.139 10.307.293 10.307.084 10.307-.332" style="stroke:#333;stroke-width:1.0416666666666667;stroke-dasharray:1,2"/><text x="301.042" y="707.759" fill="#555" font-family="Segoe Print" font-size="14.583" textLength="136.458">unsigned long size</text><path fill="none" d="M290.625 720.574v.292l10.307-.868 10.307.844 10.307.287 10.307-1.546 10.307.883 10.307-.485 10.307.06 10.307.438 10.307-.866 10.307 1.73 10.307-1.645 10.307.6 10.307.875 10.307-.719 10.307.214 10.307-.139 10.307.293 10.307.084 10.307-.332" style="stroke:#333;stroke-width:1.0416666666666667;stroke-dasharray:1,2"/><text x="301.042" y="743.485" fill="#555" font-family="Segoe Print" font-size="14.583" textLength="175">unsigned long sizemask</text><path fill="none" d="M290.625 756.3v.291l10.307-.867 10.307.844 10.307.287 10.307-1.546 10.307.883 10.307-.485 10.307.06 10.307.438 10.307-.866 10.307 1.73 10.307-1.645 10.307.6 10.307.875 10.307-.719 10.307.214 10.307-.139 10.307.292 10.307.085 10.307-.332" style="stroke:#333;stroke-width:1.0416666666666667;stroke-dasharray:1,2"/><text x="301.042" y="779.211" fill="#555" font-family="Segoe Print" font-size="14.583" textLength="143.75">unsigned long used</text><path fill="none" d="M229.688 1062.02v.22l10.52-.65 10.521.632 10.521.215 10.52-1.16 10.522.663 10.52-.363 10.521.044 10.521.329 10.521-.65 10.52.72.074.178.432-.135.647.382.673.447.52.078.601.271.022.01.212.575.311.618.264.597.355.635.057.512h.699l.008 10.14-.442 10.14.217 10.14.249 10.14-1.483 10.14 1.458 10.14-1.015 10.14.865 10.14-1.072 10.14.444 10.14.844 10.14-.823 10.14.16 10.14.243 10.14.081 10.14-.438 10.14.005 10.14.092.037-.52.475.03.703-.159.625-.277.575-.387.53.082.197-.735-.108-.612.19-.585.254-.515.425-.581.263v-.205l-10.521.915-10.52-.892-10.522-.176-10.52.596-10.521-.933-10.521.154-10.521 1.217-10.52-.223-10.522.312-10.52-.765-.043-.103-.504-.039-.554-.157-.73-.585-.54-.123-.576-.214.04.017-.075-.52-.454-.676-.095-.527-.57-.724-.066-.516h-.706l1.23-10.14-1.271-10.14 1.277-10.14-.315-10.14-.494-10.14-.09-10.14.847-10.14-.79-10.14.928-10.14-1.192-10.14 1.219-10.14-.139-10.14-.249-10.14-.206-10.14.708-10.14-.118-10.14-.64-10.14.055.023.276-.576.116-.642.516-.477.064-.664.194-.61.023.056.486-.495.616-.179.713.056.576-.276z" style="stroke:#333;stroke-width:1.0416666666666667"/><path fill="orchid" d="m279.745 1083.46-1.527 2.085-1.806 3.056-2.583 2.06-2.714 1.126-2.164.098-2.782-1.409-2.624-.92-1.992-1.868-1.045-2.139-.62-1.703-.607-2.224-.986-1.914.758-1.869.663-2.047 2.49-1.619 1.751-2.1 2.168-.698 2.578-.601 3.305.357 1.81.854 2.105.387 2.56 2.622.891 2.768.388 1.888-.44 3.112z" style="stroke:#2e2e2e;stroke-width:1.0416666666666667"/><path fill="#2E2E2E" d="M265.332 1082.472v-6.706h2.1v7.226q0 .798.406 1.254t1.14.455q.716 0 1.123-.455.407-.456.407-1.254v-7.226h2.1v6.706q0 2.164-.863 3.157-.863.977-2.767.977t-2.783-.977q-.863-.993-.863-3.157"/><text x="294.271" y="1085.974" fill="#555" font-family="Segoe Print" font-size="14.583" textLength="7.292">v</text><path fill="none" d="M226.563 1099.83v.292l10.132-.867 10.133.843 10.132.287 10.133-1.546 10.132.883 10.133-.484 10.132.06 10.133.437 10.133-.865 10.132 1.729 10.133-.769" style="stroke:#333;stroke-width:1.0416666666666667"/><text x="236.979" y="1122.742" fill="#555" font-family="Segoe Print" font-size="14.583" textLength="59.375">void *val</text><path fill="none" d="M226.563 1135.556v.292l10.132-.868 10.133.844 10.132.287 10.133-1.546 10.132.883 10.133-.484 10.132.06 10.133.437 10.133-.865 10.132 1.729 10.133-.769" style="stroke:#333;stroke-width:1.0416666666666667;stroke-dasharray:1,2"/><text x="236.979" y="1158.468" fill="#555" font-family="Segoe Print" font-size="14.583" textLength="90.625">uint64_t u64</text><path fill="none" d="M226.563 1171.282v.292l10.132-.868 10.133.844 10.132.287 10.133-1.546 10.132.883 10.133-.485 10.132.06 10.133.438 10.133-.865 10.132 1.729 10.133-.77" style="stroke:#333;stroke-width:1.0416666666666667;stroke-dasharray:1,2"/><text x="236.979" y="1194.194" fill="#555" font-family="Segoe Print" font-size="14.583" textLength="80.208">int64_t s64</text><path fill="none" d="M226.563 1207.008v.292l10.132-.868 10.133.844 10.132.287 10.133-1.546 10.132.883 10.133-.485 10.132.06 10.133.438 10.133-.865 10.132 1.729 10.133-.77" style="stroke:#333;stroke-width:1.0416666666666667;stroke-dasharray:1,2"/><text x="236.979" y="1229.919" fill="#555" font-family="Segoe Print" font-size="14.583" textLength="63.542">double d</text><path fill="#17A2B8" d="M86.458 912.281h.195l-.578 5.895.562 5.896.191 5.895-1.03 5.895.66 5.895 4.167 4.167v-.216l9.994-.969 9.994.12 9.995.875 9.994-1.73 9.994 3.458 9.994-3.289 9.994 1.202 9.995 1.749 9.994-1.2-.212-.108 5.304 9.844 4.674 9.524 5.444 9.917 5.073 9.726 5.78 10.088 5.134 9.759 4.943 9.66 3.872 9.115 5.44 9.914 5.513 9.952 1.4 7.853 6.708 10.561 1.726.756-6.709-10.737-2.116-8.725-6.845-10.797-3.144-9.175-2.167-8.747-6.239-10.532-3.836-9.479-3.635-9.39-4.03-9.564-5.298-10.119-3.488-9.326-4.959-9.97v-1.59l10.365 2.38 10.364.733 10.365-.288 10.365.468 10.364-3.045 10.365-.47 10.364 1.812 4.167-4.167h-.575l.52-4.645-.127-4.645.813-4.645-.793-4.646.162-4.645-.225-.224-1.709-1.71-2.67-2.669-1.986-1.987-1.318-1.318-2.509-2.508v1.21l-10.286.83-10.287-2.934L224.35 909l-10.286.754-10.287-2.953-10.286 1.046-10.287.617-10.286 1.46-10.287-1.822-10.286 1.297-10.287-2.824-10.286-.343-10.287 3.28-10.286-3.39-10.286 3.405-10.287-1.413-4.167 4.166" style="stroke:#1592a6;stroke-width:1.0416666666666667"/><path fill="#17A2B8" d="M255.208 908.115h.195l-.578 1.666.562 1.667.191 1.667-1.03 1.666.66 1.667 2.084 2.083v-.072l1.666-.323 1.667.04 1.667.292 1.666-.577 1.667.64.363.363-2.859-2.859-1.8-1.8-1.671-1.67-2.423-2.423-2.027-2.027" style="stroke:#1592a6;stroke-width:1.0416666666666667"/><text x="97.917" y="932.068" fill="#FFF" font-family="Segoe Print" font-size="14.583" textLength="146.875">这是一个联合体 union</text><path fill="none" d="M305.73 854.531v.22l10.35-.651 10.352.633 10.352.215 10.351-1.16 10.352.662 10.351-.363 10.352.045 10.352.328 10.351-.649 10.352 1.297 10.351-1.233 10.352.45 10.352.656 10.351-.54 10.352.161 10.351-.07-.004-.011.617.312.598.263.635.355.6.272.5.029.218.09.108.533.311.617.32.62-.212.4.476.686h.707l-1.016 10.512.865 10.512-1.072 10.511.445 10.512.843 10.512-.823 10.512.16 10.512.244 10.512.08 10.511-.437 10.512.303 10.512-.895 10.512.596 10.512.091.037-.16.625-.277.575-.19.612-.595.443-.09.654-.086-.21-.585.255-.515.424-.607.2-.473.526-.68.025v-.182l-10.351-.175-10.352.595-10.351-.932-10.352.154-10.352 1.216-10.351-.222-10.352.311-10.351-1.1-10.352.668-10.351.282-10.352-1.107-10.352.392-10.351.231-10.352.548-10.351-.683-10.352.004.062.149-.725-.57-.605-.284-.433.135-.751-.636-.494-.014.163.067-.34-.629-.397-.652-.272-.6.017-.482-.392-.65h-.311l.928-10.512-1.192-10.512 1.219-10.512-.139-10.512-.25-10.511-.205-10.512.707-10.512-.117-10.512-.463-10.512.103-10.512-.415-10.511.882-10.512-.747-10.512.05.02.25-.586-.007-.693.31-.563.544-.465.074-.66.057.139.526-.396.553-.334.603-.21.527-.395z" style="stroke:#333;stroke-width:1.0416666666666667"/><path fill="none" d="m358.39 875.97-1.526 2.086-1.806 3.056-2.583 2.06-2.714 1.125-2.164.098-2.782-1.408-2.625-.92-1.992-1.869-1.044-2.138-.62-1.703-.607-2.224-.986-1.915.758-1.868.663-2.047 2.49-1.62 1.751-2.1 2.168-.698 2.578-.6 3.305.356 1.81.854 2.105.387 2.559 2.622.892 2.768.388 1.889-.44 3.112z" style="stroke:#2e2e2e;stroke-width:1.0416666666666667"/><path fill="#2E2E2E" d="M346.859 873.973q-1.58-.602-2.149-1.27-.57-.667-.57-1.79 0-1.448.928-2.262.928-.83 2.556-.83.732 0 1.464.179.733.162 1.45.488v2.05q-.685-.487-1.384-.732-.684-.244-1.368-.244-.764 0-1.171.31-.407.292-.407.862 0 .44.293.732.293.293 1.237.635l.911.342q1.27.472 1.872 1.253.618.781.618 1.953 0 1.612-.96 2.41-.944.797-2.864.797-.798 0-1.596-.196-.78-.195-1.53-.553v-2.18q.847.601 1.628.894t1.563.293q.764 0 1.188-.341.44-.359.44-.993 0-.489-.294-.847-.276-.358-.814-.57z"/><text x="372.917" y="878.485" fill="#555" font-family="Segoe Print" font-size="14.583" textLength="62.5">dictEntry</text><path fill="none" d="M302.604 892.34v.292l10.11-.867 10.11.844 10.111.287 10.11-1.546 10.11.883 10.11-.485 10.111.06 10.11.438 10.11-.866 10.111 1.73 10.11-1.645 10.11.6 10.111.875 10.11-.719 10.11.214 10.11-.139 10.111.044" style="stroke:#333;stroke-width:1.0416666666666667"/><text x="313.021" y="915.252" fill="#555" font-family="Segoe Print" font-size="14.583" textLength="65.625">void *key</text><path fill="none" d="M302.604 928.066v.292l10.11-.867 10.11.844 10.111.286 10.11-1.545 10.11.882 10.11-.484 10.111.06 10.11.438 10.11-.866 10.111 1.73 10.11-1.645 10.11.6 10.111.875 10.11-.719 10.11.214 10.11-.139 10.111.044" style="stroke:#333;stroke-width:1.0416666666666667;stroke-dasharray:1,2"/><text x="313.021" y="950.978" fill="#555" font-family="Segoe Print" font-size="14.583" textLength="52.083">union v</text><path fill="none" d="M302.604 963.792v.292l10.11-.867 10.11.844 10.111.286 10.11-1.545 10.11.882 10.11-.484 10.111.06 10.11.438 10.11-.866 10.111 1.73 10.11-1.645 10.11.6 10.111.875 10.11-.719 10.11.214 10.11-.14 10.111.045" style="stroke:#333;stroke-width:1.0416666666666667;stroke-dasharray:1,2"/><text x="313.021" y="986.704" fill="#555" font-family="Segoe Print" font-size="14.583" textLength="151.042">struct dictEntry *next</text><g fill="none"><path d="M388.542 282.75h.292l-.868 9.835.844 9.836.287 9.835-1.546 9.836.99 9.835" style="stroke:#333;stroke-width:3.125"/><path d="m388.542 270.25.06.04-1.013 1.13-.658 1.367-.774 1.29-1.155 1.036-.627 1.387-.022-.015.732 1.183.846 1.258.924 1.31.654 1.13 1.033 1.384.16.107.49-1.478.96-1.167 1.014-1.129.684-1.35.858-1.233.02.013-.862-1.27-.773-1.209-.816-1.238-.733-1.183z" style="stroke:#333;stroke-width:3.125"/></g><g fill="none"><path d="M388.542 561.73h.292l-.868 9.864.844 9.864.287 9.865-1.546 9.865.99 9.864" style="stroke:#333;stroke-width:3.125"/><path d="m388.542 549.23.06.04-1.013 1.13-.658 1.366-.774 1.29-1.155 1.036-.627 1.387-.022-.015.732 1.183.846 1.258.924 1.311.654 1.13 1.033 1.383.16.107.49-1.478.96-1.167 1.014-1.129.684-1.35.858-1.233.02.013-.862-1.269-.773-1.21-.816-1.238-.733-1.183z" style="stroke:#333;stroke-width:3.125"/></g><g fill="none"><path d="M388.542 804.74h.292l-.868 9.91.844 9.91.287 9.91-1.546 9.911.99 9.91" style="stroke:#333;stroke-width:3.125"/><path d="m388.542 792.24.06.04-1.013 1.13-.658 1.367-.774 1.29-1.155 1.035-.627 1.388-.022-.015.732 1.182.846 1.259.924 1.31.654 1.13 1.033 1.384.16.106.49-1.478.96-1.167 1.014-1.128.684-1.35.858-1.233.02.013-.862-1.27-.773-1.209-.816-1.238-.733-1.184z" style="stroke:#333;stroke-width:3.125"/></g><g fill="none"><path d="m348.973 1011.225.263.125-5.577 9.7-4.033 10.434-4.536 10.195-6.19 9.407-3.9 10.497" style="stroke:#333;stroke-width:3.125"/><path d="m354.344 999.938.037.062-1.4.585-1.182.951-1.253.833-1.488.438-1.162.984-.027-.004.096 1.47.23 1.488.324 1.503v1.455l.454 1.522.098.165 1.079-1.124 1.367-.641 1.401-.583 1.198-.925 1.305-.745.023.003-.25-1.492-.143-1.476-.194-1.484-.097-1.47z" style="stroke:#333;stroke-width:3.125"/></g></svg>