<svg xmlns="http://www.w3.org/2000/svg" preserveAspectRatio="xMinYMin meet" viewBox="0 0 320 221"><svg id="d2-svg" width="320" height="221" class="d2-260075428" viewBox="0 0 320 221"><rect width="320" height="221" stroke-width="0" rx="0" style="fill:#fff"/><style>@keyframes dashdraw{0%{stroke-dashoffset:0}}.d2-260075428 .text-mono{font-family:&quot;d2-260075428-font-mono&quot;}@font-face{font-family:d2-260075428-font-mono;src:url(/stylesheets/font/Virgil-hand.woff2)}.d2-260075428 .text-mono-bold{font-family:&quot;d2-260075428-font-mono-bold&quot;}@font-face{font-family:d2-260075428-font-mono-bold;src:url(/stylesheets/font/Virgil-hand.woff2)}.connection,.shape{stroke-linejoin:round}.shape{shape-rendering:geometricPrecision}.connection{stroke-linecap:round}.d2-260075428 .fill-N1{fill:#000410}.d2-260075428 .fill-B5{fill:#f5f6f9}.d2-260075428 .fill-B6{fill:#fff}.d2-260075428 .stroke-B1{stroke:#000410}@media screen and (prefers-color-scheme:dark){.d2-260075428 .fill-N1{fill:#cdd6f4}.d2-260075428 .fill-B5{fill:#45475a}.d2-260075428 .fill-B6{fill:#313244}.d2-260075428 .stroke-B1{stroke:#cba6f7}}.dots-overlay{fill:url(#dots);mix-blend-mode:multiply}</style><defs><pattern id="dots" width="15" height="15" x="0" y="0" patternUnits="userSpaceOnUse"><path fill="#0A0F25" d="M2 2h1v1H2zM12 2h1v1h-1zM12 12h1v1h-1zM2 12h1v1H2zM2 7h1v1H2zM12 7h1v1h-1zM7 2h1v1H7zM7 12h1v1H7zM7 7h1v1H7z" opacity=".1" style="mix-blend-mode:multiply"/></pattern></defs><defs><filter id="shadow-filter" width="200%" height="200%" x="-50%" y="-50%"><feGaussianBlur in="SourceGraphic" stdDeviation="1.7"/><feFlood flood-color="#3d4574" flood-opacity=".4" result="ShadowFeFlood"/><feComposite in="ShadowFeFlood" in2="SourceAlpha" operator="in" result="ShadowFeComposite"/><feOffset dx="3" dy="5" in="ShadowFeComposite" result="ShadowFeOffset"/><feBlend in="SourceGraphic" in2="ShadowFeOffset" result="ShadowFeBlend"/></filter></defs><g id="top-row" class="empty"><g class="shape"><path fill="transparent" d="M0 0h320v221H0z" class="stroke-B1" style="stroke-width:0"/><path d="M0 0h320v221H0z" class="dots-overlay" style="stroke-width:0"/><path fill="transparent" d="M5 5h310v211H5z" class="stroke-B1" style="stroke-width:0"/></g></g><g id="top-row.stack"><g class="shape" filter="url(#shadow-filter)"><rect width="100" height="90" x="30" y="71" class="stroke-B1 fill-B5" rx="10" style="stroke-width:2"/><rect width="100" height="90" x="30" y="71" class="dots-overlay" rx="10" style="stroke-width:2"/></g><text x="80" y="59" class="text-mono fill-N1" style="text-anchor:middle;font-size:24px">STACK</text></g><g id="top-row.heap"><g class="shape" filter="url(#shadow-filter)"><rect width="100" height="150" x="190" y="41" class="stroke-B1 fill-B5" rx="10" style="stroke-width:2"/><rect width="100" height="150" x="190" y="41" class="dots-overlay" rx="10" style="stroke-width:2"/></g><text x="240" y="29" class="text-mono fill-N1" style="text-anchor:middle;font-size:24px">HEAP</text></g><g id="top-row.stack.capacity"><g class="shape"><path d="M30 71h100v30H30z" class="stroke-B1 fill-B6" style="stroke-width:2"/></g><text x="80" y="91.5" class="text-mono-bold fill-N1" style="text-anchor:middle;font-size:16px">capacity</text></g><g id="top-row.stack.len"><g class="shape"><path d="M30 101h100v30H30z" class="stroke-B1 fill-B6" style="stroke-width:2"/></g><text x="80" y="121.5" class="text-mono-bold fill-N1" style="text-anchor:middle;font-size:16px">len</text></g><g id="top-row.stack.ptr"><g class="shape"><path fill="#f0fff0" d="M30 131h100v30H30z" class="stroke-B1" style="stroke-width:2"/></g><text x="80" y="151.5" class="text-mono-bold fill-N1" style="text-anchor:middle;font-size:16px">ptr</text></g><g id="top-row.heap.5"><g class="shape"><path d="M190 41h100v30H190z" class="stroke-B1 fill-B6" style="stroke-width:2"/></g><text x="240" y="61.5" class="text-mono-bold fill-N1" style="text-anchor:middle;font-size:16px">5</text></g><g id="top-row.heap.4"><g class="shape"><path d="M190 71h100v30H190z" class="stroke-B1 fill-B6" style="stroke-width:2"/></g><text x="240" y="91.5" class="text-mono-bold fill-N1" style="text-anchor:middle;font-size:16px">4</text></g><g id="top-row.heap.3"><g class="shape"><path d="M190 101h100v30H190z" class="stroke-B1 fill-B6" style="stroke-width:2"/></g><text x="240" y="121.5" class="text-mono-bold fill-N1" style="text-anchor:middle;font-size:16px">3</text></g><g id="top-row.heap.2"><g class="shape"><path d="M190 131h100v30H190z" class="stroke-B1 fill-B6" style="stroke-width:2"/></g><text x="240" y="151.5" class="text-mono-bold fill-N1" style="text-anchor:middle;font-size:16px">2</text></g><g id="top-row.heap.1"><g class="shape"><path d="M190 161h100v30H190z" class="stroke-B1 fill-B6" style="stroke-width:2"/></g><text x="240" y="181.5" class="text-mono-bold fill-N1" style="text-anchor:middle;font-size:16px">1</text></g><g id="top-row.(stack.ptr -&gt; heap.1)[0]"><marker id="mk-2177206569" markerHeight="12" markerUnits="userSpaceOnUse" markerWidth="10" orient="auto" refX="7" refY="6" viewBox="0 0 10 12"><path stroke-width="2" d="m0 0 10 6-10 6z" class="connection" style="fill:#000410"/></marker><path fill="none" marker-end="url(#mk-2177206569)" d="m131.967 155.36 54.099 9.919" class="connection animated-connection" mask="url(#d2-260075428)" style="stroke:#000410;stroke-width:2;stroke-dasharray:6,5.919384;stroke-dashoffset:-119.193836;animation:dashdraw 2.959692s linear infinite"/></g><mask id="d2-260075428" width="320" height="221" x="0" y="0" maskUnits="userSpaceOnUse"><path fill="#fff" d="M0 0h320v221H0z"/><path fill="rgba(0,0,0,0.75)" d="M44.5 35h71v31h-71zM211.5 5h57v31h-57zM41.5 75.5h77v21h-77zM65.5 105.5h29v21h-29zM66 135.5h28v21H66zM235.5 45.5h9v21h-9zM235.5 75.5h9v21h-9zM235.5 105.5h9v21h-9zM235.5 135.5h9v21h-9zM236 165.5h8v21h-8z"/></mask></svg></svg>