<svg xmlns="http://www.w3.org/2000/svg" width="276.636" height="372.002"><defs><style>@font-face{font-family:&quot;Virgil&quot;;src:url(https://unpkg.com/@excalidraw/excalidraw@undefined/dist/excalidraw-assets/Virgil.woff2)}@font-face{font-family:&quot;Cascadia&quot;;src:url(https://unpkg.com/@excalidraw/excalidraw@undefined/dist/excalidraw-assets/Cascadia.woff2)}@font-face{font-family:&quot;Assistant&quot;;src:url(https://unpkg.com/@excalidraw/excalidraw@undefined/dist/excalidraw-assets/Assistant-Regular.woff2)}</style></defs><path fill="#fff" d="M0 0h276.636v372.002H0z"/><path fill="none" stroke="#862e9c" stroke-linecap="round" d="M37.886 289.002c56.93 1.28 113.04 1.47 210.5 0m-210.5 0c71.66.1 143.21 1.32 210.5 0m0 0c13.89 1.93 16.56 6.39 18.25 18.25m-18.25-18.25c11.96-1.84 19.01 4.32 18.25 18.25m0 0c-.44 14.1-1.37 25.96 0 36.5m0-36.5c.1 10.86-.91 20.06 0 36.5m0 0c.7 11.12-6.95 17.51-18.25 18.25m18.25-18.25c2.24 13.12-5.37 16.41-18.25 18.25m0 0c-42.99.75-86.82-2.61-210.5 0m210.5 0c-54.11-.98-108.92-.03-210.5 0m0 0c-13.6 1.03-16.81-7.04-18.25-18.25m18.25 18.25c-10.91.92-18.37-5.35-18.25-18.25m0 0c-.78-7.46-1.82-19.58 0-36.5m0 36.5c.46-9.06.18-17.94 0-36.5m0 0c-1.22-10.88 6.83-18.22 18.25-18.25m-18.25 18.25c-1.42-13.41 8.3-16.92 18.25-18.25"/><text x="117.61" fill="#862e9c" dominant-baseline="text-before-edge" font-family="Assistant, Segoe UI Emoji" font-size="20" style="white-space:pre" text-anchor="middle" transform="translate(25.526 304.502)">daemon再发送GRPC请求给</text><text x="117.61" y="21" fill="#862e9c" dominant-baseline="text-before-edge" font-family="Assistant, Segoe UI Emoji" font-size="20" style="white-space:pre" text-anchor="middle" transform="translate(25.526 304.502)">containerd</text><g stroke-linecap="round"><path fill="none" stroke="#862e9c" d="M140.717 214.453c2.04 24.09.74 46.41 1.56 71.52m-1.56-71.52c.94 15.72-.44 29.67 1.56 71.52"/><path fill="#862e9c" fill-rule="evenodd" stroke-width="0" d="m143.717 285.023-7.14-11.63 11.47-.58-6.68 13.81"/><path fill="none" stroke="#862e9c" d="M142.277 285.973c-1.74-3.75-5.31-8.86-6.8-13.38m6.8 13.38c-.72-2.01-3.4-5.38-6.8-13.38m0 0c2.72.62 8.26-.15 12.68-.42m-12.68.42c3.24-.19 6.64.05 12.68-.42m0 0c-1.21 4.83-4.36 8.01-5.88 13.8m5.88-13.8c-1.18 3.05-3.68 6.84-5.88 13.8m0 0q0 0 0 0m0 0q0 0 0 0"/></g><path fill="none" stroke="#862e9c" stroke-linecap="round" d="M30.75 10c53.38-.84 106.88-1.3 161.5 0m-161.5 0c54.94-1.4 111.47-2.36 161.5 0m0 0c14.49-1.53 21.98 8.3 20.75 20.75M192.25 10c14.07-.8 21.8 5.05 20.75 20.75m0 0c.42 11.91 1.86 21.48 0 41.5m0-41.5c-.29 13.48 1.12 28.12 0 41.5m0 0c.62 12.23-8.84 19.59-20.75 20.75M213 72.25c-1.21 13.7-4.67 19.39-20.75 20.75m0 0c-34.24-.45-67.78-1.91-161.5 0m161.5 0c-59.24.35-119.38 1.23-161.5 0m0 0C16.81 93.64 9.09 86.73 10 72.25M30.75 93C15.88 92.23 12.1 84.12 10 72.25m0 0c1.34-10.01.1-20.93 0-41.5m0 41.5c.63-12.71-.36-25.98 0-41.5m0 0C11.93 18.07 16.52 9.2 30.75 10M10 30.75C9.77 18.64 18.58 11.36 30.75 10"/><text x="51.602" fill="#862e9c" dominant-baseline="text-before-edge" font-family="Assistant, Segoe UI Emoji" font-size="20.026" style="white-space:pre" text-anchor="middle" transform="translate(59.898 41)">docker run ..</text><path fill="none" stroke="#862e9c" stroke-linecap="round" d="M35.91 141.423c60.99 2.14 122.08-.89 208 0m-208 0c65.88.8 131.72 2.09 208 0m0 0c11.87-.69 18.42 4.21 17.5 17.5m-17.5-17.5c11.2-.69 17.17 6.45 17.5 17.5m0 0c1.02 11.74-.7 21.22 0 35m0-35c.65 8.4-.62 17.81 0 35m0 0c-1.05 11.55-3.88 16.32-17.5 17.5m17.5-17.5c-2.12 10.68-6.64 16.68-17.5 17.5m0 0c-62.35-2.5-126.31.04-208 0m208 0c-52.54 1.02-105.38 1.02-208 0m0 0c-12.57-.67-15.67-7.54-17.5-17.5m17.5 17.5c-12.83-1.23-19.33-4.55-17.5-17.5m0 0c.15-12.32 1.31-21.47 0-35m0 35c1.18-9.97.02-21.51 0-35m0 0c-.2-10.17 7.28-16.31 17.5-17.5m-17.5 17.5c.81-13.14 5.01-19.08 17.5-17.5"/><text x="102.8" fill="#862e9c" dominant-baseline="text-before-edge" font-family="Assistant, Segoe UI Emoji" font-size="20" style="white-space:pre" text-anchor="middle" transform="translate(37.11 165.923)">发送post请求给daemon</text><g stroke-linecap="round"><path fill="none" stroke="#862e9c" d="M114.001 96.968c.14 3.22-.02 12.91 1.75 19.74s7.37 17.59 8.87 21.26m-9.85-41.43c.01 3.5-1.08 13.68.52 20.64 1.6 6.97 7.45 17.74 9.08 21.18"/><path fill="#862e9c" fill-rule="evenodd" stroke-width="0" d="m125.281 137.498-13.15-9.02 11.06-4.56 1.35 14.38"/><path fill="none" stroke="#862e9c" d="M124.371 138.358c-4.46-3.73-9.71-7.02-11.74-9.35m11.74 9.35c-2.62-2.18-5.1-4.44-11.74-9.35m0 0c3.35-1.47 6.98-3.69 11.35-5.65m-11.35 5.65c3.64-1.97 7.88-3.61 11.35-5.65m0 0c-.37 4.58.15 10.67.39 15m-.39-15c-.11 3.48.14 7.09.39 15m0 0q0 0 0 0m0 0q0 0 0 0"/></g></svg>