<svg xmlns="http://www.w3.org/2000/svg" width="193" height="272" preserveAspectRatio="none" style="width:193px;height:272px;background:#fff"><defs><filter id="a" width="300%" height="300%" x="-1" y="-1"><feGaussianBlur result="blurOut" stdDeviation="2"/><feColorMatrix in="blurOut" result="blurOut2" values="0 0 0 0 0 0 0 0 0 0 0 0 0 0 0 0 0 0 .4 0"/><feOffset dx="4" dy="4" in="blurOut2" result="blurOut3"/><feBlend in="SourceGraphic" in2="blurOut3"/></filter></defs><text x="121" y="19.282" fill="#888" font-family="sans-serif" font-size="10" textLength="52">made by x</text><text x="63.5" y="45.636" font-family="sans-serif" font-size="14" font-weight="bold" textLength="56">对称加密</text><rect width="52" height="40.297" x="10" y="130.234" fill="#A8EB99" filter="url(#a)" rx="7.5" ry="7.5" style="stroke:#000;stroke-width:1"/><text x="22" y="155.23" font-family="sans-serif" font-size="14" textLength="28">算法</text><rect width="51" height="40.297" x="112" y="69.938" fill="#FBE972" filter="url(#a)" rx="7.5" ry="7.5" style="stroke:#000;stroke-width:1"/><text x="124" y="94.933" font-family="sans-serif" font-size="14" textLength="27">AES</text><path fill="none" d="M62 150.383h10c15 0 15-60.297 30-60.297h10" style="stroke:green;stroke-width:1;stroke-dasharray:5,5"/><rect width="53" height="40.297" x="112" y="130.234" fill="#94C644" filter="url(#a)" rx="7.5" ry="7.5" style="stroke:#000;stroke-width:1"/><text x="124" y="155.23" font-family="sans-serif" font-size="14" textLength="29">DES</text><path fill="none" d="M62 150.383h50" style="stroke:green;stroke-width:1;stroke-dasharray:5,5"/><rect width="62" height="40.297" x="112" y="190.531" fill="#E0FFFF" filter="url(#a)" rx="7.5" ry="7.5" style="stroke:#000;stroke-width:1"/><text x="124" y="215.526" font-family="sans-serif" font-size="14" textLength="38">3DES</text><path fill="none" d="M62 150.383h10c15 0 15 60.297 30 60.297h10" style="stroke:green;stroke-width:1;stroke-dasharray:5,5"/><text x="78" y="254.823" font-family="sans-serif" font-size="14" textLength="27">图 1</text></svg>