<svg xmlns="http://www.w3.org/2000/svg" width="1025.116" height="383.673"><defs><style>@font-face{font-family:&quot;Virgil&quot;;src:url(https://unpkg.com/@excalidraw/excalidraw@undefined/dist/excalidraw-assets/Virgil.woff2)}@font-face{font-family:&quot;Cascadia&quot;;src:url(https://unpkg.com/@excalidraw/excalidraw@undefined/dist/excalidraw-assets/Cascadia.woff2)}@font-face{font-family:&quot;Assistant&quot;;src:url(https://unpkg.com/@excalidraw/excalidraw@undefined/dist/excalidraw-assets/Assistant-Regular.woff2)}</style></defs><path fill="#fff" d="M0 0h1025.116v383.673H0z"/><path fill="#0161fe" d="m48.246 35.773-1.03.07q-1.03.07-2.25.86-1.21.79-2.44 2.16t-1.9 2.42q-.68 1.05-1.44 2.16-.76 1.1-1.72 2.55-.96 1.44-1.64 2.36-.67.93-1.36 2.35-.68 1.42-1.1 2.67t-.87 2.76q-.44 1.52-.75 2.58t-.59 2.39q-.28 1.32-.43 2.54-.15 1.23-.34 2.36t-.48 2.69q-.3 1.56-.54 2.63-.23 1.08-.67 2.68-.45 1.61-.72 2.72t-.73 2.62q-.45 1.51-.87 2.72-.43 1.21-1.05 2.61t-1.07 2.36q-.46.97-1.08 2.13-.63 1.17-1.46 2.42-.84 1.26-1.73 2.2t-1.95 1.57q-1.06.64-2.59 1.34-1.54.69-2.5-1.37-.97-2.07.99-1.15 1.95.91 3.74 2.53 1.78 1.61 2.65 2.47.87.87 2.12 2.34 1.24 1.47 2.11 2.67.86 1.2 2.05 2.99 1.19 1.78 1.96 3.17.77 1.38 1.69 3.4.92 2.03 1.54 3.59.62 1.57 1.23 3.54.61 1.96 1.04 3.24.44 1.27.76 2.46t.66 2.63.58 2.58q.24 1.15.53 2.39t.77 3.19.94 3.65.74 3.35q.28 1.66.44 3.27.17 1.6.23 3.23t.05 2.97.09 2.83q.11 1.49.2 2.68t.09 2.35q0 1.17-.04 2.45-.05 1.29-.1 2.46-.06 1.16-.15 2.3-.09 1.13-.17 2.31-.08 1.19.32 2.22.39 1.03 1.47 1.75 1.09.71 2.22 1.19 1.14.47 2.98 1.37 1.83.89 1.89 1.1.07.21.06.42-.01.22-.08.42-.08.21-.22.37-.13.17-.32.29-.17.11-.38.16t-.43.03q-.21-.01-.41-.1t-.36-.23q-.16-.15-.27-.34-.1-.19-.14-.4t-.01-.43q.03-.21.13-.41.1-.19.25-.34.16-.15.35-.25.19-.09.41-.12.21-.03.43.01.21.05.39.15.18.11.33.27.14.17.23.37.08.2.1.41.01.22-.04.43-.06.21-.17.39-.12.18-.29.31-.17.14-.37.21-.2.08-.42.08-.21 0-.42-.06-.21-.07-.38-.19-.18-.13-.3-.31l-.13-.17-.96.07q-.96.07-2.31-.38-1.36-.45-2.42-1-1.07-.55-2.06-1.28-1-.73-1.67-1.62-.68-.9-.88-2.05t-.28-2.34q-.08-1.18-.17-2.31-.09-1.14-.15-2.3-.06-1.17-.1-2.44-.05-1.26-.11-2.51-.07-1.25-.24-2.69-.17-1.43-.31-2.59-.15-1.15-.18-2.45-.03-1.29-.11-2.64t-.27-2.83q-.18-1.48-.42-2.77-.23-1.29-.75-3.07-.53-1.78-1.07-3.8t-.85-3.31q-.32-1.28-.57-2.37t-.86-3.42-1.09-3.69-1.03-3.09q-.55-1.74-1.13-3.17-.58-1.42-1.4-3.21-.82-1.8-1.47-2.95t-1.79-2.83-1.88-2.69-1.78-2.24-1.89-2.05q-.86-.82-1.81-1.72-.96-.89-2.23-2.06-1.27-1.18-2.3-1.75-1.03-.58-1.46-2.47-.43-1.9.82-3.02 1.26-1.11 2.59-1.73 1.34-.61 2.4-1.34t1.7-1.73q.65-.99 1.59-2.89.94-1.91 1.44-3.04.49-1.13.85-2.19t.76-2.39q.39-1.33.67-2.55.29-1.23.88-3.62.58-2.4 1-4.85.42-2.44.56-3.71.15-1.26.51-3.13.37-1.87.93-3.9.57-2.02 1.01-3.44.43-1.43.87-2.6.43-1.18.96-2.3t1.4-2.54l1.56-2.53q.68-1.13 1.6-2.46t1.61-2.51q.7-1.17 1.52-2.15.81-.98 1.8-2.15.99-1.18 2.22-2.09 1.23-.92 2.3-1.54 1.08-.63 2.43-1.03 1.35-.41 2.42-.52 1.06-.11 1.54-.1.48.02.95.16.47.13.89.37.43.24.78.58.35.33.62.74.26.41.41.88.16.46.2.94t-.03.96q-.08.48-.27.93-.18.45-.48.84-.29.39-.66.7-.38.31-.82.52t-.91.31z"/><path fill="none" stroke="#5c940e" stroke-linecap="round" d="M207.375 59.824h122m-122 0h122m0 0v42m0-42v42m0 0h-122m122 0h-122m0 0v-42m0 42v-42"/><text x="37.816" fill="#5c940e" dominant-baseline="text-before-edge" font-family="Helvetica, Segoe UI Emoji" font-size="16" style="white-space:pre" text-anchor="middle" transform="translate(230.559 71.824)">0000 0000</text><path fill="none" stroke="#5c940e" stroke-linecap="round" d="M206.375 144.824h124m-124 0h124m0 0v42m0-42v42m0 0h-124m124 0h-124m0 0v-42m0 42v-42"/><text x="37.816" fill="#5c940e" dominant-baseline="text-before-edge" font-family="Helvetica, Segoe UI Emoji" font-size="16" style="white-space:pre" text-anchor="middle" transform="translate(230.559 156.824)">0000 1000</text><path fill="none" stroke="#5c940e" stroke-linecap="round" d="M207.287 102.372h122m-122 0h122m0 0v42m0-42v42m0 0h-122m122 0h-122m0 0v-42m0 42v-42"/><text x="36.637" fill="#5c940e" dominant-baseline="text-before-edge" font-family="Helvetica, Segoe UI Emoji" font-size="16" style="white-space:pre" text-anchor="middle" transform="translate(231.65 114.372)">0000 0111</text><path fill="none" stroke="#5c940e" stroke-linecap="round" d="M207.958 18.147h122m-122 0h122m0 0v42m0-42v42m0 0h-122m122 0h-122m0 0v-42m0 42v-42"/><text x="37.816" fill="#5c940e" dominant-baseline="text-before-edge" font-family="Helvetica, Segoe UI Emoji" font-size="16" style="white-space:pre" text-anchor="middle" transform="translate(231.141 30.147)">0000 0000</text><path fill="none" stroke="#0161fe" stroke-linecap="round" d="M207.371 228.54h122m-122 0h122m0 0v42m0-42v42m0 0h-122m122 0h-122m0 0v-42m0 42v-42M206.371 313.54h124m-124 0h124m0 0v42m0-42v42m0 0h-124m124 0h-124m0 0v-42m0 42v-42"/><text x="37.816" fill="#0f0f0f" dominant-baseline="text-before-edge" font-family="Helvetica, Segoe UI Emoji" font-size="16" style="white-space:pre" text-anchor="middle" transform="translate(230.555 325.54)">0000 0001</text><path fill="none" stroke="#0161fe" stroke-linecap="round" d="M207.283 271.087h122m-122 0h122m0 0v42m0-42v42m0 0h-122m122 0h-122m0 0v-42m0 42v-42"/><text x="37.227" fill="#1a1b18" dominant-baseline="text-before-edge" font-family="Helvetica, Segoe UI Emoji" font-size="16" style="white-space:pre" text-anchor="middle" transform="translate(231.056 283.087)">0000 0011</text><path fill="none" stroke="#0161fe" stroke-linecap="round" d="M207.953 186.863h122m-122 0h122m0 0v42m0-42v42m0 0h-122m122 0h-122m0 0v-42m0 42v-42"/><text x="37.816" fill="#0f100f" dominant-baseline="text-before-edge" font-family="Helvetica, Segoe UI Emoji" font-size="16" style="white-space:pre" text-anchor="middle" transform="translate(231.137 198.863)">0000 0010</text><text fill="#5c940e" dominant-baseline="text-before-edge" font-family="Helvetica, Segoe UI Emoji" font-size="16" style="white-space:pre" transform="translate(61.666 166.838)">0xc00004c754</text><g stroke-linecap="round"><path fill="none" stroke="#5c940e" d="M179.613 184.65c4.12-.05 20.58-.25 24.69-.29m-24.69.29c4.12-.05 20.58-.25 24.69-.29"/><path fill="#5c940e" fill-rule="evenodd" stroke-width="0" d="m204.303 184.36-11.12 5.35-.13-10.44z"/><path fill="none" stroke="#5c940e" d="M204.303 184.36c-2.9 1.39-5.81 2.79-11.12 5.35m11.12-5.35a3637 3637 0 0 0-11.12 5.35m0 0c-.03-2.32-.06-4.63-.13-10.44m.13 10.44c-.04-3.05-.08-6.1-.13-10.44m0 0c3.09 1.4 6.18 2.79 11.25 5.09m-11.25-5.09c4.17 1.89 8.34 3.77 11.25 5.09m0 0q0 0 0 0m0 0q0 0 0 0"/></g><text fill="#5c940e" dominant-baseline="text-before-edge" font-family="Helvetica, Segoe UI Emoji" font-size="16" style="white-space:pre" transform="translate(59.273 47.9)">0xc00004c757</text><g stroke-linecap="round"><path fill="none" stroke="#5c940e" d="M165.404 58.782c6.49.33 32.45 1.67 38.94 2m-38.94-2c6.49.33 32.45 1.67 38.94 2"/><path fill="#5c940e" fill-rule="evenodd" stroke-width="0" d="m204.344 60.782-13.91 5.63.65-12.66z"/><path fill="none" stroke="#5c940e" d="m204.344 60.782-13.91 5.63m13.91-5.63c-5.56 2.25-11.11 4.5-13.91 5.63m0 0c.25-4.77.49-9.54.65-12.66m-.65 12.66c.21-4.1.43-8.2.65-12.66m0 0c4.68 2.48 9.36 4.96 13.26 7.03m-13.26-7.03c4.7 2.49 9.39 4.98 13.26 7.03m0 0q0 0 0 0m0 0q0 0 0 0"/></g><text fill="#5c940e" dominant-baseline="text-before-edge" font-family="Helvetica, Segoe UI Emoji" font-size="20" style="white-space:pre" transform="translate(355.565 192.23)">a</text><text fill="#5c940e" dominant-baseline="text-before-edge" font-family="Helvetica, Segoe UI Emoji" font-size="20" style="white-space:pre" transform="translate(355.268 232.76)">b</text><text fill="#5c940e" dominant-baseline="text-before-edge" font-family="Helvetica, Segoe UI Emoji" font-size="20" style="white-space:pre" transform="translate(354.616 277.765)">c</text><text fill="#5c940e" dominant-baseline="text-before-edge" font-family="Helvetica, Segoe UI Emoji" font-size="20" style="white-space:pre" transform="translate(355.41 328.667)">d</text><text fill="#5c940e" dominant-baseline="text-before-edge" font-family="Helvetica, Segoe UI Emoji" font-size="16" style="white-space:pre" transform="translate(98.707 217.86)">0xc00004c753</text><text fill="#5c940e" dominant-baseline="text-before-edge" font-family="Helvetica, Segoe UI Emoji" font-size="16" style="white-space:pre" transform="translate(93.875 260.917)">0xc00004c752</text><text fill="#5c940e" dominant-baseline="text-before-edge" font-family="Helvetica, Segoe UI Emoji" font-size="16" style="white-space:pre" transform="translate(97.761 303.034)">0xc00004c751</text><text fill="#5c940e" dominant-baseline="text-before-edge" font-family="Helvetica, Segoe UI Emoji" font-size="16" style="white-space:pre" transform="translate(93.637 342.108)">0xc00004c750</text><text fill="#0d0d0c" dominant-baseline="text-before-edge" font-family="Helvetica, Segoe UI Emoji" font-size="16" style="white-space:pre" transform="translate(234.017 242.11)">0000 0100</text><path fill="none" stroke="#0161fe" stroke-linecap="round" stroke-width="4" d="M207.072 19.101h125.88m-125.88 0h125.88m0 0v167.09m0-167.09v167.09m0 0h-125.88m125.88 0h-125.88m0 0V19.101m0 167.09V19.101"/><g stroke-linecap="round"><path fill="none" stroke="#c3e93a" stroke-width="4" d="M431.437 153.674c32.55-.01 65.1-.02 144-.05m-144 .05c35.44-.01 70.89-.02 144-.05"/><path fill="#c3e93a" fill-rule="evenodd" stroke-width="0" d="m575.437 153.624-13.59 6.35v-12.68z"/><path fill="none" stroke="#c3e93a" stroke-width="4" d="M575.437 153.624c-3.07 1.44-6.14 2.87-13.59 6.35m13.59-6.35c-3.34 1.57-6.69 3.13-13.59 6.35m0 0v-12.68m0 12.68v-12.68m0 0c4.23 1.97 8.45 3.94 13.59 6.33m-13.59-6.33c3.02 1.41 6.03 2.81 13.59 6.33m0 0q0 0 0 0m0 0q0 0 0 0"/></g><g stroke-linecap="round"><path fill="none" stroke="#c3e93a" stroke-width="4" d="M432.424 173.108c38.99.03 77.99.07 141.98.12m-141.98-.12c52.63.05 105.26.09 141.98.12"/><path fill="#c3e93a" fill-rule="evenodd" stroke-width="0" d="m574.404 173.228-13.6 6.33.01-12.68z"/><path fill="none" stroke="#c3e93a" stroke-width="4" d="M574.404 173.228c-3.73 1.74-7.47 3.48-13.6 6.33m13.6-6.33c-5.04 2.35-10.08 4.7-13.6 6.33m0 0c.01-4.94.01-9.88.01-12.68m-.01 12.68c0-2.84.01-5.68.01-12.68m0 0c5.33 2.49 10.65 4.98 13.59 6.35m-13.59-6.35c4.2 1.96 8.39 3.92 13.59 6.35m0 0q0 0 0 0m0 0q0 0 0 0"/></g><text fill="#5c940e" dominant-baseline="text-before-edge" font-family="Helvetica, Segoe UI Emoji" font-size="20" style="white-space:pre" transform="translate(464.062 122.732)">格式化后</text><path fill="none" stroke="#5c940e" stroke-linecap="round" d="M628.009 246.673h122m-122 0h122m0 0v42m0-42v42m0 0h-122m122 0h-122m0 0v-42m0 42v-42M627.009 331.673h124m-124 0h124m0 0v42m0-42v42m0 0h-124m124 0h-124m0 0v-42m0 42v-42"/><text x="37.816" fill="#0f0f0f" dominant-baseline="text-before-edge" font-family="Helvetica, Segoe UI Emoji" font-size="16" style="white-space:pre" text-anchor="middle" transform="translate(651.192 343.673)">0000 0001</text><path fill="none" stroke="#5c940e" stroke-linecap="round" d="M627.92 289.22h122m-122 0h122m0 0v42m0-42v42m0 0h-122m122 0h-122m0 0v-42m0 42v-42"/><text x="37.227" fill="#1a1b18" dominant-baseline="text-before-edge" font-family="Helvetica, Segoe UI Emoji" font-size="16" style="white-space:pre" text-anchor="middle" transform="translate(651.694 301.22)">0000 0011</text><path fill="none" stroke="#5c940e" stroke-linecap="round" d="M628.591 204.996h122m-122 0h122m0 0v42m0-42v42m0 0h-122m122 0h-122m0 0v-42m0 42v-42"/><text x="37.816" fill="#0f100f" dominant-baseline="text-before-edge" font-family="Helvetica, Segoe UI Emoji" font-size="16" style="white-space:pre" text-anchor="middle" transform="translate(651.775 216.996)">0000 0010</text><text fill="#0d0d0c" dominant-baseline="text-before-edge" font-family="Helvetica, Segoe UI Emoji" font-size="16" style="white-space:pre" transform="translate(654.655 260.244)">0000 0100</text><text fill="#5c940e" dominant-baseline="text-before-edge" font-family="Helvetica, Segoe UI Emoji" font-size="20" style="white-space:pre" transform="translate(351.017 93.11)">z = 1800</text><text fill="#5c940e" dominant-baseline="text-before-edge" font-family="Helvetica, Segoe UI Emoji" font-size="20" style="white-space:pre" transform="translate(796.116 245.017)">ff.i 一次直接读取4个字节</text><text fill="#5c940e" dominant-baseline="text-before-edge" font-family="Helvetica, Segoe UI Emoji" font-size="20" style="white-space:pre" transform="translate(819.535 280.458)">结果是33817345</text><path fill="none" stroke="#5c940e" stroke-linecap="round" d="M626.182 51.677h122m-122 0h122m0 0v42m0-42v42m0 0h-122m122 0h-122m0 0v-42m0 42v-42"/><text x="37.816" fill="#5c940e" dominant-baseline="text-before-edge" font-family="Helvetica, Segoe UI Emoji" font-size="16" style="white-space:pre" text-anchor="middle" transform="translate(649.366 63.677)">0000 0000</text><path fill="none" stroke="#1864ab" stroke-linecap="round" d="M625.182 136.677h124m-124 0h124m0 0v42m0-42v42m0 0h-124m124 0h-124m0 0v-42m0 42v-42"/><text x="37.816" fill="#1864ab" dominant-baseline="text-before-edge" font-family="Helvetica, Segoe UI Emoji" font-size="16" style="white-space:pre" text-anchor="middle" transform="translate(649.366 148.677)">0000 1000</text><path fill="none" stroke="#1864ab" stroke-linecap="round" d="M626.094 94.225h122m-122 0h122m0 0v42m0-42v42m0 0h-122m122 0h-122m0 0v-42m0 42v-42"/><text x="36.637" fill="#1864ab" dominant-baseline="text-before-edge" font-family="Helvetica, Segoe UI Emoji" font-size="16" style="white-space:pre" text-anchor="middle" transform="translate(650.457 106.225)">0000 0111</text><path fill="none" stroke="#5c940e" stroke-linecap="round" d="M626.764 10h122m-122 0h122m0 0v42m0-42v42m0 0h-122m122 0h-122m0 0V10m0 42V10"/><text x="37.816" fill="#5c940e" dominant-baseline="text-before-edge" font-family="Helvetica, Segoe UI Emoji" font-size="16" style="white-space:pre" text-anchor="middle" transform="translate(649.948 22)">0000 0000</text><text fill="#5c940e" dominant-baseline="text-before-edge" font-family="Helvetica, Segoe UI Emoji" font-size="20" style="white-space:pre" transform="translate(802.017 148.11)">ff.j 读取一个字节 = 8</text><text fill="#5c940e" dominant-baseline="text-before-edge" font-family="Helvetica, Segoe UI Emoji" font-size="20" style="white-space:pre" transform="translate(804.017 104.11)">ff.k 读取一个字节 = 7</text></svg>