<svg xmlns="http://www.w3.org/2000/svg" width="616" height="211" preserveAspectRatio="none" style="width:616px;height:211px;background:#fff"><defs><filter id="a" width="300%" height="300%" x="-1" y="-1"><feGaussianBlur result="blurOut" stdDeviation="2"/><feColorMatrix in="blurOut" result="blurOut2" values="0 0 0 0 0 0 0 0 0 0 0 0 0 0 0 0 0 0 .4 0"/><feOffset dx="4" dy="4" in="blurOut2" result="blurOut3"/><feBlend in="SourceGraphic" in2="blurOut3"/></filter><filter id="b" width="1" height="1" x="0" y="0"><feFlood flood-color="orange" result="flood"/><feComposite in="SourceGraphic" in2="flood"/></filter></defs><text x="544" y="19.282" fill="#888" font-family="sans-serif" font-size="10" textLength="52">made by x</text><text x="254" y="45.636" font-family="sans-serif" font-size="14" font-weight="bold" textLength="98">将值传递给函数</text><rect width="322" height="56.594" x="10" y="91.938" fill="#A8EB99" filter="url(#a)" rx="7.5" ry="7.5" style="stroke:#000;stroke-width:1"/><text x="22" y="116.933" font-family="sans-serif" font-size="14" textLength="112">将值传递给函数和</text><text x="134" y="116.933" filter="url(#b)" font-family="sans-serif" font-size="14" textLength="70">赋值给变量</text><text x="204" y="116.933" font-family="sans-serif" font-size="14" textLength="116">在语义上是一样的,</text><text x="115" y="133.23" font-family="sans-serif" font-size="14" textLength="112">将发生复制或移动</text><rect width="215" height="40.297" x="382" y="69.938" fill="#FBE972" filter="url(#a)" rx="7.5" ry="7.5" style="stroke:#000;stroke-width:1"/><text x="394" y="94.933" font-family="sans-serif" font-size="14" textLength="191">复制意味着:该值的变量还有效.</text><path fill="none" d="M332 120.234h10c15 0 15-30.148 30-30.148h10" style="stroke:green;stroke-width:1;stroke-dasharray:5,5"/><rect width="211" height="40.297" x="382" y="130.234" fill="#FBE972" filter="url(#a)" rx="7.5" ry="7.5" style="stroke:#000;stroke-width:1"/><text x="394" y="155.23" font-family="sans-serif" font-size="14" textLength="187">移动意味着:该值的变量失效了</text><path fill="none" d="M332 120.234h10c15 0 15 30.149 30 30.149h10" style="stroke:green;stroke-width:1;stroke-dasharray:5,5"/><text x="289.5" y="194.526" font-family="sans-serif" font-size="14" textLength="27">图 4</text></svg>