<svg xmlns="http://www.w3.org/2000/svg" preserveAspectRatio="xMinYMin meet" viewBox="0 0 535 508"><svg id="d2-svg" width="535" height="508" class="d2-3758048576" viewBox="0 0 535 508"><rect width="535" height="508" stroke-width="0" rx="0" style="fill:#fff"/><style>@keyframes dashdraw{0%{stroke-dashoffset:0}}.d2-3758048576 .text-mono{font-family:&quot;d2-3758048576-font-mono&quot;}@font-face{font-family:d2-3758048576-font-mono;src:url(/stylesheets/font/Virgil-hand.woff2)}.d2-3758048576 .text-mono-bold{font-family:&quot;d2-3758048576-font-mono-bold&quot;}@font-face{font-family:d2-3758048576-font-mono-bold;src:url(/stylesheets/font/Virgil-hand.woff2)}.connection,.shape{stroke-linejoin:round}.shape{shape-rendering:geometricPrecision}.connection{stroke-linecap:round}.d2-3758048576 .fill-N1{fill:#000410}.d2-3758048576 .fill-B6{fill:#fff}.d2-3758048576 .stroke-B1,.d2-3758048576 .stroke-B2{stroke:#000410}@media screen and (prefers-color-scheme:dark){.d2-3758048576 .fill-N1{fill:#cdd6f4}.d2-3758048576 .fill-B6{fill:#313244}.d2-3758048576 .stroke-B1,.d2-3758048576 .stroke-B2{stroke:#cba6f7}}.dots-overlay{fill:url(#dots);mix-blend-mode:multiply}</style><defs><pattern id="dots" width="15" height="15" x="0" y="0" patternUnits="userSpaceOnUse"><path fill="#0A0F25" d="M2 2h1v1H2zM12 2h1v1h-1zM12 12h1v1h-1zM2 12h1v1H2zM2 7h1v1H2zM12 7h1v1h-1zM7 2h1v1H7zM7 12h1v1H7zM7 7h1v1H7z" opacity=".1" style="mix-blend-mode:multiply"/></pattern></defs><defs><filter id="shadow-filter" width="200%" height="200%" x="-50%" y="-50%"><feGaussianBlur in="SourceGraphic" stdDeviation="1.7"/><feFlood flood-color="#3d4574" flood-opacity=".4" result="ShadowFeFlood"/><feComposite in="ShadowFeFlood" in2="SourceAlpha" operator="in" result="ShadowFeComposite"/><feOffset dx="3" dy="5" in="ShadowFeComposite" result="ShadowFeOffset"/><feBlend in="SourceGraphic" in2="ShadowFeOffset" result="ShadowFeBlend"/></filter></defs><g id="top-row" class="empty"><g class="shape"><path fill="transparent" d="M0 0h531v502H0z" class="stroke-B1" style="stroke-width:0"/><path d="M0 0h531v502H0z" class="dots-overlay" style="stroke-width:0"/><path fill="transparent" d="M5 5h521v492H5z" class="stroke-B1" style="stroke-width:0"/></g></g><g id="top-row.stack" class="empty"><g class="shape"><path fill="transparent" d="M0 36h231v466H0z" class="stroke-B1" style="stroke-width:0"/><path d="M0 36h231v466H0z" class="dots-overlay" style="stroke-width:0"/></g><text x="212" y="24" class="text-mono fill-N1" style="text-anchor:middle;font-size:24px">栈</text></g><g id="top-row.dot-container" class="empty"><g class="shape"><path fill="transparent" d="M231 0h100v502H231z" class="stroke-B1" style="stroke-width:0"/><path d="M231 0h100v502H231z" class="dots-overlay" style="stroke-width:0"/></g></g><g id="top-row.dot-container2" class="empty"><g class="shape"><path fill="transparent" d="M331 0h100v502H331z" class="stroke-B1" style="stroke-width:0"/><path d="M331 0h100v502H331z" class="dots-overlay" style="stroke-width:0"/></g></g><g id="top-row.heap"><g class="shape" filter="url(#shadow-filter)"><path d="M431 36h100v466H431z" class="stroke-B1" style="fill:#f5f6f9;stroke-width:2"/><path d="M431 36h100v466H431z" class="dots-overlay" style="stroke-width:2"/></g><text x="440" y="24" class="text-mono fill-N1" style="text-anchor:middle;font-size:24px">堆</text></g><g id="top-row.stack.vec" class="label-container"><g class="shape"><path fill="transparent" d="M0 36h131v120H0z" class="stroke-B1" style="stroke-width:0"/></g><text x="111.5" y="146" class="text-mono-bold fill-N1" style="text-anchor:middle;font-size:16px">vec</text></g><g id="top-row.stack._vec" class="empty"><g class="shape" filter="url(#shadow-filter)"><path fill="transparent" d="M131 36h100v120H131z" class="stroke-B1" style="stroke-width:0"/><path d="M131 36h100v120H131z" class="dots-overlay" style="stroke-width:0"/></g></g><g id="top-row.stack.arr" class="label-container"><g class="shape"><path fill="transparent" d="M0 156h131v105H0z" class="stroke-B1" style="stroke-width:0"/></g><text x="111.5" y="251" class="text-mono-bold fill-N1" style="text-anchor:middle;font-size:16px">arr</text></g><g id="top-row.stack._arr" class="empty"><g class="shape"><path fill="transparent" d="M131 156h100v105H131z" class="stroke-B1" style="stroke-width:0"/><path d="M131 156h100v105H131z" class="dots-overlay" style="stroke-width:0"/></g></g><g id="top-row.stack.slice_vec" class="label-container"><g class="shape"><path fill="transparent" d="M0 261h131v120H0z" class="stroke-B1" style="stroke-width:0"/></g><text x="83" y="371" class="text-mono-bold fill-N1" style="text-anchor:middle;font-size:16px">slice_vec</text></g><g id="top-row.stack._slice_vec" class="empty"><g class="shape" filter="url(#shadow-filter)"><path fill="transparent" d="M131 261h100v120H131z" class="stroke-B1" style="stroke-width:0"/><path d="M131 261h100v120H131z" class="dots-overlay" style="stroke-width:0"/></g></g><g id="top-row.stack.slice_arr" class="label-container"><g class="shape"><path fill="transparent" d="M0 381h131v120H0z" class="stroke-B1" style="stroke-width:0"/></g><text x="83" y="491" class="text-mono-bold fill-N1" style="text-anchor:middle;font-size:16px">slice_arr</text></g><g id="top-row.stack._slice_arr" class="empty"><g class="shape" filter="url(#shadow-filter)"><path fill="transparent" d="M131 381h100v120H131z" class="stroke-B1" style="stroke-width:0"/><path d="M131 381h100v120H131z" class="dots-overlay" style="stroke-width:0"/></g></g><g id="top-row.dot-container.pad" class="empty"><g class="shape"><path fill="transparent" d="M231 0h100v220H231z" class="stroke-B1" style="stroke-width:0"/></g></g><g id="top-row.dot-container.dot1" class="empty"><g class="shape"><path fill="transparent" d="M231 220h100v61H231z" class="stroke-B1" style="stroke-width:0"/><path d="M231 220h100v61H231z" class="dots-overlay" style="stroke-width:0"/></g></g><g id="top-row.dot-container.pad2" class="empty"><g class="shape"><path fill="transparent" d="M231 281h100v160H231z" class="stroke-B1" style="stroke-width:0"/></g></g><g id="top-row.dot-container.dot2" class="empty"><g class="shape"><path fill="transparent" d="M231 441h100v61H231z" class="stroke-B1" style="stroke-width:0"/><path d="M231 441h100v61H231z" class="dots-overlay" style="stroke-width:0"/></g></g><g id="top-row.dot-container2.pad" class="empty"><g class="shape"><path fill="transparent" d="M331 0h100v65H331z" class="stroke-B1" style="stroke-width:0"/></g></g><g id="top-row.dot-container2.dot" class="empty"><g class="shape"><path fill="transparent" d="M331 65h100v61H331z" class="stroke-B1" style="stroke-width:0"/><path d="M331 65h100v61H331z" class="dots-overlay" style="stroke-width:0"/></g></g><g id="top-row.dot-container2.pad1" class="empty"><g class="shape"><path fill="transparent" d="M331 126h100v50H331z" class="stroke-B1" style="stroke-width:0"/></g></g><g id="top-row.dot-container2.dot2" class="empty"><g class="shape"><path fill="transparent" d="M331 176h100v61H331z" class="stroke-B1" style="stroke-width:0"/><path d="M331 176h100v61H331z" class="dots-overlay" style="stroke-width:0"/></g></g><g id="top-row.dot-container2.pad2" class="empty"><g class="shape"><path fill="transparent" d="M331 237h100v90H331z" class="stroke-B1" style="stroke-width:0"/></g></g><g id="top-row.dot-container2.dot3" class="empty"><g class="shape"><path fill="transparent" d="M331 327h100v61H331z" class="stroke-B1" style="stroke-width:0"/><path d="M331 327h100v61H331z" class="dots-overlay" style="stroke-width:0"/></g></g><g id="top-row.heap.pad0" class="invisible"><g class="shape"><path d="M431 36h100v20H431z" class="stroke-B1 fill-B6" style="stroke-width:2"/></g></g><g id="top-row.heap.pad1" class="invisible"><g class="shape"><path d="M431 56h100v20H431z" class="stroke-B1 fill-B6" style="stroke-width:2"/></g></g><g id="top-row.heap.pad2" class="invisible"><g class="shape"><path d="M431 76h100v20H431z" class="stroke-B1 fill-B6" style="stroke-width:2"/></g></g><g id="top-row.heap.pad3" class="invisible"><g class="shape"><path d="M431 96h100v20H431z" class="stroke-B1 fill-B6" style="stroke-width:2"/></g></g><g id="top-row.heap.5"><g class="shape"><path d="M431 116h100v21H431z" class="stroke-B1 fill-B6" style="stroke-width:2"/></g><text x="481" y="132" class="text-mono-bold fill-N1" style="text-anchor:middle;font-size:16px">5</text></g><g id="top-row.heap.4"><g class="shape"><path d="M431 137h100v21H431z" class="stroke-B1 fill-B6" style="stroke-width:2"/></g><text x="481" y="153" class="text-mono-bold fill-N1" style="text-anchor:middle;font-size:16px">4</text></g><g id="top-row.heap.3"><g class="shape"><path d="M431 158h100v21H431z" class="stroke-B1 fill-B6" style="stroke-width:2"/></g><text x="481" y="174" class="text-mono-bold fill-N1" style="text-anchor:middle;font-size:16px">3</text></g><g id="top-row.heap.2"><g class="shape"><path d="M431 179h100v21H431z" class="stroke-B1 fill-B6" style="stroke-width:2"/></g><text x="481" y="195" class="text-mono-bold fill-N1" style="text-anchor:middle;font-size:16px">2</text></g><g id="top-row.heap.1"><g class="shape"><path d="M431 200h100v21H431z" class="stroke-B1 fill-B6" style="stroke-width:2"/></g><text x="481" y="216" class="text-mono-bold fill-N1" style="text-anchor:middle;font-size:16px">1</text></g><g id="top-row.heap.pad4" class="invisible"><g class="shape"><path d="M431 221h100v20H431z" class="stroke-B1 fill-B6" style="stroke-width:2"/></g></g><g id="top-row.stack._vec.len"><g class="shape"><path fill="#f0fff0" d="M131 36h100v40H131z" class="stroke-B1" style="stroke-width:2"/></g><text x="181" y="61.5" class="text-mono-bold fill-N1" style="text-anchor:middle;font-size:16px">len</text></g><g id="top-row.stack._vec.ptr"><g class="shape"><path fill="#f0fff0" d="M131 76h100v40H131z" class="stroke-B1" style="stroke-width:2"/></g><text x="181" y="101.5" class="text-mono-bold fill-N1" style="text-anchor:middle;font-size:16px">ptr</text></g><g id="top-row.stack._vec.capacity"><g class="shape"><path fill="#f0fff0" d="M131 116h100v40H131z" class="stroke-B1" style="stroke-width:2"/></g><text x="181" y="141.5" class="text-mono-bold fill-N1" style="text-anchor:middle;font-size:16px">capacity</text></g><g id="top-row.stack._arr.&quot;...&quot;"><g class="shape"><path fill="transparent" d="M131 156h100v21H131z" class="stroke-B1" style="stroke-width:2"/></g><text x="181" y="172" class="text-mono-bold fill-N1" style="text-anchor:middle;font-size:16px">...</text></g><g id="top-row.stack._arr.4"><g class="shape"><path fill="#ffffe0" d="M131 177h100v21H131z" class="stroke-B1" style="stroke-width:2"/></g><text x="181" y="193" class="text-mono-bold fill-N1" style="text-anchor:middle;font-size:16px">4</text></g><g id="top-row.stack._arr.3"><g class="shape"><path fill="#ffffe0" d="M131 198h100v21H131z" class="stroke-B1" style="stroke-width:2"/></g><text x="181" y="214" class="text-mono-bold fill-N1" style="text-anchor:middle;font-size:16px">3</text></g><g id="top-row.stack._arr.2"><g class="shape"><path fill="#ffffe0" d="M131 219h100v21H131z" class="stroke-B1" style="stroke-width:2"/></g><text x="181" y="235" class="text-mono-bold fill-N1" style="text-anchor:middle;font-size:16px">2</text></g><g id="top-row.stack._arr.1"><g class="shape"><path fill="#ffffe0" d="M131 240h100v21H131z" class="stroke-B1" style="stroke-width:2"/></g><text x="181" y="256" class="text-mono-bold fill-N1" style="text-anchor:middle;font-size:16px">1</text></g><g id="top-row.stack._slice_vec.&quot;...&quot;"><g class="shape"><path fill="transparent" d="M131 261h100v40H131z" class="stroke-B1" style="stroke-width:2"/></g><text x="181" y="286.5" class="text-mono-bold fill-N1" style="text-anchor:middle;font-size:16px">...</text></g><g id="top-row.stack._slice_vec.len"><g class="shape"><path fill="#e0ffff" d="M131 301h100v40H131z" class="stroke-B1" style="stroke-width:2"/></g><text x="181" y="326.5" class="text-mono-bold fill-N1" style="text-anchor:middle;font-size:16px">len</text></g><g id="top-row.stack._slice_vec.ptr"><g class="shape"><path fill="#e0ffff" d="M131 341h100v40H131z" class="stroke-B1" style="stroke-width:2"/></g><text x="181" y="366.5" class="text-mono-bold fill-N1" style="text-anchor:middle;font-size:16px">ptr</text></g><g id="top-row.stack._slice_arr.&quot;...&quot;"><g class="shape"><path fill="transparent" d="M131 381h100v40H131z" class="stroke-B1" style="stroke-width:2"/></g><text x="181" y="406.5" class="text-mono-bold fill-N1" style="text-anchor:middle;font-size:16px">...</text></g><g id="top-row.stack._slice_arr.len"><g class="shape"><path fill="#fffacd" d="M131 421h100v40H131z" class="stroke-B1" style="stroke-width:2"/></g><text x="181" y="446.5" class="text-mono-bold fill-N1" style="text-anchor:middle;font-size:16px">len</text></g><g id="top-row.stack._slice_arr.ptr"><g class="shape"><path fill="#fffacd" d="M131 461h100v40H131z" class="stroke-B1" style="stroke-width:2"/></g><text x="181" y="486.5" class="text-mono-bold fill-N1" style="text-anchor:middle;font-size:16px">ptr</text></g><g id="top-row.dot-container.dot1.circle" class="shape"><circle cx="261.5" cy="250.5" r=".5" class="shape stroke-B1" style="stroke-width:0"/></g><g id="top-row.dot-container.dot2.circle" class="shape"><circle cx="261.5" cy="471.5" r=".5" class="shape stroke-B1" style="stroke-width:0"/></g><g id="top-row.dot-container2.dot.circle" class="shape"><circle cx="361.5" cy="95.5" r=".5" class="shape stroke-B1" style="stroke-width:0"/></g><g id="top-row.dot-container2.dot2.circle" class="shape"><circle cx="361.5" cy="206.5" r=".5" class="shape stroke-B1" style="stroke-width:0"/></g><g id="top-row.dot-container2.dot3.circle" class="shape"><circle cx="361.5" cy="357.5" r=".5" class="shape stroke-B1" style="stroke-width:0"/></g><path id="top-row.(stack._slice_vec.ptr -- dot-container2.dot3.circle)[0]" fill="none" d="m232.5 360.447 128.5-3.42" class="connection animated-connection stroke-B2" mask="url(#d2-3758048576)" style="stroke-width:2;stroke-dasharray:6,5.919384;stroke-dashoffset:-119.193836;animation:dashdraw 2.959692s linear infinite"/><path id="top-row.dot-container2.(dot3.circle -- dot2.circle)[0]" fill="none" d="M362 357V208" class="connection animated-connection stroke-B2" mask="url(#d2-3758048576)" style="stroke-width:2;stroke-dasharray:6,5.919384;stroke-dashoffset:-119.193836;animation:dashdraw 2.959692s linear infinite"/><g id="top-row.(dot-container2.dot2.circle -&gt; heap.1)[0]"><marker id="mk-2177206569" markerHeight="12" markerUnits="userSpaceOnUse" markerWidth="10" orient="auto" refX="7" refY="6" viewBox="0 0 10 12"><path stroke-width="2" d="m0 0 10 6-10 6z" class="connection" style="fill:#000410"/></marker><path fill="none" marker-end="url(#mk-2177206569)" d="m363 207.029 64.002 1.855" class="connection animated-connection stroke-B2" mask="url(#d2-3758048576)" style="stroke-width:2;stroke-dasharray:6,5.919384;stroke-dashoffset:-119.193836;animation:dashdraw 2.959692s linear infinite"/></g><path id="top-row.(stack._vec.ptr -- dot-container2.dot.circle)[0]" fill="none" d="m232.5 95.508 128.5.488" class="connection animated-connection stroke-B2" mask="url(#d2-3758048576)" style="stroke-width:2;stroke-dasharray:6,5.919384;stroke-dashoffset:-119.193836;animation:dashdraw 2.959692s linear infinite"/><path id="top-row.dot-container2.(dot.circle -- dot2.circle)[0]" fill="none" d="M362 97v109" class="connection animated-connection stroke-B2" mask="url(#d2-3758048576)" style="stroke-width:2;stroke-dasharray:6,5.919384;stroke-dashoffset:-119.193836;animation:dashdraw 2.959692s linear infinite"/><path id="top-row.(dot-container2.dot2.circle -&gt; heap.1)[1]" fill="none" marker-end="url(#mk-2177206569)" d="m363 207.029 64.002 1.855" class="connection animated-connection stroke-B2" mask="url(#d2-3758048576)" style="stroke-width:2;stroke-dasharray:6,5.919384;stroke-dashoffset:-119.193836;animation:dashdraw 2.959692s linear infinite"/><path id="top-row.(stack._slice_arr.ptr -- dot-container.dot2.circle)[0]" fill="none" d="m232.48 475.217 28.53-4.076" class="connection animated-connection stroke-B2" mask="url(#d2-3758048576)" style="stroke-width:2;stroke-dasharray:6,5.919384;stroke-dashoffset:-119.193836;animation:dashdraw 2.959692s linear infinite"/><path id="top-row.dot-container.(dot2.circle -- dot1.circle)[0]" fill="none" d="M262 471V252" class="connection animated-connection stroke-B2" mask="url(#d2-3758048576)" style="stroke-width:2;stroke-dasharray:6,5.919384;stroke-dashoffset:-119.193836;animation:dashdraw 2.959692s linear infinite"/><path id="top-row.(dot-container.dot1.circle -&gt; stack._arr.1)[0]" fill="none" marker-end="url(#mk-2177206569)" d="M260 251h-25" class="connection animated-connection stroke-B2" mask="url(#d2-3758048576)" style="stroke-width:2;stroke-dasharray:6,5.919384;stroke-dashoffset:-119.193836;animation:dashdraw 2.959692s linear infinite"/><mask id="d2-3758048576" width="535" height="508" x="0" y="0" maskUnits="userSpaceOnUse"><path fill="#fff" d="M0 0h535v508H0z"/><path fill="rgba(0,0,0,0.75)" d="M198 0h28v31h-28zM426 0h28v31h-28zM97 130h29v21H97zM97 235h29v21H97zM40 355h86v21H40zM40 475h86v21H40zM476.5 116h9v21h-9zM476.5 137h9v21h-9zM476.5 158h9v21h-9zM476.5 179h9v21h-9zM477 200h8v21h-8zM166.5 45.5h29v21h-29zM167 85.5h28v21h-28zM142.5 125.5h77v21h-77zM168.5 156h25v21h-25zM176.5 177h9v21h-9zM176.5 198h9v21h-9zM176.5 219h9v21h-9zM177 240h8v21h-8zM168.5 270.5h25v21h-25zM166.5 310.5h29v21h-29zM167 350.5h28v21h-28zM168.5 390.5h25v21h-25zM166.5 430.5h29v21h-29zM167 470.5h28v21h-28z"/></mask></svg></svg>