<svg xmlns="http://www.w3.org/2000/svg" width="1005" height="176" preserveAspectRatio="none" style="width:1005px;height:176px;background:#fff"><rect width="284" height="162.078" x="714.5" y="7" fill="#F1F1F1" rx="2.5" ry="2.5" style="stroke:#181818;stroke-width:.5"/><circle cx="822.25" cy="23" r="11" fill="#B4A7E5" style="stroke:#181818;stroke-width:1"/><path d="M818.172 18.766v-2.157h7.39v2.157h-2.468v8.078h2.468V29h-7.39v-2.156h2.469v-8.078z"/><text x="842.75" y="27.847" font-family="sans-serif" font-size="14" font-style="italic" textLength="60">Interface</text><path d="M715.5 39h282M715.5 47h282" style="stroke:#181818;stroke-width:.5"/><text x="720.5" y="63.995" font-family="sans-serif" font-size="14" textLength="149">Add(item interface{})</text><text x="720.5" y="80.292" font-family="sans-serif" font-size="14" textLength="56">Len() int</text><text x="720.5" y="96.589" font-family="sans-serif" font-size="14" textLength="272">Get() (item interface{}, shutdown bool)</text><text x="720.5" y="112.886" font-family="sans-serif" font-size="14" textLength="160">Done(item interface{})</text><text x="720.5" y="129.183" font-family="sans-serif" font-size="14" textLength="82">ShutDown()</text><text x="720.5" y="145.48" font-family="sans-serif" font-size="14" textLength="148">ShutDownWithDrain()</text><text x="720.5" y="161.776" font-family="sans-serif" font-size="14" textLength="142">ShuttingDown() bool</text><rect width="355" height="80.594" x="317" y="48.04" fill="#F1F1F1" rx="2.5" ry="2.5" style="stroke:#181818;stroke-width:.5"/><circle cx="430.75" cy="64.04" r="11" fill="#B4A7E5" style="stroke:#181818;stroke-width:1"/><path d="M426.672 59.806v-2.157h7.39v2.157h-2.468v8.078h2.469v2.156h-7.391v-2.156h2.469v-8.078z"/><text x="451.25" y="68.887" font-family="sans-serif" font-size="14" font-style="italic" textLength="119">DelayingInterface</text><path d="M318 80.04h353" style="stroke:#181818;stroke-width:.5"/><text x="323" y="97.035" font-family="sans-serif" font-size="14" textLength="60">Interface</text><path d="M318 104.337h353" style="stroke:#181818;stroke-width:.5"/><text x="323" y="121.332" font-family="sans-serif" font-size="14" textLength="343">AddAfter(item interface{}, duration time.Duration)</text><rect width="259" height="113.188" x="7" y="31.54" fill="#F1F1F1" rx="2.5" ry="2.5" style="stroke:#181818;stroke-width:.5"/><circle cx="60.25" cy="47.54" r="11" fill="#B4A7E5" style="stroke:#181818;stroke-width:1"/><path d="M56.172 43.306v-2.157h7.39v2.157h-2.468v8.078h2.468v2.156h-7.39v-2.156h2.469v-8.078z"/><text x="80.75" y="52.387" font-family="sans-serif" font-size="14" font-style="italic" textLength="144">RateLimitingInterface</text><path d="M8 63.54h257" style="stroke:#181818;stroke-width:.5"/><text x="13" y="80.535" font-family="sans-serif" font-size="14" textLength="119">DelayingInterface</text><path d="M8 87.837h257" style="stroke:#181818;stroke-width:.5"/><text x="13" y="104.832" font-family="sans-serif" font-size="14" textLength="230">AddRateLimited(item interface{})</text><text x="13" y="121.129" font-family="sans-serif" font-size="14" textLength="167">Forget(item interface{})</text><text x="13" y="137.426" font-family="sans-serif" font-size="14" textLength="247">NumRequeues(item interface{}) int</text><path fill="none" d="M673.5 92.04c13.27 2.79 21.135 4.278 34.965 5.978" style="stroke:#181818;stroke-width:1"/><path fill="#181818" d="m714.42 98.75-8.445-5.068 3.482 4.458-4.458 3.482z" style="stroke:#181818;stroke-width:1"/><path fill="none" d="M267.5 75.04c13.56 2.29 21.634 3.634 35.724 5.714" style="stroke:#181818;stroke-width:1"/><path fill="#181818" d="m309.16 81.63-8.32-5.271 3.374 4.54-4.542 3.374z" style="stroke:#181818;stroke-width:1"/></svg>