<svg xmlns="http://www.w3.org/2000/svg" width="548.182" height="181.127"><defs><style>@font-face{font-family:&quot;Virgil&quot;;src:url(https://unpkg.com/@excalidraw/excalidraw@undefined/dist/excalidraw-assets/Virgil.woff2)}@font-face{font-family:&quot;Cascadia&quot;;src:url(https://unpkg.com/@excalidraw/excalidraw@undefined/dist/excalidraw-assets/Cascadia.woff2)}@font-face{font-family:&quot;Assistant&quot;;src:url(https://unpkg.com/@excalidraw/excalidraw@undefined/dist/excalidraw-assets/Assistant-Regular.woff2)}</style></defs><path fill="#fff" d="M0 0h548.182v181.127H0z"/><text fill="#d9480f" dominant-baseline="text-before-edge" font-family="Assistant, Segoe UI Emoji" font-size="28" style="white-space:pre" transform="translate(26.022 12.576)">/regexp/replacement/</text><text fill="#495057" dominant-baseline="text-before-edge" font-family="Assistant, Segoe UI Emoji" font-size="28" style="white-space:pre" transform="translate(313.014 12.437)">flags</text><text fill="#0b7285" dominant-baseline="text-before-edge" font-family="Assistant, Segoe UI Emoji" font-size="28" style="white-space:pre" transform="translate(10 10)">s</text><text fill="#5c940d" dominant-baseline="text-before-edge" font-family="Assistant, Segoe UI Emoji" font-size="20" style="white-space:pre" transform="translate(129.943 89.127)">很多人可能以为</text><text y="20.5" fill="#5c940d" dominant-baseline="text-before-edge" font-family="Assistant, Segoe UI Emoji" font-size="20" style="white-space:pre" transform="translate(129.943 89.127)">s/hello/world/p 这样的操作里的p</text><text y="41" fill="#5c940d" dominant-baseline="text-before-edge" font-family="Assistant, Segoe UI Emoji" font-size="20" style="white-space:pre" transform="translate(129.943 89.127)">是和s一个类别的那个p, 实际这里的p是flags</text><text y="61.5" fill="#5c940d" dominant-baseline="text-before-edge" font-family="Assistant, Segoe UI Emoji" font-size="20" style="white-space:pre" transform="translate(129.943 89.127)">只不过行为与身份为X的p一样.</text><path fill="none" stroke="#c92a2a" stroke-dasharray="8 9" stroke-linecap="round" stroke-width="1.5" d="M346.072 127.229c59.04-1.78 121.55 1.04 192.11 0m0 0c1.36 6.66.47 13.73 0 25.66m0 0c-74.16-.09-149.31 2.46-192.11 0m0 0c.35-9.44-1.64-18.46 0-25.66"/><g stroke-linecap="round"><path fill="none" stroke="#c92a2a" stroke-dasharray="8 9" stroke-width="1.5" d="M477.071 121.44c-34.82-22.15-73.55-46.19-112.47-70.65"/><path fill="#c92a2a" fill-rule="evenodd" stroke-width="0" d="m366.341 49.48 12.93 3.58-7.05 11.93-8.66-14.33"/><path fill="none" stroke="#c92a2a" stroke-width="1.5" d="M364.601 50.79c5.79 1.83 8.95 1.59 14.88 1.85m0 0c-1.63 3.61-2.74 6.17-6.73 10.74m0 0c-2.87-3.31-4.95-8.03-8.15-12.59m0 0q0 0 0 0"/></g></svg>