<svg xmlns="http://www.w3.org/2000/svg" width="1043" height="167" preserveAspectRatio="none" style="width:1043px;height:167px;background:#fff"><rect width="69" height="36.297" x="10" y="64.445" fill="#F1F1F1" rx="12.5" ry="12.5" style="stroke:#181818;stroke-width:1.5"/><text x="20" y="87.44" font-family="sans-serif" font-size="14" textLength="49">service</text><rect width="159" height="36.297" x="129" y="64.445" fill="#F1F1F1" rx="12.5" ry="12.5" style="stroke:#181818;stroke-width:1.5"/><text x="139" y="87.44" font-family="sans-serif" font-size="14" textLength="139">如何访问到后端的pod</text><rect width="161" height="52.594" x="338" y="20" fill="#F1F1F1" rx="12.5" ry="12.5" style="stroke:#181818;stroke-width:1.5"/><text x="348" y="42.995" font-family="sans-serif" font-size="14" textLength="53">VIP 方式</text><text x="348" y="59.292" font-family="sans-serif" font-size="14" textLength="141">(访问service的虚拟ip)</text><text x="552" y="51.144" font-family="sans-serif" font-size="14" textLength="167">通过它再到其代理的pod上</text><path fill="none" d="M499 46.297h50M288 82.594h10c15 0 15-36.297 30-36.297h10" style="stroke:#181818;stroke-width:1"/><rect width="329" height="52.594" x="338" y="92.594" fill="#F1F1F1" rx="12.5" ry="12.5" style="stroke:#181818;stroke-width:1.5"/><text x="348" y="115.589" font-family="sans-serif" font-size="14" textLength="62">DNS 方式</text><text x="348" y="131.886" font-family="sans-serif" font-size="14" textLength="309">(访问my-svc.my-namespace.svc.cluster.local)</text><text x="720" y="114.589" font-family="sans-serif" font-size="14" textLength="311">解析到service的VIP,然后再到它代理的一个pod上</text><path fill="none" d="M667 118.89h10c15 0 15-9.148 30-9.148h10" style="stroke:#181818;stroke-width:1"/><text x="720" y="132.886" font-family="sans-serif" font-size="14" textLength="293">Headless Service(直接解析到某个pod的ip上)</text><path fill="none" d="M667 118.89h10c15 0 15 9.15 30 9.15h10M288 82.594h10c15 0 15 36.297 30 36.297h10M79 82.594h50" style="stroke:#181818;stroke-width:1"/></svg>