<svg xmlns="http://www.w3.org/2000/svg" preserveAspectRatio="xMinYMin meet" viewBox="0 0 382 376"><svg id="d2-svg" width="382" height="376" class="d2-2797879835" viewBox="0 0 382 376"><rect width="382" height="376" stroke-width="0" rx="0" style="fill:#fff"/><style>.d2-2797879835 .text-mono{font-family:&quot;d2-2797879835-font-mono&quot;}@font-face{font-family:d2-2797879835-font-mono;src:url(/stylesheets/font/Virgil-hand.woff2)}.d2-2797879835 .text-mono-bold{font-family:&quot;d2-2797879835-font-mono-bold&quot;}@font-face{font-family:d2-2797879835-font-mono-bold;src:url(/stylesheets/font/Virgil-hand.woff2)}.connection,.shape{stroke-linejoin:round}.shape{shape-rendering:geometricPrecision}.connection{stroke-linecap:round}.d2-2797879835 .fill-N1{fill:#000410}.d2-2797879835 .fill-B5{fill:#f5f6f9}.d2-2797879835 .fill-B6{fill:#fff}.d2-2797879835 .stroke-B1{stroke:#000410}@media screen and (prefers-color-scheme:dark){.d2-2797879835 .fill-N1{fill:#cdd6f4}.d2-2797879835 .fill-B5{fill:#45475a}.d2-2797879835 .fill-B6{fill:#313244}.d2-2797879835 .stroke-B1{stroke:#cba6f7}}.dots-overlay{fill:url(#dots);mix-blend-mode:multiply}</style><defs><pattern id="dots" width="15" height="15" x="0" y="0" patternUnits="userSpaceOnUse"><path fill="#0A0F25" d="M2 2h1v1H2zM12 2h1v1h-1zM12 12h1v1h-1zM2 12h1v1H2zM2 7h1v1H2zM12 7h1v1h-1zM7 2h1v1H7zM7 12h1v1H7zM7 7h1v1H7z" opacity=".1" style="mix-blend-mode:multiply"/></pattern></defs><defs><filter id="shadow-filter" width="200%" height="200%" x="-50%" y="-50%"><feGaussianBlur in="SourceGraphic" stdDeviation="1.7"/><feFlood flood-color="#3d4574" flood-opacity=".4" result="ShadowFeFlood"/><feComposite in="ShadowFeFlood" in2="SourceAlpha" operator="in" result="ShadowFeComposite"/><feOffset dx="3" dy="5" in="ShadowFeComposite" result="ShadowFeOffset"/><feBlend in="SourceGraphic" in2="ShadowFeOffset" result="ShadowFeBlend"/></filter></defs><g id="top-row" class="empty"><g class="shape"><path fill="transparent" d="M0 0h382v376H0z" class="stroke-B1" style="stroke-width:0"/><path d="M0 0h382v376H0z" class="dots-overlay" style="stroke-width:0"/><path fill="transparent" d="M5 5h372v366H5z" class="stroke-B1" style="stroke-width:0"/></g></g><g id="top-row.lion"><g class="shape" filter="url(#shadow-filter)"><rect width="100" height="90" x="92" y="226" class="stroke-B1 fill-B5" rx="10" style="stroke-width:2"/><rect width="100" height="90" x="92" y="226" class="dots-overlay" rx="10" style="stroke-width:2"/></g><text x="142" y="214" class="text-mono fill-N1" style="text-anchor:middle;font-size:24px">lion</text></g><g id="top-row.lion_info"><g class="shape"><path d="M30 30h224v66H30z" class="stroke-B1 fill-B5" style="stroke-width:2"/></g><text x="142" y="68.5" class="text-mono-bold fill-N1" style="text-anchor:middle;font-size:16px">LION的8字节占用情况</text></g><g id="top-row.heap"><g class="shape" filter="url(#shadow-filter)"><rect width="100" height="150" x="252" y="196" class="stroke-B1 fill-B5" rx="10" style="stroke-width:2"/><rect width="100" height="150" x="252" y="196" class="dots-overlay" rx="10" style="stroke-width:2"/></g><text x="302" y="184" class="text-mono fill-N1" style="text-anchor:middle;font-size:24px">HEAP</text></g><g id="top-row.lion.&quot;&quot;" class="shape"><path d="M92 226h100v30H92z" class="stroke-B1 fill-B6" style="stroke-width:2"/></g><g id="top-row.lion.66"><g class="shape"><path d="M92 256h100v30H92z" class="stroke-B1 fill-B6" style="stroke-width:2"/></g><text x="142" y="276.5" class="text-mono-bold fill-N1" style="text-anchor:middle;font-size:16px">66</text></g><g id="top-row.lion.1"><g class="shape"><path d="M92 286h100v30H92z" class="stroke-B1 fill-B6" style="stroke-width:2"/></g><text x="142" y="306.5" class="text-mono-bold fill-N1" style="text-anchor:middle;font-size:16px">1</text></g><g id="top-row.heap.5"><g class="shape"><path d="M252 196h100v30H252z" class="stroke-B1 fill-B6" style="stroke-width:2"/></g><text x="302" y="216.5" class="text-mono-bold fill-N1" style="text-anchor:middle;font-size:16px">5</text></g><g id="top-row.heap.4"><g class="shape"><path d="M252 226h100v30H252z" class="stroke-B1 fill-B6" style="stroke-width:2"/></g><text x="302" y="246.5" class="text-mono-bold fill-N1" style="text-anchor:middle;font-size:16px">4</text></g><g id="top-row.heap.3"><g class="shape"><path d="M252 256h100v30H252z" class="stroke-B1 fill-B6" style="stroke-width:2"/></g><text x="302" y="276.5" class="text-mono-bold fill-N1" style="text-anchor:middle;font-size:16px">3</text></g><g id="top-row.heap.2"><g class="shape"><path d="M252 286h100v30H252z" class="stroke-B1 fill-B6" style="stroke-width:2"/></g><text x="302" y="306.5" class="text-mono-bold fill-N1" style="text-anchor:middle;font-size:16px">2</text></g><g id="top-row.heap.1"><g class="shape"><path d="M252 316h100v30H252z" class="stroke-B1 fill-B6" style="stroke-width:2"/></g><text x="302" y="336.5" class="text-mono-bold fill-N1" style="text-anchor:middle;font-size:16px">1</text></g><g id="top-row.(lion_info -&gt; lion)[0]"><marker id="mk-3488378134" markerHeight="12" markerUnits="userSpaceOnUse" markerWidth="10" orient="auto" refX="7" refY="6" viewBox="0 0 10 12"><path stroke-width="2" d="m0 0 10 6-10 6z" class="connection" style="fill:#000410"/></marker><path fill="none" marker-end="url(#mk-3488378134)" d="M142 98v88" class="connection stroke-B1" mask="url(#d2-2797879835)" style="stroke-width:2"/></g><mask id="d2-2797879835" width="382" height="376" x="0" y="0" maskUnits="userSpaceOnUse"><path fill="#fff" d="M0 0h382v376H0z"/><path fill="rgba(0,0,0,0.75)" d="M114 190h56v31h-56zM52.5 52.5h179v21h-179zM273.5 160h57v31h-57zM132.5 260.5h19v21h-19zM138 290.5h8v21h-8zM297.5 200.5h9v21h-9zM297.5 230.5h9v21h-9zM297.5 260.5h9v21h-9zM297.5 290.5h9v21h-9zM298 320.5h8v21h-8z"/></mask></svg></svg>