<svg xmlns="http://www.w3.org/2000/svg" width="800" height="56" class="WaveDrom"><g font-family="sans-serif" font-size="14" text-anchor="middle"><g stroke="#000" stroke-linecap="round"><path d="M4.5 21.5h791M4.5 21.5v31M4.5 52.5h791M795.5 21.5v31M746.5 21.5v3M746.5 52.5v-3M696.5 21.5v3M696.5 52.5v-3M647.5 21.5v3M647.5 52.5v-3M597.5 21.5v3M597.5 52.5v-3M548.5 21.5v3M548.5 52.5v-3M498.5 21.5v3M498.5 52.5v-3M449.5 21.5v3M449.5 52.5v-3M400.5 21.5v31M350.5 21.5v3M350.5 52.5v-3M301.5 21.5v3M301.5 52.5v-3M251.5 21.5v3M251.5 52.5v-3M202.5 21.5v3M202.5 52.5v-3M152.5 21.5v3M152.5 52.5v-3M103.5 21.5v3M103.5 52.5v-3M53.5 21.5v3M53.5 52.5v-3"/></g><text y="6" transform="translate(771.5 10.5)">0</text><text y="6" transform="translate(425.5 10.5)">7</text><text y="6" transform="translate(375.5 10.5)">8</text><text y="6" transform="translate(29.5 10.5)">15</text><text y="6" transform="translate(598.5 36.5)"><tspan>Data指针</tspan></text><text y="6" transform="translate(202.5 36.5)"><tspan>Len</tspan></text></g></svg>