<svg xmlns="http://www.w3.org/2000/svg" preserveAspectRatio="xMinYMin meet" viewBox="0 0 808 398"><svg id="d2-svg" width="808" height="398" class="d2-1905496150" viewBox="0 0 808 398"><rect width="808" height="398" stroke-width="0" rx="0" style="fill:#fff"/><style><![CDATA[.d2-1905496150 .text-mono{font-family:"d2-1905496150-font-mono"}@font-face{font-family:d2-1905496150-font-mono;src:url(/stylesheets/font/Virgil-hand.woff2)}.d2-1905496150 .text-mono-bold{font-family:"d2-1905496150-font-mono-bold"}@font-face{font-family:d2-1905496150-font-mono-bold;src:url(/stylesheets/font/Virgil-hand.woff2)}.d2-1905496150 .text-mono-italic{font-family:"d2-1905496150-font-mono-italic"}@font-face{font-family:d2-1905496150-font-mono-italic;src:url(/stylesheets/font/Virgil-hand.woff2)}.connection,.shape{stroke-linejoin:round}.shape{shape-rendering:geometricPrecision}.connection{stroke-linecap:round}.d2-1905496150 .fill-B1,.d2-1905496150 .fill-N1{fill:#000410}.d2-1905496150 .fill-B5{fill:#f5f6f9}.d2-1905496150 .fill-B6{fill:#fff}.d2-1905496150 .stroke-B1,.d2-1905496150 .stroke-N1{stroke:#000410}@media screen and (prefers-color-scheme:dark){.d2-1905496150 .fill-N1{fill:#cdd6f4}.d2-1905496150 .fill-B1{fill:#cba6f7}.d2-1905496150 .fill-B5{fill:#45475a}.d2-1905496150 .fill-B6{fill:#313244}.d2-1905496150 .stroke-N1{stroke:#cdd6f4}.d2-1905496150 .stroke-B1{stroke:#cba6f7}}.dots-overlay{fill:url(#dots);mix-blend-mode:multiply}]]></style><defs><pattern id="dots" width="15" height="15" x="0" y="0" patternUnits="userSpaceOnUse"><path fill="#0A0F25" d="M2 2h1v1H2zM12 2h1v1h-1zM12 12h1v1h-1zM2 12h1v1H2zM2 7h1v1H2zM12 7h1v1h-1zM7 2h1v1H7zM7 12h1v1H7zM7 7h1v1H7z" opacity=".1" style="mix-blend-mode:multiply"/></pattern></defs><defs><filter id="shadow-filter" width="200%" height="200%" x="-50%" y="-50%"><feGaussianBlur in="SourceGraphic" stdDeviation="1.7"/><feFlood flood-color="#3d4574" flood-opacity=".4" result="ShadowFeFlood"/><feComposite in="ShadowFeFlood" in2="SourceAlpha" operator="in" result="ShadowFeComposite"/><feOffset dx="3" dy="5" in="ShadowFeComposite" result="ShadowFeOffset"/><feBlend in="SourceGraphic" in2="ShadowFeOffset" result="ShadowFeBlend"/></filter></defs><g id="a" class="empty"><g class="shape"><path fill="transparent" d="M0 0h278v398H0z" class="stroke-B1" style="stroke-width:0"/><path d="M0 0h278v398H0z" class="dots-overlay" style="stroke-width:0"/><path fill="transparent" d="M5 5h268v388H5z" class="stroke-B1" style="stroke-width:0"/></g></g><g id="mid-col" class="empty"><g class="shape"><path fill="transparent" d="M318 0h440v398H318z" class="stroke-B1" style="stroke-width:0"/><path d="M318 0h440v398H318z" class="dots-overlay" style="stroke-width:0"/><path fill="transparent" d="M323 5h430v388H323z" class="stroke-B1" style="stroke-width:0"/></g></g><g id="right-col"><text x="792.5" y="204" class="text-mono fill-N1" style="text-anchor:middle;font-size:16px">tag</text></g><g id="a.aa" class="empty"><g class="shape"><path fill="transparent" d="M10 40h258v73H10z" class="stroke-B1" style="stroke-width:0"/></g><text x="139" y="140" class="text-mono-bold fill-N1" style="text-anchor:middle;font-size:22px">各变体的内存结构</text></g><g id="a.left-col"><g style="display:block"><path d="M0 0h258v120H0z" class="shape stroke-N1" style="fill:#fff;stroke-width:2" transform="translate(10 156)"/><text y="1em" class="text-mono" transform="translate(18 164)"><tspan class="text-mono-bold">enum</tspan> <tspan fill="#458" class="text-mono-bold">Cat</tspan><tspan fill="#bbb"> </tspan>{<tspan fill="#bbb">
</tspan></text><text y="2.3em" class="text-mono" transform="translate(18 164)"><tspan fill="#bbb">    </tspan>Tiger(<tspan fill="#458" class="text-mono-bold">i32</tspan>),<tspan fill="#bbb"> </tspan><tspan fill="#998" class="text-mono-italic">// tag =0
</tspan></text><text y="3.6em" class="text-mono" transform="translate(18 164)"><tspan fill="#bbb">    </tspan>Lion(<tspan fill="#458" class="text-mono-bold">i8</tspan>),<tspan fill="#bbb">   </tspan><tspan fill="#998" class="text-mono-italic">// tag =1
</tspan></text><text y="4.9em" class="text-mono" transform="translate(18 164)"><tspan fill="#bbb">    </tspan>Dog(<tspan fill="#458" class="text-mono-bold">i16</tspan>),<tspan fill="#bbb">   </tspan><tspan fill="#998" class="text-mono-italic">// tag =2
</tspan></text><text y="6.2em" class="text-mono" transform="translate(18 164)">}</text></g></g><g id="mid-col.lion"><g class="shape" filter="url(#shadow-filter)"><rect width="320" height="30" x="378" y="96" class="stroke-B1 fill-B5" rx="10" style="stroke-width:2"/><rect width="320" height="30" x="378" y="96" class="dots-overlay" rx="10" style="stroke-width:2"/></g><text x="665" y="84" class="text-mono fill-N1" style="text-anchor:middle;font-size:24px">lion</text></g><g id="mid-col.dog"><g class="shape" filter="url(#shadow-filter)"><rect width="320" height="30" x="378" y="202" class="stroke-B1 fill-B5" rx="10" style="stroke-width:2"/><rect width="320" height="30" x="378" y="202" class="dots-overlay" rx="10" style="stroke-width:2"/></g><text x="672" y="190" class="text-mono fill-N1" style="text-anchor:middle;font-size:24px">dog</text></g><g id="mid-col.tiger"><g class="shape" filter="url(#shadow-filter)"><rect width="320" height="30" x="378" y="308" class="stroke-B1 fill-B5" rx="10" style="stroke-width:2"/><rect width="320" height="30" x="378" y="308" class="dots-overlay" rx="10" style="stroke-width:2"/></g><text x="658" y="296" class="text-mono fill-N1" style="text-anchor:middle;font-size:24px">tiger</text></g><g id="mid-col.lion.pad1" class="invisible"><g class="shape"><path d="M378 96h40v30h-40z" class="stroke-B1 fill-B6" style="stroke-width:2"/></g></g><g id="mid-col.lion.pad2" class="invisible"><g class="shape"><path d="M418 96h40v30h-40z" class="stroke-B1 fill-B6" style="stroke-width:2"/></g></g><g id="mid-col.lion.pad3" class="invisible"><g class="shape"><path d="M458 96h40v30h-40z" class="stroke-B1 fill-B6" style="stroke-width:2"/></g></g><g id="mid-col.lion.pad4" class="invisible"><g class="shape"><path d="M498 96h40v30h-40z" class="stroke-B1 fill-B6" style="stroke-width:2"/></g></g><g id="mid-col.lion.pad5" class="invisible"><g class="shape"><path d="M538 96h40v30h-40z" class="stroke-B1 fill-B6" style="stroke-width:2"/></g></g><g id="mid-col.lion.pad6" class="invisible"><g class="shape"><path d="M578 96h40v30h-40z" class="stroke-B1 fill-B6" style="stroke-width:2"/></g></g><g id="mid-col.lion.66"><g class="shape"><path d="M618 96h40v30h-40z" class="stroke-B1 fill-B6" style="stroke-width:2"/></g><text x="638" y="116.5" class="text-mono-bold fill-N1" style="text-anchor:middle;font-size:16px">66</text></g><g id="mid-col.lion.1"><g class="shape"><path fill="#f0fff0" d="M658 96h40v30h-40z" class="stroke-B1" style="stroke-width:2"/></g><text x="678" y="116.5" class="text-mono-bold fill-N1" style="text-anchor:middle;font-size:16px">1</text></g><g id="mid-col.dog.pad1" class="invisible"><g class="shape"><path d="M378 202h40v30h-40z" class="stroke-B1 fill-B6" style="stroke-width:2"/></g></g><g id="mid-col.dog.pad2" class="invisible"><g class="shape"><path d="M418 202h40v30h-40z" class="stroke-B1 fill-B6" style="stroke-width:2"/></g></g><g id="mid-col.dog.pad3" class="invisible"><g class="shape"><path d="M458 202h40v30h-40z" class="stroke-B1 fill-B6" style="stroke-width:2"/></g></g><g id="mid-col.dog.pad4" class="invisible"><g class="shape"><path d="M498 202h40v30h-40z" class="stroke-B1 fill-B6" style="stroke-width:2"/></g></g><g id="mid-col.dog.pad5" class="invisible"><g class="shape"><path d="M538 202h40v30h-40z" class="stroke-B1 fill-B6" style="stroke-width:2"/></g></g><g id="mid-col.dog.66"><g class="shape"><path d="M578 202h40v30h-40z" class="stroke-B1 fill-B6" style="stroke-width:2"/></g><text x="598" y="222.5" class="text-mono-bold fill-N1" style="text-anchor:middle;font-size:16px">66</text></g><g id="mid-col.dog.pad6" class="invisible"><g class="shape"><path d="M618 202h40v30h-40z" class="stroke-B1 fill-B6" style="stroke-width:2"/></g></g><g id="mid-col.dog.2"><g class="shape"><path fill="#f0fff0" d="M658 202h40v30h-40z" class="stroke-B1" style="stroke-width:2"/></g><text x="678" y="222.5" class="text-mono-bold fill-N1" style="text-anchor:middle;font-size:16px">2</text></g><g id="mid-col.tiger.pad1" class="invisible"><g class="shape"><path d="M378 308h40v30h-40z" class="stroke-B1 fill-B6" style="stroke-width:2"/></g></g><g id="mid-col.tiger.pad2" class="invisible"><g class="shape"><path d="M418 308h40v30h-40z" class="stroke-B1 fill-B6" style="stroke-width:2"/></g></g><g id="mid-col.tiger.pad3" class="invisible"><g class="shape"><path d="M458 308h40v30h-40z" class="stroke-B1 fill-B6" style="stroke-width:2"/></g></g><g id="mid-col.tiger.66"><g class="shape"><path d="M498 308h40v30h-40z" class="stroke-B1 fill-B6" style="stroke-width:2"/></g><text x="518" y="328.5" class="text-mono-bold fill-N1" style="text-anchor:middle;font-size:16px">66</text></g><g id="mid-col.tiger.pad4" class="invisible"><g class="shape"><path d="M538 308h40v30h-40z" class="stroke-B1 fill-B6" style="stroke-width:2"/></g></g><g id="mid-col.tiger.pad5" class="invisible"><g class="shape"><path d="M578 308h40v30h-40z" class="stroke-B1 fill-B6" style="stroke-width:2"/></g></g><g id="mid-col.tiger.pad6" class="invisible"><g class="shape"><path d="M618 308h40v30h-40z" class="stroke-B1 fill-B6" style="stroke-width:2"/></g></g><g id="mid-col.tiger.0"><g class="shape"><path fill="#f0fff0" d="M658 308h40v30h-40z" class="stroke-B1" style="stroke-width:2"/></g><text x="678" y="328.5" class="text-mono-bold fill-N1" style="text-anchor:middle;font-size:16px">0</text></g><g id="(right-col -&gt; mid-col.lion.1)[0]"><marker id="mk-3488378134" markerHeight="12" markerUnits="userSpaceOnUse" markerWidth="10" orient="auto" refX="7" refY="6" viewBox="0 0 10 12"><path stroke-width="2" d="m0 0 10 6-10 6z" class="connection fill-B1"/></marker><path fill="none" marker-end="url(#mk-3488378134)" d="m777.414 187.782-77.242-59.345" class="connection stroke-B1" mask="url(#d2-1905496150)" style="stroke-width:2"/></g><path id="(right-col -&gt; mid-col.dog.2)[0]" fill="none" marker-end="url(#mk-3488378134)" d="m776.026 201.32-74.078 12.038" class="connection stroke-B1" mask="url(#d2-1905496150)" style="stroke-width:2"/><path id="(right-col -&gt; mid-col.tiger.0)[0]" fill="none" marker-end="url(#mk-3488378134)" d="m781.647 210.472-86.94 94.583" class="connection stroke-B1" mask="url(#d2-1905496150)" style="stroke-width:2"/><g id="(a.left-col -&gt; mid-col)[0]"><marker id="mk-164681321" markerHeight="16" markerUnits="userSpaceOnUse" markerWidth="13" orient="auto" refX="8.5" refY="8" viewBox="0 0 13 16"><path stroke-width="3" d="m0 0 13 8-13 8z" class="connection fill-B1"/></marker><path fill="none" marker-end="url(#mk-164681321)" d="m270.498 210.9 43.006-1.72" class="connection stroke-B1" mask="url(#d2-1905496150)" style="stroke-width:3"/></g><mask id="d2-1905496150" width="808" height="398" x="0" y="0" maskUnits="userSpaceOnUse"><path fill="#fff" d="M0 0h808v398H0z"/><path fill="rgba(0,0,0,0.75)" d="M778 188h29v21h-29zM32.5 118h213v28h-213zM10 156h240v104H10zM637 60h56v31h-56zM651 166h42v31h-42zM623 272h70v31h-70zM628.5 100.5h19v21h-19zM674 100.5h8v21h-8zM588.5 206.5h19v21h-19zM673.5 206.5h9v21h-9zM508.5 312.5h19v21h-19zM673.5 312.5h9v21h-9z"/></mask></svg></svg>