<svg xmlns="http://www.w3.org/2000/svg" width="857.855" height="466.85"><defs><style>@font-face{font-family:&quot;Virgil&quot;;src:url(https://unpkg.com/@excalidraw/excalidraw@undefined/dist/excalidraw-assets/Virgil.woff2)}@font-face{font-family:&quot;Cascadia&quot;;src:url(https://unpkg.com/@excalidraw/excalidraw@undefined/dist/excalidraw-assets/Cascadia.woff2)}@font-face{font-family:&quot;Assistant&quot;;src:url(https://unpkg.com/@excalidraw/excalidraw@undefined/dist/excalidraw-assets/Assistant-Regular.woff2)}</style></defs><path fill="#fff" d="M0 0h857.855v466.85H0z"/><path fill="none" stroke="#5c940d" stroke-linecap="round" d="M238.01 228.305h122m-122 0h122m0 0v42m0-42v42m0 0h-122m122 0h-122m0 0v-42m0 42v-42M237.01 313.305h124m-124 0h124m0 0v42m0-42v42m0 0h-124m124 0h-124m0 0v-42m0 42v-42M237.921 270.853h122m-122 0h122m0 0v42m0-42v42m0 0h-122m122 0h-122m0 0v-42m0 42v-42M238.592 186.628h122m-122 0h122m0 0v42m0-42v42m0 0h-122m122 0h-122m0 0v-42m0 42v-42M449.317 134.683h122m-122 0h122m0 0v42m0-42v42m0 0h-122m122 0h-122m0 0v-42m0 42v-42M448.317 219.683h124m-124 0h124m0 0v42m0-42v42m0 0h-124m124 0h-124m0 0v-42m0 42v-42M449.229 177.23h122m-122 0h122m0 0v42m0-42v42m0 0h-122m122 0h-122m0 0v-42m0 42v-42M449.899 93.005h122m-122 0h122m0 0v42m0-42v42m0 0h-122m122 0h-122m0 0v-42m0 42v-42M450.285 329.85h122m-122 0h122m0 0v42m0-42v42m0 0h-122m122 0h-122m0 0v-42m0 42v-42M449.285 414.85h124m-124 0h124m0 0v42m0-42v42m0 0h-124m124 0h-124m0 0v-42m0 42v-42M450.197 372.397h122m-122 0h122m0 0v42m0-42v42m0 0h-122m122 0h-122m0 0v-42m0 42v-42M450.867 288.173h122m-122 0h122m0 0v42m0-42v42m0 0h-122m122 0h-122m0 0v-42m0 42v-42"/><text fill="#5c940d" dominant-baseline="text-before-edge" font-family="Helvetica, Segoe UI Emoji" font-size="16" style="white-space:pre" transform="translate(126.766 331.984)">0xc00001419a</text><text fill="#5c940d" dominant-baseline="text-before-edge" font-family="Helvetica, Segoe UI Emoji" font-size="16" style="white-space:pre" transform="translate(125.933 295.435)">0xc00001419b</text><text fill="#5c940d" dominant-baseline="text-before-edge" font-family="Helvetica, Segoe UI Emoji" font-size="16" style="white-space:pre" transform="translate(129.802 253.896)">0xc00001419c</text><text fill="#5c940d" dominant-baseline="text-before-edge" font-family="Helvetica, Segoe UI Emoji" font-size="16" style="white-space:pre" transform="translate(129.013 211.222)">0xc00001419d</text><text fill="#0061fe" dominant-baseline="text-before-edge" font-family="Helvetica, Segoe UI Emoji" font-size="20" style="white-space:pre" transform="translate(10 391.146)">数据一定是从内存的低地址往高地址读取和写入</text><path fill="#0061fe" d="m124.563 187.537-1.17-.05q-1.18-.06-2.69.28-1.51.33-2.37.98-.86.64-1.62 2.16-.76 1.53-1.48 2.74t-1.23 2.15q-.51.93-.91 1.98-.39 1.05-.36 3.31t.31 3.8q.28 1.53.62 2.59.35 1.06.53 2.37.18 1.3.26 2.56.07 1.26.34 3.12t.38 3.2q.12 1.33.39 2.74.27 1.42.41 3.34.13 1.93-.31 3.88-.44 1.94-.86 3.84-.41 1.89-1.09 3.75-.67 1.87-1.42 3.81-.76 1.94-1.57 3.74-.82 1.8-1.89 3.98-1.06 2.19-2 3.86-.94 1.68-1.85 2.92-.92 1.25-1.49 2.16-.58.92-1.53 1.9-.95.99.42 1.04t2.14 1.04 1.9 2.53q1.13 1.55 2.12 3.23.98 1.69 2.02 4.04 1.04 2.34 1.35 4.47.31 2.12.57 3.68.27 1.56.44 3.71.18 2.14.2 3.34.02 1.21.03 2.9t.02 2.88v2.88q-.01 1.69-.01 3.76v3.73q0 1.65-.01 2.83 0 1.17.02 2.38t.03 2.44q.01 1.22.01 2.68v2.8q.01 1.33.01 2.84-.01 1.51.22 2.71.22 1.2.33 2.82.12 1.61.39 3.1.27 1.5.6 2.54t.52 2.39q.18 1.35.47 2.73.3 1.39.65 2.66t.53 2.4q.17 1.13 1.13 2.95t3.1 3.77q2.15 1.94 2.32 2.07.17.12.29.3.12.17.18.37.06.21.05.42t-.08.41q-.08.2-.22.36-.13.17-.31.28t-.39.16-.42.03-.4-.11q-.2-.09-.35-.23-.16-.14-.26-.33t-.14-.4-.01-.42q.04-.21.13-.39.1-.19.25-.34t.35-.24q.19-.09.4-.12.21-.02.42.02t.39.15.32.27.22.35q.08.2.1.41.01.21-.04.42-.06.2-.17.38-.12.18-.29.31-.16.13-.36.2-.21.07-.42.07-.21.01-.41-.06l-.2-.06-2.18-1.09q-2.18-1.09-3.27-2.24-1.08-1.14-1.54-2.14t-1.18-3.35q-.73-2.34-1.1-3.73-.38-1.38-.81-3.95-.42-2.57-.8-3.83t-.67-2.95q-.28-1.69-.37-3.11-.09-1.43-.34-2.93-.25-1.51-.25-3.02 0-1.52.01-2.85v-2.8q0-1.46.01-2.68l.02-2.44q.02-1.21.02-2.38v-6.56l-.02-3.75q-.01-1.68-.01-2.87t-.01-2.86-.03-2.83q-.02-1.15-.17-3.09-.15-1.93-.43-3.65-.28-1.71-.51-3.45-.24-1.75-1.11-3.67-.87-1.93-1.53-3.01-.66-1.09-1.22-2.22-.56-1.14-1.36-2.03-.79-.88-2.14-2.1-1.35-1.21-2.01-2.56-.65-1.35.27-2.69.93-1.33 1.56-2.35t1.44-2.11q.81-1.08 1.71-2.67.89-1.59 1.92-3.74 1.02-2.15 1.79-3.89.76-1.73 1.51-3.65.75-1.91 1.37-3.57.62-1.65 1.04-3.58t.82-3.42q.39-1.49.29-3.2-.11-1.71-.41-3.28-.29-1.58-.4-2.83-.1-1.26-.36-3.25-.26-2-.43-4.17-.16-2.16-.52-3.23-.35-1.07-.73-2.91-.38-1.83-.52-3.49-.14-1.65.11-3t.77-2.54q.51-1.18 1.03-2.16.53-.98 1.13-2.05.59-1.07 1.65-3.03t1.88-2.73q.82-.75 2.35-1.16 1.52-.4 2.66-.67 1.15-.26 2.34-.32 1.18-.05 1.37-.03.19.03.37.1.19.07.35.18t.28.25q.13.15.22.32t.14.36.05.38-.05.38-.14.36-.22.32q-.12.14-.28.25-.17.11-.35.18t-.37.1z"/><text fill="#5c940e" dominant-baseline="text-before-edge" font-family="Helvetica, Segoe UI Emoji" font-size="16" style="white-space:pre" transform="translate(15.97 242.117)">val变量</text><text y="22.5" fill="#5c940e" dominant-baseline="text-before-edge" font-family="Helvetica, Segoe UI Emoji" font-size="16" style="white-space:pre" transform="translate(15.97 242.117)">的4个字节</text><text fill="#ca822f" dominant-baseline="text-before-edge" font-family="Helvetica, Segoe UI Emoji" font-size="16" style="white-space:pre" transform="translate(467.645 238.103)">0000 0001</text><text fill="#ca822f" dominant-baseline="text-before-edge" font-family="Helvetica, Segoe UI Emoji" font-size="16" style="white-space:pre" transform="translate(468.58 191.775)">0000 0011</text><text fill="#ca822f" dominant-baseline="text-before-edge" font-family="Helvetica, Segoe UI Emoji" font-size="16" style="white-space:pre" transform="translate(464.63 144.67)">0100 0000</text><text fill="#ca822f" dominant-baseline="text-before-edge" font-family="Helvetica, Segoe UI Emoji" font-size="16" style="white-space:pre" transform="translate(467.206 104.444)">0000 0010</text><text fill="#ca822f" dominant-baseline="text-before-edge" font-family="Helvetica, Segoe UI Emoji" font-size="16" style="white-space:pre" transform="translate(597.998 152.958)">小端</text><text fill="#ca822f" dominant-baseline="text-before-edge" font-family="Helvetica, Segoe UI Emoji" font-size="16" style="white-space:pre" transform="translate(599.578 175.854)">数字的低位存储到内存的低地址处</text><text fill="#ca822f" dominant-baseline="text-before-edge" font-family="Helvetica, Segoe UI Emoji" font-size="16" style="white-space:pre" transform="translate(466.329 302.708)">0000 0001</text><text fill="#ca822f" dominant-baseline="text-before-edge" font-family="Helvetica, Segoe UI Emoji" font-size="16" style="white-space:pre" transform="translate(467.108 344.714)">0000 0011</text><text fill="#ca822f" dominant-baseline="text-before-edge" font-family="Helvetica, Segoe UI Emoji" font-size="16" style="white-space:pre" transform="translate(469.396 386.312)">0100 0000</text><text fill="#ca822f" dominant-baseline="text-before-edge" font-family="Helvetica, Segoe UI Emoji" font-size="16" style="white-space:pre" transform="translate(471.546 429.668)">0000 0010</text><path fill="none" stroke="#c3e93a" stroke-linecap="round" stroke-width="4" d="m445.025 276.51 370.82-1.32m-370.82 1.32 370.82-1.32"/><text fill="#ca8230" dominant-baseline="text-before-edge" font-family="Helvetica, Segoe UI Emoji" font-size="16" style="white-space:pre" transform="translate(600.85 298.981)">大端</text><text fill="#ca8230" dominant-baseline="text-before-edge" font-family="Helvetica, Segoe UI Emoji" font-size="16" style="white-space:pre" transform="translate(605.855 329.062)">数字的高位存储到内存的低地址处</text><g stroke-linecap="round"><path fill="none" stroke="#c3e93a" stroke-width="4" d="M379.425 352.665c-.18-28.34-.91-141.69-1.1-170.02m1.1 170.02c-.18-28.34-.91-141.69-1.1-170.02"/><path fill="#c3e93a" fill-rule="evenodd" stroke-width="0" d="m378.325 182.645 6.43 13.55-12.68.08z"/><path fill="none" stroke="#c3e93a" stroke-width="4" d="M378.325 182.645c1.35 2.83 2.69 5.66 6.43 13.55m-6.43-13.55c1.57 3.3 3.14 6.61 6.43 13.55m0 0c-5 .03-9.99.06-12.68.08m12.68-.08c-2.66.02-5.32.03-12.68.08m0 0c2.23-4.86 4.46-9.71 6.25-13.63m-6.25 13.63c1.34-2.91 2.67-5.82 6.25-13.63m0 0q0 0 0 0m0 0q0 0 0 0"/></g><text fill="#1864ab" dominant-baseline="text-before-edge" font-family="Helvetica, Segoe UI Emoji" font-size="16" style="white-space:pre" transform="translate(394.109 335.685)">低地址</text><text fill="#1864ab" dominant-baseline="text-before-edge" font-family="Helvetica, Segoe UI Emoji" font-size="16" style="white-space:pre" transform="translate(395.44 185.685)">高地址</text><path fill="none" stroke="#1864ab" stroke-linecap="round" stroke-width="2" d="M61.078 11.445h236.52m-236.52 0h236.52m0 0v55.38m0-55.38v55.38m0 0H61.078m236.52 0H61.078m0 0v-55.38m0 55.38v-55.38"/><text fill="#1864ab" dominant-baseline="text-before-edge" font-family="Helvetica, Segoe UI Emoji" font-size="20" style="white-space:pre" transform="translate(72.934 29.443)">var val int32 = 33817345</text><path fill="none" stroke="#1864ab" stroke-linecap="round" stroke-width="2" d="M367.698 10h421.12m-421.12 0h421.12m0 0v55.66m0-55.66v55.66m0 0h-421.12m421.12 0h-421.12m0 0V10m0 55.66V10"/><text fill="#1864ab" dominant-baseline="text-before-edge" font-family="Helvetica, Segoe UI Emoji" font-size="20" style="white-space:pre" transform="translate(382.88 27.009)">0000 0010 0000 0100 0000 0011 0000 0001</text><g stroke-linecap="round"><path fill="none" stroke="#1864ab" stroke-width="2" d="M302.058 40.7c23.52-.09 47.04-.19 59.68-.24m-59.68.24 59.68-.24"/><path fill="#1864ab" fill-rule="evenodd" stroke-width="0" d="m361.738 40.46-13.57 6.4-.05-12.68z"/><path fill="none" stroke="#1864ab" stroke-width="2" d="M361.738 40.46c-5.34 2.52-10.69 5.04-13.57 6.4m13.57-6.4c-2.84 1.35-5.69 2.69-13.57 6.4m0 0c-.01-4.52-.03-9.04-.05-12.68m.05 12.68c-.01-2.71-.02-5.42-.05-12.68m0 0c3.93 1.81 7.85 3.62 13.62 6.28m-13.62-6.28c5.38 2.48 10.76 4.97 13.62 6.28m0 0q0 0 0 0m0 0q0 0 0 0"/></g></svg>