<svg xmlns="http://www.w3.org/2000/svg" width="756.911" height="471.894"><defs><style>@font-face{font-family:&quot;Virgil&quot;;src:url(https://unpkg.com/@excalidraw/excalidraw@undefined/dist/excalidraw-assets/Virgil.woff2)}@font-face{font-family:&quot;Cascadia&quot;;src:url(https://unpkg.com/@excalidraw/excalidraw@undefined/dist/excalidraw-assets/Cascadia.woff2)}@font-face{font-family:&quot;Assistant&quot;;src:url(https://unpkg.com/@excalidraw/excalidraw@undefined/dist/excalidraw-assets/Assistant-Regular.woff2)}</style></defs><path fill="#fff" d="M0 0h756.911v471.894H0z"/><g stroke-linecap="round"><path stroke-width="0" d="M171.091 55.922h162.39v405.97h-162.39"/><path fill="none" stroke="#000" d="M171.091 55.922h162.39m-162.39 0h162.39m0 0v405.97m0-405.97v405.97m0 0h-162.39m162.39 0h-162.39m0 0V55.922m0 405.97V55.922"/></g><g stroke-linecap="round"><path fill="#fff" stroke-width="0" d="M167.285 48.31h162.39v405.97h-162.39"/><path fill="none" stroke="#000" d="M167.285 48.31h162.39m-162.39 0h162.39m0 0v405.97m0-405.97v405.97m0 0h-162.39m162.39 0h-162.39m0 0V48.31m0 405.97V48.31"/></g><g stroke-linecap="round"><path fill="#FFF" stroke-width="0" d="M166.98 403.408h163v51h-163"/><path fill="none" stroke="#000" d="M166.98 403.408h163m-163 0h163m0 0v51m0-51v51m0 0h-163m163 0h-163m0 0v-51m0 51v-51"/></g><g stroke-linecap="round"><path fill="#FFF" stroke-width="0" d="M166.98 352.662h163v51h-163"/><path fill="none" stroke="#000" d="M166.98 352.662h163m-163 0h163m0 0v51m0-51v51m0 0h-163m163 0h-163m0 0v-51m0 51v-51"/></g><text x="39.133" fill="#0b7285" dominant-baseline="text-before-edge" font-family="Helvetica, Segoe UI Emoji" font-size="16" style="white-space:pre" text-anchor="middle" transform="translate(209.347 368.662)">return addr</text><g stroke-linecap="round"><path fill="#FFF" stroke-width="0" d="M166.98 301.916h163v51h-163"/><path fill="none" stroke="#000" d="M166.98 301.916h163m-163 0h163m0 0v51m0-51v51m0 0h-163m163 0h-163m0 0v-51m0 51v-51"/></g><g stroke-linecap="round"><path fill="#FFF" stroke-width="0" d="M166.98 251.169h163v51h-163"/><path fill="none" stroke="#000" d="M166.98 251.169h163m-163 0h163m0 0v51m0-51v51m0 0h-163m163 0h-163m0 0v-51m0 51v-51"/></g><g stroke-linecap="round"><path fill="#FFF" stroke-width="0" d="M166.98 200.423h163v51h-163"/><path fill="none" stroke="#000" d="M166.98 200.423h163m-163 0h163m0 0v51m0-51v51m0 0h-163m163 0h-163m0 0v-51m0 51v-51"/></g><text x="4.449" fill="#0b7285" dominant-baseline="text-before-edge" font-family="Helvetica, Segoe UI Emoji" font-size="16" style="white-space:pre" text-anchor="middle" transform="translate(244.03 216.423)">0</text><g stroke-linecap="round"><path fill="#FFF" stroke-width="0" d="M166.98 149.676h163v51h-163"/><path fill="none" stroke="#000" d="M166.98 149.676h163m-163 0h163m0 0v51m0-51v51m0 0h-163m163 0h-163m0 0v-51m0 51v-51"/></g><text x="4.449" fill="#0b7285" dominant-baseline="text-before-edge" font-family="Helvetica, Segoe UI Emoji" font-size="16" style="white-space:pre" text-anchor="middle" transform="translate(244.03 165.676)">2</text><g stroke-linecap="round"><path fill="#FFF" stroke-width="0" d="M166.98 98.93h163v51h-163"/><path fill="none" stroke="#000" d="M166.98 98.93h163m-163 0h163m0 0v51m0-51v51m0 0h-163m163 0h-163m0 0v-51m0 51v-51"/></g><text x="4.449" fill="#0b7285" dominant-baseline="text-before-edge" font-family="Helvetica, Segoe UI Emoji" font-size="16" style="white-space:pre" text-anchor="middle" transform="translate(244.03 114.93)">1</text><g stroke-linecap="round"><path fill="#FFF" stroke-width="0" d="M166.98 48.183h163v56h-163"/><path fill="none" stroke="#000" d="M166.98 48.183h163m-163 0h163m0 0v56m0-56v56m0 0h-163m163 0h-163m0 0v-56m0 56v-56"/></g><text x="70.234" fill="#0b7285" dominant-baseline="text-before-edge" font-family="Helvetica, Segoe UI Emoji" font-size="16" style="white-space:pre" text-anchor="middle" transform="translate(178.245 66.683)">main的调用者的 BP</text><text dominant-baseline="text-before-edge" font-family="Helvetica, Segoe UI Emoji" font-size="20" style="white-space:pre" transform="translate(245.226 10)">栈</text><text fill="#0b7285" dominant-baseline="text-before-edge" font-family="Helvetica, Segoe UI Emoji" font-size="16" style="white-space:pre" transform="translate(10 370.03)">SUBQ  $48, SP</text><text fill="#0b7285" dominant-baseline="text-before-edge" font-family="Helvetica, Segoe UI Emoji" font-size="20" style="white-space:pre" transform="translate(63.24 344.502)">SP</text><g stroke-linecap="round"><path fill="none" stroke="#0b7285" d="M99.713 353.044c22.21.99 40.87 2.07 65.64-.02m-65.64.02c24.23-.51 47.26.82 65.64-.02"/><path fill="#0b7285" fill-rule="evenodd" stroke-width="0" d="m165.993 353.984-15.68 6.06.36-14.18 14.54 9.03"/><path fill="none" stroke="#0b7285" d="M165.353 353.024c-3.46 2.51-9.61 5.44-13.49 6.55m13.49-6.55c-4.4 1.88-9.75 5.25-13.49 6.55m0 0c.38-5.89 1.02-9.34-.2-12.67m.2 12.67c.15-3.08-.65-6.15-.2-12.67m0 0c3.58 1.37 8.88 3.56 13.69 6.12m-13.69-6.12c3.43 1.56 8.64 3.52 13.69 6.12m0 0q0 0 0 0m0 0q0 0 0 0"/></g><text fill="#0b7285" dominant-baseline="text-before-edge" font-family="Helvetica, Segoe UI Emoji" font-size="20" style="white-space:pre" transform="translate(39.218 87.376)">SP+40</text><g stroke-linecap="round"><path fill="none" stroke="#0b7285" d="M110.37 99.85c18.93 2.93 35.12 4.37 53.45 5.6m-53.45-5.6c13.67.56 25.93 2.61 53.45 5.6"/><path fill="#0b7285" fill-rule="evenodd" stroke-width="0" d="m162.83 104.41-13.38 7.66 3.06-16.27 13.1 8.55"/><path fill="none" stroke="#0b7285" d="M163.82 105.45c-3.85 2.85-9.74 4.11-14.23 4.75m14.23-4.75c-2.7.95-6.45 2.61-14.23 4.75m0 0c-.66-1.96 1.47-5.18 1.45-12.6m-1.45 12.6c.58-3.39 1.36-7.2 1.45-12.6m0 0c3.33 3.11 7.33 3.08 12.78 7.85m-12.78-7.85c3.74 1.43 6.77 3.87 12.78 7.85m0 0q0 0 0 0m0 0q0 0 0 0"/></g><text fill="#0b7285" dominant-baseline="text-before-edge" font-family="Helvetica, Segoe UI Emoji" font-size="20" style="white-space:pre" transform="translate(38.85 236.501)">SP+16</text><g stroke-linecap="round"><path fill="none" stroke="#0b7285" d="M110.55 249.978c18.94.31 41.79 3.17 53.55 2.11m-53.55-2.11c13.27 1.27 28.46.24 53.55 2.11"/><path fill="#0b7285" fill-rule="evenodd" stroke-width="0" d="m165.58 250.288-13.59 6.33-.32-10.17 11.56 5.57"/><path fill="none" stroke="#0b7285" d="M164.1 252.088c-6.17 2.06-9.4 5.72-13.9 5.63m13.9-5.63c-4.14 2.19-6.85 2.47-13.9 5.63m0 0c-.18-5.65-.22-9.27.66-12.66m-.66 12.66c-.08-3.78.23-7.85.66-12.66m0 0c4.48 3.94 9.68 5.53 13.24 7.03m-13.24-7.03c2.71 1.12 5.53 2.77 13.24 7.03m0 0q0 0 0 0m0 0q0 0 0 0"/></g><text fill="#0b7285" dominant-baseline="text-before-edge" font-family="Helvetica, Segoe UI Emoji" font-size="20" style="white-space:pre" transform="translate(346.55 215.486)">r</text><text fill="#0b7285" dominant-baseline="text-before-edge" font-family="Helvetica, Segoe UI Emoji" font-size="20" style="white-space:pre" transform="translate(38.688 187.491)">SP+24</text><g stroke-linecap="round"><path fill="none" stroke="#0b7285" d="M109.877 197.904c22.49-1.16 45.47 1.78 55.5 1.32m-55.5-1.32c13.27-.36 24.87-.28 55.5 1.32"/><path fill="#0b7285" fill-rule="evenodd" stroke-width="0" d="m164.507 199.144-14.49 3.84 2.55-11.63 11.62 6.36"/><path fill="none" stroke="#0b7285" d="M165.377 199.224c-5 1.24-9.61 5.31-13.88 5.71m13.88-5.71c-2.81 1.22-6.9 2.37-13.88 5.71m0 0c-.44-4.37.59-8.14.59-12.67m-.59 12.67c-.41-3.84.8-7.38.59-12.67m0 0c3.24 2.46 7.69 5.01 13.29 6.96m-13.29-6.96c3.79 1.3 6.81 3.21 13.29 6.96m0 0q0 0 0 0m0 0q0 0 0 0"/></g><text fill="#0b7285" dominant-baseline="text-before-edge" font-family="Helvetica, Segoe UI Emoji" font-size="20" style="white-space:pre" transform="translate(345.607 161.75)">b</text><text fill="#0b7285" dominant-baseline="text-before-edge" font-family="Helvetica, Segoe UI Emoji" font-size="20" style="white-space:pre" transform="translate(38.124 136.226)">SP+32</text><g stroke-linecap="round"><path fill="none" stroke="#0b7285" d="M111.372 151.116c20.11.53 36.77-1.85 53.29 0m-53.29 0c14.13-.53 26.47.14 53.29 0"/><path fill="#0b7285" fill-rule="evenodd" stroke-width="0" d="m163.472 149.606-14.25 6.16.48-11.25 13.19 7.98"/><path fill="none" stroke="#0b7285" d="M164.662 151.116c-3.71 3-9.96 3.43-13.61 6.31m13.61-6.31c-2.85 1.23-7.05 3.31-13.61 6.31m0 0c.37-4.64-.28-6.2.02-12.68m-.02 12.68c-.3-4.2.06-7.92.02-12.68m0 0c4.48 2.47 7.72 3.16 13.59 6.37m-13.59-6.37c2.23 1.42 5.22 2.16 13.59 6.37m0 0q0 0 0 0m0 0q0 0 0 0"/></g><text fill="#0b7285" dominant-baseline="text-before-edge" font-family="Helvetica, Segoe UI Emoji" font-size="20" style="white-space:pre" transform="translate(344.685 115.155)">a</text><g stroke-linecap="round"><path fill="#FFF" stroke-width="0" d="M510.111 81.885h163v51h-163"/><path fill="none" stroke="#000" d="M510.111 81.885h163m-163 0h163m0 0v51m0-51v51m0 0h-163m163 0h-163m0 0v-51m0 51v-51"/></g><text x="5.562" fill="#0b7285" dominant-baseline="text-before-edge" font-family="Helvetica, Segoe UI Emoji" font-size="20" style="white-space:pre" text-anchor="middle" transform="translate(586.05 95.885)">2</text><g stroke-linecap="round"><path fill="#FFF" stroke-width="0" d="M510.111 31.139h163v51h-163"/><path fill="none" stroke="#000" d="M510.111 31.139h163m-163 0h163m0 0v51m0-51v51m0 0h-163m163 0h-163m0 0v-51m0 51v-51"/></g><text x="5.562" fill="#0b7285" dominant-baseline="text-before-edge" font-family="Helvetica, Segoe UI Emoji" font-size="20" style="white-space:pre" text-anchor="middle" transform="translate(586.05 45.139)">1</text><text fill="#0b7285" dominant-baseline="text-before-edge" font-family="Helvetica, Segoe UI Emoji" font-size="20" style="white-space:pre" transform="translate(450.317 44.46)">AX</text><text fill="#0b7285" dominant-baseline="text-before-edge" font-family="Helvetica, Segoe UI Emoji" font-size="20" style="white-space:pre" transform="translate(453.022 95.273)">BX</text><text fill="#0b7285" dominant-baseline="text-before-edge" font-family="Helvetica, Segoe UI Emoji" font-size="16" style="white-space:pre" transform="translate(394.911 391.63)">执行 指令CALL  main.add(SB)  时, SP会指向这里</text><g stroke-linecap="round"><path fill="none" stroke="#0b7285" d="M391.205 403.495c-11.92.86-25.83-.45-53.88 0m53.88 0c-12.47-.45-26.5-.29-53.88 0"/><path fill="#0b7285" fill-rule="evenodd" stroke-width="0" d="m338.255 402.625 13.49-5.54-1.44 12.73-11.52-7.34"/><path fill="none" stroke="#0b7285" d="M337.325 403.495c3.01-1.25 4.52-3.66 13.53-6.47m-13.53 6.47c3.46-1.61 5.76-3.03 13.53-6.47m0 0c-1.27 4.4.58 7 .13 12.67m-.13-12.67c-.06 4.69.49 7.62.13 12.67m0 0c-4.24-3.01-10.67-5.89-13.66-6.2m13.66 6.2c-3.23-1.88-6.24-3.2-13.66-6.2m0 0q0 0 0 0m0 0q0 0 0 0"/></g></svg>