<svg xmlns="http://www.w3.org/2000/svg" width="470.833" height="336.458" preserveAspectRatio="none" style="width:470px;height:336px;background:#fff" viewBox="0 0 470 336"><path fill="none" d="M178.125 11.458v.22l10.417-.651 10.416.633 10.417.215 10.417-1.16 10.416.662 10.417-.363 10.417.045 10.416.328 10.417-.649 10.417 1.297 10.416-.577-.083-.202.646.383.673.446.52.078.61.293.58.223-.01-.005.312.618.263.597.356.635.271.6.029.501h.236l-.148 5.827.073 5.827.083 5.826-.494 5.827.25 5.827.218.09-.557.46.022.7-.574.452-.107.646-.222.598.098.238-.694-.01-.569.294-.558.32-.58.268-.644.11v-.003l-10.416.303-10.417-.895-10.417.892-10.416.275-10.417-.108-10.417.175-10.416-1.141-10.417-.177-10.417.032-10.416.586-10.417.062-.026-.063-.473.037-.703-.518-.611-.298-.514-.061-.62-.318-.213-.088-.197-.57.13-.434-.312-.617-.148-.55-.48-.687h-.111l.222-5.827.094-5.827-.369-5.826.131-5.827.033-5.827.04.017.413-.52.034-.676.394-.527-.082-.725.422-.515-.09-.218.746.135.427-.635.752.149.55-.341z" style="stroke:#333;stroke-width:1.0416666666666667"/><text x="185.417" y="34.519" fill="#2E2E2E" font-size="12.5" textLength="100">比如删除一个pod</text><path fill="none" d="M15.625 69.76v.218l10.466-.65 10.466.632 10.467.215 10.466-1.159 10.466.662 10.467-.363 10.466.045 10.466.328 10.466-.65 10.467 1.298 10.466-1.233 10.466.45 10.466.656 10.467-.54 10.466.161 10.466-.104 10.467.22 10.466.062 10.466.361 10.466.09 10.467.008 10.466-.443 10.466.218 10.466.249 10.467-1.483 10.466 1.458 10.466-1.016 10.467.865 10.466-1.072 10.466.445 10.466.844 10.467-.824 10.466.16 10.466.244 10.466.08 10.467-.437 10.466.303 10.466-.895 10.466.892 10.467.275 10.466-.108 10.466-.463.082.197.443-.108.567.19.594.254.663.424.598.264-.063-.027.525.706-.03.476.19.567.427.665.171.559h-.695l.154 9.706 1.217 9.706-.222 9.706.311 9.706-1.1 9.706.335 9.705.102.043-.157.625-.585.448-.123.64-.173.618-.284.573.086.209-.676.034-.527.393-.725-.082-.605.205-.5.461v.525l-10.466-1.272-10.466 1.277-10.466-.315-10.467-.494-10.466-.09-10.466.847-10.467-.79-10.466.929-10.466-1.193-10.466 1.22-10.467-.14-10.466-.249-10.466-.206-10.466.708-10.467-.118-10.466-.463-10.466.103-10.466-.415-10.467.882-10.466-.585-10.466.019-10.467-.814-10.466.212-10.466.975-10.466-.105-10.467-.493-10.466-.29-10.466.107-10.466-.487-10.467 1.147-10.466.339-10.466-.222-10.467.175-10.466-.866-10.466.233-10.466-.495-10.467.7-10.466-.039-10.466.319-10.467-.815-10.466.1-10.466.14.059.141-.573-.204-.733-.59-.546-.142-.544-.134-.61-.292-.195-.081.065-.462-.275-.601-.359-.637-.166-.557-.29-.609h.76l-1.086-9.705.654-9.706-.03-9.706-.177-9.706.026-9.706-.147-9.706.037.015.007-.687.316-.56.225-.597.412-.52.224-.597.011.028.6-.22.529-.39.618-.172.583-.261z" style="stroke:#333;stroke-width:1.0416666666666667"/><text x="22.917" y="92.82" fill="#2E2E2E" font-size="12.5" textLength="104.167">标记要删除的对象,</text><text x="22.917" y="107.371" fill="#2E2E2E" font-size="12.5" textLength="425">通过设置对象的.metadata.deletionTimestamp为你开始执行删除的时间,</text><text x="22.917" y="121.922" fill="#2E2E2E" font-size="12.5" textLength="386.458">返回 202 状态码(HTTP &quot;已接受&quot;) 使其进入只读状态,禁止对象被删除</text><path fill="none" d="M147.917 157.162v.218l10.294-.65 10.294.633 10.294.215 10.294-1.16 10.294.662 10.294-.363 10.295.045 10.294.328 10.294-.649 10.294 1.297 10.294-1.233 10.294.45 10.294.656 10.294-.539 10.294.16 10.295-.104 10.294.034.023.057.598.263.635.356.6.271.59.247.5.026.082.034.31.617.321.62-.212.4.693.776.026.5h-.103l.289 5.826-.358 5.827.149 5.827.28 5.826-.257 5.827-.015-.006-.195.61-.17.62-.218.6-.38.533-.242.59.038.092-.703-.032-.476.519-.554.329-.603.21-.648.102v.639l-10.294-1.142-10.295-.177-10.294.033-10.294.586-10.294-.144-10.294.915-10.294-.892-10.294-.175-10.294.595-10.294-.933-10.295.154-10.294 1.217-10.294-.222-10.294.311-10.294-1.1-10.294.667-10.294-.332.078.19-.73-.586-.54-.123-.56-.173-.519-.075-.676-.453-.001-.001-.094-.527-.57-.725-.284-.605.135-.433-.406-.656h-.249l.426-5.827-.105-5.826-.165-5.827-.03-5.827.123-5.827.147.061.001-.69.53-.47-.123-.742.62-.434.045-.671.065.155.557-.32.563-.308.68-.026.574-.28z" style="stroke:#333;stroke-width:1.0416666666666667"/><text x="155.208" y="180.223" fill="#2E2E2E" font-size="12.5" textLength="160.417">执行 Finalizer 所定义的行动</text><path fill="none" d="M81.25 215.462v.22l10.278-.651 10.278.633 10.277.215 10.278-1.16 10.278.662 10.278-.363 10.277.045 10.278.328 10.278-.649 10.278 1.297 10.278-1.233 10.277.45 10.278.656 10.278-.54 10.278.161 10.277-.104 10.278.22 10.278.062 10.278.361 10.278.09 10.277.008 10.278-.442 10.278.217 10.278.249 10.277-1.483 10.278 1.458 10.278-1.016 10.278.865 10.278-1.071 10.277.515-.009-.022.697.504.484-.01.61.294.62.32.545.135.133.055.11.533.337.628-.032.475.52.703.152.552h.19l-.036 5.827.059 5.827-.38 5.826-.06 5.827.227 5.827-.2-.083-.063.665-.288.57.037.706-.518.476-.188.612-.046-.11-.513.428-.709-.043-.57.291-.433.619-.676.036v.453l-10.277.312-10.278-1.1-10.278.667-10.278.283-10.278-1.107-10.277.392-10.278.23-10.278.549-10.278-.684-10.277.486-10.278-1.058-10.278-.129-10.278 1.23-10.278-1.271-10.277 1.277-10.278-.315-10.278-.494-10.278-.09-10.277.847-10.278-.79-10.278.928-10.278-1.192-10.278 1.219-10.277-.139-10.278-.25-10.278-.205-10.278.708-10.277-.118-10.278-.463-10.278-.176.036.086-.643-.372-.476.027-.664-.424-.587-.238-.612-.3-.195-.08-.18-.563.057-.465-.277-.602-.395-.652-.23-.584h-.112l.035-5.827-.162-5.827.382-5.826.113-5.827-.257-5.827.17.07.297-.567-.022-.7.316-.56.091-.652.369-.537.037.09.585-.255.63-.146.485-.495.602-.214z" style="stroke:#333;stroke-width:1.0416666666666667"/><text x="88.542" y="238.523" fill="#2E2E2E" font-size="12.5" textLength="293.75">行动完成后，控制器会删除目标对象相关的 Finalizer</text><path fill="none" d="M113.542 273.763v.219l10.597-.65 10.598.632 10.598.215 10.598-1.16 10.598.663 10.598-.363 10.597.044 10.598.329 10.598-.65 10.598 1.298 10.598-1.233 10.598.45 10.597.656 10.598-.54 10.598.161 10.598-.104 10.598.219 10.598.063 10.597.361 10.598.089 10.598.009 10.598-.443 10.598-.265.061.149.621.32.4-.212.776.693.46-.069.628.34.171.07-.086.453.381.646.504.697-.01.484.26.596h.037l.08 8.737.028 8.737-.146 8.737.101 8.737-.1 8.737-.183-.077.03.704-.159.624-.277.575-.19.612-.441.508-.064-.155-.612.19-.585.254-.515.424-.607.2-.563.307v.71l-10.598-.892-10.598-.175-10.598.595-10.598-.932-10.597.154-10.598 1.216-10.598-.222-10.598.311-10.598-1.1-10.598.668-10.597.282-10.598-1.107-10.598.392-10.598.232-10.598.547-10.598-.683-10.597.486-10.598-1.059-10.598-.128-10.598 1.23-10.598-1.272-10.597 1.277-10.598-.53.027.067-.652-.397-.6-.271-.482.016-.69-.487-.55-.148.19.079-.611-.742.131-.434-.287-.607-.32-.62-.323-.622h.016l.236-8.737-.039-8.737-.154-8.737.034-8.737-.093-8.737-.042-.018.516-.476.064-.664.25-.587-.007-.693.44-.509-.055-.13.714.057.576-.277.526-.396.553-.333z" style="stroke:#333;stroke-width:1.0416666666666667"/><text x="120.833" y="296.824" fill="#2E2E2E" font-size="12.5" textLength="194.792">metadata.finalizers 字段为空时,</text><text x="120.833" y="311.375" fill="#2E2E2E" font-size="12.5" textLength="229.167">Kubernetes 认为删除已完成并删除对象</text><path fill="#333" d="M235.417 48.926h.097l-.29 4.166.282 4.167.096 4.167-.516 4.166.33 4.167" style="stroke:#333;stroke-width:3.125"/><path fill="#333" d="m231.25 59.342.068.028.632 2.002 1.029 2.162.9 2.11.474 1.94 1.064 2.175-.025-.01.72-2.128.848-2.078.935-2.043.632-2.163 1.056-1.995.136.136-1.124.543-.727.94-.679.988-.96.706-.812.854.016.017-.857-.858-.782-.782-.819-.818-.748-.748z" style="stroke:#333;stroke-width:1.0416666666666667"/><path fill="#333" d="M235.417 136.328h.097l-.29 4.167.282 4.166.096 4.167-.516 4.167.33 4.166" style="stroke:#333;stroke-width:3.125"/><path fill="#333" d="m231.25 146.745.068.027.632 2.003 1.029 2.161.9 2.11.474 1.94 1.064 2.175-.025-.01.72-2.128.848-2.078.935-2.042.632-2.164 1.056-1.994.136.136-1.124.542-.727.94-.679.988-.96.706-.812.855.016.016-.857-.858-.782-.781-.819-.819-.748-.748z" style="stroke:#333;stroke-width:1.0416666666666667"/><path fill="#333" d="M235.417 194.629h.097l-.29 4.167.282 4.166.096 4.167-.516 4.167.33 4.166" style="stroke:#333;stroke-width:3.125"/><path fill="#333" d="m231.25 205.046.068.027.632 2.002 1.029 2.162.9 2.11.474 1.94 1.064 2.175-.025-.01.72-2.128.848-2.078.935-2.043.632-2.163 1.056-1.994.136.136-1.124.542-.727.94-.679.988-.96.706-.812.854.016.017-.857-.858-.782-.782-.819-.818-.748-.748z" style="stroke:#333;stroke-width:1.0416666666666667"/><path fill="#333" d="M235.417 252.93h.097l-.29 4.166.282 4.167.096 4.167-.516 4.166.33 4.167" style="stroke:#333;stroke-width:3.125"/><path fill="#333" d="m231.25 263.346.068.027.632 2.003 1.029 2.162.9 2.11.474 1.94 1.064 2.175-.025-.01.72-2.128.848-2.078.935-2.043.632-2.163 1.056-1.995.136.136-1.124.543-.727.94-.679.987-.96.707-.812.854.016.017-.857-.858-.782-.782-.819-.818-.748-.748z" style="stroke:#333;stroke-width:1.0416666666666667"/></svg>