<svg xmlns="http://www.w3.org/2000/svg" width="592" height="314" preserveAspectRatio="none" style="width:592px;height:314px;background:#fff"><defs><filter id="a" width="300%" height="300%" x="-1" y="-1"><feGaussianBlur result="blurOut" stdDeviation="2"/><feColorMatrix in="blurOut" result="blurOut2" values="0 0 0 0 0 0 0 0 0 0 0 0 0 0 0 0 0 0 .4 0"/><feOffset dx="4" dy="4" in="blurOut2" result="blurOut3"/><feBlend in="SourceGraphic" in2="blurOut3"/></filter></defs><text x="520" y="19.282" fill="#888" font-family="sans-serif" font-size="10" textLength="52">made by x</text><text x="241" y="45.636" font-family="sans-serif" font-size="14" font-weight="bold" textLength="100">enum内存结构</text><rect width="120" height="40.297" x="10" y="151.531" fill="#A8EB99" filter="url(#a)" rx="7.5" ry="7.5" style="stroke:#000;stroke-width:1"/><text x="22" y="176.526" font-family="sans-serif" font-size="14" textLength="96">enum内存组成</text><rect width="46" height="40.297" x="180" y="121.383" fill="gold" filter="url(#a)" rx="7.5" ry="7.5" style="stroke:#000;stroke-width:1"/><text x="192" y="146.378" font-family="sans-serif" font-size="14" textLength="22">tag</text><rect width="136" height="40.297" x="276" y="69.938" fill="gold" filter="url(#a)" rx="7.5" ry="7.5" style="stroke:#000;stroke-width:1"/><text x="288" y="94.933" font-family="sans-serif" font-size="14" textLength="112">用于区分枚举变体</text><path fill="none" d="M226 141.531h10c15 0 15-51.445 30-51.445h10" style="stroke:red;stroke-width:1;stroke-dasharray:5,5"/><rect width="297" height="82.891" x="276" y="130.234" fill="gold" filter="url(#a)" rx="7.5" ry="7.5" style="stroke:#000;stroke-width:1"/><text x="354.5" y="155.23" font-family="sans-serif" font-size="14" textLength="140">特殊情况下可以不需要</text><text x="315.5" y="171.526" font-family="sans-serif" font-size="14" textLength="218">这样就不需要额外内存来存储tag了</text><path d="M276 179.828h297" style="stroke:#000;stroke-width:1;stroke-dasharray:1,2"/><text x="288" y="197.823" fill="#00F" font-family="sans-serif" font-size="14" textLength="273">枚举的内存占用大小&gt;=union最大成员大小</text><path fill="none" d="M226 141.531h10c15 0 15 30.149 30 30.149h10" style="stroke:red;stroke-width:1;stroke-dasharray:5,5"/><path fill="none" d="M130 171.68h10c15 0 15-30.149 30-30.149h10" style="stroke:green;stroke-width:1;stroke-dasharray:5,5"/><rect width="63" height="40.297" x="180" y="233.125" fill="#FBC" filter="url(#a)" rx="7.5" ry="7.5" style="stroke:#000;stroke-width:1"/><text x="192" y="258.12" font-family="sans-serif" font-size="14" textLength="39">union</text><path fill="none" d="M130 171.68h10c15 0 15 81.593 30 81.593h10" style="stroke:green;stroke-width:1;stroke-dasharray:5,5"/><text x="265" y="297.417" font-family="sans-serif" font-size="14" textLength="52">figure 1</text></svg>