<svg xmlns="http://www.w3.org/2000/svg" width="2207.031" height="747.396" preserveAspectRatio="none" style="width:2207px;height:747px;background:#fff" viewBox="0 0 2207 747"><path fill="none" d="M1026.693 7.813h49.479a4.88 4.88 0 0 1 3.255 3.255l9.115 25.777h279.297a3.255 3.255 0 0 1 3.255 3.255v110.46a3.255 3.255 0 0 1-3.255 3.255h-341.146a3.255 3.255 0 0 1-3.255-3.255V11.068a3.255 3.255 0 0 1 3.255-3.255" style="stroke:#000;stroke-width:1.953125"/><path d="M1023.438 36.845h65.104" style="stroke:#000;stroke-width:1.953125"/><text x="1028.646" y="27.337" font-family="sans-serif" font-size="18.229" font-weight="bold" textLength="48.177">User</text><path fill="none" d="M671.224 256.68h143.23a4.88 4.88 0 0 1 3.254 3.255l9.115 25.777h1195.964a3.255 3.255 0 0 1 3.255 3.255v183.377a3.255 3.255 0 0 1-3.255 3.255H671.223a3.255 3.255 0 0 1-3.255-3.255v-212.41a3.255 3.255 0 0 1 3.255-3.254" style="stroke:#000;stroke-width:1.953125"/><path d="M667.969 285.712h158.854" style="stroke:#000;stroke-width:1.953125"/><text x="673.177" y="276.205" font-family="sans-serif" font-size="18.229" font-weight="bold" textLength="141.927">Master Nodes</text><path fill="none" d="m1752.604 325.69 13.021-13.02h229.167v118.658l-13.021 13.021h-229.167z" style="stroke:#181818;stroke-width:1.3020833333333333"/><path d="m1981.771 325.69 13.021-13.021M1752.604 325.69h229.167M1981.771 325.69v118.659" style="stroke:#181818;stroke-width:1.3020833333333333"/><text x="1796.875" y="346.517" font-family="sans-serif" font-size="18.229" font-weight="bold" textLength="143.229">Master Node3</text><path fill="none" d="m1479.167 325.69 13.02-13.02h229.167v118.658l-13.02 13.021h-229.167z" style="stroke:#181818;stroke-width:1.3020833333333333"/><path d="m1708.333 325.69 13.021-13.021M1479.167 325.69h229.166M1708.333 325.69v118.659" style="stroke:#181818;stroke-width:1.3020833333333333"/><text x="1523.438" y="346.517" font-family="sans-serif" font-size="18.229" font-weight="bold" textLength="143.229">Master Node2</text><path fill="none" d="m699.219 325.69 13.02-13.02h735.678v118.658l-13.021 13.021H699.219z" style="stroke:#181818;stroke-width:1.3020833333333333"/><path d="m1434.896 325.69 13.021-13.021M699.219 325.69h735.677M1434.896 325.69v118.659" style="stroke:#181818;stroke-width:1.3020833333333333"/><text x="996.745" y="346.517" font-family="sans-serif" font-size="18.229" font-weight="bold" textLength="143.229">Master Node1</text><path fill="none" d="m20.833 531.589 13.021-13.021h700.521v194.4l-13.02 13.022H20.832z" style="stroke:#181818;stroke-width:1.3020833333333333"/><path d="m721.354 531.588 13.021-13.02M20.833 531.588h700.521M721.354 531.588V725.99" style="stroke:#181818;stroke-width:1.3020833333333333"/><text x="298.177" y="552.415" font-family="sans-serif" font-size="18.229" font-weight="bold" textLength="148.438">Worker Node3</text><rect width="332.031" height="113.672" x="371.094" y="581.068" fill="none" rx="3.255" ry="3.255" style="stroke:#181818;stroke-width:1.3020833333333333"/><text x="375" y="600.593" font-family="sans-serif" font-size="18.229" font-weight="bold" textLength="39.063">pod</text><path fill="none" d="m765.625 581.836 13.02-13.02h332.032v118.658l-13.02 13.02H765.624z" style="stroke:#181818;stroke-width:1.3020833333333333"/><path d="m1097.656 581.836 13.021-13.021M765.625 581.836h332.031M1097.656 581.836v118.659" style="stroke:#181818;stroke-width:1.3020833333333333"/><text x="858.724" y="602.663" font-family="sans-serif" font-size="18.229" font-weight="bold" textLength="148.438">Worker Node2</text><path fill="none" d="m1141.927 581.836 13.02-13.02h332.032v118.658l-13.02 13.02h-332.032z" style="stroke:#181818;stroke-width:1.3020833333333333"/><path d="m1473.958 581.836 13.021-13.021M1141.927 581.836h332.031M1473.958 581.836v118.659" style="stroke:#181818;stroke-width:1.3020833333333333"/><text x="1235.026" y="602.663" font-family="sans-serif" font-size="18.229" font-weight="bold" textLength="148.438">Worker Node1</text><rect width="111.979" height="58.767" x="1227.865" y="63.802" fill="#FF0" rx="3.255" ry="3.255" style="stroke:#000;stroke-width:.6510416666666666"/><path fill="#FF0" d="M1313.802 70.313h19.531v13.021h-19.531z" style="stroke:#000;stroke-width:.6510416666666666"/><path fill="#FF0" d="M1311.198 72.917h5.208v2.604h-5.208zM1311.198 78.125h5.208v2.604h-5.208z" style="stroke:#000;stroke-width:.6510416666666666"/><text x="1247.396" y="105.556" font-family="sans-serif" font-size="16.927" textLength="59.896">kubectl</text><rect width="102.865" height="58.767" x="1080.078" y="63.802" fill="#FF0" rx="3.255" ry="3.255" style="stroke:#000;stroke-width:.6510416666666666"/><path fill="#FF0" d="M1156.901 70.313h19.531v13.021h-19.531z" style="stroke:#000;stroke-width:.6510416666666666"/><path fill="#FF0" d="M1154.297 72.917h5.208v2.604h-5.208zM1154.297 78.125h5.208v2.604h-5.208z" style="stroke:#000;stroke-width:.6510416666666666"/><text x="1099.609" y="105.556" font-family="sans-serif" font-size="16.927" textLength="50.781">浏览器</text><rect width="67.708" height="58.767" x="1839.844" y="364.753" fill="#F1F1F1" rx="3.255" ry="3.255" style="stroke:#000;stroke-width:.6510416666666666"/><path fill="#F1F1F1" d="M1881.51 371.263h19.531v13.021h-19.531z" style="stroke:#000;stroke-width:.6510416666666666"/><path fill="#F1F1F1" d="M1878.906 373.867h5.208v2.604h-5.208zM1878.906 379.075h5.208v2.604h-5.208z" style="stroke:#000;stroke-width:.6510416666666666"/><text x="1859.375" y="406.506" font-family="sans-serif" font-size="16.927" textLength="15.625">...</text><rect width="67.708" height="58.767" x="1566.406" y="364.753" fill="#F1F1F1" rx="3.255" ry="3.255" style="stroke:#000;stroke-width:.6510416666666666"/><path fill="#F1F1F1" d="M1608.073 371.263h19.531v13.021h-19.531z" style="stroke:#000;stroke-width:.6510416666666666"/><path fill="#F1F1F1" d="M1605.469 373.867h5.208v2.604h-5.208zM1605.469 379.075h5.208v2.604h-5.208z" style="stroke:#000;stroke-width:.6510416666666666"/><text x="1585.938" y="406.506" font-family="sans-serif" font-size="16.927" textLength="15.625">...</text><rect width="175.781" height="58.767" x="945.963" y="364.753" fill="gold" rx="3.255" ry="3.255" style="stroke:#000;stroke-width:.6510416666666666"/><path fill="gold" d="M1095.703 371.263h19.531v13.021h-19.531z" style="stroke:#000;stroke-width:.6510416666666666"/><path fill="gold" d="M1093.099 373.867h5.208v2.604h-5.208zM1093.099 379.075h5.208v2.604h-5.208z" style="stroke:#000;stroke-width:.6510416666666666"/><text x="965.495" y="406.506" font-family="sans-serif" font-size="16.927" textLength="123.698">kube-apiserver</text><rect width="259.115" height="58.767" x="1167.318" y="364.753" fill="#F1F1F1" rx="3.255" ry="3.255" style="stroke:#000;stroke-width:.6510416666666666"/><path fill="#F1F1F1" d="M1400.391 371.263h19.531v13.021h-19.531z" style="stroke:#000;stroke-width:.6510416666666666"/><path fill="#F1F1F1" d="M1397.786 373.867h5.208v2.604h-5.208zM1397.786 379.075h5.208v2.604h-5.208z" style="stroke:#000;stroke-width:.6510416666666666"/><text x="1186.849" y="406.506" font-family="sans-serif" font-size="16.927" textLength="207.031">kube-controller-manager</text><rect width="179.688" height="58.767" x="720.052" y="364.753" fill="#F1F1F1" rx="3.255" ry="3.255" style="stroke:#000;stroke-width:.6510416666666666"/><path fill="#F1F1F1" d="M873.698 371.263h19.531v13.021h-19.531z" style="stroke:#000;stroke-width:.6510416666666666"/><path fill="#F1F1F1" d="M871.094 373.867h5.208v2.604h-5.208zM871.094 379.075h5.208v2.604h-5.208z" style="stroke:#000;stroke-width:.6510416666666666"/><text x="739.583" y="406.506" font-family="sans-serif" font-size="16.927" textLength="127.604">kube-scheduler</text><rect width="113.281" height="58.767" x="232.422" y="620.898" fill="#F1F1F1" rx="3.255" ry="3.255" style="stroke:#000;stroke-width:.6510416666666666"/><path fill="#F1F1F1" d="M319.661 627.409h19.531v13.021h-19.531z" style="stroke:#000;stroke-width:.6510416666666666"/><path fill="#F1F1F1" d="M317.057 630.013h5.208v2.604h-5.208zM317.057 635.221h5.208v2.604h-5.208z" style="stroke:#000;stroke-width:.6510416666666666"/><text x="251.953" y="662.652" font-family="sans-serif" font-size="16.927" textLength="61.198">kubelet</text><rect width="144.531" height="58.767" x="42.318" y="620.898" fill="#F1F1F1" rx="3.255" ry="3.255" style="stroke:#000;stroke-width:.6510416666666666"/><path fill="#F1F1F1" d="M160.807 627.409h19.531v13.021h-19.531z" style="stroke:#000;stroke-width:.6510416666666666"/><path fill="#F1F1F1" d="M158.203 630.013h5.208v2.604h-5.208zM158.203 635.221h5.208v2.604h-5.208z" style="stroke:#000;stroke-width:.6510416666666666"/><text x="61.849" y="662.652" font-family="sans-serif" font-size="16.927" textLength="92.448">kube-proxy</text><rect width="122.396" height="47.262" x="559.896" y="626.641" fill="#F1F1F1" rx="3.255" ry="3.255" style="stroke:#181818;stroke-width:.6510416666666666"/><text x="572.917" y="656.582" font-family="sans-serif" font-size="18.229" textLength="96.354">container1</text><rect width="122.396" height="47.262" x="391.927" y="626.641" fill="#F1F1F1" rx="3.255" ry="3.255" style="stroke:#181818;stroke-width:.6510416666666666"/><text x="404.948" y="656.582" font-family="sans-serif" font-size="18.229" textLength="96.354">container2</text><rect width="113.281" height="58.767" x="977.213" y="620.898" fill="#F1F1F1" rx="3.255" ry="3.255" style="stroke:#000;stroke-width:.6510416666666666"/><path fill="#F1F1F1" d="M1064.453 627.409h19.531v13.021h-19.531z" style="stroke:#000;stroke-width:.6510416666666666"/><path fill="#F1F1F1" d="M1061.849 630.013h5.208v2.604h-5.208zM1061.849 635.221h5.208v2.604h-5.208z" style="stroke:#000;stroke-width:.6510416666666666"/><text x="996.745" y="662.652" font-family="sans-serif" font-size="16.927" textLength="61.198">kubelet</text><rect width="144.531" height="58.767" x="787.109" y="620.898" fill="#F1F1F1" rx="3.255" ry="3.255" style="stroke:#000;stroke-width:.6510416666666666"/><path fill="#F1F1F1" d="M905.599 627.409h19.531v13.021h-19.531z" style="stroke:#000;stroke-width:.6510416666666666"/><path fill="#F1F1F1" d="M902.995 630.013h5.208v2.604h-5.208zM902.995 635.221h5.208v2.604h-5.208z" style="stroke:#000;stroke-width:.6510416666666666"/><text x="806.641" y="662.652" font-family="sans-serif" font-size="16.927" textLength="92.448">kube-proxy</text><rect width="113.281" height="58.767" x="1353.516" y="620.898" fill="#F1F1F1" rx="3.255" ry="3.255" style="stroke:#000;stroke-width:.6510416666666666"/><path fill="#F1F1F1" d="M1440.755 627.409h19.531v13.021h-19.531z" style="stroke:#000;stroke-width:.6510416666666666"/><path fill="#F1F1F1" d="M1438.151 630.013h5.208v2.604h-5.208zM1438.151 635.221h5.208v2.604h-5.208z" style="stroke:#000;stroke-width:.6510416666666666"/><text x="1373.047" y="662.652" font-family="sans-serif" font-size="16.927" textLength="61.198">kubelet</text><rect width="144.531" height="58.767" x="1163.411" y="620.898" fill="#F1F1F1" rx="3.255" ry="3.255" style="stroke:#000;stroke-width:.6510416666666666"/><path fill="#F1F1F1" d="M1281.901 627.409h19.531v13.021h-19.531z" style="stroke:#000;stroke-width:.6510416666666666"/><path fill="#F1F1F1" d="M1279.297 630.013h5.208v2.604h-5.208zM1279.297 635.221h5.208v2.604h-5.208z" style="stroke:#000;stroke-width:.6510416666666666"/><text x="1182.943" y="662.652" font-family="sans-serif" font-size="16.927" textLength="92.448">kube-proxy</text><path fill="#F1F1F1" d="M2046.875 367.057c0-13.02 69.01-13.02 69.01-13.02s69.01 0 69.01 13.02v54.159c0 13.02-69.01 13.02-69.01 13.02s-69.01 0-69.01-13.02v-54.159" style="stroke:#181818;stroke-width:.6510416666666666"/><path fill="none" d="M2046.875 367.057c0 13.021 69.01 13.021 69.01 13.021s69.01 0 69.01-13.02" style="stroke:#181818;stroke-width:.6510416666666666"/><text x="2059.896" y="402.207" font-family="sans-serif" font-size="18.229" textLength="106.771">etcd cluster</text><text x="2065.104" y="423.427" font-family="sans-serif" font-size="18.229" textLength="49.479">(存储)</text><path fill="none" d="M900 394.14h37.682" style="stroke:red;stroke-width:1.3020833333333333"/><path fill="red" d="m945.495 394.14-11.719-5.208 5.208 5.209-5.208 5.208z" style="stroke:red;stroke-width:1.3020833333333333"/><path fill="none" d="M1130.026 394.14h36.875" style="stroke:red;stroke-width:1.3020833333333333"/><path fill="red" d="m1122.214 394.14 11.718 5.209-5.208-5.208 5.208-5.209z" style="stroke:red;stroke-width:1.3020833333333333"/><path fill="none" d="M1033.854 154.684v202.022" style="stroke:red;stroke-width:1.3020833333333333"/><path fill="red" d="m1033.854 364.518 5.208-11.718-5.208 5.208-5.208-5.208z" style="stroke:red;stroke-width:1.3020833333333333"/><text x="1035.156" y="216.402" fill="#777" font-family="Impact" font-size="16.927" textLength="41.667">HTTP</text><path fill="none" d="M1045.456 364.388c18.372-41.745 58.698-114.453 121.862-130.495 39.752-10.09 698.528-10.09 738.281 0 72.734 18.477 133.051 72.967 170.955 114.087" style="stroke:red;stroke-width:1.3020833333333333"/><path fill="red" d="m2081.849 353.724-4.113-12.147-.3 7.36-7.36-.3z" style="stroke:red;stroke-width:1.3020833333333333"/><path fill="none" d="M1065.046 429.362c20.755 20.924 46.36 42.565 79.485 56.654 76.693 32.617 116.85-24.076 186.198 22.135 39.48 26.302 61.446 79.258 71.823 112.2" style="stroke:red;stroke-width:1.3020833333333333"/><path fill="red" d="m1059.544 423.815 4.555 11.988.03-7.366 7.366.03z" style="stroke:red;stroke-width:1.3020833333333333"/><path fill="none" d="M1033.854 431.836v188.646" style="stroke:red;stroke-width:1.3020833333333333"/><path fill="red" d="m1033.854 424.023-5.208 11.72 5.208-5.21 5.208 5.21z" style="stroke:red;stroke-width:1.3020833333333333"/><path fill="none" d="M1003.462 429.742c-20.586 21.38-46.392 43.409-80.285 56.274-57.396 21.796-499.48-9.519-552.083 22.135-41.211 24.805-63.867 78.763-74.427 112.227" style="stroke:red;stroke-width:1.3020833333333333"/><path fill="red" d="M1008.88 424.115 997 428.944l7.365-.14.139 7.365z" style="stroke:red;stroke-width:1.3020833333333333"/></svg>