<svg xmlns="http://www.w3.org/2000/svg" width="589.17" height="416.117"><defs><style>@font-face{font-family:&quot;Virgil&quot;;src:url(https://unpkg.com/@excalidraw/excalidraw@undefined/dist/excalidraw-assets/Virgil.woff2)}@font-face{font-family:&quot;Cascadia&quot;;src:url(https://unpkg.com/@excalidraw/excalidraw@undefined/dist/excalidraw-assets/Cascadia.woff2)}@font-face{font-family:&quot;Assistant&quot;;src:url(https://unpkg.com/@excalidraw/excalidraw@undefined/dist/excalidraw-assets/Assistant-Regular.woff2)}</style></defs><path fill="#fff" d="M0 0h589.17v416.117H0z"/><text fill="#0b7285" dominant-baseline="text-before-edge" font-family="Helvetica, Segoe UI Emoji" font-size="28" style="white-space:pre" transform="translate(93.713 219.106)">[addr]</text><text dominant-baseline="text-before-edge" font-family="Helvetica, Segoe UI Emoji" font-size="20" style="white-space:pre" transform="translate(46.044 90.434)">sed </text><text fill="#2b8a3e" dominant-baseline="text-before-edge" font-family="Helvetica, Segoe UI Emoji" font-size="20" style="white-space:pre" transform="translate(94.518 91.427)">[OPTION]... </text><text fill="#c92a2a" dominant-baseline="text-before-edge" font-family="Helvetica, Segoe UI Emoji" font-size="20" style="white-space:pre" transform="translate(218.752 86.93)">{script} </text><text fill="#495057" dominant-baseline="text-before-edge" font-family="Helvetica, Segoe UI Emoji" font-size="20" style="white-space:pre" transform="translate(323.622 91.165)">[input-file]...</text><path fill="none" stroke="#c92a2a" stroke-dasharray="8 9" stroke-linecap="round" stroke-width="1.5" d="M207.246 75.032c29.94 1.37 55.14-.69 92.59 0m0 0c1.4 16.23-1.02 35.06 0 48.03m0 0c-28.15-1.04-59.18-1.55-92.59 0m0 0c-.63-17.38 2.3-33.22 0-48.03"/><text fill="#e67700" dominant-baseline="text-before-edge" font-family="Helvetica, Segoe UI Emoji" font-size="28" style="white-space:pre" transform="translate(234.746 218.371)">X</text><text dominant-baseline="text-before-edge" font-family="Helvetica, Segoe UI Emoji" font-size="28" style="white-space:pre" transform="translate(336.56 218.078)">[options]</text><g stroke-linecap="round"><path fill="none" stroke="#c92a2a" d="M249.644 135.485c-.82 11.62-3.82 58.74-4.87 70.69m6.89-71.88c-.87 11.71-5.79 61.33-7.36 73.13"/><path fill="#c92a2a" fill-rule="evenodd" stroke-width="0" d="m245.054 208.395-5.21-14.5 11.8 1-5.95 11.43"/><path fill="none" stroke="#c92a2a" d="M244.304 207.425c-1.76-2.79-3.4-8.53-4.78-14.22m4.78 14.22c-1.99-4.1-3.5-9.27-4.78-14.22m0 0c3.98-.22 6.16 1.99 12.6 1.42m-12.6-1.42c4.91 1.01 9.17 1.16 12.6 1.42m0 0c-3.73 3.77-4.73 7.76-7.82 12.8m7.82-12.8c-2.91 3.7-5.27 7.03-7.82 12.8m0 0q0 0 0 0m0 0q0 0 0 0"/></g><g stroke-linecap="round"><path fill="none" stroke="#0b7285" d="M126.752 259.788c-8.61 15.88-44.22 79.73-52.9 95.52m51.93-93.19c-8.79 15.53-44.54 75.71-53.16 91.3"/><path fill="#0b7285" fill-rule="evenodd" stroke-width="0" d="m72.932 354.118.5-15.37 12.86 4.95-13.65 11.42"/><path fill="none" stroke="#0b7285" d="M72.622 353.418c-.3-4.73 1.31-7.76 1.29-14.94m-1.29 14.94c.18-3.71.34-7.66 1.29-14.94m0 0c2.35 2.56 5.62 3.17 10.99 6.32m-10.99-6.32c2.11 1.35 5.23 2.49 10.99 6.32m0 0c-3.42 1.76-8.26 5.83-12.28 8.62m12.28-8.62c-4.17 1.91-7.56 5.49-12.28 8.62m0 0q0 0 0 0m0 0q0 0 0 0"/></g><text fill="#0b7285" dominant-baseline="text-before-edge" font-family="Helvetica, Segoe UI Emoji" font-size="20" style="white-space:pre" transform="translate(10 363.801)">寻找匹配行</text><text fill="#e67700" dominant-baseline="text-before-edge" font-family="Helvetica, Segoe UI Emoji" font-size="20" style="white-space:pre" transform="translate(153.535 350.117)">单个字母的指令</text><text y="28" fill="#e67700" dominant-baseline="text-before-edge" font-family="Helvetica, Segoe UI Emoji" font-size="20" style="white-space:pre" transform="translate(153.535 350.117)">对匹配的行执行该指令</text><g stroke-linecap="round"><path fill="none" stroke="#e67700" d="M242.095 263.248c-1.11 14.02-4.8 68.85-5.83 82.65m7.74-83.1c-1.32 13.7-7.35 67.73-8.88 81.28"/><path fill="#e67700" fill-rule="evenodd" stroke-width="0" d="m235.145 345.778-6.25-14.18 13.27-2.32-5.74 16.27"/><path fill="none" stroke="#e67700" d="M235.125 344.078c-.08-5.1-2.36-10.1-4.79-14.21m4.79 14.21c-2.01-5.1-2.64-9.67-4.79-14.21m0 0c5-.31 8.47 1.47 12.6 1.41m-12.6-1.41c2.92.73 5.94.76 12.6 1.41m0 0c-2.57 2.57-5.87 6.6-7.81 12.8m7.81-12.8c-2.42 5.18-5.64 10.41-7.81 12.8m0 0q0 0 0 0m0 0q0 0 0 0"/></g><text dominant-baseline="text-before-edge" font-family="Helvetica, Segoe UI Emoji" font-size="20" style="white-space:pre" transform="translate(367.558 363.328)">某些指令的额外选项</text><g stroke-linecap="round"><path fill="none" stroke="#000" d="M396.208 259.632c10.64 16.06 53.37 80.33 64.13 96.23m-62.28-96.89c11.03 15.69 54.15 78.98 64.42 95.21"/><path fill-rule="evenodd" stroke-width="0" d="m461.708 352.192-10.71-4.39 8.4-7.48 3.18 15.22"/><path fill="none" stroke="#000" d="M462.478 354.182c-2.54-3.56-5.86-5.1-12.79-7.85m12.79 7.85c-3.64-2.82-7.61-4.17-12.79-7.85m0 0c1.95-1.34 4.25-3.95 10.58-6.99m-10.58 6.99c3.79-2.55 6.85-4.87 10.58-6.99m0 0c1.79 3.05 1.7 7.55 2.21 14.84m-2.21-14.84c1.35 4.66 1.37 8.49 2.21 14.84m0 0q0 0 0 0m0 0q0 0 0 0"/></g><path fill="none" stroke="#000" stroke-linecap="round" d="M579.17 302.668q0 0 0 0m0 0q0 0 0 0"/><path fill="none" stroke="#2b8a3e" stroke-dasharray="8 9" stroke-linecap="round" stroke-width="1.5" d="M72.858 201.443c83.06 2.27 166.99 1.64 398.17 0m0 0c-1.06 14.1.99 27.32 0 62.73m0 0c-130.96-1.76-263.04-.83-398.17 0m0 0c-1.3-18.7-1.26-32.94 0-62.73"/><text fill="#343a40" dominant-baseline="text-before-edge" font-family="Helvetica, Segoe UI Emoji" font-size="20" style="white-space:pre" transform="translate(254.9 159.51)">三个部分组成</text><text dominant-baseline="text-before-edge" font-family="Helvetica, Segoe UI Emoji" font-size="20" style="white-space:pre" transform="translate(183.78 10)">SED 命令结构</text></svg>