<svg xmlns="http://www.w3.org/2000/svg" viewBox="0 0 832 280"><defs><filter id="a" width="1.157" height="1.504" x="-.079" y="-.252"><feGaussianBlur stdDeviation="4.2"/></filter></defs><desc>blockdiag {
  default_fontsize = 14;
  // default_fontfamily = &quot;Fira Code&quot;;
  container1 -&gt; WebService1;
  WebService1 -&gt; Route1;
  WebService1 -&gt; Route2;
  Route1 -&gt; handler1 [description = &quot;browsers in each client&quot;];
  Route2 -&gt; handler2;
  container1 -&gt; &quot;WebService2&quot; -&gt; Route3;
  Route3 -&gt; handler3;
  container1 [color = &quot;pink&quot;];
  WebService1 [color = &quot;orange&quot;];
  Route1 [color = &quot;yellow&quot;];
}</desc><path stroke="#000" d="M67 46h128v40H67zM259 46h128v40H259zM259 206h128v40H259zM451 46h128v40H451zM451 126h128v40H451zM643 46h128v40H643zM643 126h128v40H643zM451 206h128v40H451zM643 206h128v40H643z" style="filter:url(#a);opacity:.7;fill-opacity:1"/><path fill="pink" stroke="#000" d="M64 40h128v40H64z"/><text x="128.5" y="67" font-family="sans-serif" font-size="14" text-anchor="middle" textLength="77">container1</text><path fill="orange" stroke="#000" d="M256 40h128v40H256z"/><text x="320" y="67" font-family="sans-serif" font-size="14" text-anchor="middle" textLength="92">WebService1</text><path fill="#FFF" stroke="#000" d="M256 200h128v40H256z"/><text x="320" y="227" font-family="sans-serif" font-size="14" text-anchor="middle" textLength="92">WebService2</text><path fill="#FF0" stroke="#000" d="M448 40h128v40H448z"/><text x="512.5" y="67" font-family="sans-serif" font-size="14" text-anchor="middle" textLength="51">Route1</text><path fill="#FFF" stroke="#000" d="M448 120h128v40H448z"/><text x="512.5" y="147" font-family="sans-serif" font-size="14" text-anchor="middle" textLength="51">Route2</text><path fill="#FFF" stroke="#000" d="M640 40h128v40H640z"/><text x="704" y="67" font-family="sans-serif" font-size="14" text-anchor="middle" textLength="64">handler1</text><path fill="#FFF" stroke="#000" d="M640 120h128v40H640z"/><text x="704" y="147" font-family="sans-serif" font-size="14" text-anchor="middle" textLength="64">handler2</text><path fill="#FFF" stroke="#000" d="M448 200h128v40H448z"/><text x="512.5" y="227" font-family="sans-serif" font-size="14" text-anchor="middle" textLength="51">Route3</text><path fill="#FFF" stroke="#000" d="M640 200h128v40H640z"/><text x="704" y="227" font-family="sans-serif" font-size="14" text-anchor="middle" textLength="64">handler3</text><path fill="none" stroke="#000" d="M192 60h56"/><path stroke="#000" d="m255 60-7-4v8z"/><path fill="none" stroke="#000" d="M192 60h32M224 60v160M224 220h24"/><path stroke="#000" d="m255 220-7-4v8z"/><path fill="none" stroke="#000" d="M384 60h56"/><path stroke="#000" d="m447 60-7-4v8z"/><path fill="none" stroke="#000" d="M384 60h32M416 60v80M416 140h24"/><path stroke="#000" d="m447 140-7-4v8z"/><path fill="none" stroke="#000" d="M576 60h56"/><path stroke="#000" d="m639 60-7-4v8z"/><path fill="none" stroke="#000" d="M576 140h56"/><path stroke="#000" d="m639 140-7-4v8z"/><path fill="none" stroke="#000" d="M384 220h56"/><path stroke="#000" d="m447 220-7-4v8z"/><path fill="none" stroke="#000" d="M576 220h56"/><path stroke="#000" d="m639 220-7-4v8z"/></svg>