<svg xmlns="http://www.w3.org/2000/svg" width="800" height="56" class="WaveDrom"><g font-family="sans-serif" font-size="14" text-anchor="middle"><g stroke="#000" stroke-linecap="round"><path d="M4.5 21.5h791M4.5 21.5v31M4.5 52.5h791M795.5 21.5v31M762.5 21.5v3M762.5 52.5v-3M729.5 21.5v3M729.5 52.5v-3M696.5 21.5v3M696.5 52.5v-3M663.5 21.5v3M663.5 52.5v-3M630.5 21.5v3M630.5 52.5v-3M597.5 21.5v3M597.5 52.5v-3M564.5 21.5v3M564.5 52.5v-3M531.5 21.5v31M498.5 21.5v3M498.5 52.5v-3M465.5 21.5v3M465.5 52.5v-3M432.5 21.5v3M432.5 52.5v-3M400.5 21.5v3M400.5 52.5v-3M367.5 21.5v3M367.5 52.5v-3M334.5 21.5v3M334.5 52.5v-3M301.5 21.5v3M301.5 52.5v-3M268.5 21.5v31M235.5 21.5v3M235.5 52.5v-3M202.5 21.5v3M202.5 52.5v-3M169.5 21.5v3M169.5 52.5v-3M136.5 21.5v3M136.5 52.5v-3M103.5 21.5v3M103.5 52.5v-3M70.5 21.5v3M70.5 52.5v-3M37.5 21.5v3M37.5 52.5v-3"/></g><text y="6" transform="translate(778.5 10.5)">0</text><text y="6" transform="translate(547.5 10.5)">7</text><text y="6" transform="translate(514.5 10.5)">8</text><text y="6" transform="translate(284.5 10.5)">15</text><text y="6" transform="translate(251.5 10.5)">16</text><text y="6" transform="translate(20.5 10.5)">23</text><text y="6" transform="translate(663.5 36.5)"><tspan>Data指针</tspan></text><text y="6" transform="translate(399.5 36.5)"><tspan>Len</tspan></text><text y="6" transform="translate(135.5 36.5)"><tspan>Cap</tspan></text></g></svg>