<svg xmlns="http://www.w3.org/2000/svg" width="625" height="272" preserveAspectRatio="none" style="width:625px;height:272px;background:#fff"><defs><filter id="a" width="300%" height="300%" x="-1" y="-1"><feGaussianBlur result="blurOut" stdDeviation="2"/><feColorMatrix in="blurOut" result="blurOut2" values="0 0 0 0 0 0 0 0 0 0 0 0 0 0 0 0 0 0 .4 0"/><feOffset dx="4" dy="4" in="blurOut2" result="blurOut3"/><feBlend in="SourceGraphic" in2="blurOut3"/></filter></defs><text x="553" y="19.282" fill="#888" font-family="sans-serif" font-size="10" textLength="52">made by x</text><text x="272.5" y="45.636" font-family="sans-serif" font-size="14" font-weight="bold" textLength="70">所有权规则</text><rect width="66" height="40.297" x="10" y="130.234" fill="#E0FFFF" filter="url(#a)" rx="7.5" ry="7.5" style="stroke:#000;stroke-width:1"/><text x="22" y="155.23" font-family="sans-serif" font-size="14" textLength="42">所有权</text><rect width="364" height="40.297" x="126" y="69.938" fill="#E0FFFF" filter="url(#a)" rx="7.5" ry="7.5" style="stroke:#000;stroke-width:1"/><text x="138" y="94.933" font-family="sans-serif" font-size="14" textLength="340">每个值都有一个变量来负责它,该变量就是该值的所有者</text><path fill="none" d="M76 150.383h10c15 0 15-60.297 30-60.297h10" style="stroke:green;stroke-width:1;stroke-dasharray:5,5"/><rect width="206" height="40.297" x="126" y="130.234" fill="#E0FFFF" filter="url(#a)" rx="7.5" ry="7.5" style="stroke:#000;stroke-width:1"/><text x="138" y="155.23" font-family="sans-serif" font-size="14" textLength="182">每个值同时只能有一个所有者</text><path fill="none" d="M76 150.383h50" style="stroke:green;stroke-width:1;stroke-dasharray:5,5"/><rect width="336" height="40.297" x="126" y="190.531" fill="#E0FFFF" filter="url(#a)" rx="7.5" ry="7.5" style="stroke:#000;stroke-width:1"/><text x="138" y="215.526" font-family="sans-serif" font-size="14" textLength="312">当变量离开作用域时,变量的值占用的内存将被销毁</text><rect width="94" height="40.297" x="512" y="190.531" fill="gold" filter="url(#a)" rx="7.5" ry="7.5" style="stroke:#000;stroke-width:1"/><text x="524" y="215.526" font-family="sans-serif" font-size="14" textLength="70">内存回收了</text><path fill="none" d="M462 210.68h50" style="stroke:red;stroke-width:1;stroke-dasharray:5,5"/><path fill="none" d="M76 150.383h10c15 0 15 60.297 30 60.297h10" style="stroke:green;stroke-width:1;stroke-dasharray:5,5"/><text x="294" y="254.823" font-family="sans-serif" font-size="14" textLength="27">图 2</text></svg>