<svg xmlns="http://www.w3.org/2000/svg" width="528" height="781" preserveAspectRatio="none" style="width:528px;height:781px;background:#fff"><defs><filter id="a" width="300%" height="300%" x="-1" y="-1"><feGaussianBlur result="blurOut" stdDeviation="2"/><feColorMatrix in="blurOut" result="blurOut2" values="0 0 0 0 0 0 0 0 0 0 0 0 0 0 0 0 0 0 .4 0"/><feOffset dx="4" dy="4" in="blurOut2" result="blurOut3"/><feBlend in="SourceGraphic" in2="blurOut3"/></filter></defs><text x="489" y="19.282" fill="#888" font-family="sans-serif" font-size="10" textLength="19">rust</text><text x="231" y="45.636" font-family="sans-serif" font-size="14" font-weight="bold" textLength="56">模块系统</text><rect width="80" height="40.297" x="10" y="378.719" fill="#A8EB99" filter="url(#a)" rx="7.5" ry="7.5" style="stroke:#000;stroke-width:1"/><text x="22" y="403.714" font-family="sans-serif" font-size="14" textLength="56">模块系统</text><rect width="83" height="40.297" x="134" y="161.531" fill="gold" filter="url(#a)" rx="7.5" ry="7.5" style="stroke:#000;stroke-width:1"/><text x="146" y="186.526" font-family="sans-serif" font-size="14" textLength="59">package</text><rect width="151" height="66.594" x="261" y="66.938" fill="gold" filter="url(#a)" rx="7.5" ry="7.5" style="stroke:gray;stroke-width:1"/><text x="297" y="91.933" font-family="sans-serif" font-size="14" textLength="4"> </text><text x="301" y="91.933" font-family="sans-serif" font-size="14" textLength="75">Cargo.toml</text><path d="M261 100.234h151" style="stroke:gray;stroke-width:1;stroke-dasharray:1,2"/><text x="273" y="118.23" font-family="sans-serif" font-size="14" textLength="127">描述如何构建crates</text><path fill="none" d="M217 181.68h10c15 0 9-81.446 24-81.446h10" style="stroke:red;stroke-width:1;stroke-dasharray:5,5"/><rect width="206" height="40.297" x="261" y="147.531" fill="gold" filter="url(#a)" rx="7.5" ry="7.5" style="stroke:gray;stroke-width:1"/><text x="273" y="172.526" font-family="sans-serif" font-size="14" textLength="182">只能有0-1个library类型crate</text><path fill="none" d="M217 181.68h10c15 0 9-14 24-14h10" style="stroke:red;stroke-width:1;stroke-dasharray:5,5"/><rect width="240" height="40.297" x="261" y="201.828" fill="gold" filter="url(#a)" rx="7.5" ry="7.5" style="stroke:gray;stroke-width:1"/><text x="273" y="226.823" font-family="sans-serif" font-size="14" textLength="216">可以有任意数量的binary类型crate</text><path fill="none" d="M217 181.68h10c15 0 9 40.297 24 40.297h10" style="stroke:red;stroke-width:1;stroke-dasharray:5,5"/><rect width="157" height="40.297" x="261" y="256.125" fill="gold" filter="url(#a)" rx="7.5" ry="7.5" style="stroke:gray;stroke-width:1"/><text x="273" y="281.12" font-family="sans-serif" font-size="14" textLength="133">至少要包含一个crate</text><path fill="none" d="M217 181.68h10c15 0 9 94.593 24 94.593h10" style="stroke:red;stroke-width:1;stroke-dasharray:5,5"/><path fill="none" d="M90 398.867h10c15 0 9-217.187 24-217.187h10" style="stroke:green;stroke-width:1;stroke-dasharray:5,5"/><rect width="59" height="40.297" x="134" y="364.719" fill="#E0FFFF" filter="url(#a)" rx="7.5" ry="7.5" style="stroke:#000;stroke-width:1"/><text x="146" y="389.714" font-family="sans-serif" font-size="14" textLength="35">crate</text><rect width="52" height="40.297" x="237" y="337.57" fill="#E0FFFF" filter="url(#a)" rx="7.5" ry="7.5" style="stroke:#000;stroke-width:1"/><text x="249" y="362.565" font-family="sans-serif" font-size="14" textLength="28">类型</text><rect width="82" height="40.297" x="333" y="310.422" fill="#E0FFFF" filter="url(#a)" rx="7.5" ry="7.5" style="stroke:gray;stroke-width:1"/><text x="345" y="335.417" font-family="sans-serif" font-size="14" textLength="40">library</text><text x="385" y="335.417" font-family="sans-serif" font-size="14" textLength="4"> </text><text x="389" y="335.417" font-family="sans-serif" font-size="14" textLength="14">库</text><path fill="none" d="M289 357.719h10c15 0 9-27.149 24-27.149h10" style="stroke:green;stroke-width:1;stroke-dasharray:5,5"/><rect width="111" height="40.297" x="333" y="364.719" fill="#E0FFFF" filter="url(#a)" rx="7.5" ry="7.5" style="stroke:gray;stroke-width:1"/><text x="345" y="389.714" font-family="sans-serif" font-size="14" textLength="41">binary</text><text x="386" y="389.714" font-family="sans-serif" font-size="14" textLength="4"> </text><text x="390" y="389.714" font-family="sans-serif" font-size="14" textLength="42">可执行</text><path fill="none" d="M289 357.719h10c15 0 9 27.148 24 27.148h10" style="stroke:green;stroke-width:1;stroke-dasharray:5,5"/><path fill="none" d="M193 384.867h10c15 0 9-27.148 24-27.148h10" style="stroke:red;stroke-width:1;stroke-dasharray:5,5"/><rect width="91" height="40.297" x="237" y="419.016" fill="#E0FFFF" filter="url(#a)" rx="7.5" ry="7.5" style="stroke:gray;stroke-width:1"/><text x="249" y="444.011" font-family="sans-serif" font-size="14" textLength="35">crate</text><text x="284" y="444.011" font-family="sans-serif" font-size="14" textLength="4"> </text><text x="288" y="444.011" font-family="sans-serif" font-size="14" textLength="28">root</text><path fill="none" d="M193 384.867h10c15 0 9 54.297 24 54.297h10" style="stroke:red;stroke-width:1;stroke-dasharray:5,5"/><path fill="none" d="M90 398.867h10c15 0 9-14 24-14h10" style="stroke:green;stroke-width:1;stroke-dasharray:5,5"/><rect width="76" height="40.297" x="134" y="527.609" fill="#94C644" filter="url(#a)" rx="7.5" ry="7.5" style="stroke:#000;stroke-width:1"/><text x="146" y="552.605" font-family="sans-serif" font-size="14" textLength="52">module</text><rect width="171" height="40.297" x="254" y="473.313" fill="#94C644" filter="url(#a)" rx="7.5" ry="7.5" style="stroke:gray;stroke-width:1"/><text x="266" y="498.308" font-family="sans-serif" font-size="14" textLength="147">在一个crate内组织代码</text><path fill="none" d="M210 547.758h10c15 0 9-54.297 24-54.297h10" style="stroke:red;stroke-width:1;stroke-dasharray:5,5"/><rect width="154" height="40.297" x="254" y="527.609" fill="#94C644" filter="url(#a)" rx="7.5" ry="7.5" style="stroke:gray;stroke-width:1"/><text x="266" y="552.605" font-family="sans-serif" font-size="14" textLength="130">增加可读性,易于复用</text><path fill="none" d="M210 547.758h44" style="stroke:red;stroke-width:1;stroke-dasharray:5,5"/><rect width="255" height="40.297" x="254" y="581.906" fill="#94C644" filter="url(#a)" rx="7.5" ry="7.5" style="stroke:gray;stroke-width:1"/><text x="266" y="606.901" font-family="sans-serif" font-size="14" textLength="231">控制项目的私有性,public还是private</text><path fill="none" d="M210 547.758h10c15 0 9 54.297 24 54.297h10" style="stroke:red;stroke-width:1;stroke-dasharray:5,5"/><path fill="none" d="M90 398.867h10c15 0 9 148.89 24 148.89h10" style="stroke:green;stroke-width:1;stroke-dasharray:5,5"/><rect width="55" height="40.297" x="134" y="663.352" fill="#EAB8DE" filter="url(#a)" rx="7.5" ry="7.5" style="stroke:#000;stroke-width:1"/><text x="146" y="688.347" font-family="sans-serif" font-size="14" textLength="31">path</text><rect width="80" height="40.297" x="233" y="636.203" fill="#FBE972" filter="url(#a)" rx="7.5" ry="7.5" style="stroke:gray;stroke-width:1"/><text x="245" y="661.198" font-family="sans-serif" font-size="14" textLength="56">绝对路径</text><path fill="none" d="M189 683.5h10c15 0 9-27.148 24-27.148h10" style="stroke:red;stroke-width:1;stroke-dasharray:5,5"/><rect width="80" height="40.297" x="233" y="690.5" fill="#FBE972" filter="url(#a)" rx="7.5" ry="7.5" style="stroke:gray;stroke-width:1"/><text x="245" y="715.495" font-family="sans-serif" font-size="14" textLength="56">相对路径</text><path fill="none" d="M189 683.5h10c15 0 9 27.148 24 27.148h10" style="stroke:red;stroke-width:1;stroke-dasharray:5,5"/><path fill="none" d="M90 398.867h10c15 0 9 284.633 24 284.633h10" style="stroke:green;stroke-width:1;stroke-dasharray:5,5"/><text x="233" y="751.792" font-family="sans-serif" font-size="14" textLength="52">figure 1</text><text x="228.5" y="766.376" fill="#888" font-family="sans-serif" font-size="10" textLength="61">created by x</text></svg>