<svg xmlns="http://www.w3.org/2000/svg" width="997.489" height="973.839"><defs><style>@font-face{font-family:&quot;Virgil&quot;;src:url(https://unpkg.com/@excalidraw/excalidraw@undefined/dist/excalidraw-assets/Virgil.woff2)}@font-face{font-family:&quot;Cascadia&quot;;src:url(https://unpkg.com/@excalidraw/excalidraw@undefined/dist/excalidraw-assets/Cascadia.woff2)}@font-face{font-family:&quot;Assistant&quot;;src:url(https://unpkg.com/@excalidraw/excalidraw@undefined/dist/excalidraw-assets/Assistant-Regular.woff2)}</style></defs><path fill="#fff" d="M0 0h997.489v973.839H0z"/><path fill="none" stroke="#2b8a3e" stroke-linecap="round" d="M206.092 122.962c4.69-1.82 10.91-1.49 22.59 0m-22.59 0c6.96-.43 15.24-.32 22.59 0m0 0c-1.62 19.52-1.27 36.48 0 73.76m0-73.76c1.27 19.58.75 41.4 0 73.76m0 0c-6.12-.44-13.37 1.65-22.59 0m22.59 0c-6.77.6-12.89.7-22.59 0m0 0c1.86-25.42-.04-54.2 0-73.76m0 73.76c-.75-22.89.5-47.36 0-73.76M230.498 122.485c7.49-1.08 18.41.1 22.59 0m-22.59 0c7.21-.26 12.03.47 22.59 0m0 0c-2.24 26.34-1.12 51.69 0 73.76m0-73.76c.92 22.95.97 44.7 0 73.76m0 0c-3.63 1.75-11.57-1.02-22.59 0m22.59 0c-5.6 1.09-8.93-.53-22.59 0m0 0c-1.06-24.46-.08-46.03 0-73.76m0 73.76c1.12-23.02.77-46.89 0-73.76M255.312 123.627c5.33.06 9.55-.28 22.59 0m-22.59 0c5.1.45 11.83-.87 22.59 0m0 0c-.99 30.07-.42 59.38 0 73.76m0-73.76c.59 14.31-.36 30.59 0 73.76m0 0c-7.09-.78-14.63-1.28-22.59 0m22.59 0c-7.99-.5-17.01.87-22.59 0m0 0c.62-25.58.43-53.57 0-73.76m0 73.76c-.15-28.71-.45-55.35 0-73.76M279.668 122.552c4.94-.42 9.75 1.79 22.59 0m-22.59 0c6.37-1.03 12.82-.85 22.59 0m0 0c-.01 27.82-2.11 52.96 0 73.76m0-73.76c-.32 25.04.12 49.52 0 73.76m0 0c-10.57-1.6-15.97-1.79-22.59 0m22.59 0c-8.65.51-17.08-.44-22.59 0m0 0c.07-19.1 1.36-34.74 0-73.76m0 73.76c-.19-21.54-.56-44.15 0-73.76"/><path fill="none" stroke="#e67700" stroke-linecap="round" d="M200.396 85.787c43.74 2.1 88.64-.88 151 0m-151 0c51.75.66 102.23 1.22 151 0m0 0c-1.93 12.86.61 25.23 0 34m0-34c-.36 9 .69 15.85 0 34m0 0c-36.29-2.8-73.97.08-151 0m151 0c-34.03.73-69.73 1.22-151 0m0 0c1.48-9.9-.18-22.06 0-34m0 34c-.29-7.75.26-12.75 0-34"/><text x="20.05" fill="#e67700" dominant-baseline="text-before-edge" font-family="Assistant, Segoe UI Emoji" font-size="20.06" style="white-space:pre" text-anchor="middle" transform="translate(255.846 92.287)">小学</text><path fill="none" stroke="#2b8a3e" stroke-linecap="round" d="M303.739 120.705c9.52.98 15.68 1.96 22.59 0m-22.59 0c5.64.12 10.9-.93 22.59 0m0 0c-1.02 23.2 1.69 48.43 0 73.76m0-73.76c.17 27.95-.08 58.49 0 73.76m0 0c-6.3.48-8.43 1.27-22.59 0m22.59 0c-5.77.16-12.76.8-22.59 0m0 0c-1.94-27.58.2-56.11 0-73.76m0 73.76c.49-14.75.56-30.37 0-73.76M328.145 120.228c3.52 1.73 9.3 1 22.59 0m-22.59 0c7.12-.99 12.9.28 22.59 0m0 0c1.02 24.49 1.37 51.38 0 73.76m0-73.76c-1.1 20.48-1.2 40.26 0 73.76m0 0c-6.79 1.17-16.83-1.04-22.59 0m22.59 0c-7.72.78-13.71-.04-22.59 0m0 0c.88-25.68-1.13-49.77 0-73.76m0 73.76c.26-28.5-.49-56.95 0-73.76M381.842 121.777c6.19.89 15.04 1 22.59 0m-22.59 0c7.25.52 14.24-.4 22.59 0m0 0c2.37 19.58-.12 34.62 0 73.76m0-73.76c-1.38 16.46.06 30.4 0 73.76m0 0c-7.72-.95-13.91.86-22.59 0m22.59 0c-6.26.1-13.64-.82-22.59 0m0 0c-1.92-22.38 1.71-44.53 0-73.76m0 73.76c-.55-25.51 0-52.6 0-73.76M406.248 121.3c8.41 1.08 17.83 1.52 22.59 0m-22.59 0c4.93-.69 8.56.67 22.59 0m0 0c.01 20-1.11 40.47 0 73.76m0-73.76c-.01 27.34-.44 56.77 0 73.76m0 0c-7.64.61-15.89-1.08-22.59 0m22.59 0c-8.07-1.01-16.86.06-22.59 0m0 0c2.45-18.86 1.69-39 0-73.76m0 73.76c.56-24.02 0-45.2 0-73.76M431.062 122.441c8.16 1.51 14.08.47 22.59 0m-22.59 0c6.86.88 14.73 1.05 22.59 0m0 0c-2.02 27.21 1.36 55.71 0 73.76m0-73.76c.62 29.48 1.01 57.34 0 73.76m0 0c-5.33-.87-9.6 1.62-22.59 0m22.59 0c-6.5-.15-13.49-1.16-22.59 0m0 0c.35-22.76-.4-48.57 0-73.76m0 73.76c-.41-23.41-.14-48.39 0-73.76M455.418 121.366c6.19.42 16.87.54 22.59 0m-22.59 0c5.22.74 11.64-.5 22.59 0m0 0c.95 16.84 1.16 38.22 0 73.76m0-73.76c.7 16.62-.41 34 0 73.76m0 0c-6.08 1.43-15.34.72-22.59 0m22.59 0c-4.78-.92-8.76.9-22.59 0m0 0c-.12-27.28.22-53.52 0-73.76m0 73.76c.27-14.66.53-29.6 0-73.76"/><path fill="none" stroke="#e67700" stroke-linecap="round" d="M376.146 84.601c58.33.27 114.23-1.63 151 0m-151 0c57.3-1.71 112.32-2.27 151 0m0 0c2.09 8.88-1.14 15.69 0 34m0-34c-.35 12.68.56 25.07 0 34m0 0c-38.24 1.99-78.19 1.39-151 0m151 0c-46.12-.53-92.12-.91-151 0m0 0c.55-11.69-2.01-25.65 0-34m0 34c.44-13.07-.06-26.62 0-34"/><text x="20.05" fill="#e67700" dominant-baseline="text-before-edge" font-family="Assistant, Segoe UI Emoji" font-size="20.06" style="white-space:pre" text-anchor="middle" transform="translate(431.596 91.101)">初中</text><path fill="none" stroke="#2b8a3e" stroke-linecap="round" d="M479.489 119.52c9.07-.18 17.02 1.91 22.59 0m-22.59 0c5.28 1 11.22 1.11 22.59 0m0 0c.82 27.69-1.08 52.04 0 73.76m0-73.76c-.2 24.4 1.04 47.22 0 73.76m0 0c-7.56-.48-17.29.62-22.59 0m22.59 0c-7.99.24-17.5.41-22.59 0m0 0c2.49-25.82 1.14-51.69 0-73.76m0 73.76c-1.01-23.76-.47-46.97 0-73.76M503.895 119.042c7.27 1.82 10.24-.95 22.59 0m-22.59 0c3.93.72 10.13-.89 22.59 0m0 0c-.06 22.3.91 47.49 0 73.76m0-73.76c.42 22.88.07 44.91 0 73.76m0 0c-8.9.54-12.31 1.36-22.59 0m22.59 0c-7.87.32-15.23-.96-22.59 0m0 0c-.24-21.17-.38-44.4 0-73.76m0 73.76c.28-21.25 1.18-41.75 0-73.76M566.621 123.2c5.76-1.18 11.07-1.69 22.59 0m-22.59 0c9.19-.91 17.35.47 22.59 0m0 0c.21 27.04.02 51.66 0 73.76m0-73.76c.99 26.72.69 55.5 0 73.76m0 0c-4.45 1.48-11.42 1.62-22.59 0m22.59 0c-6.48-.92-14.1.95-22.59 0m0 0c.12-24.13-.59-50.37 0-73.76m0 73.76c.78-18.07.44-35.08 0-73.76M591.028 122.722c7.01-1.37 19.18-1.56 22.59 0m-22.59 0c9 .83 18.22-.12 22.59 0m0 0c.38 17.19 1.67 37.82 0 73.76m0-73.76c.42 21.68.06 42.29 0 73.76m0 0c-6.45 1.71-14.64.21-22.59 0m22.59 0c-7.42.66-14.6-.02-22.59 0m0 0c-.54-28.05-1.39-53.06 0-73.76m0 73.76c-.22-17.09-.93-33.33 0-73.76M615.842 123.864c7.28-1.51 13.15 1.37 22.59 0m-22.59 0c5.74-.43 9.81.05 22.59 0m0 0c1.6 26.36-.05 50.47 0 73.76m0-73.76c-.16 13.86.38 30.46 0 73.76m0 0c-8.12.23-16.16 1.33-22.59 0m22.59 0c-4.27.41-8.57.33-22.59 0m0 0c-1.13-23.3-1.31-43.93 0-73.76m0 73.76c-.68-16.73.46-34.41 0-73.76M640.197 122.789c6.91 1.39 8.78.53 22.59 0m-22.59 0c7.75.27 16.95.17 22.59 0m0 0c.42 19.44-1.43 37.45 0 73.76m0-73.76c.11 23.55.52 45.84 0 73.76m0 0c-7.94 1.16-19.03.04-22.59 0m22.59 0c-8.23.18-17.5-.17-22.59 0m0 0c-.99-13.99-.96-29.59 0-73.76m0 73.76c.98-20.09.41-39.26 0-73.76"/><path fill="none" stroke="#e67700" stroke-linecap="round" d="M560.925 86.024c31.24-.57 66.65.23 151 0m-151 0c41.42-.2 81.64.45 151 0m0 0c-2.01 13.04.12 25.13 0 34m0-34c.81 7.53.88 14.18 0 34m0 0c-47.68.9-89.65 1.43-151 0m151 0c-48.37-.02-97.8-.45-151 0m0 0c-1.19-8.47-.51-18.6 0-34m0 34c-.21-11.12-.95-21.11 0-34"/><text x="20.05" fill="#e67700" dominant-baseline="text-before-edge" font-family="Assistant, Segoe UI Emoji" font-size="20.06" style="white-space:pre" text-anchor="middle" transform="translate(616.375 92.524)">高中</text><path fill="none" stroke="#2b8a3e" stroke-linecap="round" d="M664.268 120.942c6.6-1.21 14.74.6 22.59 0m-22.59 0c7.8-.24 14.47-1.17 22.59 0m0 0c-1.81 23.56 1.82 47.35 0 73.76m0-73.76c.6 26.1 1.15 50.63 0 73.76m0 0c-6.4 1.14-13.35.14-22.59 0m22.59 0c-6.72-.88-12.11-.86-22.59 0m0 0c.48-21.9-1.22-46.03 0-73.76m0 73.76c.41-17.62.72-36.79 0-73.76"/><path fill="none" stroke="#2b8a3e" stroke-linecap="round" d="M688.675 120.465c8.47.85 16.34-.83 22.59 0m-22.59 0c8.9-.98 17.09.09 22.59 0m0 0c1.08 21.69.31 42.1 0 73.76m0-73.76c.6 22.05.04 46.96 0 73.76m0 0c-7.14.2-15.26-1.84-22.59 0m22.59 0c-4.85-.88-10.51-.54-22.59 0m0 0c-1.58-17.79-1.21-36.99 0-73.76m0 73.76c.27-22.91.37-44.75 0-73.76"/><text dominant-baseline="text-before-edge" font-family="Virgil, Segoe UI Emoji" font-size="20" style="white-space:pre" transform="translate(380.408 10)">图书馆初始书架</text><text dominant-baseline="text-before-edge" font-family="Virgil, Segoe UI Emoji" font-size="20" style="white-space:pre" transform="translate(10 229.495)">随着时间推移, </text><text y="28.333" dominant-baseline="text-before-edge" font-family="Virgil, Segoe UI Emoji" font-size="20" style="white-space:pre" transform="translate(10 229.495)">小学这个书架,</text><text y="56.667" dominant-baseline="text-before-edge" font-family="Virgil, Segoe UI Emoji" font-size="20" style="white-space:pre" transform="translate(10 229.495)">书满了</text><g stroke-linecap="round"><path fill="none" stroke="#1864ab" d="M226.408 223.923c-.28 20.78-2.6 104.51-3.2 125.67m2.23-126.76c-.35 20.8-2.37 106.1-2.91 127.67"/><path fill="#1864ab" fill-rule="evenodd" stroke-width="0" d="m221.508 351.553-6.35-16.69 15.25 4.18-7.88 9.84"/><path fill="none" stroke="#1864ab" d="M222.528 350.503c-1.73-2.8-4.63-6.72-6.01-13.75m6.01 13.75c-1.59-3.62-3.13-8.13-6.01-13.75m0 0c5.16.85 8.32.25 12.67.31m-12.67-.31c5.26.18 9.87.08 12.67.31m0 0c-2.53 3.38-3.86 5.58-6.66 13.44m6.66-13.44c-1.42 2.97-3.59 6.63-6.66 13.44m0 0q0 0 0 0m0 0q0 0 0 0"/></g><path fill="none" stroke="#2b8a3e" stroke-linecap="round" d="M79.388 453.485c6.53.13 17.18-.6 22.59 0m-22.59 0c5.38.3 10.12-.08 22.59 0m0 0c-1.75 22.36 1.99 45.22 0 73.76m0-73.76c.44 23.43-.58 46.65 0 73.76m0 0c-7.22.34-12.32-1.09-22.59 0m22.59 0c-7.03-.74-14.78-.18-22.59 0m0 0c-2.04-20.45-1.68-40.28 0-73.76m0 73.76c.32-16.3-.52-33.6 0-73.76M103.794 453.008c7.86-.53 13.56.57 22.59 0m-22.59 0c9.54.01 17.56.18 22.59 0m0 0c1.04 26.94-.31 53.84 0 73.76m0-73.76c-.95 22.47-.41 45.5 0 73.76m0 0c-8.57-1.17-15.42 1.11-22.59 0m22.59 0c-5.84-.14-10.32.2-22.59 0m0 0c-.77-21.62-.71-46.52 0-73.76m0 73.76c-.75-23.27-.93-48.54 0-73.76M128.608 454.15c5.17.65 15.83 1.47 22.59 0m-22.59 0c7.93.27 16.39-1.01 22.59 0m0 0c1.07 23.32.92 44.56 0 73.76m0-73.76c-1.16 19.78-.26 40.31 0 73.76m0 0c-6.83.95-15.58-.19-22.59 0m22.59 0c-5.65.33-10.83-.9-22.59 0m0 0c-.84-23.99.98-47.38 0-73.76m0 73.76c-.31-28.74.98-54.6 0-73.76M152.964 453.075c7.97 1.35 13.42 1.49 22.59 0m-22.59 0c7.63-1.05 14.13.82 22.59 0m0 0c.42 24.29-.28 46.46 0 73.76m0-73.76c.14 16.63-.2 34.33 0 73.76m0 0c-6.93.07-11.99-1.41-22.59 0m22.59 0c-6.58-.82-13.23-.64-22.59 0m0 0c.96-27.56 2.04-57.46 0-73.76m0 73.76c1.11-25.02.5-52.83 0-73.76"/><path fill="none" stroke="#e67700" stroke-linecap="round" d="M73.692 416.31c50.77.49 99.79-1.01 151 0m-151 0c49.76 2.37 99.76 1.69 151 0m0 0c-.39 10.07-1.25 23.17 0 34m0-34c.27 7.33-.44 15.51 0 34m0 0c-54.62-1.57-107-.36-151 0m151 0c-50.01-2.07-99.7-2.04-151 0m0 0c1.46-11.28.98-21.88 0-34m0 34c-.21-7.79.65-14.1 0-34"/><text x="20.05" fill="#e67700" dominant-baseline="text-before-edge" font-family="Assistant, Segoe UI Emoji" font-size="20.06" style="white-space:pre" text-anchor="middle" transform="translate(129.142 422.81)">小学</text><path fill="none" stroke="#2b8a3e" stroke-linecap="round" d="M177.035 451.228c9.12 1.15 15.1.02 22.59 0m-22.59 0c9.31.09 17.59-.27 22.59 0m0 0c-1.94 15.83-1.91 30.05 0 73.76m0-73.76c.11 18.59-.46 38.12 0 73.76m0 0c-4.39.28-11.89.48-22.59 0m22.59 0c-5.14.07-9.98.61-22.59 0m0 0c-2.28-17.16 1.59-36.76 0-73.76m0 73.76c-.49-16.53-1.34-31.54 0-73.76M201.441 450.75c4.87-.1 15.44.43 22.59 0m-22.59 0c7.28-.25 13.51-.68 22.59 0m0 0c-1.97 19.12-1.29 36.58 0 73.76m0-73.76c.38 22.32-.36 45.75 0 73.76m0 0c-8.21.55-14.28 1.69-22.59 0m22.59 0c-4.89.82-10.96.58-22.59 0m0 0c2.68-17.11-.91-32.5 0-73.76m0 73.76c-.81-20.28-1.02-41.87 0-73.76M240.574 454.422c9.85.56 16.57 1.07 22.59 0m-22.59 0c6.1-.6 13.72-.68 22.59 0m0 0c-1.28 24.32-.32 52.11 0 73.76m0-73.76c-.78 16.58-.17 33.52 0 73.76m0 0c-8.56 1.71-15.63.09-22.59 0m22.59 0c-7.79.7-15.26-.77-22.59 0m0 0c-2.34-24.9-1.01-52.93 0-73.76m0 73.76c-.39-19.23 1.05-38.12 0-73.76M264.98 453.944c7.22 1.01 13.89.02 22.59 0m-22.59 0c5.84-.59 13.03-.57 22.59 0m0 0c-.07 24.07-1.77 45.91 0 73.76m0-73.76c-.72 18.27-.4 34.99 0 73.76m0 0c-8.73.22-14.26.85-22.59 0m22.59 0c-9.19-.83-16.42 1.11-22.59 0m0 0c.31-21.83-.1-45.65 0-73.76m0 73.76c1.21-27.17.4-55.75 0-73.76M289.794 455.086c7.68-.04 14.39-2.08 22.59 0m-22.59 0c5.77-.55 10.75-.21 22.59 0m0 0c-1.42 17.68-1.05 33.93 0 73.76m0-73.76c.04 21.12.14 43.32 0 73.76m0 0c-8.19.67-15.75-1.01-22.59 0m22.59 0c-7.36.78-15.93-1.02-22.59 0m0 0c-.6-29.86 1.74-58.72 0-73.76m0 73.76c-.66-23.96.36-48.13 0-73.76M314.15 454.011c7.55-1.97 14.69-.89 22.59 0m-22.59 0c5.24-.22 9.64.26 22.59 0m0 0c-1.68 24.59-.58 51.94 0 73.76m0-73.76c.38 23.84.94 48.42 0 73.76m0 0c-5.28-.94-12.58-1.29-22.59 0m22.59 0c-4.64-.58-8.42.08-22.59 0m0 0c1.89-25.01.9-45.31 0-73.76m0 73.76c.95-28.44.73-59.58 0-73.76"/><path fill="none" stroke="#e67700" stroke-linecap="round" d="M234.878 417.246c44.61.6 90.34 2.4 151 0m-151 0c33.86.67 69.45-.18 151 0m0 0c-.22 9.79.46 20.52 0 34m0-34c.91 6.46.1 14.52 0 34m0 0c-49.25-2.13-102.5.45-151 0m151 0c-59.4-1.36-120.36-1.57-151 0m0 0c.37-6.73 1.68-16.13 0-34m0 34c.27-12.97-.56-23.56 0-34"/><text x="20.05" fill="#e67700" dominant-baseline="text-before-edge" font-family="Assistant, Segoe UI Emoji" font-size="20.06" style="white-space:pre" text-anchor="middle" transform="translate(290.328 423.746)">小学</text><path fill="none" stroke="#2b8a3e" stroke-linecap="round" d="M338.22 452.165c4.35.13 10.82-1.3 22.59 0m-22.59 0c6.98-.4 13.25.15 22.59 0m0 0c-1.55 21.48-1.19 43.59 0 73.76m0-73.76c.35 17.83-.49 34.65 0 73.76m0 0c-3.26.14-12.09 1.85-22.59 0m22.59 0c-7.16.74-13.83.24-22.59 0m0 0c.38-24.55 1.08-51.06 0-73.76m0 73.76c-.27-15.32.89-31.59 0-73.76M362.627 451.687c7.06-1.22 15.84 1.06 22.59 0m-22.59 0c4.32.11 10.01.46 22.59 0m0 0c-2.09 24.93-2.03 46.59 0 73.76m0-73.76c-.26 24.32-.43 46.65 0 73.76m0 0c-9.76 1.71-16.58.29-22.59 0m22.59 0c-6.9.51-11.44 1.16-22.59 0m0 0c1.39-19.08-2.2-40.87 0-73.76m0 73.76c1.03-26.94.61-53.27 0-73.76"/><text fill="#1864ab" dominant-baseline="text-before-edge" font-family="Virgil, Segoe UI Emoji" font-size="20" style="white-space:pre" transform="translate(109.26 364.374)">你就再买一个书架放小学的书</text><g stroke-linecap="round"><path fill="none" stroke="#c92a2a" d="M423.86 364.297c16.63.1 82.16 1.24 98.41 1.62m-99.53.52c16.53.24 81.72.42 98.57.66"/><path fill="#c92a2a" fill-rule="evenodd" stroke-width="0" d="m520.74 366.337-14.72 7.78 2.18-11.49 13.81 5.5"/><path fill="none" stroke="#c92a2a" d="M521.31 367.097c-4.4 1.53-7.41 1.92-13.65 6.23m13.65-6.23c-3.97 1.23-7.96 3.23-13.65 6.23m0 0c.42-4.43 1.14-10.35.1-12.68m-.1 12.68c.51-3.84.16-9.45.1-12.68m0 0c4.69 1.41 11.67 3.59 13.55 6.45m-13.55-6.45c4.34 2.42 9.61 4.83 13.55 6.45m0 0q0 0 0 0m0 0q0 0 0 0"/></g><g stroke-linecap="round"><path fill="none" stroke="#c92a2a" d="M425.694 389.988c16.09.15 80.91.48 97.24.66m-98.72 1.6c16.41.43 84.52.48 100.95-.07"/><path fill="#c92a2a" fill-rule="evenodd" stroke-width="0" d="m523.524 392.968-11.44 7.71.1-13.63 12.14 4.42"/><path fill="none" stroke="#c92a2a" d="M525.164 392.178c-5.69 1.16-9.65 4.38-13.51 6.52m13.51-6.52c-4.3 1.51-8.37 3.7-13.51 6.52m0 0c.89-4.47.53-8.52-.17-12.68m.17 12.68c-.12-3.12.39-5.3-.17-12.68m0 0c5.5.66 9.06 4.77 13.68 6.16m-13.68-6.16c5.99 3.05 11.26 4.15 13.68 6.16m0 0q0 0 0 0m0 0q0 0 0 0"/></g><text fill="#c92a2a" dominant-baseline="text-before-edge" font-family="Virgil, Segoe UI Emoji" font-size="20" style="white-space:pre" transform="translate(558.013 348.098)">时间继续, 书架都满了, </text><text y="28.5" fill="#c92a2a" dominant-baseline="text-before-edge" font-family="Virgil, Segoe UI Emoji" font-size="20" style="white-space:pre" transform="translate(558.013 348.098)">你给小学 初中 高中 都买了好几个书架</text><g stroke-linecap="round"><path fill="none" stroke="#1864ab" d="M605.771 440.432c.86 18.24 3.69 90.8 4.45 109m-6.01-109.83c.8 18.34 4.24 92.32 5.16 110.81"/><path fill="#1864ab" fill-rule="evenodd" stroke-width="0" d="m610.071 551.432-8.52-15.01 12-.31-2.32 14.7"/><path fill="none" stroke="#1864ab" d="M609.371 550.412c-1.07-2.75-4.47-5.57-6.98-13.28m6.98 13.28c-1.69-2.91-3.05-5.54-6.98-13.28m0 0c1.95.71 7.56-.22 12.66-.61m-12.66.61c2.86-.34 5.1.27 12.66-.61m0 0c.32 2.53-1.5 6.96-5.68 13.89m5.68-13.89c-2.37 5.8-4.73 10.93-5.68 13.89m0 0q0 0 0 0m0 0q0 0 0 0"/></g><text fill="#1864ab" dominant-baseline="text-before-edge" font-family="Virgil, Segoe UI Emoji" font-size="20" style="white-space:pre" transform="translate(628.029 464.048)">一小学生来找小学的书, 愣是找了10分钟,</text><text y="28.5" fill="#1864ab" dominant-baseline="text-before-edge" font-family="Virgil, Segoe UI Emoji" font-size="20" style="white-space:pre" transform="translate(628.029 464.048)">还没找到,当然也找完</text><path fill="none" stroke="#1864ab" stroke-linecap="round" d="M533.918 552.763c121.1.39 243.07-.56 386.43 0m-386.43 0c124.37-1.44 248.93-2.31 386.43 0m0 0c9.57 1.98 12.54 2.57 12.54 12.54m-12.54-12.54c10.33-.32 12.87 3.38 12.54 12.54m0 0c.85 6.82 2.16 10.97 0 25.09m0-25.09c.72 8.01-.11 18.39 0 25.09m0 0c-.99 8.76-2.84 11.42-12.54 12.55m12.54-12.55c.57 7.17-2.96 13.35-12.54 12.55m0 0c-112.66-1.61-223.96-.39-386.43 0m386.43 0c-154.5.96-308.94 1.05-386.43 0m0 0c-6.5.4-13.98-6.04-12.54-12.55m12.54 12.55c-6.2 1.64-13.93-2.74-12.54-12.55m0 0c.16-8.21-2.15-15.23 0-25.09m0 25.09c-.5-10.39.06-19.5 0-25.09m0 0c1.21-9.63 4.26-14.19 12.54-12.54m-12.54 12.54c.55-6.72 3.65-14.63 12.54-12.54"/><text fill="#1864ab" dominant-baseline="text-before-edge" font-family="Virgil, Segoe UI Emoji" font-size="20" style="white-space:pre" transform="translate(573.54 564.207)">怒喷管理员,&quot;你他妈的就不会分类多点?&quot;</text><g stroke-linecap="round"><path fill="none" stroke="#c92a2a" d="M607.606 618.529c.12 11.81 1.55 58.16 1.66 69.73m-3.11-70.63c-.09 11.55 2.2 57.61 2.37 69"/><path fill="#c92a2a" fill-rule="evenodd" stroke-width="0" d="m607.086 684.769-3.48-10.09 9.58-.6-4.96 13.89"/><path fill="none" stroke="#c92a2a" d="M608.526 686.629c-2.17-4.62-3.96-11-6.8-13.38m6.8 13.38c-1.85-4.04-4.71-10.1-6.8-13.38m0 0c4.44-1.08 10.81-1.5 12.67-.43m-12.67.43c4.04.09 8.9.16 12.67-.43m0 0c-1.33 4.11-3.97 10.73-5.87 13.81m5.87-13.81c-1 3.6-2.9 6.72-5.87 13.81m0 0q0 0 0 0m0 0q0 0 0 0"/></g><text fill="#c92a2a" dominant-baseline="text-before-edge" font-family="Virgil, Segoe UI Emoji" font-size="20" style="white-space:pre" transform="translate(571.54 695.207)">你丢人啊</text><g stroke-linecap="round"><path fill="none" stroke="#c92a2a" d="M610.479 731.913c.36 7.91 2.09 39.47 2.65 47.57m-1.79-47.9c.52 7.92 2.44 40.31 2.83 48.34"/><path fill="#c92a2a" fill-rule="evenodd" stroke-width="0" d="m613.559 780.543-6.61-13.18 12.92-1.2-6.23 12.77"/><path fill="none" stroke="#c92a2a" d="M614.169 779.923c-2.01-4.94-5.47-8.38-7.07-13.23m7.07 13.23c-2.5-5.36-5.59-10.72-7.07-13.23m0 0c3.1.23 6.42-.43 12.66-.69m-12.66.69c4.66-.59 8.89-.37 12.66-.69m0 0c-1.81 3.69-3.18 7.39-5.59 13.92m5.59-13.92c-1.99 4.51-4.06 9.47-5.59 13.92m0 0q0 0 0 0m0 0q0 0 0 0"/></g><path fill="none" stroke="#2b8a3e" stroke-linecap="round" d="M209.732 820.007c3.74 1.37 13.24.15 22.59 0m-22.59 0c5.1-.32 9.21.85 22.59 0m0 0c2.2 14.86 1.34 32.31 0 73.76m0-73.76c.09 29.34-.1 57.72 0 73.76m0 0c-9.33 1.12-15.88-.14-22.59 0m22.59 0c-7.67.31-13.5.91-22.59 0m0 0c-1.09-26.22-.79-47.58 0-73.76m0 73.76c1.47-22.9-.07-46.59 0-73.76"/><path fill="none" stroke="#2b8a3e" stroke-linecap="round" d="M234.139 819.53c7.22-.14 8.87 1.58 22.59 0m-22.59 0c5.75.9 12.01.4 22.59 0m0 0c1.82 27.56 2.52 53.17 0 73.76m0-73.76c-.71 15.71.45 30.46 0 73.76m0 0c-6.64-.07-14.61-.44-22.59 0m22.59 0c-5.7 1.08-11.48.6-22.59 0m0 0c-.15-17.18.66-39.53 0-73.76m0 73.76c-1.3-14.67-.84-29.93 0-73.76"/><path fill="none" stroke="#2b8a3e" stroke-linecap="round" d="M258.953 820.672c6.54 1.71 16.02.29 22.59 0m-22.59 0c5.08.14 12.51.79 22.59 0m0 0c2.21 21.19-1.38 39.66 0 73.76m0-73.76c.31 25.81-.11 52.22 0 73.76m0 0c-7.91-.58-16.72-1.66-22.59 0m22.59 0c-7.31.74-15.75-.13-22.59 0m0 0c.55-18.05-1.7-31.35 0-73.76m0 73.76c.3-26.71.56-54.59 0-73.76M283.308 819.597c6.5.09 12.85-1.61 22.59 0m-22.59 0c9.16.9 16.97.48 22.59 0m0 0c-1.13 27.08 1.82 54.39 0 73.76m0-73.76c.75 23.05 1.03 47.5 0 73.76m0 0c-7.32-1.7-12.33.37-22.59 0m22.59 0c-9.43-.24-18.78-.09-22.59 0m0 0c-2-27.11 1.28-59.18 0-73.76m0 73.76c.23-26.59-.42-54.49 0-73.76"/><path fill="none" stroke="#e67700" stroke-linecap="round" d="M202.646 784.902c59.47-1.64 121.97-2.05 156 0m-156 0c51.58-.98 104.44-.63 156 0m0 0c.87 9.95.11 23.21 0 31m0-31c.61 7.9-.02 15.14 0 31m0 0c-41.62-.84-82.83-.58-156 0m156 0c-55.55-.76-108.68-.35-156 0m0 0c1.71-8.28 1.54-14.43 0-31m0 31c-.57-12.37-.5-21.93 0-31"/><text x="70.175" fill="#e67700" dominant-baseline="text-before-edge" font-family="Assistant, Segoe UI Emoji" font-size="20.06" style="white-space:pre" text-anchor="middle" transform="translate(210.471 789.902)">小学一年级语文</text><path fill="none" stroke="#2b8a3e" stroke-linecap="round" d="M307.38 817.75c5.83 1.27 12.32-.34 22.59 0m-22.59 0c8.55-1.1 15.74.37 22.59 0m0 0c-.98 18.98-.9 38.04 0 73.76m0-73.76c-.35 24.32-.89 49.79 0 73.76m0 0c-6.24-.76-15.24-1.42-22.59 0m22.59 0c-7.03-.88-11.68.76-22.59 0m0 0c.88-17.42-.13-36.37 0-73.76m0 73.76c-.5-14.73-.36-30.44 0-73.76M331.786 817.273c6.67-.66 10.53 1.39 22.59 0m-22.59 0c8.51.78 17.13.4 22.59 0m0 0c-1.46 28.13.28 53.93 0 73.76m0-73.76c-1.02 22.78.01 45.77 0 73.76m0 0c-8.28-1.59-15.55 1.77-22.59 0m22.59 0c-6.29.5-15.07.42-22.59 0m0 0c-.17-22.09-2.47-42.99 0-73.76m0 73.76c-.09-29.06.47-56.84 0-73.76M370.918 820.944c9.08 1.57 17.76 1.12 22.59 0m-22.59 0c4.26.07 10.17-.69 22.59 0m0 0c.32 23.77-.31 47.37 0 73.76m0-73.76c-.38 20.31-.25 39.15 0 73.76m0 0c-6.24 1.69-11.26-1.61-22.59 0m22.59 0c-5.29.79-9.52.83-22.59 0m0 0c-2.1-23.92 1.55-47.66 0-73.76m0 73.76c.37-23.11 1.13-46.34 0-73.76M395.324 820.466c7.97.89 10.54-.77 22.59 0m-22.59 0c8.75-.61 16.41-.57 22.59 0m0 0c.33 25.49-.5 50.48 0 73.76m0-73.76c.52 25.54-.25 49.7 0 73.76m0 0c-4.68-1.23-12.02 2.09-22.59 0m22.59 0c-8.53.81-16.65.31-22.59 0m0 0c2.4-19.9.93-37.85 0-73.76m0 73.76c.71-17.07.15-33.69 0-73.76M420.139 821.608c6.69-.72 18.11-1.11 22.59 0m-22.59 0c7.47-.39 14.98.48 22.59 0m0 0c-.73 19.78.82 43.27 0 73.76m0-73.76c-.15 29.09-.48 58.68 0 73.76m0 0c-10.73 1.72-16.33-1.38-22.59 0m22.59 0c-8.07.32-16.91-.84-22.59 0m0 0c-.42-20.11-2.16-37.69 0-73.76m0 73.76c-.41-21.03-.21-39.7 0-73.76M444.494 820.533c9.12-.92 16.33 1.41 22.59 0m-22.59 0c6.04.47 10.91.15 22.59 0m0 0c.51 20.48 1.71 40.8 0 73.76m0-73.76c-1.05 25.71.63 52.03 0 73.76m0 0c-3.72-1-9.04-.09-22.59 0m22.59 0c-8.82-.95-17.05.87-22.59 0m0 0c-1.62-16.23-.59-30.67 0-73.76m0 73.76c.21-16.74-.26-35.8 0-73.76"/><path fill="none" stroke="#e67700" stroke-linecap="round" d="M365.222 783.768c41.94 2.1 81.97 1.26 154 0m-154 0c38.06-.5 76.04-.92 154 0m0 0c2.12 8.12 1.16 13.99 0 34m0-34c.68 9.2-.97 17.07 0 34m0 0c-59.41-1.23-119.98-.7-154 0m154 0c-49.19-.69-98.29-1.42-154 0m0 0c-.26-6.59-1.01-15.52 0-34m0 34c-.31-8.31.45-14.64 0-34"/><text x="70.175" fill="#e67700" dominant-baseline="text-before-edge" font-family="Assistant, Segoe UI Emoji" font-size="20.06" style="white-space:pre" text-anchor="middle" transform="translate(372.047 790.268)">小学一年级数学</text><path fill="none" stroke="#2b8a3e" stroke-linecap="round" d="M468.565 818.687c7.25 1.01 17.28-.25 22.59 0m-22.59 0c6.04.48 13.93 1.08 22.59 0m0 0c-.33 23.23-.03 51.3 0 73.76m0-73.76c.41 24.32-1.13 47.85 0 73.76m0 0c-6.11-1.03-14.86-.9-22.59 0m22.59 0c-9.37-.75-17.47-.24-22.59 0m0 0c-1.18-26.11 1.89-53.64 0-73.76m0 73.76c.27-15.83-1.01-30.81 0-73.76M492.971 818.21c8.04-.31 14.75-.68 22.59 0m-22.59 0c6.13.9 12.19.42 22.59 0m0 0c-.67 20.9.14 36.65 0 73.76m0-73.76c.09 15.93.55 31.27 0 73.76m0 0c-9.02-1.05-12.41-1.8-22.59 0m22.59 0c-7.14-.44-13.39-.81-22.59 0m0 0c2.03-22.87-1.21-43.76 0-73.76m0 73.76c-1.1-23.27-.59-46.39 0-73.76M700.409 826.336c8.05-.54 15.2-1.62 22.59 0m-22.59 0c8.02.29 14.92-.58 22.59 0m0 0c.25 15.17-2 35.1 0 73.76m0-73.76c-.59 28.05-.33 54.92 0 73.76m0 0c-3.91-1.78-10.96-1.52-22.59 0m22.59 0c-4.42-.69-10.02-.88-22.59 0m0 0c-2.34-22.83-.2-46.47 0-73.76m0 73.76c.35-18.94.71-38.23 0-73.76M724.815 825.858c5.8-1.58 13.91.5 22.59 0m-22.59 0c8.6-.47 17.29-.32 22.59 0m0 0c-1.7 30.86 1.58 56.76 0 73.76m0-73.76c.01 26.91-.64 52.51 0 73.76m0 0c-5.53-1.6-13-.48-22.59 0m22.59 0c-6.15-.97-12.13.57-22.59 0m0 0c1-19.1-.12-42.09 0-73.76m0 73.76c.33-22.39.29-45.05 0-73.76M749.629 827c6.93.62 14.27.89 22.59 0m-22.59 0c7.19-.13 16.8.28 22.59 0m0 0c.74 15.6.57 33.33 0 73.76m0-73.76c-.44 26.09-.37 55 0 73.76m0 0c-6.42-.45-10.28 1.05-22.59 0m22.59 0c-5.1.52-10.92-1.09-22.59 0m0 0c-.91-27.3 0-52.34 0-73.76m0 73.76c.03-24.01-.03-48.45 0-73.76M773.985 825.925c6.91.65 10.88-.89 22.59 0m-22.59 0c6.91.25 11.24-.88 22.59 0m0 0c1.78 28.76 1.87 58.34 0 73.76m0-73.76c-.85 24.17-1.23 46.77 0 73.76m0 0c-5.7 1.18-11.63.04-22.59 0m22.59 0c-5.15-.75-9.3.32-22.59 0m0 0c.41-27.23.82-53.54 0-73.76m0 73.76c0-23.68-.24-47.35 0-73.76"/><path fill="none" stroke="#e67700" stroke-linecap="round" d="M694.712 789.16c50.57-1.38 98.37-2.04 154 0m-154 0c42.31-1.24 87.01.4 154 0m0 0c1.56 8.37.54 15.22 0 34m0-34c-1 6.94-.86 12.9 0 34m0 0c-45.21 1.01-89.53 1.41-154 0m154 0c-56.61-1.23-113.63-1.79-154 0m0 0c.51-7.6.33-15.79 0-34m0 34c-.13-10.99-.37-21.55 0-34"/><text x="40.1" fill="#e67700" dominant-baseline="text-before-edge" font-family="Assistant, Segoe UI Emoji" font-size="20.06" style="white-space:pre" text-anchor="middle" transform="translate(731.612 795.66)">大一英语</text><path fill="none" stroke="#2b8a3e" stroke-linecap="round" d="M798.056 824.079c5.42 2.03 12.07-1.27 22.59 0m-22.59 0c4.08.47 9.22.51 22.59 0m0 0c-1.85 22.06 1.8 44.31 0 73.76m0-73.76c-.66 22.59.09 45.07 0 73.76m0 0c-5.44-.41-15.54 1.12-22.59 0m22.59 0c-7.76-.03-14.39.18-22.59 0m0 0c.02-23.67-.69-48.14 0-73.76m0 73.76c1.11-17.81 1.22-37.05 0-73.76M822.462 823.601c5.49-1.65 8.33 1.67 22.59 0m-22.59 0c8.24.53 16.89.02 22.59 0m0 0c.94 16.54-.53 35.02 0 73.76m0-73.76c.5 15.8-.07 32.04 0 73.76m0 0c-9.13 1.02-14.31 1.28-22.59 0m22.59 0c-5.98.28-11.51.19-22.59 0m0 0c-.62-23.88-1.15-48.07 0-73.76m0 73.76c.34-18.13-.13-34.67 0-73.76"/><text fill="#c92a2a" dominant-baseline="text-before-edge" font-family="Virgil, Segoe UI Emoji" font-size="20" style="white-space:pre" transform="translate(562.717 794.583)">. . . . . . </text><text fill="#c92a2a" dominant-baseline="text-before-edge" font-family="Virgil, Segoe UI Emoji" font-size="20" style="white-space:pre" transform="translate(540.77 935.839)">这下应该快了吧!!!</text></svg>