<svg xmlns="http://www.w3.org/2000/svg" width="176.495" height="177.798"><defs><style>@font-face{font-family:&quot;Virgil&quot;;src:url(https://unpkg.com/@excalidraw/excalidraw@undefined/dist/excalidraw-assets/Virgil.woff2)}@font-face{font-family:&quot;Cascadia&quot;;src:url(https://unpkg.com/@excalidraw/excalidraw@undefined/dist/excalidraw-assets/Cascadia.woff2)}@font-face{font-family:&quot;Assistant&quot;;src:url(https://unpkg.com/@excalidraw/excalidraw@undefined/dist/excalidraw-assets/Assistant-Regular.woff2)}</style></defs><path fill="#fff" d="M0 0h176.495v177.798H0z"/><g stroke-linecap="round"><path fill="none" stroke="#fab005" stroke-width=".5" d="M10 46.558q0 0 0 0m0 0q0 0 0 0m-.26 6.4 5.25-6.04m-5.25 6.04c1.73-2 3.47-4 5.25-6.04m-4.86 11.68c3.03-3.48 6.06-6.96 10.5-12.07m-10.5 12.07c3.55-4.08 7.1-8.17 10.5-12.07M9.87 64.998c5.56-6.4 11.13-12.8 15.75-18.11M9.87 64.998l15.75-18.11m-15.35 23.75 20.99-24.15m-20.99 24.15c6.17-7.1 12.34-14.2 20.99-24.15M10 77.038c7.67-8.82 15.34-17.65 26.25-30.19M10 77.038c7.31-8.41 14.62-16.82 26.25-30.19M9.74 83.438c10.69-12.3 21.38-24.6 32.15-36.98M9.74 83.438l32.15-36.98m-31.75 42.62c8.41-9.67 16.81-19.34 36.74-42.26m-36.74 42.26c12.12-13.95 24.24-27.89 36.74-42.26m-37 48.66c11.88-13.67 23.76-27.33 42.64-49.06M9.88 95.478c10.98-12.63 21.96-25.27 42.64-49.06m-42.25 54.7c13.49-15.51 26.97-31.02 47.24-54.34m-47.24 54.34c13.73-15.79 27.46-31.58 47.24-54.34m-47.5 60.74 53.14-61.13m-53.14 61.13c11.34-13.04 22.67-26.08 53.14-61.13M15 107.878c15.21-17.5 30.42-35 53.14-61.13M15 107.878l53.14-61.13m-48.16 61.49c11.97-13.77 23.94-27.53 53.8-61.89m-53.8 61.89c15.58-17.92 31.16-35.84 53.8-61.89m-48.15 61.49c13.64-15.69 27.28-31.38 53.14-61.13m-53.14 61.13c18.75-21.56 37.5-43.13 53.14-61.13m-48.16 61.49c15.95-18.34 31.9-36.69 53.8-61.88m-53.8 61.88c19.85-22.82 39.69-45.65 53.8-61.88m-48.81 62.24c17.44-20.05 34.87-40.11 53.8-61.88m-53.8 61.88c21.23-24.41 42.45-48.83 53.8-61.88m-48.16 61.49c14.82-17.04 29.63-34.08 53.8-61.89m-53.8 61.89c19.22-22.1 38.43-44.2 53.8-61.89m-48.81 62.25c11.68-13.44 23.36-26.87 53.8-61.89m-53.8 61.89c12.15-13.98 24.3-27.95 53.8-61.89m-48.16 61.5c12.16-13.99 24.32-27.98 53.8-61.89m-53.8 61.89c15.28-17.58 30.55-35.15 53.8-61.89m-48.81 62.25c19.69-22.66 39.39-45.31 53.8-61.89m-53.8 61.89c16.16-18.6 32.33-37.19 53.8-61.89m-48.16 61.49c19.75-22.72 39.5-45.43 53.8-61.88m-53.8 61.88c10.88-12.51 21.76-25.02 53.8-61.88m-48.81 62.24c10.91-12.55 21.82-25.1 53.8-61.88m-53.8 61.88c13.21-15.19 26.41-30.38 53.8-61.88m-48.16 61.49c19.6-22.54 39.19-45.09 53.14-61.13m-53.14 61.13c15.32-17.62 30.63-35.23 53.14-61.13m-48.15 61.49c14.03-16.14 28.05-32.27 53.8-61.89m-53.8 61.89c19.45-22.37 38.89-44.74 53.8-61.89m-48.16 61.49c13.43-15.44 26.85-30.89 53.15-61.13m-53.15 61.13c18.16-20.89 36.32-41.77 53.15-61.13m-48.16 61.49 53.8-61.88m-53.8 61.88c17.35-19.95 34.69-39.9 53.8-61.88m-48.16 61.49c15.52-17.86 31.04-35.71 53.15-61.13m-53.15 61.13c15.2-17.49 30.4-34.97 53.15-61.13m-48.16 61.49c15.16-17.44 30.31-34.87 53.8-61.89m-53.8 61.89c14.84-17.07 29.67-34.13 53.8-61.89m-48.16 61.49c16.58-19.06 33.15-38.12 53.15-61.13m-53.15 61.13c14.23-16.36 28.46-32.73 53.15-61.13m-48.16 61.49c17.19-19.76 34.37-39.53 53.8-61.88m-53.8 61.88c18.42-21.19 36.84-42.38 53.8-61.88m-48.16 61.49c19.62-22.57 39.24-45.14 50.52-58.11m-50.52 58.11c18.03-20.74 36.06-41.48 50.52-58.11m-45.53 58.47c14.83-17.06 29.67-34.13 45.27-52.08m-45.27 52.08c14.33-16.49 28.67-32.98 45.27-52.08m-39.63 51.68c13.99-16.09 27.98-32.18 40.02-46.03m-40.02 46.03c9.9-11.37 19.79-22.75 40.02-46.03m-35.03 46.39c8.61-9.9 17.23-19.81 34.77-40m-34.77 40c12.73-14.64 25.47-29.29 34.77-40m-29.13 39.61c8.12-9.34 16.24-18.68 29.53-33.96m-29.53 33.96c10.5-12.07 20.99-24.14 29.53-33.96m-24.54 34.32c7.82-9 15.65-18 24.28-27.92m-24.28 27.92c8.07-9.28 16.13-18.56 24.28-27.92m-19.29 28.28c7.53-8.66 15.06-17.32 19.02-21.89m-19.02 21.89c6.13-7.05 12.25-14.1 19.02-21.89m-13.38 21.5c5.45-6.28 10.91-12.55 13.78-15.85m-13.78 15.85c3.16-3.64 6.33-7.28 13.78-15.85m-8.79 16.21c3.36-3.87 6.73-7.74 8.53-9.82m-8.53 9.82c2.65-3.06 5.3-6.11 8.53-9.82m-2.89 9.42c.7-.81 1.41-1.61 3.28-3.77m-3.28 3.77c1.14-1.3 2.27-2.61 3.28-3.77"/><path fill="none" stroke="#000" d="M10 46.558h156m-156 0h156m0 0v61m0-61v61m0 0H10m156 0H10m0 0v-61m0 61v-61"/></g><text x="41.113" dominant-baseline="text-before-edge" font-family="Helvetica, Segoe UI Emoji" font-size="20" style="white-space:pre" text-anchor="middle" transform="translate(46.887 65.558)">RDB格式</text><g stroke-linecap="round"><path fill="none" stroke="#fab005" stroke-width=".5" d="M10.495 106.798q0 0 0 0m0 0q0 0 0 0m-.26 6.4c1.07-1.24 2.14-2.47 5.25-6.04m-5.25 6.04c1.75-2.01 3.5-4.03 5.25-6.04m-4.86 11.68c2.4-2.75 4.79-5.51 10.5-12.07m-10.5 12.07c3.03-3.48 6.06-6.97 10.5-12.07m-10.76 18.47 15.75-18.11m-15.75 18.11c4.79-5.51 9.58-11.02 15.75-18.11m-15.35 23.75c6.42-7.39 12.85-14.78 20.99-24.15m-20.99 24.15c7.96-9.16 15.92-18.31 20.99-24.15m-21.26 30.55c7.08-8.14 14.15-16.27 26.25-30.19m-26.25 30.19c7.83-9 15.66-18.01 26.25-30.19m-26.51 36.59c6.85-7.88 13.7-15.76 32.15-36.98m-32.15 36.98c9.77-11.24 19.54-22.48 32.15-36.98m-31.75 42.62c12.66-14.56 25.32-29.13 36.74-42.26m-36.74 42.26c9.84-11.32 19.68-22.65 36.74-42.26m-37 48.66c12.54-14.43 25.09-28.87 42.64-49.06m-42.64 49.06c15.51-17.85 31.03-35.71 42.64-49.06m-42.25 54.7c13.8-15.87 27.59-31.73 47.24-54.34m-47.24 54.34c11.27-12.96 22.54-25.93 47.24-54.34m-47.5 60.74c13.09-15.06 26.18-30.12 53.14-61.13m-53.14 61.13 53.14-61.13m-48.15 61.49c17.1-19.68 34.2-39.35 53.14-61.13m-53.14 61.13c11.12-12.8 22.25-25.6 53.14-61.13m-48.16 61.49c11.71-13.47 23.42-26.94 53.8-61.89m-53.8 61.89c16.82-19.34 33.63-38.69 53.8-61.89m-48.15 61.49c18.36-21.12 36.72-42.25 53.14-61.13m-53.14 61.13c13.42-15.44 26.84-30.88 53.14-61.13m-48.16 61.49c16.57-19.06 33.14-38.12 53.8-61.88m-53.8 61.88c17.28-19.86 34.55-39.73 53.8-61.88m-48.81 62.24c14.87-17.1 29.73-34.2 53.8-61.88m-53.8 61.88c11.52-13.25 23.05-26.51 53.8-61.88m-48.16 61.49c14.46-16.63 28.92-33.27 53.8-61.89m-53.8 61.89c16.39-18.85 32.78-37.71 53.8-61.89m-48.81 62.25c17.69-20.35 35.38-40.69 53.8-61.89m-53.8 61.89c11.48-13.21 22.97-26.42 53.8-61.89m-48.16 61.5c10.92-12.56 21.84-25.12 53.8-61.89m-53.8 61.89 53.8-61.89m-48.81 62.25c17.17-19.76 34.34-39.51 53.8-61.89m-53.8 61.89c18.46-21.24 36.92-42.47 53.8-61.89m-48.16 61.49c14.26-16.4 28.51-32.79 53.8-61.88m-53.8 61.88c21.23-24.42 42.46-48.84 53.8-61.88m-48.81 62.24c19.65-22.61 39.3-45.21 53.8-61.88m-53.8 61.88c19.87-22.86 39.75-45.72 53.8-61.88m-48.16 61.49c19.19-22.07 38.37-44.13 53.14-61.13m-53.14 61.13c11.08-12.74 22.15-25.48 53.14-61.13m-48.15 61.49c20.79-23.92 41.59-47.84 53.8-61.89m-53.8 61.89c12.48-14.36 24.96-28.71 53.8-61.89m-48.16 61.49c13.21-15.19 26.42-30.39 53.15-61.13m-53.15 61.13c11.27-12.96 22.53-25.91 53.15-61.13m-48.16 61.49c10.96-12.61 21.92-25.22 53.8-61.88m-53.8 61.88c18.49-21.27 36.99-42.54 53.8-61.88m-48.16 61.49c12.6-14.49 25.19-28.97 53.15-61.13m-53.15 61.13c16.89-19.42 33.77-38.84 53.15-61.13m-48.16 61.49c12.88-14.82 25.77-29.64 53.8-61.89m-53.8 61.89c15.67-18.03 31.35-36.06 53.8-61.89m-48.16 61.49 53.15-61.13m-53.15 61.13c19.2-22.08 38.4-44.16 53.15-61.13m-48.16 61.49c11.72-13.47 23.43-26.95 53.8-61.88m-53.8 61.88c18.01-20.71 36.01-41.42 53.8-61.88m-48.16 61.49 50.52-58.11m-50.52 58.11c10.2-11.73 20.39-23.45 50.52-58.11m-45.53 58.47c11.96-13.76 23.92-27.52 45.27-52.08m-45.27 52.08c13.9-15.99 27.81-31.99 45.27-52.08m-39.63 51.68c10.91-12.54 21.82-25.09 40.02-46.03m-40.02 46.03c8.88-10.21 17.76-20.42 40.02-46.03m-35.03 46.39c7.16-8.23 14.32-16.47 34.77-40m-34.77 40c10.97-12.61 21.94-25.23 34.77-40m-29.13 39.61c8.49-9.76 16.98-19.53 29.53-33.96m-29.53 33.96c6.72-7.73 13.44-15.46 29.53-33.96m-24.54 34.32 24.28-27.92m-24.28 27.92c5.83-6.7 11.65-13.4 24.28-27.92m-19.29 28.28c6.14-7.06 12.28-14.13 19.02-21.89m-19.02 21.89c6.63-7.62 13.25-15.25 19.02-21.89m-13.38 21.5c5.4-6.22 10.8-12.43 13.78-15.85m-13.78 15.85c3.23-3.72 6.46-7.43 13.78-15.85m-8.79 16.21c2.53-2.92 5.06-5.83 8.53-9.82m-8.53 9.82c2.87-3.31 5.75-6.62 8.53-9.82m-2.89 9.42c.98-1.13 1.96-2.25 3.28-3.77m-3.28 3.77 3.28-3.77"/><path fill="none" stroke="#000" d="M10.495 106.798h156m-156 0h156m0 0v61m0-61v61m0 0h-156m156 0h-156m0 0v-61m0 61v-61"/></g><text x="40.557" dominant-baseline="text-before-edge" font-family="Helvetica, Segoe UI Emoji" font-size="20" style="white-space:pre" text-anchor="middle" transform="translate(47.938 125.798)">AOF格式</text><text dominant-baseline="text-before-edge" font-family="Helvetica, Segoe UI Emoji" font-size="20" style="white-space:pre" transform="translate(19.415 10)">appendonly.aof</text></svg>