<svg xmlns="http://www.w3.org/2000/svg" width="462" height="437" preserveAspectRatio="none" style="width:462px;height:437px;background:#fff"><defs><filter id="a" width="300%" height="300%" x="-1" y="-1"><feGaussianBlur result="blurOut" stdDeviation="2"/><feColorMatrix in="blurOut" result="blurOut2" values="0 0 0 0 0 0 0 0 0 0 0 0 0 0 0 0 0 0 .4 0"/><feOffset dx="4" dy="4" in="blurOut2" result="blurOut3"/><feBlend in="SourceGraphic" in2="blurOut3"/></filter></defs><text x="381" y="19.282" fill="#888" font-family="sans-serif" font-size="10" textLength="61">created by x</text><text x="175.5" y="45.636" font-family="sans-serif" font-size="14" font-weight="bold" textLength="101">cargo profile</text><rect width="66" height="40.297" x="10" y="212.977" fill="#A8EB99" filter="url(#a)" rx="7.5" ry="7.5" style="stroke:#000;stroke-width:1"/><text x="22" y="237.972" font-family="sans-serif" font-size="14" textLength="42">profile</text><rect width="49" height="40.297" x="126" y="83.086" fill="#E0FFFF" filter="url(#a)" rx="7.5" ry="7.5" style="stroke:#000;stroke-width:1"/><text x="138" y="108.081" font-family="sans-serif" font-size="14" textLength="25">dev</text><rect width="112" height="66.594" x="225" y="69.938" fill="#E0FFFF" filter="url(#a)" rx="7.5" ry="7.5" style="stroke:#000;stroke-width:1"/><text x="237" y="94.933" font-family="sans-serif" font-size="14" textLength="4"> </text><text x="241" y="94.933" font-family="sans-serif" font-size="14" textLength="84">用于开发环境</text><path d="M225 103.234h112" style="stroke:#000;stroke-width:1;stroke-dasharray:1,2"/><text x="237" y="121.23" font-family="monospace" font-size="14" textLength="88">cargo build</text><path fill="none" d="M175 103.234h50" style="stroke:red;stroke-width:1;stroke-dasharray:5,5"/><path fill="none" d="M76 233.125h10c15 0 15-129.89 30-129.89h10" style="stroke:green;stroke-width:1;stroke-dasharray:5,5"/><rect width="75" height="40.297" x="126" y="169.68" fill="#EAB8DE" filter="url(#a)" rx="7.5" ry="7.5" style="stroke:#000;stroke-width:1"/><text x="138" y="194.675" font-family="sans-serif" font-size="14" textLength="51">release</text><rect width="192" height="66.594" x="251" y="156.531" fill="#FBE972" filter="url(#a)" rx="7.5" ry="7.5" style="stroke:#000;stroke-width:1"/><text x="303" y="181.526" font-family="sans-serif" font-size="14" textLength="4"> </text><text x="307" y="181.526" font-family="sans-serif" font-size="14" textLength="84">用于正式环境</text><path d="M251 189.828h192" style="stroke:#000;stroke-width:1;stroke-dasharray:1,2"/><text x="263" y="207.823" font-family="monospace" font-size="14" textLength="168">cargo build --release</text><path fill="none" d="M201 189.828h50" style="stroke:red;stroke-width:1;stroke-dasharray:5,5"/><path fill="none" d="M76 233.125h10c15 0 15-43.297 30-43.297h10" style="stroke:green;stroke-width:1;stroke-dasharray:5,5"/><rect width="51" height="40.297" x="126" y="256.273" fill="#94C644" filter="url(#a)" rx="7.5" ry="7.5" style="stroke:#000;stroke-width:1"/><text x="138" y="281.269" font-family="sans-serif" font-size="14" textLength="27">test</text><rect width="140" height="66.594" x="227" y="243.125" fill="#94C644" filter="url(#a)" rx="7.5" ry="7.5" style="stroke:#000;stroke-width:1"/><text x="249.5" y="268.12" font-family="sans-serif" font-size="14" textLength="95">配置文件同dev</text><path d="M227 276.422h140" style="stroke:#000;stroke-width:1;stroke-dasharray:1,2"/><text x="239" y="294.417" font-family="monospace" font-size="14" textLength="116">cargo test 使用</text><path fill="none" d="M177 276.422h50" style="stroke:red;stroke-width:1;stroke-dasharray:5,5"/><path fill="none" d="M76 233.125h10c15 0 15 43.297 30 43.297h10" style="stroke:green;stroke-width:1;stroke-dasharray:5,5"/><rect width="68" height="40.297" x="126" y="342.867" fill="gold" filter="url(#a)" rx="7.5" ry="7.5" style="stroke:#000;stroke-width:1"/><text x="138" y="367.862" font-family="sans-serif" font-size="14" textLength="44">bench</text><rect width="148" height="66.594" x="244" y="329.719" fill="gold" filter="url(#a)" rx="7.5" ry="7.5" style="stroke:#000;stroke-width:1"/><text x="257.5" y="354.714" font-family="sans-serif" font-size="14" textLength="121">配置文件同release</text><path d="M244 363.016h148" style="stroke:#000;stroke-width:1;stroke-dasharray:1,2"/><text x="256" y="381.011" font-family="monospace" font-size="14" textLength="124">cargo bench 使用</text><path fill="none" d="M194 363.016h50" style="stroke:red;stroke-width:1;stroke-dasharray:5,5"/><path fill="none" d="M76 233.125h10c15 0 15 129.89 30 129.89h10" style="stroke:green;stroke-width:1;stroke-dasharray:5,5"/><text x="200" y="420.308" font-family="sans-serif" font-size="14" textLength="52">figure 1</text></svg>