<svg xmlns="http://www.w3.org/2000/svg" preserveAspectRatio="xMinYMin meet" viewBox="0 0 535 517"><svg id="d2-svg" width="535" height="517" class="d2-4178421922" viewBox="0 0 535 517"><rect width="535" height="517" stroke-width="0" rx="0" style="fill:#fff"/><style>@keyframes dashdraw{0%{stroke-dashoffset:0}}.d2-4178421922 .text-mono{font-family:&quot;d2-4178421922-font-mono&quot;}@font-face{font-family:d2-4178421922-font-mono;src:url(/stylesheets/font/Virgil-hand.woff2)}.d2-4178421922 .text-mono-bold{font-family:&quot;d2-4178421922-font-mono-bold&quot;}@font-face{font-family:d2-4178421922-font-mono-bold;src:url(/stylesheets/font/Virgil-hand.woff2)}.d2-4178421922 .text-mono-italic{font-family:&quot;d2-4178421922-font-mono-italic&quot;}@font-face{font-family:d2-4178421922-font-mono-italic;src:url(/stylesheets/font/Virgil-hand.woff2)}.connection,.shape{stroke-linejoin:round}.shape{shape-rendering:geometricPrecision}.connection{stroke-linecap:round}.d2-4178421922 .fill-N1,.d2-4178421922 .fill-N2{fill:#000410}.d2-4178421922 .stroke-B1,.d2-4178421922 .stroke-B2{stroke:#000410}@media screen and (prefers-color-scheme:dark){.d2-4178421922 .fill-N1{fill:#cdd6f4}.d2-4178421922 .fill-N2{fill:#bac2de}.d2-4178421922 .stroke-B1,.d2-4178421922 .stroke-B2{stroke:#cba6f7}}.dots-overlay{fill:url(#dots);mix-blend-mode:multiply}</style><defs><pattern id="dots" width="15" height="15" x="0" y="0" patternUnits="userSpaceOnUse"><path fill="#0A0F25" d="M2 2h1v1H2zM12 2h1v1h-1zM12 12h1v1h-1zM2 12h1v1H2zM2 7h1v1H2zM12 7h1v1h-1zM7 2h1v1H7zM7 12h1v1H7zM7 7h1v1H7z" opacity=".1" style="mix-blend-mode:multiply"/></pattern></defs><defs><filter id="shadow-filter" width="200%" height="200%" x="-50%" y="-50%"><feGaussianBlur in="SourceGraphic" stdDeviation="1.7"/><feFlood flood-color="#3d4574" flood-opacity=".4" result="ShadowFeFlood"/><feComposite in="ShadowFeFlood" in2="SourceAlpha" operator="in" result="ShadowFeComposite"/><feOffset dx="3" dy="5" in="ShadowFeComposite" result="ShadowFeOffset"/><feBlend in="SourceGraphic" in2="ShadowFeOffset" result="ShadowFeBlend"/></filter></defs><g id="top-row" class="empty"><g class="shape"><path fill="transparent" d="M0 0h531v511H0z" class="stroke-B1" style="stroke-width:0"/><path d="M0 0h531v511H0z" class="dots-overlay" style="stroke-width:0"/><path fill="transparent" d="M5 5h521v501H5z" class="stroke-B1" style="stroke-width:0"/></g></g><g id="top-row.stack" class="empty"><g class="shape"><path fill="transparent" d="M0 36h231v475H0z" class="stroke-B1" style="stroke-width:0"/><path d="M0 36h231v475H0z" class="dots-overlay" style="stroke-width:0"/></g><text x="212" y="24" class="text-mono fill-N1" style="text-anchor:middle;font-size:24px">栈</text></g><g id="top-row.dot-container1" class="empty"><g class="shape"><path fill="transparent" d="M231 0h100v511H231z" class="stroke-B1" style="stroke-width:0"/><path d="M231 0h100v511H231z" class="dots-overlay" style="stroke-width:0"/></g></g><g id="top-row.dot-container2" class="empty"><g class="shape"><path fill="transparent" d="M331 0h100v511H331z" class="stroke-B1" style="stroke-width:0"/><path d="M331 0h100v511H331z" class="dots-overlay" style="stroke-width:0"/></g></g><g id="top-row.heap"><g class="shape" filter="url(#shadow-filter)"><path d="M431 36h100v475H431z" class="stroke-B1" style="fill:#f5f6f9;stroke-width:2"/><path d="M431 36h100v475H431z" class="dots-overlay" style="stroke-width:2"/></g><text x="440" y="24" class="text-mono fill-N1" style="text-anchor:middle;font-size:24px">堆</text></g><g id="top-row.stack.slice_arr" class="label-container"><g class="shape"><path fill="transparent" d="M0 36h131v80H0z" class="stroke-B1" style="stroke-width:0"/></g><text x="83" y="106" class="text-mono-bold fill-N1" style="text-anchor:middle;font-size:16px">slice_arr</text></g><g id="top-row.stack._slice_arr" class="empty"><g class="shape" filter="url(#shadow-filter)"><path fill="transparent" d="M131 36h100v80H131z" class="stroke-B1" style="stroke-width:0"/><path d="M131 36h100v80H131z" class="dots-overlay" style="stroke-width:0"/></g></g><g id="top-row.stack.slice_vec" class="label-container"><g class="shape"><path fill="transparent" d="M0 116h131v120H0z" class="stroke-B1" style="stroke-width:0"/></g><text x="83" y="226" class="text-mono-bold fill-N1" style="text-anchor:middle;font-size:16px">slice_vec</text></g><g id="top-row.stack._slice_vec" class="empty"><g class="shape" filter="url(#shadow-filter)"><path fill="transparent" d="M131 116h100v120H131z" class="stroke-B1" style="stroke-width:0"/><path d="M131 116h100v120H131z" class="dots-overlay" style="stroke-width:0"/></g></g><g id="top-row.stack.arr" class="label-container"><g class="shape"><path fill="transparent" d="M0 236h131v105H0z" class="stroke-B1" style="stroke-width:0"/></g><text x="111.5" y="331" class="text-mono-bold fill-N1" style="text-anchor:middle;font-size:16px">arr</text></g><g id="top-row.stack._arr" class="empty"><g class="shape"><path fill="transparent" d="M131 236h100v105H131z" class="stroke-B1" style="stroke-width:0"/><path d="M131 236h100v105H131z" class="dots-overlay" style="stroke-width:0"/></g></g><g id="top-row.stack.vec" class="label-container"><g class="shape"><path fill="transparent" d="M0 341h131v160H0z" class="stroke-B1" style="stroke-width:0"/></g><text x="111.5" y="491" class="text-mono-bold fill-N1" style="text-anchor:middle;font-size:16px">vec</text></g><g id="top-row.stack._vec" class="empty"><g class="shape" filter="url(#shadow-filter)"><path fill="transparent" d="M131 341h100v160H131z" class="stroke-B1" style="stroke-width:0"/><path d="M131 341h100v160H131z" class="dots-overlay" style="stroke-width:0"/></g></g><g id="top-row.dot-container1.hide0" class="empty"><g class="shape"><path fill="transparent" d="M231 0h100v60H231z" class="stroke-B1" style="stroke-width:0"/></g></g><g id="top-row.dot-container1.dot1" class="empty"><g class="shape"><path fill="transparent" d="M231 60h100v61H231z" class="stroke-B1" style="stroke-width:0"/><path d="M231 60h100v61H231z" class="dots-overlay" style="stroke-width:0"/></g></g><g id="top-row.dot-container1.hide2" class="empty"><g class="shape"><path fill="transparent" d="M231 121h100v160H231z" class="stroke-B1" style="stroke-width:0"/></g></g><g id="top-row.dot-container1.dot2" class="empty"><g class="shape"><path fill="transparent" d="M231 281h100v61H231z" class="stroke-B1" style="stroke-width:0"/><path d="M231 281h100v61H231z" class="dots-overlay" style="stroke-width:0"/></g></g><g id="top-row.dot-container2.hide2" class="empty"><g class="shape"><path fill="transparent" d="M331 0h100v180H331z" class="stroke-B1" style="stroke-width:0"/></g></g><g id="top-row.dot-container2.dot2" class="empty"><g class="shape"><path fill="transparent" d="M331 180h100v61H331z" class="stroke-B1" style="stroke-width:0"/><path d="M331 180h100v61H331z" class="dots-overlay" style="stroke-width:0"/></g></g><g id="top-row.dot-container2.hide3" class="empty"><g class="shape"><path fill="transparent" d="M331 241h100v155H331z" class="stroke-B1" style="stroke-width:0"/></g></g><g id="top-row.dot-container2.dot3" class="empty"><g class="shape"><path fill="transparent" d="M331 396h100v61H331z" class="stroke-B1" style="stroke-width:0"/><path d="M331 396h100v61H331z" class="dots-overlay" style="stroke-width:0"/></g></g><g id="top-row.heap.pad0" class="invisible"><g class="shape"><path fill="#fff" d="M431 36h100v20H431z" class="stroke-B1" style="stroke-width:2"/></g></g><g id="top-row.heap.pad1" class="invisible"><g class="shape"><path fill="#87ceeb" d="M431 56h100v20H431z" class="stroke-B1" style="stroke-width:2"/></g></g><g id="top-row.heap.pad2" class="invisible"><g class="shape"><path fill="#87ceeb" d="M431 76h100v20H431z" class="stroke-B1" style="stroke-width:2"/></g></g><g id="top-row.heap.pad3" class="invisible"><g class="shape"><path fill="#87ceeb" d="M431 96h100v20H431z" class="stroke-B1" style="stroke-width:2"/></g></g><g id="top-row.heap.5"><g class="shape"><path fill="#87ceeb" d="M431 116h100v21H431z" class="stroke-B1" style="stroke-width:2"/></g><text x="481" y="132" class="text-mono-bold fill-N1" style="text-anchor:middle;font-size:16px">5</text></g><g id="top-row.heap.4"><g class="shape"><path fill="#87ceeb" d="M431 137h100v21H431z" class="stroke-B1" style="stroke-width:2"/></g><text x="481" y="153" class="text-mono-bold fill-N1" style="text-anchor:middle;font-size:16px">4</text></g><g id="top-row.heap.3"><g class="shape"><path fill="#87ceeb" d="M431 158h100v21H431z" class="stroke-B1" style="stroke-width:2"/></g><text x="481" y="174" class="text-mono-bold fill-N1" style="text-anchor:middle;font-size:16px">3</text></g><g id="top-row.heap.2"><g class="shape"><path fill="#87ceeb" d="M431 179h100v21H431z" class="stroke-B1" style="stroke-width:2"/></g><text x="481" y="195" class="text-mono-bold fill-N1" style="text-anchor:middle;font-size:16px">2</text></g><g id="top-row.heap.1"><g class="shape"><path fill="#87ceeb" d="M431 200h100v21H431z" class="stroke-B1" style="stroke-width:2"/></g><text x="481" y="216" class="text-mono-bold fill-N1" style="text-anchor:middle;font-size:16px">1</text></g><g id="top-row.heap.pad4" class="invisible"><g class="shape"><path fill="#fff" d="M431 221h100v20H431z" class="stroke-B1" style="stroke-width:2"/></g></g><g id="top-row.heap.pad5" class="invisible"><g class="shape"><path fill="#fff" d="M431 241h100v20H431z" class="stroke-B1" style="stroke-width:2"/></g></g><g id="top-row.heap.pad6" class="invisible"><g class="shape"><path fill="#fff" d="M431 261h100v250H431z" class="stroke-B1" style="stroke-width:2"/></g></g><g id="top-row.stack._slice_arr.len"><g class="shape"><path fill="#fffacd" d="M131 36h100v40H131z" class="stroke-B1" style="stroke-width:2"/></g><text x="181" y="61.5" class="text-mono-bold fill-N1" style="text-anchor:middle;font-size:16px">len</text></g><g id="top-row.stack._slice_arr.ptr"><g class="shape"><path fill="#fffacd" d="M131 76h100v40H131z" class="stroke-B1" style="stroke-width:2"/></g><text x="181" y="101.5" class="text-mono-bold fill-N1" style="text-anchor:middle;font-size:16px">ptr</text></g><g id="top-row.stack._slice_vec.&quot;...&quot;"><g class="shape"><path fill="transparent" d="M131 116h100v40H131z" class="stroke-B1" style="stroke-width:2"/></g><text x="181" y="141.5" class="text-mono-bold fill-N1" style="text-anchor:middle;font-size:16px">...</text></g><g id="top-row.stack._slice_vec.len"><g class="shape"><path fill="#e0ffff" d="M131 156h100v40H131z" class="stroke-B1" style="stroke-width:2"/></g><text x="181" y="181.5" class="text-mono-bold fill-N1" style="text-anchor:middle;font-size:16px">len</text></g><g id="top-row.stack._slice_vec.ptr"><g class="shape"><path fill="#e0ffff" d="M131 196h100v40H131z" class="stroke-B1" style="stroke-width:2"/></g><text x="181" y="221.5" class="text-mono-bold fill-N1" style="text-anchor:middle;font-size:16px">ptr</text></g><g id="top-row.stack._arr.&quot;...&quot;"><g class="shape"><path fill="transparent" d="M131 236h100v21H131z" class="stroke-B1" style="stroke-width:2"/></g><text x="181" y="252" class="text-mono-bold fill-N1" style="text-anchor:middle;font-size:16px">...</text></g><g id="top-row.stack._arr.4"><g class="shape"><path fill="#ffffe0" d="M131 257h100v21H131z" class="stroke-B1" style="stroke-width:2"/></g><text x="181" y="273" class="text-mono-bold fill-N1" style="text-anchor:middle;font-size:16px">4</text></g><g id="top-row.stack._arr.3"><g class="shape"><path fill="#ffffe0" d="M131 278h100v21H131z" class="stroke-B1" style="stroke-width:2"/></g><text x="181" y="294" class="text-mono-bold fill-N1" style="text-anchor:middle;font-size:16px">3</text></g><g id="top-row.stack._arr.2"><g class="shape"><path fill="#ffffe0" d="M131 299h100v21H131z" class="stroke-B1" style="stroke-width:2"/></g><text x="181" y="315" class="text-mono-bold fill-N1" style="text-anchor:middle;font-size:16px">2</text></g><g id="top-row.stack._arr.1"><g class="shape"><path fill="#ffffe0" d="M131 320h100v21H131z" class="stroke-B1" style="stroke-width:2"/></g><text x="181" y="336" class="text-mono-bold fill-N1" style="text-anchor:middle;font-size:16px">1</text></g><g id="top-row.stack._vec.&quot;...&quot;"><g class="shape"><path fill="transparent" d="M131 341h100v40H131z" class="stroke-B1" style="stroke-width:2"/></g><text x="181" y="366.5" class="text-mono-bold fill-N1" style="text-anchor:middle;font-size:16px">...</text></g><g id="top-row.stack._vec.len"><g class="shape"><path fill="#f0fff0" d="M131 381h100v40H131z" class="stroke-B1" style="stroke-width:2"/></g><text x="181" y="406.5" class="text-mono-bold fill-N1" style="text-anchor:middle;font-size:16px">len</text></g><g id="top-row.stack._vec.ptr"><g class="shape"><path fill="#f0fff0" d="M131 421h100v40H131z" class="stroke-B1" style="stroke-width:2"/></g><text x="181" y="446.5" class="text-mono-bold fill-N1" style="text-anchor:middle;font-size:16px">ptr</text></g><g id="top-row.stack._vec.capacity"><g class="shape"><path fill="#f0fff0" d="M131 461h100v40H131z" class="stroke-B1" style="stroke-width:2"/></g><text x="181" y="486.5" class="text-mono-bold fill-N1" style="text-anchor:middle;font-size:16px">capacity</text></g><g id="top-row.dot-container2.dot3.circle" class="shape"><circle cx="361.5" cy="426.5" r=".5" class="shape stroke-B1" style="stroke-width:0"/></g><g id="top-row.dot-container2.dot2.circle" class="shape"><circle cx="361.5" cy="210.5" r=".5" class="shape stroke-B1" style="stroke-width:0"/></g><g id="top-row.dot-container1.dot2.circle" class="shape"><circle cx="261.5" cy="311.5" r=".5" class="shape stroke-B1" style="stroke-width:0"/></g><g id="top-row.dot-container1.dot1.circle" class="shape"><circle cx="261.5" cy="90.5" r=".5" class="shape stroke-B1" style="stroke-width:0"/></g><g id="top-row.(stack._slice_vec.ptr -- dot-container2.dot2.circle)[0]"><path fill="none" d="M232.499 214.432 361 210.034" class="connection animated-connection stroke-B2" mask="url(#d2-4178421922)" style="stroke-width:2;stroke-dasharray:6,5.919384;stroke-dashoffset:-119.193836;animation:dashdraw 2.959692s linear infinite"/><text x="296" y="218" class="text-mono-italic fill-N2" style="text-anchor:middle;font-size:16px">借用</text></g><path id="top-row.dot-container2.(dot3.circle -- dot2.circle)[0]" fill="none" d="M362 426V212" class="connection animated-connection stroke-B2" mask="url(#d2-4178421922)" style="stroke-width:2;stroke-dasharray:6,5.919384;stroke-dashoffset:-119.193836;animation:dashdraw 2.959692s linear infinite"/><g id="top-row.(dot-container2.dot2.circle -&gt; heap.1)[0]"><marker id="mk-2177206569" markerHeight="12" markerUnits="userSpaceOnUse" markerWidth="10" orient="auto" refX="7" refY="6" viewBox="0 0 10 12"><path stroke-width="2" d="m0 0 10 6-10 6z" class="connection" style="fill:#000410"/></marker><path fill="none" marker-end="url(#mk-2177206569)" d="M363 211h64" class="connection animated-connection stroke-B2" mask="url(#d2-4178421922)" style="stroke-width:2;stroke-dasharray:6,5.919384;stroke-dashoffset:-119.193836;animation:dashdraw 2.959692s linear infinite"/></g><g id="top-row.(stack._vec.ptr -- dot-container2.dot3.circle)[0]"><path fill="none" d="m232.494 436.34 128.51-10.26" class="connection animated-connection stroke-B2" mask="url(#d2-4178421922)" style="stroke-width:2;stroke-dasharray:6,5.919384;stroke-dashoffset:-119.193836;animation:dashdraw 2.959692s linear infinite"/><text x="296" y="437" class="text-mono-italic fill-N2" style="text-anchor:middle;font-size:16px">所有权</text></g><path id="top-row.dot-container2.(dot3.circle -- dot2.circle)[1]" fill="none" d="M362 426V212" class="connection animated-connection stroke-B2" mask="url(#d2-4178421922)" style="stroke-width:2;stroke-dasharray:6,5.919384;stroke-dashoffset:-119.193836;animation:dashdraw 2.959692s linear infinite"/><path id="top-row.(dot-container2.dot2.circle -&gt; heap.1)[1]" fill="none" marker-end="url(#mk-2177206569)" d="M363 211h64" class="connection animated-connection stroke-B2" mask="url(#d2-4178421922)" style="stroke-width:2;stroke-dasharray:6,5.919384;stroke-dashoffset:-119.193836;animation:dashdraw 2.959692s linear infinite"/><path id="top-row.(stack._slice_arr.ptr -- dot-container1.dot1.circle)[0]" fill="none" d="m232.494 92.342 28.51-2.263" class="connection stroke-B1" mask="url(#d2-4178421922)" style="stroke-width:2"/><path id="top-row.dot-container1.(dot1.circle -- dot2.circle)[0]" fill="none" d="M262 92v219" class="connection stroke-B1" mask="url(#d2-4178421922)" style="stroke-width:2"/><g id="top-row.(dot-container1.dot2.circle -&gt; stack._arr.1)[0]"><marker id="mk-3488378134" markerHeight="12" markerUnits="userSpaceOnUse" markerWidth="10" orient="auto" refX="7" refY="6" viewBox="0 0 10 12"><path stroke-width="2" d="m0 0 10 6-10 6z" class="connection" style="fill:#000410"/></marker><path fill="none" marker-end="url(#mk-3488378134)" d="m260.025 312.223-30.126 6.886" class="connection stroke-B1" mask="url(#d2-4178421922)" style="stroke-width:2"/></g><mask id="d2-4178421922" width="535" height="517" x="0" y="0" maskUnits="userSpaceOnUse"><path fill="#fff" d="M0 0h535v517H0z"/><path fill="rgba(0,0,0,0.75)" d="M198 0h28v31h-28zM426 0h28v31h-28zM40 90h86v21H40zM40 210h86v21H40zM97 315h29v21H97zM97 475h29v21H97zM476.5 116h9v21h-9zM476.5 137h9v21h-9zM476.5 158h9v21h-9zM476.5 179h9v21h-9zM477 200h8v21h-8zM166.5 45.5h29v21h-29zM167 85.5h28v21h-28zM168.5 125.5h25v21h-25zM166.5 165.5h29v21h-29zM167 205.5h28v21h-28zM168.5 236h25v21h-25zM176.5 257h9v21h-9zM176.5 278h9v21h-9zM176.5 299h9v21h-9zM177 320h8v21h-8zM168.5 350.5h25v21h-25zM166.5 390.5h29v21h-29zM167 430.5h28v21h-28zM142.5 470.5h77v21h-77z"/><path d="M277 202h38v21h-38zM267 421h58v21h-58z"/></mask></svg></svg>