<svg xmlns="http://www.w3.org/2000/svg" width="642.187" height="409.903"><defs><style>@font-face{font-family:&quot;Virgil&quot;;src:url(https://unpkg.com/@excalidraw/excalidraw@undefined/dist/excalidraw-assets/Virgil.woff2)}@font-face{font-family:&quot;Cascadia&quot;;src:url(https://unpkg.com/@excalidraw/excalidraw@undefined/dist/excalidraw-assets/Cascadia.woff2)}@font-face{font-family:&quot;Assistant&quot;;src:url(https://unpkg.com/@excalidraw/excalidraw@undefined/dist/excalidraw-assets/Assistant-Regular.woff2)}</style></defs><path fill="#fff" d="M0 0h642.187v409.903H0z"/><path fill="none" stroke="#1e1e1e" stroke-linecap="round" d="M163.634 112.916c36.78.07 76.17-2.33 122.84 0m-122.84 0c46.38-.8 93.11.47 122.84 0m0 0c1.41 8.29-.98 16.14 0 35m0-35c-.45 10.67-.44 19.81 0 35m0 0c-37.47-.68-75.92.78-122.84 0m122.84 0c-26.31.37-53.47-.21-122.84 0m0 0c.74-9.61-1.36-17.55 0-35m0 35c-.66-12.19-.18-25.29 0-35"/><text x="6.078" fill="#1e1e1e" fill-opacity=".9" stroke-opacity=".9" dominant-baseline="text-before-edge" font-family="Virgil, Segoe UI Emoji" font-size="19.677" style="white-space:pre" text-anchor="middle" transform="translate(218.976 118.118)">5</text><path fill="none" stroke="#1e1e1e" stroke-linecap="round" d="M79.83 113.916c31.78 1.1 60.4.67 83.67 0m-83.67 0c17.47.33 35.99.25 83.67 0m0 0c-.62 9.71 1.52 18.08 0 35m0-35c-.07 13.94.14 27.51 0 35m0 0c-22.3-.63-42 .9-83.67 0m83.67 0c-32.41.76-64.51.66-83.67 0m0 0c1.44-8.75-.05-18.63 0-35m0 35c-.93-12.75-.53-24.77 0-35"/><text x="12.559" fill="#1e1e1e" fill-opacity=".9" stroke-opacity=".9" dominant-baseline="text-before-edge" font-family="Virgil, Segoe UI Emoji" font-size="19.677" style="white-space:pre" text-anchor="middle" transform="translate(109.106 119.118)">len</text><path fill="none" stroke="#1e1e1e" stroke-linecap="round" d="M163.634 82.117c39.11.98 82.47-1.06 123.57 0m-123.57 0c45.15-1.34 90.09-.93 123.57 0m0 0c2.06 8.59.78 19.27 0 30.82m0-30.82c-.43 10.25.3 19.59 0 30.82m0 0c-30.55.26-63.87-.66-123.57 0m123.57 0c-44.63 0-88.44 1.2-123.57 0m0 0c.98-9.47.09-20.12 0-30.82m0 30.82c-.4-7.06.74-15.2 0-30.82"/><path fill="none" stroke="#1e1e1e" stroke-linecap="round" d="M79.83 79.117c26.68-1.4 53.07-.23 83.67 0m-83.67 0c29.25.31 60.15 1.38 83.67 0m0 0c.82 9.01.94 18.27 0 35m0-35c.01 10.61-.58 22.51 0 35m0 0c-27.73-1.21-55.23-1.69-83.67 0m83.67 0c-29.28.13-58.14-.61-83.67 0m0 0c-.11-10.1-1.37-17.41 0-35m0 35c.76-9.26.77-17.91 0-35"/><text x="14.634" fill="#1e1e1e" fill-opacity=".9" stroke-opacity=".9" dominant-baseline="text-before-edge" font-family="Virgil, Segoe UI Emoji" font-size="19.677" style="white-space:pre" text-anchor="middle" transform="translate(107.031 84.319)">ptr</text><path fill="none" stroke="#1e1e1e" stroke-linecap="round" d="M164.502 149.41c32.35-.7 61.12-1.69 123.29 0m-123.29 0c33.97-.18 68.42-.81 123.29 0m0 0c.65 9.76.2 22.05 0 35m0-35c.23 8.41-.24 15.43 0 35m0 0c-29.13-2.06-61.31-1.47-123.29 0m123.29 0c-45.28.32-89.39-.13-123.29 0m0 0c-.75-8.19.86-12.91 0-35m0 35c.31-8.05-.27-18.26 0-35"/><text x="6.078" fill="#1e1e1e" fill-opacity=".9" stroke-opacity=".9" dominant-baseline="text-before-edge" font-family="Virgil, Segoe UI Emoji" font-size="19.677" style="white-space:pre" text-anchor="middle" transform="translate(220.071 154.611)">5</text><path fill="none" stroke="#1e1e1e" stroke-linecap="round" d="M79.83 148.716c22.34.84 47.24-.31 83.67 0m-83.67 0c32.66.1 65.45.05 83.67 0m0 0c-1.64 7.84-.69 18.01 0 35m0-35c-.6 13.89-.84 27.12 0 35m0 0c-19.39-.32-41.5-1.57-83.67 0m83.67 0c-30.03-.58-58.67-.46-83.67 0m0 0c-.98-7.31-.63-15.86 0-35m0 35c-.03-13.81.42-27.72 0-35"/><text x="16.346" fill="#1e1e1e" fill-opacity=".9" stroke-opacity=".9" dominant-baseline="text-before-edge" font-family="Virgil, Segoe UI Emoji" font-size="19.677" style="white-space:pre" text-anchor="middle" transform="translate(105.32 153.918)">cap</text><path fill="none" stroke="#1e1e1e" stroke-linecap="round" stroke-width="2" d="M520.353 226.369h111.83m-111.83 0h111.83m0 0v35m0-35v35m0 0h-111.83m111.83 0h-111.83m0 0v-35m0 35v-35"/><text x="5.38" fill="#1e1e1e" fill-opacity=".9" stroke-opacity=".9" dominant-baseline="text-before-edge" font-family="Virgil, Segoe UI Emoji" font-size="19.677" style="white-space:pre" text-anchor="middle" transform="translate(570.89 231.57)">e</text><path fill="none" stroke="#1e1e1e" stroke-linecap="round" stroke-width="2" d="M436.55 226.369h83.67m-83.67 0h83.67m0 0v35m0-35v35m0 0h-83.67m83.67 0h-83.67m0 0v-35m0 35v-35"/><text x="2.665" fill="#1e1e1e" fill-opacity=".9" stroke-opacity=".9" dominant-baseline="text-before-edge" font-family="Virgil, Segoe UI Emoji" font-size="19.677" style="white-space:pre" text-anchor="middle" transform="translate(475.72 231.57)">1</text><path fill="none" stroke="#1e1e1e" stroke-linecap="round" stroke-width="2" d="M520.146 332.136h112.03m-112.03 0h112.03m0 0v35m0-35v35m0 0h-112.03m112.03 0h-112.03m0 0v-35m0 35v-35"/><text x="5.449" fill="#1e1e1e" fill-opacity=".9" stroke-opacity=".9" dominant-baseline="text-before-edge" font-family="Virgil, Segoe UI Emoji" font-size="19.677" style="white-space:pre" text-anchor="middle" transform="translate(570.712 337.338)">o</text><path fill="none" stroke="#1e1e1e" stroke-linecap="round" stroke-width="2" d="M436.342 332.136h83.67m-83.67 0h83.67m0 0v35m0-35v35m0 0h-83.67m83.67 0h-83.67m0 0v-35m0 35v-35"/><text x="6.294" fill="#1e1e1e" fill-opacity=".9" stroke-opacity=".9" dominant-baseline="text-before-edge" font-family="Virgil, Segoe UI Emoji" font-size="19.677" style="white-space:pre" text-anchor="middle" transform="translate(471.883 337.338)">4</text><path fill="none" stroke="#1e1e1e" stroke-linecap="round" stroke-width="2" d="M520.353 190.57h111.2m-111.2 0h111.2m0 0v35m0-35v35m0 0h-111.2m111.2 0h-111.2m0 0v-35m0 35v-35"/><text x="4.858" fill="#1e1e1e" fill-opacity=".9" stroke-opacity=".9" dominant-baseline="text-before-edge" font-family="Virgil, Segoe UI Emoji" font-size="19.677" style="white-space:pre" text-anchor="middle" transform="translate(571.094 195.771)">h</text><path fill="none" stroke="#1e1e1e" stroke-linecap="round" stroke-width="2" d="M436.55 190.57h83.67m-83.67 0h83.67m0 0v35m0-35v35m0 0h-83.67m83.67 0h-83.67m0 0v-35m0 35v-35"/><text x="6.766" fill="#1e1e1e" fill-opacity=".9" stroke-opacity=".9" dominant-baseline="text-before-edge" font-family="Virgil, Segoe UI Emoji" font-size="19.677" style="white-space:pre" text-anchor="middle" transform="translate(471.618 195.771)">0</text><path fill="none" stroke="#1e1e1e" stroke-linecap="round" stroke-width="2" d="M520.353 261.168h111.47m-111.47 0h111.47m0 0v35m0-35v35m0 0h-111.47m111.47 0h-111.47m0 0v-35m0 35v-35"/><text x="2.587" fill="#1e1e1e" fill-opacity=".9" stroke-opacity=".9" dominant-baseline="text-before-edge" font-family="Virgil, Segoe UI Emoji" font-size="19.677" style="white-space:pre" text-anchor="middle" transform="translate(573.502 266.37)">l</text><path fill="none" stroke="#1e1e1e" stroke-linecap="round" stroke-width="2" d="M436.55 261.168h83.67m-83.67 0h83.67m0 0v35m0-35v35m0 0h-83.67m83.67 0h-83.67m0 0v-35m0 35v-35"/><text x="7.003" fill="#1e1e1e" fill-opacity=".9" stroke-opacity=".9" dominant-baseline="text-before-edge" font-family="Virgil, Segoe UI Emoji" font-size="19.677" style="white-space:pre" text-anchor="middle" transform="translate(471.382 266.37)">2</text><path fill="none" stroke="#1e1e1e" stroke-linecap="round" stroke-width="2" d="M520.353 295.968h111.45m-111.45 0h111.45m0 0v35m0-35v35m0 0h-111.45m111.45 0h-111.45m0 0v-35m0 35v-35"/><text x="2.587" fill="#1e1e1e" fill-opacity=".9" stroke-opacity=".9" dominant-baseline="text-before-edge" font-family="Virgil, Segoe UI Emoji" font-size="19.677" style="white-space:pre" text-anchor="middle" transform="translate(573.493 301.17)">l</text><path fill="none" stroke="#1e1e1e" stroke-linecap="round" stroke-width="2" d="M436.55 295.968h83.67m-83.67 0h83.67m0 0v35m0-35v35m0 0h-83.67m83.67 0h-83.67m0 0v-35m0 35v-35"/><text x="6.698" fill="#1e1e1e" fill-opacity=".9" stroke-opacity=".9" dominant-baseline="text-before-edge" font-family="Virgil, Segoe UI Emoji" font-size="19.677" style="white-space:pre" text-anchor="middle" transform="translate(471.687 301.17)">3</text><g stroke-linecap="round"><path fill="none" fill-opacity=".9" stroke="#1971c2" stroke-opacity=".9" stroke-width="4" d="M291.748 95.295c44.92 37.24 93.2 73.03 129.06 103.93m-129.06-103.93c35.28 28.02 70.8 56.88 129.06 103.93"/><g fill-opacity=".9" stroke-opacity=".9"><path fill="#1971c2" fill-rule="evenodd" stroke-width="0" d="m421.398 200.125-15.33-6.19 10.02-7.25 6.07 11.37"/><path fill="none" stroke="#1971c2" stroke-width="4" d="M420.808 199.225c-5.55-.44-8.93-2.6-14.56-3.62m14.56 3.62c-3.64-1.11-7.16-1.55-14.56-3.62m0 0c2.9-3.9 6.43-7.12 7.97-9.86m-7.97 9.86c2.36-2.78 4.12-4.94 7.97-9.86m0 0c2.95 4.87 4.36 7.22 6.59 13.48m-6.59-13.48c1.7 2.62 3.69 6.28 6.59 13.48m0 0q0 0 0 0m0 0q0 0 0 0"/></g></g><g stroke-linecap="round"><path fill="#b2f2bb" stroke-width="0" d="m79.352 43.86 85.72 2.61-.52 32.89-85.98 2.96"/><path fill="none" stroke="#1e1e1e" d="M79.532 45.53c31.7-.58 59.06-.55 83.67 0m-83.67 0c25.77.69 49.91-.56 83.67 0m0 0c1.77 6.43-.36 16.99 0 35m0-35c-.24 14.27-.17 25.66 0 35m0 0c-19.18.53-42 1.41-83.67 0m83.67 0c-23.47-.95-47.91-.41-83.67 0m0 0c.62-9.48.55-15.95 0-35m0 35c.48-13.06.02-26.21 0-35"/></g><text x="22.758" fill="#1e1e1e" fill-opacity=".9" stroke-opacity=".9" dominant-baseline="text-before-edge" font-family="Virgil, Segoe UI Emoji" font-size="19.677" style="white-space:pre" text-anchor="middle" transform="translate(98.61 50.732)">name</text><g stroke-linecap="round"><path fill="#b2f2bb" stroke-width="0" d="m165.996 44.961 121.26 2.96 1.12 34.25-123.15-2.03"/><path fill="none" stroke="#1e1e1e" d="M164.646 46.131c36.08.86 71.97 2.01 123.57 0m-123.57 0c43.01 1.01 87.16 1.72 123.57 0m0 0c1.52 9.36.04 16.53 0 35m0-35c-.66 14.81.69 28.51 0 35m0 0c-36.49.63-74.17 1.72-123.57 0m123.57 0c-34.68.93-67.34.76-123.57 0m0 0c1.49-5.63 1.15-12.93 0-35m0 35c-.19-12.28.83-22.42 0-35"/></g><text x="25.256" fill="#1e1e1e" fill-opacity=".9" stroke-opacity=".9" dominant-baseline="text-before-edge" font-family="Virgil, Segoe UI Emoji" font-size="19.677" style="white-space:pre" text-anchor="middle" transform="translate(201.177 51.333)">value</text><g stroke-linecap="round"><path fill="#a5d8ff" stroke-width="0" d="M520.58 157.543h111.2v35h-111.2"/><path fill="none" stroke="#1e1e1e" stroke-width="2" d="M520.58 157.543h111.2m-111.2 0h111.2m0 0v35m0-35v35m0 0h-111.2m111.2 0h-111.2m0 0v-35m0 35v-35"/></g><text x="25.256" fill="#1e1e1e" fill-opacity=".9" stroke-opacity=".9" dominant-baseline="text-before-edge" font-family="Virgil, Segoe UI Emoji" font-size="19.677" style="white-space:pre" text-anchor="middle" transform="translate(550.924 162.744)">value</text><g stroke-linecap="round"><path fill="#a5d8ff" stroke-width="0" d="M436.776 157.543h83.67v35h-83.67"/><path fill="none" stroke="#1e1e1e" stroke-width="2" d="M436.776 157.543h83.67m-83.67 0h83.67m0 0v35m0-35v35m0 0h-83.67m83.67 0h-83.67m0 0v-35m0 35v-35"/></g><text x="23.25" fill="#1e1e1e" fill-opacity=".9" stroke-opacity=".9" dominant-baseline="text-before-edge" font-family="Virgil, Segoe UI Emoji" font-size="19.677" style="white-space:pre" text-anchor="middle" transform="translate(455.362 162.744)">index</text><text fill="#1e1e1e" fill-opacity=".9" stroke-opacity=".9" dominant-baseline="text-before-edge" font-family="Virgil, Segoe UI Emoji" font-size="25.299" style="white-space:pre" transform="translate(10 101.14)">s1</text><text fill="#1e1e1e" dominant-baseline="text-before-edge" font-family="Virgil, Segoe UI Emoji" font-size="20" style="white-space:pre" transform="translate(500.38 122.2)">heap</text><text fill="#1e1e1e" dominant-baseline="text-before-edge" font-family="Virgil, Segoe UI Emoji" font-size="20" style="white-space:pre" transform="translate(154.275 10)">stack</text><path fill="none" stroke="#1e1e1e" stroke-linecap="round" d="M167.994 328.41c33.82 2.7 71.73-.83 122.84 0m-122.84 0c26.21.47 51.27-.18 122.84 0m0 0c1.85 9.26-1.57 18.13 0 35m0-35c-.36 10.59-.33 21.93 0 35m0 0c-38.53-.62-81.99-2.23-122.84 0m122.84 0c-37.45.56-76.69-.56-122.84 0m0 0c-.43-13.75-.6-26.22 0-35m0 35c.5-12.23 1.02-24.88 0-35"/><text x="6.078" fill="#1e1e1e" fill-opacity=".9" stroke-opacity=".9" dominant-baseline="text-before-edge" font-family="Virgil, Segoe UI Emoji" font-size="19.677" style="white-space:pre" text-anchor="middle" transform="translate(223.336 333.612)">5</text><path fill="none" stroke="#1e1e1e" stroke-linecap="round" d="M84.19 329.41c30.22-.24 64.84 1.42 83.67 0m-83.67 0c33.07-.17 66.5.63 83.67 0m0 0c.01 9.67.77 18.61 0 35m0-35c.15 9.42-.71 18.92 0 35m0 0c-25.33-2.09-50.75.77-83.67 0m83.67 0c-27.45-.98-56.01-.91-83.67 0m0 0c1.25-10.66-.84-17.6 0-35m0 35c-1.25-10.52.66-23.04 0-35"/><text x="12.559" fill="#1e1e1e" fill-opacity=".9" stroke-opacity=".9" dominant-baseline="text-before-edge" font-family="Virgil, Segoe UI Emoji" font-size="19.677" style="white-space:pre" text-anchor="middle" transform="translate(113.467 334.612)">len</text><path fill="none" stroke="#1e1e1e" stroke-linecap="round" d="M167.994 297.61c32.67-1.41 62.09-.83 123.57 0m-123.57 0c38.12-1.93 76.03-.98 123.57 0m0 0c-.66 8.59.02 19.02 0 30.82m0-30.82c-.13 9.5-.93 20.83 0 30.82m0 0c-27.28.11-57.53 2.24-123.57 0m123.57 0c-33.27-.7-65.9.23-123.57 0m0 0c.62-5.25.27-15.4 0-30.82m0 30.82c-1.23-11.83-.43-23.35 0-30.82"/><path fill="none" stroke="#1e1e1e" stroke-linecap="round" d="M84.19 294.61c28.42-.01 55.72.28 83.67 0m-83.67 0c32.02.82 65.39 1.2 83.67 0m0 0c-.29 9.76.58 17.27 0 35m0-35c-.73 13.41-.71 26.78 0 35m0 0c-32.49 1.06-62.61.22-83.67 0m83.67 0c-23.03.26-46.46-.79-83.67 0m0 0c.04-13.25 1.51-20.67 0-35m0 35c.18-9.07 1.04-17.62 0-35"/><text x="14.634" fill="#1e1e1e" fill-opacity=".9" stroke-opacity=".9" dominant-baseline="text-before-edge" font-family="Virgil, Segoe UI Emoji" font-size="19.677" style="white-space:pre" text-anchor="middle" transform="translate(111.391 299.813)">ptr</text><path fill="none" stroke="#1e1e1e" stroke-linecap="round" d="M168.862 364.903c36.12-.39 67.01-1.27 123.29 0m-123.29 0c38.39-1.06 77.18-.72 123.29 0m0 0c1.73 11.54-1.59 21.37 0 35m0-35c.45 11.23-.63 20.98 0 35m0 0c-45.99-.52-91.61-.09-123.29 0m123.29 0c-43.71-.36-87.12-.54-123.29 0m0 0c-1.07-8.9-.55-14.31 0-35m0 35c-1.15-9.82-.52-21.57 0-35"/><text x="6.078" fill="#1e1e1e" fill-opacity=".9" stroke-opacity=".9" dominant-baseline="text-before-edge" font-family="Virgil, Segoe UI Emoji" font-size="19.677" style="white-space:pre" text-anchor="middle" transform="translate(224.431 370.105)">5</text><path fill="none" stroke="#1e1e1e" stroke-linecap="round" d="M84.19 364.21c23.4.56 47.27-.16 83.67 0m-83.67 0c21.93.42 42.73.86 83.67 0m0 0c-.09 9.22.02 22.77 0 35m0-35c.55 11.43.14 23.27 0 35m0 0c-20.43-1.83-44.07.25-83.67 0m83.67 0c-28.06.85-53.21-.35-83.67 0m0 0c.15-5.78 1.28-16.18 0-35m0 35c-.26-14.46-.56-27.31 0-35"/><text x="16.346" fill="#1e1e1e" fill-opacity=".9" stroke-opacity=".9" dominant-baseline="text-before-edge" font-family="Virgil, Segoe UI Emoji" font-size="19.677" style="white-space:pre" text-anchor="middle" transform="translate(109.68 369.412)">cap</text><g stroke-linecap="round"><path fill="#b2f2bb" stroke-width="0" d="m83.492 259.985 84.79 2.52.44 32.67-86.08 1.43"/><path fill="none" stroke="#1e1e1e" d="M83.892 261.025c24.27-.35 50.05.84 83.67 0m-83.67 0c28.17-1.53 55.49-.56 83.67 0m0 0c.78 7.17-1.47 17.24 0 35m0-35c-.33 8.94-.12 19.17 0 35m0 0c-17.73 1.63-36.28-1.82-83.67 0m83.67 0c-32.71-.47-63.68-.28-83.67 0m0 0c1.5-13.51-.62-26.65 0-35m0 35c.15-7.97.42-14.13 0-35"/></g><text x="22.758" fill="#1e1e1e" fill-opacity=".9" stroke-opacity=".9" dominant-baseline="text-before-edge" font-family="Virgil, Segoe UI Emoji" font-size="19.677" style="white-space:pre" text-anchor="middle" transform="translate(102.97 266.226)">name</text><g stroke-linecap="round"><path fill="#b2f2bb" stroke-width="0" d="m170.166 260.775 121.17 1.43-.74 35.96-121.18-2.73"/><path fill="none" stroke="#1e1e1e" d="M169.006 261.625c33.78-1.52 67.71-.23 123.57 0m-123.57 0c25.69.03 53.55.23 123.57 0m0 0c-.95 9.71-.81 17.5 0 35m0-35c-.89 8.75.14 18.71 0 35m0 0c-44.47.6-92.92-3.13-123.57 0m123.57 0c-34.69.68-71.7.92-123.57 0m0 0c-1.83-10.87-.52-19.27 0-35m0 35c-.27-8.24.29-14.71 0-35"/></g><text x="25.256" fill="#1e1e1e" fill-opacity=".9" stroke-opacity=".9" dominant-baseline="text-before-edge" font-family="Virgil, Segoe UI Emoji" font-size="19.677" style="white-space:pre" text-anchor="middle" transform="translate(205.537 266.827)">value</text><text fill="#1e1e1e" fill-opacity=".9" stroke-opacity=".9" dominant-baseline="text-before-edge" font-family="Virgil, Segoe UI Emoji" font-size="25.299" style="white-space:pre" transform="translate(14.36 316.634)">s2</text><g stroke-linecap="round"><path fill="none" stroke="#1971c2" stroke-width="4" d="M281.304 315.805c23.57-17.14 117.85-85.7 141.42-102.83m-141.42 102.83c23.57-17.14 117.85-85.7 141.42-102.83"/><path fill="#1971c2" fill-rule="evenodd" stroke-width="0" d="m422.724 212.975-7.26 13.12-7.46-10.26z"/><path fill="none" stroke="#1971c2" stroke-width="4" d="M422.724 212.975c-1.6 2.88-3.2 5.77-7.26 13.12m7.26-13.12c-2.44 4.4-4.87 8.8-7.26 13.12m0 0c-2.41-3.32-4.82-6.63-7.46-10.26m7.46 10.26c-2.33-3.2-4.66-6.4-7.46-10.26m0 0 14.72-2.86m-14.72 2.86c5.39-1.05 10.79-2.1 14.72-2.86m0 0q0 0 0 0m0 0q0 0 0 0"/></g></svg>