<svg xmlns="http://www.w3.org/2000/svg" preserveAspectRatio="xMinYMin meet" viewBox="0 0 633 242"><svg id="d2-svg" width="633" height="242" class="d2-323379288" viewBox="0 0 633 242"><rect width="633" height="242" stroke-width="0" rx="0" style="fill:#fff"/><style>@keyframes dashdraw{0%{stroke-dashoffset:0}}.d2-323379288 .text-mono{font-family:&quot;d2-323379288-font-mono&quot;}@font-face{font-family:d2-323379288-font-mono;src:url(/stylesheets/font/Virgil-hand.woff2)}.d2-323379288 .text-mono-bold{font-family:&quot;d2-323379288-font-mono-bold&quot;}@font-face{font-family:d2-323379288-font-mono-bold;src:url(/stylesheets/font/Virgil-hand.woff2)}.connection,.shape{stroke-linejoin:round}.shape{shape-rendering:geometricPrecision}.connection{stroke-linecap:round}.d2-323379288 .fill-N1{fill:#000410}.d2-323379288 .fill-B5{fill:#f5f6f9}.d2-323379288 .fill-B6{fill:#fff}.d2-323379288 .stroke-B1{stroke:#000410}@media screen and (prefers-color-scheme:dark){.d2-323379288 .fill-N1{fill:#cdd6f4}.d2-323379288 .fill-B5{fill:#45475a}.d2-323379288 .fill-B6{fill:#313244}.d2-323379288 .stroke-B1{stroke:#cba6f7}}.dots-overlay{fill:url(#dots);mix-blend-mode:multiply}</style><defs><pattern id="dots" width="15" height="15" x="0" y="0" patternUnits="userSpaceOnUse"><path fill="#0A0F25" d="M2 2h1v1H2zM12 2h1v1h-1zM12 12h1v1h-1zM2 12h1v1H2zM2 7h1v1H2zM12 7h1v1h-1zM7 2h1v1H7zM7 12h1v1H7zM7 7h1v1H7z" opacity=".1" style="mix-blend-mode:multiply"/></pattern></defs><defs><filter id="shadow-filter" width="200%" height="200%" x="-50%" y="-50%"><feGaussianBlur in="SourceGraphic" stdDeviation="1.7"/><feFlood flood-color="#3d4574" flood-opacity=".4" result="ShadowFeFlood"/><feComposite in="ShadowFeFlood" in2="SourceAlpha" operator="in" result="ShadowFeComposite"/><feOffset dx="3" dy="5" in="ShadowFeComposite" result="ShadowFeOffset"/><feBlend in="SourceGraphic" in2="ShadowFeOffset" result="ShadowFeBlend"/></filter></defs><g id="top-row" class="empty"><g class="shape"><path fill="transparent" d="M0 0h633v242H0z" class="stroke-B1" style="stroke-width:0"/><path d="M0 0h633v242H0z" class="dots-overlay" style="stroke-width:0"/><path fill="transparent" d="M5 5h623v232H5z" class="stroke-B1" style="stroke-width:0"/></g></g><g id="top-row.stack"><g class="shape" filter="url(#shadow-filter)"><path d="M93 60h480v41H93z" class="stroke-B1 fill-B5" style="stroke-width:2"/><path d="M93 60h480v41H93z" class="dots-overlay" style="stroke-width:2"/></g><text x="74" y="89" class="text-mono fill-N1" style="text-anchor:middle;font-size:24px">栈</text></g><g id="top-row.heap"><g class="shape" filter="url(#shadow-filter)"><path d="M93 141h480v41H93z" class="stroke-B1 fill-B5" style="stroke-width:2"/><path d="M93 141h480v41H93z" class="dots-overlay" style="stroke-width:2"/></g><text x="74" y="170" class="text-mono fill-N1" style="text-anchor:middle;font-size:24px">堆</text></g><g id="top-row.stack.len"><g class="shape"><path d="M93 60h160v41H93z" class="stroke-B1 fill-B6" style="stroke-width:2"/></g><text x="173" y="86" class="text-mono-bold fill-N1" style="text-anchor:middle;font-size:16px">len</text></g><g id="top-row.stack.ptr"><g class="shape"><path fill="#f0fff0" d="M253 60h160v41H253z" class="stroke-B1" style="stroke-width:2"/></g><text x="333" y="86" class="text-mono-bold fill-N1" style="text-anchor:middle;font-size:16px">ptr</text></g><g id="top-row.stack.capacity"><g class="shape"><path d="M413 60h160v41H413z" class="stroke-B1 fill-B6" style="stroke-width:2"/></g><text x="493" y="86" class="text-mono-bold fill-N1" style="text-anchor:middle;font-size:16px">capacity</text></g><g id="top-row.heap.pad0" class="invisible"><g class="shape"><path d="M93 141h80v41H93z" class="stroke-B1 fill-B6" style="stroke-width:2"/></g></g><g id="top-row.heap.pad1" class="invisible"><g class="shape"><path d="M173 141h20v41h-20z" class="stroke-B1 fill-B6" style="stroke-width:2"/></g></g><g id="top-row.heap.pad2" class="invisible"><g class="shape"><path d="M193 141h20v41h-20z" class="stroke-B1 fill-B6" style="stroke-width:2"/></g></g><g id="top-row.heap.pad3" class="invisible"><g class="shape"><path d="M213 141h20v41h-20z" class="stroke-B1 fill-B6" style="stroke-width:2"/></g></g><g id="top-row.heap.5"><g class="shape"><path d="M233 141h20v41h-20z" class="stroke-B1 fill-B6" style="stroke-width:2"/></g><text x="243" y="167" class="text-mono-bold fill-N1" style="text-anchor:middle;font-size:16px">5</text></g><g id="top-row.heap.4"><g class="shape"><path d="M253 141h20v41h-20z" class="stroke-B1 fill-B6" style="stroke-width:2"/></g><text x="263" y="167" class="text-mono-bold fill-N1" style="text-anchor:middle;font-size:16px">4</text></g><g id="top-row.heap.3"><g class="shape"><path d="M273 141h20v41h-20z" class="stroke-B1 fill-B6" style="stroke-width:2"/></g><text x="283" y="167" class="text-mono-bold fill-N1" style="text-anchor:middle;font-size:16px">3</text></g><g id="top-row.heap.2"><g class="shape"><path d="M293 141h20v41h-20z" class="stroke-B1 fill-B6" style="stroke-width:2"/></g><text x="303" y="167" class="text-mono-bold fill-N1" style="text-anchor:middle;font-size:16px">2</text></g><g id="top-row.heap.1"><g class="shape"><path d="M313 141h20v41h-20z" class="stroke-B1 fill-B6" style="stroke-width:2"/></g><text x="323" y="167" class="text-mono-bold fill-N1" style="text-anchor:middle;font-size:16px">1</text></g><g id="top-row.heap.pad4" class="invisible"><g class="shape"><path d="M333 141h240v41H333z" class="stroke-B1 fill-B6" style="stroke-width:2"/></g></g><g id="top-row.(stack.ptr -&gt; heap.1)[0]"><marker id="mk-2177206569" markerHeight="12" markerUnits="userSpaceOnUse" markerWidth="10" orient="auto" refX="7" refY="6" viewBox="0 0 10 12"><path stroke-width="2" d="m0 0 10 6-10 6z" class="connection" style="fill:#000410"/></marker><path fill="none" marker-end="url(#mk-2177206569)" d="m329.758 102.485-4.274 35.044" class="connection animated-connection" mask="url(#d2-323379288)" style="stroke:#000410;stroke-width:2;stroke-dasharray:6,5.919384;stroke-dashoffset:-119.193836;animation:dashdraw 2.959692s linear infinite"/></g><mask id="d2-323379288" width="633" height="242" x="0" y="0" maskUnits="userSpaceOnUse"><path fill="#fff" d="M0 0h633v242H0z"/><path fill="rgba(0,0,0,0.75)" d="M60 65h28v31H60zM60 146h28v31H60zM158.5 70h29v21h-29zM319 70h28v21h-28zM454.5 70h77v21h-77zM238.5 151h9v21h-9zM258.5 151h9v21h-9zM278.5 151h9v21h-9zM298.5 151h9v21h-9zM319 151h8v21h-8z"/></mask></svg></svg>