<svg xmlns="http://www.w3.org/2000/svg" width="675.163" height="370.605"><defs><style>@font-face{font-family:&quot;Virgil&quot;;src:url(https://unpkg.com/@excalidraw/excalidraw@undefined/dist/excalidraw-assets/Virgil.woff2)}@font-face{font-family:&quot;Cascadia&quot;;src:url(https://unpkg.com/@excalidraw/excalidraw@undefined/dist/excalidraw-assets/Cascadia.woff2)}@font-face{font-family:&quot;Assistant&quot;;src:url(https://unpkg.com/@excalidraw/excalidraw@undefined/dist/excalidraw-assets/Assistant-Regular.woff2)}</style></defs><path fill="#fff" d="M0 0h675.163v370.605H0z"/><path fill="none" stroke="#000" stroke-linecap="round" d="M95.84 144.945c47.68.41 95.12.76 135.6 0m-135.6 0c31.22.65 62.81-.26 135.6 0m0 0c-2.27 13.47.05 27.95 0 52.06m0-52.06c-.48 12.5-.29 24.71 0 52.06m0 0c-37.82.7-78.44-2.12-135.6 0m135.6 0c-49.72-1.32-100.15-1.11-135.6 0m0 0c-.81-20.85-.54-42.67 0-52.06m0 52.06c.07-16.23-.34-31.38 0-52.06"/><path fill="none" stroke="#5c940d" stroke-linecap="round" d="M94.587 199.798c45.31.61 88.47-1.57 136 0m-136 0c34.46-.89 67.08-.7 136 0m0 0c-.02 18.43-1.76 39.67 0 53m0-53c-.93 11.39-.57 21.93 0 53m0 0c-41.21-1.38-77.02 1.71-136 0m136 0c-28.31-.19-57.5-.5-136 0m0 0c-.42-19.68.2-37.12 0-53m0 53c-.42-20.89 0-41.19 0-53"/><text x="52.492" fill="#5c940d" dominant-baseline="text-before-edge" font-family="Helvetica, Segoe UI Emoji" font-size="16" style="white-space:pre" text-anchor="middle" transform="translate(110.095 216.798)">0xc000090000</text><path fill="none" stroke="#000" stroke-linecap="round" d="M94.86 253.223c47.57 1.13 97.11 2.3 135.6 0m-135.6 0c28.12.14 54.46 1.3 135.6 0m0 0c-2.06 11.81.02 25.43 0 52.06m0-52.06c-.21 16.19.33 30.98 0 52.06m0 0c-29.09 2.4-55.1 2.62-135.6 0m135.6 0c-40.74-.84-82.5-.7-135.6 0m0 0c1.75-12.27-1.46-25.29 0-52.06m0 52.06c-.19-13.41-.73-27.68 0-52.06M93.81 308.546c33.7 1.31 65.69-.76 135.6 0m-135.6 0c29.54 1.49 59.58.62 135.6 0m0 0c-.1 17.1-.31 36.03 0 52.06m0-52.06c.36 10.95-1.05 24.61 0 52.06m0 0c-48.65 2.97-96.54 3.05-135.6 0m135.6 0c-37.14-.98-74.76-.67-135.6 0m0 0c-1.92-15.53-1.24-29.34 0-52.06m0 52.06c-.63-15.07-.01-29.23 0-52.06"/><text dominant-baseline="text-before-edge" font-family="Helvetica, Segoe UI Emoji" font-size="16" style="white-space:pre" transform="translate(10 221.978)">closure</text><path fill="none" stroke="#000" stroke-linecap="round" d="M413.287 38.94c50.06 1.61 101.41-.65 135.6 0m-135.6 0c44.35-.01 86.97 1.04 135.6 0m0 0c-1.38 12.54.45 26.39 0 52.06m0-52.06c.05 9.62.3 20.78 0 52.06m0 0c-53.83 2.25-107.53 1.15-135.6 0m135.6 0c-36.29.83-72.24-.77-135.6 0m0 0c-.22-13.75.52-28.17 0-52.06m0 52.06c.98-12.1.98-25.71 0-52.06"/><path fill="none" stroke="#000" stroke-linecap="round" d="M414.033 93.792c35.83-1.84 75.85-1.79 136 0m-136 0c31.45 1.35 63.82 1.25 136 0m0 0c.04 15.8-2.35 27.93 0 53m0-53c1.11 19.58 1.23 39.54 0 53m0 0c-54.98.47-108.74-.68-136 0m136 0c-40.5.44-81.38.78-136 0m0 0c.43-17.3-.97-31.89 0-53m0 53c.44-15.04-.2-30.4 0-53"/><path fill="none" stroke="#5c940d" stroke-linecap="round" d="M414.104 146.747c50.09-.25 97.97 1.64 136 0m-136 0c28.5-.17 57.91-.95 136 0m0 0c-1.87 13.33 1.56 31.71 0 53m0-53c1.36 11.43 1.41 22.52 0 53m0 0c-47.82-1.42-94.35-.48-136 0m136 0c-53.02-1.39-105.18-1.21-136 0m0 0c-1.17-15.06-.45-27.83 0-53m0 53c-.2-20.15.26-38.5 0-53"/><text x="61.164" fill="#5c940d" dominant-baseline="text-before-edge" font-family="Helvetica, Segoe UI Emoji" font-size="16" style="white-space:pre" text-anchor="middle" transform="translate(420.94 163.747)">x=0xc00008e000</text><path fill="none" stroke="#5c940d" stroke-linecap="round" d="M413.053 202.07c32.92-2.13 69.65-1.77 136 0m-136 0c41.64 1.17 83.95-.03 136 0m0 0c-1.31 12.34.05 23.26 0 53m0-53c.98 15.63.43 31.88 0 53m0 0c-30.16-.31-65.25-1.12-136 0m136 0c-35.64-.13-71.62-.83-136 0m0 0c1.49-13.44-.13-30 0-53m0 53c-.44-12.81.55-25.36 0-53"/><text x="49.152" fill="#5c940d" dominant-baseline="text-before-edge" font-family="Helvetica, Segoe UI Emoji" font-size="16" style="white-space:pre" text-anchor="middle" transform="translate(431.9 219.07)">F=0x1057820</text><text dominant-baseline="text-before-edge" font-family="Helvetica, Segoe UI Emoji" font-size="16" style="white-space:pre" transform="translate(560.179 244.836)">0xc000090000</text><path fill="none" stroke="#000" stroke-linecap="round" d="M412.386 255.013c31.84.01 66.93 1.1 135.6 0m-135.6 0c27.85-1.84 55.38-1.15 135.6 0m0 0c-.52 21.39-.93 40.75 0 52.06m0-52.06c-.53 14.73-.37 26.99 0 52.06m0 0c-35.2-.42-69.24-1.49-135.6 0m135.6 0c-32.43.45-65.76-.36-135.6 0m0 0c1.68-17.21.62-32.35 0-52.06m0 52.06c-.58-17.75.28-37.38 0-52.06M413.338 308.334c38.64 1.01 74.49-1.81 135.6 0m-135.6 0c51.35.98 102 1.19 135.6 0m0 0c-1.09 20.52-.82 40.05 0 52.06m0-52.06c-.13 14.76-.54 30.59 0 52.06m0 0c-40.18-1.74-82.07-.51-135.6 0m135.6 0c-37.26.83-76.07.39-135.6 0m0 0c-.03-17.66.8-37.63 0-52.06m0 52.06c.77-20-.53-40.8 0-52.06"/><text dominant-baseline="text-before-edge" font-family="Helvetica, Segoe UI Emoji" font-size="16" style="white-space:pre" transform="translate(477.59 10)">堆</text><text dominant-baseline="text-before-edge" font-family="Helvetica, Segoe UI Emoji" font-size="16" style="white-space:pre" transform="translate(153.798 108.297)">栈</text><g stroke-linecap="round"><path fill="none" stroke="#000" d="M240.414 225.457c30.01 4.23 148.49 22.71 178.22 27.3m-179.33-25.22c30.04 4.34 149.01 22.18 178.89 26.65"/><path fill-rule="evenodd" stroke-width="0" d="m417.054 254.667-14.48 2.5 2.49-12.96 13.32 10.69"/><path fill="none" stroke="#000" d="M418.194 254.187c-4.15 2.17-6.03 3.2-14.38 4.26m14.38-4.26c-3.98.9-8.76 2.3-14.38 4.26m0 0c1.54-2.98-.05-6.43 1.88-12.54m-1.88 12.54c.36-3.17.51-6.88 1.88-12.54m0 0c4.64 3.66 7.03 5.1 12.5 8.28m-12.5-8.28c3.09 2.06 6.89 4.4 12.5 8.28m0 0q0 0 0 0m0 0q0 0 0 0"/></g></svg>