<svg xmlns="http://www.w3.org/2000/svg" preserveAspectRatio="xMinYMin meet" viewBox="0 0 265 265"><svg id="d2-svg" width="265" height="265" class="d2-477472391" viewBox="-1 0 265 265"><rect width="265" height="265" x="-1" stroke-width="0" rx="0" style="fill:#fff"/><style>@keyframes dashdraw{0%{stroke-dashoffset:0}}.d2-477472391 .text-mono{font-family:&quot;d2-477472391-font-mono&quot;}@font-face{font-family:d2-477472391-font-mono;src:url(/stylesheets/font/Virgil-hand.woff2)}.d2-477472391 .text-mono-bold{font-family:&quot;d2-477472391-font-mono-bold&quot;}@font-face{font-family:d2-477472391-font-mono-bold;src:url(/stylesheets/font/Virgil-hand.woff2)}.connection,.shape{stroke-linejoin:round}.shape{shape-rendering:geometricPrecision}.connection{stroke-linecap:round}.d2-477472391 .fill-N1{fill:#000410}.d2-477472391 .fill-B5{fill:#f5f6f9}.d2-477472391 .fill-B6{fill:#fff}.d2-477472391 .stroke-B1,.d2-477472391 .stroke-B2{stroke:#000410}@media screen and (prefers-color-scheme:dark){.d2-477472391 .fill-N1{fill:#cdd6f4}.d2-477472391 .fill-B5{fill:#45475a}.d2-477472391 .fill-B6{fill:#313244}.d2-477472391 .stroke-B1,.d2-477472391 .stroke-B2{stroke:#cba6f7}}.dots-overlay{fill:url(#dots);mix-blend-mode:multiply}</style><defs><pattern id="dots" width="15" height="15" x="0" y="0" patternUnits="userSpaceOnUse"><path fill="#0A0F25" d="M2 2h1v1H2zM12 2h1v1h-1zM12 12h1v1h-1zM2 12h1v1H2zM2 7h1v1H2zM12 7h1v1h-1zM7 2h1v1H7zM7 12h1v1H7zM7 7h1v1H7z" opacity=".1" style="mix-blend-mode:multiply"/></pattern></defs><defs><filter id="shadow-filter" width="200%" height="200%" x="-50%" y="-50%"><feGaussianBlur in="SourceGraphic" stdDeviation="1.7"/><feFlood flood-color="#3d4574" flood-opacity=".4" result="ShadowFeFlood"/><feComposite in="ShadowFeFlood" in2="SourceAlpha" operator="in" result="ShadowFeComposite"/><feOffset dx="3" dy="5" in="ShadowFeComposite" result="ShadowFeOffset"/><feBlend in="SourceGraphic" in2="ShadowFeOffset" result="ShadowFeBlend"/></filter></defs><g id="top-row" class="empty"><g class="shape"><path fill="transparent" d="M0 0h260v259H0z" class="stroke-B1" style="stroke-width:0"/><path d="M0 0h260v259H0z" class="dots-overlay" style="stroke-width:0"/><path fill="transparent" d="M5 5h250v249H5z" class="stroke-B1" style="stroke-width:0"/></g></g><g id="top-row.stack"><g class="shape" filter="url(#shadow-filter)"><path d="M0 36h80v223H0z" class="stroke-B1 fill-B5" style="stroke-width:2"/><path d="M0 36h80v223H0z" class="dots-overlay" style="stroke-width:2"/></g><text x="40" y="24" class="text-mono fill-N1" style="text-anchor:middle;font-size:24px">栈</text></g><g id="top-row.blank" class="empty"><g class="shape"><path fill="transparent" d="M80 0h100v259H80z" class="stroke-B1" style="stroke-width:0"/></g></g><g id="top-row.heap"><g class="shape" filter="url(#shadow-filter)"><path d="M180 36h80v223h-80z" class="stroke-B1 fill-B5" style="stroke-width:2"/><path d="M180 36h80v223h-80z" class="dots-overlay" style="stroke-width:2"/></g><text x="220" y="24" class="text-mono fill-N1" style="text-anchor:middle;font-size:24px">堆</text></g><g id="top-row.stack.pad1" class="invisible"><g class="shape"><path fill="transparent" d="M0 36h80v80H0z" class="stroke-B1" style="stroke-width:2"/></g></g><g id="top-row.stack.c"><g class="shape"><path d="M0 116h80v21H0z" class="stroke-B1 fill-B6" style="stroke-width:2"/></g><text x="40" y="132" class="text-mono-bold fill-N1" style="text-anchor:middle;font-size:16px">c</text></g><g id="top-row.stack.a"><g class="shape"><path d="M0 137h80v21H0z" class="stroke-B1 fill-B6" style="stroke-width:2"/></g><text x="40" y="153" class="text-mono-bold fill-N1" style="text-anchor:middle;font-size:16px">a</text></g><g id="top-row.stack.b"><g class="shape"><path fill="#f0fff0" d="M0 158h80v21H0z" class="stroke-B1" style="stroke-width:2"/></g><text x="40" y="174" class="text-mono-bold fill-N1" style="text-anchor:middle;font-size:16px">b</text></g><g id="top-row.stack.pad3" class="invisible"><g class="shape"><path fill="transparent" d="M0 179h80v80H0z" class="stroke-B1" style="stroke-width:2"/></g></g><g id="top-row.heap.pad0" class="invisible"><g class="shape"><path fill="transparent" d="M180 36h80v80h-80z" class="stroke-B1" style="stroke-width:2"/></g></g><g id="top-row.heap.a"><g class="shape"><path d="M180 116h80v21h-80z" class="stroke-B1 fill-B6" style="stroke-width:2"/></g><text x="220" y="132" class="text-mono-bold fill-N1" style="text-anchor:middle;font-size:16px">&amp;a</text></g><g id="top-row.heap.pad1" class="invisible"><g class="shape"><path fill="transparent" d="M180 137h80v20h-80z" class="stroke-B1" style="stroke-width:2"/></g></g><g id="top-row.heap.5"><g class="shape"><path fill="#f0fff0" d="M180 157h80v21h-80z" class="stroke-B1" style="stroke-width:2"/></g><text x="220" y="173" class="text-mono-bold fill-N1" style="text-anchor:middle;font-size:16px">5</text></g><g id="top-row.heap.pad4" class="invisible"><g class="shape"><path fill="transparent" d="M180 178h80v80h-80z" class="stroke-B1" style="stroke-width:2"/></g></g><g id="top-row.(stack.b -&gt; heap.5)[0]"><marker id="mk-2177206569" markerHeight="12" markerUnits="userSpaceOnUse" markerWidth="10" orient="auto" refX="7" refY="6" viewBox="0 0 10 12"><path stroke-width="2" d="m0 0 10 6-10 6z" class="connection" style="fill:#000410"/></marker><path fill="none" marker-end="url(#mk-2177206569)" d="m82 168.48 94-.94" class="connection animated-connection stroke-B2" mask="url(#d2-477472391)" style="stroke-width:2;stroke-dasharray:6,5.919384;stroke-dashoffset:-119.193836;animation:dashdraw 2.959692s linear infinite"/></g><path id="top-row.(stack.c -&gt; heap.a)[0]" fill="none" marker-end="url(#mk-2177206569)" d="M82 126.5h94" class="connection animated-connection stroke-B2" mask="url(#d2-477472391)" style="stroke-width:2;stroke-dasharray:6,5.919384;stroke-dashoffset:-119.193836;animation:dashdraw 2.959692s linear infinite"/><path id="top-row.(heap.a -&gt; stack.a)[0]" fill="none" marker-end="url(#mk-2177206569)" d="m178.012 131.719-94.036 10.344" class="connection animated-connection stroke-B2" mask="url(#d2-477472391)" style="stroke-width:2;stroke-dasharray:6,5.919384;stroke-dashoffset:-119.193836;animation:dashdraw 2.959692s linear infinite"/><mask id="d2-477472391" width="265" height="265" x="-1" y="0" maskUnits="userSpaceOnUse"><path fill="#fff" d="M-1 0h265v265H-1z"/><path fill="rgba(0,0,0,0.75)" d="M26 0h28v31H26zM206 0h28v31h-28zM36 116h8v21h-8zM35.5 137h9v21h-9zM36 158h8v21h-8zM210.5 116h19v21h-19zM215.5 157h9v21h-9z"/></mask></svg></svg>