<svg xmlns="http://www.w3.org/2000/svg" width="471" height="568" preserveAspectRatio="none" style="width:471px;height:568px;background:#fff"><defs><filter id="a" width="300%" height="300%" x="-1" y="-1"><feGaussianBlur result="blurOut" stdDeviation="2"/><feColorMatrix in="blurOut" result="blurOut2" values="0 0 0 0 0 0 0 0 0 0 0 0 0 0 0 0 0 0 .4 0"/><feOffset dx="4" dy="4" in="blurOut2" result="blurOut3"/><feBlend in="SourceGraphic" in2="blurOut3"/></filter></defs><text x="399" y="19.282" fill="#888" font-family="sans-serif" font-size="10" textLength="52">made by x</text><text x="188.5" y="45.636" font-family="sans-serif" font-size="14" font-weight="bold" textLength="84">语句和表达式</text><rect width="66" height="40.297" x="10" y="154.68" fill="#A8EB99" filter="url(#a)" rx="7.5" ry="7.5" style="stroke:#000;stroke-width:1"/><text x="22" y="179.675" font-family="sans-serif" font-size="14" textLength="42">表达式</text><rect width="52" height="40.297" x="126" y="154.68" fill="#EAB8DE" filter="url(#a)" rx="7.5" ry="7.5" style="stroke:#000;stroke-width:1"/><text x="138" y="179.675" font-family="sans-serif" font-size="14" textLength="28">概念</text><rect width="224" height="40.297" x="228" y="69.938" fill="#FBC" filter="url(#a)" rx="7.5" ry="7.5" style="stroke:#000;stroke-width:1"/><text x="240" y="94.933" font-family="sans-serif" font-size="14" textLength="200">一个代码片段,它能够计算产生值</text><path fill="none" d="M178 174.828h10c15 0 15-84.742 30-84.742h10" style="stroke:red;stroke-width:1;stroke-dasharray:5,5"/><rect width="136" height="56.594" x="228" y="130.234" fill="#FBE972" filter="url(#a)" rx="7.5" ry="7.5" style="stroke:#000;stroke-width:1"/><text x="245" y="155.23" font-family="sans-serif" font-size="14" textLength="102">所以它有返回值,</text><text x="240" y="171.526" font-family="sans-serif" font-size="14" textLength="112">所以表达式有类型</text><path fill="none" d="M178 174.828h10c15 0 15-16.297 30-16.297h10" style="stroke:red;stroke-width:1;stroke-dasharray:5,5"/><rect width="117" height="72.891" x="228" y="206.828" fill="#FBE972" filter="url(#a)" rx="7.5" ry="7.5" style="stroke:#000;stroke-width:1"/><text x="243" y="231.823" font-family="sans-serif" font-size="14" textLength="28">不以</text><text x="271" y="231.823" font-family="sans-serif" font-size="14" textLength="4"> </text><text x="275" y="231.823" font-family="sans-serif" font-size="14" textLength="5">;</text><text x="280" y="231.823" font-family="sans-serif" font-size="14" textLength="4"> </text><text x="284" y="231.823" font-family="sans-serif" font-size="14" textLength="46">号结尾,</text><text x="240" y="248.12" font-family="sans-serif" font-size="14" textLength="84">如果后面加上</text><text x="324" y="248.12" font-family="sans-serif" font-size="14" textLength="4"> </text><text x="328" y="248.12" font-family="sans-serif" font-size="14" textLength="5">;</text><text x="251.5" y="264.417" font-family="sans-serif" font-size="14" textLength="70">则变成语句</text><path fill="none" d="M178 174.828h10c15 0 15 68.445 30 68.445h10" style="stroke:red;stroke-width:1;stroke-dasharray:5,5"/><path fill="none" d="M76 174.828h50" style="stroke:green;stroke-width:1;stroke-dasharray:5,5"/><rect width="52" height="40.297" x="10" y="354.313" fill="#A8EB99" filter="url(#a)" rx="7.5" ry="7.5" style="stroke:#000;stroke-width:1"/><text x="22" y="379.308" font-family="sans-serif" font-size="14" textLength="28">语句</text><rect width="150" height="72.891" x="112" y="299.719" fill="#FBE972" filter="url(#a)" rx="7.5" ry="7.5" style="stroke:#000;stroke-width:1"/><text x="129" y="324.714" font-family="sans-serif" font-size="14" textLength="116">表示执行一种动作,</text><text x="150" y="341.011" font-family="sans-serif" font-size="14" textLength="74">没有返回值,</text><text x="124" y="357.308" font-family="sans-serif" font-size="14" textLength="126">但是有类型,类型是()</text><path fill="none" d="M62 374.46h10c15 0 15-38.296 30-38.296h10" style="stroke:green;stroke-width:1;stroke-dasharray:5,5"/><rect width="108" height="56.594" x="112" y="392.609" fill="#FBE972" filter="url(#a)" rx="7.5" ry="7.5" style="stroke:#000;stroke-width:1"/><text x="128.5" y="417.604" font-family="sans-serif" font-size="14" textLength="75">表达式加上;</text><text x="124" y="433.901" font-family="sans-serif" font-size="14" textLength="84">就变成了语句</text><path fill="none" d="M62 374.46h10c15 0 15 46.446 30 46.446h10" style="stroke:green;stroke-width:1;stroke-dasharray:5,5"/><rect width="68" height="52.594" x="371" y="471.203" fill="#F3FBEC" rx=".5" ry=".5" style="stroke:#f3fbec;stroke-width:1;stroke-dasharray:4,4"/><text x="381" y="494.198" fill="gray" font-family="sans-serif" font-size="14" textLength="37">Short</text><text x="381" y="510.495" fill="gray" font-family="sans-serif" font-size="14" textLength="48">legend</text><text x="217" y="550.792" font-family="sans-serif" font-size="14" textLength="27">图 1</text></svg>