<svg xmlns="http://www.w3.org/2000/svg" width="659.375" height="476.042" preserveAspectRatio="none" style="width:659px;height:476px;background:#fff" viewBox="0 0 659 476"><path fill="none" d="M255.208 20.833v.22l10.417-.651 10.417.633 10.416.215 10.417-1.16 10.417.662 10.416-.363 10.417.045 10.417.328 10.416-.649 10.417 1.297 10.417-1.233 10.416.45 10.417.656 10.417-.45-.012-.027.61.293.576.212.617.312.597.263.558.168.188.078.271.6.247.59.108.533.311.617.095.528h.244l-.494 7.767.486 7.767-.339 7.767.289 7.767-.186 7.767-.159-.066-.107.646.016.697-.498.484-.194.61-.278.575.045.108-.579.27-.645.109-.55.337-.704-.031-.513.427v.296l-10.417.275-10.417-.108-10.416.176-10.417-1.142-10.417-.176-10.416.032-10.417.586-10.417-.143-10.416.914-10.417-.892-10.417-.175-10.416.595-10.417-.932-10.417.694-.069-.166-.434.13-.617-.312-.55-.148-.73-.583-.546-.141.102.042-.157-.553-.585-.73-.123-.54-.173-.56-.284-.605h.226l-.228-7.767.162-7.767-.353-7.767-.042-7.767.235-7.767.161.067-.147-.751.637-.427.147-.63.092-.652.33-.553-.047-.114.697.017.489-.488.707.042.438-.61z" style="stroke:#4d4d4d;stroke-width:1.0416666666666667"/><text x="262.5" y="51.63" fill="#2E2E2E" font-size="20.833" font-weight="bold" textLength="131.25">访问k8s 服务</text><path fill="none" d="M44.792 80.501v.22l10.88-.651 10.879.633 10.88.215 10.88-1.16 10.879.662 10.88-.363 10.88.045 10.879.328 10.88.071-.093-.222.755.644.432-.136.647.383.673.446.532.106-.028-.012.294.61.212.576.311.617.264.597.167.558h.203l.03 6.797.003 6.797-.148 6.797.073 6.797-.161 6.796.225.094-.7.4.204.775-.556.46.022.7-.415.518-.066-.16-.533.382-.481.504-.695-.01-.568.294-.604.21v.353l-10.88.08-10.879-.437-10.88.303-10.88-.895-10.879.892-10.88.275-10.88-.108-10.879.176-10.88-.639-.063-.155-.612-.298-.585-.234-.515-.064-.608-.288-.563-.181.219.09-.519-.703-.298-.612-.06-.513-.532-.708-.03-.5h-.18l.405-6.797-.074-6.797.104-6.797-.367-6.797.112-6.797.102.042.332-.553-.097-.73.364-.54.316-.56.203-.605.087.209.502-.455.651-.094.455-.57.572-.284z" style="stroke:#333;stroke-width:1.0416666666666667"/><text x="52.083" y="107.43" fill="#2E2E2E" font-size="16.667" textLength="83.333">浏览器访问</text><path fill="none" d="M52.083 143.652v.22l10.417-.651 10.417.633 10.416.215 10.417-1.16 10.417.662 10.416-.363 10.417.045 10.417.4-.01-.022.507.044.755.643.432-.136.646.383.616.308.138.057.078.52.294.61.212.576.311.618.187.565h.083l.12 6.797.03 6.797.003 6.797-.147 6.796-.089 6.797.149.062-.167.621-.701.4.205.775-.557.46-.15.629.072.17-.726-.085-.533.38-.481.505-.695-.01-.582.26v.11l-10.417.243-10.417.08-10.416-.437-10.417.303-10.417-.895-10.416.892-10.417.275-10.417-.57.06.142-.568-.19-.734-.596-.612-.298-.585-.235-.507-.044-.019-.008-.288-.608.038-.472-.52-.703-.297-.612-.134-.544h.079l-.31-6.797.05-6.796.406-6.797-.074-6.797-.151-6.797.235.098-.095-.73.45-.504.331-.553-.097-.73.396-.527-.013-.031.62-.173.658-.075.502-.455.651-.094z" style="stroke:#333;stroke-width:1.0416666666666667"/><text x="59.375" y="170.581" fill="#2E2E2E" font-size="16.667" textLength="68.75">DNS解析</text><path fill="none" d="M53.125 206.803v.22l10.156-.651 10.157.633 10.156.215 10.156-1.16 10.156.662 10.156-.363 10.157.045 10.156.4-.01-.023.507.045.755.643.432-.136.647.383.615.308.139.057.078.52.293.61.212.576.312.618.187.565h.083l.12 6.797.03 6.797.002 6.797-.147 6.797-.088 6.796.148.062-.167.621-.7.4.204.775-.557.46-.149.629.071.17-.726-.085-.532.38-.482.505-.694-.01-.583.26v.11l-10.156.243-10.156.08-10.157-.437-10.156.303-10.156-.895-10.156.892-10.157.275-10.156-.57.06.142-.568-.19-.735-.596-.611-.298-.586-.235-.506-.044-.02-.008-.287-.608.037-.472-.518-.703-.299-.612-.134-.544h.08l-.311-6.796.051-6.797.406-6.797-.074-6.797-.152-6.797.236.098-.095-.73.45-.504.331-.553-.097-.73.396-.527-.013-.031.619-.173.659-.075.502-.455.651-.094z" style="stroke:#333;stroke-width:1.0416666666666667"/><text x="60.417" y="233.732" fill="#2E2E2E" font-size="16.667" textLength="66.667">入口网关</text><path fill="#17A2B8" d="M196.875 259.538h.195l-.579 7.07.563 7.07.191 7.07-1.03 7.071.66 7.07-.014-.07-4.23.516-4.159.873-4.11 1.12-4.28.267-4.04 1.461.1.503 3.952-.242 4.245 1.226 4.281 1.405 4.073.363 4.182.912h.063l-.093 7.07.195 7.07.056 7.07.321 7.07-.542 7.071v1.864l10.465.023 10.465-1.18 10.465.581 10.465.663 10.466-3.954 10.465 3.888 10.465-2.708 10.465 2.306 10.465-2.858 10.465 1.185 10.465 2.25 10.465-2.195 10.465.428 10.466.648 10.465.215 10.465-1.167 10.465.809 10.465-2.388 10.465 2.38 10.465.733 10.465-.288 10.466.468 10.465-3.045 10.465-.47 10.465.086 10.465 1.563 10.465-.383 10.465 2.439 10.465-2.378 10.466-.468 10.465 1.587 10.465-2.486 10.465.41 10.465 3.245 10.465-.593 10.465.83 10.465-2.934 10.465 1.78 10.466.754 10.465-2.952 10.465 1.046 10.465.616 10.465-.35h1.81l-1.822-9.803 1.297-9.802-2.823-9.803-.343-9.803 3.28-9.803-3.39-9.803 1.991-9.803.333.334-2.281-2.282-2.394-2.394-2.14-2.14-1.551-1.55-2.384-2.384v-.832l-10.466 2.476-10.466-3.18-10.466 3.25-10.467-.369-10.466-.665-10.466-.55-10.467 1.888-10.466-.314-10.466-1.234-10.466.275-10.467-1.107-10.466 2.352-10.466-1.56-10.466.05-10.467-2.17-10.466.564-10.466 2.6-10.466-.28-10.467-1.314-10.466-.775-10.466.287-10.467-1.298-10.466 3.058-10.466.902-10.466-.592-10.467.468-10.466-2.31-10.466.622-10.466-1.319-10.467 1.866-10.466-.104-10.466.85-10.467-2.173-10.466.264-10.466 1.606-10.466.344-10.467-3-10.466.885-10.466.953-10.466-2.111-10.467 2.678-10.466-.981" style="stroke:#1592a6;stroke-width:1.0416666666666667"/><path fill="#17A2B8" d="M636.458 259.538h.195l-.578 2.083.562 2.083.191 2.084-1.03 2.083.66 2.083v-.072l2.084-.322 2.083.04 2.083.291 2.084-.577 2.083.64.362.363-2.858-2.859-1.8-1.8-1.671-1.67-2.423-2.423-2.027-2.027" style="stroke:#1592a6;stroke-width:1.0416666666666667"/><text x="208.333" y="285.425" fill="#FFF" font-size="16.667" textLength="133.333">相当于 nginx程序</text><text x="208.333" y="304.826" fill="#FFF" font-size="16.667" textLength="417.708">每创建一个ingress,相当于在nginx.conf里增加一个配置</text><text x="208.333" y="324.227" fill="#FFF" font-size="16.667" textLength="321.875">比如传统里我们nginx.conf配置一个server</text><path fill="none" d="M15.625 277.897v.22l10.417-.651 10.416.632 10.417.215 10.417-1.159 10.416.662 10.417-.363 10.417.045 10.416.328 10.417-.649 10.417 1.297 10.416-1.233 10.417.45 10.417.656 10.416-.54 10.417.09.01.022.575.212.617.312.597.263.636.355.511.057.215.089.247.59.108.533.311.617.32.62.02.497h-.25l.485 6.797-.338 6.797.288 6.796-.357 6.797.172 6.797-.022-.009.016.697-.498.484-.195.61-.169.62-.353.545.056.133-.645.11-.551.337-.704-.032-.475.519-.627.153v.57l-10.417-.107-10.416.175-10.417-1.141-10.417-.176-10.416.032-10.417.586-10.417-.144-10.416.915-10.417-.892-10.417-.175-10.416.595-10.417-.933-10.417.154-10.416 1.217-10.417-.676.058.14-.55-.149-.73-.583-.503-.038-.554-.157-.667-.433-.152-.063-.123-.54-.173-.56-.075-.519-.455-.676-.243-.589h.16l-.352-6.797-.043-6.797.41-6.796-.424-6.797.25-6.797.163.067.147-.629.091-.652.217-.601.505-.481.097-.65-.04-.096.708.041.437-.61.744.13.572-.286z" style="stroke:#333;stroke-width:1.0416666666666667"/><text x="22.917" y="304.826" fill="#2E2E2E" font-size="16.667" textLength="141.667">ingress controller</text><path fill="none" d="M53.125 359.408v.219l10.156-.651 10.157.633 10.156.215 10.156-1.16 10.156.663 10.156-.364 10.157.045 10.156.4-.01-.022.507.044.755.643.432-.135.647.382.615.308.139.057.078.52.293.61.212.577.312.617.187.565h.083l.12 6.797.03 6.797.002 6.797-.147 6.797-.088 6.797.148.061-.167.621-.7.4.204.775-.557.46-.149.629.071.171-.726-.086-.532.381-.482.504-.694-.01-.583.26v.11l-10.156.243-10.156.08-10.157-.437-10.156.303-10.156-.895-10.156.892-10.157.275-10.156-.57.06.142-.568-.19-.735-.596-.611-.298-.586-.234-.506-.045-.02-.008-.287-.608.037-.472-.518-.703-.299-.612-.134-.543h.08l-.311-6.797.051-6.797.406-6.797-.074-6.797-.152-6.797.236.098-.095-.73.45-.504.331-.553-.097-.73.396-.527-.013-.03.619-.174.659-.075.502-.455.651-.094z" style="stroke:#333;stroke-width:1.0416666666666667"/><text x="60.417" y="386.336" fill="#2E2E2E" font-size="16.667" textLength="66.667">services</text><path fill="none" d="M70.833 422.559v.073l9.167-.217 9.167.21 9.166.072 9.167-.386 9.167.248-.01-.025.542.132.595.258.631.345.507.044.68.466.178.074-.135.431.383.647.446.673.078.52.271.601h.024l-.035 6.797.073 6.797.021 6.797.12 6.797-.203 6.797.216.089-.242.59-.38.533-.177.617-.168.621-.47.496-.095-.231-.403.693-.719-.069-.479.51-.726-.086-.523.403v-.023l-9.167.28-9.167-.274-9.166.054-9.167.08-9.167-.117.056.134-.645-.379-.551-.15-.703-.52-.476.03-.627-.335.176.073-.277-.603-.19-.567-.596-.735-.299-.612-.034-.502h-.216l.195-6.797-.048-6.797.305-6.797-.297-6.797.06-6.797-.11-.045.428-.514-.043-.708.291-.57.62-.433.035-.676.058.14.629-.148.449-.583.674-.039.626-.157z" style="stroke:#333;stroke-width:1.0416666666666667"/><text x="78.125" y="449.487" fill="#2E2E2E" font-size="16.667" textLength="31.25">pod</text><path fill="#333" d="M93.75 122.819h.097l-.289 4.167.281 4.166.096 4.167-.515 4.167.33 4.166" style="stroke:#333;stroke-width:3.125"/><path fill="#333" d="m89.583 133.236.068.027.632 2.003 1.03 2.161.9 2.11.474 1.94 1.063 2.175-.025-.01.72-2.128.848-2.078.935-2.042.632-2.164 1.057-1.994.136.136-1.124.542-.728.94-.678.988-.96.706-.813.854.017.017-.858-.858-.782-.781-.818-.819-.748-.748z" style="stroke:#333;stroke-width:1.0416666666666667"/><path fill="#333" d="M93.75 185.97h.097l-.289 4.167.281 4.166.096 4.167-.515 4.167.33 4.166" style="stroke:#333;stroke-width:3.125"/><path fill="#333" d="m89.583 196.387.068.027.632 2.003 1.03 2.161.9 2.11.474 1.94 1.063 2.175-.025-.01.72-2.128.848-2.078.935-2.042.632-2.164 1.057-1.994.136.136-1.124.542-.728.94-.678.988-.96.706-.813.854.017.017-.858-.858-.782-.781-.818-.819-.748-.748z" style="stroke:#333;stroke-width:1.0416666666666667"/><path fill="#333" d="M93.75 249.121h.097l-.289 5.755.281 5.756.096 5.755-.515 5.755.33 5.755" style="stroke:#333;stroke-width:3.125"/><path fill="#333" d="m89.583 267.48.068.028.632 2.002 1.03 2.162.9 2.11.474 1.94 1.063 2.175-.025-.01.72-2.128.848-2.078.935-2.043.632-2.163 1.057-1.995.136.136-1.124.543-.728.94-.678.988-.96.706-.813.854.017.017-.858-.858-.782-.782-.818-.818-.748-.748z" style="stroke:#333;stroke-width:1.0416666666666667"/><path fill="#333" d="M93.75 320.215h.097l-.289 7.838.281 7.839.096 7.839-.515 7.838.33 7.839" style="stroke:#333;stroke-width:3.125"/><path fill="#333" d="m89.583 348.99.068.028.632 2.003 1.03 2.161.9 2.11.474 1.94 1.063 2.176-.025-.01.72-2.129.848-2.078.935-2.042.632-2.164 1.057-1.994.136.136-1.124.543-.728.939-.678.988-.96.706-.813.855.017.016-.858-.858-.782-.781-.818-.819-.748-.748z" style="stroke:#333;stroke-width:1.0416666666666667"/><path fill="#333" d="M93.75 401.725h.097l-.289 4.167.281 4.167.096 4.166-.515 4.167.33 4.167" style="stroke:#333;stroke-width:3.125"/><path fill="#333" d="m89.583 412.142.068.027.632 2.003 1.03 2.161.9 2.11.474 1.94 1.063 2.176-.025-.01.72-2.129.848-2.078.935-2.042.632-2.164 1.057-1.994.136.136-1.124.542-.728.94-.678.988-.96.706-.813.855.017.016-.858-.858-.782-.781-.818-.819-.748-.748z" style="stroke:#333;stroke-width:1.0416666666666667"/></svg>