<svg xmlns="http://www.w3.org/2000/svg" width="1046.004" height="754.698"><defs><style>@font-face{font-family:&quot;Virgil&quot;;src:url(https://unpkg.com/@excalidraw/excalidraw@undefined/dist/excalidraw-assets/Virgil.woff2)}@font-face{font-family:&quot;Cascadia&quot;;src:url(https://unpkg.com/@excalidraw/excalidraw@undefined/dist/excalidraw-assets/Cascadia.woff2)}@font-face{font-family:&quot;Assistant&quot;;src:url(https://unpkg.com/@excalidraw/excalidraw@undefined/dist/excalidraw-assets/Assistant-Regular.woff2)}</style></defs><path fill="#fff" d="M0 0h1046.004v754.698H0z"/><path fill="none" stroke="#000" stroke-linecap="round" d="M10.054 102.627h126.34m-126.34 0h126.34m0 0v34.48m0-34.48v34.48m0 0H10.054m126.34 0H10.054m0 0v-34.48m0 34.48v-34.48"/><text dominant-baseline="text-before-edge" font-family="Helvetica, Segoe UI Emoji" font-size="20" style="white-space:pre" transform="translate(48.114 110.029)">count</text><path fill="none" stroke="#000" stroke-linecap="round" d="M10 137.231h127m-127 0h127m0 0v35m0-35v35m0 0H10m127 0H10m0 0v-35m0 35v-35"/><text x="21.123" dominant-baseline="text-before-edge" font-family="Helvetica, Segoe UI Emoji" font-size="20" style="white-space:pre" text-anchor="middle" transform="translate(52.377 143.231)">flags</text><g stroke-linecap="round"><path fill="none" stroke="#82c91e" stroke-width=".5" d="M10.303 172.496q0 0 0 0m0 0q0 0 0 0m-.26 6.4 5.25-6.04m-5.25 6.04c1.72-1.98 3.44-3.96 5.25-6.04m-4.86 11.68c3.91-4.49 7.82-8.99 10.5-12.07m-10.5 12.07 10.5-12.07m-10.76 18.47c5.49-6.32 10.99-12.64 15.75-18.11m-15.75 18.11c4.59-5.28 9.19-10.57 15.75-18.11m-15.35 23.75c4.43-5.09 8.85-10.19 20.99-24.15m-20.99 24.15 20.99-24.15m-21.26 30.55c8.38-9.64 16.76-19.27 26.25-30.19m-26.25 30.19 26.25-30.19m-25.19 35.08c10.75-12.37 21.51-24.75 30.83-35.47m-30.83 35.47c9.45-10.88 18.91-21.76 30.83-35.47m-25.19 35.07c6.29-7.23 12.57-14.46 30.18-34.71m-30.18 34.71c7.38-8.49 14.76-16.98 30.18-34.71m-25.19 35.07c11.05-12.71 22.11-25.43 30.83-35.47m-30.83 35.47c7.81-8.98 15.62-17.96 30.83-35.47m-25.19 35.08c9.99-11.5 19.98-22.99 30.18-34.72m-30.18 34.72 30.18-34.72m-25.19 35.08c7.62-8.77 15.25-17.55 30.83-35.47m-30.83 35.47c9.62-11.07 19.24-22.14 30.83-35.47m-25.19 35.07c10.17-11.69 20.34-23.39 30.18-34.71m-30.18 34.71c6.73-7.74 13.47-15.49 30.18-34.71m-25.19 35.07c7.91-9.1 15.83-18.21 30.83-35.47m-30.83 35.47c8.91-10.26 17.83-20.52 30.83-35.47m-25.19 35.08c6.32-7.28 12.65-14.55 30.18-34.72m-30.18 34.72 30.18-34.72m-25.19 35.08c8.1-9.32 16.2-18.64 30.83-35.47m-30.83 35.47c6.36-7.32 12.73-14.64 30.83-35.47m-25.19 35.08c8.06-9.28 16.12-18.55 30.18-34.72m-30.18 34.72c8.34-9.59 16.67-19.18 30.18-34.72m-25.19 35.08c11.58-13.33 23.16-26.65 30.83-35.48m-30.83 35.48 30.83-35.48m-25.19 35.08c10.93-12.57 21.85-25.14 30.18-34.72m-30.18 34.72c7.98-9.17 15.95-18.35 30.18-34.72m-25.19 35.08c10.48-12.06 20.96-24.12 30.83-35.47m-30.83 35.47c6.96-8.01 13.93-16.02 30.83-35.47m-25.19 35.08c8.49-9.77 16.97-19.53 30.18-34.72m-30.18 34.72c9.13-10.51 18.26-21.01 30.18-34.72m-25.19 35.08c10.32-11.88 20.65-23.76 30.83-35.47m-30.83 35.47c7.7-8.86 15.4-17.72 30.83-35.47m-25.19 35.07c10.44-12.01 20.88-24.02 30.18-34.71m-30.18 34.71c7.32-8.42 14.64-16.84 30.18-34.71m-25.19 35.07c11.28-12.98 22.56-25.96 30.17-34.71m-30.17 34.71c7.75-8.91 15.5-17.83 30.17-34.71m-24.53 34.32c6.39-7.36 12.78-14.71 30.18-34.72m-30.18 34.72c7.58-8.72 15.15-17.44 30.18-34.72m-25.19 35.08c9.19-10.58 18.39-21.16 30.18-34.72m-30.18 34.72c10.47-12.05 20.94-24.09 30.18-34.72m-24.54 34.32c6.7-7.7 13.4-15.41 24.93-28.68m-24.93 28.68c5.26-6.05 10.52-12.1 24.93-28.68m-19.94 29.04 19.68-22.64m-19.68 22.64c4.63-5.33 9.27-10.67 19.68-22.64m-14.7 23c3.64-4.18 7.28-8.37 15.09-17.36m-15.09 17.36c4.84-5.56 9.68-11.12 15.09-17.36m-9.44 16.97c1.88-2.17 3.76-4.33 9.18-10.57m-9.18 10.57c2.33-2.68 4.66-5.37 9.18-10.57m-4.2 10.93c1.53-1.76 3.06-3.51 3.94-4.53m-3.94 4.53c1.16-1.33 2.31-2.66 3.94-4.53"/><path fill="none" stroke="#0b7285" d="M10.303 172.496h127m-127 0h127m0 0v35m0-35v35m0 0h-127m127 0h-127m0 0v-35m0 35v-35"/></g><text x="6.67" fill="#0b7285" dominant-baseline="text-before-edge" font-family="Helvetica, Segoe UI Emoji" font-size="20" style="white-space:pre" text-anchor="middle" transform="translate(67.133 178.496)">B</text><path fill="none" stroke="#000" stroke-linecap="round" d="M10.309 208.122h127m-127 0h127m0 0v35m0-35v35m0 0h-127m127 0h-127m0 0v-35m0 35v-35"/><text x="42.798" dominant-baseline="text-before-edge" font-family="Helvetica, Segoe UI Emoji" font-size="20" style="white-space:pre" text-anchor="middle" transform="translate(31.01 214.122)">noverflow</text><g stroke-linecap="round"><path fill="none" stroke="#12b886" stroke-width=".5" d="M10.406 242.79q0 0 0 0m0 0q0 0 0 0m-.26 6.4c1.63-1.88 3.27-3.76 5.25-6.04m-5.25 6.04c1.9-2.18 3.79-4.37 5.25-6.04m-4.86 11.68c2.53-2.9 5.05-5.8 10.5-12.07m-10.5 12.07c3.93-4.51 7.85-9.03 10.5-12.07m-10.76 18.47c3.76-4.32 7.51-8.64 15.75-18.11m-15.75 18.11c5.88-6.77 11.76-13.53 15.75-18.11m-15.35 23.75c7.46-8.58 14.92-17.16 20.99-24.15m-20.99 24.15c4.24-4.88 8.49-9.77 20.99-24.15m-21.26 30.55c9.5-10.92 19-21.85 26.25-30.19m-26.25 30.19 26.25-30.19m-25.19 35.08c8.27-9.52 16.54-19.04 30.83-35.47m-30.83 35.47c8.35-9.61 16.7-19.22 30.83-35.47m-25.19 35.07c7.35-8.45 14.7-16.91 30.18-34.71m-30.18 34.71c8.85-10.18 17.71-20.37 30.18-34.71m-25.19 35.07c10.28-11.82 20.56-23.65 30.83-35.47m-30.83 35.47c8.42-9.69 16.84-19.38 30.83-35.47m-25.19 35.08c11.46-13.19 22.92-26.37 30.18-34.72m-30.18 34.72c7.19-8.28 14.39-16.56 30.18-34.72m-25.19 35.08c10.45-12.03 20.9-24.05 30.83-35.47m-30.83 35.47c9.81-11.3 19.63-22.59 30.83-35.47m-25.19 35.07 30.18-34.71m-30.18 34.71c9.79-11.26 19.58-22.53 30.18-34.71m-25.19 35.07c9.49-10.92 18.98-21.84 30.83-35.47m-30.83 35.47c10.22-11.75 20.44-23.51 30.83-35.47m-25.19 35.08c8.22-9.46 16.44-18.92 30.18-34.72m-30.18 34.72c7.82-9 15.64-17.99 30.18-34.72m-25.19 35.08 30.83-35.47m-30.83 35.47c7.79-8.97 15.59-17.94 30.83-35.47m-25.19 35.08c8.85-10.19 17.7-20.37 30.18-34.72m-30.18 34.72c8.02-9.23 16.03-18.45 30.18-34.72m-25.19 35.08c12.29-14.14 24.58-28.28 30.83-35.48m-30.83 35.48c7.35-8.47 14.71-16.93 30.83-35.48m-25.19 35.08 30.18-34.72m-30.18 34.72c8.54-9.82 17.08-19.65 30.18-34.72m-25.19 35.08c10.42-11.99 20.84-23.98 30.83-35.47m-30.83 35.47c8.03-9.24 16.06-18.48 30.83-35.47m-25.19 35.08c7.62-8.78 15.25-17.55 30.18-34.72m-30.18 34.72c11.03-12.7 22.07-25.39 30.18-34.72m-25.19 35.08c8.49-9.78 16.99-19.55 30.83-35.47m-30.83 35.47c9.43-10.85 18.86-21.71 30.83-35.47m-25.19 35.07c7.9-9.09 15.8-18.18 30.18-34.71m-30.18 34.71c8.56-9.85 17.13-19.7 30.18-34.71m-25.19 35.07c6.22-7.15 12.44-14.31 30.17-34.71m-30.17 34.71c11.4-13.11 22.79-26.22 30.17-34.71m-24.53 34.32c10.91-12.56 21.83-25.11 30.18-34.72m-30.18 34.72c9.76-11.23 19.51-22.45 30.18-34.72m-25.19 35.08c10.82-12.45 21.65-24.91 30.18-34.72m-30.18 34.72c8.89-10.23 17.78-20.46 30.18-34.72m-24.54 34.32c8.06-9.27 16.12-18.55 24.93-28.68m-24.93 28.68 24.93-28.68m-19.94 29.04c7.8-8.98 15.61-17.96 19.68-22.64m-19.68 22.64 19.68-22.64m-14.7 23c3.82-4.38 7.63-8.77 15.09-17.36m-15.09 17.36c4.34-4.99 8.68-9.98 15.09-17.36m-9.44 16.97c2-2.3 4-4.6 9.18-10.57m-9.18 10.57 9.18-10.57m-4.2 10.93c1.54-1.76 3.07-3.53 3.94-4.53m-3.94 4.53c1.43-1.64 2.85-3.28 3.94-4.53"/><path fill="none" stroke="#e67700" d="M10.406 242.79h127m-127 0h127m0 0v35m0-35v35m0 0h-127m127 0h-127m0 0v-35m0 35v-35"/></g><text x="34.463" fill="#e67700" dominant-baseline="text-before-edge" font-family="Helvetica, Segoe UI Emoji" font-size="20" style="white-space:pre" text-anchor="middle" transform="translate(39.443 248.79)">buckets</text><path fill="none" stroke="#000" stroke-linecap="round" d="M10.688 277.172h127m-127 0h127m0 0v35m0-35v35m0 0h-127m127 0h-127m0 0v-35m0 35v-35"/><text x="47.808" dominant-baseline="text-before-edge" font-family="Helvetica, Segoe UI Emoji" font-size="20" style="white-space:pre" text-anchor="middle" transform="translate(26.38 283.172)">oldbuckets</text><path fill="none" stroke="#000" stroke-linecap="round" d="M10.96 312.115h127m-127 0h127m0 0v35m0-35v35m0 0h-127m127 0h-127m0 0v-35m0 35v-35"/><text x="46.147" dominant-baseline="text-before-edge" font-family="Helvetica, Segoe UI Emoji" font-size="20" style="white-space:pre" text-anchor="middle" transform="translate(28.313 318.115)">nevacuate</text><path fill="none" stroke="#000" stroke-linecap="round" d="M11.087 346.592h127m-127 0h127m0 0v35m0-35v35m0 0h-127m127 0h-127m0 0v-35m0 35v-35"/><text x="22.231" dominant-baseline="text-before-edge" font-family="Helvetica, Segoe UI Emoji" font-size="20" style="white-space:pre" text-anchor="middle" transform="translate(52.356 352.592)">extra</text><path fill="none" stroke="#000" stroke-linecap="round" d="M252.607 40.371h126.34m-126.34 0h126.34m0 0v34.48m0-34.48v34.48m0 0h-126.34m126.34 0h-126.34m0 0v-34.48m0 34.48v-34.48"/><text dominant-baseline="text-before-edge" font-family="Helvetica, Segoe UI Emoji" font-size="20" style="white-space:pre" transform="translate(290.668 47.773)">bmap</text><path fill="none" stroke="#000" stroke-linecap="round" d="M252.553 74.976h127m-127 0h127m0 0v35m0-35v35m0 0h-127m127 0h-127m0 0v-35m0 35v-35"/><text x="25.015" dominant-baseline="text-before-edge" font-family="Helvetica, Segoe UI Emoji" font-size="20" style="white-space:pre" text-anchor="middle" transform="translate(291.039 80.976)">bmap</text><path fill="none" stroke="#000" stroke-linecap="round" d="M252.856 110.24h127m-127 0h127m0 0v35m0-35v35m0 0h-127m127 0h-127m0 0v-35m0 35v-35"/><text x="25.015" dominant-baseline="text-before-edge" font-family="Helvetica, Segoe UI Emoji" font-size="20" style="white-space:pre" text-anchor="middle" transform="translate(291.342 116.24)">bmap</text><path fill="none" stroke="#000" stroke-linecap="round" d="M252.862 145.866h127m-127 0h127m0 0v35m0-35v35m0 0h-127m127 0h-127m0 0v-35m0 35v-35"/><text x="8.335" dominant-baseline="text-before-edge" font-family="Helvetica, Segoe UI Emoji" font-size="20" style="white-space:pre" text-anchor="middle" transform="translate(308.027 151.866)">...</text><path fill="none" stroke="#000" stroke-linecap="round" d="M252.96 180.535h127m-127 0h127m0 0v35m0-35v35m0 0h-127m127 0h-127m0 0v-35m0 35v-35"/><text x="8.335" dominant-baseline="text-before-edge" font-family="Helvetica, Segoe UI Emoji" font-size="20" style="white-space:pre" text-anchor="middle" transform="translate(308.125 186.535)">...</text><path fill="none" stroke="#000" stroke-linecap="round" d="M253.241 214.916h127m-127 0h127m0 0v35m0-35v35m0 0h-127m127 0h-127m0 0v-35m0 35v-35"/><text x="25.015" dominant-baseline="text-before-edge" font-family="Helvetica, Segoe UI Emoji" font-size="20" style="white-space:pre" text-anchor="middle" transform="translate(291.727 220.916)">bmap</text><text fill="#e67700" dominant-baseline="text-before-edge" font-family="Helvetica, Segoe UI Emoji" font-size="20" style="white-space:pre" transform="translate(287.356 10)">[]bmap</text><g stroke-linecap="round"><path fill="none" stroke="#087f5b" stroke-width="2" d="M139.534 257.682c17.22.1 34.45.2 48.76.28m-48.76-.28 48.76.28m0 0c0-48.37 0-96.74-.01-237.44m.01 237.44c0-73.02 0-146.04-.01-237.44m0 0c28.44-.15 56.88-.31 91.34-.49m-91.34.49c33.01-.18 66.02-.36 91.34-.49"/><path fill="#087f5b" fill-rule="evenodd" stroke-width="0" d="m279.624 20.032-13.56 6.41-.07-12.68z"/><path fill="none" stroke="#087f5b" stroke-width="2" d="M279.624 20.032c-4.79 2.26-9.58 4.53-13.56 6.41m13.56-6.41c-2.93 1.38-5.85 2.77-13.56 6.41m0 0c-.01-2.58-.03-5.17-.07-12.68m.07 12.68c-.02-3.9-.04-7.8-.07-12.68m0 0c4.24 1.95 8.49 3.9 13.63 6.27m-13.63-6.27c4.93 2.27 9.85 4.53 13.63 6.27m0 0q0 0 0 0m0 0q0 0 0 0"/></g><path fill="none" stroke="#000" stroke-linecap="round" d="M491.766 45.619h48.06m-48.06 0h48.06m0 0v32.29m0-32.29v32.29m0 0h-48.06m48.06 0h-48.06m0 0v-32.29m0 32.29v-32.29"/><text fill="#087f5b" dominant-baseline="text-before-edge" font-family="Helvetica, Segoe UI Emoji" font-size="20" style="white-space:pre" transform="translate(896.356 49.585)">topbits</text><path fill="none" stroke="#000" stroke-linecap="round" d="M540.493 46.187h48.06m-48.06 0h48.06m0 0v32.29m0-32.29v32.29m0 0h-48.06m48.06 0h-48.06m0 0v-32.29m0 32.29v-32.29M589.509 46.604h48.06m-48.06 0h48.06m0 0v32.29m0-32.29v32.29m0 0h-48.06m48.06 0h-48.06m0 0v-32.29m0 32.29v-32.29M638.236 46.172h48.06m-48.06 0h48.06m0 0v32.29m0-32.29v32.29m0 0h-48.06m48.06 0h-48.06m0 0v-32.29m0 32.29v-32.29M687.372 46.695h48.06m-48.06 0h48.06m0 0v32.29m0-32.29v32.29m0 0h-48.06m48.06 0h-48.06m0 0v-32.29m0 32.29v-32.29M736.099 47.263h48.06m-48.06 0h48.06m0 0v32.29m0-32.29v32.29m0 0h-48.06m48.06 0h-48.06m0 0v-32.29m0 32.29v-32.29M785.115 47.68h48.06m-48.06 0h48.06m0 0v32.29m0-32.29v32.29m0 0h-48.06m48.06 0h-48.06m0 0V47.68m0 32.29V47.68M833.842 47.247h48.06m-48.06 0h48.06m0 0v32.29m0-32.29v32.29m0 0h-48.06m48.06 0h-48.06m0 0v-32.29m0 32.29v-32.29"/><path fill="none" stroke="#087f5b" stroke-linecap="round" d="M491.726 80.298h392m-392 0h392m0 0v36m0-36v36m0 0h-392m392 0h-392m0 0v-36m0 36v-36"/><text x="31.68" fill="#087f5b" dominant-baseline="text-before-edge" font-family="Helvetica, Segoe UI Emoji" font-size="20" style="white-space:pre" text-anchor="middle" transform="translate(656.046 86.798)">keys[0]</text><text fill="#087f5b" dominant-baseline="text-before-edge" font-family="Helvetica, Segoe UI Emoji" font-size="20" style="white-space:pre" transform="translate(968.004 49.529)">[8]uint8</text><path fill="none" stroke="#087f5b" stroke-linecap="round" d="M491.834 117.272h392m-392 0h392m0 0v36m0-36v36m0 0h-392m392 0h-392m0 0v-36m0 36v-36"/><text x="31.68" fill="#087f5b" dominant-baseline="text-before-edge" font-family="Helvetica, Segoe UI Emoji" font-size="20" style="white-space:pre" text-anchor="middle" transform="translate(656.154 123.772)">keys[1]</text><path fill="none" stroke="#087f5b" stroke-linecap="round" d="M493.537 154.146h392m-392 0h392m0 0v36m0-36v36m0 0h-392m392 0h-392m0 0v-36m0 36v-36"/><text x="31.68" fill="#087f5b" dominant-baseline="text-before-edge" font-family="Helvetica, Segoe UI Emoji" font-size="20" style="white-space:pre" text-anchor="middle" transform="translate(657.858 160.646)">keys[2]</text><path fill="none" stroke="#087f5b" stroke-linecap="round" d="M493.645 191.12h392m-392 0h392m0 0v36m0-36v36m0 0h-392m392 0h-392m0 0v-36m0 36v-36"/><text x="31.68" fill="#087f5b" dominant-baseline="text-before-edge" font-family="Helvetica, Segoe UI Emoji" font-size="20" style="white-space:pre" text-anchor="middle" transform="translate(657.966 197.62)">keys[3]</text><path fill="none" stroke="#087f5b" stroke-linecap="round" d="M494.185 227.629h392m-392 0h392m0 0v36m0-36v36m0 0h-392m392 0h-392m0 0v-36m0 36v-36"/><text x="31.68" fill="#087f5b" dominant-baseline="text-before-edge" font-family="Helvetica, Segoe UI Emoji" font-size="20" style="white-space:pre" text-anchor="middle" transform="translate(658.506 234.129)">keys[4]</text><path fill="none" stroke="#087f5b" stroke-linecap="round" d="M494.293 264.603h392m-392 0h392m0 0v36m0-36v36m0 0h-392m392 0h-392m0 0v-36m0 36v-36"/><text x="31.68" fill="#087f5b" dominant-baseline="text-before-edge" font-family="Helvetica, Segoe UI Emoji" font-size="20" style="white-space:pre" text-anchor="middle" transform="translate(658.614 271.103)">keys[5]</text><path fill="none" stroke="#087f5b" stroke-linecap="round" d="M495.997 301.477h392m-392 0h392m0 0v36m0-36v36m0 0h-392m392 0h-392m0 0v-36m0 36v-36"/><text x="31.68" fill="#087f5b" dominant-baseline="text-before-edge" font-family="Helvetica, Segoe UI Emoji" font-size="20" style="white-space:pre" text-anchor="middle" transform="translate(660.317 307.977)">keys[6]</text><path fill="none" stroke="#087f5b" stroke-linecap="round" d="M496.105 338.452h392m-392 0h392m0 0v36m0-36v36m0 0h-392m392 0h-392m0 0v-36m0 36v-36"/><text x="31.68" fill="#087f5b" dominant-baseline="text-before-edge" font-family="Helvetica, Segoe UI Emoji" font-size="20" style="white-space:pre" text-anchor="middle" transform="translate(660.425 344.952)">keys[7]</text><path fill="none" stroke="#e67700" stroke-linecap="round" d="M496.3 376.73h392m-392 0h392m0 0v36m0-36v36m0 0h-392m392 0h-392m0 0v-36m0 36v-36"/><text x="40.024" fill="#e67700" dominant-baseline="text-before-edge" font-family="Helvetica, Segoe UI Emoji" font-size="20" style="white-space:pre" text-anchor="middle" transform="translate(652.276 383.23)">values[0]</text><path fill="none" stroke="#e67700" stroke-linecap="round" d="M496.409 413.704h392m-392 0h392m0 0v36m0-36v36m0 0h-392m392 0h-392m0 0v-36m0 36v-36"/><text x="40.024" fill="#e67700" dominant-baseline="text-before-edge" font-family="Helvetica, Segoe UI Emoji" font-size="20" style="white-space:pre" text-anchor="middle" transform="translate(652.384 420.204)">values[1]</text><path fill="none" stroke="#e67700" stroke-linecap="round" d="M498.112 450.578h392m-392 0h392m0 0v36m0-36v36m0 0h-392m392 0h-392m0 0v-36m0 36v-36"/><text x="40.024" fill="#e67700" dominant-baseline="text-before-edge" font-family="Helvetica, Segoe UI Emoji" font-size="20" style="white-space:pre" text-anchor="middle" transform="translate(654.088 457.078)">values[2]</text><path fill="none" stroke="#e67700" stroke-linecap="round" d="M498.22 487.552h392m-392 0h392m0 0v36m0-36v36m0 0h-392m392 0h-392m0 0v-36m0 36v-36"/><text x="40.024" fill="#e67700" dominant-baseline="text-before-edge" font-family="Helvetica, Segoe UI Emoji" font-size="20" style="white-space:pre" text-anchor="middle" transform="translate(654.196 494.052)">values[3]</text><path fill="none" stroke="#e67700" stroke-linecap="round" d="M498.76 524.061h392m-392 0h392m0 0v36m0-36v36m0 0h-392m392 0h-392m0 0v-36m0 36v-36"/><text x="40.024" fill="#e67700" dominant-baseline="text-before-edge" font-family="Helvetica, Segoe UI Emoji" font-size="20" style="white-space:pre" text-anchor="middle" transform="translate(654.736 530.561)">values[4]</text><path fill="none" stroke="#e67700" stroke-linecap="round" d="M498.868 561.035h392m-392 0h392m0 0v36m0-36v36m0 0h-392m392 0h-392m0 0v-36m0 36v-36"/><text x="40.024" fill="#e67700" dominant-baseline="text-before-edge" font-family="Helvetica, Segoe UI Emoji" font-size="20" style="white-space:pre" text-anchor="middle" transform="translate(654.844 567.535)">values[5]</text><path fill="none" stroke="#e67700" stroke-linecap="round" d="M500.571 597.91h392m-392 0h392m0 0v36m0-36v36m0 0h-392m392 0h-392m0 0v-36m0 36v-36"/><text x="40.024" fill="#e67700" dominant-baseline="text-before-edge" font-family="Helvetica, Segoe UI Emoji" font-size="20" style="white-space:pre" text-anchor="middle" transform="translate(656.547 604.41)">values[6]</text><path fill="none" stroke="#e67700" stroke-linecap="round" d="M500.68 634.884h392m-392 0h392m0 0v36m0-36v36m0 0h-392m392 0h-392m0 0v-36m0 36v-36"/><text x="40.024" fill="#e67700" dominant-baseline="text-before-edge" font-family="Helvetica, Segoe UI Emoji" font-size="20" style="white-space:pre" text-anchor="middle" transform="translate(656.655 641.384)">values[7]</text><path fill="none" stroke="#000" stroke-linecap="round" d="M500.653 671.544h392m-392 0h392m0 0v36m0-36v36m0 0h-392m392 0h-392m0 0v-36m0 36v-36"/><text x="16.685" dominant-baseline="text-before-edge" font-family="Helvetica, Segoe UI Emoji" font-size="20" style="white-space:pre" text-anchor="middle" transform="translate(679.968 678.044)">pad</text><path fill="none" stroke="#000" stroke-linecap="round" d="M502.658 708.698h392m-392 0h392m0 0v36m0-36v36m0 0h-392m392 0h-392m0 0v-36m0 36v-36"/><text x="37.236" dominant-baseline="text-before-edge" font-family="Helvetica, Segoe UI Emoji" font-size="20" style="white-space:pre" text-anchor="middle" transform="translate(661.421 715.198)">overflow</text><g stroke-linecap="round"><path fill="none" stroke="#000" d="m385.358 53.468 87.74 1.31m-87.74-1.31 87.74 1.31"/><path fill-rule="evenodd" stroke-width="0" d="m473.098 54.778-13.69 6.13.19-12.67z"/><path fill="none" stroke="#000" d="M473.098 54.778c-3.44 1.54-6.89 3.09-13.69 6.13m13.69-6.13c-3.02 1.36-6.05 2.71-13.69 6.13m0 0 .19-12.67m-.19 12.67c.06-3.89.12-7.77.19-12.67m0 0c4.3 2.08 8.61 4.17 13.5 6.54m-13.5-6.54c3.19 1.54 6.37 3.08 13.5 6.54m0 0q0 0 0 0m0 0q0 0 0 0"/></g></svg>