<svg xmlns="http://www.w3.org/2000/svg" width="313" height="392" preserveAspectRatio="none" style="width:313px;height:392px;background:#fff"><defs><filter id="a" width="300%" height="300%" x="-1" y="-1"><feGaussianBlur result="blurOut" stdDeviation="2"/><feColorMatrix in="blurOut" result="blurOut2" values="0 0 0 0 0 0 0 0 0 0 0 0 0 0 0 0 0 0 .4 0"/><feOffset dx="4" dy="4" in="blurOut2" result="blurOut3"/><feBlend in="SourceGraphic" in2="blurOut3"/></filter></defs><text x="241" y="19.282" fill="#888" font-family="sans-serif" font-size="10" textLength="52">made by x</text><text x="103.5" y="45.636" font-family="sans-serif" font-size="14" font-weight="bold" textLength="96">unsafe的作用</text><rect width="52" height="40.297" x="10" y="190.531" fill="#A8EB99" filter="url(#a)" rx="7.5" ry="7.5" style="stroke:#000;stroke-width:1"/><text x="22" y="215.526" font-family="sans-serif" font-size="14" textLength="28">作用</text><rect width="94" height="40.297" x="112" y="69.938" fill="#FBE972" filter="url(#a)" rx="7.5" ry="7.5" style="stroke:#000;stroke-width:1"/><text x="124" y="94.933" font-family="sans-serif" font-size="14" textLength="70">裸指针操作</text><path fill="none" d="M62 210.68h10c15 0 15-120.594 30-120.594h10" style="stroke:green;stroke-width:1;stroke-dasharray:5,5"/><rect width="165" height="40.297" x="112" y="130.234" fill="#FBE972" filter="url(#a)" rx="7.5" ry="7.5" style="stroke:#000;stroke-width:1"/><text x="124" y="155.23" font-family="sans-serif" font-size="14" textLength="141">调用外部函数接口(FFI)</text><path fill="none" d="M62 210.68h10c15 0 15-60.297 30-60.297h10" style="stroke:green;stroke-width:1;stroke-dasharray:5,5"/><rect width="136" height="40.297" x="112" y="190.531" fill="#FBE972" filter="url(#a)" rx="7.5" ry="7.5" style="stroke:#000;stroke-width:1"/><text x="124" y="215.526" font-family="sans-serif" font-size="14" textLength="112">修改可变静态变量</text><path fill="none" d="M62 210.68h50" style="stroke:green;stroke-width:1;stroke-dasharray:5,5"/><rect width="180" height="40.297" x="112" y="250.828" fill="#FBE972" filter="url(#a)" rx="7.5" ry="7.5" style="stroke:#000;stroke-width:1"/><text x="124" y="275.823" font-family="sans-serif" font-size="14" textLength="126">定义和实现不安全的</text><text x="250" y="275.823" font-family="sans-serif" font-size="14" textLength="4"> </text><text x="254" y="275.823" font-family="sans-serif" font-size="14" textLength="26">trait</text><path fill="none" d="M62 210.68h10c15 0 15 60.297 30 60.297h10" style="stroke:green;stroke-width:1;stroke-dasharray:5,5"/><rect width="182" height="40.297" x="112" y="311.125" fill="#FBE972" filter="url(#a)" rx="7.5" ry="7.5" style="stroke:#000;stroke-width:1"/><text x="124" y="336.12" font-family="sans-serif" font-size="14" textLength="28">修饰</text><text x="152" y="336.12" font-family="sans-serif" font-size="14" textLength="4"> </text><text x="156" y="336.12" font-family="sans-serif" font-size="14" textLength="126">不安全的函数或方法</text><path fill="none" d="M62 210.68h10c15 0 15 120.593 30 120.593h10" style="stroke:green;stroke-width:1;stroke-dasharray:5,5"/><text x="138" y="375.417" font-family="sans-serif" font-size="14" textLength="27">图 1</text></svg>