<svg xmlns="http://www.w3.org/2000/svg" width="502" height="544" preserveAspectRatio="none" style="width:502px;height:544px;background:#fff"><defs><filter id="a" width="300%" height="300%" x="-1" y="-1"><feGaussianBlur result="blurOut" stdDeviation="2"/><feColorMatrix in="blurOut" result="blurOut2" values="0 0 0 0 0 0 0 0 0 0 0 0 0 0 0 0 0 0 .4 0"/><feOffset dx="4" dy="4" in="blurOut2" result="blurOut3"/><feBlend in="SourceGraphic" in2="blurOut3"/></filter></defs><text x="430" y="19.282" fill="#888" font-family="sans-serif" font-size="10" textLength="52">made by x</text><text x="190" y="45.636" font-family="sans-serif" font-size="14" font-weight="bold" textLength="112">程序内存分布情况</text><rect width="52" height="40.297" x="10" y="235.754" fill="#A8EB99" filter="url(#a)" rx="7.5" ry="7.5" style="stroke:#000;stroke-width:1"/><text x="22" y="260.749" font-family="sans-serif" font-size="14" textLength="28">程序</text><rect width="38" height="40.297" x="112" y="69.938" fill="#FBE972" filter="url(#a)" rx="7.5" ry="7.5" style="stroke:#000;stroke-width:1"/><text x="124" y="94.933" font-family="sans-serif" font-size="14" textLength="14">栈</text><rect width="154" height="40.297" x="200" y="69.938" fill="#FBE972" filter="url(#a)" rx="7.5" ry="7.5" style="stroke:#000;stroke-width:1"/><text x="212" y="94.933" font-family="sans-serif" font-size="14" textLength="130">局部变量,函数参数等</text><path fill="none" d="M150 90.086h50" style="stroke:red;stroke-width:1;stroke-dasharray:5,5"/><path fill="none" d="M62 255.902h10c15 0 15-165.816 30-165.816h10" style="stroke:green;stroke-width:1;stroke-dasharray:5,5"/><rect width="38" height="40.297" x="112" y="130.234" fill="#94C644" filter="url(#a)" rx="7.5" ry="7.5" style="stroke:#000;stroke-width:1"/><text x="124" y="155.23" font-family="sans-serif" font-size="14" textLength="14">堆</text><rect width="269" height="40.297" x="200" y="130.234" fill="#94C644" filter="url(#a)" rx="7.5" ry="7.5" style="stroke:#000;stroke-width:1"/><text x="212" y="155.23" font-family="sans-serif" font-size="14" textLength="245">堆上分配的内存必定有一个指针指向它?</text><path fill="none" d="M150 150.383h50" style="stroke:red;stroke-width:1;stroke-dasharray:5,5"/><path fill="none" d="M62 255.902h10c15 0 15-105.52 30-105.52h10" style="stroke:green;stroke-width:1;stroke-dasharray:5,5"/><rect width="66" height="40.297" x="112" y="220.68" fill="#E0FFFF" filter="url(#a)" rx="7.5" ry="7.5" style="stroke:#000;stroke-width:1"/><text x="124" y="245.675" font-family="sans-serif" font-size="14" textLength="42">全局区</text><rect width="246" height="40.297" x="228" y="190.531" fill="#E0FFFF" filter="url(#a)" rx="7.5" ry="7.5" style="stroke:#000;stroke-width:1"/><text x="240" y="215.526" font-family="sans-serif" font-size="14" textLength="222">初始化的全局变量和静态变量(data)</text><path fill="none" d="M178 240.828h10c15 0 15-30.148 30-30.148h10" style="stroke:red;stroke-width:1;stroke-dasharray:5,5"/><rect width="255" height="40.297" x="228" y="250.828" fill="#E0FFFF" filter="url(#a)" rx="7.5" ry="7.5" style="stroke:#000;stroke-width:1"/><text x="240" y="275.823" font-family="sans-serif" font-size="14" textLength="231">未初始化的全局变量和静态变量(bss)</text><path fill="none" d="M178 240.828h10c15 0 15 30.149 30 30.149h10" style="stroke:red;stroke-width:1;stroke-dasharray:5,5"/><path fill="none" d="M62 255.902h10c15 0 15-15.074 30-15.074h10" style="stroke:green;stroke-width:1;stroke-dasharray:5,5"/><rect width="104" height="40.297" x="112" y="341.273" fill="#FFFFE0" filter="url(#a)" rx="7.5" ry="7.5" style="stroke:#000;stroke-width:1"/><text x="124" y="366.269" font-family="sans-serif" font-size="14" textLength="80">常量区(只读)</text><rect width="108" height="40.297" x="266" y="311.125" fill="#FFFFE0" filter="url(#a)" rx="7.5" ry="7.5" style="stroke:#000;stroke-width:1"/><text x="278" y="336.12" font-family="sans-serif" font-size="14" textLength="84">字符串字面量</text><path fill="none" d="M216 361.422h10c15 0 15-30.149 30-30.149h10" style="stroke:red;stroke-width:1;stroke-dasharray:5,5"/><rect width="94" height="40.297" x="266" y="371.422" fill="#FFFFE0" filter="url(#a)" rx="7.5" ry="7.5" style="stroke:#000;stroke-width:1"/><text x="278" y="396.417" font-family="sans-serif" font-size="14" textLength="70">定义的常量</text><path fill="none" d="M216 361.422h10c15 0 15 30.148 30 30.148h10" style="stroke:red;stroke-width:1;stroke-dasharray:5,5"/><path fill="none" d="M62 255.902h10c15 0 15 105.52 30 105.52h10" style="stroke:green;stroke-width:1;stroke-dasharray:5,5"/><rect width="104" height="40.297" x="112" y="401.57" fill="#FBC" filter="url(#a)" rx="7.5" ry="7.5" style="stroke:#000;stroke-width:1"/><text x="124" y="426.565" font-family="sans-serif" font-size="14" textLength="80">代码区(只读)</text><path fill="none" d="M62 255.902h10c15 0 15 165.817 30 165.817h10" style="stroke:green;stroke-width:1;stroke-dasharray:5,5"/><rect width="154" height="36.297" x="316" y="463.867" fill="#F3FBEC" rx=".5" ry=".5" style="stroke:#f3fbec;stroke-width:1;stroke-dasharray:4,4"/><text x="326" y="486.862" fill="gray" font-family="sans-serif" font-size="14" textLength="134">静态变量 go是没有的</text><text x="232.5" y="527.159" font-family="sans-serif" font-size="14" textLength="27">图 1</text></svg>