<svg xmlns="http://www.w3.org/2000/svg" width="653" height="759" preserveAspectRatio="none" style="width:653px;height:759px;background:#fff"><defs><filter id="a" width="300%" height="300%" x="-1" y="-1"><feGaussianBlur result="blurOut" stdDeviation="2"/><feColorMatrix in="blurOut" result="blurOut2" values="0 0 0 0 0 0 0 0 0 0 0 0 0 0 0 0 0 0 .4 0"/><feOffset dx="4" dy="4" in="blurOut2" result="blurOut3"/><feBlend in="SourceGraphic" in2="blurOut3"/></filter></defs><text x="581" y="19.282" fill="#888" font-family="sans-serif" font-size="10" textLength="52">made by x</text><text x="293.5" y="45.636" font-family="sans-serif" font-size="14" font-weight="bold" textLength="56">模式匹配</text><rect width="150" height="40.297" x="10" y="373.867" fill="#A8EB99" filter="url(#a)" rx="7.5" ry="7.5" style="stroke:#000;stroke-width:1"/><text x="22" y="398.862" font-family="sans-serif" font-size="14" textLength="126">模式匹配的组成部分</text><rect width="52" height="40.297" x="210" y="305.422" fill="#FBC" filter="url(#a)" rx="7.5" ry="7.5" style="stroke:#000;stroke-width:1"/><text x="222" y="330.417" font-family="sans-serif" font-size="14" textLength="28">模式</text><rect width="220" height="40.297" x="312" y="69.938" fill="#FBC" filter="url(#a)" rx="7.5" ry="7.5" style="stroke:#000;stroke-width:1"/><text x="324" y="94.933" font-family="sans-serif" font-size="14" textLength="196">一个模式表示描述某种数据结构</text><path fill="none" d="M262 325.57h10c15 0 15-235.484 30-235.484h10" style="stroke:red;stroke-width:1;stroke-dasharray:5,5"/><rect width="66" height="40.297" x="312" y="250.828" fill="#FFFFE0" filter="url(#a)" rx="7.5" ry="7.5" style="stroke:#000;stroke-width:1"/><text x="324" y="275.823" font-family="sans-serif" font-size="14" textLength="42">可以是</text><rect width="94" height="40.297" x="428" y="130.234" fill="#FFFFE0" filter="url(#a)" rx="7.5" ry="7.5" style="stroke:#000;stroke-width:1"/><text x="440" y="155.23" font-family="sans-serif" font-size="14" textLength="70">简单的变量</text><path fill="none" d="M378 270.977h10c15 0 15-120.594 30-120.594h10" style="stroke:green;stroke-width:1;stroke-dasharray:5,5"/><rect width="154" height="40.297" x="428" y="190.531" fill="#FFFFE0" filter="url(#a)" rx="7.5" ry="7.5" style="stroke:#000;stroke-width:1"/><text x="440" y="215.526" font-family="sans-serif" font-size="14" textLength="42">字面量</text><text x="482" y="215.526" font-family="sans-serif" font-size="14" textLength="4"> </text><text x="486" y="215.526" font-family="sans-serif" font-size="14" textLength="66">(比如数字:</text><text x="552" y="215.526" font-family="sans-serif" font-size="14" textLength="4"> </text><text x="556" y="215.526" font-family="sans-serif" font-size="14" textLength="14">3)</text><path fill="none" d="M378 270.977h10c15 0 15-60.297 30-60.297h10" style="stroke:green;stroke-width:1;stroke-dasharray:5,5"/><rect width="206" height="40.297" x="428" y="250.828" fill="#FFFFE0" filter="url(#a)" rx="7.5" ry="7.5" style="stroke:#000;stroke-width:1"/><text x="440" y="275.823" font-family="sans-serif" font-size="14" textLength="98">复杂的数据结构</text><text x="538" y="275.823" font-family="sans-serif" font-size="14" textLength="4"> </text><text x="542" y="275.823" font-family="sans-serif" font-size="14" textLength="80">(比如结构体)</text><path fill="none" d="M378 270.977h50" style="stroke:green;stroke-width:1;stroke-dasharray:5,5"/><rect width="66" height="40.297" x="428" y="311.125" fill="#FFFFE0" filter="url(#a)" rx="7.5" ry="7.5" style="stroke:#000;stroke-width:1"/><text x="440" y="336.12" font-family="sans-serif" font-size="14" textLength="42">通配符</text><path fill="none" d="M378 270.977h10c15 0 15 60.296 30 60.296h10" style="stroke:green;stroke-width:1;stroke-dasharray:5,5"/><rect width="124" height="40.297" x="428" y="371.422" fill="#FFFFE0" filter="url(#a)" rx="7.5" ry="7.5" style="stroke:#000;stroke-width:1"/><text x="440" y="396.417" font-family="sans-serif" font-size="14" textLength="42">占位符</text><text x="482" y="396.417" font-family="sans-serif" font-size="14" textLength="4"> </text><text x="486" y="396.417" font-family="sans-serif" font-size="14" textLength="38">(比如:</text><text x="524" y="396.417" font-family="sans-serif" font-size="14" textLength="4"> </text><text x="528" y="396.417" font-family="sans-serif" font-size="14" textLength="12">_)</text><path fill="none" d="M378 270.977h10c15 0 15 120.593 30 120.593h10" style="stroke:green;stroke-width:1;stroke-dasharray:5,5"/><path fill="none" d="M262 325.57h10c15 0 15-54.593 30-54.593h10" style="stroke:red;stroke-width:1;stroke-dasharray:5,5"/><rect width="75" height="40.297" x="312" y="486.313" fill="#FBC" filter="url(#a)" rx="7.5" ry="7.5" style="stroke:#000;stroke-width:1"/><text x="324" y="511.308" font-family="sans-serif" font-size="14" textLength="51">2种类别</text><rect width="169" height="72.891" x="437" y="431.719" fill="#FBC" filter="url(#a)" rx="7.5" ry="7.5" style="stroke:#000;stroke-width:1"/><text x="487" y="456.714" font-family="sans-serif" font-size="14" textLength="69">irrefutable</text><text x="482" y="473.011" font-family="sans-serif" font-size="14" textLength="79">(不可辩驳的,</text><text x="449" y="489.308" font-family="sans-serif" font-size="14" textLength="145">表示这个匹配必定成功)</text><path fill="none" d="M387 506.46h10c15 0 15-38.296 30-38.296h10" style="stroke:green;stroke-width:1;stroke-dasharray:5,5"/><rect width="182" height="56.594" x="437" y="524.609" fill="#FBC" filter="url(#a)" rx="7.5" ry="7.5" style="stroke:#000;stroke-width:1"/><text x="497.5" y="549.605" font-family="sans-serif" font-size="14" textLength="61">refutable</text><text x="449" y="565.901" font-family="sans-serif" font-size="14" textLength="65">(可辩驳的,</text><text x="514" y="565.901" font-family="sans-serif" font-size="14" textLength="4"> </text><text x="518" y="565.901" font-family="sans-serif" font-size="14" textLength="89">可能匹配不了)</text><path fill="none" d="M387 506.46h10c15 0 15 46.446 30 46.446h10" style="stroke:green;stroke-width:1;stroke-dasharray:5,5"/><path fill="none" d="M262 325.57h10c15 0 15 180.89 30 180.89h10" style="stroke:red;stroke-width:1;stroke-dasharray:5,5"/><path fill="none" d="M160 394.016h10c15 0 15-68.446 30-68.446h10" style="stroke:green;stroke-width:1;stroke-dasharray:5,5"/><rect width="38" height="40.297" x="210" y="601.203" fill="gold" filter="url(#a)" rx="7.5" ry="7.5" style="stroke:#000;stroke-width:1"/><text x="222" y="626.198" font-family="sans-serif" font-size="14" textLength="14">值</text><rect width="206" height="40.297" x="298" y="601.203" fill="gold" filter="url(#a)" rx="7.5" ry="7.5" style="stroke:#000;stroke-width:1"/><text x="310" y="626.198" font-family="sans-serif" font-size="14" textLength="182">要与模式进行匹配的实际数据</text><path fill="none" d="M248 621.352h50" style="stroke:red;stroke-width:1;stroke-dasharray:5,5"/><path fill="none" d="M160 394.016h10c15 0 15 227.336 30 227.336h10" style="stroke:green;stroke-width:1;stroke-dasharray:5,5"/><rect width="52" height="40.297" x="210" y="669.648" fill="#E0FFFF" filter="url(#a)" rx="7.5" ry="7.5" style="stroke:#000;stroke-width:1"/><text x="222" y="694.644" font-family="sans-serif" font-size="14" textLength="28">绑定</text><rect width="308" height="56.594" x="312" y="661.5" fill="#E0FFFF" filter="url(#a)" rx="7.5" ry="7.5" style="stroke:#000;stroke-width:1"/><text x="324" y="686.495" font-family="sans-serif" font-size="14" textLength="284">当匹配成功后,模式上对应的变量(如果有的话),</text><text x="382" y="702.792" font-family="sans-serif" font-size="14" textLength="168">会将相关的值绑定到变量上</text><path fill="none" d="M262 689.797h50" style="stroke:red;stroke-width:1;stroke-dasharray:5,5"/><path fill="none" d="M160 394.016h10c15 0 15 295.78 30 295.78h10" style="stroke:green;stroke-width:1;stroke-dasharray:5,5"/><text x="308" y="742.089" font-family="sans-serif" font-size="14" textLength="27">图 1</text></svg>