<svg xmlns="http://www.w3.org/2000/svg" width="713" height="414" preserveAspectRatio="none" style="width:713px;height:414px;background:#fff"><defs><filter id="a" width="300%" height="300%" x="-1" y="-1"><feGaussianBlur result="blurOut" stdDeviation="2"/><feColorMatrix in="blurOut" result="blurOut2" values="0 0 0 0 0 0 0 0 0 0 0 0 0 0 0 0 0 0 .4 0"/><feOffset dx="4" dy="4" in="blurOut2" result="blurOut3"/><feBlend in="SourceGraphic" in2="blurOut3"/></filter></defs><text x="641" y="19.282" fill="#888" font-family="sans-serif" font-size="10" textLength="52">made by x</text><text x="301" y="45.636" font-family="sans-serif" font-size="14" font-weight="bold" textLength="101">reflect.Value</text><rect width="62" height="40.297" x="10" y="201.402" fill="#A8EB99" filter="url(#a)" rx="7.5" ry="7.5" style="stroke:#000;stroke-width:1"/><text x="22" y="226.398" font-family="sans-serif" font-size="14" textLength="38">Value</text><rect width="203" height="66.594" x="122" y="69.938" fill="#EAB8DE" filter="url(#a)" rx="7.5" ry="7.5" style="stroke:#000;stroke-width:1"/><text x="134" y="94.933" font-family="sans-serif" font-size="14" textLength="179">通过值获取对应reflect.Type</text><path d="M122 103.234h203" style="stroke:#000;stroke-width:1;stroke-dasharray:1,2"/><text x="199.5" y="121.23" font-family="sans-serif" font-size="14" textLength="48">.Type()</text><rect width="116" height="40.297" x="375" y="83.086" fill="#FBE972" filter="url(#a)" rx="7.5" ry="7.5" style="stroke:#000;stroke-width:1"/><text x="387" y="108.081" font-family="sans-serif" font-size="14" textLength="61">后续参考:</text><text x="448" y="108.081" font-family="sans-serif" font-size="14" textLength="4"> </text><text x="452" y="108.081" font-family="sans-serif" font-size="14" textLength="14">图</text><text x="466" y="108.081" font-family="sans-serif" font-size="14" textLength="4"> </text><text x="470" y="108.081" font-family="sans-serif" font-size="14" textLength="9">1</text><path fill="none" d="M325 103.234h50" style="stroke:#89c6fa;stroke-width:1;stroke-dasharray:5,5"/><path fill="none" d="M72 221.55h10c15 0 15-118.316 30-118.316h10" style="stroke:green;stroke-width:1;stroke-dasharray:5,5"/><rect width="228" height="40.297" x="122" y="186.68" fill="#E0FFFF" filter="url(#a)" rx="7.5" ry="7.5" style="stroke:#000;stroke-width:1"/><text x="134" y="211.675" font-family="sans-serif" font-size="14" textLength="204">.Type().Kind()==reflect.Struct</text><rect width="136" height="66.594" x="400" y="173.531" fill="#E0FFFF" filter="url(#a)" rx="7.5" ry="7.5" style="stroke:#000;stroke-width:1"/><text x="412" y="198.526" font-family="sans-serif" font-size="14" textLength="112">获取字段的值信息</text><path d="M400 206.828h136" style="stroke:#000;stroke-width:1;stroke-dasharray:1,2"/><text x="436.5" y="224.823" font-family="sans-serif" font-size="14" textLength="63">.Field(int)</text><rect width="108" height="66.594" x="586" y="143.383" fill="#E0FFFF" filter="url(#a)" rx="7.5" ry="7.5" style="stroke:#000;stroke-width:1"/><text x="598" y="168.378" font-family="sans-serif" font-size="14" textLength="84">值是否可修改</text><path d="M586 176.68h108" style="stroke:#000;stroke-width:1;stroke-dasharray:1,2"/><text x="608" y="194.675" font-family="sans-serif" font-size="14" textLength="64">.CanSet()</text><path fill="none" d="M536 206.828h10c15 0 15-30.148 30-30.148h10" style="stroke:green;stroke-width:1;stroke-dasharray:5,5"/><rect width="99" height="40.297" x="586" y="229.977" fill="#E0FFFF" filter="url(#a)" rx="7.5" ry="7.5" style="stroke:#000;stroke-width:1"/><text x="598" y="254.972" font-family="sans-serif" font-size="14" textLength="75">.Set(Value)</text><path fill="none" d="M536 206.828h10c15 0 15 43.297 30 43.297h10" style="stroke:green;stroke-width:1;stroke-dasharray:5,5"/><path fill="none" d="M350 206.828h50" style="stroke:#89c6fa;stroke-width:1;stroke-dasharray:5,5"/><path fill="none" d="M72 221.55h10c15 0 15-14.722 30-14.722h10" style="stroke:green;stroke-width:1;stroke-dasharray:5,5"/><rect width="206" height="40.297" x="122" y="311.57" fill="#FFFFE5" filter="url(#a)" rx="7.5" ry="7.5" style="stroke:#000;stroke-width:1"/><text x="134" y="336.565" font-family="sans-serif" font-size="14" textLength="182">.Type().Kind()==reflect.Ptr</text><rect width="298" height="82.891" x="378" y="290.273" fill="#FFFFE5" filter="url(#a)" rx="7.5" ry="7.5" style="stroke:#000;stroke-width:1"/><text x="417" y="315.269" font-family="sans-serif" font-size="14" textLength="220">获取指针指向的数据的值信息Value</text><text x="390" y="331.565" font-family="sans-serif" font-size="14" textLength="274">接着还是根据.Type().Kind()类别做相关操作</text><path d="M378 339.867h298" style="stroke:#000;stroke-width:1;stroke-dasharray:1,2"/><text x="503" y="357.862" font-family="sans-serif" font-size="14" textLength="48">.Elem()</text><path fill="none" d="M328 331.719h50" style="stroke:#89c6fa;stroke-width:1;stroke-dasharray:5,5"/><path fill="none" d="M72 221.55h10c15 0 15 110.169 30 110.169h10" style="stroke:green;stroke-width:1;stroke-dasharray:5,5"/><text x="338" y="397.159" font-family="sans-serif" font-size="14" textLength="27">图 2</text></svg>