<svg xmlns="http://www.w3.org/2000/svg" width="809.605" height="727.966"><defs><style>@font-face{font-family:&quot;Virgil&quot;;src:url(https://unpkg.com/@excalidraw/excalidraw@undefined/dist/excalidraw-assets/Virgil.woff2)}@font-face{font-family:&quot;Cascadia&quot;;src:url(https://unpkg.com/@excalidraw/excalidraw@undefined/dist/excalidraw-assets/Cascadia.woff2)}@font-face{font-family:&quot;Assistant&quot;;src:url(https://unpkg.com/@excalidraw/excalidraw@undefined/dist/excalidraw-assets/Assistant-Regular.woff2)}</style></defs><path fill="#fff" d="M0 0h809.605v727.966H0z"/><path fill="none" stroke="#000" stroke-linecap="round" d="M16.419 37.966v32m0-32v32M40.419 53.966v16m0-16v16"/><text fill="#e67700" dominant-baseline="text-before-edge" font-family="Helvetica, Segoe UI Emoji" font-size="16" style="white-space:pre" transform="rotate(-89.787 359.32 -22.97)">FIN</text><path fill="none" stroke="#000" stroke-linecap="round" d="M64.419 53.966v16m0-16v16M88.419 53.966v16m0-16v16M112.419 53.966v16m0-16v16M136.419 53.966v16m0-16v16M160.419 53.966v16m0-16v16M184.419 53.966v16m0-16v16M208.419 37.966v32m0-32v32M232.419 53.966v16m0-16v16M256.419 53.966v16m0-16v16M280.419 53.966v16m0-16v16M304.419 53.966v16m0-16v16M328.419 53.966v16m0-16v16M352.419 53.966v16m0-16v16M376.419 53.966v16m0-16v16M400.419 37.966v32m0-32v32M424.419 53.966v16m0-16v16M448.419 53.966v16m0-16v16M472.419 53.966v16m0-16v16M496.419 53.966v16m0-16v16M520.419 53.966v16m0-16v16M544.419 53.966v16m0-16v16M568.419 53.966v16m0-16v16M592.419 37.966v32m0-32v32M616.419 53.966v16m0-16v16M640.419 53.966v16m0-16v16M664.419 53.966v16m0-16v16M688.419 53.966v16m0-16v16M712.419 53.966v16m0-16v16M736.419 53.966v16m0-16v16M760.419 53.966v16m0-16v16M784.419 37.966v32m0-32v32"/><g stroke-linecap="round"><path fill="#FFF" stroke-width="0" d="M16.419 69.966h384v72h-384"/><path fill="none" stroke="#FFF" d="M16.419 69.966h384m-384 0h384m0 0v72m0-72v72m0 0h-384m384 0h-384m0 0v-72m0 72v-72"/></g><path fill="none" stroke="#000" stroke-linecap="round" d="M16.419 69.966h384m-384 0h384M400.419 69.966v72m0-72v72M400.419 141.966h-384m384 0h-384M16.419 141.966v-72m0 72v-72"/><g stroke-linecap="round"><path fill="#FFF" stroke-width="0" d="M399.8 69.966h384v72h-384"/><path fill="none" stroke="#FFF" d="M399.8 69.966h384m-384 0h384m0 0v72m0-72v72m0 0h-384m384 0h-384m0 0v-72m0 72v-72"/></g><text x="61.123" dominant-baseline="text-before-edge" font-family="Helvetica, Segoe UI Emoji" font-size="20" style="white-space:pre" text-anchor="middle" transform="translate(530.676 94.466)">16位目标端口</text><path fill="none" stroke="#000" stroke-linecap="round" d="M400.419 69.966h384m-384 0h384M784.419 69.966v72m0-72v72M784.419 141.966h-384m384 0h-384M400.419 141.966v-72m0 72v-72M16.419 141.966h768m-768 0h768M784.419 141.966v72m0-72v72M784.419 213.966h-768m768 0h-768M16.419 213.966v-72m0 72v-72"/><g stroke-linecap="round"><path fill="#FFF" stroke-width="0" d="M16.419 213.966h768v72h-768"/><path fill="none" stroke="#FFF" d="M16.419 213.966h768m-768 0h768m0 0v72m0-72v72m0 0h-768m768 0h-768m0 0v-72m0 72v-72"/></g><text x="168.398" dominant-baseline="text-before-edge" font-family="Helvetica, Segoe UI Emoji" font-size="20" style="white-space:pre" text-anchor="middle" transform="translate(232.02 238.466)">32位确认号 Acknowledgment Number</text><path fill="none" stroke="#000" stroke-linecap="round" d="M16.419 213.966h768m-768 0h768M784.419 213.966v72m0-72v72M784.419 285.966h-768m768 0h-768M16.419 285.966v-72m0 72v-72"/><g stroke-linecap="round"><path fill="#FFF" stroke-width="0" d="M16.419 285.966h96v72h-96"/><path fill="none" stroke="#FFF" d="M16.419 285.966h96m-96 0h96m0 0v72m0-72v72m0 0h-96m96 0h-96m0 0v-72m0 72v-72"/></g><text x="35.024" dominant-baseline="text-before-edge" font-family="Helvetica, Segoe UI Emoji" font-size="20" style="white-space:pre" text-anchor="middle" transform="translate(29.394 298.966)">4位data</text><text x="35.024" y="23" dominant-baseline="text-before-edge" font-family="Helvetica, Segoe UI Emoji" font-size="20" style="white-space:pre" text-anchor="middle" transform="translate(29.394 298.966)">offset</text><path fill="none" stroke="#000" stroke-linecap="round" d="M16.419 285.966h96m-96 0h96M112.419 285.966v72m0-72v72M112.419 357.966h-96m96 0h-96M16.419 357.966v-72m0 72v-72"/><g stroke-linecap="round"><path fill="#FFF" stroke-width="0" d="M112.419 285.966h144v72h-144"/><path fill="none" stroke="#FFF" d="M112.419 285.966h144m-144 0h144m0 0v72m0-72v72m0 0h-144m144 0h-144m0 0v-72m0 72v-72"/></g><text x="45.562" dominant-baseline="text-before-edge" font-family="Helvetica, Segoe UI Emoji" font-size="20" style="white-space:pre" text-anchor="middle" transform="translate(138.857 310.466)">6位保留位</text><path fill="none" stroke="#000" stroke-linecap="round" d="M112.419 285.966h144m-144 0h144M256.419 285.966v72m0-72v72M256.419 357.966h-144m144 0h-144M112.419 357.966v-72m0 72v-72"/><g stroke-linecap="round"><path fill="#FFF" stroke-width="0" d="M256.419 285.966h24v72h-24"/><path fill="none" stroke="#FFF" d="M256.419 285.966h24m-24 0h24m0 0v72m0-72v72m0 0h-24m24 0h-24m0 0v-72m0 72v-72"/></g><path fill="none" stroke="#000" stroke-linecap="round" d="M256.419 285.966h24m-24 0h24M280.419 285.966v72m0-72v72M280.419 357.966h-24m24 0h-24M256.419 357.966v-72m0 72v-72"/><g stroke-linecap="round"><path fill="#FFF" stroke-width="0" d="M280.419 285.966h24v72h-24"/><path fill="none" stroke="#FFF" d="M280.419 285.966h24m-24 0h24m0 0v72m0-72v72m0 0h-24m24 0h-24m0 0v-72m0 72v-72"/></g><path fill="none" stroke="#000" stroke-linecap="round" d="M280.419 285.966h24m-24 0h24M304.419 285.966v72m0-72v72M304.419 357.966h-24m24 0h-24M280.419 357.966v-72m0 72v-72"/><g stroke-linecap="round"><path fill="#FFF" stroke-width="0" d="M304.419 285.966h24v72h-24"/><path fill="none" stroke="#FFF" d="M304.419 285.966h24m-24 0h24m0 0v72m0-72v72m0 0h-24m24 0h-24m0 0v-72m0 72v-72"/></g><path fill="none" stroke="#000" stroke-linecap="round" d="M304.419 285.966h24m-24 0h24M328.419 285.966v72m0-72v72M328.419 357.966h-24m24 0h-24M304.419 357.966v-72m0 72v-72"/><g stroke-linecap="round"><path fill="#FFF" stroke-width="0" d="M328.419 285.966h24v72h-24"/><path fill="none" stroke="#FFF" d="M328.419 285.966h24m-24 0h24m0 0v72m0-72v72m0 0h-24m24 0h-24m0 0v-72m0 72v-72"/></g><path fill="none" stroke="#000" stroke-linecap="round" d="M328.419 285.966h24m-24 0h24M352.419 285.966v72m0-72v72M352.419 357.966h-24m24 0h-24M328.419 357.966v-72m0 72v-72"/><g stroke-linecap="round"><path fill="#FFF" stroke-width="0" d="M352.419 285.966h24v72h-24"/><path fill="none" stroke="#FFF" d="M352.419 285.966h24m-24 0h24m0 0v72m0-72v72m0 0h-24m24 0h-24m0 0v-72m0 72v-72"/></g><path fill="none" stroke="#000" stroke-linecap="round" d="M352.419 285.966h24m-24 0h24M376.419 285.966v72m0-72v72M376.419 357.966h-24m24 0h-24M352.419 357.966v-72m0 72v-72M376.419 285.966h24m-24 0h24M400.419 285.966v72m0-72v72M400.419 357.966h-24m24 0h-24M376.419 357.966v-72m0 72v-72"/><g stroke-linecap="round"><path fill="#FFF" stroke-width="0" d="M400.419 285.966h384v72h-384"/><path fill="none" stroke="#FFF" d="M400.419 285.966h384m-384 0h384m0 0v72m0-72v72m0 0h-384m384 0h-384m0 0v-72m0 72v-72"/></g><text x="77.251" dominant-baseline="text-before-edge" font-family="Helvetica, Segoe UI Emoji" font-size="20" style="white-space:pre" text-anchor="middle" transform="translate(515.168 310.466)">16位窗口 window</text><path fill="none" stroke="#000" stroke-linecap="round" d="M400.419 285.966h384m-384 0h384M784.419 285.966v72m0-72v72M784.419 357.966h-384m384 0h-384M400.419 357.966v-72m0 72v-72"/><g stroke-linecap="round"><path fill="#FFF" stroke-width="0" d="M16.419 357.966h384v72h-384"/><path fill="none" stroke="#FFF" d="M16.419 357.966h384m-384 0h384m0 0v72m0-72v72m0 0h-384m384 0h-384m0 0v-72m0 72v-72"/></g><text x="101.138" dominant-baseline="text-before-edge" font-family="Helvetica, Segoe UI Emoji" font-size="20" style="white-space:pre" text-anchor="middle" transform="translate(107.28 382.466)">16位校验和 Checksum</text><path fill="none" stroke="#000" stroke-linecap="round" d="M16.419 357.966h384m-384 0h384M400.419 357.966v72m0-72v72M400.419 429.966h-384m384 0h-384M16.419 429.966v-72m0 72v-72"/><g stroke-linecap="round"><path fill="#FFF" stroke-width="0" d="M400.419 357.966h384v72h-384"/><path fill="none" stroke="#FFF" d="M400.419 357.966h384m-384 0h384m0 0v72m0-72v72m0 0h-384m384 0h-384m0 0v-72m0 72v-72"/></g><text x="128.379" dominant-baseline="text-before-edge" font-family="Helvetica, Segoe UI Emoji" font-size="20" style="white-space:pre" text-anchor="middle" transform="translate(464.04 382.466)">16位紧急指针 Urgent Pointer</text><path fill="none" stroke="#000" stroke-linecap="round" d="M400.419 357.966h384m-384 0h384M784.419 357.966v72m0-72v72M784.419 429.966h-384m384 0h-384M400.419 429.966v-72m0 72v-72"/><g stroke-linecap="round"><path fill="#FFF" stroke-width="0" d="M16.419 429.966h768v72h-768"/><path fill="none" stroke="#FFF" d="M16.419 429.966h768m-768 0h768m0 0v72m0-72v72m0 0h-768m768 0h-768m0 0v-72m0 72v-72"/></g><text x="100.063" dominant-baseline="text-before-edge" font-family="Helvetica, Segoe UI Emoji" font-size="20" style="white-space:pre" text-anchor="middle" transform="translate(300.355 454.466)">(Options and Padding)</text><path fill="none" stroke="#000" stroke-linecap="round" d="M16.419 429.966h768m-768 0h768M784.419 429.966v72m0-72v72M784.419 501.966h-768m768 0h-768M16.419 501.966v-72m0 72v-72"/><g stroke-linecap="round"><path fill="#FFF" stroke-width="0" d="M16.419 501.966h768v216h-768"/><path fill="none" stroke="#FFF" d="M16.419 501.966h768m-768 0h768m0 0v216m0-216v216m0 0h-768m768 0h-768m0 0v-216m0 216v-216"/></g><path fill="none" stroke="#000" stroke-linecap="round" d="M16.419 501.966h768m-768 0h768M784.419 501.966v216m0-216v216M784.419 717.966h-768m768 0h-768M16.419 717.966v-216m0 216v-216"/><text fill="#343a40" dominant-baseline="text-before-edge" font-family="Helvetica, Segoe UI Emoji" font-size="16" style="white-space:pre" transform="translate(10 10.771)">0</text><text fill="#343a40" dominant-baseline="text-before-edge" font-family="Helvetica, Segoe UI Emoji" font-size="16" style="white-space:pre" transform="translate(388.605 10)">16</text><text fill="#343a40" dominant-baseline="text-before-edge" font-family="Helvetica, Segoe UI Emoji" font-size="16" style="white-space:pre" transform="translate(779.605 11)">31</text><text dominant-baseline="text-before-edge" font-family="Helvetica, Segoe UI Emoji" font-size="20" style="white-space:pre" transform="translate(158.865 92.869)">16位源端口</text><text fill="#e67700" dominant-baseline="text-before-edge" font-family="Helvetica, Segoe UI Emoji" font-size="16.549" style="white-space:pre" transform="rotate(-89.787 348.539 -8.672)">SYN</text><text fill="#343a40" dominant-baseline="text-before-edge" font-family="Helvetica, Segoe UI Emoji" font-size="16.549" style="white-space:pre" transform="rotate(-89.787 335.562 2.66)">RST</text><text fill="#343a40" dominant-baseline="text-before-edge" font-family="Helvetica, Segoe UI Emoji" font-size="16.549" style="white-space:pre" transform="rotate(-89.787 323.859 16.086)">PSH</text><text fill="#e67700" dominant-baseline="text-before-edge" font-family="Helvetica, Segoe UI Emoji" font-size="16" style="white-space:pre" transform="rotate(-89.787 311.806 27.397)">ACK</text><text fill="#343a40" dominant-baseline="text-before-edge" font-family="Helvetica, Segoe UI Emoji" font-size="16.549" style="white-space:pre" transform="rotate(-89.787 301.024 40.613)">URG</text><text dominant-baseline="text-before-edge" font-family="Helvetica, Segoe UI Emoji" font-size="20" style="white-space:pre" transform="translate(365.682 579.31)">数据 data</text><text dominant-baseline="text-before-edge" font-family="Helvetica, Segoe UI Emoji" font-size="20" style="white-space:pre" transform="translate(252.146 166.482)">32位序列号 Sequence Number</text></svg>