<svg xmlns="http://www.w3.org/2000/svg" width="498" height="326" preserveAspectRatio="none" style="width:498px;height:326px;background:#fff"><defs><filter id="a" width="300%" height="300%" x="-1" y="-1"><feGaussianBlur result="blurOut" stdDeviation="2"/><feColorMatrix in="blurOut" result="blurOut2" values="0 0 0 0 0 0 0 0 0 0 0 0 0 0 0 0 0 0 .4 0"/><feOffset dx="4" dy="4" in="blurOut2" result="blurOut3"/><feBlend in="SourceGraphic" in2="blurOut3"/></filter></defs><text x="417" y="19.282" fill="#888" font-family="sans-serif" font-size="10" textLength="61">created by x</text><text x="209" y="45.636" font-family="sans-serif" font-size="14" font-weight="bold" textLength="70">奇异的类型</text><rect width="80" height="40.297" x="10" y="157.531" fill="#A8EB99" filter="url(#a)" rx="7.5" ry="7.5" style="stroke:#000;stroke-width:1"/><text x="22" y="182.526" font-family="sans-serif" font-size="14" textLength="56">奇异类型</text><rect width="192" height="56.594" x="140" y="91.938" fill="#FBC" filter="url(#a)" rx="7.5" ry="7.5" style="stroke:#000;stroke-width:1"/><text x="189.5" y="116.933" font-family="sans-serif" font-size="14" textLength="4"> </text><text x="193.5" y="116.933" font-family="sans-serif" font-size="14" textLength="29">DST</text><text x="222.5" y="116.933" font-family="sans-serif" font-size="14" textLength="4"> </text><text x="226.5" y="116.933" font-family="sans-serif" font-size="14" textLength="56">动态类型</text><text x="152" y="133.23" font-family="sans-serif" font-size="14" textLength="80">Dynamically</text><text x="232" y="133.23" font-family="sans-serif" font-size="14" textLength="4"> </text><text x="236" y="133.23" font-family="sans-serif" font-size="14" textLength="38">Sized</text><text x="274" y="133.23" font-family="sans-serif" font-size="14" textLength="4"> </text><text x="278" y="133.23" font-family="sans-serif" font-size="14" textLength="42">Types</text><rect width="97" height="40.297" x="382" y="69.938" fill="#FBC" filter="url(#a)" rx="7.5" ry="7.5" style="stroke:#000;stroke-width:1"/><text x="394" y="94.933" font-family="sans-serif" font-size="14" textLength="26">trait</text><text x="420" y="94.933" font-family="sans-serif" font-size="14" textLength="4"> </text><text x="424" y="94.933" font-family="sans-serif" font-size="14" textLength="43">object</text><path fill="none" d="M332 120.234h10c15 0 15-30.148 30-30.148h10" style="stroke:red;stroke-width:1;stroke-dasharray:5,5"/><rect width="55" height="40.297" x="382" y="130.234" fill="#FBC" filter="url(#a)" rx="7.5" ry="7.5" style="stroke:#000;stroke-width:1"/><text x="394" y="155.23" font-family="sans-serif" font-size="14" textLength="31">slice</text><path fill="none" d="M332 120.234h10c15 0 15 30.149 30 30.149h10" style="stroke:red;stroke-width:1;stroke-dasharray:5,5"/><path fill="none" d="M90 177.68h10c15 0 15-57.446 30-57.446h10" style="stroke:green;stroke-width:1;stroke-dasharray:5,5"/><rect width="145" height="56.594" x="140" y="168.531" fill="#FFFFE0" filter="url(#a)" rx="7.5" ry="7.5" style="stroke:#000;stroke-width:1"/><text x="159.5" y="193.526" font-family="sans-serif" font-size="14" textLength="4"> </text><text x="163.5" y="193.526" font-family="sans-serif" font-size="14" textLength="28">ZST</text><text x="191.5" y="193.526" font-family="sans-serif" font-size="14" textLength="4"> </text><text x="195.5" y="193.526" font-family="sans-serif" font-size="14" textLength="70">零尺寸类型</text><text x="152" y="209.823" font-family="sans-serif" font-size="14" textLength="33">Zero</text><text x="185" y="209.823" font-family="sans-serif" font-size="14" textLength="4"> </text><text x="189" y="209.823" font-family="sans-serif" font-size="14" textLength="38">Sized</text><text x="227" y="209.823" font-family="sans-serif" font-size="14" textLength="4"> </text><text x="231" y="209.823" font-family="sans-serif" font-size="14" textLength="42">Types</text><path fill="none" d="M90 177.68h10c15 0 15 19.148 30 19.148h10" style="stroke:green;stroke-width:1;stroke-dasharray:5,5"/><rect width="155" height="40.297" x="140" y="245.125" fill="#FBE972" filter="url(#a)" rx="7.5" ry="7.5" style="stroke:#000;stroke-width:1"/><text x="152" y="270.12" font-family="sans-serif" font-size="14" textLength="42">空类型</text><text x="194" y="270.12" font-family="sans-serif" font-size="14" textLength="4"> </text><text x="198" y="270.12" font-family="sans-serif" font-size="14" textLength="43">empty</text><text x="241" y="270.12" font-family="sans-serif" font-size="14" textLength="4"> </text><text x="245" y="270.12" font-family="sans-serif" font-size="14" textLength="38">types</text><path fill="none" d="M90 177.68h10c15 0 15 87.593 30 87.593h10" style="stroke:green;stroke-width:1;stroke-dasharray:5,5"/><text x="230.5" y="309.417" font-family="sans-serif" font-size="14" textLength="27">图 1</text></svg>