<svg xmlns="http://www.w3.org/2000/svg" width="449" height="471" preserveAspectRatio="none" style="width:449px;height:471px;background:#fff"><defs><filter id="a" width="300%" height="300%" x="-1" y="-1"><feGaussianBlur result="blurOut" stdDeviation="2"/><feColorMatrix in="blurOut" result="blurOut2" values="0 0 0 0 0 0 0 0 0 0 0 0 0 0 0 0 0 0 .4 0"/><feOffset dx="4" dy="4" in="blurOut2" result="blurOut3"/><feBlend in="SourceGraphic" in2="blurOut3"/></filter></defs><text x="377" y="19.282" fill="#888" font-family="sans-serif" font-size="10" textLength="52">made by x</text><text x="184" y="45.636" font-family="sans-serif" font-size="14" font-weight="bold" textLength="71">HASH算法</text><rect width="90" height="40.297" x="10" y="229.977" fill="#A8EB99" filter="url(#a)" rx="7.5" ry="7.5" style="stroke:#000;stroke-width:1"/><text x="22" y="254.972" font-family="sans-serif" font-size="14" textLength="66">HASH算法</text><rect width="280" height="66.594" x="150" y="69.938" fill="#FBE972" filter="url(#a)" rx="7.5" ry="7.5" style="stroke:#000;stroke-width:1"/><text x="274" y="94.933" font-family="sans-serif" font-size="14" textLength="32">MD5</text><path d="M150 103.234h280" style="stroke:#000;stroke-width:1;stroke-dasharray:1,2"/><text x="162" y="121.23" font-family="sans-serif" font-size="14" textLength="256">不推荐使用,安全性较低容易受到碰撞攻击</text><path fill="none" d="M100 250.125h10c15 0 15-146.89 30-146.89h10" style="stroke:green;stroke-width:1;stroke-dasharray:5,5"/><rect width="122" height="66.594" x="150" y="156.531" fill="#E0FFFF" filter="url(#a)" rx="7.5" ry="7.5" style="stroke:#000;stroke-width:1"/><text x="190" y="181.526" font-family="sans-serif" font-size="14" textLength="42">SHA-1</text><path d="M150 189.828h122" style="stroke:#000;stroke-width:1;stroke-dasharray:1,2"/><text x="162" y="207.823" font-family="sans-serif" font-size="14" textLength="98">同上一样的问题</text><path fill="none" d="M100 250.125h10c15 0 15-60.297 30-60.297h10" style="stroke:green;stroke-width:1;stroke-dasharray:5,5"/><rect width="219" height="66.594" x="150" y="243.125" fill="#94C644" filter="url(#a)" rx="7.5" ry="7.5" style="stroke:#000;stroke-width:1"/><text x="229.5" y="268.12" font-family="sans-serif" font-size="14" textLength="60">SHA-256</text><path d="M150 276.422h219" style="stroke:#000;stroke-width:1;stroke-dasharray:1,2"/><text x="162" y="294.417" font-family="sans-serif" font-size="14" textLength="195">输出长度为256位目前广泛使用</text><path fill="none" d="M100 250.125h10c15 0 15 26.297 30 26.297h10" style="stroke:green;stroke-width:1;stroke-dasharray:5,5"/><rect width="66" height="40.297" x="150" y="329.719" fill="gold" filter="url(#a)" rx="7.5" ry="7.5" style="stroke:#000;stroke-width:1"/><text x="162" y="354.714" font-family="sans-serif" font-size="14" textLength="42">SHA-3</text><path fill="none" d="M100 250.125h10c15 0 15 99.742 30 99.742h10" style="stroke:green;stroke-width:1;stroke-dasharray:5,5"/><rect width="65" height="40.297" x="150" y="390.016" fill="#FBC" filter="url(#a)" rx="7.5" ry="7.5" style="stroke:#000;stroke-width:1"/><text x="162" y="415.011" font-family="sans-serif" font-size="14" textLength="41">HMAC</text><path fill="none" d="M100 250.125h10c15 0 15 160.04 30 160.04h10" style="stroke:green;stroke-width:1;stroke-dasharray:5,5"/><text x="206" y="454.308" font-family="sans-serif" font-size="14" textLength="27">图 1</text></svg>