<svg version="1.1" xmlns="http://www.w3.org/2000/svg" viewBox="0 0 318.5234375 143.7734375" width="318.5234375" height="143.7734375">
  <!-- svg-source:excalidraw -->
  
  <defs>
    <style class="style-fonts">
      @font-face {
        font-family: "Virgil";
        src: url("/stylesheets/font/Virgil-hand.woff2");
      }
      @font-face {
        font-family: "Cascadia";
        src: url("https://unpkg.com/@excalidraw/excalidraw@0.15.3/dist/excalidraw-assets/Cascadia.woff2");
      }
    </style>
  </defs>
  <rect x="0" y="0" width="318.5234375" height="143.7734375" fill="#ffffff"></rect><g stroke-linecap="round" transform="translate(10 10) rotate(0 149.26171875 61.88671875)"><path d="M30.94 0 M30.94 0 C79.67 -0.93, 124.77 -1, 267.58 0 M30.94 0 C81.57 -1.67, 132.3 -0.99, 267.58 0 M267.58 0 C287.63 1.39, 298.92 9.77, 298.52 30.94 M267.58 0 C289.9 -1.64, 300.44 11.75, 298.52 30.94 M298.52 30.94 C299.22 52.68, 298.42 71.75, 298.52 92.83 M298.52 30.94 C298.73 48.42, 299.51 67.61, 298.52 92.83 M298.52 92.83 C299.71 115.3, 287.09 122.7, 267.58 123.77 M298.52 92.83 C297.29 115.06, 290.31 123.15, 267.58 123.77 M267.58 123.77 C176.69 123, 88.64 125.22, 30.94 123.77 M267.58 123.77 C216.33 122.84, 165.2 123.07, 30.94 123.77 M30.94 123.77 C11.86 122.84, 1.34 115.02, 0 92.83 M30.94 123.77 C10.79 121.67, -0.44 115.68, 0 92.83 M0 92.83 C-1.69 66.69, 0.14 42.12, 0 30.94 M0 92.83 C0.1 75.02, 0.13 55.35, 0 30.94 M0 30.94 C0.49 11.38, 9.49 -0.34, 30.94 0 M0 30.94 C0.39 10.17, 10.39 0.81, 30.94 0" stroke="#1e1e1e" stroke-width="2" fill="none"></path></g><g transform="translate(44.6937255859375 58.059735107421886) rotate(0 78.69398498535156 17.5)"><text x="0" y="0" font-family="Virgil, Segoe UI Emoji" font-size="28px" fill="#1e1e1e" text-anchor="start" style="white-space: pre;" direction="ltr" dominant-baseline="text-before-edge">我们是 hello</text></g></svg>