<svg xmlns="http://www.w3.org/2000/svg" width="318.523" height="143.773"><defs><style>@font-face{font-family:&quot;Virgil&quot;;src:url(https://unpkg.com/@excalidraw/excalidraw@undefined/dist/excalidraw-assets/Virgil.woff2)}@font-face{font-family:&quot;Cascadia&quot;;src:url(https://unpkg.com/@excalidraw/excalidraw@undefined/dist/excalidraw-assets/Cascadia.woff2)}@font-face{font-family:&quot;Assistant&quot;;src:url(https://unpkg.com/@excalidraw/excalidraw@undefined/dist/excalidraw-assets/Assistant-Regular.woff2)}</style></defs><path fill="#fff" d="M0 0h318.523v143.773H0z"/><path fill="none" stroke="#1e1e1e" stroke-linecap="round" stroke-width="2" d="M40.94 10c48.73-.93 93.83-1 236.64 0M40.94 10c50.63-1.67 101.36-.99 236.64 0m0 0c20.05 1.39 31.34 9.77 30.94 30.94M277.58 10c22.32-1.64 32.86 11.75 30.94 30.94m0 0c.7 21.74-.1 40.81 0 61.89m0-61.89c.21 17.48.99 36.67 0 61.89m0 0c1.19 22.47-11.43 29.87-30.94 30.94m30.94-30.94c-1.23 22.23-8.21 30.32-30.94 30.94m0 0c-90.89-.77-178.94 1.45-236.64 0m236.64 0c-51.25-.93-102.38-.7-236.64 0m0 0c-19.08-.93-29.6-8.75-30.94-30.94m30.94 30.94c-20.15-2.1-31.38-8.09-30.94-30.94m0 0c-1.69-26.14.14-50.71 0-61.89m0 61.89c.1-17.81.13-37.48 0-61.89m0 0C10.49 21.38 19.49 9.66 40.94 10M10 40.94C10.39 20.17 20.39 10.81 40.94 10"/><text fill="#1e1e1e" dominant-baseline="text-before-edge" font-family="Virgil, Segoe UI Emoji" font-size="28" style="white-space:pre" transform="translate(44.694 58.06)">我们是 hello</text></svg>