<svg xmlns="http://www.w3.org/2000/svg" width="531.482" height="303.041"><defs><style>@font-face{font-family:&quot;Virgil&quot;;src:url(https://unpkg.com/@excalidraw/excalidraw@undefined/dist/excalidraw-assets/Virgil.woff2)}@font-face{font-family:&quot;Cascadia&quot;;src:url(https://unpkg.com/@excalidraw/excalidraw@undefined/dist/excalidraw-assets/Cascadia.woff2)}@font-face{font-family:&quot;Assistant&quot;;src:url(https://unpkg.com/@excalidraw/excalidraw@undefined/dist/excalidraw-assets/Assistant-Regular.woff2)}</style></defs><path fill="#fff" d="M0 0h531.482v303.041H0z"/><g stroke-linecap="round"><path fill="none" stroke="#82c91e" stroke-width=".5" d="M76.488 126.291q0 0 0 0m0 0q0 0 0 0m-.26 6.4c1.58-1.82 3.16-3.63 5.25-6.04m-5.25 6.04c1.91-2.2 3.82-4.4 5.25-6.04m-4.86 11.68c2.59-2.97 5.17-5.95 10.5-12.07m-10.5 12.07c2.12-2.44 4.24-4.88 10.5-12.07m-10.76 18.47c4.4-5.07 8.81-10.13 15.75-18.11m-15.75 18.11c6.08-6.99 12.15-13.98 15.75-18.11m-15.35 23.75c4.3-4.95 8.6-9.9 20.99-24.15m-20.99 24.15 20.99-24.15m-21.26 30.55c10.1-11.62 20.2-23.23 26.25-30.19m-26.25 30.19c5.89-6.77 11.78-13.55 26.25-30.19m-26.51 36.59 32.15-36.98m-32.15 36.98c11.9-13.69 23.8-27.38 32.15-36.98m-30.44 41.11c9.29-10.69 18.59-21.38 35.43-40.75m-35.43 40.75c7.31-8.41 14.62-16.82 35.43-40.75m-30.44 41.11c12.48-14.36 24.96-28.72 36.08-41.51m-36.08 41.51 36.08-41.51m-30.44 41.12c10.38-11.94 20.76-23.89 35.43-40.76m-35.43 40.76c13.24-15.24 26.49-30.48 35.43-40.76m-30.44 41.12c8.64-9.94 17.27-19.88 36.08-41.51m-36.08 41.51c7.36-8.47 14.71-16.93 36.08-41.51m-30.44 41.11c13.88-15.96 27.76-31.93 35.43-40.75m-35.43 40.75c10.08-11.59 20.16-23.18 35.43-40.75m-30.44 41.11 36.08-41.51m-36.08 41.51c9.64-11.09 19.29-22.19 36.08-41.51m-30.44 41.12c7.36-8.47 14.73-16.94 35.43-40.76m-35.43 40.76c7.49-8.62 14.99-17.24 35.43-40.76m-30.44 41.12c11.12-12.8 22.24-25.59 36.08-41.51m-36.08 41.51c13.15-15.14 26.31-30.27 36.08-41.51m-30.44 41.11 35.43-40.75m-35.43 40.75 35.43-40.75m-30.44 41.11c7.25-8.34 14.51-16.69 36.08-41.51m-36.08 41.51c11.46-13.18 22.91-26.36 36.08-41.51m-30.44 41.12c9.27-10.67 18.55-21.34 35.43-40.76m-35.43 40.76c13.68-15.74 27.36-31.47 35.43-40.76m-30.44 41.12 36.08-41.51m-36.08 41.51c13.11-15.09 26.23-30.18 36.08-41.51m-30.44 41.11c9.57-11 19.14-22.01 35.43-40.75m-35.43 40.75c12.7-14.6 25.4-29.21 35.43-40.75m-30.44 41.11c9.2-10.59 18.41-21.18 36.08-41.5m-36.08 41.5c12.82-14.75 25.65-29.51 36.08-41.5m-30.44 41.11c11.94-13.74 23.89-27.48 35.43-40.75m-35.43 40.75 35.43-40.75m-30.44 41.11c12.05-13.86 24.1-27.72 35.42-40.75m-35.42 40.75 35.42-40.75m-29.78 40.35c13.61-15.65 27.21-31.3 35.43-40.75m-35.43 40.75c12.47-14.34 24.94-28.68 35.43-40.75m-30.44 41.12c7.21-8.3 14.41-16.59 35.43-40.76m-35.43 40.76c9.47-10.9 18.94-21.8 35.43-40.76m-29.79 40.36c9.44-10.86 18.88-21.71 35.43-40.75m-35.43 40.75c13.88-15.96 27.75-31.92 35.43-40.75m-30.44 41.11c10.38-11.94 20.76-23.88 35.43-40.75m-35.43 40.75c13.16-15.14 26.32-30.27 35.43-40.75m-30.45 41.11c12.77-14.69 25.54-29.37 34.12-39.24m-34.12 39.24 34.12-39.24m-28.47 38.85c8.4-9.66 16.79-19.32 28.86-33.21m-28.86 33.21c11.25-12.94 22.49-25.88 28.86-33.21m-23.87 33.57c5.47-6.31 10.95-12.61 23.61-27.17m-23.61 27.17c8.74-10.06 17.48-20.12 23.61-27.17m-17.97 26.77c5.76-6.63 11.52-13.26 18.37-21.13m-18.37 21.13c4.65-5.35 9.3-10.69 18.37-21.13m-13.38 21.49c3.91-4.5 7.82-9 13.12-15.09m-13.12 15.09c2.9-3.34 5.8-6.68 13.12-15.09m-7.48 14.7c2.25-2.6 4.51-5.19 7.21-8.3m-7.21 8.3c2.22-2.56 4.45-5.13 7.21-8.3m-2.22 8.66c.96-1.11 1.92-2.21 2.62-3.02m-2.62 3.02c1-1.15 1.99-2.3 2.62-3.02"/><path fill="none" stroke="#000" d="M76.488 126.291h141m-141 0h141m0 0v41m0-41v41m0 0h-141m141 0h-141m0 0v-41m0 41v-41"/></g><text x="16.685" dominant-baseline="text-before-edge" font-family="Helvetica, Segoe UI Emoji" font-size="20" style="white-space:pre" text-anchor="middle" transform="translate(130.303 135.291)">Len</text><g stroke-linecap="round"><path fill="none" stroke="#82c91e" stroke-width=".5" d="M76.684 167.722q0 0 0 0m0 0q0 0 0 0m-.26 6.4c1.25-1.44 2.5-2.88 5.25-6.04m-5.25 6.04c1.09-1.26 2.18-2.51 5.25-6.04m-4.86 11.68c3.04-3.49 6.07-6.98 10.5-12.07m-10.5 12.07c3.39-3.9 6.78-7.79 10.5-12.07m-10.76 18.47c5.61-6.45 11.22-12.91 15.75-18.11m-15.75 18.11c5.48-6.31 10.96-12.61 15.75-18.11m-15.35 23.75c4.7-5.41 9.4-10.81 20.99-24.15m-20.99 24.15c5.06-5.83 10.13-11.65 20.99-24.15m-21.26 30.55 26.25-30.19m-26.25 30.19c6.7-7.7 13.39-15.4 26.25-30.19m-26.51 36.59c10.3-11.85 20.6-23.7 32.15-36.98m-32.15 36.98c10.21-11.75 20.42-23.49 32.15-36.98m-30.44 41.11c10.53-12.11 21.05-24.22 35.43-40.75m-35.43 40.75c7.6-8.74 15.2-17.48 35.43-40.75m-30.44 41.11c7.49-8.61 14.98-17.23 36.08-41.51m-36.08 41.51c13.35-15.36 26.7-30.72 36.08-41.51m-30.44 41.12c11.62-13.37 23.23-26.73 35.43-40.76m-35.43 40.76c8.08-9.3 16.15-18.59 35.43-40.76m-30.44 41.12c12.59-14.49 25.18-28.97 36.08-41.51m-36.08 41.51c8.41-9.68 16.82-19.36 36.08-41.51m-30.44 41.11c10.45-12.02 20.9-24.04 35.43-40.75m-35.43 40.75 35.43-40.75m-30.44 41.11c8.74-10.06 17.48-20.11 36.08-41.51m-36.08 41.51c12.86-14.8 25.73-29.6 36.08-41.51m-30.44 41.12 35.43-40.76m-35.43 40.76 35.43-40.76m-30.44 41.12c7.93-9.13 15.86-18.25 36.08-41.51m-36.08 41.51c7.43-8.55 14.86-17.1 36.08-41.51m-30.44 41.11c11.77-13.54 23.54-27.08 35.43-40.75m-35.43 40.75c12.07-13.89 24.15-27.78 35.43-40.75m-30.44 41.11c8.95-10.29 17.9-20.59 36.08-41.51m-36.08 41.51c9.46-10.88 18.92-21.77 36.08-41.51m-30.44 41.12c10.12-11.64 20.23-23.28 35.43-40.76m-35.43 40.76c10.52-12.1 21.03-24.2 35.43-40.76m-30.44 41.12 36.08-41.51m-36.08 41.51c8.02-9.23 16.04-18.45 36.08-41.51m-30.44 41.11c12.09-13.91 24.19-27.82 35.43-40.75m-35.43 40.75c8.8-10.11 17.59-20.23 35.43-40.75m-30.44 41.11c10.63-12.23 21.26-24.46 36.08-41.5m-36.08 41.5c14.37-16.53 28.74-33.06 36.08-41.5m-30.44 41.11c9.82-11.3 19.64-22.59 35.43-40.75m-35.43 40.75c10.29-11.83 20.57-23.66 35.43-40.75m-30.44 41.11c7.72-8.89 15.45-17.77 35.42-40.75m-35.42 40.75c11.28-12.98 22.56-25.95 35.42-40.75m-29.78 40.35c7.26-8.34 14.51-16.69 35.43-40.75m-35.43 40.75c8.28-9.52 16.56-19.05 35.43-40.75m-30.44 41.12c7.16-8.24 14.32-16.48 35.43-40.76m-35.43 40.76c11.55-13.3 23.11-26.59 35.43-40.76m-29.79 40.36c13.13-15.1 26.25-30.2 35.43-40.75m-35.43 40.75c7.26-8.35 14.52-16.71 35.43-40.75m-30.44 41.11c13.65-15.7 27.29-31.4 35.43-40.75m-35.43 40.75c13.49-15.52 26.97-31.03 35.43-40.75m-30.45 41.11c12.11-13.93 24.22-27.86 34.12-39.24m-34.12 39.24 34.12-39.24m-28.47 38.85 28.86-33.21m-28.86 33.21c7.42-8.54 14.84-17.08 28.86-33.21m-23.87 33.57c6.44-7.42 12.89-14.84 23.61-27.17m-23.61 27.17 23.61-27.17m-17.97 26.77c5.04-5.8 10.08-11.6 18.37-21.13m-18.37 21.13c6.35-7.3 12.69-14.6 18.37-21.13m-13.38 21.49c4.9-5.65 9.81-11.29 13.12-15.09m-13.12 15.09 13.12-15.09m-7.48 14.7c1.65-1.91 3.31-3.81 7.21-8.3m-7.21 8.3c1.82-2.1 3.64-4.19 7.21-8.3m-2.22 8.66c.63-.73 1.27-1.46 2.62-3.02m-2.62 3.02c.9-1.04 1.8-2.07 2.62-3.02"/><path fill="none" stroke="#000" d="M76.684 167.722h141m-141 0h141m0 0v41m0-41v41m0 0h-141m141 0h-141m0 0v-41m0 41v-41"/></g><text x="25.015" dominant-baseline="text-before-edge" font-family="Helvetica, Segoe UI Emoji" font-size="20" style="white-space:pre" text-anchor="middle" transform="translate(122.17 176.722)">*Data</text><path fill="none" stroke="#000" stroke-linecap="round" d="M76.907 43.044h139.77m-139.77 0h139.77m0 0v83.19m0-83.19v83.19m0 0H76.907m139.77 0H76.907m0 0v-83.19m0 83.19v-83.19M77.05 209.856h139.77m-139.77 0h139.77m0 0v83.19m0-83.19v83.19m0 0H77.05m139.77 0H77.05m0 0v-83.19m0 83.19v-83.19"/><text dominant-baseline="text-before-edge" font-family="Helvetica, Segoe UI Emoji" font-size="20" style="white-space:pre" transform="translate(122.34 12.348)">X区</text><g stroke-linecap="round"><path fill="none" stroke="#fab005" stroke-width=".5" d="M380.23 166.554q0 0 0 0m0 0q0 0 0 0m-.26 6.4c1.29-1.49 2.58-2.98 5.25-6.04m-5.25 6.04 5.25-6.04m-4.86 11.68c2.94-3.38 5.87-6.75 10.5-12.07m-10.5 12.07c4.05-4.66 8.1-9.32 10.5-12.07m-10.76 18.47c3.23-3.71 6.46-7.43 15.75-18.11m-15.75 18.11c3.69-4.25 7.38-8.49 15.75-18.11m-15.35 23.75c8.07-9.29 16.15-18.58 20.99-24.15m-20.99 24.15c4.71-5.42 9.42-10.83 20.99-24.15m-21.26 30.55c6.79-7.81 13.58-15.62 26.25-30.19m-26.25 30.19c9.72-11.18 19.43-22.35 26.25-30.19m-26.51 36.59c8.44-9.7 16.87-19.41 32.15-36.98m-32.15 36.98c6.64-7.63 13.27-15.27 32.15-36.98m-30.44 41.11c12.25-14.1 24.51-28.19 35.43-40.75m-35.43 40.75 35.43-40.75m-30.44 41.11c10.57-12.16 21.14-24.32 36.08-41.51m-36.08 41.51 36.08-41.51m-30.44 41.12c8.48-9.76 16.96-19.52 35.43-40.76m-35.43 40.76c7.22-8.31 14.45-16.63 35.43-40.76m-30.44 41.12c14.13-16.26 28.27-32.52 36.08-41.51m-36.08 41.51c10.26-11.81 20.53-23.62 36.08-41.51m-30.44 41.11c12.27-14.11 24.54-28.23 35.43-40.75m-35.43 40.75c9.47-10.89 18.94-21.79 35.43-40.75m-30.44 41.11c7.5-8.63 15-17.25 36.08-41.51m-36.08 41.51c7.63-8.78 15.26-17.56 36.08-41.51m-30.44 41.12c10.92-12.56 21.84-25.13 35.43-40.76m-35.43 40.76c12.92-14.86 25.83-29.72 35.43-40.76m-30.44 41.12c11.73-13.5 23.46-27 36.08-41.51m-36.08 41.51c12.41-14.28 24.81-28.55 36.08-41.51m-30.44 41.11 35.43-40.75m-35.43 40.75 35.43-40.75m-30.44 41.11c9.44-10.86 18.89-21.73 36.08-41.51m-36.08 41.51c13.93-16.02 27.86-32.05 36.08-41.51m-30.44 41.12c11.87-13.66 23.75-27.32 35.43-40.76m-35.43 40.76c12.88-14.82 25.76-29.63 35.43-40.76m-30.44 41.12c9.74-11.21 19.49-22.43 36.08-41.51m-36.08 41.51c12.93-14.88 25.86-29.76 36.08-41.51m-30.44 41.11c9.04-10.39 18.08-20.79 35.43-40.75m-35.43 40.75c12.59-14.48 25.19-28.97 35.43-40.75m-30.44 41.11c12.16-13.99 24.33-27.98 36.08-41.5m-36.08 41.5 36.08-41.5m-30.44 41.11 35.43-40.75m-35.43 40.75c12.83-14.75 25.65-29.51 35.43-40.75m-30.44 41.11c13.6-15.65 27.21-31.3 35.42-40.75m-35.42 40.75c12.47-14.34 24.94-28.69 35.42-40.75m-29.78 40.35c7.21-8.29 14.42-16.58 35.43-40.75m-35.43 40.75c9.47-10.89 18.95-21.79 35.43-40.75m-30.44 41.12c9.44-10.86 18.87-21.72 35.43-40.76m-35.43 40.76c13.87-15.97 27.75-31.93 35.43-40.76m-29.79 40.36c10.38-11.94 20.76-23.88 35.43-40.75m-35.43 40.75c13.16-15.14 26.32-30.28 35.43-40.75m-30.44 41.11c13.26-15.25 26.52-30.5 35.43-40.75m-35.43 40.75c14.11-16.23 28.22-32.46 35.43-40.75m-30.45 41.11 34.12-39.24m-34.12 39.24c13.3-15.29 26.59-30.58 34.12-39.24m-28.47 38.85c6.69-7.71 13.39-15.41 28.86-33.21m-28.86 33.21c10.68-12.3 21.37-24.59 28.86-33.21m-23.87 33.57c7.4-8.53 14.81-17.05 23.61-27.17m-23.61 27.17c5.97-6.88 11.95-13.76 23.61-27.17m-17.97 26.77c5.48-6.3 10.96-12.6 18.37-21.13m-18.37 21.13 18.37-21.13m-13.38 21.49c4.09-4.71 8.19-9.43 13.12-15.09m-13.12 15.09c4.04-4.65 8.09-9.31 13.12-15.09m-7.48 14.7c2.64-3.04 5.28-6.08 7.21-8.3m-7.21 8.3c2.75-3.17 5.5-6.33 7.21-8.3m-2.22 8.66c.71-.82 1.42-1.65 2.62-3.02m-2.62 3.02c.83-.96 1.67-1.92 2.62-3.02"/><path fill="none" stroke="#000" d="M380.23 166.554h141m-141 0h141m0 0v41m0-41v41m0 0h-141m141 0h-141m0 0v-41m0 41v-41"/></g><text x="16.123" dominant-baseline="text-before-edge" font-family="Helvetica, Segoe UI Emoji" font-size="20" style="white-space:pre" text-anchor="middle" transform="translate(434.608 175.554)">abc</text><path fill="none" stroke="#000" stroke-linecap="round" d="M380.482 125.913h141m-141 0h141m0 0v41m0-41v41m0 0h-141m141 0h-141m0 0v-41m0 41v-41M381.241 41.949h139.77m-139.77 0h139.77m0 0v83.19m0-83.19v83.19m0 0h-139.77m139.77 0h-139.77m0 0v-83.19m0 83.19v-83.19M381.053 208.105h139.77m-139.77 0h139.77m0 0v83.19m0-83.19v83.19m0 0h-139.77m139.77 0h-139.77m0 0v-83.19m0 83.19v-83.19"/><text dominant-baseline="text-before-edge" font-family="Helvetica, Segoe UI Emoji" font-size="20" style="white-space:pre" transform="translate(435.153 10)">Y区</text><g stroke-linecap="round"><path fill="none" stroke="#000" d="M223.14 181.8c31.58 1.34 63.16 2.68 151.35 6.43m-151.35-6.43c45.47 1.93 90.94 3.86 151.35 6.43"/><path fill-rule="evenodd" stroke-width="0" d="m374.49 188.23-13.85 5.76.54-12.67z"/><path fill="none" stroke="#000" d="M374.49 188.23c-2.89 1.2-5.78 2.4-13.85 5.76m13.85-5.76-13.85 5.76m0 0c.18-4.3.36-8.6.54-12.67m-.54 12.67c.18-4.35.37-8.69.54-12.67m0 0c5.15 2.68 10.31 5.35 13.31 6.91m-13.31-6.91c2.74 1.42 5.48 2.85 13.31 6.91m0 0q0 0 0 0m0 0q0 0 0 0"/></g><text dominant-baseline="text-before-edge" font-family="Helvetica, Segoe UI Emoji" font-size="20" style="white-space:pre" transform="translate(10 182.058)">a</text><g stroke-linecap="round"><path fill="none" stroke="#000" d="M32.745 204.994c14.75.57 29.49 1.13 40.23 1.55m-40.23-1.55c12.41.48 24.82.95 40.23 1.55"/><path fill-rule="evenodd" stroke-width="0" d="m72.975 206.544-13.83 5.81.49-12.67z"/><path fill="none" stroke="#000" d="m72.975 206.544-13.83 5.81m13.83-5.81c-4.27 1.79-8.53 3.58-13.83 5.81m0 0c.1-2.65.2-5.3.49-12.67m-.49 12.67c.14-3.76.29-7.52.49-12.67m0 0c3.21 1.65 6.42 3.3 13.34 6.86m-13.34-6.86c3.2 1.65 6.39 3.29 13.34 6.86m0 0q0 0 0 0m0 0q0 0 0 0"/></g></svg>