<svg xmlns="http://www.w3.org/2000/svg" width="498" height="272" preserveAspectRatio="none" style="width:498px;height:272px;background:#fff"><defs><filter id="a" width="300%" height="300%" x="-1" y="-1"><feGaussianBlur result="blurOut" stdDeviation="2"/><feColorMatrix in="blurOut" result="blurOut2" values="0 0 0 0 0 0 0 0 0 0 0 0 0 0 0 0 0 0 .4 0"/><feOffset dx="4" dy="4" in="blurOut2" result="blurOut3"/><feBlend in="SourceGraphic" in2="blurOut3"/></filter></defs><text x="433" y="19.282" fill="#888" font-family="sans-serif" font-size="10" textLength="52">made by x</text><text x="225" y="45.636" font-family="sans-serif" font-size="14" font-weight="bold" textLength="45">cobra</text><rect width="63" height="40.297" x="10" y="130.234" fill="#A8EB99" filter="url(#a)" rx="7.5" ry="7.5" style="stroke:#000;stroke-width:1"/><text x="22" y="155.23" font-family="sans-serif" font-size="14" textLength="39">cobra</text><rect width="103" height="40.297" x="123" y="69.938" fill="#EAB8DE" filter="url(#a)" rx="7.5" ry="7.5" style="stroke:#000;stroke-width:1"/><text x="135" y="94.933" font-family="sans-serif" font-size="14" textLength="79">Commands</text><text x="279" y="94.933" fill="#006400" font-family="sans-serif" font-size="14" textLength="88">表示行为,动作</text><path fill="none" d="M226 90.086h50" style="stroke:red;stroke-width:1;stroke-dasharray:5,5"/><path fill="none" d="M73 150.383h10c15 0 15-60.297 30-60.297h10" style="stroke:green;stroke-width:1;stroke-dasharray:5,5"/><rect width="55" height="40.297" x="123" y="130.234" fill="#EAB8DE" filter="url(#a)" rx="7.5" ry="7.5" style="stroke:#000;stroke-width:1"/><text x="135" y="155.23" font-family="sans-serif" font-size="14" textLength="31">Args</text><text x="231" y="155.23" fill="#006400" font-family="sans-serif" font-size="14" textLength="102">参数,行为的对象</text><path fill="none" d="M178 150.383h50" style="stroke:red;stroke-width:1;stroke-dasharray:5,5"/><path fill="none" d="M73 150.383h50" style="stroke:green;stroke-width:1;stroke-dasharray:5,5"/><rect width="60" height="40.297" x="123" y="190.531" fill="#EAB8DE" filter="url(#a)" rx="7.5" ry="7.5" style="stroke:#000;stroke-width:1"/><text x="135" y="215.526" font-family="sans-serif" font-size="14" textLength="36">Flags</text><text x="236" y="215.526" fill="#006400" font-family="sans-serif" font-size="14" textLength="250">标志,选项,用来控制行为,对行为进行修饰</text><path fill="none" d="M183 210.68h50" style="stroke:red;stroke-width:1;stroke-dasharray:5,5"/><path fill="none" d="M73 150.383h10c15 0 15 60.297 30 60.297h10" style="stroke:green;stroke-width:1;stroke-dasharray:5,5"/><text x="221.5" y="254.823" font-family="sans-serif" font-size="14" textLength="52">figure 1</text></svg>