<svg xmlns="http://www.w3.org/2000/svg" width="500" height="453" preserveAspectRatio="none" style="width:500px;height:453px;background:#fff"><defs><filter id="a" width="300%" height="300%" x="-1" y="-1"><feGaussianBlur result="blurOut" stdDeviation="2"/><feColorMatrix in="blurOut" result="blurOut2" values="0 0 0 0 0 0 0 0 0 0 0 0 0 0 0 0 0 0 .4 0"/><feOffset dx="4" dy="4" in="blurOut2" result="blurOut3"/><feBlend in="SourceGraphic" in2="blurOut3"/></filter></defs><text x="419" y="19.282" fill="#888" font-family="sans-serif" font-size="10" textLength="61">created by x</text><text x="224" y="45.636" font-family="sans-serif" font-size="14" font-weight="bold" textLength="42">裸指针</text><rect width="101" height="40.297" x="10" y="220.68" fill="#A8EB99" filter="url(#a)" rx="7.5" ry="7.5" style="stroke:#000;stroke-width:1"/><text x="22" y="245.675" font-family="sans-serif" font-size="14" textLength="24">raw</text><text x="46" y="245.675" font-family="sans-serif" font-size="14" textLength="4"> </text><text x="50" y="245.675" font-family="sans-serif" font-size="14" textLength="49">pointer</text><rect width="52" height="40.297" x="161" y="100.086" fill="#EAB8DE" filter="url(#a)" rx="7.5" ry="7.5" style="stroke:#000;stroke-width:1"/><text x="173" y="125.081" font-family="sans-serif" font-size="14" textLength="28">类型</text><rect width="66" height="40.297" x="263" y="69.938" fill="#FFFFE0" filter="url(#a)" rx="7.5" ry="7.5" style="stroke:#000;stroke-width:1"/><text x="275" y="94.933" font-family="sans-serif" font-size="14" textLength="42">可变的</text><rect width="72" height="40.297" x="379" y="69.938" fill="#FFFFE0" filter="url(#a)" rx="7.5" ry="7.5" style="stroke:#000;stroke-width:1"/><text x="391" y="94.933" font-family="monospace" font-size="14" textLength="48">*mut T</text><path fill="none" d="M329 90.086h50" style="stroke:green;stroke-width:1;stroke-dasharray:5,5"/><path fill="none" d="M213 120.234h10c15 0 15-30.148 30-30.148h10" style="stroke:red;stroke-width:1;stroke-dasharray:5,5"/><rect width="80" height="40.297" x="263" y="130.234" fill="#E0FFFF" filter="url(#a)" rx="7.5" ry="7.5" style="stroke:#000;stroke-width:1"/><text x="275" y="155.23" font-family="sans-serif" font-size="14" textLength="56">不可变的</text><rect width="88" height="40.297" x="393" y="130.234" fill="#E0FFFF" filter="url(#a)" rx="7.5" ry="7.5" style="stroke:#000;stroke-width:1"/><text x="405" y="155.23" font-family="monospace" font-size="14" textLength="64">*const T</text><path fill="none" d="M343 150.383h50" style="stroke:green;stroke-width:1;stroke-dasharray:5,5"/><path fill="none" d="M213 120.234h10c15 0 15 30.149 30 30.149h10" style="stroke:red;stroke-width:1;stroke-dasharray:5,5"/><path fill="none" d="M111 240.828h10c15 0 15-120.594 30-120.594h10" style="stroke:green;stroke-width:1;stroke-dasharray:5,5"/><rect width="52" height="40.297" x="161" y="280.977" fill="#EAB8DE" filter="url(#a)" rx="7.5" ry="7.5" style="stroke:#000;stroke-width:1"/><text x="173" y="305.972" font-family="sans-serif" font-size="14" textLength="28">特征</text><rect width="108" height="40.297" x="263" y="190.531" fill="#FBE972" filter="url(#a)" rx="7.5" ry="7.5" style="stroke:#000;stroke-width:1"/><text x="275" y="215.526" font-family="sans-serif" font-size="14" textLength="84">忽略借用规则</text><path fill="none" d="M213 301.125h10c15 0 15-90.445 30-90.445h10" style="stroke:red;stroke-width:1;stroke-dasharray:5,5"/><rect width="164" height="40.297" x="263" y="250.828" fill="#FBE972" filter="url(#a)" rx="7.5" ry="7.5" style="stroke:#000;stroke-width:1"/><text x="275" y="275.823" font-family="sans-serif" font-size="14" textLength="140">可以指向不合法的内存</text><path fill="none" d="M213 301.125h10c15 0 15-30.148 30-30.148h10" style="stroke:red;stroke-width:1;stroke-dasharray:5,5"/><rect width="108" height="40.297" x="263" y="311.125" fill="#FBE972" filter="url(#a)" rx="7.5" ry="7.5" style="stroke:#000;stroke-width:1"/><text x="275" y="336.12" font-family="sans-serif" font-size="14" textLength="84">不会自动清理</text><path fill="none" d="M213 301.125h10c15 0 15 30.148 30 30.148h10" style="stroke:red;stroke-width:1;stroke-dasharray:5,5"/><rect width="90" height="40.297" x="263" y="371.422" fill="#FBE972" filter="url(#a)" rx="7.5" ry="7.5" style="stroke:#000;stroke-width:1"/><text x="275" y="396.417" font-family="sans-serif" font-size="14" textLength="66">可以是null</text><path fill="none" d="M213 301.125h10c15 0 15 90.445 30 90.445h10" style="stroke:red;stroke-width:1;stroke-dasharray:5,5"/><path fill="none" d="M111 240.828h10c15 0 15 60.297 30 60.297h10" style="stroke:green;stroke-width:1;stroke-dasharray:5,5"/><text x="231.5" y="435.714" font-family="sans-serif" font-size="14" textLength="27">图 1</text></svg>