<svg xmlns="http://www.w3.org/2000/svg" width="1052.948" height="792.549"><defs><style>@font-face{font-family:&quot;Virgil&quot;;src:url(https://unpkg.com/@excalidraw/excalidraw@undefined/dist/excalidraw-assets/Virgil.woff2)}@font-face{font-family:&quot;Cascadia&quot;;src:url(https://unpkg.com/@excalidraw/excalidraw@undefined/dist/excalidraw-assets/Cascadia.woff2)}@font-face{font-family:&quot;Assistant&quot;;src:url(https://unpkg.com/@excalidraw/excalidraw@undefined/dist/excalidraw-assets/Assistant-Regular.woff2)}</style></defs><path fill="#fff" d="M0 0h1052.948v792.549H0z"/><g stroke-linecap="round"><path fill="none" stroke="#1e1e1e" stroke-width="2" d="M150.436 425.537c120.24-.22 602.81-2.58 723.19-3.13m-721.43 2.65c120.01-.47 600.03-3.49 720.53-4.28"/><path fill="none" stroke="#1e1e1e" stroke-width="2" d="M844.606 431.217c12.43-3.55 22.74-8.97 28.12-10.44m-28.12 10.44c10.67-3.27 20.62-7.96 28.12-10.44M844.476 410.697c12.36 4.15 22.71 6.43 28.25 10.08m-28.25-10.08c10.89 4.26 20.88 7.1 28.25 10.08"/></g><g stroke-linecap="round"><path fill="none" stroke="#1e1e1e" stroke-width="2" d="M508.302 702.938c-.83-106.59-5.21-532.62-5.9-639.37m4.49 638.82c-.37-106.41-1.7-534.06-2.2-640.52"/><path fill="none" stroke="#1e1e1e" stroke-width="2" d="M515.052 90.018c-1.07-7.79-3.67-11.33-10.36-28.15m10.36 28.15c-2.89-8.02-5.8-15.45-10.36-28.15M494.532 90.098c3.64-7.83 5.75-11.38 10.16-28.23m-10.16 28.23c2.71-8.15 5.41-15.59 10.16-28.23"/></g><text fill="#2f9e44" dominant-baseline="text-before-edge" font-family="Virgil, Segoe UI Emoji" font-size="36" style="white-space:pre" transform="translate(847.958 434.025)">X</text><text fill="#2f9e44" dominant-baseline="text-before-edge" font-family="Virgil, Segoe UI Emoji" font-size="36" style="white-space:pre" transform="translate(527.562 54.438)">y</text><g stroke-linecap="round"><path fill="none" stroke="#f08c00" stroke-width="2" d="M506.434 422.096c-14-18.49-69.65-93.23-83.59-111.81m82.41 111.06c-14.24-18.29-69.45-91.52-83.32-109.77"/><path fill="#f08c00" fill-rule="evenodd" stroke-width="0" d="m420.684 311.816 13.84 8.43-7.6 6.74-4.58-17.29"/><path fill="none" stroke="#f08c00" stroke-width="2" d="M421.934 311.576c5.73 2.7 9.48 5.25 13.26 7.02m-13.26-7.02c3.52 1.18 7.89 4.04 13.26 7.02m0 0c-1.66 1.67-5.83 3.5-10.11 7.65m10.11-7.65c-3.85 2.45-7.76 5.83-10.11 7.65m0 0c-1.39-4.2-1.48-7.54-3.15-14.67m3.15 14.67c-.67-4.91-1.89-9.61-3.15-14.67m0 0q0 0 0 0m0 0q0 0 0 0"/></g><text fill="#f08c00" dominant-baseline="text-before-edge" font-family="Helvetica, Segoe UI Emoji" font-size="20" style="white-space:pre" transform="translate(384.957 250.796)">-2</text><text y="23" fill="#f08c00" dominant-baseline="text-before-edge" font-family="Helvetica, Segoe UI Emoji" font-size="20" style="white-space:pre" transform="translate(384.957 250.796)">3</text><path fill="#f08c00" d="m368.595 255.11 1.04.07q1.05.06 2 .09.94.02 1.69 0 .74-.02 1.6-.09.87-.06 1.19-.1.32-.03.47-.02.15.02.29.08.14.05.27.13.12.09.22.2.1.12.17.25t.11.28q.03.14.03.29t-.03.29q-.04.15-.11.28t-.17.25q-.1.11-.22.2-.13.08-.27.13-.14.06-.29.08-.15.01-.69.24t-1.23.43q-.69.21-1.49.31-.8.11-1.8.21-.99.09-1.89.12-.89.02-1.49.05t-.14-.36q.45-.39.78.35t.31 1.61q-.01.87-.04 1.85t-.04 2.18q-.02 1.2-.05 2.51l-.08 2.57q-.03 1.26-.02 2.49 0 1.23.04 2.38t.07 2.19q.02 1.05.05 1.96.04.9.08 1.64.05.73.1 1.27.04.53.12 1.23l.13 1.27q.06.59.09 1.54.04.96.06 1.51l.02 1.1q.01.56.03 1.48.03.92-.01 1.72-.04.81-.06 1.38-.01.57-.12 1.11t-.59.19q-.47-.36.29-.51.78-.15 1.58-.15t1.36.07q.56.06 1.19.23l1.19.32q.55.15 1.12.3.57.16 2.14.51 1.57.36 1.82.44.24.09.45.24.21.16.35.38.15.21.22.46t.05.51q-.01.26-.11.5t-.26.44q-.17.2-.39.33-.23.14-.48.19-.26.06-.51.03-.26-.03-.5-.14-.23-.11-.42-.29-.19-.17-.31-.4t-.17-.49q-.04-.26 0-.51.05-.26.17-.49t.31-.41.42-.29q.24-.1.5-.13t.51.03q.25.05.48.19.22.13.39.33t.26.44q.1.24.11.5.02.26-.05.51t-.22.46q-.15.22-.35.38-.21.15-.46.24-.24.08-.5.08h-.26l-1.69-.38-2.26-.51q-.57-.12-1.56-.35-1-.23-1.79-.26-.8-.03-1.59-.04-.79 0-1.5.06t-1.19-.25q-.48-.3-.76-1.27-.27-.98-.12-1.55.16-.58.26-1.31.1-.72.18-1.32t.11-1.52.03-1.48q.01-.55.03-1.1.01-.55.05-1.51.03-.95.09-1.53.05-.58.13-1.28.07-.69.11-1.22t.08-1.26q.03-.73.03-1.62.01-.9-.04-1.92t-.15-2.19q-.09-1.16-.18-2.42-.09-1.25-.15-2.5-.07-1.24-.17-2.5t-.26-2.46q-.16-1.19-.31-2.19-.14-1-.29-2.24-.14-1.23-.26-1.9-.12-.66.04-1.18.15-.52 1.01-.97.86-.47 1.45-.44.58.02 1.41.01.84 0 1.73-.07.89-.08 1.78-.15.88-.08 1.5-.21.62-.12 1.33-.2.71-.07.86-.06.15.02.29.08.14.05.27.13.12.09.22.2.1.12.17.25t.11.28q.03.14.03.29t-.03.29q-.04.15-.11.28t-.17.25q-.1.11-.22.2-.13.08-.27.13-.14.06-.29.08-.15.01-.47-.02-.32-.04-1.19-.1-.86-.07-1.6-.09-.75-.02-1.69 0-.95.03-2 .09-1.04.07-1.18.05t-.27-.07-.25-.13-.21-.19q-.1-.1-.16-.23-.07-.13-.1-.26-.04-.14-.04-.28t.04-.28q.03-.13.1-.26.06-.13.16-.23.09-.11.21-.19t.25-.13.27-.07zM407.7 253.83l.73.02q.73.03 1.41.07.68.05 1.22.12l1.08.14q.54.07 1.15.14.61.08 1.18.06t1.2-.05q.62-.04 1.75.26 1.12.31 1.56 1.23.44.93.44 1.55 0 .63-.04 1.42-.04.8-.11 1.73-.07.92-.13 1.88-.07.96-.1 1.84-.04.89-.03 1.59 0 .71.02 1.24t.06 1.22q.05.68.08 1.23.04.55.07 1.18.02.62.02 1.76-.01 1.15-.01 1.74-.01.6-.01 1.17t.02 1.41q.02.83.05 1.47.04.64.05 1.34t.01 1.25q-.01.54-.03 1.2t-.02 1.28q.01.61.1 1.44.1.83.15 1.37.05.55.07 1.39l.05 1.43q.01.6.03 1.17.02.56.03 1.11.02.54.02 1.12l.02 1.21q.01.64-.17 1.22-.17.59-.5 1.05-.34.46-.91.6t-1.22.16l-1.19.02q-.54 0-1.13.13t-1.55.39q-.96.27-2.78.74t-2.09.42q-.27-.04-.51-.17-.24-.12-.43-.32t-.3-.45q-.12-.25-.15-.52t.03-.54.2-.51q.14-.23.35-.41t.45-.28q.26-.1.53-.12.28-.01.54.06t.49.23q.23.15.4.37.16.21.25.47t.09.54q0 .27-.09.53-.08.26-.25.48-.16.22-.39.38-.23.15-.49.22-.27.08-.54.06-.27-.01-.53-.11-.24-.1-.45-.28t-.36-.41q-.14-.24-.2-.5-.06-.27-.03-.54.03-.28.15-.53.11-.25.3-.45.19-.19.42-.32.24-.13.51-.18l.27-.04 1.3-.39q1.3-.38 2.32-.72 1.01-.34 1.58-.5.58-.16 1.34-.22.75-.05 1.38.04.63.1.26.57-.38.47-.36-.17.01-.63.01-1.21.01-.58.03-1.27l.04-1.39q.02-.7.03-1.34.01-.63.03-1.3t-.02-1.3q-.03-.63-.08-1.18t-.08-1.21q-.04-.66-.06-1.32t-.02-1.2q-.01-.55 0-1.25.02-.7.05-1.34t.05-1.47q.02-.84.02-1.41t-.01-1.17q0-.59-.01-1.74 0-1.14.03-1.76.02-.63.06-1.18t.08-1.23q.04-.69.06-1.22t.03-1.24q0-.7-.04-1.59-.03-.88-.1-1.84-.06-.95-.13-1.87-.08-.92-.13-1.7-.05-.77-.04-1.4t.43-.26q.43.36-.19.34-.61-.03-1.26-.07l-1.28-.06q-.62-.04-1.37-.27-.76-.22-1.45-.4t-1.3-.23q-.6-.05-1.33-.06-.72-.01-.88-.03-.15-.03-.3-.08-.14-.06-.27-.15-.12-.1-.22-.21-.11-.12-.18-.26-.06-.14-.1-.29-.03-.16-.03-.3 0-.16.04-.31.05-.15.12-.29.08-.13.18-.25.11-.11.24-.2.13-.08.28-.14.14-.05.3-.06z"/><path fill="none" stroke="#f08c00" stroke-linecap="round" stroke-width="2" d="M465.133 414.46c-.04 2.61.37 13.94.4 16.66m.47-15.74c-.14 2.93-.65 13.83-.84 16.48M428.625 415.806c.02 2.85-.22 13.6-.26 16.47m-.34-16.91c-.03 2.97-.15 14.69-.15 17.5"/><path fill="#f08c00" d="m500.804 385.957.89.04q.89.03 1.61.02.73 0 1.39-.01.67-.01 1.22-.03l1.11-.04q.55-.02 1.1-.06.55-.05 2.37-.03t2.04.07q.23.06.42.19.19.12.34.3.14.18.22.4.07.22.08.44 0 .23-.06.44-.07.22-.21.41-.13.19-.32.32t-.41.2q-.22.06-.45.06-.23-.01-.45-.09-.21-.08-.39-.23-.18-.14-.3-.34-.12-.19-.18-.42-.05-.22-.03-.44.02-.23.11-.44t.25-.38q.15-.17.36-.28.2-.11.42-.16.23-.04.46 0 .22.03.43.13.2.11.37.27.16.16.26.37t.13.43-.02.45q-.04.22-.16.42-.11.2-.28.35-.18.16-.39.25t-.44.1l-.23.02-1.69-.06q-1.7-.06-2.25-.11-.55-.04-1.1-.06l-1.11-.04q-.55-.02-1.22-.03-.66-.01-1.39-.01-.72-.01-1.61.02-.89.04-1.03.02-.15-.02-.29-.07-.14-.06-.27-.14-.12-.09-.22-.2t-.17-.24-.1-.28q-.04-.15-.04-.29t.04-.29q.03-.15.1-.28t.17-.24.22-.2q.13-.08.27-.14.14-.05.29-.07zM499.88 349.032l.79.02q.8.02 1.35.01.55-.02 1.36-.06l1.43-.07q.62-.03 1.38-.07t2.3-.04q1.54-.01 1.79.03.24.04.46.16t.39.3.28.4q.1.23.13.47.02.24-.03.48t-.18.45q-.13.22-.32.38t-.42.25-.47.1q-.25.02-.49-.05t-.44-.2q-.21-.14-.36-.34t-.23-.43q-.08-.24-.08-.48t.08-.48q.08-.23.23-.43t.36-.34q.2-.13.44-.2t.49-.05q.24.01.47.1t.42.25.32.38q.13.21.18.45t.03.48q-.03.24-.13.47-.11.22-.28.4t-.39.3-.46.16l-.25.04-1.54-.01q-1.54 0-2.3-.04t-1.38-.07l-1.43-.07q-.81-.04-1.36-.06-.55-.01-1.35.01-.79.02-.94 0-.16-.02-.31-.07-.15-.06-.28-.15t-.23-.21q-.11-.12-.18-.26t-.11-.29q-.04-.16-.04-.31t.04-.31q.04-.15.11-.29t.18-.26q.1-.12.23-.21t.28-.15q.15-.05.31-.07zM497.954 312.875l.71.01q.72.01 1.3 0 .59-.01 1.51-.04t1.53-.07q.6-.03 1.23-.02.64 0 1.28.03.65.03 1.27.05.62.01 2.14.05t1.78.08.49.16q.23.13.41.32t.29.42q.11.24.14.49.03.26-.03.52-.06.25-.19.47-.14.23-.34.4-.19.17-.44.26-.24.1-.5.11-.26.02-.51-.05-.26-.07-.47-.22-.22-.14-.38-.35t-.24-.46-.08-.51.08-.5.24-.45.38-.36q.21-.14.47-.21.25-.07.51-.06t.5.11q.25.1.45.27.19.17.33.39.13.22.19.48.06.25.03.51t-.14.49q-.11.24-.29.43t-.41.31-.49.17l-.26.04-1.97-.11q-1.97-.1-2.54-.15-.57-.04-1.45-.14t-1.48-.13q-.61-.04-1.53-.07t-1.51-.04q-.58-.01-1.3 0-.71.01-.86-.01-.16-.02-.31-.08-.15-.05-.28-.15-.13-.09-.24-.21-.1-.11-.18-.26-.07-.14-.11-.29-.04-.16-.04-.31t.04-.31q.04-.15.11-.29.08-.15.18-.27.11-.11.24-.2.13-.1.28-.15.15-.06.31-.08z"/><text fill="#1971c2" dominant-baseline="text-before-edge" font-family="Helvetica, Segoe UI Emoji" font-size="20" style="white-space:pre" transform="translate(10 142.083)">向量: 可以先理解为 一个长度+一个方向</text><text y="46" fill="#1971c2" dominant-baseline="text-before-edge" font-family="Helvetica, Segoe UI Emoji" font-size="20" style="white-space:pre" transform="translate(10 142.083)">用[] 包起来, 竖着写, 和 [-2,3] </text><text y="69" fill="#1971c2" dominant-baseline="text-before-edge" font-family="Helvetica, Segoe UI Emoji" font-size="20" style="white-space:pre" transform="translate(10 142.083)">这种表示一个点的表示方式区分开来</text><text fill="#1e1e1e" dominant-baseline="text-before-edge" font-family="Assistant, Segoe UI Emoji" font-size="20" style="white-space:pre" transform="translate(445.925 10)">二维的情况</text><path fill="none" stroke="#f08c00" stroke-linecap="round" stroke-width="2" d="M584.838 412.465c.14 2.66.24 13.56.12 16.33m-.66-15.4c.12 2.75.26 13.27.4 15.98M548.049 413.47c-.12 2.89-.74 14.26-.86 17.04m.37-17.63c.02 3.03.44 15.39.6 18.36"/><g stroke-linecap="round"><path fill="none" stroke="#1971c2" d="M508.178 420.537c6.76-5.42 33.82-27.12 40.59-32.54m-40.59 32.54c6.76-5.42 33.82-27.12 40.59-32.54"/><path fill="#1971c2" fill-rule="evenodd" stroke-width="0" d="m548.768 387.997-6.64 13.45-7.93-9.89z"/><path fill="none" stroke="#1971c2" d="M548.768 387.997c-2.4 4.86-4.81 9.73-6.64 13.45m6.64-13.45c-1.92 3.89-3.84 7.77-6.64 13.45m0 0c-2.34-2.91-4.67-5.82-7.93-9.89m7.93 9.89c-1.68-2.09-3.35-4.18-7.93-9.89m0 0c4.2-1.03 8.41-2.06 14.57-3.56m-14.57 3.56c4.9-1.2 9.81-2.4 14.57-3.56m0 0q0 0 0 0m0 0q0 0 0 0"/></g><path fill="#f08c00" d="m503.296 530.715.89.04q.89.03 1.61.02.73 0 1.39-.01.67-.01 1.22-.03l1.11-.04q.55-.02 1.1-.06.55-.05 2.37-.03t2.04.07q.23.06.42.19.19.12.34.3.14.18.22.4.07.22.08.44 0 .23-.06.44-.07.22-.21.41-.13.19-.32.32t-.41.2q-.22.06-.45.06-.23-.01-.45-.09-.21-.08-.39-.23-.18-.14-.3-.34-.12-.19-.18-.42-.05-.22-.03-.44.02-.23.11-.44t.25-.38q.15-.17.36-.28.2-.11.42-.16.23-.04.46 0 .22.03.43.13.2.11.37.27.16.16.26.37t.13.43-.02.45q-.04.22-.16.42-.11.2-.28.35-.18.16-.39.25t-.44.1l-.23.02-1.69-.06q-1.7-.06-2.25-.11-.55-.04-1.1-.06l-1.11-.04q-.55-.02-1.22-.03-.66-.01-1.39-.01-.72-.01-1.61.02-.89.04-1.03.02-.15-.02-.29-.07-.14-.06-.27-.14-.12-.09-.22-.2t-.17-.24-.1-.28q-.04-.15-.04-.29t.04-.29q.03-.15.1-.28t.17-.24.22-.2q.13-.08.27-.14.14-.05.29-.07zM502.371 493.791l.79.02q.8.02 1.35.01.55-.02 1.36-.06l1.43-.07q.62-.03 1.38-.07t2.3-.04q1.54-.01 1.79.03.24.04.46.16t.39.3.28.4q.1.23.13.47.02.24-.03.48t-.18.45q-.13.22-.32.38t-.42.25-.47.1q-.25.02-.49-.05t-.44-.2q-.21-.14-.36-.34t-.23-.43q-.08-.24-.08-.48t.08-.48q.08-.23.23-.43t.36-.34q.2-.13.44-.2t.49-.05q.24.01.47.1t.42.25.32.38q.13.21.18.45t.03.48q-.03.24-.13.47-.11.22-.28.4t-.39.3-.46.16l-.25.04-1.54-.01q-1.54 0-2.3-.04t-1.38-.07l-1.43-.07q-.81-.04-1.36-.06-.55-.01-1.35.01-.79.02-.94 0-.16-.02-.31-.07-.15-.06-.28-.15t-.23-.21q-.11-.12-.18-.26t-.11-.29q-.04-.16-.04-.31t.04-.31q.04-.15.11-.29t.18-.26q.1-.12.23-.21t.28-.15q.15-.05.31-.07zM500.446 457.634l.71.01q.72.01 1.3 0 .59-.01 1.51-.04t1.53-.07q.6-.03 1.23-.02.64 0 1.28.03.65.03 1.27.05.62.01 2.14.05t1.78.08.49.16q.23.13.41.32t.29.42q.11.24.14.49.03.26-.03.52-.06.25-.19.47-.14.23-.34.4-.19.17-.44.26-.24.1-.5.11-.26.02-.51-.05-.26-.07-.47-.22-.22-.14-.38-.35t-.24-.46-.08-.51.08-.5.24-.45.38-.36q.21-.14.47-.21.25-.07.51-.06t.5.11q.25.1.45.27.19.17.33.39.13.22.19.48.06.25.03.51t-.14.49q-.11.24-.29.43t-.41.31-.49.17l-.26.04-1.97-.11q-1.97-.1-2.54-.15-.57-.04-1.45-.14t-1.48-.13q-.61-.04-1.53-.07t-1.51-.04q-.58-.01-1.3 0-.71.01-.86-.01-.16-.02-.31-.08-.15-.05-.28-.15-.13-.09-.24-.21-.1-.11-.18-.26-.07-.14-.11-.29-.04-.16-.04-.31t.04-.31q.04-.15.11-.29.08-.15.18-.27.11-.11.24-.2.13-.1.28-.15.15-.06.31-.08z"/><path fill="none" stroke="#f08c00" stroke-linecap="round" stroke-width="2" d="M666.328 412.492c.04 2.55-.18 13.13-.19 15.88m-.39-14.86c-.01 2.57-.09 12.89-.06 15.31M629.23 413.058c-.02 2.88.14 14.49.11 17.44m-.79-16.51c-.1 2.74.39 12.98.39 15.63"/><path fill="#f08c00" d="m497.004 277.574.71.01q.72.01 1.3 0 .59-.01 1.51-.04t1.53-.07q.6-.03 1.23-.02.64 0 1.28.03.65.03 1.27.05.62.01 2.14.05t1.78.08.49.16q.23.13.41.32t.29.42q.11.24.14.49.03.26-.03.52-.06.25-.19.47-.14.23-.34.4-.19.17-.44.26-.24.1-.5.11-.26.02-.51-.05-.26-.07-.47-.22-.22-.14-.38-.35t-.24-.46-.08-.51.08-.5.24-.45.38-.36q.21-.14.47-.21.25-.07.51-.06t.5.11q.25.1.45.27.19.17.33.39.13.22.19.48.06.25.03.51t-.14.49q-.11.24-.29.43t-.41.31-.49.17l-.26.04-1.97-.11q-1.97-.1-2.54-.15-.57-.04-1.45-.14t-1.48-.13q-.61-.04-1.53-.07t-1.51-.04q-.58-.01-1.3 0-.71.01-.86-.01-.16-.02-.31-.08-.15-.05-.28-.15-.13-.09-.24-.21-.1-.11-.18-.26-.07-.14-.11-.29-.04-.16-.04-.31t.04-.31q.04-.15.11-.29.08-.15.18-.27.11-.11.24-.2.13-.1.28-.15.15-.06.31-.08z"/><text fill="#1971c2" dominant-baseline="text-before-edge" font-family="Helvetica, Segoe UI Emoji" font-size="20" style="white-space:pre" transform="translate(565.117 332.6)">1</text><text y="23" fill="#1971c2" dominant-baseline="text-before-edge" font-family="Helvetica, Segoe UI Emoji" font-size="20" style="white-space:pre" transform="translate(565.117 332.6)">1</text><path fill="#1971c2" d="m551.12 333.932 1.04.07q1.05.06 2 .09.94.02 1.69 0 .74-.02 1.6-.09.87-.06 1.19-.1.32-.03.47-.02.15.02.29.08.14.05.27.13.12.09.22.2.1.12.17.25t.11.28q.03.14.03.29t-.03.29q-.04.15-.11.28t-.17.25q-.1.11-.22.2-.13.08-.27.13-.14.06-.29.08-.15.01-.69.24t-1.23.43q-.69.21-1.49.31-.8.11-1.8.21-.99.09-1.89.12-.89.02-1.49.05t-.14-.36q.45-.39.78.35t.31 1.61q-.01.87-.04 1.85t-.04 2.18q-.02 1.2-.05 2.51l-.08 2.57q-.03 1.26-.02 2.49 0 1.23.04 2.38t.07 2.19q.02 1.05.05 1.96.04.9.08 1.64.05.73.1 1.27.04.53.12 1.23l.13 1.27q.06.59.09 1.54.04.96.06 1.51l.02 1.1q.01.56.03 1.48.03.92-.01 1.72-.04.81-.06 1.38-.01.57-.12 1.11t-.59.19q-.47-.36.29-.51.78-.15 1.58-.15t1.36.07q.56.06 1.19.23l1.19.32q.55.15 1.12.3.57.16 2.14.51 1.57.36 1.82.44.24.09.45.24.21.16.35.38.15.21.22.46t.05.51q-.01.26-.11.5t-.26.44q-.17.2-.39.33-.23.14-.48.19-.26.06-.51.03-.26-.03-.5-.14-.23-.11-.42-.29-.19-.17-.31-.4t-.17-.49q-.04-.26 0-.51.05-.26.17-.49t.31-.41.42-.29q.24-.1.5-.13t.51.03q.25.05.48.19.22.13.39.33t.26.44q.1.24.11.5.02.26-.05.51t-.22.46q-.15.22-.35.38-.21.15-.46.24-.24.08-.5.08h-.26l-1.69-.38-2.26-.51q-.57-.12-1.56-.35-1-.23-1.79-.26-.8-.03-1.59-.04-.79 0-1.5.06t-1.19-.25q-.48-.3-.76-1.27-.27-.98-.12-1.55.16-.58.26-1.31.1-.72.18-1.32t.11-1.52.03-1.48q.01-.55.03-1.1.01-.55.05-1.51.03-.95.09-1.53.05-.58.13-1.28.07-.69.11-1.22t.08-1.26q.03-.73.03-1.62.01-.9-.04-1.92t-.15-2.19q-.09-1.16-.18-2.42-.09-1.25-.15-2.5-.07-1.24-.17-2.5t-.26-2.46q-.16-1.19-.31-2.19-.14-1-.29-2.24-.14-1.23-.26-1.9-.12-.66.04-1.18.15-.52 1.01-.97.86-.47 1.45-.44.58.02 1.41.01.84 0 1.73-.07.89-.08 1.78-.15.88-.08 1.5-.21.62-.12 1.33-.2.71-.07.86-.06.15.02.29.08.14.05.27.13.12.09.22.2.1.12.17.25t.11.28q.03.14.03.29t-.03.29q-.04.15-.11.28t-.17.25q-.1.11-.22.2-.13.08-.27.13-.14.06-.29.08-.15.01-.47-.02-.32-.04-1.19-.1-.86-.07-1.6-.09-.75-.02-1.69 0-.95.03-2 .09-1.04.07-1.18.05t-.27-.07-.25-.13-.21-.19q-.1-.1-.16-.23-.07-.13-.1-.26-.04-.14-.04-.28t.04-.28q.03-.13.1-.26.06-.13.16-.23.09-.11.21-.19t.25-.13.27-.07zM579.545 332.488l.73.02q.73.03 1.41.07.68.05 1.22.12l1.08.14q.54.07 1.15.14.61.08 1.18.06t1.2-.05q.62-.04 1.75.26 1.12.31 1.56 1.23.44.93.44 1.55 0 .63-.04 1.42-.04.8-.11 1.73-.07.92-.13 1.88-.07.96-.1 1.84-.04.89-.03 1.59 0 .71.02 1.24t.06 1.22q.05.68.08 1.23.04.55.07 1.18.02.62.02 1.76-.01 1.15-.01 1.74-.01.6-.01 1.17t.02 1.41q.02.83.05 1.47.04.64.05 1.34t.01 1.25q-.01.54-.03 1.2t-.02 1.28q.01.61.1 1.44.1.83.15 1.37.05.55.07 1.39l.05 1.43q.01.6.03 1.17.02.56.03 1.11.02.54.02 1.12l.02 1.21q.01.64-.17 1.22-.17.59-.5 1.05-.34.46-.91.6t-1.22.16l-1.19.02q-.54 0-1.13.13t-1.55.39q-.96.27-2.78.74t-2.09.42q-.27-.04-.51-.17-.24-.12-.43-.32t-.3-.45q-.12-.25-.15-.52t.03-.54.2-.51q.14-.23.35-.41t.45-.28q.26-.1.53-.12.28-.01.54.06t.49.23q.23.15.4.37.16.21.25.47t.09.54q0 .27-.09.53-.08.26-.25.48-.16.22-.39.38-.23.15-.49.22-.27.08-.54.06-.27-.01-.53-.11-.24-.1-.45-.28t-.36-.41q-.14-.24-.2-.5-.06-.27-.03-.54.03-.28.15-.53.11-.25.3-.45.19-.19.42-.32.24-.13.51-.18l.27-.04 1.3-.39q1.3-.38 2.32-.72 1.01-.34 1.58-.5.58-.16 1.34-.22.75-.05 1.38.04.63.1.26.57-.38.47-.36-.17.01-.63.01-1.21.01-.58.03-1.27l.04-1.39q.02-.7.03-1.34.01-.63.03-1.3t-.02-1.3q-.03-.63-.08-1.18t-.08-1.21q-.04-.66-.06-1.32t-.02-1.2q-.01-.55 0-1.25.02-.7.05-1.34t.05-1.47q.02-.84.02-1.41t-.01-1.17q0-.59-.01-1.74 0-1.14.03-1.76.02-.63.06-1.18t.08-1.23q.04-.69.06-1.22t.03-1.24q0-.7-.04-1.59-.03-.88-.1-1.84-.06-.95-.13-1.87-.08-.92-.13-1.7-.05-.77-.04-1.4t.43-.26q.43.36-.19.34-.61-.03-1.26-.07l-1.28-.06q-.62-.04-1.37-.27-.76-.22-1.45-.4t-1.3-.23q-.6-.05-1.33-.06-.72-.01-.88-.03-.15-.03-.3-.08-.14-.06-.27-.15-.12-.1-.22-.21-.11-.12-.18-.26-.06-.14-.1-.29-.03-.16-.03-.3 0-.16.04-.31.05-.15.12-.29.08-.13.18-.25.11-.11.24-.2.13-.08.28-.14.14-.05.3-.06z"/><g stroke-linecap="round"><path fill="none" stroke="#2f9e44" stroke-dasharray="8 9" stroke-width="1.5" d="M427.897 308.488c6.66-4.89 33.31-24.45 39.98-29.34"/><path fill="#2f9e44" fill-rule="evenodd" stroke-width="0" d="m467.877 279.148-7.21 13.15-7.5-10.22z"/><path fill="none" stroke="#2f9e44" stroke-width="1.5" d="M467.877 279.148c-2.85 5.19-5.7 10.39-7.21 13.15m0 0c-1.95-2.64-3.89-5.29-7.5-10.22m0 0c4.71-.94 9.43-1.88 14.71-2.93m0 0q0 0 0 0"/></g><text fill="#e03131" dominant-baseline="text-before-edge" font-family="Helvetica, Segoe UI Emoji" font-size="20" style="white-space:pre" transform="translate(399.59 307.303)">A</text><text fill="#e03131" dominant-baseline="text-before-edge" font-family="Helvetica, Segoe UI Emoji" font-size="20" style="white-space:pre" transform="translate(555.353 380.864)">B</text><g stroke-linecap="round"><path fill="none" stroke="#2f9e44" stroke-dasharray="1.5 8" stroke-width="2.5" d="M550.202 387.946c-13.91-18.21-69.25-91.51-82.8-109.93"/><path fill="#2f9e44" fill-rule="evenodd" stroke-width="0" d="m466.832 278.246 14.67 6.56-9.31 8.29-4.21-15.39"/><path fill="none" stroke="#2f9e44" stroke-width="2.5" d="M467.402 278.016c3.96 1.64 8.84 5.57 13.21 7.1m0 0c-4.52 2.1-6.24 4.39-10.15 7.59m0 0c.45-3.01-2.92-7.27-3.06-14.69m0 0q0 0 0 0"/></g><g stroke-linecap="round"><path fill="none" stroke="#e03131" stroke-width="4" d="M506.007 419.284c-6.76-23.72-33.81-118.6-40.57-142.32m40.57 142.32c-6.76-23.72-33.81-118.6-40.57-142.32"/><path fill="#e03131" fill-rule="evenodd" stroke-width="0" d="m465.437 276.964 9.82 11.34-12.19 3.47z"/><path fill="none" stroke="#e03131" stroke-width="4" d="M465.437 276.964c2.33 2.7 4.67 5.4 9.82 11.34m-9.82-11.34c2.02 2.33 4.04 4.67 9.82 11.34m0 0c-4.33 1.23-8.67 2.47-12.19 3.47m12.19-3.47c-2.52.72-5.04 1.43-12.19 3.47m0 0c.81-5.09 1.63-10.19 2.37-14.81m-2.37 14.81c.7-4.38 1.4-8.77 2.37-14.81m0 0q0 0 0 0m0 0q0 0 0 0"/></g><text fill="#e03131" dominant-baseline="text-before-edge" font-family="Helvetica, Segoe UI Emoji" font-size="20" style="white-space:pre" transform="translate(540.452 186.428)">向量A+B的结果</text><text y="23" fill="#e03131" dominant-baseline="text-before-edge" font-family="Helvetica, Segoe UI Emoji" font-size="20" style="white-space:pre" transform="translate(540.452 186.428)">实际上我们可以通过移动来达到效果</text><text y="46" fill="#e03131" dominant-baseline="text-before-edge" font-family="Helvetica, Segoe UI Emoji" font-size="20" style="white-space:pre" transform="translate(540.452 186.428)">x座标是正的,就是往上走, y同理 (刚好是相加一样)</text><text y="69" fill="#e03131" dominant-baseline="text-before-edge" font-family="Helvetica, Segoe UI Emoji" font-size="20" style="white-space:pre" transform="translate(540.452 186.428)">移动A或B都可以, 最后0座标连接起来就是结果了</text><text fill="#e03131" dominant-baseline="text-before-edge" font-family="Helvetica, Segoe UI Emoji" font-size="20" style="white-space:pre" transform="translate(874.62 293.925)">-1</text><text y="23" fill="#e03131" dominant-baseline="text-before-edge" font-family="Helvetica, Segoe UI Emoji" font-size="20" style="white-space:pre" transform="translate(874.62 293.925)">4</text><path fill="#e03131" d="m895.203 298.15.73.02q.73.03 1.41.07.68.05 1.22.12l1.08.14q.54.07 1.15.14.61.08 1.18.06t1.2-.05q.62-.04 1.75.26 1.12.31 1.56 1.23.44.93.44 1.55 0 .63-.04 1.42-.04.8-.11 1.73-.07.92-.13 1.88-.07.96-.1 1.84-.04.89-.03 1.59 0 .71.02 1.24t.06 1.22q.05.68.08 1.23.04.55.07 1.18.02.62.02 1.76-.01 1.15-.01 1.74-.01.6-.01 1.17t.02 1.41q.02.83.05 1.47.04.64.05 1.34t.01 1.25q-.01.54-.03 1.2t-.02 1.28q.01.61.1 1.44.1.83.15 1.37.05.55.07 1.39l.05 1.43q.01.6.03 1.17.02.56.03 1.11.02.54.02 1.12l.02 1.21q.01.64-.17 1.22-.17.59-.5 1.05-.34.46-.91.6t-1.22.16l-1.19.02q-.54 0-1.13.13t-1.55.39q-.96.27-2.78.74t-2.09.42q-.27-.04-.51-.17-.24-.12-.43-.32t-.3-.45q-.12-.25-.15-.52t.03-.54.2-.51q.14-.23.35-.41t.45-.28q.26-.1.53-.12.28-.01.54.06t.49.23q.23.15.4.37.16.21.25.47t.09.54q0 .27-.09.53-.08.26-.25.48-.16.22-.39.38-.23.15-.49.22-.27.08-.54.06-.27-.01-.53-.11-.24-.1-.45-.28t-.36-.41q-.14-.24-.2-.5-.06-.27-.03-.54.03-.28.15-.53.11-.25.3-.45.19-.19.42-.32.24-.13.51-.18l.27-.04 1.3-.39q1.3-.38 2.32-.72 1.01-.34 1.58-.5.58-.16 1.34-.22.75-.05 1.38.04.63.1.26.57-.38.47-.36-.17.01-.63.01-1.21.01-.58.03-1.27l.04-1.39q.02-.7.03-1.34.01-.63.03-1.3t-.02-1.3q-.03-.63-.08-1.18t-.08-1.21q-.04-.66-.06-1.32t-.02-1.2q-.01-.55 0-1.25.02-.7.05-1.34t.05-1.47q.02-.84.02-1.41t-.01-1.17q0-.59-.01-1.74 0-1.14.03-1.76.02-.63.06-1.18t.08-1.23q.04-.69.06-1.22t.03-1.24q0-.7-.04-1.59-.03-.88-.1-1.84-.06-.95-.13-1.87-.08-.92-.13-1.7-.05-.77-.04-1.4t.43-.26q.43.36-.19.34-.61-.03-1.26-.07l-1.28-.06q-.62-.04-1.37-.27-.76-.22-1.45-.4t-1.3-.23q-.6-.05-1.33-.06-.72-.01-.88-.03-.15-.03-.3-.08-.14-.06-.27-.15-.12-.1-.22-.21-.11-.12-.18-.26-.06-.14-.1-.29-.03-.16-.03-.3 0-.16.04-.31.05-.15.12-.29.08-.13.18-.25.11-.11.24-.2.13-.08.28-.14.14-.05.3-.06zM860.195 296.669l1.04.07q1.05.06 2 .09.94.02 1.69 0 .74-.02 1.6-.09.87-.06 1.19-.1.32-.03.47-.02.15.02.29.08.14.05.27.13.12.09.22.2.1.12.17.25t.11.28q.03.14.03.29t-.03.29q-.04.15-.11.28t-.17.25q-.1.11-.22.2-.13.08-.27.13-.14.06-.29.08-.15.01-.69.24t-1.23.43q-.69.21-1.49.31-.8.11-1.8.21-.99.09-1.89.12-.89.02-1.49.05t-.14-.36q.45-.39.78.35t.31 1.61q-.01.87-.04 1.85t-.04 2.18q-.02 1.2-.05 2.51l-.08 2.57q-.03 1.26-.02 2.49 0 1.23.04 2.38t.07 2.19q.02 1.05.05 1.96.04.9.08 1.64.05.73.1 1.27.04.53.12 1.23l.13 1.27q.06.59.09 1.54.04.96.06 1.51l.02 1.1q.01.56.03 1.48.03.92-.01 1.72-.04.81-.06 1.38-.01.57-.12 1.11t-.59.19q-.47-.36.29-.51.78-.15 1.58-.15t1.36.07q.56.06 1.19.23l1.19.32q.55.15 1.12.3.57.16 2.14.51 1.57.36 1.82.44.24.09.45.24.21.16.35.38.15.21.22.46t.05.51q-.01.26-.11.5t-.26.44q-.17.2-.39.33-.23.14-.48.19-.26.06-.51.03-.26-.03-.5-.14-.23-.11-.42-.29-.19-.17-.31-.4t-.17-.49q-.04-.26 0-.51.05-.26.17-.49t.31-.41.42-.29q.24-.1.5-.13t.51.03q.25.05.48.19.22.13.39.33t.26.44q.1.24.11.5.02.26-.05.51t-.22.46q-.15.22-.35.38-.21.15-.46.24-.24.08-.5.08h-.26l-1.69-.38-2.26-.51q-.57-.12-1.56-.35-1-.23-1.79-.26-.8-.03-1.59-.04-.79 0-1.5.06t-1.19-.25q-.48-.3-.76-1.27-.27-.98-.12-1.55.16-.58.26-1.31.1-.72.18-1.32t.11-1.52.03-1.48q.01-.55.03-1.1.01-.55.05-1.51.03-.95.09-1.53.05-.58.13-1.28.07-.69.11-1.22t.08-1.26q.03-.73.03-1.62.01-.9-.04-1.92t-.15-2.19q-.09-1.16-.18-2.42-.09-1.25-.15-2.5-.07-1.24-.17-2.5t-.26-2.46q-.16-1.19-.31-2.19-.14-1-.29-2.24-.14-1.23-.26-1.9-.12-.66.04-1.18.15-.52 1.01-.97.86-.47 1.45-.44.58.02 1.41.01.84 0 1.73-.07.89-.08 1.78-.15.88-.08 1.5-.21.62-.12 1.33-.2.71-.07.86-.06.15.02.29.08.14.05.27.13.12.09.22.2.1.12.17.25t.11.28q.03.14.03.29t-.03.29q-.04.15-.11.28t-.17.25q-.1.11-.22.2-.13.08-.27.13-.14.06-.29.08-.15.01-.47-.02-.32-.04-1.19-.1-.86-.07-1.6-.09-.75-.02-1.69 0-.95.03-2 .09-1.04.07-1.18.05t-.27-.07-.25-.13-.21-.19q-.1-.1-.16-.23-.07-.13-.1-.26-.04-.14-.04-.28t.04-.28q.03-.13.1-.26.06-.13.16-.23.09-.11.21-.19t.25-.13.27-.07z"/><text fill="#e03131" dominant-baseline="text-before-edge" font-family="Helvetica, Segoe UI Emoji" font-size="20" style="white-space:pre" transform="translate(569.59 529.55)">而向量的乘法</text><text y="46" fill="#e03131" dominant-baseline="text-before-edge" font-family="Helvetica, Segoe UI Emoji" font-size="20" style="white-space:pre" transform="translate(569.59 529.55)">2 *</text><text y="92" fill="#e03131" dominant-baseline="text-before-edge" font-family="Helvetica, Segoe UI Emoji" font-size="20" style="white-space:pre" transform="translate(569.59 529.55)">2*-2= -4 ,把长度(x和y) 变成2倍</text><text y="115" fill="#e03131" dominant-baseline="text-before-edge" font-family="Helvetica, Segoe UI Emoji" font-size="20" style="white-space:pre" transform="translate(569.59 529.55)">可以理解为缩放</text><text y="138" fill="#e03131" dominant-baseline="text-before-edge" font-family="Helvetica, Segoe UI Emoji" font-size="20" style="white-space:pre" transform="translate(569.59 529.55)">把x,y进行缩放, 我们把x和y称为标量</text><text y="161" fill="#e03131" dominant-baseline="text-before-edge" font-family="Helvetica, Segoe UI Emoji" font-size="20" style="white-space:pre" transform="translate(569.59 529.55)">所谓的             实际是将    基向量       进行缩放的结果</text><text y="207" fill="#e03131" dominant-baseline="text-before-edge" font-family="Helvetica, Segoe UI Emoji" font-size="20" style="white-space:pre" transform="translate(569.59 529.55)">x 座标反向拉升2倍, y座标拉升3倍 </text><path fill="none" stroke="#f08c00" stroke-linecap="round" stroke-width="2" d="M387.537 415.69c.09 2.54.12 12.47.14 15.14m-.64-15.34c.05 2.56.35 13.28.44 15.84M350.768 415.505c.02 2.78.05 14.84-.01 17.61m-.43-16.62c-.03 2.87.26 13.22.22 15.89M313.788 415.16c-.06 2.65-.34 12.48-.35 15.08m-.09-15.32c-.16 2.73-.34 13.01-.31 15.76M276.53 414.925c-.02 2.72.29 14.34.26 17.3m-.89-16.38c-.09 2.78.63 14.41.64 17.09M232.308 414.912c-.03 2.85-.36 13.86-.44 16.55m-.04-17.02c-.12 2.75-.37 13.45-.45 16.31M194.96 416.138c-.09 2.81-.11 13.63-.06 16.33m-.66-16.54c-.2 2.9.01 14.45.15 17.27"/><text fill="#f08c00" dominant-baseline="text-before-edge" font-family="Helvetica, Segoe UI Emoji" font-size="20" style="white-space:pre" transform="translate(614.315 560.501)">-2</text><text y="23" fill="#f08c00" dominant-baseline="text-before-edge" font-family="Helvetica, Segoe UI Emoji" font-size="20" style="white-space:pre" transform="translate(614.315 560.501)">3</text><path fill="#f08c00" d="m602.953 564.815 1.04.07q1.05.06 2 .09.94.02 1.69 0 .74-.02 1.6-.09.87-.06 1.19-.1.32-.03.47-.02.15.02.29.08.14.05.27.13.12.09.22.2.1.12.17.25t.11.28q.03.14.03.29t-.03.29q-.04.15-.11.28t-.17.25q-.1.11-.22.2-.13.08-.27.13-.14.06-.29.08-.15.01-.69.24t-1.23.43q-.69.21-1.49.31-.8.11-1.8.21-.99.09-1.89.12-.89.02-1.49.05t-.14-.36q.45-.39.78.35t.31 1.61q-.01.87-.04 1.85t-.04 2.18q-.02 1.2-.05 2.51l-.08 2.57q-.03 1.26-.02 2.49 0 1.23.04 2.38t.07 2.19q.02 1.05.05 1.96.04.9.08 1.64.05.73.1 1.27.04.53.12 1.23l.13 1.27q.06.59.09 1.54.04.96.06 1.51l.02 1.1q.01.56.03 1.48.03.92-.01 1.72-.04.81-.06 1.38-.01.57-.12 1.11t-.59.19q-.47-.36.29-.51.78-.15 1.58-.15t1.36.07q.56.06 1.19.23l1.19.32q.55.15 1.12.3.57.16 2.14.51 1.57.36 1.82.44.24.09.45.24.21.16.35.38.15.21.22.46t.05.51q-.01.26-.11.5t-.26.44q-.17.2-.39.33-.23.14-.48.19-.26.06-.51.03-.26-.03-.5-.14-.23-.11-.42-.29-.19-.17-.31-.4t-.17-.49q-.04-.26 0-.51.05-.26.17-.49t.31-.41.42-.29q.24-.1.5-.13t.51.03q.25.05.48.19.22.13.39.33t.26.44q.1.24.11.5.02.26-.05.51t-.22.46q-.15.22-.35.38-.21.15-.46.24-.24.08-.5.08h-.26l-1.69-.38-2.26-.51q-.57-.12-1.56-.35-1-.23-1.79-.26-.8-.03-1.59-.04-.79 0-1.5.06t-1.19-.25q-.48-.3-.76-1.27-.27-.98-.12-1.55.16-.58.26-1.31.1-.72.18-1.32t.11-1.52.03-1.48q.01-.55.03-1.1.01-.55.05-1.51.03-.95.09-1.53.05-.58.13-1.28.07-.69.11-1.22t.08-1.26q.03-.73.03-1.62.01-.9-.04-1.92t-.15-2.19q-.09-1.16-.18-2.42-.09-1.25-.15-2.5-.07-1.24-.17-2.5t-.26-2.46q-.16-1.19-.31-2.19-.14-1-.29-2.24-.14-1.23-.26-1.9-.12-.66.04-1.18.15-.52 1.01-.97.86-.47 1.45-.44.58.02 1.41.01.84 0 1.73-.07.89-.08 1.78-.15.88-.08 1.5-.21.62-.12 1.33-.2.71-.07.86-.06.15.02.29.08.14.05.27.13.12.09.22.2.1.12.17.25t.11.28q.03.14.03.29t-.03.29q-.04.15-.11.28t-.17.25q-.1.11-.22.2-.13.08-.27.13-.14.06-.29.08-.15.01-.47-.02-.32-.04-1.19-.1-.86-.07-1.6-.09-.75-.02-1.69 0-.95.03-2 .09-1.04.07-1.18.05t-.27-.07-.25-.13-.21-.19q-.1-.1-.16-.23-.07-.13-.1-.26-.04-.14-.04-.28t.04-.28q.03-.13.1-.26.06-.13.16-.23.09-.11.21-.19t.25-.13.27-.07zM636.058 563.536l.73.02q.73.03 1.41.07.68.05 1.22.12l1.08.14q.54.07 1.15.14.61.08 1.18.06t1.2-.05q.62-.04 1.75.26 1.12.31 1.56 1.23.44.93.44 1.55 0 .63-.04 1.42-.04.8-.11 1.73-.07.92-.13 1.88-.07.96-.1 1.84-.04.89-.03 1.59 0 .71.02 1.24t.06 1.22q.05.68.08 1.23.04.55.07 1.18.02.62.02 1.76-.01 1.15-.01 1.74-.01.6-.01 1.17t.02 1.41q.02.83.05 1.47.04.64.05 1.34t.01 1.25q-.01.54-.03 1.2t-.02 1.28q.01.61.1 1.44.1.83.15 1.37.05.55.07 1.39l.05 1.43q.01.6.03 1.17.02.56.03 1.11.02.54.02 1.12l.02 1.21q.01.64-.17 1.22-.17.59-.5 1.05-.34.46-.91.6t-1.22.16l-1.19.02q-.54 0-1.13.13t-1.55.39q-.96.27-2.78.74t-2.09.42q-.27-.04-.51-.17-.24-.12-.43-.32t-.3-.45q-.12-.25-.15-.52t.03-.54.2-.51q.14-.23.35-.41t.45-.28q.26-.1.53-.12.28-.01.54.06t.49.23q.23.15.4.37.16.21.25.47t.09.54q0 .27-.09.53-.08.26-.25.48-.16.22-.39.38-.23.15-.49.22-.27.08-.54.06-.27-.01-.53-.11-.24-.1-.45-.28t-.36-.41q-.14-.24-.2-.5-.06-.27-.03-.54.03-.28.15-.53.11-.25.3-.45.19-.19.42-.32.24-.13.51-.18l.27-.04 1.3-.39q1.3-.38 2.32-.72 1.01-.34 1.58-.5.58-.16 1.34-.22.75-.05 1.38.04.63.1.26.57-.38.47-.36-.17.01-.63.01-1.21.01-.58.03-1.27l.04-1.39q.02-.7.03-1.34.01-.63.03-1.3t-.02-1.3q-.03-.63-.08-1.18t-.08-1.21q-.04-.66-.06-1.32t-.02-1.2q-.01-.55 0-1.25.02-.7.05-1.34t.05-1.47q.02-.84.02-1.41t-.01-1.17q0-.59-.01-1.74 0-1.14.03-1.76.02-.63.06-1.18t.08-1.23q.04-.69.06-1.22t.03-1.24q0-.7-.04-1.59-.03-.88-.1-1.84-.06-.95-.13-1.87-.08-.92-.13-1.7-.05-.77-.04-1.4t.43-.26q.43.36-.19.34-.61-.03-1.26-.07l-1.28-.06q-.62-.04-1.37-.27-.76-.22-1.45-.4t-1.3-.23q-.6-.05-1.33-.06-.72-.01-.88-.03-.15-.03-.3-.08-.14-.06-.27-.15-.12-.1-.22-.21-.11-.12-.18-.26-.06-.14-.1-.29-.03-.16-.03-.3 0-.16.04-.31.05-.15.12-.29.08-.13.18-.25.11-.11.24-.2.13-.08.28-.14.14-.05.3-.06z"/><text fill="#f08c00" dominant-baseline="text-before-edge" font-family="Helvetica, Segoe UI Emoji" font-size="20" style="white-space:pre" transform="translate(655.75 691.341)">-2</text><text y="23" fill="#f08c00" dominant-baseline="text-before-edge" font-family="Helvetica, Segoe UI Emoji" font-size="20" style="white-space:pre" transform="translate(655.75 691.341)">3</text><path fill="#f08c00" d="m639.389 695.655 1.04.07q1.05.06 2 .09.94.02 1.69 0 .74-.02 1.6-.09.87-.06 1.19-.1.32-.03.47-.02.15.02.29.08.14.05.27.13.12.09.22.2.1.12.17.25t.11.28q.03.14.03.29t-.03.29q-.04.15-.11.28t-.17.25q-.1.11-.22.2-.13.08-.27.13-.14.06-.29.08-.15.01-.69.24t-1.23.43q-.69.21-1.49.31-.8.11-1.8.21-.99.09-1.89.12-.89.02-1.49.05t-.14-.36q.45-.39.78.35t.31 1.61q-.01.87-.04 1.85t-.04 2.18q-.02 1.2-.05 2.51l-.08 2.57q-.03 1.26-.02 2.49 0 1.23.04 2.38t.07 2.19q.02 1.05.05 1.96.04.9.08 1.64.05.73.1 1.27.04.53.12 1.23l.13 1.27q.06.59.09 1.54.04.96.06 1.51l.02 1.1q.01.56.03 1.48.03.92-.01 1.72-.04.81-.06 1.38-.01.57-.12 1.11t-.59.19q-.47-.36.29-.51.78-.15 1.58-.15t1.36.07q.56.06 1.19.23l1.19.32q.55.15 1.12.3.57.16 2.14.51 1.57.36 1.82.44.24.09.45.24.21.16.35.38.15.21.22.46t.05.51q-.01.26-.11.5t-.26.44q-.17.2-.39.33-.23.14-.48.19-.26.06-.51.03-.26-.03-.5-.14-.23-.11-.42-.29-.19-.17-.31-.4t-.17-.49q-.04-.26 0-.51.05-.26.17-.49t.31-.41.42-.29q.24-.1.5-.13t.51.03q.25.05.48.19.22.13.39.33t.26.44q.1.24.11.5.02.26-.05.51t-.22.46q-.15.22-.35.38-.21.15-.46.24-.24.08-.5.08h-.26l-1.69-.38-2.26-.51q-.57-.12-1.56-.35-1-.23-1.79-.26-.8-.03-1.59-.04-.79 0-1.5.06t-1.19-.25q-.48-.3-.76-1.27-.27-.98-.12-1.55.16-.58.26-1.31.1-.72.18-1.32t.11-1.52.03-1.48q.01-.55.03-1.1.01-.55.05-1.51.03-.95.09-1.53.05-.58.13-1.28.07-.69.11-1.22t.08-1.26q.03-.73.03-1.62.01-.9-.04-1.92t-.15-2.19q-.09-1.16-.18-2.42-.09-1.25-.15-2.5-.07-1.24-.17-2.5t-.26-2.46q-.16-1.19-.31-2.19-.14-1-.29-2.24-.14-1.23-.26-1.9-.12-.66.04-1.18.15-.52 1.01-.97.86-.47 1.45-.44.58.02 1.41.01.84 0 1.73-.07.89-.08 1.78-.15.88-.08 1.5-.21.62-.12 1.33-.2.71-.07.86-.06.15.02.29.08.14.05.27.13.12.09.22.2.1.12.17.25t.11.28q.03.14.03.29t-.03.29q-.04.15-.11.28t-.17.25q-.1.11-.22.2-.13.08-.27.13-.14.06-.29.08-.15.01-.47-.02-.32-.04-1.19-.1-.86-.07-1.6-.09-.75-.02-1.69 0-.95.03-2 .09-1.04.07-1.18.05t-.27-.07-.25-.13-.21-.19q-.1-.1-.16-.23-.07-.13-.1-.26-.04-.14-.04-.28t.04-.28q.03-.13.1-.26.06-.13.16-.23.09-.11.21-.19t.25-.13.27-.07zM678.494 694.376l.73.02q.73.03 1.41.07.68.05 1.22.12l1.08.14q.54.07 1.15.14.61.08 1.18.06t1.2-.05q.62-.04 1.75.26 1.12.31 1.56 1.23.44.93.44 1.55 0 .63-.04 1.42-.04.8-.11 1.73-.07.92-.13 1.88-.07.96-.1 1.84-.04.89-.03 1.59 0 .71.02 1.24t.06 1.22q.05.68.08 1.23.04.55.07 1.18.02.62.02 1.76-.01 1.15-.01 1.74-.01.6-.01 1.17t.02 1.41q.02.83.05 1.47.04.64.05 1.34t.01 1.25q-.01.54-.03 1.2t-.02 1.28q.01.61.1 1.44.1.83.15 1.37.05.55.07 1.39l.05 1.43q.01.6.03 1.17.02.56.03 1.11.02.54.02 1.12l.02 1.21q.01.64-.17 1.22-.17.59-.5 1.05-.34.46-.91.6t-1.22.16l-1.19.02q-.54 0-1.13.13t-1.55.39q-.96.27-2.78.74t-2.09.42q-.27-.04-.51-.17-.24-.12-.43-.32t-.3-.45q-.12-.25-.15-.52t.03-.54.2-.51q.14-.23.35-.41t.45-.28q.26-.1.53-.12.28-.01.54.06t.49.23q.23.15.4.37.16.21.25.47t.09.54q0 .27-.09.53-.08.26-.25.48-.16.22-.39.38-.23.15-.49.22-.27.08-.54.06-.27-.01-.53-.11-.24-.1-.45-.28t-.36-.41q-.14-.24-.2-.5-.06-.27-.03-.54.03-.28.15-.53.11-.25.3-.45.19-.19.42-.32.24-.13.51-.18l.27-.04 1.3-.39q1.3-.38 2.32-.72 1.01-.34 1.58-.5.58-.16 1.34-.22.75-.05 1.38.04.63.1.26.57-.38.47-.36-.17.01-.63.01-1.21.01-.58.03-1.27l.04-1.39q.02-.7.03-1.34.01-.63.03-1.3t-.02-1.3q-.03-.63-.08-1.18t-.08-1.21q-.04-.66-.06-1.32t-.02-1.2q-.01-.55 0-1.25.02-.7.05-1.34t.05-1.47q.02-.84.02-1.41t-.01-1.17q0-.59-.01-1.74 0-1.14.03-1.76.02-.63.06-1.18t.08-1.23q.04-.69.06-1.22t.03-1.24q0-.7-.04-1.59-.03-.88-.1-1.84-.06-.95-.13-1.87-.08-.92-.13-1.7-.05-.77-.04-1.4t.43-.26q.43.36-.19.34-.61-.03-1.26-.07l-1.28-.06q-.62-.04-1.37-.27-.76-.22-1.45-.4t-1.3-.23q-.6-.05-1.33-.06-.72-.01-.88-.03-.15-.03-.3-.08-.14-.06-.27-.15-.12-.1-.22-.21-.11-.12-.18-.26-.06-.14-.1-.29-.03-.16-.03-.3 0-.16.04-.31.05-.15.12-.29.08-.13.18-.25.11-.11.24-.2.13-.08.28-.14.14-.05.3-.06z"/><text fill="#f08c00" dominant-baseline="text-before-edge" font-family="Helvetica, Segoe UI Emoji" font-size="20" style="white-space:pre" transform="translate(874.421 692.865)">1</text><text y="23" fill="#f08c00" dominant-baseline="text-before-edge" font-family="Helvetica, Segoe UI Emoji" font-size="20" style="white-space:pre" transform="translate(874.421 692.865)">1</text><path fill="#f08c00" d="m865.638 697.18 1.04.07q1.05.06 2 .09.94.02 1.69 0 .74-.02 1.6-.09.87-.06 1.19-.1.32-.03.47-.02.15.02.29.08.14.05.27.13.12.09.22.2.1.12.17.25t.11.28q.03.14.03.29t-.03.29q-.04.15-.11.28t-.17.25q-.1.11-.22.2-.13.08-.27.13-.14.06-.29.08-.15.01-.69.24t-1.23.43q-.69.21-1.49.31-.8.11-1.8.21-.99.09-1.89.12-.89.02-1.49.05t-.14-.36q.45-.39.78.35t.31 1.61q-.01.87-.04 1.85t-.04 2.18q-.02 1.2-.05 2.51l-.08 2.57q-.03 1.26-.02 2.49 0 1.23.04 2.38t.07 2.19q.02 1.05.05 1.96.04.9.08 1.64.05.73.1 1.27.04.53.12 1.23l.13 1.27q.06.59.09 1.54.04.96.06 1.51l.02 1.1q.01.56.03 1.48.03.92-.01 1.72-.04.81-.06 1.38-.01.57-.12 1.11t-.59.19q-.47-.36.29-.51.78-.15 1.58-.15t1.36.07q.56.06 1.19.23l1.19.32q.55.15 1.12.3.57.16 2.14.51 1.57.36 1.82.44.24.09.45.24.21.16.35.38.15.21.22.46t.05.51q-.01.26-.11.5t-.26.44q-.17.2-.39.33-.23.14-.48.19-.26.06-.51.03-.26-.03-.5-.14-.23-.11-.42-.29-.19-.17-.31-.4t-.17-.49q-.04-.26 0-.51.05-.26.17-.49t.31-.41.42-.29q.24-.1.5-.13t.51.03q.25.05.48.19.22.13.39.33t.26.44q.1.24.11.5.02.26-.05.51t-.22.46q-.15.22-.35.38-.21.15-.46.24-.24.08-.5.08h-.26l-1.69-.38-2.26-.51q-.57-.12-1.56-.35-1-.23-1.79-.26-.8-.03-1.59-.04-.79 0-1.5.06t-1.19-.25q-.48-.3-.76-1.27-.27-.98-.12-1.55.16-.58.26-1.31.1-.72.18-1.32t.11-1.52.03-1.48q.01-.55.03-1.1.01-.55.05-1.51.03-.95.09-1.53.05-.58.13-1.28.07-.69.11-1.22t.08-1.26q.03-.73.03-1.62.01-.9-.04-1.92t-.15-2.19q-.09-1.16-.18-2.42-.09-1.25-.15-2.5-.07-1.24-.17-2.5t-.26-2.46q-.16-1.19-.31-2.19-.14-1-.29-2.24-.14-1.23-.26-1.9-.12-.66.04-1.18.15-.52 1.01-.97.86-.47 1.45-.44.58.02 1.41.01.84 0 1.73-.07.89-.08 1.78-.15.88-.08 1.5-.21.62-.12 1.33-.2.71-.07.86-.06.15.02.29.08.14.05.27.13.12.09.22.2.1.12.17.25t.11.28q.03.14.03.29t-.03.29q-.04.15-.11.28t-.17.25q-.1.11-.22.2-.13.08-.27.13-.14.06-.29.08-.15.01-.47-.02-.32-.04-1.19-.1-.86-.07-1.6-.09-.75-.02-1.69 0-.95.03-2 .09-1.04.07-1.18.05t-.27-.07-.25-.13-.21-.19q-.1-.1-.16-.23-.07-.13-.1-.26-.04-.14-.04-.28t.04-.28q.03-.13.1-.26.06-.13.16-.23.09-.11.21-.19t.25-.13.27-.07zM888.567 694.293l.73.02q.73.03 1.41.07.68.05 1.22.12l1.08.14q.54.07 1.15.14.61.08 1.18.06t1.2-.05q.62-.04 1.75.26 1.12.31 1.56 1.23.44.93.44 1.55 0 .63-.04 1.42-.04.8-.11 1.73-.07.92-.13 1.88-.07.96-.1 1.84-.04.89-.03 1.59 0 .71.02 1.24t.06 1.22q.05.68.08 1.23.04.55.07 1.18.02.62.02 1.76-.01 1.15-.01 1.74-.01.6-.01 1.17t.02 1.41q.02.83.05 1.47.04.64.05 1.34t.01 1.25q-.01.54-.03 1.2t-.02 1.28q.01.61.1 1.44.1.83.15 1.37.05.55.07 1.39l.05 1.43q.01.6.03 1.17.02.56.03 1.11.02.54.02 1.12l.02 1.21q.01.64-.17 1.22-.17.59-.5 1.05-.34.46-.91.6t-1.22.16l-1.19.02q-.54 0-1.13.13t-1.55.39q-.96.27-2.78.74t-2.09.42q-.27-.04-.51-.17-.24-.12-.43-.32t-.3-.45q-.12-.25-.15-.52t.03-.54.2-.51q.14-.23.35-.41t.45-.28q.26-.1.53-.12.28-.01.54.06t.49.23q.23.15.4.37.16.21.25.47t.09.54q0 .27-.09.53-.08.26-.25.48-.16.22-.39.38-.23.15-.49.22-.27.08-.54.06-.27-.01-.53-.11-.24-.1-.45-.28t-.36-.41q-.14-.24-.2-.5-.06-.27-.03-.54.03-.28.15-.53.11-.25.3-.45.19-.19.42-.32.24-.13.51-.18l.27-.04 1.3-.39q1.3-.38 2.32-.72 1.01-.34 1.58-.5.58-.16 1.34-.22.75-.05 1.38.04.63.1.26.57-.38.47-.36-.17.01-.63.01-1.21.01-.58.03-1.27l.04-1.39q.02-.7.03-1.34.01-.63.03-1.3t-.02-1.3q-.03-.63-.08-1.18t-.08-1.21q-.04-.66-.06-1.32t-.02-1.2q-.01-.55 0-1.25.02-.7.05-1.34t.05-1.47q.02-.84.02-1.41t-.01-1.17q0-.59-.01-1.74 0-1.14.03-1.76.02-.63.06-1.18t.08-1.23q.04-.69.06-1.22t.03-1.24q0-.7-.04-1.59-.03-.88-.1-1.84-.06-.95-.13-1.87-.08-.92-.13-1.7-.05-.77-.04-1.4t.43-.26q.43.36-.19.34-.61-.03-1.26-.07l-1.28-.06q-.62-.04-1.37-.27-.76-.22-1.45-.4t-1.3-.23q-.6-.05-1.33-.06-.72-.01-.88-.03-.15-.03-.3-.08-.14-.06-.27-.15-.12-.1-.22-.21-.11-.12-.18-.26-.06-.14-.1-.29-.03-.16-.03-.3 0-.16.04-.31.05-.15.12-.29.08-.13.18-.25.11-.11.24-.2.13-.08.28-.14.14-.05.3-.06z"/></svg>