<svg xmlns="http://www.w3.org/2000/svg" width="941" height="738" preserveAspectRatio="none" style="width:941px;height:738px;background:#fff"><defs><filter id="a" width="300%" height="300%" x="-1" y="-1"><feGaussianBlur result="blurOut" stdDeviation="2"/><feColorMatrix in="blurOut" result="blurOut2" values="0 0 0 0 0 0 0 0 0 0 0 0 0 0 0 0 0 0 .4 0"/><feOffset dx="4" dy="4" in="blurOut2" result="blurOut3"/><feBlend in="SourceGraphic" in2="blurOut3"/></filter></defs><text x="869" y="19.282" fill="#888" font-family="sans-serif" font-size="10" textLength="52">made by x</text><text x="417.5" y="45.636" font-family="sans-serif" font-size="14" font-weight="bold" textLength="96">reflect.Type</text><rect width="58" height="40.297" x="10" y="324.719" fill="#A8EB99" filter="url(#a)" rx="7.5" ry="7.5" style="stroke:#000;stroke-width:1"/><text x="22" y="349.714" font-family="sans-serif" font-size="14" textLength="34">Type</text><rect width="108" height="66.594" x="118" y="186.68" fill="#FBC" filter="url(#a)" rx="7.5" ry="7.5" style="stroke:#000;stroke-width:1"/><text x="130" y="211.675" font-family="sans-serif" font-size="14" textLength="84">获取类型种类</text><path d="M118 219.977h108" style="stroke:#000;stroke-width:1;stroke-dasharray:1,2"/><text x="148" y="237.972" font-family="sans-serif" font-size="14" textLength="4"> </text><text x="152" y="237.972" font-family="sans-serif" font-size="14" textLength="44">.Kind()</text><path fill="none" d="M68 344.867h10c15 0 15-124.89 30-124.89h10" style="stroke:green;stroke-width:1;stroke-dasharray:5,5"/><rect width="180" height="40.297" x="118" y="273.273" fill="#FBE972" filter="url(#a)" rx="7.5" ry="7.5" style="stroke:#000;stroke-width:1"/><text x="130" y="298.269" font-family="sans-serif" font-size="14" textLength="156">.Kind()==reflect.Struct</text><rect width="80" height="40.297" x="348" y="126.383" fill="#FBE972" filter="url(#a)" rx="7.5" ry="7.5" style="stroke:#000;stroke-width:1"/><text x="360" y="151.378" font-family="sans-serif" font-size="14" textLength="56">方法相关</text><rect width="123" height="66.594" x="478" y="69.938" fill="#FBE972" filter="url(#a)" rx="7.5" ry="7.5" style="stroke:#000;stroke-width:1"/><text x="497.5" y="94.933" font-family="sans-serif" font-size="14" textLength="84">获取方法个数</text><path d="M478 103.234h123" style="stroke:#000;stroke-width:1;stroke-dasharray:1,2"/><text x="490" y="121.23" font-family="sans-serif" font-size="14" textLength="99">.NumMethod()</text><path fill="none" d="M428 146.531h10c15 0 15-43.297 30-43.297h10" style="stroke:green;stroke-width:1;stroke-dasharray:5,5"/><rect width="108" height="66.594" x="478" y="156.531" fill="#FBE972" filter="url(#a)" rx="7.5" ry="7.5" style="stroke:#000;stroke-width:1"/><text x="504" y="181.526" font-family="sans-serif" font-size="14" textLength="56">获取方法</text><path d="M478 189.828h108" style="stroke:#000;stroke-width:1;stroke-dasharray:1,2"/><text x="490" y="207.823" font-family="sans-serif" font-size="14" textLength="84">.Method(int)</text><path fill="none" d="M428 146.531h10c15 0 15 43.297 30 43.297h10" style="stroke:green;stroke-width:1;stroke-dasharray:5,5"/><path fill="none" d="M298 293.422h10c15 0 15-146.89 30-146.89h10" style="stroke:#89c6fa;stroke-width:1;stroke-dasharray:5,5"/><rect width="80" height="40.297" x="348" y="359.867" fill="#FBE972" filter="url(#a)" rx="7.5" ry="7.5" style="stroke:#000;stroke-width:1"/><text x="360" y="384.862" font-family="sans-serif" font-size="14" textLength="56">字段相关</text><rect width="108" height="66.594" x="478" y="260.125" fill="#FBE972" filter="url(#a)" rx="7.5" ry="7.5" style="stroke:#000;stroke-width:1"/><text x="490" y="285.12" font-family="sans-serif" font-size="14" textLength="84">获取字段个数</text><path d="M478 293.422h108" style="stroke:#000;stroke-width:1;stroke-dasharray:1,2"/><text x="493" y="311.417" font-family="sans-serif" font-size="14" textLength="78">.NumField()</text><path fill="none" d="M428 380.016h10c15 0 15-86.594 30-86.594h10" style="stroke:green;stroke-width:1;stroke-dasharray:5,5"/><rect width="150" height="66.594" x="478" y="346.719" fill="#FBE972" filter="url(#a)" rx="7.5" ry="7.5" style="stroke:#000;stroke-width:1"/><text x="490" y="371.714" font-family="sans-serif" font-size="14" textLength="126">获取字段的类型信息</text><path d="M478 380.016h150" style="stroke:#000;stroke-width:1;stroke-dasharray:1,2"/><text x="521.5" y="398.011" font-family="sans-serif" font-size="14" textLength="63">.Field(int)</text><rect width="68" height="40.297" x="678" y="243.125" fill="#FBE972" filter="url(#a)" rx="7.5" ry="7.5" style="stroke:#000;stroke-width:1"/><text x="690" y="268.12" font-family="sans-serif" font-size="14" textLength="44">.Name</text><path fill="none" d="M628 380.016h10c15 0 15-116.743 30-116.743h10" style="stroke:green;stroke-width:1;stroke-dasharray:5,5"/><rect width="244" height="66.594" x="678" y="303.422" fill="#FBE972" filter="url(#a)" rx="7.5" ry="7.5" style="stroke:#000;stroke-width:1"/><text x="690" y="328.417" font-family="sans-serif" font-size="14" textLength="220">字段在结构体内的偏移量(起始位置)</text><path d="M678 336.719h244" style="stroke:#000;stroke-width:1;stroke-dasharray:1,2"/><text x="777.5" y="354.714" font-family="sans-serif" font-size="14" textLength="45">.Offset</text><path fill="none" d="M628 380.016h10c15 0 15-43.297 30-43.297h10" style="stroke:green;stroke-width:1;stroke-dasharray:5,5"/><rect width="115" height="66.594" x="678" y="390.016" fill="#FBE972" filter="url(#a)" rx="7.5" ry="7.5" style="stroke:#000;stroke-width:1"/><text x="693.5" y="415.011" font-family="sans-serif" font-size="14" textLength="84">字段是否公有</text><path d="M678 423.313h115" style="stroke:#000;stroke-width:1;stroke-dasharray:1,2"/><text x="690" y="441.308" font-family="sans-serif" font-size="14" textLength="4"> </text><text x="694" y="441.308" font-family="sans-serif" font-size="14" textLength="87">.IsExported()</text><path fill="none" d="M628 380.016h10c15 0 15 43.296 30 43.296h10" style="stroke:green;stroke-width:1;stroke-dasharray:5,5"/><rect width="54" height="40.297" x="678" y="476.609" fill="#FBE972" filter="url(#a)" rx="7.5" ry="7.5" style="stroke:#000;stroke-width:1"/><text x="690" y="501.604" font-family="sans-serif" font-size="14" textLength="30">.Tag</text><path fill="none" d="M628 380.016h10c15 0 15 116.742 30 116.742h10M428 380.016h50" style="stroke:green;stroke-width:1;stroke-dasharray:5,5"/><path fill="none" d="M298 293.422h10c15 0 15 86.594 30 86.594h10" style="stroke:#89c6fa;stroke-width:1;stroke-dasharray:5,5"/><path fill="none" d="M68 344.867h10c15 0 15-51.445 30-51.445h10" style="stroke:green;stroke-width:1;stroke-dasharray:5,5"/><rect width="158" height="40.297" x="118" y="558.203" fill="#E0FFFF" filter="url(#a)" rx="7.5" ry="7.5" style="stroke:#000;stroke-width:1"/><text x="130" y="583.198" font-family="sans-serif" font-size="14" textLength="134">.Kind()==reflect.Ptr</text><rect width="254" height="82.891" x="326" y="536.906" fill="#E0FFFF" filter="url(#a)" rx="7.5" ry="7.5" style="stroke:#000;stroke-width:1"/><text x="338" y="561.901" font-family="sans-serif" font-size="14" textLength="230">获取指针指向的数据的类型信息Type</text><text x="340" y="578.198" font-family="sans-serif" font-size="14" textLength="226">接着还是根据.Kind()类别做相关操作</text><path d="M326 586.5h254" style="stroke:#000;stroke-width:1;stroke-dasharray:1,2"/><text x="429" y="604.495" font-family="sans-serif" font-size="14" textLength="48">.Elem()</text><path fill="none" d="M276 578.352h50" style="stroke:#89c6fa;stroke-width:1;stroke-dasharray:5,5"/><path fill="none" d="M68 344.867h10c15 0 15 233.485 30 233.485h10" style="stroke:green;stroke-width:1;stroke-dasharray:5,5"/><rect width="178" height="52.594" x="731" y="641.797" fill="#F3FBEC" rx=".5" ry=".5" style="stroke:#f3fbec;stroke-width:1;stroke-dasharray:4,4"/><text x="741" y="664.792" fill="gray" font-family="sans-serif" font-size="14" textLength="158">通过type.Kind()判断类型</text><text x="741" y="681.089" fill="gray" font-family="sans-serif" font-size="14" textLength="140">不同的类型有不同信息</text><text x="452" y="721.386" font-family="sans-serif" font-size="14" textLength="27">图 1</text></svg>