<svg xmlns="http://www.w3.org/2000/svg" width="635" height="573" preserveAspectRatio="none" style="width:635px;height:573px;background:#fff"><defs><filter id="a" width="300%" height="300%" x="-1" y="-1"><feGaussianBlur result="blurOut" stdDeviation="2"/><feColorMatrix in="blurOut" result="blurOut2" values="0 0 0 0 0 0 0 0 0 0 0 0 0 0 0 0 0 0 .4 0"/><feOffset dx="4" dy="4" in="blurOut2" result="blurOut3"/><feBlend in="SourceGraphic" in2="blurOut3"/></filter></defs><text x="563" y="19.282" fill="#888" font-family="sans-serif" font-size="10" textLength="52">made by x</text><text x="253" y="45.636" font-family="sans-serif" font-size="14" font-weight="bold" textLength="119">copy 还是 move</text><rect width="57" height="40.297" x="10" y="250.828" fill="#A8EB99" filter="url(#a)" rx="7.5" ry="7.5" style="stroke:#000;stroke-width:1"/><text x="22" y="275.823" font-family="sans-serif" font-size="14" textLength="33">copy</text><rect width="80" height="40.297" x="117" y="69.938" fill="#FBE972" filter="url(#a)" rx="7.5" ry="7.5" style="stroke:#000;stroke-width:1"/><text x="129" y="94.933" font-family="sans-serif" font-size="14" textLength="56">整数类型</text><path fill="none" d="M67 270.977h10c15 0 15-180.891 30-180.891h10" style="stroke:green;stroke-width:1;stroke-dasharray:5,5"/><rect width="80" height="40.297" x="117" y="130.234" fill="#FBE972" filter="url(#a)" rx="7.5" ry="7.5" style="stroke:#000;stroke-width:1"/><text x="129" y="155.23" font-family="sans-serif" font-size="14" textLength="56">布尔类型</text><path fill="none" d="M67 270.977h10c15 0 15-120.594 30-120.594h10" style="stroke:green;stroke-width:1;stroke-dasharray:5,5"/><rect width="94" height="40.297" x="117" y="190.531" fill="#FBE972" filter="url(#a)" rx="7.5" ry="7.5" style="stroke:#000;stroke-width:1"/><text x="129" y="215.526" font-family="sans-serif" font-size="14" textLength="70">浮点数类型</text><path fill="none" d="M67 270.977h10c15 0 15-60.297 30-60.297h10" style="stroke:green;stroke-width:1;stroke-dasharray:5,5"/><rect width="110" height="40.297" x="117" y="250.828" fill="#FBE972" filter="url(#a)" rx="7.5" ry="7.5" style="stroke:#000;stroke-width:1"/><text x="129" y="275.823" font-family="sans-serif" font-size="14" textLength="86">字符类型char</text><path fill="none" d="M67 270.977h50" style="stroke:green;stroke-width:1;stroke-dasharray:5,5"/><rect width="227" height="40.297" x="117" y="311.125" fill="#FBE972" filter="url(#a)" rx="7.5" ry="7.5" style="stroke:#000;stroke-width:1"/><text x="129" y="336.12" font-family="sans-serif" font-size="14" textLength="203">由以上类型组成的元组类型tuple</text><path fill="none" d="M67 270.977h10c15 0 15 60.296 30 60.296h10" style="stroke:green;stroke-width:1;stroke-dasharray:5,5"/><rect width="225" height="40.297" x="117" y="371.422" fill="#FBE972" filter="url(#a)" rx="7.5" ry="7.5" style="stroke:#000;stroke-width:1"/><text x="129" y="396.417" font-family="sans-serif" font-size="14" textLength="201">由以上类型组成的数组类型array</text><path fill="none" d="M67 270.977h10c15 0 15 120.593 30 120.593h10" style="stroke:green;stroke-width:1;stroke-dasharray:5,5"/><rect width="134" height="40.297" x="117" y="431.719" fill="#EAB8DE" filter="url(#a)" rx="7.5" ry="7.5" style="stroke:#000;stroke-width:1"/><text x="129" y="456.714" font-family="sans-serif" font-size="14" textLength="110">不可变引用类型&amp;</text><rect width="315" height="40.297" x="301" y="431.719" fill="#FBE972" filter="url(#a)" rx="7.5" ry="7.5" style="stroke:#000;stroke-width:1"/><text x="313" y="456.714" font-family="sans-serif" font-size="14" textLength="291">这个很好理解,既然是不可变,多复制几个完全ok</text><path fill="none" d="M251 451.867h50" style="stroke:red;stroke-width:1;stroke-dasharray:5,5"/><path fill="none" d="M67 270.977h10c15 0 15 180.89 30 180.89h10" style="stroke:green;stroke-width:1;stroke-dasharray:5,5"/><rect width="62" height="40.297" x="10" y="492.016" fill="#A8EB99" filter="url(#a)" rx="7.5" ry="7.5" style="stroke:#000;stroke-width:1"/><text x="22" y="517.011" font-family="sans-serif" font-size="14" textLength="38">move</text><rect width="150" height="40.297" x="122" y="492.016" fill="#FBE972" filter="url(#a)" rx="7.5" ry="7.5" style="stroke:#000;stroke-width:1"/><text x="134" y="517.011" font-family="sans-serif" font-size="14" textLength="126">除上面外的其他类型</text><path fill="none" d="M72 512.164h50" style="stroke:green;stroke-width:1;stroke-dasharray:5,5"/><text x="299" y="556.308" font-family="sans-serif" font-size="14" textLength="27">图 5</text></svg>