<svg xmlns="http://www.w3.org/2000/svg" viewBox="0 0 662 310"><defs><filter id="a" width="1.157" height="1.504" x="-.079" y="-.252"><feGaussianBlur stdDeviation="4.2"/></filter></defs><desc>blockdiag {
// orientation = portrait
  default_fontsize = 14;
  default_shape = roundedbox;  // default value is &apos;box&apos;
  span_height = 30;
  role -&gt; rolebinding [thick , color = &quot;orange&quot;];
  rolebinding &lt;- User[thick , color = &quot;orange&quot;];
  rolebinding &lt;- Group[thick , color = &quot;orange&quot;];
  rolebinding &lt;- ServiceAccount[thick , color = &quot;orange&quot;];
  clusterrolebinding[width=150]
  clusterrole -&gt; clusterrolebinding [thick, color = &quot;#5abdf9&quot;];
  clusterrole [label =&quot;clusterrole&quot;, color=&quot;yellow&quot;];
  clusterrole -&gt; rolebinding [thick , color = &quot;orange&quot;];
  role [color = &quot;pink&quot;];
  rolebinding [color = &quot;orange&quot;];
  clusterrolebinding [color = &quot;#5abdf9&quot;];
  clusterrolebinding &lt;- User  [thick, color = &quot;#5abdf9&quot;];
  clusterrolebinding &lt;- Group [thick, color = &quot;#5abdf9&quot;];
  clusterrolebinding &lt;- ServiceAccount [thick, color = &quot;#5abdf9&quot;];
  group {
    color = &quot;#c6eb94&quot;;
    User [stacked];
    Group [stacked];
    ServiceAccount [stacked];
  }
}</desc><path fill="#C6EB94" d="M462 23h144v194H462z" style="filter:url(#a)"/><path stroke="#000" d="M75 36h112a8 8 0 0 1 8 8v24a8 8 0 0 1-8 8H75a8 8 0 0 1-8-8V44a8 8 0 0 1 8-8M75 246h112a8 8 0 0 1 8 8v24a8 8 0 0 1-8 8H75a8 8 0 0 1-8-8v-24a8 8 0 0 1 8-8M278 36h112a8 8 0 0 1 8 8v24a8 8 0 0 1-8 8H278a8 8 0 0 1-8-8V44a8 8 0 0 1 8-8M267 246h134a8 8 0 0 1 8 8v24a8 8 0 0 1-8 8H267a8 8 0 0 1-8-8v-24a8 8 0 0 1 8-8M489 44h112a8 8 0 0 1 8 8v24a8 8 0 0 1-8 8H489a8 8 0 0 1-8-8V52a8 8 0 0 1 8-8" style="filter:url(#a);opacity:.7;fill-opacity:1"/><path stroke="#000" d="M485 40h112a8 8 0 0 1 8 8v24a8 8 0 0 1-8 8H485a8 8 0 0 1-8-8V48a8 8 0 0 1 8-8" style="filter:url(#a);opacity:.7;fill-opacity:1"/><path stroke="#000" d="M481 36h112a8 8 0 0 1 8 8v24a8 8 0 0 1-8 8H481a8 8 0 0 1-8-8V44a8 8 0 0 1 8-8M489 114h112a8 8 0 0 1 8 8v24a8 8 0 0 1-8 8H489a8 8 0 0 1-8-8v-24a8 8 0 0 1 8-8" style="filter:url(#a);opacity:.7;fill-opacity:1"/><path stroke="#000" d="M485 110h112a8 8 0 0 1 8 8v24a8 8 0 0 1-8 8H485a8 8 0 0 1-8-8v-24a8 8 0 0 1 8-8" style="filter:url(#a);opacity:.7;fill-opacity:1"/><path stroke="#000" d="M481 106h112a8 8 0 0 1 8 8v24a8 8 0 0 1-8 8H481a8 8 0 0 1-8-8v-24a8 8 0 0 1 8-8M489 184h112a8 8 0 0 1 8 8v24a8 8 0 0 1-8 8H489a8 8 0 0 1-8-8v-24a8 8 0 0 1 8-8" style="filter:url(#a);opacity:.7;fill-opacity:1"/><path stroke="#000" d="M485 180h112a8 8 0 0 1 8 8v24a8 8 0 0 1-8 8H485a8 8 0 0 1-8-8v-24a8 8 0 0 1 8-8" style="filter:url(#a);opacity:.7;fill-opacity:1"/><path stroke="#000" d="M481 176h112a8 8 0 0 1 8 8v24a8 8 0 0 1-8 8H481a8 8 0 0 1-8-8v-24a8 8 0 0 1 8-8" style="filter:url(#a);opacity:.7;fill-opacity:1"/><path fill="pink" stroke="#000" d="M72 30h112a8 8 0 0 1 8 8v24a8 8 0 0 1-8 8H72a8 8 0 0 1-8-8V38a8 8 0 0 1 8-8"/><text x="128" y="57" font-family="sans-serif" font-size="14" text-anchor="middle" textLength="28">role</text><path fill="#FF0" stroke="#000" d="M72 240h112a8 8 0 0 1 8 8v24a8 8 0 0 1-8 8H72a8 8 0 0 1-8-8v-24a8 8 0 0 1 8-8"/><text x="128.5" y="267" font-family="sans-serif" font-size="14" text-anchor="middle" textLength="77">clusterrole</text><path fill="orange" stroke="#000" d="M275 30h112a8 8 0 0 1 8 8v24a8 8 0 0 1-8 8H275a8 8 0 0 1-8-8V38a8 8 0 0 1 8-8"/><text x="331" y="58" font-family="sans-serif" font-size="14" text-anchor="middle" textLength="82">rolebinding</text><path fill="#5ABDF9" stroke="#000" d="M264 240h134a8 8 0 0 1 8 8v24a8 8 0 0 1-8 8H264a8 8 0 0 1-8-8v-24a8 8 0 0 1 8-8"/><text x="331.5" y="268" font-family="sans-serif" font-size="14" text-anchor="middle" textLength="131">clusterrolebinding</text><path fill="#FFF" stroke="#000" d="M486 38h112a8 8 0 0 1 8 8v24a8 8 0 0 1-8 8H486a8 8 0 0 1-8-8V46a8 8 0 0 1 8-8"/><path fill="#FFF" stroke="#000" d="M482 34h112a8 8 0 0 1 8 8v24a8 8 0 0 1-8 8H482a8 8 0 0 1-8-8V42a8 8 0 0 1 8-8"/><path fill="#FFF" stroke="#000" d="M478 30h112a8 8 0 0 1 8 8v24a8 8 0 0 1-8 8H478a8 8 0 0 1-8-8V38a8 8 0 0 1 8-8"/><text x="534" y="57" font-family="sans-serif" font-size="14" text-anchor="middle" textLength="34">User</text><path fill="#FFF" stroke="#000" d="M486 108h112a8 8 0 0 1 8 8v24a8 8 0 0 1-8 8H486a8 8 0 0 1-8-8v-24a8 8 0 0 1 8-8"/><path fill="#FFF" stroke="#000" d="M482 104h112a8 8 0 0 1 8 8v24a8 8 0 0 1-8 8H482a8 8 0 0 1-8-8v-24a8 8 0 0 1 8-8"/><path fill="#FFF" stroke="#000" d="M478 100h112a8 8 0 0 1 8 8v24a8 8 0 0 1-8 8H478a8 8 0 0 1-8-8v-24a8 8 0 0 1 8-8"/><text x="534" y="128" font-family="sans-serif" font-size="14" text-anchor="middle" textLength="44">Group</text><path fill="#FFF" stroke="#000" d="M486 178h112a8 8 0 0 1 8 8v24a8 8 0 0 1-8 8H486a8 8 0 0 1-8-8v-24a8 8 0 0 1 8-8"/><path fill="#FFF" stroke="#000" d="M482 174h112a8 8 0 0 1 8 8v24a8 8 0 0 1-8 8H482a8 8 0 0 1-8-8v-24a8 8 0 0 1 8-8"/><path fill="#FFF" stroke="#000" d="M478 170h112a8 8 0 0 1 8 8v24a8 8 0 0 1-8 8H478a8 8 0 0 1-8-8v-24a8 8 0 0 1 8-8"/><text x="534.5" y="197" font-family="sans-serif" font-size="14" text-anchor="middle" textLength="111">ServiceAccount</text><path fill="none" stroke="orange" stroke-width="3" d="M192 50h67"/><path fill="orange" stroke="orange" d="m266 50-7-4v8z"/><path fill="none" stroke="orange" stroke-width="3" d="M403 50h67"/><path fill="orange" stroke="orange" d="m396 50 7-4v8z"/><path fill="none" stroke="orange" stroke-width="3" d="M403 50h35M438 50v70M438 120h12"/><path fill="none" stroke="orange" d="M450 120a4 4 0 0 1 8 0"/><path fill="none" stroke="orange" stroke-width="3" d="M458 120h12"/><path fill="orange" stroke="orange" d="m396 50 7-4v8z"/><path fill="none" stroke="orange" stroke-width="3" d="M403 50h35M438 50v140M438 190h12"/><path fill="none" stroke="orange" d="M450 190a4 4 0 0 1 8 0"/><path fill="none" stroke="orange" stroke-width="3" d="M458 190h12"/><path fill="orange" stroke="orange" d="m396 50 7-4v8z"/><path fill="none" stroke="#5ABDF9" stroke-width="3" d="M414 260h40M454 260V50M454 50h16"/><path fill="#5ABDF9" stroke="#5ABDF9" d="m407 260 7-4v8z"/><path fill="none" stroke="#5ABDF9" stroke-width="3" d="M414 260h40M454 260V120M454 120h16"/><path fill="#5ABDF9" stroke="#5ABDF9" d="m407 260 7-4v8z"/><path fill="none" stroke="#5ABDF9" stroke-width="3" d="M414 260h40M454 260v-70M454 190h16"/><path fill="#5ABDF9" stroke="#5ABDF9" d="m407 260 7-4v8z"/><path fill="none" stroke="#5ABDF9" stroke-width="3" d="M192 260h56"/><path fill="#5ABDF9" stroke="#5ABDF9" d="m255 260-7-4v8z"/><path fill="none" stroke="orange" stroke-width="3" d="M192 260h48M240 260V50M240 50h19"/><path fill="orange" stroke="orange" d="m266 50-7-4v8z"/></svg>