<svg xmlns="http://www.w3.org/2000/svg" width="620" height="622" preserveAspectRatio="none" style="width:620px;height:622px;background:#fff"><defs><filter id="a" width="300%" height="300%" x="-1" y="-1"><feGaussianBlur result="blurOut" stdDeviation="2"/><feColorMatrix in="blurOut" result="blurOut2" values="0 0 0 0 0 0 0 0 0 0 0 0 0 0 0 0 0 0 .4 0"/><feOffset dx="4" dy="4" in="blurOut2" result="blurOut3"/><feBlend in="SourceGraphic" in2="blurOut3"/></filter></defs><text x="548" y="19.282" fill="#888" font-family="sans-serif" font-size="10" textLength="52">made by x</text><text x="245.5" y="45.636" font-family="sans-serif" font-size="14" font-weight="bold" textLength="119">copy 还是 move</text><rect width="57" height="40.297" x="10" y="258.977" fill="#A8EB99" filter="url(#a)" rx="7.5" ry="7.5" style="stroke:#000;stroke-width:1"/><text x="22" y="283.972" font-family="sans-serif" font-size="14" textLength="33">copy</text><rect width="80" height="40.297" x="117" y="69.938" fill="#FBE972" filter="url(#a)" rx="7.5" ry="7.5" style="stroke:#000;stroke-width:1"/><text x="129" y="94.933" font-family="sans-serif" font-size="14" textLength="56">整数类型</text><path fill="none" d="M67 279.125h10c15 0 15-189.04 30-189.04h10" style="stroke:green;stroke-width:1;stroke-dasharray:5,5"/><rect width="80" height="40.297" x="117" y="130.234" fill="#FBE972" filter="url(#a)" rx="7.5" ry="7.5" style="stroke:#000;stroke-width:1"/><text x="129" y="155.23" font-family="sans-serif" font-size="14" textLength="56">布尔类型</text><path fill="none" d="M67 279.125h10c15 0 15-128.742 30-128.742h10" style="stroke:green;stroke-width:1;stroke-dasharray:5,5"/><rect width="94" height="40.297" x="117" y="190.531" fill="#FBE972" filter="url(#a)" rx="7.5" ry="7.5" style="stroke:#000;stroke-width:1"/><text x="129" y="215.526" font-family="sans-serif" font-size="14" textLength="70">浮点数类型</text><path fill="none" d="M67 279.125h10c15 0 15-68.445 30-68.445h10" style="stroke:green;stroke-width:1;stroke-dasharray:5,5"/><rect width="110" height="40.297" x="117" y="250.828" fill="#FBE972" filter="url(#a)" rx="7.5" ry="7.5" style="stroke:#000;stroke-width:1"/><text x="129" y="275.823" font-family="sans-serif" font-size="14" textLength="86">字符类型char</text><path fill="none" d="M67 279.125h10c15 0 15-8.148 30-8.148h10" style="stroke:green;stroke-width:1;stroke-dasharray:5,5"/><rect width="227" height="40.297" x="117" y="311.125" fill="#FBE972" filter="url(#a)" rx="7.5" ry="7.5" style="stroke:#000;stroke-width:1"/><text x="129" y="336.12" font-family="sans-serif" font-size="14" textLength="203">由以上类型组成的元组类型tuple</text><path fill="none" d="M67 279.125h10c15 0 15 52.148 30 52.148h10" style="stroke:green;stroke-width:1;stroke-dasharray:5,5"/><rect width="225" height="40.297" x="117" y="371.422" fill="#FBE972" filter="url(#a)" rx="7.5" ry="7.5" style="stroke:#000;stroke-width:1"/><text x="129" y="396.417" font-family="sans-serif" font-size="14" textLength="201">由以上类型组成的数组类型array</text><path fill="none" d="M67 279.125h10c15 0 15 112.445 30 112.445h10" style="stroke:green;stroke-width:1;stroke-dasharray:5,5"/><rect width="134" height="40.297" x="117" y="439.867" fill="#FBC" filter="url(#a)" rx="7.5" ry="7.5" style="stroke:#000;stroke-width:1"/><text x="129" y="464.862" font-family="sans-serif" font-size="14" textLength="110">不可变借用类型&amp;</text><rect width="300" height="56.594" x="301" y="431.719" fill="#FBC" filter="url(#a)" rx="7.5" ry="7.5" style="stroke:#000;stroke-width:1"/><text x="365" y="456.714" font-family="sans-serif" font-size="14" textLength="172">这个很好理解,既然是不可变</text><text x="313" y="473.011" font-family="sans-serif" font-size="14" textLength="276">就是对原数据只读,多几个变量只读它完全OK</text><path fill="none" d="M251 460.016h50" style="stroke:red;stroke-width:1;stroke-dasharray:5,5"/><path fill="none" d="M67 279.125h10c15 0 15 180.89 30 180.89h10" style="stroke:green;stroke-width:1;stroke-dasharray:5,5"/><rect width="62" height="40.297" x="10" y="524.609" fill="#E0FFFF" filter="url(#a)" rx="7.5" ry="7.5" style="stroke:#000;stroke-width:1"/><text x="22" y="549.605" font-family="sans-serif" font-size="14" textLength="38">move</text><rect width="215" height="72.891" x="122" y="508.313" fill="#E0FFFF" filter="url(#a)" rx="7.5" ry="7.5" style="stroke:#000;stroke-width:1"/><text x="164.5" y="533.308" font-family="sans-serif" font-size="14" textLength="130">除上面外的其他类型,</text><text x="169" y="549.605" font-family="sans-serif" font-size="14" textLength="121">注意默认就是Move</text><text x="134" y="565.901" font-family="sans-serif" font-size="14" textLength="161">上面是因为自动实现Copy</text><text x="295" y="565.901" font-family="sans-serif" font-size="14" textLength="4"> </text><text x="299" y="565.901" font-family="sans-serif" font-size="14" textLength="26">trait</text><path fill="none" d="M72 544.758h50" style="stroke:green;stroke-width:1;stroke-dasharray:5,5"/><text x="291.5" y="605.198" font-family="sans-serif" font-size="14" textLength="27">图 4</text></svg>