<svg xmlns="http://www.w3.org/2000/svg" width="731.066" height="617.512"><defs><style>@font-face{font-family:&quot;Virgil&quot;;src:url(https://unpkg.com/@excalidraw/excalidraw@undefined/dist/excalidraw-assets/Virgil.woff2)}@font-face{font-family:&quot;Cascadia&quot;;src:url(https://unpkg.com/@excalidraw/excalidraw@undefined/dist/excalidraw-assets/Cascadia.woff2)}@font-face{font-family:&quot;Assistant&quot;;src:url(https://unpkg.com/@excalidraw/excalidraw@undefined/dist/excalidraw-assets/Assistant-Regular.woff2)}</style></defs><path fill="#fff" d="M0 0h731.066v617.512H0z"/><g stroke-linecap="round"><path stroke-width="0" d="M166.794 53.311h162.15v554.2h-162.15"/><path fill="none" stroke="#000" d="M166.794 53.311h162.15m-162.15 0h162.15m0 0v554.2m0-554.2v554.2m0 0h-162.15m162.15 0h-162.15m0 0v-554.2m0 554.2v-554.2"/></g><g stroke-linecap="round"><path fill="#fff" stroke-width="0" d="M162.792 45.911h162.39v405.97h-162.39"/><path fill="none" stroke="#000" d="M162.792 45.911h162.39m-162.39 0h162.39m0 0v405.97m0-405.97v405.97m0 0h-162.39m162.39 0h-162.39m0 0V45.911m0 405.97V45.911"/></g><g stroke-linecap="round"><path fill="#FFF" stroke-width="0" d="M162.682 400.798h163v51h-163"/><path fill="none" stroke="#000" d="M162.682 400.798h163m-163 0h163m0 0v51m0-51v51m0 0h-163m163 0h-163m0 0v-51m0 51v-51"/></g><text x="70.238" fill="#0b7285" dominant-baseline="text-before-edge" font-family="Helvetica, Segoe UI Emoji" font-size="16" style="white-space:pre" text-anchor="middle" transform="translate(173.944 405.798)">add调用者(main)的 </text><text x="70.238" y="20.5" fill="#0b7285" dominant-baseline="text-before-edge" font-family="Helvetica, Segoe UI Emoji" font-size="16" style="white-space:pre" text-anchor="middle" transform="translate(173.944 405.798)">bp</text><g stroke-linecap="round"><path fill="#FFF" stroke-width="0" d="M162.682 350.051h163v51h-163"/><path fill="none" stroke="#000" d="M162.682 350.051h163m-163 0h163m0 0v51m0-51v51m0 0h-163m163 0h-163m0 0v-51m0 51v-51"/></g><text x="48.916" fill="#0b7285" dominant-baseline="text-before-edge" font-family="Helvetica, Segoe UI Emoji" font-size="20" style="white-space:pre" text-anchor="middle" transform="translate(195.266 364.051)">return addr</text><g stroke-linecap="round"><path fill="#FFF" stroke-width="0" d="M162.682 299.305h163v51h-163"/><path fill="none" stroke="#000" d="M162.682 299.305h163m-163 0h163m0 0v51m0-51v51m0 0h-163m163 0h-163m0 0v-51m0 51v-51"/></g><text x="5.562" fill="#0b7285" dominant-baseline="text-before-edge" font-family="Helvetica, Segoe UI Emoji" font-size="20" style="white-space:pre" text-anchor="middle" transform="translate(238.62 313.305)">1</text><g stroke-linecap="round"><path fill="#FFF" stroke-width="0" d="M162.682 248.558h163v51h-163"/><path fill="none" stroke="#000" d="M162.682 248.558h163m-163 0h163m0 0v51m0-51v51m0 0h-163m163 0h-163m0 0v-51m0 51v-51"/></g><text x="5.562" fill="#0b7285" dominant-baseline="text-before-edge" font-family="Helvetica, Segoe UI Emoji" font-size="20" style="white-space:pre" text-anchor="middle" transform="translate(238.62 262.558)">2</text><g stroke-linecap="round"><path fill="#FFF" stroke-width="0" d="M162.682 197.812h163v51h-163"/><path fill="none" stroke="#000" d="M162.682 197.812h163m-163 0h163m0 0v51m0-51v51m0 0h-163m163 0h-163m0 0v-51m0 51v-51"/></g><text x="5.562" fill="#0b7285" dominant-baseline="text-before-edge" font-family="Helvetica, Segoe UI Emoji" font-size="20" style="white-space:pre" text-anchor="middle" transform="translate(238.62 211.812)">0</text><g stroke-linecap="round"><path fill="#FFF" stroke-width="0" d="M162.682 147.066h163v51h-163"/><path fill="none" stroke="#000" d="M162.682 147.066h163m-163 0h163m0 0v51m0-51v51m0 0h-163m163 0h-163m0 0v-51m0 51v-51"/></g><text x="5.562" fill="#0b7285" dominant-baseline="text-before-edge" font-family="Helvetica, Segoe UI Emoji" font-size="20" style="white-space:pre" text-anchor="middle" transform="translate(238.62 161.066)">2</text><g stroke-linecap="round"><path fill="#FFF" stroke-width="0" d="M162.682 96.32h163v51h-163"/><path fill="none" stroke="#000" d="M162.682 96.32h163m-163 0h163m0 0v51m0-51v51m0 0h-163m163 0h-163m0 0v-51m0 51v-51"/></g><text x="5.562" fill="#0b7285" dominant-baseline="text-before-edge" font-family="Helvetica, Segoe UI Emoji" font-size="20" style="white-space:pre" text-anchor="middle" transform="translate(238.62 110.32)">1</text><g stroke-linecap="round"><path fill="#FFF" stroke-width="0" d="M162.107 40.545h164v56h-164"/><path fill="none" stroke="#000" d="M162.107 40.545h164m-164 0h164m0 0v56m0-56v56m0 0h-164m164 0h-164m0 0v-56m0 56v-56"/></g><text x="70.234" fill="#0b7285" dominant-baseline="text-before-edge" font-family="Helvetica, Segoe UI Emoji" font-size="16" style="white-space:pre" text-anchor="middle" transform="translate(173.872 57.045)">main的调用者的 BP</text><text dominant-baseline="text-before-edge" font-family="Helvetica, Segoe UI Emoji" font-size="20" style="white-space:pre" transform="translate(229.79 10)">栈</text><text fill="#0b7285" dominant-baseline="text-before-edge" font-family="Helvetica, Segoe UI Emoji" font-size="20" style="white-space:pre" transform="translate(352.574 215.32)">r</text><text fill="#0b7285" dominant-baseline="text-before-edge" font-family="Helvetica, Segoe UI Emoji" font-size="20" style="white-space:pre" transform="translate(349.663 164.224)">b</text><text fill="#0b7285" dominant-baseline="text-before-edge" font-family="Helvetica, Segoe UI Emoji" font-size="20" style="white-space:pre" transform="translate(347.47 115.957)">a</text><g stroke-linecap="round"><path fill="#FFF" stroke-width="0" d="M162.623 452.133h163v51h-163"/><path fill="none" stroke="#000" d="M162.623 452.133h163m-163 0h163m0 0v51m0-51v51m0 0h-163m163 0h-163m0 0v-51m0 51v-51"/></g><text x="5.562" fill="#0b7285" dominant-baseline="text-before-edge" font-family="Helvetica, Segoe UI Emoji" font-size="20" style="white-space:pre" text-anchor="middle" transform="translate(238.561 466.133)">3</text><g stroke-linecap="round"><path fill="#FFF" stroke-width="0" d="M162.999 502.609h163v51h-163"/><path fill="none" stroke="#000" d="M162.999 502.609h163m-163 0h163m0 0v51m0-51v51m0 0h-163m163 0h-163m0 0v-51m0 51v-51"/></g><text x="5.562" fill="#0b7285" dominant-baseline="text-before-edge" font-family="Helvetica, Segoe UI Emoji" font-size="20" style="white-space:pre" text-anchor="middle" transform="translate(238.937 516.609)">6</text><g stroke-linecap="round"><path fill="#FFF" stroke-width="0" d="M162.85 553.475h163v51h-163"/><path fill="none" stroke="#000" d="M162.85 553.475h163m-163 0h163m0 0v51m0-51v51m0 0h-163m163 0h-163m0 0v-51m0 51v-51"/></g><text fill="#0b7285" dominant-baseline="text-before-edge" font-family="Helvetica, Segoe UI Emoji" font-size="16" style="white-space:pre" transform="translate(105.7 341.225)">sp+32</text><text fill="#0b7285" dominant-baseline="text-before-edge" font-family="Helvetica, Segoe UI Emoji" font-size="20" style="white-space:pre" transform="translate(351.68 310.96)">c</text><text fill="#0b7285" dominant-baseline="text-before-edge" font-family="Helvetica, Segoe UI Emoji" font-size="20" style="white-space:pre" transform="translate(350.514 267.543)">d</text><text fill="#0b7285" dominant-baseline="text-before-edge" font-family="Helvetica, Segoe UI Emoji" font-size="16" style="white-space:pre" transform="translate(107.782 290.299)">sp+40</text><text fill="#0b7285" dominant-baseline="text-before-edge" font-family="Helvetica, Segoe UI Emoji" font-size="20" style="white-space:pre" transform="translate(348.396 520.27)">sum</text><g stroke-linecap="round"><path fill="#FFF" stroke-width="0" d="M558.066 81.08h163v51h-163"/><path fill="none" stroke="#000" d="M558.066 81.08h163m-163 0h163m0 0v51m0-51v51m0 0h-163m163 0h-163m0 0v-51m0 51v-51"/></g><text x="5.562" fill="#0b7285" dominant-baseline="text-before-edge" font-family="Helvetica, Segoe UI Emoji" font-size="20" style="white-space:pre" text-anchor="middle" transform="translate(634.005 95.08)">2</text><g stroke-linecap="round"><path fill="#FFF" stroke-width="0" d="M558.066 30.333h163v51h-163"/><path fill="none" stroke="#000" d="M558.066 30.333h163m-163 0h163m0 0v51m0-51v51m0 0h-163m163 0h-163m0 0v-51m0 51v-51"/></g><text x="5.562" fill="#0b7285" dominant-baseline="text-before-edge" font-family="Helvetica, Segoe UI Emoji" font-size="20" style="white-space:pre" text-anchor="middle" transform="translate(634.005 44.333)">6</text><text fill="#0b7285" dominant-baseline="text-before-edge" font-family="Helvetica, Segoe UI Emoji" font-size="20" style="white-space:pre" transform="translate(498.272 43.654)">AX</text><text fill="#0b7285" dominant-baseline="text-before-edge" font-family="Helvetica, Segoe UI Emoji" font-size="20" style="white-space:pre" transform="translate(500.977 94.468)">BX</text><path fill="#0b7285" d="m81.487 403.441-1.07.43q-1.07.42-2.1 1.1-1.04.67-2.22 1.65-1.19.99-1.91 1.79-.71.79-1.58 1.81-.86 1.01-1.72 2.35-.87 1.34-1.39 2.54t-.82 2.69q-.31 1.48-.33 2.78-.02 1.31-.03 2.74t-.01 2.88v2.71l.02 2.39q.01 1.13.25 2.94t.49 3.63q.26 1.83.4 3.41.15 1.59.16 3.09.02 1.51.01 3.01l-.02 3-.02 3.02q-.01 1.51-.22 3.12-.22 1.61-.7 2.75-.49 1.14-1.16 2.54-.68 1.4-1.34 2.53t-1.48 2.32-1.67 2.17q-.86.99-1.92 1.85t-2.07 1.27q-1.01.42-2.17.59t-1.41.18-.68-.04q-.43-.04-.84-.19t-.77-.4q-.36-.24-.65-.56t-.5-.7q-.21-.39-.32-.81t-.11-.85q-.01-.43.09-.86.1-.42.3-.81.2-.38.48-.71t.64-.58q.35-.25.76-.41.4-.16.83-.22t1.93.23q1.49.28 2.48 1.03.99.76 1.83 1.44.84.69 1.69 1.63.86.93 1.49 1.79t1.13 1.89.99 2.01q.5.97 1.1 2.5.6 1.52.89 2.57.29 1.06.52 2.64.23 1.59.37 3.21t.13 2.97q0 1.35-.02 2.83t-.05 3.06q-.02 1.58-.02 3.33 0 1.76-.01 3.06-.01 1.31-.01 2.64-.01 1.33-.01 2.56v2.55l-.02 2.74-.02 2.92-.02 3.1q-.02 1.6-.02 3.03-.01 1.42.01 3.09.01 1.67.03 3.05.02 1.39.24 2.76.21 1.38.61 3.04.41 1.66.72 2.96t.59 2.36.69 2.55q.41 1.5.87 2.77.45 1.27 1.2 2.56.74 1.28 1.59 1.95t2.09 1.05q1.25.39 5.05 1.69 3.8 1.31 3.99 1.88.19.58.19 1.19t-.2 1.19q-.2.57-.57 1.05-.38.49-.88.83-.51.33-1.1.49t-1.19.12q-.61-.03-1.18-.26-.56-.23-1.02-.63-.45-.4-.76-.92-.31-.53-.44-1.12-.13-.6-.06-1.2.07-.61.33-1.16t.69-.99q.41-.44.95-.72t1.14-.38q.6-.09 1.2.01.6.11 1.14.39.54.29.95.74.42.44.67 1 .25.55.31 1.16t-.07 1.2q-.14.59-.46 1.11-.31.52-.78.91-.47.4-1.04.62-.56.22-1.17.25-.61.02-1.2-.14-.58-.17-1.08-.52-.51-.34-.86-.83-.37-.49-.36-.49l-.86.72q-.85.71-2.04.44-1.2-.27-2.29-.7t-2.49-1.3-2.16-1.69-1.37-1.72-1.25-2.15q-.63-1.25-1.16-2.72-.52-1.46-.93-2.84-.4-1.38-.73-2.77-.33-1.38-.72-2.8t-.65-2.71q-.25-1.29-.51-2.4-.26-1.1-.44-2.77-.19-1.67-.17-3.06.02-1.38.04-3.05.01-1.67.01-3.09 0-1.43-.02-3.03-.02-1.61-.03-3.1l-.02-2.92q-.01-1.43-.01-2.74v-2.55q0-1.23-.01-2.56t-.01-2.64q-.01-1.3-.01-2.5l-.02-2.53q0-1.34-.02-2.73l-.04-2.8q-.03-1.41-.08-2.88-.05-1.46-.29-3.16-.24-1.69-.56-2.84-.32-1.14-.8-2.22-.47-1.08-1.17-2.46-.71-1.38-1.51-2.34-.81-.97-1.58-1.77-.76-.81-1.19-.86-.43-.04-.84-.19t-.77-.39q-.36-.25-.65-.57t-.5-.7-.32-.81q-.11-.42-.11-.85-.01-.43.09-.86.1-.42.3-.81.2-.38.48-.71t.64-.58q.35-.25.76-.41.4-.16.83-.22t.71-.05q.27.01 1.26-.45.98-.46 1.64-1.41.67-.95 1.55-2.29.89-1.34 1.47-2.6.59-1.25.96-2.56.37-1.32.36-2.82-.01-1.51-.03-3.01-.01-1.5-.03-2.97-.01-1.47-.04-2.76t-.14-2.46q-.12-1.18-.25-2.36-.14-1.19-.24-2.25t-.21-2.29q-.12-1.23-.2-2.63-.08-1.41-.07-2.49t.02-2.46v-2.78q.01-1.39.01-2.81.01-1.42.11-2.75.1-1.32.3-2.43.21-1.12.81-2.66t1.26-2.75q.66-1.22 1.41-2.29.75-1.08 1.71-2.21.96-1.12 1.99-2.18 1.03-1.05 2.1-1.89 1.06-.84 2.05-1.47.98-.62 2.6-1.43 1.62-.82 2.71-1.22 1.08-.39 1.4-.47.31-.08.63-.08.31 0 .63.08.31.07.59.22.29.15.53.37.24.21.43.47.18.27.29.57.12.3.16.62t0 .63q-.04.32-.15.62-.12.3-.3.57-.18.26-.42.48-.24.21-.53.36z"/><text fill="#0b7285" dominant-baseline="text-before-edge" font-family="Helvetica, Segoe UI Emoji" font-size="16" style="white-space:pre" transform="translate(10 459.804)">add</text><text fill="#0b7285" dominant-baseline="text-before-edge" font-family="Helvetica, Segoe UI Emoji" font-size="16" style="white-space:pre" transform="translate(127.378 543.84)">SP</text><text fill="#0b7285" dominant-baseline="text-before-edge" font-family="Helvetica, Segoe UI Emoji" font-size="16" style="white-space:pre" transform="translate(110.7 493.33)">SP+8</text><text fill="#0b7285" dominant-baseline="text-before-edge" font-family="Helvetica, Segoe UI Emoji" font-size="16" style="white-space:pre" transform="translate(103.616 442.615)">SP+16</text><text fill="#0b7285" dominant-baseline="text-before-edge" font-family="Helvetica, Segoe UI Emoji" font-size="16" style="white-space:pre" transform="translate(347.879 470.488)">add_local_arg</text></svg>