<svg xmlns="http://www.w3.org/2000/svg" width="1375.337" height="1855.266"><defs><style>@font-face{font-family:&quot;Virgil&quot;;src:url(https://unpkg.com/@excalidraw/excalidraw@undefined/dist/excalidraw-assets/Virgil.woff2)}@font-face{font-family:&quot;Cascadia&quot;;src:url(https://unpkg.com/@excalidraw/excalidraw@undefined/dist/excalidraw-assets/Cascadia.woff2)}@font-face{font-family:&quot;Assistant&quot;;src:url(https://unpkg.com/@excalidraw/excalidraw@undefined/dist/excalidraw-assets/Assistant-Regular.woff2)}</style></defs><path fill="#fff" d="M0 0h1375.337v1855.266H0z"/><text fill="#343a40" dominant-baseline="text-before-edge" font-family="Helvetica, Segoe UI Emoji" font-size="16" style="white-space:pre" transform="translate(373.978 15.106)">客户端</text><text fill="#343a40" dominant-baseline="text-before-edge" font-family="Helvetica, Segoe UI Emoji" font-size="16" style="white-space:pre" transform="translate(772.963 10)">服务端</text><g stroke-linecap="round" mask="url(#mask-Bip2CxW6WynAZ8ss3-9vd)"><path fill="none" stroke="#343a40" d="M412.292 95.609c117.18 22.58 236.23 43.54 351.34 63.89m-351.34-63.89c121.95 20.42 244.86 42.2 351.34 63.89"/><path fill="#343a40" fill-rule="evenodd" stroke-width="0" d="m762.972 161.399-14.23 3.55 2.1-15.54 12.29 8.44"/><path fill="none" stroke="#343a40" d="M763.632 159.499c-6.01 2.66-9.48 3.32-14.56 3.61m14.56-3.61c-5.8 1.26-10.4 1.93-14.56 3.61m0 0c-.42-3.46 1.17-7.19 2.44-12.44m-2.44 12.44c.96-2.21 1.77-5.95 2.44-12.44m0 0c4.75 1.59 6.69 5.09 12.12 8.83m-12.12-8.83c4.4 4.05 8.87 6.99 12.12 8.83m0 0q0 0 0 0m0 0q0 0 0 0"/></g><mask id="mask-Bip2CxW6WynAZ8ss3-9vd"><path fill="#fff" d="M0 0h863.634v259.497H0z"/><path d="M507.467 109.053h160.992v37H507.467z"/></mask><text x="80.496" fill="#343a40" dominant-baseline="text-before-edge" font-family="Helvetica, Segoe UI Emoji" font-size="16" style="white-space:pre" text-anchor="middle" transform="translate(507.467 109.053)">SYN + 1000(0)</text><text x="80.496" y="18.5" fill="#343a40" dominant-baseline="text-before-edge" font-family="Helvetica, Segoe UI Emoji" font-size="16" style="white-space:pre" text-anchor="middle" transform="translate(507.467 109.053)">win 4096 &lt;mss 1460&gt; </text><text fill="#343a40" dominant-baseline="text-before-edge" font-family="Helvetica, Segoe UI Emoji" font-size="12.688" style="white-space:pre" transform="translate(10 41.43)">1000: 32位随机 序列号</text><text y="18" fill="#343a40" dominant-baseline="text-before-edge" font-family="Helvetica, Segoe UI Emoji" font-size="12.688" style="white-space:pre" transform="translate(10 41.43)">(0) 携带的数据字节长度,</text><text y="36" fill="#343a40" dominant-baseline="text-before-edge" font-family="Helvetica, Segoe UI Emoji" font-size="12.688" style="white-space:pre" transform="translate(10 41.43)">请求连接时一般无需传递数据</text><text y="54" fill="#343a40" dominant-baseline="text-before-edge" font-family="Helvetica, Segoe UI Emoji" font-size="12.688" style="white-space:pre" transform="translate(10 41.43)">0表示不带</text><text y="72" fill="#343a40" dominant-baseline="text-before-edge" font-family="Helvetica, Segoe UI Emoji" font-size="12.688" style="white-space:pre" transform="translate(10 41.43)">win 4096: 告诉对方 我这边读缓冲区大小剩余4096个字节</text><text y="90" fill="#343a40" dominant-baseline="text-before-edge" font-family="Helvetica, Segoe UI Emoji" font-size="12.688" style="white-space:pre" transform="translate(10 41.43)">mss 1460 :告诉对方 我这边一次最大能接收1460个字节的数据</text><text fill="#343a40" dominant-baseline="text-before-edge" font-family="Helvetica, Segoe UI Emoji" font-size="15.105" style="white-space:pre" transform="translate(808.983 106.579)">服务端判断传递过来的SYN标志的值是不是1,</text><text y="20.7" fill="#343a40" dominant-baseline="text-before-edge" font-family="Helvetica, Segoe UI Emoji" font-size="15.105" style="white-space:pre" transform="translate(808.983 106.579)">1表示第一次握手成功,</text><text y="41.4" fill="#343a40" dominant-baseline="text-before-edge" font-family="Helvetica, Segoe UI Emoji" font-size="15.105" style="white-space:pre" transform="translate(808.983 106.579)">0表示握手失败</text><text y="62.1" fill="#343a40" dominant-baseline="text-before-edge" font-family="Helvetica, Segoe UI Emoji" font-size="15.105" style="white-space:pre" transform="translate(808.983 106.579)">1001: 是客户端发来的1000+1的结果</text><text y="82.8" fill="#343a40" dominant-baseline="text-before-edge" font-family="Helvetica, Segoe UI Emoji" font-size="15.105" style="white-space:pre" transform="translate(808.983 106.579)">返回给客户端是让客户端判断</text><text y="103.5" fill="#343a40" dominant-baseline="text-before-edge" font-family="Helvetica, Segoe UI Emoji" font-size="15.105" style="white-space:pre" transform="translate(808.983 106.579)">我们这边是否接收数据成功</text><text y="124.2" fill="#343a40" dominant-baseline="text-before-edge" font-family="Helvetica, Segoe UI Emoji" font-size="15.105" style="white-space:pre" transform="translate(808.983 106.579)">10000: 32位序列号</text><text y="144.9" fill="#343a40" dominant-baseline="text-before-edge" font-family="Helvetica, Segoe UI Emoji" font-size="15.105" style="white-space:pre" transform="translate(808.983 106.579)">win 6144 告知对方,这边读缓冲区剩余6k字节数</text><text y="165.6" fill="#343a40" dominant-baseline="text-before-edge" font-family="Helvetica, Segoe UI Emoji" font-size="15.105" style="white-space:pre" transform="translate(808.983 106.579)">mss 1024告知对方这边一次最大能接收1k字节数</text><g stroke-linecap="round" mask="url(#mask-kQBr1i0BX8heJiKLZeBHp)"><path fill="none" stroke="#343a40" d="M758.333 169.924c-105.01 38.19-211.45 79.02-337.81 130.34m337.81-130.34c-131.89 48.92-263.18 99.09-337.81 130.34"/><path fill="#343a40" fill-rule="evenodd" stroke-width="0" d="m420.853 298.634 7.94-8.01 4.81 9.93-12.79-.52"/><path fill="none" stroke="#343a40" d="M420.523 300.264c2.88-3.84 4.9-7.09 10.23-10.96m-10.23 10.96c4.05-4.21 7.85-8.99 10.23-10.96m0 0c2.41 4.13 1.75 6.12 4.75 11.75m-4.75-11.75c.77 2.86 2.4 7.25 4.75 11.75m0 0c-2.51-1.56-7.36.99-14.98-.79m14.98.79c-3.37-.24-6.64-.72-14.98-.79m0 0q0 0 0 0m0 0q0 0 0 0"/></g><mask id="mask-kQBr1i0BX8heJiKLZeBHp"><path fill="#fff" d="M0 0h1196.145v400.268H0z"/><path d="M493.806 216.596h191.242v37H493.806z"/></mask><text x="95.621" fill="#343a40" dominant-baseline="text-before-edge" font-family="Helvetica, Segoe UI Emoji" font-size="16" style="white-space:pre" text-anchor="middle" transform="translate(493.806 216.596)">ACK + 1001  SYN + 10000</text><text x="95.621" y="18.5" fill="#343a40" dominant-baseline="text-before-edge" font-family="Helvetica, Segoe UI Emoji" font-size="16" style="white-space:pre" text-anchor="middle" transform="translate(493.806 216.596)">win 6144 &lt;mss 1024&gt;</text><text fill="#343a40" dominant-baseline="text-before-edge" font-family="Helvetica, Segoe UI Emoji" font-size="15.222" style="white-space:pre" transform="translate(118.291 300.732)">客户端接收,查看</text><text y="20.727" fill="#343a40" dominant-baseline="text-before-edge" font-family="Helvetica, Segoe UI Emoji" font-size="15.222" style="white-space:pre" transform="translate(118.291 300.732)">1. ACK是否=1</text><text y="41.455" fill="#343a40" dominant-baseline="text-before-edge" font-family="Helvetica, Segoe UI Emoji" font-size="15.222" style="white-space:pre" transform="translate(118.291 300.732)">2. 发来的确认号用来判断服务端</text><text y="62.182" fill="#343a40" dominant-baseline="text-before-edge" font-family="Helvetica, Segoe UI Emoji" font-size="15.222" style="white-space:pre" transform="translate(118.291 300.732)">是否接收到客户端完整的数据.</text><text y="82.909" fill="#343a40" dominant-baseline="text-before-edge" font-family="Helvetica, Segoe UI Emoji" font-size="15.222" style="white-space:pre" transform="translate(118.291 300.732)">这次只有SYN标志,没有发送数据,</text><text y="103.636" fill="#343a40" dominant-baseline="text-before-edge" font-family="Helvetica, Segoe UI Emoji" font-size="15.222" style="white-space:pre" transform="translate(118.291 300.732)">所以值=</text><text y="124.364" fill="#343a40" dominant-baseline="text-before-edge" font-family="Helvetica, Segoe UI Emoji" font-size="15.222" style="white-space:pre" transform="translate(118.291 300.732)">(第一次请求连接发给服务端</text><text y="145.091" fill="#343a40" dominant-baseline="text-before-edge" font-family="Helvetica, Segoe UI Emoji" font-size="15.222" style="white-space:pre" transform="translate(118.291 300.732)">的序列号+1)</text><text y="165.818" fill="#343a40" dominant-baseline="text-before-edge" font-family="Helvetica, Segoe UI Emoji" font-size="15.222" style="white-space:pre" transform="translate(118.291 300.732)">3. SYN是否=1</text><text y="186.545" fill="#343a40" dominant-baseline="text-before-edge" font-family="Helvetica, Segoe UI Emoji" font-size="15.222" style="white-space:pre" transform="translate(118.291 300.732)">然后发送 ACK+确认号</text><g stroke-linecap="round" mask="url(#mask-0AaIbyfjzBHtkJKuaI0nF)"><path fill="none" stroke="#343a40" d="M417.314 308.938c96.04 50.82 192.92 99.61 346.78 177.12m-346.78-177.12c78.18 40.22 156.8 79.4 346.78 177.12"/><path fill="#343a40" fill-rule="evenodd" stroke-width="0" d="m764.384 485.818-15.41.14 6.59-11.47 8.81 10.68"/><path fill="none" stroke="#343a40" d="M764.094 486.058c-5.32-.33-8.39-.83-14.99-.56m14.99.56c-2.98.61-6.06-.61-14.99-.56m0 0c2.61-4.68 2.82-7.73 5.78-11.28m-5.78 11.28c2.05-3.95 4.07-8.87 5.78-11.28m0 0c2.13 4.8 7.39 9.78 9.21 11.84m-9.21-11.84c2.46 3.45 4.56 6.52 9.21 11.84m0 0q0 0 0 0m0 0q0 0 0 0"/></g><mask id="mask-0AaIbyfjzBHtkJKuaI0nF"><path fill="#fff" d="M0 0h864.09v586.056H0z"/><path d="M542.889 378.997h95.625v37h-95.625z"/></mask><text x="47.813" fill="#343a40" dominant-baseline="text-before-edge" font-family="Helvetica, Segoe UI Emoji" font-size="16" style="white-space:pre" text-anchor="middle" transform="translate(542.89 378.997)">ACK + 10001</text><text x="47.813" y="18.5" fill="#343a40" dominant-baseline="text-before-edge" font-family="Helvetica, Segoe UI Emoji" font-size="16" style="white-space:pre" text-anchor="middle" transform="translate(542.89 378.997)">win 4096</text><text fill="#343a40" dominant-baseline="text-before-edge" font-family="Helvetica, Segoe UI Emoji" font-size="16" style="white-space:pre" transform="translate(842.068 494.376)">服务端检查 ACK是否= 1 </text><text y="22.5" fill="#343a40" dominant-baseline="text-before-edge" font-family="Helvetica, Segoe UI Emoji" font-size="16" style="white-space:pre" transform="translate(842.068 494.376)">客户端发来的32位确认号 是否= 之前给客户端发送的32位随机序号+1 </text><text fill="#e67700" dominant-baseline="text-before-edge" font-family="Helvetica, Segoe UI Emoji" font-size="16" style="white-space:pre" transform="translate(855.875 369.88)">确认号= 序列号 + 携带的数据字节数 + 标志位(1)</text><text y="22.5" fill="#e67700" dominant-baseline="text-before-edge" font-family="Helvetica, Segoe UI Emoji" font-size="16" style="white-space:pre" transform="translate(855.875 369.88)">确认号是用来让对方知道我方 接收了多少他们发来的数据</text><g stroke-linecap="round" mask="url(#mask-lj6wOSA6VjpvmOBBViG8r)"><path fill="none" stroke="#343a40" d="M411.965 628.634c90.06 31.1 177.07 61.29 354.51 124.21m-354.51-124.21c100.04 33.63 201.14 69.96 354.51 124.21"/><path fill="#343a40" fill-rule="evenodd" stroke-width="0" d="m765.555 751.834-12.58 3.33 3.59-11.21 10.73 7.66"/><path fill="none" stroke="#343a40" d="M766.475 752.844c-2.31 1.88-8.24 1.11-14.93 1.44m14.93-1.44c-4.89-.03-8.8 1.62-14.93 1.44m0 0c2.06-4.07 2.19-4.73 4.24-11.95m-4.24 11.95c1.04-2.61 2.12-5.59 4.24-11.95m0 0c3.36 2.07 5.97 5.14 10.69 10.51m-10.69-10.51c3.95 3.58 8.24 7.59 10.69 10.51m0 0q0 0 0 0m0 0q0 0 0 0"/></g><mask id="mask-lj6wOSA6VjpvmOBBViG8r"><path fill="#fff" d="M0 0h866.477v852.846H0z"/><path d="M500.486 671.74h177.469v38H500.486z"/></mask><text x="88.734" fill="#343a40" dominant-baseline="text-before-edge" font-family="Helvetica, Segoe UI Emoji" font-size="16" style="white-space:pre" text-anchor="middle" transform="translate(500.486 671.74)">1001(1024), ACK+10001</text><text x="88.734" y="19" fill="#343a40" dominant-baseline="text-before-edge" font-family="Helvetica, Segoe UI Emoji" font-size="16" style="white-space:pre" text-anchor="middle" transform="translate(500.486 671.74)">win 4096</text><text fill="#343a40" dominant-baseline="text-before-edge" font-family="Helvetica, Segoe UI Emoji" font-size="16" style="white-space:pre" transform="translate(551.443 609.866)">发送1024个字节的数据</text><text y="22.5" fill="#343a40" dominant-baseline="text-before-edge" font-family="Helvetica, Segoe UI Emoji" font-size="16" style="white-space:pre" transform="translate(551.443 609.866)">注意传输阶段没有SYN标志</text><g stroke-linecap="round" mask="url(#mask-8VxESv6TJse9JIKpYigRW)"><path fill="none" stroke="#343a40" d="M763.584 769.68c-109.17 4.26-220.81 11.05-343.13 19.33m343.13-19.33c-135.76 9.1-271.43 16.24-343.13 19.33"/><path fill="#343a40" fill-rule="evenodd" stroke-width="0" d="m421.274 787.78 13-6.29-.51 14.52-14.77-5.69"/><path fill="none" stroke="#343a40" d="M420.454 789.01c5.15-3.47 7.46-5.03 13.28-6.98m-13.28 6.98c4.94-2.18 9.87-5.49 13.28-6.98m0 0c-1.07 5.09.53 10.35.6 12.67m-.6-12.67c.13 3.64-.03 6.95.6 12.67m0 0c-2.38-2.04-8.41-3.44-13.88-5.69m13.88 5.69c-3.76-.86-6.76-2.78-13.88-5.69m0 0q0 0 0 0m0 0q0 0 0 0"/></g><mask id="mask-8VxESv6TJse9JIKpYigRW"><path fill="#fff" d="M0 0h1206.712v889.014H0z"/><path d="M514.407 760.347h155.227v38H514.407z"/></mask><text x="77.613" fill="#343a40" dominant-baseline="text-before-edge" font-family="Helvetica, Segoe UI Emoji" font-size="16" style="white-space:pre" text-anchor="middle" transform="translate(514.407 760.347)">10001(10),ACK+2025</text><text x="77.613" y="19" fill="#343a40" dominant-baseline="text-before-edge" font-family="Helvetica, Segoe UI Emoji" font-size="16" style="white-space:pre" text-anchor="middle" transform="translate(514.407 760.347)">win 6144</text><text fill="#343a40" dominant-baseline="text-before-edge" font-family="Helvetica, Segoe UI Emoji" font-size="16" style="white-space:pre" transform="translate(851.593 765.943)">服务端, 返回确认号 2025 表示这边接收到1024个字节</text><text y="22.667" fill="#343a40" dominant-baseline="text-before-edge" font-family="Helvetica, Segoe UI Emoji" font-size="16" style="white-space:pre" transform="translate(851.593 765.943)">10001(20), 表示发送10个字节给客户端</text><text y="45.333" fill="#343a40" dominant-baseline="text-before-edge" font-family="Helvetica, Segoe UI Emoji" font-size="16" style="white-space:pre" transform="translate(851.593 765.943)">这里发送的win还是6144的意思说明 服务端已经从缓冲区读取了数据</text><text fill="#343a40" dominant-baseline="text-before-edge" font-family="Helvetica, Segoe UI Emoji" font-size="16" style="white-space:pre" transform="translate(40.817 783.216)">如果发现确认号小于2025,</text><text y="22.5" fill="#343a40" dominant-baseline="text-before-edge" font-family="Helvetica, Segoe UI Emoji" font-size="16" style="white-space:pre" transform="translate(40.817 783.216)">那么客户端会再发送一次1024个字节的数据</text><g stroke-linecap="round" mask="url(#mask-q7zzBTYvbRQGLGPyyxrdV)"><path fill="none" stroke="#343a40" d="M412.416 1343.5c96.54 27.49 191.04 57.08 381.1 109.88m-381.1-109.88c86.5 27.16 173.32 51.93 381.1 109.88"/><path fill="#343a40" fill-rule="evenodd" stroke-width="0" d="m795.176 1454.01-16.07 3.39 2.36-13.38 13.2 9.6"/><path fill="none" stroke="#343a40" d="M793.516 1453.38c-2.45-.76-7.25 2.6-14.8 2.44m14.8-2.44c-3.34.5-6.56.74-14.8 2.44m0 0c1.35-3.91 2.04-6.97 3.42-12.21m-3.42 12.21c1.16-5.26 2.57-10.21 3.42-12.21m0 0c4.51 1.78 6.75 6.51 11.38 9.77m-11.38-9.77c3.54 2.89 6.67 5.28 11.38 9.77m0 0q0 0 0 0m0 0q0 0 0 0"/></g><mask id="mask-q7zzBTYvbRQGLGPyyxrdV"><path fill="#fff" d="M0 0h893.52v1553.379H0z"/><path d="M523.722 1379.439h158.492v38H523.722z"/></mask><text x="79.246" fill="#343a40" dominant-baseline="text-before-edge" font-family="Helvetica, Segoe UI Emoji" font-size="16" style="white-space:pre" text-anchor="middle" transform="translate(523.722 1379.44)">FIN+5097(1024)</text><text x="79.246" y="19" fill="#343a40" dominant-baseline="text-before-edge" font-family="Helvetica, Segoe UI Emoji" font-size="16" style="white-space:pre" text-anchor="middle" transform="translate(523.722 1379.44)">ACK+10011  win 4096</text><text fill="#343a40" dominant-baseline="text-before-edge" font-family="Helvetica, Segoe UI Emoji" font-size="16" style="white-space:pre" transform="translate(820.021 1430.672)">检测FIN标志位是否为1</text><text y="21.333" fill="#343a40" dominant-baseline="text-before-edge" font-family="Helvetica, Segoe UI Emoji" font-size="16" style="white-space:pre" transform="translate(820.021 1430.672)">然后回一个ack+确认号</text><g stroke-linecap="round" mask="url(#mask-GzugwpEdEisjZyL9ck3HX)"><path fill="none" stroke="#343a40" d="M774.19 1495.222c-141.01 43.3-279 87.62-351.07 111.09m351.07-111.09c-95.1 30.11-190.31 60.03-351.07 111.09"/><path fill="#343a40" fill-rule="evenodd" stroke-width="0" d="m424.27 1606.552 9.62-10.5 5.41 11-14.61 1.14"/><path fill="none" stroke="#343a40" d="M423.12 1606.312c3.02-3.92 9.01-7.66 11.04-10.15m-11.04 10.15c3.03-2.49 5.63-5.37 11.04-10.15m0 0c2.31 2.81 1.37 6.14 3.84 12.08m-3.84-12.08c.24 3.08 1.09 5.13 3.84 12.08m0 0c-4.34-.1-9.16-1.01-14.88-1.93m14.88 1.93c-3.26-.23-7.31-.45-14.88-1.93m0 0q0 0 0 0m0 0q0 0 0 0"/></g><mask id="mask-GzugwpEdEisjZyL9ck3HX"><path fill="#fff" d="M0 0h1225.259v1706.311H0z"/><path d="M557.516 1531.767h82.281v38h-82.281z"/></mask><text x="41.141" fill="#343a40" dominant-baseline="text-before-edge" font-family="Helvetica, Segoe UI Emoji" font-size="16" style="white-space:pre" text-anchor="middle" transform="translate(557.516 1531.767)">ACK+ 6121</text><text x="41.141" y="19" fill="#343a40" dominant-baseline="text-before-edge" font-family="Helvetica, Segoe UI Emoji" font-size="16" style="white-space:pre" text-anchor="middle" transform="translate(557.516 1531.767)">win 6144</text><g stroke-linecap="round" mask="url(#mask-wgoMxuk_6OzjLuCwzrVwI)"><path fill="none" stroke="#343a40" d="M791.78 1608.07c-114.73 39.63-228.93 79.49-375.72 129.61m375.72-129.61c-125.71 44.05-250.78 87.21-375.72 129.61"/><path fill="#343a40" fill-rule="evenodd" stroke-width="0" d="m417.37 1736.49 11.08-7.32 1.32 10.49-14.71-1.25"/><path fill="none" stroke="#343a40" d="M416.06 1737.68c2.84-3.67 6.5-6.34 10.82-10.39m-10.82 10.39c3.41-2.77 7.14-6.25 10.82-10.39m0 0c-.03 3.41 1.07 5.17 4.1 12m-4.1-12c1.48 4.33 2.85 8.94 4.1 12m0 0c-5.65-1.21-10.73.01-14.92-1.61m14.92 1.61c-4.84-.9-10.07-1.2-14.92-1.61m0 0q0 0 0 0m0 0q0 0 0 0"/></g><mask id="mask-wgoMxuk_6OzjLuCwzrVwI"><path fill="#fff" d="M0 0h1267.496v1837.676H0z"/><path d="M560.262 1644.373h87.32v57h-87.32z"/></mask><text x="43.66" fill="#343a40" dominant-baseline="text-before-edge" font-family="Helvetica, Segoe UI Emoji" font-size="16" style="white-space:pre" text-anchor="middle" transform="translate(560.262 1644.373)">FIN+10011  </text><text x="43.66" y="19" fill="#343a40" dominant-baseline="text-before-edge" font-family="Helvetica, Segoe UI Emoji" font-size="16" style="white-space:pre" text-anchor="middle" transform="translate(560.262 1644.373)">ACK+6121</text><text x="43.66" y="38" fill="#343a40" dominant-baseline="text-before-edge" font-family="Helvetica, Segoe UI Emoji" font-size="16" style="white-space:pre" text-anchor="middle" transform="translate(560.262 1644.373)">win 6144</text><path fill="none" stroke="#343a40" stroke-linecap="round" d="M796.614 38.356c.41 138.55.54 277.63.98 517.82m-.98-517.82c-.09 204.35.34 408.87.98 517.82"/><g stroke-linecap="round" mask="url(#mask-n8rP8GDmHLHyEdnZVyffN)"><path fill="none" stroke="#343a40" d="M420.223 848.57c111.56 33.72 223.67 66.94 369.35 109.71m-369.35-109.71c144.34 43.87 289.28 86.85 369.35 109.71"/><path fill="#343a40" fill-rule="evenodd" stroke-width="0" d="m788.563 959.02-12.82 3.12 4.13-15.35 10.39 12.1"/><path fill="none" stroke="#343a40" d="M789.573 958.28c-4.22.12-7.49 1.06-14.82 2.3m14.82-2.3c-6 .19-11.5 1.09-14.82 2.3m0 0c.31-2.24 1.2-4.97 3.53-12.18m-3.53 12.18c1.19-4.22 1.95-8.2 3.53-12.18m0 0c5.45 4.24 7.5 7.7 11.29 9.88m-11.29-9.88c2.5 3.11 6.75 5.55 11.29 9.88m0 0q0 0 0 0m0 0q0 0 0 0"/></g><mask id="mask-n8rP8GDmHLHyEdnZVyffN"><path fill="#fff" d="M0 0h889.572v1058.279H0z"/><path d="M516.753 875.425h176.289v56H516.753z"/></mask><text x="88.145" fill="#343a40" dominant-baseline="text-before-edge" font-family="Helvetica, Segoe UI Emoji" font-size="16" style="white-space:pre" text-anchor="middle" transform="translate(516.753 875.425)">2025(1024), ACK+10011</text><text x="88.145" y="18.667" fill="#343a40" dominant-baseline="text-before-edge" font-family="Helvetica, Segoe UI Emoji" font-size="16" style="white-space:pre" text-anchor="middle" transform="translate(516.753 875.425)">win 4096</text><g stroke-linecap="round" mask="url(#mask-HSTA5wNDsxtGjA4hgZOYc)"><path fill="none" stroke="#343a40" d="M415.51 919.676c101.62 25.68 199.79 51.49 374.49 96.29m-374.49-96.29c80.99 23.14 162.48 43.56 374.49 96.29"/><path fill="#343a40" fill-rule="evenodd" stroke-width="0" d="m791.59 1014.356-15.62 5.07.77-12.57 13.4 10.38"/><path fill="none" stroke="#343a40" d="M790 1015.966c-2.53.23-8.78 1.12-14.72 2.86m14.72-2.86c-3.93.99-7.11.93-14.72 2.86m0 0c1.27-3.44 2.12-7.57 3.06-12.31m-3.06 12.31c1.29-2.85 1.87-5.77 3.06-12.31m0 0c3.51 2.76 8.88 5.31 11.66 9.45m-11.66-9.45c4.49 4.01 8.35 7.02 11.66 9.45m0 0q0 0 0 0m0 0q0 0 0 0"/></g><mask id="mask-HSTA5wNDsxtGjA4hgZOYc"><path fill="#fff" d="M0 0h890.001v1115.961H0z"/><path d="M514.611 939.818H690.9v56H514.611z"/></mask><text x="88.145" fill="#343a40" dominant-baseline="text-before-edge" font-family="Helvetica, Segoe UI Emoji" font-size="16" style="white-space:pre" text-anchor="middle" transform="translate(514.61 939.818)">3049(1024), ACK+10011</text><text x="88.145" y="18.667" fill="#343a40" dominant-baseline="text-before-edge" font-family="Helvetica, Segoe UI Emoji" font-size="16" style="white-space:pre" text-anchor="middle" transform="translate(514.61 939.818)">win 4096</text><g stroke-linecap="round" mask="url(#mask-BZJPEiHgN9es1-5lEyHIt)"><path fill="none" stroke="#343a40" d="M419.373 990.585c97.14 24.04 195.61 45.97 369.42 87.4m-369.42-87.4c134.82 32.48 269.92 64.68 369.42 87.4"/><path fill="#343a40" fill-rule="evenodd" stroke-width="0" d="m787.183 1078.315-12.92 4.05 4.57-14.01 8.98 10.52"/><path fill="none" stroke="#343a40" d="M788.793 1077.985c-5.16 1.03-9.07.15-14.67 3.1m14.67-3.1c-5.29 1.01-10.82 2.41-14.67 3.1m0 0c.38-4.72 1.26-7.35 2.86-12.35m-2.86 12.35c1.2-4.67 2.09-8.7 2.86-12.35m0 0c4.25 3.83 6.95 5.39 11.81 9.25m-11.81-9.25c4.88 3.57 8.82 6.95 11.81 9.25m0 0q0 0 0 0m0 0q0 0 0 0"/></g><mask id="mask-BZJPEiHgN9es1-5lEyHIt"><path fill="#fff" d="M0 0h888.797v1177.98H0z"/><path d="M515.94 1006.282h176.289v56H515.94z"/></mask><text x="88.145" fill="#343a40" dominant-baseline="text-before-edge" font-family="Helvetica, Segoe UI Emoji" font-size="16" style="white-space:pre" text-anchor="middle" transform="translate(515.94 1006.282)">4073(1024), ACK+10011</text><text x="88.145" y="18.667" fill="#343a40" dominant-baseline="text-before-edge" font-family="Helvetica, Segoe UI Emoji" font-size="16" style="white-space:pre" text-anchor="middle" transform="translate(515.94 1006.282)">win 4096</text><path fill="none" stroke="#343a40" stroke-linecap="round" d="M799.475 567.492c-2.1 224.48-3.13 450.6-.95 712.02m.95-712.02c-.32 205.37-.67 410.46-.95 712.02M401.637 43.128c1.19 106.79 1.3 213.3 0 527.5m0-527.5c.78 170.28.54 340.7 0 527.5M401.398 576.223c-1.44 145.69-1.8 291.74-3.11 710.23m3.11-710.23c-.76 222.62-1.26 445.83-3.11 710.23"/><text fill="#343a40" dominant-baseline="text-before-edge" font-family="Helvetica, Segoe UI Emoji" font-size="16" style="white-space:pre" transform="translate(812.337 1075.95)">客户端发来好几次</text><text y="22.667" fill="#343a40" dominant-baseline="text-before-edge" font-family="Helvetica, Segoe UI Emoji" font-size="16" style="white-space:pre" transform="translate(812.337 1075.95)">服务端返回 win 4096 表示 现在我这边缓冲区还有4k, 你不是发来3k的数据了吗</text><text y="45.333" fill="#343a40" dominant-baseline="text-before-edge" font-family="Helvetica, Segoe UI Emoji" font-size="16" style="white-space:pre" transform="translate(812.337 1075.95)">总共6k缓冲, 按理说应该剩余3k才对, 这是因为这边已经处理了1k ,所以空余4k</text><g stroke-linecap="round" mask="url(#mask-3M_pFkmclqG68m8jCSd9M)"><path fill="none" stroke="#343a40" d="M788.64 1103.932c-112.45 12.71-225.81 23.77-383.66 40.08m383.66-40.08c-95.35 11.49-191.09 20.64-383.66 40.08"/><path fill="#343a40" fill-rule="evenodd" stroke-width="0" d="m404.77 1144.262 14.09-9.76.66 15.97-15.92-8.18"/><path fill="none" stroke="#343a40" d="M404.98 1144.012c3.98-2.08 6.89-5.24 12.89-7.67m-12.89 7.67c3.46-1.36 6.69-4.35 12.89-7.67m0 0c1.22 3.21 1.63 9.31 1.27 12.62m-1.27-12.62c.24 4.31 1.23 8.44 1.27 12.62m0 0c-4.94-.15-6.69-3.65-14.16-4.95m14.16 4.95c-4.11-.94-8.39-3.7-14.16-4.95m0 0q0 0 0 0m0 0q0 0 0 0"/></g><mask id="mask-3M_pFkmclqG68m8jCSd9M"><path fill="#fff" d="M0 0h1272.297v1244.014H0z"/><path d="M553.447 1105.473h86.727v37h-86.727z"/></mask><text x="43.363" fill="#343a40" dominant-baseline="text-before-edge" font-family="Helvetica, Segoe UI Emoji" font-size="16" style="white-space:pre" text-anchor="middle" transform="translate(553.447 1105.473)">ACK + 5097</text><text x="43.363" y="18.5" fill="#343a40" dominant-baseline="text-before-edge" font-family="Helvetica, Segoe UI Emoji" font-size="16" style="white-space:pre" text-anchor="middle" transform="translate(553.447 1105.473)">win 4096</text><g stroke-linecap="round" mask="url(#mask-wIPiOxCRY__gXl0qDmFmp)"><path fill="none" stroke="#343a40" d="M787.713 1199.514c-121.26 12.39-240.71 24.61-383.66 40.08m383.66-40.08c-146.05 13.73-292.68 29.56-383.66 40.08"/><path fill="#343a40" fill-rule="evenodd" stroke-width="0" d="m404.423 1241.104 11.05-11.04 2.64 14.27-13.28-6.41"/><path fill="none" stroke="#343a40" d="M404.053 1239.594c3.3-1.33 8.75-4.26 12.8-7.81m-12.8 7.81c5.06-3.11 9.52-5.39 12.8-7.81m0 0c.81 3.09 1.73 5.27 1.42 12.6m-1.42-12.6c.44 4 1.4 7.7 1.42 12.6m0 0c-5.15-2.66-10.25-2.97-14.22-4.79m14.22 4.79c-5.16-1.7-11.4-3.61-14.22-4.79m0 0q0 0 0 0m0 0q0 0 0 0"/></g><mask id="mask-wIPiOxCRY__gXl0qDmFmp"><path fill="#fff" d="M0 0h1271.371v1339.595H0z"/><path d="M552.521 1200.555h86.727v38h-86.727z"/></mask><text x="43.363" fill="#343a40" dominant-baseline="text-before-edge" font-family="Helvetica, Segoe UI Emoji" font-size="16" style="white-space:pre" text-anchor="middle" transform="translate(552.521 1200.555)">ACK + 5097</text><text x="43.363" y="19" fill="#343a40" dominant-baseline="text-before-edge" font-family="Helvetica, Segoe UI Emoji" font-size="16" style="white-space:pre" text-anchor="middle" transform="translate(552.521 1200.555)">win 5120</text><text fill="#343a40" dominant-baseline="text-before-edge" font-family="Helvetica, Segoe UI Emoji" font-size="16" style="white-space:pre" transform="translate(815.852 1197.561)">再返回信息一次给客户端, 说明这次这边又处理了1k数据, 现在缓冲区还有5k</text><path fill="none" stroke="#343a40" stroke-dasharray="8 9" stroke-linecap="round" stroke-width="1.5" d="M268.796 572.31c234.21-1.9 468.42-3.8 690.61-5.6"/><path fill="none" stroke="#343a40" stroke-linecap="round" d="M397.625 1295.17v536.79m0-536.79v536.79M799.16 1291.582c.34 181.13.69 362.25 1.05 553.68m-1.05-553.68c.35 183.66.7 367.31 1.05 553.68"/><path fill="none" stroke="#343a40" stroke-dasharray="8 9" stroke-linecap="round" stroke-width="1.5" d="M333.772 1292.006h584.62"/><text fill="#343a40" dominant-baseline="text-before-edge" font-family="Helvetica, Segoe UI Emoji" font-size="16" style="white-space:pre" transform="translate(211.618 1358.663)">5097(1024)  请求断开时 </text><text y="22.5" fill="#343a40" dominant-baseline="text-before-edge" font-family="Helvetica, Segoe UI Emoji" font-size="16" style="white-space:pre" transform="translate(211.618 1358.663)">也发送了1024个字节数据</text><g stroke-linecap="round" mask="url(#mask-6OlkPn0qiOAab6BIPw8GP)"><path fill="none" stroke="#343a40" d="M417.248 1778.744c143.61 24.49 287.21 48.99 375.39 64.03m-375.39-64.03c117.18 19.99 234.36 39.97 375.39 64.03"/><path fill="#343a40" fill-rule="evenodd" stroke-width="0" d="m792.638 1842.774-14.47 3.96 2.13-12.5z"/><path fill="none" stroke="#343a40" d="M792.638 1842.774c-5.54 1.51-11.07 3.03-14.47 3.96m14.47-3.96c-4.52 1.23-9.04 2.47-14.47 3.96m0 0c.51-3 1.02-5.99 2.13-12.5m-2.13 12.5c.47-2.74.94-5.49 2.13-12.5m0 0 12.34 8.54m-12.34-8.54c2.7 1.87 5.39 3.73 12.34 8.54m0 0q0 0 0 0m0 0q0 0 0 0"/></g><mask id="mask-6OlkPn0qiOAab6BIPw8GP"><path fill="#fff" d="M0 0h892.635v1942.772H0z"/><path d="M557.129 1801.258h95.625v19h-95.625z"/></mask><text x="47.813" fill="#343a40" dominant-baseline="text-before-edge" font-family="Helvetica, Segoe UI Emoji" font-size="16" style="white-space:pre" text-anchor="middle" transform="translate(557.129 1801.258)">ACK + 10012</text><path fill="none" stroke="#343a40" stroke-dasharray="8 9" stroke-linecap="round" stroke-width="1.5" d="M335.18 44.702H913.9"/><text fill="#2b8a3e" dominant-baseline="text-before-edge" font-family="Helvetica, Segoe UI Emoji" font-size="16" style="white-space:pre" transform="translate(568.026 48.587)">三次握手</text><text fill="#2b8a3e" dominant-baseline="text-before-edge" font-family="Helvetica, Segoe UI Emoji" font-size="16" style="white-space:pre" transform="translate(547.303 568.913)">数据传输</text><path fill="none" stroke="#2b8a3e" stroke-dasharray="8 9" stroke-linecap="round" stroke-width="1.5" d="M558.09 44.42h84.63m0 0v34.79m0 0h-84.63m0 0V44.42M537.917 569.002h87.24m0 0v27.8m0 0h-87.24m0 0v-27.8"/><text fill="#2b8a3e" dominant-baseline="text-before-edge" font-family="Helvetica, Segoe UI Emoji" font-size="16" style="white-space:pre" transform="translate(559.51 1299.284)">4次挥手</text><path fill="none" stroke="#2b8a3e" stroke-dasharray="8 9" stroke-linecap="round" stroke-width="1.5" d="M541.233 1291.238h93.96m0 0v34.8m0 0h-93.96m0 0v-34.8"/></svg>