<svg xmlns="http://www.w3.org/2000/svg" width="895.833" height="941.667" preserveAspectRatio="none" style="width:895px;height:941px;background:#fff" viewBox="0 0 895 941"><path fill="#17A2B8" d="m626.62 23.367-1.527 2.086-1.806 3.056-2.583 2.06-2.714 1.126-2.164.097-2.782-1.408-2.624-.92-1.992-1.868-1.045-2.139-.62-1.703-.607-2.224-.986-1.914.758-1.869.663-2.047 2.49-1.62 1.751-2.1 2.168-.697 2.578-.601 3.305.357 1.81.854 2.105.386 2.56 2.623.891 2.768.388 1.888-.44 3.112z" style="stroke:#2e2e2e;stroke-width:1.0416666666666667"/><path fill="none" d="M506.25 138.37v.22l10.466-.65 10.466.632 10.467.215 10.466-1.16 10.466.663 10.467-.363 10.466.044 10.466.329 10.466-.65 10.467 1.297 10.466-1.233 10.466.45 10.466.657 10.467-.54 10.466.16 10.466-.103 10.467.219 10.466.063 10.466.36 10.466.09 10.467-.7.09.219.533.107.617.312.62.32.4-.212.686.475.218.09-.07.46.511.7-.086.452.381.646.266.598h.258l-.275 6.797.054 6.797.08 6.797.028 6.797-.145 6.797-.152.627-.52.475.031.703-.16.625-.42.516.06.143-.567.298-.735-.108-.611.19-.586.254-.506.444v-.062l-10.467-.143-10.466.914-10.466-.892-10.466-.175-10.467.595-10.466-.932-10.466.154-10.466 1.216-10.467-.222-10.466.312-10.466-1.1-10.467.667-10.466.283-10.466-1.108-10.466.393-10.467.23-10.466.548-10.466-.683-10.466.486-10.467-1.058-10.466.577-.09-.218-.432.135-.752-.636-.426.15-.63-.341-.616-.31-.086-.036-.272-.601.017-.481-.488-.69.042-.471-.434-.668h-.192l.407-6.797-.046-6.797-.084-6.797-.068-6.797-.017-6.797.233.097.208-.604.102-.649.276-.576.116-.642.286-.572.095.23.515-.424.591-.239.486-.494.616-.18z" style="stroke:#333;stroke-width:1.0416666666666667"/><text x="513.542" y="165.299" fill="#2E2E2E" font-size="16.667" textLength="205.208">读取一行内容,移除其换行符</text><path fill="#17A2B8" d="M190.104 192.863h.584l-1.735 9.94 1.688 9.938.573 9.94-3.091 9.939 1.765 9.94.216 9.938v-1.184l10.455.12 10.456.875 10.455-1.731 10.455 3.458 10.455-3.288 10.456 1.201 10.455 1.75 10.455-1.439 10.455.428 10.456-.278 10.455.584 10.455.169 10.455.962 10.456.237 10.455.023 10.455-1.18 10.455.581 10.456.663 10.455-3.954 10.455 3.888 10.455-2.708 10.456 2.306 10.455-2.858 10.455 1.185 10.455 2.25 10.456-2.195 10.455.135h.097l.216-5.13.072-5.13-.389-5.13.27-5.13-.266-5.13-.104-.52 4.322-.056 4.215-.594 4.148-.927 4.197-.68 4.055-1.39-.088-.439-4.197-.987-4.161-.805-4.065-.323-4.191-.958-4.131-.655h.63l-.792-3.047-.156-3.047.53-3.047-.83-3.046.618-3.047-.34-.34-1.319-1.319-2.223-2.223-1.887-1.887-2.775-2.775-1.873-1.873v.887l-10.457.753-10.456-2.952-10.457 1.046-10.457.616-10.457 1.46-10.456-1.822-10.457 1.297-10.457-2.823-10.456-.343-10.457 3.28-10.457-3.39-10.457 3.405-10.456-.84-10.457-1.318-10.457-.239-10.457 2.257-10.456-2.106-10.457 2.476-10.457-3.18-10.456 3.251-10.457-.37-10.457-.665-10.457-.549-10.456 1.887-10.457-.314-10.457-1.704" style="stroke:#1592a6;stroke-width:1.0416666666666667"/><path fill="#17A2B8" d="M461.98 192.863h.194l-.578 2.083.562 2.084.191 2.083-1.03 2.083.66 2.084v-.072l2.084-.323 2.083.04 2.083.291 2.084-.577 2.083.64.362.363-2.858-2.858-1.8-1.8-1.671-1.672-2.423-2.422-2.027-2.027" style="stroke:#1592a6;stroke-width:1.0416666666666667"/><text x="201.563" y="218.75" fill="#FFF" font-size="16.667" textLength="250">sed 处理过程中一共有2个buffer,</text><text x="201.563" y="238.151" fill="#FFF" font-size="16.667" textLength="176.042">另外一个叫 hold space</text><path fill="none" d="M497.396 201.522v.219l10.326-.65 10.326.632 10.326.215 10.326-1.16 10.326.663 10.326-.364 10.326.045 10.327.329 10.326-.65 10.326 1.298 10.326-1.234 10.326.45 10.326.657 10.326-.54 10.326.16 10.326-.104 10.326.22 10.326.063 10.327.36 10.326.09 10.326.008 10.326-.442 10.326-.265.061.149.621.32.4-.212.776.693.46-.069.628.34.171.07-.086.453.381.646.504.696-.01.485.26.596h.037l.081 6.796.027 6.797-.146 6.797.101 6.797-.1 6.797-.183-.076.03.703-.159.624-.277.576-.19.611-.44.508-.065-.155-.612.19-.585.254-.514.425-.608.2-.563.306v.71l-10.326-.891-10.326-.176-10.326.595-10.327-.932-10.326.154-10.326 1.216-10.326-.222-10.326.312-10.326-1.1-10.326.667-10.326.282-10.326-1.107-10.326.393-10.326.23-10.327.548-10.326-.683-10.326.486-10.326-1.058-10.326-.129-10.326 1.23-10.326-1.271-10.326 1.277-10.326-.53.027.066-.652-.397-.6-.271-.482.017-.69-.488-.55-.148.19.079-.61-.742.13-.433-.286-.607-.321-.621-.323-.622h.017l.236-6.797-.04-6.797-.154-6.797.034-6.797-.093-6.797-.042-.017.516-.477.064-.663.25-.587-.007-.693.44-.509-.054-.13.713.056.576-.276.527-.396.552-.334z" style="stroke:#333;stroke-width:1.0416666666666667"/><text x="504.688" y="228.451" fill="#2E2E2E" font-size="16.667" textLength="222.917">放到 pattern space buffer中</text><path fill="#FFFACD" d="M77.083 262.915v.219l10.4-.65 10.401.632 10.4.215 10.4-1.16 10.401.663 10.4-.363 10.401.045 10.4.328 10.4-.65 10.401 1.298 10.4-1.233 10.401.45 10.4.656 10.4-.54 10.401.161 10.4-.104 10.401.219 10.4.063 10.4.361 10.401.09 10.4.008 10.4-.443 10.401.218 10.4.248 10.401-1.482 10.4 1.458 10.4-1.016 10.401.865 10.4-1.072 10.401.445 10.4.844 10.4-.824 10.401.16 10.4.244 10.401.08 10.4-.437 10.4.303 10.401-.895 10.4.892 10.401.275 10.4-.108 10.4.176 10.401-1.142 10.4-.176 10.4.032 10.401.586 10.4-.144 10.401.915 10.4-.892 10.4-.175 10.401.595 10.4-.933 10.401.154 10.4 1.217 10.4-.222 10.401.311 10.4-1.1 10.401.668 10.4.282 10.4-1.107 10.401.392 10.4.231 10.4.548 10.401-.679v-.001l.798.454.602-.02.72.265.894.684.67.143-.23-.095.697.9.209.696.153.674.277.725.419.783h.477l-.79 10.565.93 10.565-1.193 10.565 1.219 10.565-.139 10.565-.25 10.564-.205 10.565.708 10.565-.118 10.565-.463 10.565.103 10.565-.415 10.564.882 10.565-.585 10.565.018 10.565-.813 10.565.212 10.565.975 10.564-.106 10.565-.492 10.565-.29 10.565.107 10.565-.487 10.565 1.147 10.564.338 10.565-.222 10.565.176 10.565-.867 10.565.143 10.565.028.011-.458.674-.09.826-.317.731-.207.777-.482.663-.03-.073-.724.335-.66.49-.72.346-.88-.042-.669.47v-.202l-10.4.357-10.4-.791-10.4 1.004-10.401-.1-10.4-.373-10.401.253-10.4.611-10.4-1.085-10.401.654-10.4-.03-10.401-.178-10.4.027-10.4-.029-10.401-.768-10.4.232-10.4-.063-10.401.547-10.4.026-10.401.076-10.4-.471-10.4.233-10.401-.055-10.4.726-10.401-.157-10.4-.95-10.4.43-10.401-.525-10.4.901-10.401.334-10.4-.067-10.4-1.02-10.401.936-10.4-1.257-10.4.982-10.401-.52-10.4.413-10.401.15-10.4.24-10.4-1.241-10.401 1.245-10.4-.31-10.401.185-10.4.409-10.4-.773-10.401.177-10.4.04-10.401-.018-10.4-.206-10.4.741-10.401-1.375-10.4 1.224-10.401-1.24-10.4.088-10.4.605-10.401-.013-10.4-.542-10.4.944-10.401-.318-10.4.644-10.401-.062-10.4-1.162-10.4.052-10.401.28-10.4.135.047.114-.73-.29-.75-.338-.823-.511-.606.009-.822-.51.204.085-.524-.827-.366-.762-.358-.759-.245-.711-.236-.708h.143l-.214-10.565-.364-10.565.943-10.565-.986-10.565 1.001-10.565-.078-10.564-.058-10.565.334-10.565-.977-10.565-.057-10.565.853-10.565-1.162-10.564.378-10.565.364-10.565-.049-10.565-.444-10.565.328-10.565.82-10.564-.1-10.565-1.296-10.565.703-10.565-.617-10.565.508-10.565.332-10.565.132-10.564-1.13-10.565 1.11-10.565-.408-10.565-.009-10.565-.178-.073.332-.726.561-.63.28-.747.22-.772.31-.735-.089-.215.913.122.608-.617.708-.374.798-.157z" style="stroke:#333;stroke-width:1.0416666666666667"/><path fill="none" d="M400 262.915h.195l-.579 4.505.563 4.505.191 4.506-1.03 4.505.66 4.505-.05-.05-2.313 1.854-2.055 2.112-1.877 2.29-2.491 1.675-1.63 2.536v1.538l-10.25-3.289-10.248 1.201-10.249 1.75-10.248-1.438-10.249.427-10.249-.278-10.248.585-10.249.168-10.249.963-10.248.237-10.249.023-10.249-1.18-10.248.58-10.249.663-10.249-3.954-10.248 3.889-10.249-2.709-10.249 2.307-10.248-2.858-10.249 1.185-10.248 2.25-10.25-2.196-10.248.428-10.248.648-10.25.216-10.248-1.167-10.248.809-10.249-2.388-10.249 2.38-10.248.732-10.249-1.522" style="stroke:#333;stroke-width:1.0416666666666667"/><text x="80.208" y="284.635" fill="#FF4500" font-size="16.667" font-weight="bold" textLength="307.292">script执行 [有多个就执行多次类似步骤]</text><path fill="#17A2B8" d="M92.708 371.77h.584l-1.735 10.556 1.688 10.557.574 10.557-3.092 10.557 1.766 10.557-.97 10.557.12 10.556.876 10.557-1.731 10.557 3.458 10.557-3.288 10.557 1.201 10.557.55 10.557v1.2l10.363-1.438 10.363.427 10.363-.278 10.363.585 10.364.168 10.363.963 10.363.237 10.363.023 10.364-1.18 10.363.58 10.363.663 10.363-3.954 10.364 3.889 10.363-2.709 10.363 2.307 10.363-2.858 10.364 1.184 10.363 2.25 10.363-2.195 10.363.428 10.363.648 10.364.216 10.363-1.167 10.363.809 10.363-2.388 10.364 2.38 10.363.733 10.363-.288 10.363.468 10.364-3.045 10.363-.47 10.363.086 10.363 1.562 10.364-.382 10.363 2.439 10.363-2.378 10.363-.468 10.364 1.587 10.363-.634h-1.852l.41-10.569 3.245-10.568-.593-10.569.83-10.568-2.934-10.57 1.78-10.568.754-10.568-2.952-10.569 1.046-10.568.616-10.569 1.46-10.569-1.81-10.568-.003-.003-1.778-1.778-2.748-2.748-2.164-2.164-1.31-1.31-2.414-2.414v-1.991l-10.362 3.405-10.361-.84-10.362-1.318-10.362-.238-10.362 2.257-10.362-2.106-10.362 2.475-10.361-3.18-10.362 3.251-10.362-.37-10.362-.664-10.362-.55-10.362 1.888-10.362-.314-10.361-1.235-10.362.275-10.362-1.107-10.362 2.352-10.362-1.56-10.362.05-10.361-2.17-10.362.565-10.362 2.6-10.362-.281-10.362-1.313-10.362-.776-10.361.287-10.362-1.298-10.362 3.058-10.362.903-10.362-.593-10.362.469-10.361-2.31-10.362.622-10.362-1.32-10.362 1.866-10.362-.103-10.362-.686" style="stroke:#1592a6;stroke-width:1.0416666666666667"/><path fill="#17A2B8" d="M486.458 371.77h.195l-.578 2.083.562 2.083.191 2.083-1.03 2.084.66 2.083v-.072l2.084-.323 2.083.04 2.083.292 2.084-.577 2.083.64.363.362-2.859-2.858-1.8-1.8-1.671-1.671-2.423-2.423-2.027-2.027" style="stroke:#1592a6;stroke-width:1.0416666666666667"/><text x="104.167" y="397.656" fill="#FFF" font-size="16.667" textLength="133.333">这里的操作都是对</text><text x="104.167" y="417.057" fill="#FFF" font-size="16.667" textLength="167.708">pattern space buffer</text><text x="104.167" y="436.458" fill="#FFF" font-size="16.667" textLength="121.875">里的内容进行的,</text><text x="104.167" y="455.859" fill="#FFF" font-size="16.667" textLength="221.875">注意:多个X处理时,很可能这个</text><text x="104.167" y="475.26" fill="#FFF" font-size="16.667" textLength="167.708">pattern space buffer</text><text x="104.167" y="494.661" fill="#FFF" font-size="16.667" textLength="371.875">是已经被上一个X修改过的,而不是最开始的行内容.</text><path fill="none" d="M570.833 313.566v.219l10.07-.65 10.07.632 10.069.215 10.07-1.159 10.069.662 10.069-.363 10.07.045 10.069.328 10.07.071-.092-.222.754.644.432-.136.647.383.673.446.532.106-.028-.012.294.61.212.576.311.617.264.597.167.558h.203l.03 6.797.003 6.797-.148 6.796.073 6.797-.161 6.797.225.093-.7.4.205.776-.557.46.022.7-.415.517-.066-.158-.533.38-.481.505-.695-.01-.568.293-.604.21v.353l-10.07.081-10.069-.437-10.069.303-10.07-.895-10.069.892-10.07.275-10.069-.108-10.07.175-10.069-.638-.064-.155-.612-.298-.585-.235-.514-.063-.608-.289-.563-.18.219.09-.52-.703-.297-.612-.061-.513-.531-.708-.03-.5h-.18l.405-6.798-.074-6.797.104-6.796-.367-6.797.112-6.797.102.042.331-.553-.097-.73.365-.54.315-.56.204-.606.087.21.502-.455.651-.094.454-.57.573-.284z" style="stroke:#333;stroke-width:1.0416666666666667"/><text x="578.125" y="340.495" fill="#2E2E2E" font-size="16.667" textLength="76.042">addr 验证</text><path fill="none" d="M521.875 455.819v.219l10.475-.65 10.474.632 10.475.215 10.474-1.16 10.475.663 10.474-.364 10.475.045 10.474.329 10.475-.65 10.474 1.297 10.475-1.233 10.474.45 10.475.657 10.475-.54 10.474.16 10.475-.104 10.474.22 10.475-.186.031.076.636.356.6.271.59.247.534.108.555.162.149.062.32.62-.212.4.693.776-.069.46.34.628h.185l-.357 6.797.147 6.797.282 6.797-.275 6.797.017 6.797.034.014-.17.62-.218.6-.38.533-.15.628-.336.551-.076-.184-.476.52-.554.328-.603.21-.567.299-.67.047v-.503l-10.475-.176-10.474.032-10.475.586-10.475-.143-10.474.914-10.475-.892-10.474-.175-10.475.595-10.474-.932-10.475.154-10.474 1.216-10.475-.222-10.474.312-10.475-1.1-10.474.667-10.475.282-10.474-1.107-10.475.492-.013-.03-.56-.173-.519-.076-.676-.454-.528-.095-.65-.392-.178-.074-.284-.605.135-.433-.635-.751.149-.426-.408-.657h.072l-.165-6.797-.03-6.797.283-6.797-.264-6.797.104-6.797.19.079-.123-.741.62-.434.2-.607.168-.621.166-.622.006.015.68-.026.574-.28.53-.387.602-.212z" style="stroke:#333;stroke-width:1.0416666666666667"/><text x="529.167" y="482.747" fill="#2E2E2E" font-size="16.667" textLength="173.958">执行X操作(可以有多个)</text><path fill="none" d="M556.25 392.342v.22l9.983-.651 9.982.632 9.983.216 9.983-1.16 9.982.662 9.983-.363 9.983.045 9.982.328 9.983-.65 9.982 1.298 9.983-1.233 9.983.656-.053-.044 2.668 3.122 2.362 2.866 2.54 3.017 2.474 2.96 2.509 2.988.047.04-2.484 2.995-2.408 3.06-2.477 3-2.498 2.984-2.68 2.83v.265l-9.983.218-9.983.248-9.982-1.482-9.983 1.458-9.982-1.016-9.983.865-9.983-1.072-9.982.445-9.983.843-9.983-.823-9.982.16-9.983-.11.09.076-2.48-2.964-2.611-3.076-2.423-2.916-2.728-3.174-2.348-2.854.076.063 2.57-2.923 2.472-3.004 2.545-2.945 2.208-3.226z" style="stroke:#4d4d4d;stroke-width:1.0416666666666667"/><text x="625.521" y="442.839" fill="#2E2E2E" font-size="16.667" textLength="28.125">yes</text><text x="561.458" y="413.021" fill="#2E2E2E" font-size="16.667" textLength="109.375">内容是否匹配?</text><text x="693.75" y="398.112" fill="#2E2E2E" font-size="16.667" textLength="20.833">no</text><path fill="none" d="m616.146 542.212.051.052 2.347 2.346 2.65 2.65 2.55 2.55 2.227 2.227 2.675 2.675-.02-.02-2.585 2.415-2.49 2.51-2.422 2.578-2.653 2.347-2.33 2.67.136.136-2.79-2.79-2.395-2.395-2.345-2.345-2.627-2.627-2.48-2.48.018.018 2.475-2.525 2.552-2.448 2.514-2.485 2.586-2.415z" style="stroke:#4d4d4d;stroke-width:1.0416666666666667"/><path fill="none" d="M396.354 665.674v.219l10.466-.65 10.467.632 10.466.215 10.466-1.16 10.466.663 10.467-.363 10.466.044 10.466.329 10.467-.65 10.466 1.298 10.466-1.234 10.466.45 10.467.657 10.466-.54 10.466.16 10.466-.104 10.467.22 10.466.063 10.466.36 10.467.09 10.466.008 10.466-.442 10.466.218 10.467.248 10.466-1.482 10.466 1.458 10.466-1.016 10.467.865 10.466-1.072 10.466.444 10.466.844 10.467-.823 10.466.16 10.466.244 10.467.08 10.466-.437 10.466.303 10.466-.895 10.467.892 10.466.275 10.466-.108 10.466-.463.082.197.444-.108.566.19.594.254.664.424.597.263-.063-.026.525.706-.03.476.19.566.427.666.171.558h-.231l.05 6.797.407 6.797-.075 6.797.104 6.797-.255 6.797-.103-.043-.038.674-.158.626-.585.448-.123.64-.213.601.016.04-.519.413-.676.034-.528.394-.724-.082-.515.421v-.705l-10.467 1.23-10.466-1.271-10.466 1.277-10.467-.315-10.466-.495-10.466-.089-10.466.846-10.467-.79-10.466.93-10.466-1.193-10.466 1.219-10.467-.139-10.466-.25-10.466-.205-10.466.707-10.467-.117-10.466-.463-10.466.103-10.467-.415-10.466.882-10.466-.585-10.466.018-10.467-.813-10.466.211-10.466.975-10.466-.105-10.467-.492-10.466-.291-10.466.108-10.467-.487-10.466 1.147-10.466.338-10.466-.222-10.467.175-10.466-.866-10.466.233-10.466-.494-10.467.7-10.466-.04-10.466.319-10.467-.815-10.466.24-.018-.044-.512-.058-.573-.205-.733-.59-.547-.142-.563-.182.048.02-.488-.69.065-.461-.275-.602-.359-.637-.212-.576h.05l.203-6.797-.361-6.797.218-6.797-.01-6.797-.1-6.796.038.015.252-.586.235-.593.007-.687.316-.56.373-.536-.061-.148.659-.075.592-.237.6-.22.528-.39z" style="stroke:#333;stroke-width:1.0416666666666667"/><text x="403.646" y="692.602" fill="#2E2E2E" font-size="16.667" textLength="425">打印pattern space buffer里的内容 + 原来移除的换行符</text><path fill="none" d="M550 602.197v.22l10.176-.651 10.177.633 10.176.215 10.176-1.16 10.176.662 10.177-.363 10.176.045 10.176.328 10.177-.649 10.176 1.297 10.176-1.233 10.176.45 10.177.206.115.097 2.362 2.866 2.54 3.016 2.474 2.96 2.556 3.028 2.453 2.942.063.053-2.408 3.06-2.477 3-2.498 2.984-2.613 2.887-2.567 2.925v.483l-10.177.248-10.176-1.482-10.176 1.458-10.177-1.016-10.176.865-10.176-1.072-10.176.445-10.177.844-10.176-.824-10.176.16-10.176.244-10.177.08-10.176-.433h-.001l-2.423-2.918-2.728-3.173-2.272-2.79-2.43-2.924-2.646-3.104.118.1 2.545-2.945 2.208-3.226 2.456-3.02 2.508-2.975z" style="stroke:#4d4d4d;stroke-width:1.0416666666666667"/><text x="625.521" y="652.694" fill="#2E2E2E" font-size="16.667" textLength="20.833">no</text><text x="555.208" y="622.876" fill="#2E2E2E" font-size="16.667" textLength="121.875">-n 参数是否指定</text><text x="700" y="607.967" fill="#2E2E2E" font-size="16.667" textLength="28.125">yes</text><path fill="none" d="m616.146 728.825.051.051 2.347 2.347 2.65 2.65 2.55 2.55 2.227 2.227 2.675 2.675-.02-.02-2.585 2.415-2.49 2.51-2.422 2.578-2.653 2.347-2.33 2.67.136.136-2.79-2.79-2.395-2.395-2.345-2.345-2.627-2.627-2.48-2.48.018.018 2.475-2.525 2.552-2.448 2.514-2.485 2.586-2.415z" style="stroke:#4d4d4d;stroke-width:1.0416666666666667"/><path fill="#17A2B8" d="M46.875 764.242h.584l-1.735 9.88L47.412 784l.573 9.88-3.092 9.879 1.766 9.88-.969 9.879.12 9.88 1.065 9.879v-.19l10.286-1.73 10.287 3.458 10.286-3.289 10.287 1.202 10.286 1.749 10.287-1.438 10.286.428 10.287-.279 10.286.585 10.287.168 10.286.963 10.286.237 10.287.023 10.286-1.18 10.287.58 10.286.664 10.287-3.954 10.286 3.888 10.287-2.709 10.286 2.307 10.287-2.858 10.286 1.185 10.286 2.25 10.287-2.195 10.286.428 10.287.648 10.286.215 10.287-1.167 10.286.809 10.287-2.388 10.286 2.38 10.287.733 10.286-.288 10.287.468 10.286-3.045 10.286-.47 10.287.086 10.286 1.562 10.287-.382 10.286.546h.631l-.792-7.07-.156-7.07.529-7.07-.83-7.071.618-7.07-.094-.472 4.379.227 4.128-1.027 4.22-.562 3.976-1.792 4.225-.541.058.29-4.118-.587-4.36-1.799-4.098-.491-4.126-.632-4.19-.948h.604l-.608-4.987.433-4.987-.941-4.987-.115-4.987.627-4.987.33.33-2.882-2.883-1.281-1.28-2.281-2.282-2.394-2.394-1.908-1.908v-.982l-10.283 2.257-10.284-2.106-10.283 2.476-10.283-3.18-10.283 3.25-10.283-.37-10.283-.664-10.283-.55-10.283 1.888-10.284-.314-10.283-1.234-10.283.274-10.283-1.106-10.283 2.352-10.283-1.56-10.283.049-10.283-2.17-10.284.565-10.283 2.6-10.283-.28-10.283-1.314-10.283-.775-10.283.286-10.283-1.298-10.283 3.059-10.283.902-10.284-.592-10.283.468-10.283-2.31-10.283.622-10.283-1.32-10.283 1.866-10.283-.103-10.283.849-10.284-2.172-10.283.264-10.283 1.605-10.283.345-10.283-1.577" style="stroke:#1592a6;stroke-width:1.0416666666666667"/><path fill="#17A2B8" d="M447.917 764.242h.194l-.578 2.083.563 2.083.19 2.083-1.03 2.084.66 2.083v-.072l2.084-.323 2.083.04 2.084.292 2.083-.577 2.083.64.363.363-2.859-2.859-1.8-1.8-1.67-1.671-2.423-2.422-2.027-2.028" style="stroke:#1592a6;stroke-width:1.0416666666666667"/><text x="58.333" y="790.129" fill="#FFF" font-size="16.667" textLength="200">如果X是比较特殊的指令时,</text><text x="58.333" y="809.53" fill="#FFF" font-size="16.667" textLength="267.708">pattern space可能不会做删除操作,</text><text x="58.333" y="828.931" fill="#FFF" font-size="16.667" textLength="379.167">还有一个hold space 可能会有操作 比如h,g等命令.</text><path fill="none" d="M483.333 782.6v.22l10.217-.65 10.216.632 10.216.215 10.217-1.16 10.216.663 10.216-.363 10.217.044 10.216.329 10.216-.65 10.217 1.298 10.216-1.234 10.216.45 10.217.657 10.216-.54 10.216.161 10.217-.104 10.216.219 10.217.063 10.216.361 10.216.089 10.217.009 10.216-.443 10.216.218 10.217.248 10.216-1.482 10.216.75.09.219.46-.07.7.511.452-.086.646.381.599.266.238.099-.01.484.293.61.32.62.268.6.111.534h-.001l.1 6.796-.298 6.797.298 6.797.091 6.797-.19 6.797.143.059-.19.612-.596.443-.298.567-.235.593-.044.672-.008-.019-.608.2-.472.526-.703-.03-.612.19-.544.354v.237l-10.216-.932-10.216.154-10.217 1.217-10.216-.223-10.216.312-10.217-1.1-10.216.667-10.216.283-10.217-1.107-10.216.392-10.216.23-10.217.548-10.216-.683-10.216.486-10.217-1.058-10.216-.129-10.217 1.23-10.216-1.271-10.216 1.277-10.217-.315-10.216-.495-10.216-.089-10.217.846-10.216-.79-10.216.93-10.217-.617-.073-.178-.434.132-.607-.287-.62-.321-.616-.308-.596-.259.233.097-.28-.604-.387-.649-.212-.576-.372-.642-.202-.572h.248l-.195-6.797.007-6.797-.272-6.797.071-6.797.14-6.796.17.07.213-.603.092-.652.155-.626.277-.576.314-.56-.091-.22.735.11.633-.14.56-.313.612-.19z" style="stroke:#333;stroke-width:1.0416666666666667"/><text x="490.625" y="809.53" fill="#2E2E2E" font-size="16.667" textLength="251.042">删除pattern space buffer的内容</text><path fill="none" d="M567.188 864.111v.22l10.88-.651 10.879.633 10.88.215 10.879-1.16 10.88.662 10.88-.363 10.879.045 10.88.328 10.88.071-.093-.221.755.643.432-.136.647.383.673.446.531.106-.027-.012.293.61.212.576.312.617.264.597.167.558h.203l.03 6.797.003 6.797-.148 6.797.073 6.797-.161 6.796.225.094-.7.4.204.775-.557.46.023.7-.416.518-.065-.16-.533.382-.481.504-.695-.01-.569.294-.603.21v.353l-10.88.08-10.88-.437-10.879.303-10.88-.895-10.879.892-10.88.275-10.88-.108-10.879.176-10.88-.639-.064-.155-.611-.298-.586-.235-.514-.063-.608-.288-.563-.181.219.09-.519-.703-.298-.611-.06-.514-.532-.708-.03-.5h-.18l.405-6.798-.074-6.796.104-6.797-.367-6.797.112-6.797.102.042.331-.553-.097-.73.365-.54.316-.56.203-.605.087.209.502-.455.651-.094.454-.57.573-.284z" style="stroke:#333;stroke-width:1.0416666666666667"/><text x="574.479" y="891.04" fill="#2E2E2E" font-size="16.667" textLength="83.333">读取下一行</text><path fill="none" d="M519.27 53.735v.22l10.198-.651 10.198.633 10.197.215 10.197-1.16 10.198.662 10.197-.363 10.197.045 10.198.328 10.197-.649 10.197 1.297 10.198-1.233 10.197.45 10.198.656 10.197-.539 10.197.16 10.198-.104 10.197.22 10.197.062 10.198-.249.156.131 2.522 3 2.503 2.984 2.387 2.887 2.555 3.029 2.377 2.878.187.157-2.88 2.664-2.127 3.294-2.76 2.764-2.278 3.167-2.642 2.863v-.516l-10.197.445-10.198.844-10.197-.824-10.198.16-10.197.244-10.197.08-10.198-.437-10.197.303-10.197-.895-10.198.892-10.197.275-10.198-.108-10.197.176-10.197-1.142-10.198-.176-10.197.032-10.197.586-10.198-.144-10.197.205.181.152-2.728-3.173-2.544-3.019-2.348-2.854-2.739-3.182-2.322-2.833-.138-.116 2.81-2.72 2.444-3.03 2.58-2.915 2.218-3.218z" style="stroke:#4d4d4d;stroke-width:1.0416666666666667"/><text x="625.521" y="104.232" fill="#2E2E2E" font-size="16.667" textLength="16.667">是</text><text x="524.479" y="74.414" fill="#2E2E2E" font-size="16.667" textLength="183.333">文件或输入是否有行可读</text><text x="484.896" y="59.505" fill="#2E2E2E" font-size="16.667" textLength="16.667">否</text><path fill="none" d="m36.522 117.98-1.68 2.296-1.987 3.361-2.84 2.265-2.986 1.24-2.381.107-3.06-1.55-2.887-1.012-2.191-2.055-1.15-2.352-.681-1.873-.668-2.447-1.084-2.105.833-2.056.73-2.252 2.738-1.78 1.927-2.312 2.385-.767 2.835-.66 3.636.392 1.991.939 2.315.425 2.816 2.885.98 3.044.427 2.078-.483 3.423z" style="stroke:#2e2e2e;stroke-width:1.0416666666666667"/><path fill="none" d="m31.285 116.714-.917 1.252-1.083 1.833-1.55 1.236-1.628.675-1.299.06-1.669-.846-1.575-.552-1.195-1.12-.627-1.284-.372-1.022-.364-1.334-.591-1.149.454-1.121.398-1.228 1.494-.972 1.05-1.26 1.302-.419 1.546-.36 1.983.214 1.087.512 1.262.232 1.536 1.574.535 1.66.233 1.133-.264 1.868z" style="stroke:#2e2e2e;stroke-width:1.0416666666666667"/><path fill="#333" d="M616.146 180.689h.097l-.289 4.166.281 4.167.096 4.167-.515 4.166.33 4.167" style="stroke:#333;stroke-width:3.125"/><path fill="#333" d="m611.98 191.105.067.027.632 2.003 1.03 2.162.899 2.11.475 1.94 1.063 2.175-.025-.01.72-2.129.848-2.077.935-2.043.632-2.164 1.057-1.994.135.136-1.124.543-.727.94-.678.987-.96.706-.813.855.017.017-.858-.858-.782-.782-.818-.819-.749-.748z" style="stroke:#333;stroke-width:1.0416666666666667"/><path fill="#333" d="M616.146 422.16h.097l-.289 6.732.281 6.731.096 6.732-.515 6.732.33 6.732" style="stroke:#333;stroke-width:3.125"/><path fill="#333" d="m611.98 445.402.067.027.632 2.003 1.03 2.162.899 2.11.475 1.94 1.063 2.175-.025-.01.72-2.129.848-2.077.935-2.043.632-2.164 1.057-1.994.135.136-1.124.543-.727.94-.678.987-.96.706-.813.855.017.016-.858-.857-.782-.782-.818-.819-.749-.748z" style="stroke:#333;stroke-width:1.0416666666666667"/><path fill="#333" d="M688.542 407.251v.097l7.291-.289 7.292.281 7.292.096 7.291-.515 7.292.33M720.833 470.565l.068.027.632 2.003 1.03 2.161.9 2.11.474 1.94 1.063 2.175-.025-.01.72-2.128.848-2.078.935-2.042.632-2.164 1.057-1.994.136.136-1.124.542-.728.94-.678.988-.96.706-.813.854.017.017-.858-.858-.782-.781-.818-.819-.748-.748z" style="stroke:#333;stroke-width:3.125"/><path fill="#333" d="M725 407.251h.292l-.867 10.533.844 10.533.286 10.533-1.546 10.533.883 10.533-.484 10.533.06 10.532.437 10.533-.865 10.533 1.729 10.533-1.644 10.533.6 10.533.875 10.533-.6 10.533" style="stroke:#333;stroke-width:3.125"/><path fill="#333" d="M725 554.712v.292l-10.706-.868-10.706.844-10.706.287-10.706-1.546-10.706.883-10.706-.484-10.706.06-10.706.437-10.706.095" style="stroke:#333;stroke-width:3.125"/><path fill="#333" d="m639.063 550.545.027.068-2.164.632-2.005 1.03-2.057.9-2.227.474-1.991 1.063-.01-.025 2.038.72 2.089.848 2.124.935 2.003.632 2.173 1.057.135.135-1.124-1.124-.727-.727-.678-.678-.96-.96-.813-.813.017.017.808-.858.885-.782.849-.818.918-.749z" style="stroke:#333;stroke-width:1.0416666666666667"/><path fill="#333" d="M616.146 498.136h.097l-.289 8.815.281 8.816.096 8.815-.515 8.815.33 8.815" style="stroke:#333;stroke-width:3.125"/><path fill="#333" d="m611.98 531.795.067.027.632 2.003 1.03 2.162.899 2.11.475 1.94 1.063 2.175-.025-.01.72-2.128.848-2.078.935-2.043.632-2.164 1.057-1.994.135.136-1.124.543-.727.94-.678.987-.96.707-.813.854.017.017-.858-.858-.782-.782-.818-.818-.749-.749z" style="stroke:#333;stroke-width:1.0416666666666667"/><path fill="#333" d="M616.146 355.884h.097l-.289 7.291.281 7.292.096 7.292-.515 7.291.33 7.292" style="stroke:#333;stroke-width:3.125"/><path fill="#333" d="m611.98 381.926.067.027.632 2.002 1.03 2.162.899 2.11.475 1.94 1.063 2.175-.025-.01.72-2.128.848-2.078.935-2.043.632-2.163 1.057-1.995.135.136-1.124.543-.727.94-.678.988-.96.706-.813.854.017.017-.858-.858-.782-.782-.818-.818-.749-.748z" style="stroke:#333;stroke-width:1.0416666666666667"/><path fill="#333" d="M616.146 243.84h.292l-.868 9.96.844 9.961.287 9.961-1.546 9.961.883 9.961-.485 9.961.593 9.961" style="stroke:#333;stroke-width:3.125"/><path fill="#333" d="m611.98 303.15.067.026.632 2.003 1.03 2.162.899 2.11.475 1.94 1.063 2.175-.025-.01.72-2.128.848-2.078.935-2.043.632-2.163 1.057-1.995.135.136-1.124.543-.727.94-.678.988-.96.706-.813.854.017.017-.858-.858-.782-.782-.818-.818-.749-.748z" style="stroke:#333;stroke-width:1.0416666666666667"/><path fill="#333" d="M616.146 632.015h.097l-.289 6.732.281 6.732.096 6.731-.515 6.732.33 6.732" style="stroke:#333;stroke-width:3.125"/><path fill="#333" d="m611.98 655.257.067.027.632 2.003 1.03 2.162.899 2.11.475 1.94 1.063 2.175-.025-.01.72-2.129.848-2.077.935-2.043.632-2.164 1.057-1.994.135.136-1.124.543-.727.94-.678.987-.96.706-.813.855.017.017-.858-.858-.782-.782-.818-.819-.749-.748z" style="stroke:#333;stroke-width:1.0416666666666667"/><path fill="#333" d="M694.792 617.106v.292l10.382-.867 10.382.844 10.381.286 10.382-1.546 10.382.883 10.382-.484 10.382.06 10.382.438 10.382-.866 10.382 1.73 10.382-1.645 10.382.6 10.382.875 10.382-.719 10.382.12M846.354 680.42l.068.027.632 2.003 1.03 2.161.899 2.11.475 1.94 1.063 2.176-.025-.01.72-2.129.848-2.077.935-2.043.632-2.164 1.057-1.994.135.136-1.124.542-.727.94-.678.988-.96.706-.813.855.017.016-.858-.858-.782-.781-.818-.819-.749-.748z" style="stroke:#333;stroke-width:3.125"/><path fill="#333" d="M850.52 617.106h.293l-.868 10.352.844 10.351.287 10.352-1.546 10.351.883 10.352-.485 10.351.06 10.352.438 10.352-.865 10.351 1.729 10.352-1.645 10.351.876 10.352M850.52 741.325v.292l-10.565-.868-10.565.844-10.566.287-10.565-1.546-10.566.883-10.565-.485-10.566.06-10.565.438-10.565-.865-10.566 1.729-10.565-1.645-10.566.601-10.565.875-10.566-.72-10.565.215-10.566-.14-10.565.293-10.566.084-10.565.481-10.566.119-10.565-.932" style="stroke:#333;stroke-width:3.125"/><path fill="#333" d="m639.063 737.158.027.068-2.164.632-2.005 1.03-2.057.9-2.227.473-1.991 1.064-.01-.025 2.038.72 2.089.848 2.124.935 2.003.632 2.173 1.057.135.136-1.124-1.125-.727-.727-.678-.678-.96-.96-.813-.813.017.017.808-.858.885-.782.849-.818.918-.749z" style="stroke:#333;stroke-width:1.0416666666666667"/><path fill="#333" d="M616.146 707.992h.097l-.289 4.166.281 4.167.096 4.166-.515 4.167.33 4.167" style="stroke:#333;stroke-width:3.125"/><path fill="#333" d="m611.98 718.408.067.027.632 2.003 1.03 2.162.899 2.11.475 1.94 1.063 2.175-.025-.01.72-2.129.848-2.077.935-2.043.632-2.164 1.057-1.994.135.136-1.124.543-.727.94-.678.987-.96.707-.813.854.017.017-.858-.858-.782-.782-.818-.818-.749-.749z" style="stroke:#333;stroke-width:1.0416666666666667"/><path fill="#333" d="M616.146 567.212h.097l-.289 6.997.281 6.997.096 6.997-.515 6.997.33 6.997" style="stroke:#333;stroke-width:3.125"/><path fill="#333" d="m611.98 591.78.067.028.632 2.003 1.03 2.161.899 2.11.475 1.94 1.063 2.175-.025-.01.72-2.128.848-2.078.935-2.043.632-2.163 1.057-1.994.135.136-1.124.542-.727.94-.678.988-.96.706-.813.854.017.017-.858-.858-.782-.782-.818-.818-.749-.748z" style="stroke:#333;stroke-width:1.0416666666666667"/><path fill="#333" d="M616.146 753.825h.097l-.289 5.755.281 5.755.096 5.755-.515 5.756.33 5.755" style="stroke:#333;stroke-width:3.125"/><path fill="#333" d="m611.98 772.184.067.027.632 2.003 1.03 2.162.899 2.11.475 1.94 1.063 2.175-.025-.01.72-2.128.848-2.078.935-2.043.632-2.164 1.057-1.994.135.136-1.124.543-.727.94-.678.987-.96.707-.813.854.017.017-.858-.858-.782-.782-.818-.818-.749-.749z" style="stroke:#333;stroke-width:1.0416666666666667"/><path fill="#333" d="M616.146 824.919h.097l-.289 7.838.281 7.839.096 7.838-.515 7.839.33 7.838" style="stroke:#333;stroke-width:3.125"/><path fill="#333" d="m611.98 853.695.067.027.632 2.003 1.03 2.161.899 2.11.475 1.94 1.063 2.175-.025-.01.72-2.128.848-2.078.935-2.043.632-2.163 1.057-1.994.135.136-1.124.542-.727.94-.678.988-.96.706-.813.854.017.017-.858-.858-.782-.781-.818-.819-.749-.748z" style="stroke:#333;stroke-width:1.0416666666666667"/><path fill="#333" d="M616.146 83.553h.292l-.868 10.964.844 10.963.287 10.964-1.546 10.963.99 10.964" style="stroke:#333;stroke-width:3.125"/><path fill="#333" d="m611.98 127.954.067.027.632 2.003 1.03 2.162.899 2.11.475 1.94 1.063 2.175-.025-.01.72-2.129.848-2.077.935-2.043.632-2.164 1.057-1.994.135.136-1.124.543-.727.94-.678.987-.96.706-.813.855.017.016-.858-.857-.782-.782-.818-.819-.749-.748z" style="stroke:#333;stroke-width:1.0416666666666667"/><path fill="#333" d="M616.146 906.429h.097l-.289 2.083.281 2.084.096 2.083-.515 2.083.33 2.084M616.146 916.846v.292l10.547-.868 10.547.844 10.547.287 10.546-1.546 10.547.883 10.547-.485 10.547.06 10.547.438 10.547-.865 10.547 1.729 10.547-1.645 10.546.601 10.547.875 10.547-.72 10.547.215 10.547-.14 10.547.293 10.547.084 10.547.481 10.546.119 10.547.011 10.547-.59 10.547.29 10.547-.643M865.104 522.648l.068.027.632-2.164 1.03-2.005.899-2.056.475-2.227 1.063-1.992-.025-.01.72 2.039.848 2.089.935 2.124.632 2.003 1.057 2.172.135.136-1.124-1.124-.727-.727-.678-.679-.96-.96-.813-.813.017.017-.858.809-.782.885-.818.848-.749.919z" style="stroke:#333;stroke-width:3.125"/><path fill="#333" d="M869.27 68.644h.293l-.868 10.472.844 10.472.287 10.471-1.546 10.472.883 10.471-.485 10.472.06 10.472.438 10.471-.865 10.472 1.729 10.471-1.645 10.472.601 10.472.875 10.471-.72 10.472.215 10.472-.14 10.471.293 10.472.084 10.471.481 10.472.119 10.472.011 10.471-.59 10.472.29 10.471.332 10.472-1.977 10.472 1.944 10.471-1.354 10.472 1.153 10.472-1.429 10.471.593 10.472 1.125 10.471-1.098 10.472.214 10.472.324 10.471.108 10.472-.584 10.472.405 10.471-1.194 10.472 1.19 10.472.366 10.471-.144 10.472.234 10.471-1.522 10.472-.235 10.472.043 10.471.781 10.472-.191 10.471 1.22 10.472-1.19 10.472-.234 10.471.794 10.472-1.243 10.472.205 10.471 1.622 10.472-.296 10.471.415 10.472-1.467 10.472.89 10.471.377 10.472-1.476 10.472.523 10.471.308 10.472.73 10.471-.911 10.472.648 10.472-1.411 10.471-.172 10.472 1.64 10.472-1.695 10.471 1.703 10.472-.42 10.471-.66 10.472-.119 10.472 1.129 10.471-1.053 10.472 1.238 10.472-1.59 10.471 1.625 10.472-.185 10.471-.332 10.472-.34 10.472" style="stroke:#333;stroke-width:3.125"/><path fill="#333" d="M869.27 68.644v.292l-10.267-.867-10.268.844-10.268.286-10.268-1.546-10.267.883-10.268-.484-10.268.06-10.268.438-10.268-.866-10.268 1.73-10.268-1.645-10.267.6-10.268.875-10.268-.6" style="stroke:#333;stroke-width:3.125"/><path fill="#333" d="m735.938 64.478.027.067-2.164.632-2.005 1.03-2.057.9-2.227.474-1.991 1.063-.01-.025 2.038.721 2.089.847 2.124.935 2.003.633 2.173 1.056.135.136-1.124-1.124-.727-.727-.678-.68-.96-.96-.813-.812.017.017.808-.858.885-.782.849-.818.918-.748z" style="stroke:#333;stroke-width:1.0416666666666667"/><path fill="#333" d="M506.77 68.644v.292l-10.472-.867-10.474.844-10.473.286-10.473-1.546-10.474.883-10.473-.484-10.473.06-10.473.438-10.474-.866-10.473 1.73-10.473-1.645-10.474.6-10.473.875-10.473-.719-10.473.214-10.474-.14-10.473.293-10.473.084-10.474.482-10.473.118-10.473.012-10.473-.59-10.474.29-10.473.332-10.473-1.977-10.473 1.944-10.474-1.355-10.473 1.154-10.473-1.43-10.474.593-10.473 1.125-10.473-1.098-10.473.215-10.474.324-10.473.107-10.473-.583-10.474.404-10.473-1.194-10.473 1.19-10.473.367-10.474-.144-10.473.234-10.473-1.523-10.473-.235-10.474.043L25 68.644" style="stroke:#333;stroke-width:3.125"/><path fill="#333" d="M25 68.644h.097l-.289 7.018.282 7.019.095 7.018-.515 7.018.33 7.018" style="stroke:#333;stroke-width:3.125"/><path fill="#333" d="m20.833 93.319.068.027.632 2.003 1.03 2.161.9 2.11.474 1.94L25 103.735l-.025-.01.72-2.128.848-2.078.935-2.042.632-2.164 1.057-1.994.136.136-1.124.542-.728.94-.678.988-.96.706-.813.854.017.017-.858-.858-.782-.782-.818-.818-.748-.748z" style="stroke:#333;stroke-width:1.0416666666666667"/><path fill="#333" d="M616.146 31.25h.097l-.289 4.497.281 4.497.096 4.497-.515 4.497.33 4.497" style="stroke:#333;stroke-width:3.125"/><path fill="#333" d="m611.98 43.319.067.027.632 2.003 1.03 2.161.899 2.11.475 1.94 1.063 2.175-.025-.01.72-2.128.848-2.078.935-2.042.632-2.164 1.057-1.994.135.136-1.124.542-.727.94-.678.988-.96.706-.813.854.017.017-.858-.858-.782-.782-.818-.818-.749-.748z" style="stroke:#333;stroke-width:1.0416666666666667"/></svg>