<svg xmlns="http://www.w3.org/2000/svg" preserveAspectRatio="xMinYMin meet" viewBox="0 0 418 194"><svg id="d2-svg" width="418" height="194" class="d2-418085914" viewBox="-1 -1 418 194"><rect width="418" height="194" x="-1" y="-1" stroke-width="0" rx="0" style="fill:#fff"/><style>@font-face{font-family:d2-418085914-font-mono;src:url(/stylesheets/font/Virgil-hand.woff2)}.d2-418085914 .text-mono-bold{font-family:&quot;d2-418085914-font-mono-bold&quot;}@font-face{font-family:d2-418085914-font-mono-bold;src:url(/stylesheets/font/Virgil-hand.woff2)}.d2-418085914 .text-mono-italic{font-family:&quot;d2-418085914-font-mono-italic&quot;}@font-face{font-family:d2-418085914-font-mono-italic;src:url(/stylesheets/font/Virgil-hand.woff2)}.connection,.shape{stroke-linejoin:round}.shape{shape-rendering:geometricPrecision}.connection{stroke-linecap:round}.d2-418085914 .fill-N1,.d2-418085914 .fill-N2{fill:#000410}.d2-418085914 .fill-B6{fill:#fff}.d2-418085914 .stroke-B1{stroke:#000410}@media screen and (prefers-color-scheme:dark){.d2-418085914 .fill-N1{fill:#cdd6f4}.d2-418085914 .fill-N2{fill:#bac2de}.d2-418085914 .fill-B6{fill:#313244}.d2-418085914 .stroke-B1{stroke:#cba6f7}}</style><g id="lady 1"><g class="shape"><path d="M0 0h101v66H0z" class="stroke-B1 fill-B6" style="stroke-width:2"/></g><text x="50.5" y="38.5" class="text-mono-bold fill-N1" style="text-anchor:middle;font-size:16px">LADY 1</text></g><g id="lady 2"><g class="shape"><path d="M0 126h101v66H0z" class="stroke-B1 fill-B6" style="stroke-width:2"/></g><text x="50.5" y="164.5" class="text-mono-bold fill-N1" style="text-anchor:middle;font-size:16px">LADY 2</text></g><g id="barbie"><g class="shape"><path d="M315 63h101v66H315z" class="stroke-B1 fill-B6" style="stroke-width:2"/></g><text x="365.5" y="101.5" class="text-mono-bold fill-N1" style="text-anchor:middle;font-size:16px">BARBIE</text></g><g id="(lady 1 -&gt; barbie)[0]"><marker id="mk-1323777345" markerHeight="12" markerUnits="userSpaceOnUse" markerWidth="10" orient="auto" refX="7" refY="6" viewBox="0 0 10 12"><path fill="pink" stroke-width="2" d="m0 0 10 6-10 6z" class="connection"/></marker><path fill="none" stroke="pink" marker-end="url(#mk-1323777345)" d="M103 33c83.6 0 126.4 8.6 208.288 41.508" class="connection" mask="url(#d2-418085914)" style="stroke-width:2"/><text x="211.5" y="43" class="text-mono-italic fill-N2" style="text-anchor:middle;font-size:16px">HI BARBIE</text></g><g id="(lady 2 -&gt; barbie)[0]"><path fill="none" stroke="pink" marker-end="url(#mk-1323777345)" d="M103 159c83.6 0 126.4-8.6 208.288-41.508" class="connection" mask="url(#d2-418085914)" style="stroke-width:2"/><text x="211.5" y="160" class="text-mono-italic fill-N2" style="text-anchor:middle;font-size:16px">HI BARBIE</text></g><mask id="d2-418085914" width="418" height="194" x="-1" y="-1" maskUnits="userSpaceOnUse"><path fill="#fff" d="M-1-1h418v194H-1z"/><path fill="rgba(0,0,0,0.75)" d="M22.5 22.5h56v21h-56zM22.5 148.5h56v21h-56zM337.5 85.5h56v21h-56z"/><path d="M168 27h87v21h-87zM168 144h87v21h-87z"/></mask></svg></svg>