<svg xmlns="http://www.w3.org/2000/svg" width="400" height="160" class="svgbob"><style>.svgbob circle,.svgbob line,.svgbob path,.svgbob polygon,.svgbob rect{stroke:#000;stroke-width:2;stroke-opacity:1;fill-opacity:1;stroke-linecap:round;stroke-linejoin:miter}.svgbob text{white-space:pre;fill:#000;font-family:Iosevka Fixed,monospace;font-size:14px}.svgbob .filled{fill:#000}.svgbob .bg_filled{fill:#fff;stroke-width:1}.svgbob .nofill{fill:#fff}</style><defs><marker id="arrow" markerHeight="7" markerWidth="7" orient="auto-start-reverse" refX="4" refY="2" viewBox="-2 -2 8 8"><path d="M0 0v4l4-2z"/></marker><marker id="diamond" markerHeight="7" markerWidth="7" orient="auto-start-reverse" refX="4" refY="2" viewBox="-2 -2 8 8"><path d="m0 2 2-2 2 2-2 2z"/></marker><marker id="circle" markerHeight="7" markerWidth="7" orient="auto-start-reverse" refX="4" refY="4" viewBox="0 0 8 8"><circle cx="4" cy="4" r="2" class="filled"/></marker><marker id="open_circle" markerHeight="7" markerWidth="7" orient="auto-start-reverse" refX="4" refY="4" viewBox="0 0 8 8"><circle cx="4" cy="4" r="2" class="bg_filled"/></marker><marker id="big_open_circle" markerHeight="7" markerWidth="7" orient="auto-start-reverse" refX="4" refY="4" viewBox="0 0 8 8"><circle cx="4" cy="4" r="3" class="bg_filled"/></marker></defs><path d="M0 0h400v160H0z" style="stroke:none;fill:#fff"/><rect width="16" height="32" x="60" y="32" class="solid nofill" rx="0"/><path d="M64 38h8M64 42h8" class="solid"/><rect width="24" height="48" x="316" y="96" class="solid nofill" rx="0"/><path d="M320 102h16M320 106h16" class="solid"/><text x="162" y="12">,</text><path d="M176 0a16 16 0 0 0 0 16" class="nofill"/><path d="M88 40h16" class="solid"/><path d="m104 36 8 4-8 4z" class="filled"/><text x="162" y="76">.</text><path d="M176 64a16 16 0 0 0 0 16M192 0a16 16 0 0 1 0 16" class="nofill"/><text x="202" y="12">,</text><text x="250" y="44">)</text><path d="M224 48a16 16 0 0 1 0 16" class="nofill"/><text x="234" y="60">.</text><path d="M240 56h8" class="solid"/><text x="250" y="60">&apos;</text><path d="M24 32h24" class="solid"/><text x="18" y="44">[</text><text x="50" y="44">]</text><text x="26" y="60">::</text><path d="M304 48h80M264 56h24" class="solid"/><path d="m288 52 8 4-8 4z" class="filled"/><text x="298" y="60">[</text><path d="M304 64h8" class="solid"/><text x="314" y="60">...</text><path d="M336 64h16" class="solid"/><text x="354" y="60">...</text><text x="386" y="60">]</text><path d="M184 64a16 16 0 0 1 0 16" class="nofill"/><text x="194" y="76">.</text><path d="M200 72h8" class="solid"/><text x="210" y="76">&apos;</text><path d="m248 100 8 4-8 4z" class="filled"/><text x="266" y="140">::::</text><path d="m304 128-8 16" class="solid"/><path d="M152 8a8 8 0 0 0-6 4" class="nofill"/><path d="m146 12-2 4M152 8h8" class="solid"/><path d="M144 16a16 16 0 0 0 0 16M128 24a8 8 0 0 0-6 4" class="nofill"/><path d="m122 28-2 4M128 24h8" class="solid"/><path d="M120 32a16 16 0 0 0 0 16" class="nofill"/><path d="m120 48 2 4" class="solid"/><path d="M122 52a8 8 0 0 0 6 4" class="nofill"/><path d="M128 56h8" class="solid"/><path d="M144 48a16 16 0 0 0 0 16" class="nofill"/><path d="m144 64 2 4" class="solid"/><path d="M146 68a8 8 0 0 0 6 4" class="nofill"/><path d="M152 72h8M208 8h8" class="solid"/><path d="M216 8a8 8 0 0 1 6 4" class="nofill"/><path d="m222 12 2 4" class="solid"/><path d="M224 16a16 16 0 0 1 0 16" class="nofill"/><path d="M232 24h8" class="solid"/><path d="M240 24a8 8 0 0 1 6 4" class="nofill"/><path d="m246 28 2 4M24 48h24M24 48l-8 16M48 48l-8 16M208 80l10 20" class="solid"/><path d="M218 100a8 8 0 0 0 6 4" class="nofill"/><path d="M224 104h24M260 96h40M260 96v32M300 96v32M260 128h40M264 128l-8 16" class="solid"/></svg>