<svg xmlns="http://www.w3.org/2000/svg" width="995.026" height="973.886"><defs><style>@font-face{font-family:&quot;Virgil&quot;;src:url(https://unpkg.com/@excalidraw/excalidraw@undefined/dist/excalidraw-assets/Virgil.woff2)}@font-face{font-family:&quot;Cascadia&quot;;src:url(https://unpkg.com/@excalidraw/excalidraw@undefined/dist/excalidraw-assets/Cascadia.woff2)}@font-face{font-family:&quot;Assistant&quot;;src:url(https://unpkg.com/@excalidraw/excalidraw@undefined/dist/excalidraw-assets/Assistant-Regular.woff2)}</style></defs><path fill="#fff" d="M0 0h995.026v973.886H0z"/><text fill="#1e1e1e" dominant-baseline="text-before-edge" font-family="Virgil, Segoe UI Emoji" font-size="28" style="white-space:pre" transform="translate(29.134 141.324)">  从右向左读 ,像函数调用一样</text><g stroke-linecap="round"><path fill="none" stroke="#1e1e1e" stroke-width="4" d="m402.922 197.869-392.29-1.26m392.29 1.26-392.29-1.26"/><path fill="#1e1e1e" fill-rule="evenodd" stroke-width="0" d="m10.632 196.609 13.62-6.29-.04 12.68z"/><path fill="none" stroke="#1e1e1e" stroke-width="4" d="M10.632 196.609c2.9-1.34 5.8-2.68 13.62-6.29m-13.62 6.29c4.89-2.26 9.79-4.52 13.62-6.29m0 0c-.01 2.55-.02 5.1-.04 12.68m.04-12.68c-.02 4.08-.03 8.16-.04 12.68m0 0c-3.7-1.74-7.39-3.48-13.58-6.39m13.58 6.39c-3.08-1.45-6.15-2.89-13.58-6.39m0 0q0 0 0 0m0 0q0 0 0 0"/></g><path fill="none" stroke="#1e1e1e" stroke-linecap="round" stroke-width="4" d="M24.258 226.19c-3.03-.49-6.05-.99-14.26-2.33m14.26 2.33c-5.28-.86-10.56-1.73-14.26-2.33m0 0v135.56m0-135.56v135.56m0 0c6.73.62 13.47 1.23 16.84 1.54m-16.84-1.54c5.68.52 11.36 1.04 16.84 1.54M165.743 224.976c6.19.24 12.38.48 16.61.65m-16.61-.65c4.55.18 9.1.35 16.61.65m0 0c.18 28.78.36 57.57.82 132.46m-.82-132.46c.24 38.87.48 77.73.82 132.46m0 0c-5.37.69-10.74 1.39-16.32 2.11m16.32-2.11c-3.36.43-6.72.87-16.32 2.11"/><text fill="#1e1e1e" dominant-baseline="text-before-edge" font-family="Helvetica, Segoe UI Emoji" font-size="36" style="white-space:pre" transform="translate(51.811 253.844)">1     1</text><text y="41.4" fill="#1e1e1e" dominant-baseline="text-before-edge" font-family="Helvetica, Segoe UI Emoji" font-size="36" style="white-space:pre" transform="translate(51.811 253.844)">0     1</text><path fill="none" stroke="#1e1e1e" stroke-linecap="round" stroke-width="4" d="M228.31 226.72c-5.02-.82-10.03-1.64-14.26-2.33m14.26 2.33-14.26-2.33m0 0v135.56m0-135.56v135.56m0 0c3.95.36 7.9.72 16.84 1.54m-16.84-1.54 16.84 1.54M369.795 225.506c3.85.15 7.7.3 16.61.65m-16.61-.65c5.01.2 10.03.39 16.61.65m0 0c.23 37.24.46 74.49.82 132.46m-.82-132.46c.31 49.87.62 99.75.82 132.46m0 0c-6.39.83-12.78 1.65-16.32 2.11m16.32-2.11c-3.88.5-7.76 1-16.32 2.11"/><text fill="#1e1e1e" dominant-baseline="text-before-edge" font-family="Helvetica, Segoe UI Emoji" font-size="36" style="white-space:pre" transform="translate(255.864 254.373)">0    -1</text><text y="41.4" fill="#1e1e1e" dominant-baseline="text-before-edge" font-family="Helvetica, Segoe UI Emoji" font-size="36" style="white-space:pre" transform="translate(255.864 254.373)">1     0</text><path fill="none" stroke="#1e1e1e" stroke-linecap="round" stroke-width="4" d="M504.047 225.907c-2.87-.47-5.74-.94-14.26-2.33m14.26 2.33c-4.59-.75-9.17-1.5-14.26-2.33m0 0v135.56m0-135.56v135.56m0 0c3.48.32 6.96.64 16.84 1.54m-16.84-1.54c6.11.56 12.22 1.12 16.84 1.54M645.532 224.692c5.23.2 10.47.41 16.61.65m-16.61-.65c4.67.18 9.35.36 16.61.65m0 0c.33 52.96.66 105.91.82 132.46m-.82-132.46c.28 44.69.56 89.38.82 132.46m0 0c-4.23.55-8.47 1.1-16.32 2.11m16.32-2.11c-5.47.71-10.94 1.42-16.32 2.11"/><text fill="#1e1e1e" dominant-baseline="text-before-edge" font-family="Helvetica, Segoe UI Emoji" font-size="36" style="white-space:pre" transform="translate(531.6 253.56)">1    -1</text><text y="41.4" fill="#1e1e1e" dominant-baseline="text-before-edge" font-family="Helvetica, Segoe UI Emoji" font-size="36" style="white-space:pre" transform="translate(531.6 253.56)">1     0</text><text fill="#1e1e1e" dominant-baseline="text-before-edge" font-family="Helvetica, Segoe UI Emoji" font-size="36" style="white-space:pre" transform="translate(430.396 265.85)">=</text><text fill="#1e1e1e" dominant-baseline="text-before-edge" font-family="Helvetica, Segoe UI Emoji" font-size="28" style="white-space:pre" transform="translate(31.751 375.664)">Shear</text><text y="32.2" fill="#1e1e1e" dominant-baseline="text-before-edge" font-family="Helvetica, Segoe UI Emoji" font-size="28" style="white-space:pre" transform="translate(31.751 375.664)">剪切矩阵</text><text fill="#1e1e1e" dominant-baseline="text-before-edge" font-family="Helvetica, Segoe UI Emoji" font-size="28" style="white-space:pre" transform="translate(226.045 382.164)">Rotation</text><text y="32.2" fill="#1e1e1e" dominant-baseline="text-before-edge" font-family="Helvetica, Segoe UI Emoji" font-size="28" style="white-space:pre" transform="translate(226.045 382.164)">旋转矩阵</text><text fill="#1e1e1e" dominant-baseline="text-before-edge" font-family="Helvetica, Segoe UI Emoji" font-size="28" style="white-space:pre" transform="translate(487.127 379.793)">Composition</text><text y="32.2" fill="#1e1e1e" dominant-baseline="text-before-edge" font-family="Helvetica, Segoe UI Emoji" font-size="28" style="white-space:pre" transform="translate(487.127 379.793)">复合矩阵</text><text fill="#1e1e1e" dominant-baseline="text-before-edge" font-family="Cascadia, Segoe UI Emoji" font-size="36" style="white-space:pre" transform="translate(66.362 86.295)">f(g(x))</text><text fill="#1e1e1e" dominant-baseline="text-before-edge" font-family="Cascadia, Segoe UI Emoji" font-size="20" style="white-space:pre" transform="translate(75.485 10)">假设一个变换后的向量是做了</text><text y="24" fill="#1e1e1e" dominant-baseline="text-before-edge" font-family="Cascadia, Segoe UI Emoji" font-size="20" style="white-space:pre" transform="translate(75.485 10)">旋转再剪切的运动得到的结果</text><text fill="#2f9e44" dominant-baseline="text-before-edge" font-family="Cascadia, Segoe UI Emoji" font-size="28" style="white-space:pre" transform="translate(24.494 471.424)">回顾一下, 一个向量是基向量(i,j) 进行缩放后的结果</text><text y="33.6" fill="#2f9e44" dominant-baseline="text-before-edge" font-family="Cascadia, Segoe UI Emoji" font-size="28" style="white-space:pre" transform="translate(24.494 471.424)">把旋转矩阵 的新i 当成一个 向量 i2,它经过剪切后,新的基准i和j</text><text y="67.2" fill="#2f9e44" dominant-baseline="text-before-edge" font-family="Cascadia, Segoe UI Emoji" font-size="28" style="white-space:pre" transform="translate(24.494 471.424)">值,不就和前面说的操作一样.(前面提到的v=-1i+2j,-1 2不变,基准i,j变)</text><text y="100.8" fill="#2f9e44" dominant-baseline="text-before-edge" font-family="Cascadia, Segoe UI Emoji" font-size="28" style="white-space:pre" transform="translate(24.494 471.424)"> </text><text fill="#2f9e44" dominant-baseline="text-before-edge" font-family="Cascadia, Segoe UI Emoji" font-size="28" style="white-space:pre" transform="translate(30.598 637.47)">i2=</text><path fill="none" stroke="#1e1e1e" stroke-linecap="round" stroke-width="4" d="M105.376 617.909c-1.82-.3-3.64-.6-7.77-1.27m7.77 1.27c-1.56-.26-3.12-.51-7.77-1.27m0 0v73.84m0-73.84v73.84m0 0c2.01.18 4.01.36 9.18.83m-9.18-.83 9.18.83M182.436 617.247c3.54.14 7.08.28 9.05.35m-9.05-.35c2.15.08 4.3.17 9.05.35m0 0c.17 27.15.33 54.3.45 72.15m-.45-72.15c.15 24.36.3 48.72.45 72.15m0 0c-2.03.26-4.06.52-8.89 1.15m8.89-1.15c-3.38.44-6.75.87-8.89 1.15"/><text fill="#1e1e1e" dominant-baseline="text-before-edge" font-family="Helvetica, Segoe UI Emoji" font-size="19.608" style="white-space:pre" transform="translate(120.383 632.97)">1     1</text><text y="22.549" fill="#1e1e1e" dominant-baseline="text-before-edge" font-family="Helvetica, Segoe UI Emoji" font-size="19.608" style="white-space:pre" transform="translate(120.383 632.97)">0     1</text><path fill="none" stroke="#1e1e1e" stroke-linecap="round" stroke-width="4" d="M216.514 618.197c-1.61-.26-3.21-.53-7.77-1.27m7.77 1.27-7.77-1.27m0 0v73.84m0-73.84v73.84m0 0c3.36.3 6.72.61 9.18.83m-9.18-.83c2.52.23 5.04.46 9.18.83M243.66 618.1c2.35.09 4.7.18 9.05.35m-9.05-.35c3.03.12 6.06.24 9.05.35m0 0c.09 15.62.19 31.23.45 72.15m-.45-72.15c.16 26.96.33 53.93.45 72.15m0 0c-3.2.41-6.4.83-8.89 1.15m8.89-1.15c-1.93.25-3.85.5-8.89 1.15"/><text fill="#1e1e1e" dominant-baseline="text-before-edge" font-family="Helvetica, Segoe UI Emoji" font-size="19.608" style="white-space:pre" transform="translate(231.521 633.259)">0   </text><text y="22.549" fill="#1e1e1e" dominant-baseline="text-before-edge" font-family="Helvetica, Segoe UI Emoji" font-size="19.608" style="white-space:pre" transform="translate(231.521 633.259)">1     </text><text fill="#2f9e44" dominant-baseline="text-before-edge" font-family="Cascadia, Segoe UI Emoji" font-size="28" style="white-space:pre" transform="translate(275.959 641.025)">=</text><text fill="#1e1e1e" dominant-baseline="text-before-edge" font-family="Cascadia, Segoe UI Emoji" font-size="28" style="white-space:pre" transform="translate(309.744 646.885)">0</text><path fill="none" stroke="#1e1e1e" stroke-linecap="round" stroke-width="4" d="M348.487 623.19c-2.92-.48-5.84-.96-7.77-1.27m7.77 1.27c-2.62-.43-5.24-.86-7.77-1.27m0 0v73.84m0-73.84v73.84m0 0c3.27.29 6.54.59 9.18.83m-9.18-.83c2.59.23 5.17.47 9.18.83M470.279 623.536c3.43.13 6.87.27 9.05.35m-9.05-.35c2.64.1 5.28.21 9.05.35m0 0c.13 21.68.27 43.35.45 72.15m-.45-72.15c.12 20.31.25 40.62.45 72.15m0 0c-2.98.38-5.95.77-8.89 1.15m8.89-1.15c-1.87.24-3.73.48-8.89 1.15"/><text fill="#1e1e1e" dominant-baseline="text-before-edge" font-family="Helvetica, Segoe UI Emoji" font-size="19.608" style="white-space:pre" transform="translate(356.381 639.542)">1     </text><text y="22.549" fill="#1e1e1e" dominant-baseline="text-before-edge" font-family="Helvetica, Segoe UI Emoji" font-size="19.608" style="white-space:pre" transform="translate(356.381 639.542)">0     </text><path fill="none" stroke="#1e1e1e" stroke-linecap="round" stroke-width="4" d="M371.064 621.825c1.96.08 3.92.15 9.05.35m-9.05-.35c3.38.13 6.76.26 9.05.35m0 0c.16 25.95.32 51.91.45 72.15m-.45-72.15c.09 15.62.19 31.24.45 72.15m0 0c-3.41.44-6.81.88-8.89 1.15m8.89-1.15c-2.26.29-4.52.58-8.89 1.15"/><text fill="#1e1e1e" dominant-baseline="text-before-edge" font-family="Helvetica, Segoe UI Emoji" font-size="20" style="white-space:pre" transform="translate(456.571 638.765)">1</text><text y="23" fill="#1e1e1e" dominant-baseline="text-before-edge" font-family="Helvetica, Segoe UI Emoji" font-size="20" style="white-space:pre" transform="translate(456.571 638.765)">1</text><path fill="none" stroke="#1e1e1e" stroke-linecap="round" stroke-width="4" d="m452.185 624.155-7.77-1.27m7.77 1.27c-1.65-.27-3.31-.54-7.77-1.27m0 0v73.84m0-73.84v73.84m0 0c2.17.19 4.34.39 9.18.83m-9.18-.83 9.18.83"/><text fill="#1e1e1e" dominant-baseline="text-before-edge" font-family="Helvetica, Segoe UI Emoji" font-size="28" style="white-space:pre" transform="translate(394.176 647.778)">+ 1</text><text fill="#1e1e1e" dominant-baseline="text-before-edge" font-family="Helvetica, Segoe UI Emoji" font-size="28" style="white-space:pre" transform="translate(500.069 644.828)">=</text><path fill="none" stroke="#1e1e1e" stroke-linecap="round" stroke-width="4" d="M555.858 623.94c2.72.11 5.44.21 9.05.35m-9.05-.35c2.55.1 5.09.2 9.05.35m0 0 .45 72.15m-.45-72.15c.09 15.11.18 30.22.45 72.15m0 0c-2.95.38-5.89.76-8.89 1.15m8.89-1.15c-2.7.35-5.4.7-8.89 1.15"/><text fill="#1e1e1e" dominant-baseline="text-before-edge" font-family="Helvetica, Segoe UI Emoji" font-size="20" style="white-space:pre" transform="translate(542.15 639.17)">1</text><text y="23" fill="#1e1e1e" dominant-baseline="text-before-edge" font-family="Helvetica, Segoe UI Emoji" font-size="20" style="white-space:pre" transform="translate(542.15 639.17)">1</text><path fill="none" stroke="#1e1e1e" stroke-linecap="round" stroke-width="4" d="M537.765 624.56c-2.79-.46-5.59-.91-7.77-1.27m7.77 1.27c-1.68-.27-3.36-.55-7.77-1.27m0 0v73.84m0-73.84v73.84m0 0c2.03.18 4.05.37 9.18.83m-9.18-.83c2.44.22 4.88.44 9.18.83"/><text fill="#2f9e44" dominant-baseline="text-before-edge" font-family="Cascadia, Segoe UI Emoji" font-size="28" style="white-space:pre" transform="translate(36.724 733.752)">j2=</text><path fill="none" stroke="#1e1e1e" stroke-linecap="round" stroke-width="4" d="M111.502 714.19c-2.06-.34-4.13-.67-7.77-1.27m7.77 1.27c-2.64-.43-5.28-.86-7.77-1.27m0 0v73.84m0-73.84v73.84m0 0c3.37.3 6.73.61 9.18.83m-9.18-.83 9.18.83M188.562 713.53c2.09.08 4.18.16 9.05.35m-9.05-.35c1.9.07 3.8.15 9.05.35m0 0c.15 25.03.31 50.05.45 72.15m-.45-72.15c.16 26.96.33 53.91.45 72.15m0 0c-2.76.35-5.51.71-8.89 1.15m8.89-1.15c-3.15.41-6.3.81-8.89 1.15"/><text fill="#1e1e1e" dominant-baseline="text-before-edge" font-family="Helvetica, Segoe UI Emoji" font-size="19.608" style="white-space:pre" transform="translate(126.509 729.252)">1     1</text><text y="22.549" fill="#1e1e1e" dominant-baseline="text-before-edge" font-family="Helvetica, Segoe UI Emoji" font-size="19.608" style="white-space:pre" transform="translate(126.509 729.252)">0     1</text><path fill="none" stroke="#1e1e1e" stroke-linecap="round" stroke-width="4" d="M222.64 714.48c-2.6-.42-5.19-.85-7.77-1.27m7.77 1.27c-1.63-.27-3.25-.53-7.77-1.27m0 0v73.84m0-73.84v73.84m0 0c2.71.24 5.41.49 9.18.83m-9.18-.83c2.46.22 4.92.44 9.18.83M249.786 714.382c2.15.08 4.31.17 9.05.35m-9.05-.35c2.73.11 5.45.21 9.05.35m0 0c.15 24.81.31 49.61.45 72.15m-.45-72.15c.17 27.99.34 55.98.45 72.15m0 0-8.89 1.15m8.89-1.15c-2.42.31-4.83.62-8.89 1.15"/><text fill="#1e1e1e" dominant-baseline="text-before-edge" font-family="Helvetica, Segoe UI Emoji" font-size="19.608" style="white-space:pre" transform="translate(229.174 729.54)">-1   </text><text y="22.549" fill="#1e1e1e" dominant-baseline="text-before-edge" font-family="Helvetica, Segoe UI Emoji" font-size="19.608" style="white-space:pre" transform="translate(229.174 729.54)">0</text><text fill="#2f9e44" dominant-baseline="text-before-edge" font-family="Cascadia, Segoe UI Emoji" font-size="28" style="white-space:pre" transform="translate(282.085 737.307)">=</text><text fill="#1e1e1e" dominant-baseline="text-before-edge" font-family="Cascadia, Segoe UI Emoji" font-size="28" style="white-space:pre" transform="translate(301.85 739.099)">-1</text><path fill="none" stroke="#1e1e1e" stroke-linecap="round" stroke-width="4" d="m354.612 719.472-7.77-1.27m7.77 1.27c-2.9-.47-5.8-.95-7.77-1.27m0 0v73.84m0-73.84v73.84m0 0c3.04.27 6.07.55 9.18.83m-9.18-.83c2.24.2 4.48.4 9.18.83M476.404 719.818c2.03.08 4.06.16 9.05.35m-9.05-.35c3.07.12 6.13.24 9.05.35m0 0c.17 28.03.35 56.06.45 72.15m-.45-72.15c.17 27.86.34 55.72.45 72.15m0 0c-2.96.38-5.92.76-8.89 1.15m8.89-1.15c-3.2.41-6.4.83-8.89 1.15"/><text fill="#1e1e1e" dominant-baseline="text-before-edge" font-family="Helvetica, Segoe UI Emoji" font-size="19.608" style="white-space:pre" transform="translate(362.507 735.824)">1     </text><text y="22.549" fill="#1e1e1e" dominant-baseline="text-before-edge" font-family="Helvetica, Segoe UI Emoji" font-size="19.608" style="white-space:pre" transform="translate(362.507 735.824)">0     </text><path fill="none" stroke="#1e1e1e" stroke-linecap="round" stroke-width="4" d="m377.19 718.107 9.05.35m-9.05-.35c3.51.14 7.02.27 9.05.35m0 0c.16 26.96.33 53.93.45 72.15m-.45-72.15c.12 19.58.24 39.16.45 72.15m0 0c-2.43.31-4.86.63-8.89 1.15m8.89-1.15c-2.36.3-4.72.61-8.89 1.15"/><text fill="#1e1e1e" dominant-baseline="text-before-edge" font-family="Helvetica, Segoe UI Emoji" font-size="20" style="white-space:pre" transform="translate(462.697 735.047)">1</text><text y="23" fill="#1e1e1e" dominant-baseline="text-before-edge" font-family="Helvetica, Segoe UI Emoji" font-size="20" style="white-space:pre" transform="translate(462.697 735.047)">1</text><path fill="none" stroke="#1e1e1e" stroke-linecap="round" stroke-width="4" d="M458.311 720.437c-2.02-.33-4.05-.66-7.77-1.27m7.77 1.27c-2.32-.38-4.64-.76-7.77-1.27m0 0v73.84m0-73.84v73.84m0 0 9.18.83m-9.18-.83c2.44.22 4.88.44 9.18.83"/><text fill="#1e1e1e" dominant-baseline="text-before-edge" font-family="Helvetica, Segoe UI Emoji" font-size="28" style="white-space:pre" transform="translate(400.302 744.06)">+ 0</text><text fill="#1e1e1e" dominant-baseline="text-before-edge" font-family="Helvetica, Segoe UI Emoji" font-size="28" style="white-space:pre" transform="translate(506.195 741.11)">=</text><path fill="none" stroke="#1e1e1e" stroke-linecap="round" stroke-width="4" d="M561.984 720.222c3.51.14 7.03.27 9.05.35m-9.05-.35c3.49.14 6.99.27 9.05.35m0 0 .45 72.15m-.45-72.15c.16 25.95.32 51.9.45 72.15m0 0c-2.75.35-5.5.71-8.89 1.15m8.89-1.15-8.89 1.15"/><text fill="#1e1e1e" dominant-baseline="text-before-edge" font-family="Helvetica, Segoe UI Emoji" font-size="20" style="white-space:pre" transform="translate(548.277 735.452)">-1</text><text y="23" fill="#1e1e1e" dominant-baseline="text-before-edge" font-family="Helvetica, Segoe UI Emoji" font-size="20" style="white-space:pre" transform="translate(548.277 735.452)">0</text><path fill="none" stroke="#1e1e1e" stroke-linecap="round" stroke-width="4" d="M543.891 720.842c-2.9-.47-5.8-.95-7.77-1.27m7.77 1.27c-2.11-.34-4.22-.69-7.77-1.27m0 0v73.84m0-73.84v73.84m0 0c2.55.23 5.1.46 9.18.83m-9.18-.83c2.05.18 4.1.37 9.18.83M589.413 659.225c20.37 11.68 40.75 23.37 70.74 40.57m-70.74-40.57c27.15 15.57 54.29 31.14 70.74 40.57m0 0c-20.61 17.11-41.22 34.23-65.2 54.15m65.2-54.15c-16.59 13.77-33.18 27.55-65.2 54.15M684.285 651.374c-2.88-.47-5.77-.94-10.33-1.69m10.33 1.69c-2.52-.41-5.03-.82-10.33-1.69m0 0v98.2m0-98.2v98.2m0 0c4.75.44 9.5.87 12.2 1.12m-12.2-1.12 12.2 1.12M786.775 650.494c2.78.11 5.55.22 12.03.47m-12.03-.47c3.35.13 6.71.26 12.03.47m0 0c.15 23.52.29 47.03.6 95.95m-.6-95.95c.18 29.12.36 58.24.6 95.95m0 0c-3.61.47-7.22.94-11.82 1.53m11.82-1.53c-3.58.47-7.15.93-11.82 1.53"/><text fill="#1e1e1e" dominant-baseline="text-before-edge" font-family="Helvetica, Segoe UI Emoji" font-size="26.078" style="white-space:pre" transform="translate(704.244 671.406)">1    -1</text><text y="29.99" fill="#1e1e1e" dominant-baseline="text-before-edge" font-family="Helvetica, Segoe UI Emoji" font-size="26.078" style="white-space:pre" transform="translate(704.244 671.406)">1     0</text><text fill="#1e1e1e" dominant-baseline="text-before-edge" font-family="Helvetica, Segoe UI Emoji" font-size="20.283" style="white-space:pre" transform="translate(672.028 762.848)">Composition</text><text y="23.325" fill="#1e1e1e" dominant-baseline="text-before-edge" font-family="Helvetica, Segoe UI Emoji" font-size="20.283" style="white-space:pre" transform="translate(672.028 762.848)">复合矩阵</text><path fill="none" stroke="#1e1e1e" stroke-linecap="round" stroke-width="4" d="M72.9 828.145c-3.16-.52-6.32-1.03-14.26-2.33m14.26 2.33c-3.51-.57-7.03-1.15-14.26-2.33m0 0v135.56m0-135.56v135.56m0 0c5.63.52 11.27 1.03 16.84 1.54m-16.84-1.54c6.65.61 13.3 1.22 16.84 1.54M214.385 826.93c4.53.18 9.06.35 16.61.65m-16.61-.65c4.41.17 8.82.34 16.61.65m0 0c.23 36.82.46 73.65.82 132.46m-.82-132.46c.18 29.57.37 59.15.82 132.46m0 0c-5.79.75-11.59 1.5-16.32 2.11m16.32-2.11c-4.9.63-9.8 1.27-16.32 2.11"/><text fill="#1e1e1e" dominant-baseline="text-before-edge" font-family="Helvetica, Segoe UI Emoji" font-size="36" style="white-space:pre" transform="translate(100.453 855.799)">a     b</text><text y="41.4" fill="#1e1e1e" dominant-baseline="text-before-edge" font-family="Helvetica, Segoe UI Emoji" font-size="36" style="white-space:pre" transform="translate(100.453 855.799)">c     d</text><path fill="none" stroke="#1e1e1e" stroke-linecap="round" stroke-width="4" d="M276.953 828.675c-5.68-.93-11.35-1.86-14.26-2.33m14.26 2.33c-3.79-.62-7.58-1.24-14.26-2.33m0 0v135.56m0-135.56v135.56m0 0c4.69.43 9.38.86 16.84 1.54m-16.84-1.54c5.77.53 11.53 1.05 16.84 1.54M418.438 827.46c4.07.16 8.14.32 16.61.65m-16.61-.65c5.04.2 10.08.39 16.61.65m0 0 .82 132.46m-.82-132.46c.25 40.05.5 80.1.82 132.46m0 0c-3.66.47-7.32.95-16.32 2.11m16.32-2.11c-5.55.72-11.1 1.44-16.32 2.11"/><text fill="#1e1e1e" dominant-baseline="text-before-edge" font-family="Helvetica, Segoe UI Emoji" font-size="36" style="white-space:pre" transform="translate(304.506 856.328)">e     f</text><text y="41.4" fill="#1e1e1e" dominant-baseline="text-before-edge" font-family="Helvetica, Segoe UI Emoji" font-size="36" style="white-space:pre" transform="translate(304.506 856.328)">g     h</text><path fill="none" stroke="#1e1e1e" stroke-linecap="round" stroke-width="4" d="M552.69 827.862c-4.41-.72-8.82-1.44-14.26-2.33m14.26 2.33c-3.71-.61-7.43-1.22-14.26-2.33m0 0v135.56m0-135.56v135.56m0 0c3.77.35 7.54.69 16.84 1.54m-16.84-1.54c5.81.53 11.62 1.06 16.84 1.54M839.279 828.664l16.61.65m-16.61-.65 16.61.65m0 0c.28 44.31.55 88.62.82 132.46m-.82-132.46c.33 52.3.65 104.6.82 132.46m0 0-16.32 2.11m16.32-2.11c-5.09.66-10.18 1.32-16.32 2.11"/><text fill="#1e1e1e" dominant-baseline="text-before-edge" font-family="Helvetica, Segoe UI Emoji" font-size="36" style="white-space:pre" transform="translate(580.243 855.515)">a*e+bg    af+bh</text><text y="41.4" fill="#1e1e1e" dominant-baseline="text-before-edge" font-family="Helvetica, Segoe UI Emoji" font-size="36" style="white-space:pre" transform="translate(580.243 855.515)">ce+dg     cf+dh</text><text fill="#1e1e1e" dominant-baseline="text-before-edge" font-family="Helvetica, Segoe UI Emoji" font-size="36" style="white-space:pre" transform="translate(479.039 867.804)">=</text></svg>