<svg xmlns="http://www.w3.org/2000/svg" preserveAspectRatio="xMinYMin meet" viewBox="0 0 1389 316"><svg id="d2-svg" width="1389" height="316" class="d2-3835610392" viewBox="0 0 1389 316"><rect width="1389" height="316" stroke-width="0" rx="0" style="fill:#fff"/><style>.d2-3835610392 .text-mono{font-family:&quot;d2-3835610392-font-mono&quot;}@font-face{font-family:d2-3835610392-font-mono;src:url(/stylesheets/font/Virgil-hand.woff2)}.d2-3835610392 .text-mono-bold{font-family:&quot;d2-3835610392-font-mono-bold&quot;}@font-face{font-family:d2-3835610392-font-mono-bold;src:url(/stylesheets/font/Virgil-hand.woff2)}.d2-3835610392 .text-mono-italic{font-family:&quot;d2-3835610392-font-mono-italic&quot;}@font-face{font-family:d2-3835610392-font-mono-italic;src:url(/stylesheets/font/Virgil-hand.woff2)}.shape{shape-rendering:geometricPrecision;stroke-linejoin:round}.d2-3835610392 .fill-N1{fill:#000410}.d2-3835610392 .fill-B5{fill:#f5f6f9}.d2-3835610392 .fill-B6{fill:#fff}.d2-3835610392 .stroke-B1,.d2-3835610392 .stroke-N1{stroke:#000410}@media screen and (prefers-color-scheme:dark){.d2-3835610392 .fill-N1{fill:#cdd6f4}.d2-3835610392 .fill-B5{fill:#45475a}.d2-3835610392 .fill-B6{fill:#313244}.d2-3835610392 .stroke-N1{stroke:#cdd6f4}.d2-3835610392 .stroke-B1{stroke:#cba6f7}}.dots-overlay{fill:url(#dots);mix-blend-mode:multiply}</style><defs><pattern id="dots" width="15" height="15" x="0" y="0" patternUnits="userSpaceOnUse"><path fill="#0A0F25" d="M2 2h1v1H2zM12 2h1v1h-1zM12 12h1v1h-1zM2 12h1v1H2zM2 7h1v1H2zM12 7h1v1h-1zM7 2h1v1H7zM7 12h1v1H7zM7 7h1v1H7z" opacity=".1" style="mix-blend-mode:multiply"/></pattern></defs><defs><filter id="shadow-filter" width="200%" height="200%" x="-50%" y="-50%"><feGaussianBlur in="SourceGraphic" stdDeviation="1.7"/><feFlood flood-color="#3d4574" flood-opacity=".4" result="ShadowFeFlood"/><feComposite in="ShadowFeFlood" in2="SourceAlpha" operator="in" result="ShadowFeComposite"/><feOffset dx="3" dy="5" in="ShadowFeComposite" result="ShadowFeOffset"/><feBlend in="SourceGraphic" in2="ShadowFeOffset" result="ShadowFeBlend"/></filter></defs><g id="a" class="empty"><g class="shape"><path fill="transparent" d="M0 0h385v316H0z" class="stroke-B1" style="stroke-width:0"/><path d="M0 0h385v316H0z" class="dots-overlay" style="stroke-width:0"/><path fill="transparent" d="M5 5h375v306H5z" class="stroke-B1" style="stroke-width:0"/></g></g><g id="mid-col" class="empty"><g class="shape"><path fill="transparent" d="M425 0h960v316H425z" class="stroke-B1" style="stroke-width:0"/><path d="M425 0h960v316H425z" class="dots-overlay" style="stroke-width:0"/><path fill="transparent" d="M430 5h950v306H430z" class="stroke-B1" style="stroke-width:0"/></g></g><g id="a.aa" class="empty"><g class="shape"><path fill="transparent" d="M10 70h365v73H10z" class="stroke-B1" style="stroke-width:0"/></g><text x="192.5" y="170" class="text-mono-bold fill-N1" style="text-anchor:middle;font-size:22px">枚举不同变体内存占用情况</text></g><g id="a.left-col"><g style="display:block"><path d="M0 0h365v120H0z" class="shape stroke-N1" style="fill:#fff;stroke-width:2" transform="translate(10 186)"/><text y="1em" class="text-mono" transform="translate(18 194)"><tspan class="text-mono-bold">enum</tspan> <tspan fill="#458" class="text-mono-bold">Cat</tspan><tspan fill="#bbb"> </tspan>{<tspan fill="#bbb">
</tspan></text><text y="2.3em" class="text-mono" transform="translate(18 194)"><tspan fill="#bbb">    </tspan>Tiger(<tspan fill="#458" class="text-mono-bold">i32</tspan>),<tspan fill="#bbb"> </tspan><tspan fill="#998" class="text-mono-italic">// tag =0
</tspan></text><text y="3.6em" class="text-mono" transform="translate(18 194)"><tspan fill="#bbb">    </tspan>Lion(<tspan fill="#458" class="text-mono-bold">i8</tspan>),<tspan fill="#bbb">   </tspan><tspan fill="#998" class="text-mono-italic">// tag =1
</tspan></text><text y="4.9em" class="text-mono" transform="translate(18 194)"><tspan fill="#bbb">    </tspan>Dog(<tspan fill="#458" class="text-mono-bold">i16</tspan>),<tspan fill="#bbb">   </tspan><tspan fill="#998" class="text-mono-italic">// tag =2
</tspan></text><text y="6.2em" class="text-mono" transform="translate(18 194)">}</text></g></g><g id="mid-col.tiger"><g class="shape" filter="url(#shadow-filter)"><rect width="960" height="30" x="425" y="36" class="stroke-B1 fill-B5" rx="10" style="stroke-width:2"/><rect width="960" height="30" x="425" y="36" class="dots-overlay" rx="10" style="stroke-width:2"/></g><text x="1345" y="24" class="text-mono fill-N1" style="text-anchor:middle;font-size:24px">tiger</text></g><g id="mid-col.bb" class="empty"><g class="shape"><path fill="transparent" d="M425 66h960v56H425z" class="stroke-B1" style="stroke-width:0"/><path d="M425 66h960v56H425z" class="dots-overlay" style="stroke-width:0"/></g></g><g id="mid-col.tiger2"><g class="shape" filter="url(#shadow-filter)"><rect width="960" height="30" x="425" y="158" class="stroke-B1 fill-B5" rx="10" style="stroke-width:2"/><rect width="960" height="30" x="425" y="158" class="dots-overlay" rx="10" style="stroke-width:2"/></g><text x="1337.5" y="146" class="text-mono fill-N1" style="text-anchor:middle;font-size:24px">tiger2</text></g><g id="mid-col.tiger.&quot;cap:10&quot;"><g class="shape"><path d="M425 36h320v30H425z" class="stroke-B1 fill-B6" style="stroke-width:2"/></g><text x="585" y="56.5" class="text-mono-bold fill-N1" style="text-anchor:middle;font-size:16px">CAP:10</text></g><g id="mid-col.tiger.ptr"><g class="shape"><path d="M745 36h320v30H745z" class="stroke-B1 fill-B6" style="stroke-width:2"/></g><text x="905" y="56.5" class="text-mono-bold fill-N1" style="text-anchor:middle;font-size:16px">PTR</text></g><g id="mid-col.tiger.&quot;len:6&quot;"><g class="shape"><path d="M1065 36h320v30h-320z" class="stroke-B1 fill-B6" style="stroke-width:2"/></g><text x="1225" y="56.5" class="text-mono-bold fill-N1" style="text-anchor:middle;font-size:16px">LEN:6</text></g><g id="mid-col.bb.102" class="invisible2"><g class="shape"><path fill="transparent" d="M425 92h320v30H425z" class="stroke-B1" style="stroke-width:0"/></g><text x="726" y="82" class="text-mono-bold fill-N1" style="text-anchor:middle;font-size:16px">102</text></g><g id="mid-col.bb.p2" class="invisible2"><g class="shape"><path fill="transparent" d="M745 92h320v30H745z" class="stroke-B1" style="stroke-width:0"/></g><text x="1051" y="82" class="text-mono-bold fill-N1" style="text-anchor:middle;font-size:16px">P2</text></g><g id="mid-col.bb.p3" class="invisible2"><g class="shape"><path fill="transparent" d="M1065 92h320v30h-320z" class="stroke-B1" style="stroke-width:0"/></g><text x="1371" y="82" class="text-mono-bold fill-N1" style="text-anchor:middle;font-size:16px">12</text></g><g id="mid-col.tiger2.&quot;cap:10&quot;"><g class="shape"><path d="M425 158h320v30H425z" class="stroke-B1 fill-B6" style="stroke-width:2"/></g><text x="585" y="178.5" class="text-mono-bold fill-N1" style="text-anchor:middle;font-size:16px">CAP:10</text></g><g id="mid-col.tiger2.ptr"><g class="shape"><path d="M745 158h320v30H745z" class="stroke-B1 fill-B6" style="stroke-width:2"/></g><text x="905" y="178.5" class="text-mono-bold fill-N1" style="text-anchor:middle;font-size:16px">PTR</text></g><g id="mid-col.tiger2.0x80"><g class="shape"><path d="M1065 158h40v30h-40z" class="stroke-B1 fill-B6" style="stroke-width:2"/></g><text x="1085" y="178.5" class="text-mono-bold fill-N1" style="text-anchor:middle;font-size:16px">0X80</text></g><g id="mid-col.tiger2.1"><g class="shape"><path d="M1105 158h280v30h-280z" class="stroke-B1 fill-B6" style="stroke-width:2"/></g><text x="1245" y="178.5" class="text-mono-bold fill-N1" style="text-anchor:middle;font-size:16px">1</text></g><mask id="d2-3835610392" width="1389" height="316" x="0" y="0" maskUnits="userSpaceOnUse"><path fill="#fff" d="M0 0h1389v316H0z"/><path fill="rgba(0,0,0,0.75)" d="M32.5 148h320v28h-320zM10 186h240v104H10zM1310 0h70v31h-70zM1295 122h85v31h-85zM556.5 40.5h57v21h-57zM890.5 40.5h29v21h-29zM1201.5 40.5h47v21h-47zM712 66h28v21h-28zM1042 66h18v21h-18zM1362 66h18v21h-18zM556.5 162.5h57v21h-57zM890.5 162.5h29v21h-29zM1066 162.5h38v21h-38zM1241 162.5h8v21h-8z"/></mask></svg></svg>