<svg xmlns="http://www.w3.org/2000/svg" preserveAspectRatio="xMinYMin meet" viewBox="0 0 643 582"><svg id="d2-svg" width="643" height="582" class="d2-2238736364" viewBox="-1 -1 643 582"><rect width="643" height="582" x="-1" y="-1" stroke-width="0" rx="0" style="fill:#fff"/><style>.d2-2238736364 .text-mono{font-family:&quot;d2-2238736364-font-mono&quot;}@font-face{font-family:d2-2238736364-font-mono;src:url(/stylesheets/font/Virgil-hand.woff2)}.d2-2238736364 .text-mono-bold{font-family:&quot;d2-2238736364-font-mono-bold&quot;}@font-face{font-family:d2-2238736364-font-mono-bold;src:url(/stylesheets/font/Virgil-hand.woff2)}.d2-2238736364 .text-mono-italic{font-family:&quot;d2-2238736364-font-mono-italic&quot;}@font-face{font-family:d2-2238736364-font-mono-italic;src:url(/stylesheets/font/Virgil-hand.woff2)}.connection,.shape{stroke-linejoin:round}.shape{shape-rendering:geometricPrecision}.connection{stroke-linecap:round}.d2-2238736364 .fill-N1,.d2-2238736364 .fill-N2{fill:#000410}.d2-2238736364 .stroke-B1,.d2-2238736364 .stroke-B2,.d2-2238736364 .stroke-N1{stroke:#000410}@media screen and (prefers-color-scheme:dark){.d2-2238736364 .fill-N1{fill:#cdd6f4}.d2-2238736364 .fill-N2{fill:#bac2de}.d2-2238736364 .stroke-N1{stroke:#cdd6f4}.d2-2238736364 .stroke-B1,.d2-2238736364 .stroke-B2{stroke:#cba6f7}}.dots-overlay{fill:url(#dots);mix-blend-mode:multiply}</style><defs><pattern id="dots" width="15" height="15" x="0" y="0" patternUnits="userSpaceOnUse"><path fill="#0A0F25" d="M2 2h1v1H2zM12 2h1v1h-1zM12 12h1v1h-1zM2 12h1v1H2zM2 7h1v1H2zM12 7h1v1h-1zM7 2h1v1H7zM7 12h1v1H7zM7 7h1v1H7z" opacity=".1" style="mix-blend-mode:multiply"/></pattern></defs><defs><filter id="shadow-filter" width="200%" height="200%" x="-50%" y="-50%"><feGaussianBlur in="SourceGraphic" stdDeviation="1.7"/><feFlood flood-color="#3d4574" flood-opacity=".4" result="ShadowFeFlood"/><feComposite in="ShadowFeFlood" in2="SourceAlpha" operator="in" result="ShadowFeComposite"/><feOffset dx="3" dy="5" in="ShadowFeComposite" result="ShadowFeOffset"/><feBlend in="SourceGraphic" in2="ShadowFeOffset" result="ShadowFeBlend"/></filter></defs><g id="top-row" class="empty"><g class="shape"><path fill="transparent" d="M0 0h639v576H0z" class="stroke-B1" style="stroke-width:0"/><path d="M0 0h639v576H0z" class="dots-overlay" style="stroke-width:0"/><path fill="transparent" d="M5 5h629v566H5z" class="stroke-B1" style="stroke-width:0"/></g></g><g id="top-row.code-info" class="empty"><g class="shape"><path fill="transparent" d="M0 0h285v576H0z" class="stroke-B1" style="stroke-width:0"/><path d="M0 0h285v576H0z" class="dots-overlay" style="stroke-width:0"/></g></g><g id="top-row.stack" class="empty"><g class="shape"><path fill="transparent" d="M285 0h154v576H285z" class="stroke-B1" style="stroke-width:0"/><path d="M285 0h154v576H285z" class="dots-overlay" style="stroke-width:0"/></g></g><g id="top-row.dot-container2" class="empty"><g class="shape"><path fill="transparent" d="M439 0h100v576H439z" class="stroke-B1" style="stroke-width:0"/><path d="M439 0h100v576H439z" class="dots-overlay" style="stroke-width:0"/></g></g><g id="top-row.mem" class="empty"><g class="shape"><path fill="transparent" d="M539 0h100v576H539z" class="stroke-B1" style="stroke-width:0"/><path d="M539 0h100v576H539z" class="dots-overlay" style="stroke-width:0"/></g></g><g id="top-row.code-info.hide0" class="empty"><g class="shape"><path fill="transparent" d="M0 0h285v200H0z" class="stroke-B1" style="stroke-width:0"/></g></g><g id="top-row.code-info.code"><g style="display:block"><path d="M0 0h285v78H0z" class="shape stroke-N1" style="fill:#fff;stroke-width:2" transform="translate(0 200)"/><text y="1em" class="text-mono" transform="translate(8 208)"><tspan class="text-mono-bold">let</tspan><tspan fill="#bbb"> </tspan>a<tspan fill="#bbb"> </tspan><tspan class="text-mono-bold">=</tspan><tspan fill="#bbb"> </tspan><tspan fill="#d14">&quot;</tspan><tspan fill="#d14">hello</tspan><tspan fill="#d14">&quot;</tspan>;<tspan fill="#bbb">
</tspan></text><text y="2.3em" class="text-mono" transform="translate(8 208)"><tspan class="text-mono-bold">let</tspan><tspan fill="#bbb"> </tspan>b<tspan fill="#bbb"> </tspan><tspan class="text-mono-bold">=</tspan><tspan fill="#bbb"> </tspan><tspan fill="#d14">&quot;</tspan><tspan fill="#d14">world</tspan><tspan fill="#d14">&quot;</tspan>.to_string();<tspan fill="#bbb">
</tspan></text><text y="3.6em" class="text-mono" transform="translate(8 208)"><tspan class="text-mono-bold">let</tspan><tspan fill="#bbb"> </tspan>e<tspan fill="#bbb"> </tspan><tspan class="text-mono-bold">=</tspan><tspan fill="#bbb"> </tspan><tspan class="text-mono-bold">&amp;</tspan>b[<tspan fill="#099">1</tspan><tspan class="text-mono-bold">..</tspan>];</text></g></g><g id="top-row.stack.e" class="label-container"><g class="shape"><path fill="transparent" d="M285 0h54v160h-54z" class="stroke-B1" style="stroke-width:0"/></g><text x="329.5" y="150" class="text-mono-bold fill-N1" style="text-anchor:middle;font-size:16px">e</text></g><g id="top-row.stack._e" class="empty"><g class="shape" filter="url(#shadow-filter)"><path fill="transparent" d="M339 0h100v160H339z" class="stroke-B1" style="stroke-width:0"/><path d="M339 0h100v160H339z" class="dots-overlay" style="stroke-width:0"/></g></g><g id="top-row.stack.b" class="label-container"><g class="shape"><path fill="transparent" d="M285 160h54v160h-54z" class="stroke-B1" style="stroke-width:0"/></g><text x="330" y="310" class="text-mono-bold fill-N1" style="text-anchor:middle;font-size:16px">b</text></g><g id="top-row.stack._b" class="empty"><g class="shape"><path fill="transparent" d="M339 160h100v160H339z" class="stroke-B1" style="stroke-width:0"/><path d="M339 160h100v160H339z" class="dots-overlay" style="stroke-width:0"/></g></g><g id="top-row.stack.a" class="label-container"><g class="shape"><path fill="transparent" d="M285 320h54v120h-54z" class="stroke-B1" style="stroke-width:0"/></g><text x="329.5" y="430" class="text-mono-bold fill-N1" style="text-anchor:middle;font-size:16px">a</text></g><g id="top-row.stack._a" class="empty"><g class="shape" filter="url(#shadow-filter)"><path fill="transparent" d="M339 320h100v120H339z" class="stroke-B1" style="stroke-width:0"/><path d="M339 320h100v120H339z" class="dots-overlay" style="stroke-width:0"/></g></g><g id="top-row.dot-container2.hide2" class="empty"><g class="shape"><path fill="transparent" d="M439 0h100v140H439z" class="stroke-B1" style="stroke-width:0"/></g></g><g id="top-row.dot-container2.dot2" class="empty"><g class="shape"><path fill="transparent" d="M439 140h100v70H439z" class="stroke-B1" style="stroke-width:0"/><path d="M439 140h100v70H439z" class="dots-overlay" style="stroke-width:0"/></g></g><g id="top-row.dot-container2.hide3" class="empty"><g class="shape"><path fill="transparent" d="M439 210h100v175H439z" class="stroke-B1" style="stroke-width:0"/></g></g><g id="top-row.dot-container2.dot3" class="empty"><g class="shape"><path fill="transparent" d="M439 385h100v70H439z" class="stroke-B1" style="stroke-width:0"/><path d="M439 385h100v70H439z" class="dots-overlay" style="stroke-width:0"/></g></g><g id="top-row.mem.heap" class="empty"><g class="shape" filter="url(#shadow-filter)"><path fill="transparent" d="M539 0h100v265H539z" class="stroke-B1" style="stroke-width:0"/><path d="M539 0h100v265H539z" class="dots-overlay" style="stroke-width:0"/></g></g><g id="top-row.mem.static" class="empty"><g class="shape" filter="url(#shadow-filter)"><path fill="transparent" d="M539 265h100v311H539z" class="stroke-B1" style="stroke-width:0"/><path d="M539 265h100v311H539z" class="dots-overlay" style="stroke-width:0"/></g></g><g id="top-row.stack._e.栈"><g class="shape"><path fill="#fff" d="M340 0h78c1 0 2 0 3 1l17 16c1 1 1 2 1 3v20H339V0z" class="stroke-B1" style="stroke-width:2"/><path fill="#fff" d="M438 40h-98c-1 0-1 0-1-1V1c0-1 0-1 1-1h77c1 0 1 0 1 1v17c0 1 1 2 2 2h18c1 0 1 0 1 1v18c-1 1 0 1-1 1Z" class="stroke-B1" style="stroke-width:2"/></g><text x="355" y="30" class="text-mono-bold fill-N1" style="text-anchor:middle;font-size:18px">栈</text></g><g id="top-row.stack._e.&quot;...&quot;"><g class="shape"><path fill="transparent" d="M339 40h100v40H339z" class="stroke-B1" style="stroke-width:2"/></g><text x="389" y="65.5" class="text-mono-bold fill-N1" style="text-anchor:middle;font-size:16px">...</text></g><g id="top-row.stack._e.len"><g class="shape"><path fill="#e0ffff" d="M339 80h100v40H339z" class="stroke-B1" style="stroke-width:2"/></g><text x="389" y="105.5" class="text-mono-bold fill-N1" style="text-anchor:middle;font-size:16px">len</text></g><g id="top-row.stack._e.ptr"><g class="shape"><path fill="#e0ffff" d="M339 120h100v40H339z" class="stroke-B1" style="stroke-width:2"/></g><text x="389" y="145.5" class="text-mono-bold fill-N1" style="text-anchor:middle;font-size:16px">ptr</text></g><g id="top-row.stack._b.&quot;...&quot;"><g class="shape"><path fill="transparent" d="M339 160h100v40H339z" class="stroke-B1" style="stroke-width:2"/></g><text x="389" y="185.5" class="text-mono-bold fill-N1" style="text-anchor:middle;font-size:16px">...</text></g><g id="top-row.stack._b.len"><g class="shape"><path fill="#ffffe0" d="M339 200h100v40H339z" class="stroke-B1" style="stroke-width:2"/></g><text x="389" y="225.5" class="text-mono-bold fill-N1" style="text-anchor:middle;font-size:16px">len</text></g><g id="top-row.stack._b.ptr"><g class="shape"><path fill="#ffffe0" d="M339 240h100v40H339z" class="stroke-B1" style="stroke-width:2"/></g><text x="389" y="265.5" class="text-mono-bold fill-N1" style="text-anchor:middle;font-size:16px">ptr</text></g><g id="top-row.stack._b.capacity"><g class="shape"><path fill="#ffffe0" d="M339 280h100v40H339z" class="stroke-B1" style="stroke-width:2"/></g><text x="389" y="305.5" class="text-mono-bold fill-N1" style="text-anchor:middle;font-size:16px">capacity</text></g><g id="top-row.stack._a.&quot;...&quot;"><g class="shape"><path fill="transparent" d="M339 320h100v40H339z" class="stroke-B1" style="stroke-width:2"/></g><text x="389" y="345.5" class="text-mono-bold fill-N1" style="text-anchor:middle;font-size:16px">...</text></g><g id="top-row.stack._a.len"><g class="shape"><path fill="#f0fff0" d="M339 360h100v40H339z" class="stroke-B1" style="stroke-width:2"/></g><text x="389" y="385.5" class="text-mono-bold fill-N1" style="text-anchor:middle;font-size:16px">len</text></g><g id="top-row.stack._a.ptr"><g class="shape"><path fill="#f0fff0" d="M339 400h100v40H339z" class="stroke-B1" style="stroke-width:2"/></g><text x="389" y="425.5" class="text-mono-bold fill-N1" style="text-anchor:middle;font-size:16px">ptr</text></g><g id="top-row.mem.heap.堆"><g class="shape"><path fill="#fff" d="M540 0h78c1 0 2 0 3 1l17 16c1 1 1 2 1 3v20H539V0z" class="stroke-B1" style="stroke-width:2"/><path fill="#fff" d="M638 40h-98c-1 0-1 0-1-1V1c0-1 0-1 1-1h77c1 0 1 0 1 1v17c0 1 1 2 2 2h18c1 0 1 0 1 1v18c-1 1 0 1-1 1Z" class="stroke-B1" style="stroke-width:2"/></g><text x="555" y="30" class="text-mono-bold fill-N1" style="text-anchor:middle;font-size:18px">堆</text></g><g id="top-row.mem.heap.pad0" class="invisible"><g class="shape"><path fill="transparent" d="M539 40h100v20H539z" class="stroke-B1" style="stroke-width:2"/></g></g><g id="top-row.mem.heap.pad1" class="invisible"><g class="shape"><path fill="transparent" d="M539 60h100v20H539z" class="stroke-B1" style="stroke-width:2"/></g></g><g id="top-row.mem.heap.d"><g class="shape"><path fill="#fff5ee" d="M539 80h100v21H539z" class="stroke-B1" style="stroke-width:2"/></g><text x="589" y="96" class="text-mono-bold fill-N1" style="text-anchor:middle;font-size:16px">d</text></g><g id="top-row.mem.heap.l"><g class="shape"><path fill="#fff5ee" d="M539 101h100v21H539z" class="stroke-B1" style="stroke-width:2"/></g><text x="589" y="117" class="text-mono-bold fill-N1" style="text-anchor:middle;font-size:16px">l</text></g><g id="top-row.mem.heap.r"><g class="shape"><path fill="#fff5ee" d="M539 122h100v21H539z" class="stroke-B1" style="stroke-width:2"/></g><text x="589" y="138" class="text-mono-bold fill-N1" style="text-anchor:middle;font-size:16px">r</text></g><g id="top-row.mem.heap.o"><g class="shape"><path fill="#fff5ee" d="M539 143h100v21H539z" class="stroke-B1" style="stroke-width:2"/></g><text x="589" y="159" class="text-mono-bold fill-N1" style="text-anchor:middle;font-size:16px">o</text></g><g id="top-row.mem.heap.w"><g class="shape"><path fill="#fff5ee" d="M539 164h100v21H539z" class="stroke-B1" style="stroke-width:2"/></g><text x="589" y="180" class="text-mono-bold fill-N1" style="text-anchor:middle;font-size:16px">w</text></g><g id="top-row.mem.heap.pad4" class="invisible"><g class="shape"><path fill="transparent" d="M539 185h100v20H539z" class="stroke-B1" style="stroke-width:2"/></g></g><g id="top-row.mem.heap.pad5" class="invisible"><g class="shape"><path fill="transparent" d="M539 205h100v20H539z" class="stroke-B1" style="stroke-width:2"/></g></g><g id="top-row.mem.heap.pad6" class="invisible"><g class="shape"><path fill="transparent" d="M539 225h100v40H539z" class="stroke-B1" style="stroke-width:2"/></g><text x="589" y="250.5" class="text-mono-bold fill-N1" style="text-anchor:middle;font-size:16px">...</text></g><g id="top-row.mem.static.只读区"><g class="shape"><path fill="#fff" d="M540 265h78c1 0 2 0 3 1l17 16c1 1 1 2 1 3v20H539v-39c0-1 0-1 1-1Z" class="stroke-B1" style="stroke-width:2"/><path fill="#fff" d="M638 305h-98c-1 0-1 0-1-1v-38c0-1 0-1 1-1h77c1 0 1 0 1 1v17c0 1 1 2 2 2h18c1 0 1 0 1 1v18c-1 1 0 1-1 1Z" class="stroke-B1" style="stroke-width:2"/></g><text x="576.5" y="295" class="text-mono-bold fill-N1" style="text-anchor:middle;font-size:18px">只读区</text></g><g id="top-row.mem.static.pad0" class="invisible"><g class="shape"><path fill="transparent" d="M539 305h100v21H539z" class="stroke-B1" style="stroke-width:2"/></g><text x="589" y="321" class="text-mono-bold fill-N1" style="text-anchor:middle;font-size:16px">...</text></g><g id="top-row.mem.static.d"><g class="shape"><path fill="#fff5ee" d="M539 326h100v21H539z" class="stroke-B1" style="stroke-width:2"/></g><text x="589" y="342" class="text-mono-bold fill-N1" style="text-anchor:middle;font-size:16px">d</text></g><g id="top-row.mem.static.l3"><g class="shape"><path fill="#fff5ee" d="M539 347h100v21H539z" class="stroke-B1" style="stroke-width:2"/></g><text x="589" y="363" class="text-mono-bold fill-N1" style="text-anchor:middle;font-size:16px">l</text></g><g id="top-row.mem.static.r"><g class="shape"><path fill="#fff5ee" d="M539 368h100v21H539z" class="stroke-B1" style="stroke-width:2"/></g><text x="589" y="384" class="text-mono-bold fill-N1" style="text-anchor:middle;font-size:16px">r</text></g><g id="top-row.mem.static.o2"><g class="shape"><path fill="#fff5ee" d="M539 389h100v21H539z" class="stroke-B1" style="stroke-width:2"/></g><text x="589" y="405" class="text-mono-bold fill-N1" style="text-anchor:middle;font-size:16px">o</text></g><g id="top-row.mem.static.w"><g class="shape"><path fill="#fff5ee" d="M539 410h100v21H539z" class="stroke-B1" style="stroke-width:2"/></g><text x="589" y="426" class="text-mono-bold fill-N1" style="text-anchor:middle;font-size:16px">w</text></g><g id="top-row.mem.static.o1"><g class="shape"><path fill="pink" d="M539 431h100v21H539z" class="stroke-B1" style="stroke-width:2"/></g><text x="589" y="447" class="text-mono-bold fill-N1" style="text-anchor:middle;font-size:16px">o</text></g><g id="top-row.mem.static.l2"><g class="shape"><path fill="pink" d="M539 452h100v21H539z" class="stroke-B1" style="stroke-width:2"/></g><text x="589" y="468" class="text-mono-bold fill-N1" style="text-anchor:middle;font-size:16px">l</text></g><g id="top-row.mem.static.l1"><g class="shape"><path fill="pink" d="M539 473h100v21H539z" class="stroke-B1" style="stroke-width:2"/></g><text x="589" y="489" class="text-mono-bold fill-N1" style="text-anchor:middle;font-size:16px">l</text></g><g id="top-row.mem.static.e"><g class="shape"><path fill="pink" d="M539 494h100v21H539z" class="stroke-B1" style="stroke-width:2"/></g><text x="589" y="510" class="text-mono-bold fill-N1" style="text-anchor:middle;font-size:16px">e</text></g><g id="top-row.mem.static.h"><g class="shape"><path fill="pink" d="M539 515h100v21H539z" class="stroke-B1" style="stroke-width:2"/></g><text x="589" y="531" class="text-mono-bold fill-N1" style="text-anchor:middle;font-size:16px">h</text></g><g id="top-row.mem.static.pad4" class="invisible"><g class="shape"><path fill="transparent" d="M539 536h100v40H539z" class="stroke-B1" style="stroke-width:2"/></g><text x="589" y="561.5" class="text-mono-bold fill-N1" style="text-anchor:middle;font-size:16px">...</text></g><g id="top-row.dot-container2.dot3.circle" class="shape"><circle cx="474" cy="420" r="5" class="shape stroke-B1" style="stroke-width:0"/></g><g id="top-row.dot-container2.dot2.circle" class="shape"><circle cx="474" cy="175" r="5" class="shape stroke-B1" style="stroke-width:0"/></g><g id="top-row.(stack._e.ptr -&gt; mem.heap.o)[0]"><marker id="mk-3488378134" markerHeight="12" markerUnits="userSpaceOnUse" markerWidth="10" orient="auto" refX="7" refY="6" viewBox="0 0 10 12"><path stroke-width="2" d="m0 0 10 6-10 6z" class="connection" style="fill:#000410"/></marker><path fill="none" marker-end="url(#mk-3488378134)" d="m440.995 143.64 94.015 6.58" class="connection stroke-B1" mask="url(#d2-2238736364)" style="stroke-width:2"/><text x="489" y="153" class="text-mono-italic fill-N2" style="text-anchor:middle;font-size:16px">借用</text></g><g id="top-row.(stack._b.ptr -&gt; mem.heap.w)[0]"><path fill="none" marker-end="url(#mk-3488378134)" d="m437.835 239.704 123.496-53.611" class="connection stroke-B1" mask="url(#d2-2238736364)" style="stroke-width:2"/><text x="501" y="218" class="text-mono-italic fill-N2" style="text-anchor:middle;font-size:16px">所有权</text></g><g id="top-row.(stack._a.ptr -&gt; mem.static.h)[0]"><path fill="none" marker-end="url(#mk-3488378134)" d="m428.763 440.444 136.71 73.168" class="connection stroke-B1" mask="url(#d2-2238736364)" style="stroke-width:2"/><text x="498" y="483" class="text-mono-italic fill-N2" style="text-anchor:middle;font-size:16px">借用</text></g><path id="top-row.(mem.static.w -- dot-container2.dot3.circle)[0]" fill="none" d="M537 420h-57" class="connection stroke-B2" mask="url(#d2-2238736364)" style="stroke-width:2;stroke-dasharray:6,5.919384"/><path id="top-row.dot-container2.(dot3.circle -- dot2.circle)[0]" fill="none" d="M474 414V181" class="connection stroke-B2" mask="url(#d2-2238736364)" style="stroke-width:2;stroke-dasharray:6,5.919384"/><g id="top-row.(dot-container2.dot2.circle -&gt; mem.heap.w)[0]"><marker id="mk-2177206569" markerHeight="12" markerUnits="userSpaceOnUse" markerWidth="10" orient="auto" refX="7" refY="6" viewBox="0 0 10 12"><path stroke-width="2" d="m0 0 10 6-10 6z" class="connection" style="fill:#000410"/></marker><path fill="none" marker-end="url(#mk-2177206569)" d="M480 175h55" class="connection stroke-B2" mask="url(#d2-2238736364)" style="stroke-width:2;stroke-dasharray:6,5.919384"/></g><path id="top-row.(code-info.code -&gt; mem.heap.o)[0]" fill="none" marker-end="url(#mk-3488378134)" d="m286.965 211.129 248.105-46.886" class="connection stroke-B1" mask="url(#d2-2238736364)" style="stroke-width:2"/><g id="top-row.dot-container2.(dot3.circle -- dot2.circle)[1]"><path fill="none" d="M474 414V181" class="connection stroke-B2" mask="url(#d2-2238736364)" style="stroke-width:2;stroke-dasharray:6,5.919384"/><text x="474" y="303" class="text-mono-italic fill-N2" style="text-anchor:middle;font-size:16px">复制</text></g><mask id="d2-2238736364" width="643" height="582" x="-1" y="-1" maskUnits="userSpaceOnUse"><path fill="#fff" d="M-1-1h643v582H-1z"/><path fill="rgba(0,0,0,0.75)" d="M0 200h269v62H0zM325 134h9v21h-9zM326 294h8v21h-8zM325 414h9v21h-9zM344 12h22v23h-22zM376.5 49.5h25v21h-25zM374.5 89.5h29v21h-29zM375 129.5h28v21h-28zM376.5 169.5h25v21h-25zM374.5 209.5h29v21h-29zM375 249.5h28v21h-28zM350.5 289.5h77v21h-77zM376.5 329.5h25v21h-25zM374.5 369.5h29v21h-29zM375 409.5h28v21h-28zM544 12h22v23h-22zM584.5 80h9v21h-9zM584.5 101h9v21h-9zM585 122h8v21h-8zM584.5 143h9v21h-9zM584 164h10v21h-10zM576.5 234.5h25v21h-25zM544 277h65v23h-65zM576.5 305h25v21h-25zM584.5 326h9v21h-9zM584.5 347h9v21h-9zM585 368h8v21h-8zM584.5 389h9v21h-9zM584 410h10v21h-10zM584.5 431h9v21h-9zM584.5 452h9v21h-9zM584.5 473h9v21h-9zM584.5 494h9v21h-9zM585 515h8v21h-8zM576.5 545.5h25v21h-25z"/><path d="M470 137h38v21h-38zM472 202h58v21h-58zM479 467h38v21h-38zM455 287h38v21h-38z"/></mask></svg></svg>