<svg xmlns="http://www.w3.org/2000/svg" width="777.524" height="255.689"><defs><style>@font-face{font-family:&quot;Virgil&quot;;src:url(https://unpkg.com/@excalidraw/excalidraw@undefined/dist/excalidraw-assets/Virgil.woff2)}@font-face{font-family:&quot;Cascadia&quot;;src:url(https://unpkg.com/@excalidraw/excalidraw@undefined/dist/excalidraw-assets/Cascadia.woff2)}@font-face{font-family:&quot;Assistant&quot;;src:url(https://unpkg.com/@excalidraw/excalidraw@undefined/dist/excalidraw-assets/Assistant-Regular.woff2)}</style></defs><path fill="#fff" d="M0 0h777.524v255.689H0z"/><path fill="none" stroke="#000" stroke-linecap="round" d="M125.565 33.07c5.89-.17 12.55 3.06 17.23 7.35s9.94 11.95 10.83 18.4c.88 6.44-2.08 14.84-5.54 20.25-3.45 5.41-9.38 10.5-15.21 12.2-5.82 1.7-13.88.61-19.71-2-5.83-2.62-12.11-8.04-15.25-13.7-3.15-5.65-4.84-14.23-3.62-20.23s4.64-12.2 10.95-15.76c6.3-3.56 21.56-5.09 26.9-5.59 5.33-.49 5.29 2.34 5.1 2.64m-22.74-3.38c5.25-2.35 13.46-.57 19.4 2.01 5.93 2.58 13.17 8.23 16.2 13.47s3.44 12.01 1.96 17.97c-1.49 5.96-6.09 13.36-10.86 17.79-4.77 4.44-11.58 8.7-17.77 8.83-6.18.13-14.78-3.83-19.35-8.06-4.58-4.24-7.03-10.81-8.08-17.35-1.05-6.55-1.02-16.23 1.78-21.93 2.81-5.7 12.09-10.24 15.07-12.29 2.98-2.04 2.46-.37 2.81.03"/><text x="7.786" dominant-baseline="text-before-edge" font-family="Helvetica, Segoe UI Emoji" font-size="28" style="white-space:pre" text-anchor="middle" transform="translate(116.139 46.55)">2</text><path fill="none" stroke="#000" stroke-linecap="round" d="M51.39 97.707c6.06.2 12.77 4.25 17.26 8.7 4.48 4.46 8.79 11.93 9.67 18.01.88 6.07-.88 13.4-4.39 18.44-3.5 5.04-10.35 10.11-16.64 11.81-6.29 1.71-15.17.8-21.08-1.58-5.92-2.39-11.86-7.16-14.43-12.7-2.57-5.55-2.58-14.29-.99-20.56 1.58-6.27 4.49-13.33 10.51-17.06 6.01-3.74 20.58-5.22 25.57-5.35 4.99-.14 4.47 3.86 4.38 4.52m-23.73-1.64c5.34-3.04 13.21-4.76 19.02-3.2s12.18 6.8 15.83 12.55c3.64 5.75 6.63 15.41 6.04 21.96-.59 6.54-5.15 13.02-9.56 17.3s-10.48 8.29-16.87 8.38c-6.4.08-15.95-3.81-21.5-7.87s-10.65-10.31-11.8-16.49c-1.14-6.18 1.9-14.86 4.91-20.57 3.01-5.72 11.06-11.95 13.13-13.71 2.07-1.75-1.03 2.42-.72 3.17"/><text x="7.786" dominant-baseline="text-before-edge" font-family="Helvetica, Segoe UI Emoji" font-size="28" style="white-space:pre" text-anchor="middle" transform="translate(41.164 110.978)">1</text><path fill="none" stroke="#000" stroke-linecap="round" d="M213.219 101.29c6.19.32 13.96 3.98 18.15 8.52s7.05 12.45 6.98 18.71c-.07 6.27-3.32 13.78-7.4 18.89-4.09 5.11-11.13 10.4-17.11 11.77s-13.31-.37-18.78-3.53c-5.48-3.17-11.7-9.4-14.06-15.46s-2.06-15.11-.13-20.9c1.94-5.8 5.41-11.02 11.73-13.9 6.31-2.88 21.26-3.2 26.18-3.39 4.93-.19 3.57 1.76 3.37 2.25m-9.53-4.52c6.14 1.14 14.63 7.3 18.83 12.4s6.19 11.95 6.38 18.2-1.09 14.76-5.24 19.31c-4.14 4.55-12.91 7.18-19.61 7.98-6.69.81-15.39.06-20.54-3.12-5.15-3.19-8.39-9.98-10.38-15.97s-3.29-14.52-1.54-20c1.74-5.47 6.4-9.98 11.99-12.85 5.58-2.87 17.79-3.47 21.52-4.36 3.72-.9 1.13-1.42.84-1.02"/><text x="7.786" dominant-baseline="text-before-edge" font-family="Helvetica, Segoe UI Emoji" font-size="28" style="white-space:pre" text-anchor="middle" transform="translate(200.943 113.85)">4</text><g stroke-linecap="round"><path fill="none" stroke="#82c91e" stroke-width=".5" d="M128.562 180.746q0 0 0 0m0 0q0 0 0 0m-2.23 8.67c7.09-6.37 15.46-15.37 19.03-21.89m-19.03 21.89c5.26-5.08 10.09-10.74 19.03-21.89m-20.6 29.79c8.13-7.64 11.97-14.89 25.58-29.43m-25.58 29.43c8.78-9.74 16.25-18.22 25.58-29.43m-25.19 35.08c5.55-7.47 14.77-16.41 30.18-34.72m-30.18 34.72c11.11-11.94 21.43-25.08 30.18-34.72m-27.82 38.1c8.28-11.04 18.34-19.67 33.46-38.49m-33.46 38.49c10.96-12.5 22.93-27.69 33.46-38.49m-31.09 41.86c9.75-9.97 16.55-18.89 35.42-40.75m-35.42 40.75c10.93-12.94 21.23-25.48 35.42-40.75m-33.06 44.13c8.84-11.01 20.87-22.74 36.08-41.51m-36.08 41.51c13.45-15.48 27.16-30.98 36.08-41.51m-33.72 44.89c7.79-12.61 20.3-22.84 36.74-42.26m-36.74 42.26c14.86-16.24 29.4-33.89 36.74-42.26m-33.72 44.89c11.28-11.61 20.59-26.38 36.74-42.27m-36.74 42.27c14.5-16.74 29.22-32.92 36.74-42.27m-32.41 43.38c6.93-8.51 17.61-20.05 35.43-40.75m-35.43 40.75c11.04-13.56 24.05-27.4 35.43-40.75m-31.75 42.62c5.4-7.68 14.64-14.54 33.46-38.49m-33.46 38.49c11.03-11.72 21.25-24.62 33.46-38.49m-29.79 40.36c8.84-8.54 17.84-20.25 30.84-35.47m-30.84 35.47c5.54-7.32 12.76-15.02 30.84-35.47m-26.51 36.59c7.14-9.54 16.54-19.29 26.9-30.95m-26.9 30.95c9.24-10.59 21.2-23.63 26.9-30.95m-19.94 29.04c7.21-6.28 11.39-11.51 20.99-24.15m-20.99 24.15c6.38-7.66 11.8-15.32 20.99-24.15m-13.38 21.49c4.45-2.99 5.19-5.67 11.81-13.58m-11.81 13.58c2.72-2.76 5.78-7.85 11.81-13.58"/><path fill="none" stroke="#c92a2a" d="M164.422 167.676c5.52 1.76 11.33 7.33 14.24 13.05 2.92 5.71 4.24 14.88 3.23 21.21-1 6.34-4.42 12.95-9.27 16.78s-13.44 6.51-19.83 6.21c-6.38-.3-13.63-4.04-18.48-8.01-4.84-3.97-9.68-9.76-10.61-15.82-.94-6.06 1.78-14.91 5.02-20.53 3.25-5.62 7.57-11.64 14.43-13.18 6.87-1.54 21.54 2.68 26.75 3.93 5.21 1.26 4.97 3.35 4.5 3.6m-30.05-6.69c5.79-2.24 16.04-.92 21.79 1.2 5.76 2.11 10.29 6.18 12.74 11.49 2.46 5.3 3.03 14.2 1.99 20.34-1.04 6.15-3.39 12.71-8.22 16.51-4.82 3.79-14.02 6.07-20.75 6.26-6.72.2-15.05-1.11-19.6-5.08-4.55-3.96-7.29-12.05-7.69-18.72-.39-6.67 2.11-15.89 5.3-21.3 3.2-5.41 11.6-9.46 13.88-11.17s-.57.51-.19.93"/></g><text x="7.786" fill="#c92a2a" dominant-baseline="text-before-edge" font-family="Helvetica, Segoe UI Emoji" font-size="28" style="white-space:pre" text-anchor="middle" transform="translate(145.857 179.827)">3</text><path fill="none" stroke="#c92a2a" stroke-linecap="round" d="M262.815 169.13c5.94-1.73 15.48-1.12 21.25 1.49 5.77 2.6 10.84 8.53 13.38 14.12 2.54 5.58 3.67 13.11 1.88 19.39-1.8 6.27-7.47 14.5-12.64 18.26-5.18 3.75-12.11 5.1-18.43 4.27s-15.02-4.76-19.48-9.25-6.98-11.39-7.27-17.7 1.39-14.75 5.55-20.18 15.43-10.54 19.42-12.39c3.98-1.84 4.1.74 4.48 1.32m5.44-1.21c5.48.66 12.16 6.25 16.32 11.25 4.15 5 8.73 12.48 8.61 18.74-.11 6.25-4.6 13.68-9.3 18.8-4.7 5.11-12.73 10.78-18.89 11.88-6.15 1.1-13.15-1.45-18.03-5.27-4.89-3.82-9.2-11.54-11.28-17.65-2.07-6.11-3.2-13.45-1.17-19.03 2.02-5.58 7.48-11.52 13.32-14.46s18.15-2.68 21.73-3.19c3.59-.5.03-.35-.23.18"/><text x="7.786" fill="#c92a2a" dominant-baseline="text-before-edge" font-family="Helvetica, Segoe UI Emoji" font-size="28" style="white-space:pre" text-anchor="middle" transform="translate(263.04 181.3)">5</text><g stroke-linecap="round"><path fill="none" stroke="#000" d="M102.072 85.335c-7.26 5.88-12.73 10.81-26.58 21.72m26.58-21.72c-8.19 5.98-14.94 12.81-26.58 21.72"/><path fill-rule="evenodd" stroke-width="0" d="m75.972 106.695 5.89-13.03 7.28 9.59-12.73 4.29"/><path fill="none" stroke="#000" d="M75.492 107.055c1.29-2.92 3.82-6.66 6.63-13.45m-6.63 13.45c1.57-4.14 4.18-7.6 6.63-13.45m0 0c2.6 3.31 5.17 5.94 7.94 9.88m-7.94-9.88c1.64 2.33 3.13 4.17 7.94 9.88m0 0c-6.26.64-11.8 3.35-14.57 3.57m14.57-3.57c-3.42 1.08-6.11 1.63-14.57 3.57m0 0q0 0 0 0m0 0q0 0 0 0"/></g><g stroke-linecap="round"><path fill="none" stroke="#000" d="M155.255 81.832c6.57 7.2 11.88 14.11 26.66 31.87m-26.66-31.87c8.9 10.62 17.14 20.27 26.66 31.87"/><path fill-rule="evenodd" stroke-width="0" d="m181.665 113.762-14.22-6.72 11.6-7.37 3.03 14.62"/><path fill="none" stroke="#000" d="M181.915 113.702c-2.58-1.38-6.2-3.07-13.55-6.43m13.55 6.43c-4.01-1.95-8.67-4.5-13.55-6.43m0 0c2.77-2.41 4.49-4.69 9.76-8.08m-9.76 8.08c2.27-1.83 4.94-3.69 9.76-8.08m0 0c.5 4.21 1.18 7.06 3.79 14.51m-3.79-14.51c.88 3.41 1.97 6.27 3.79 14.51m0 0q0 0 0 0m0 0q0 0 0 0"/></g><g stroke-linecap="round"><path fill="none" stroke="#000" d="M189.234 156.478c-6.34 4.81-12.26 9.13-17.68 14.26m17.68-14.26c-4.01 2.98-8.42 6.85-17.68 14.26"/><path fill-rule="evenodd" stroke-width="0" d="m170.634 170.508 6.81-9.5 5.29 7.57-10.76 2.12"/><path fill="none" stroke="#000" d="M171.554 170.738c1.67-3.76 3.62-7.8 4.97-10.21m-4.97 10.21c1.16-2.64 2.18-4.73 4.97-10.21m0 0c1.55 2.15 3.72 5.04 6.05 7.46m-6.05-7.46c2.6 3.09 4.64 5.69 6.05 7.46m0 0c-2.76.48-4.94.68-11.02 2.75m11.02-2.75c-4.16.95-8.97 2.26-11.02 2.75m0 0q0 0 0 0m0 0q0 0 0 0"/></g><g stroke-linecap="round"><path fill="none" stroke="#000" d="M231.832 150.25c6.06 6.32 11.01 15.46 19.13 23.84m-19.13-23.84c6.46 8.46 13.44 16.78 19.13 23.84"/><path fill-rule="evenodd" stroke-width="0" d="m251.882 174.57-14.25-6.43 10.09-8.63 3.42 15.33"/><path fill="none" stroke="#000" d="M250.962 174.09c-3.94-2.75-8.72-3.35-13.49-6.54m13.49 6.54c-4.82-2.23-9.25-4.46-13.49-6.54m0 0c2.16-1.89 5.67-4.17 9.83-8m-9.83 8c3.18-3.03 6.43-5.71 9.83-8m0 0c.76 4.86 3.46 11.19 3.66 14.54m-3.66-14.54c1.12 5.07 2.29 10.17 3.66 14.54m0 0q0 0 0 0m0 0q0 0 0 0"/></g><path fill="none" stroke="#087f5b" stroke-dasharray="8 9" stroke-linecap="round" stroke-width="1.5" d="M10 10c207.51 3.68 416.45 3.09 757.52 0m0 0c-.23 51.97-1.49 101.15 0 235.69m0 0c-173.65.45-348.46 1.32-757.52 0m0 0C9.41 158.38 12.34 71.36 10 10"/><g stroke-linecap="round"><path fill="none" stroke="#000" stroke-dasharray="8 9" stroke-width="1.5" d="M170.065 55.905c12.69-.57 21.87-1.96 58.22-1.71"/><path fill-rule="evenodd" stroke-width="0" d="m226.565 56.195-11.36 5.31 1.19-14.81 10.8 7.77"/><path fill="none" stroke="#000" stroke-width="1.5" d="M228.285 54.195c-2.08 1.63-6.74 2.14-13.56 6.42m0 0c-.62-5.33-.97-8.98-.07-12.68m0 0c5.08 3.4 9.77 3.25 13.63 6.26m0 0q0 0 0 0"/></g><text dominant-baseline="text-before-edge" font-family="Helvetica, Segoe UI Emoji" font-size="20" style="white-space:pre" transform="translate(249.767 37.961)">第1层  2⁰ 条记录</text><text fill="#19be76" dominant-baseline="text-before-edge" font-family="Helvetica, Segoe UI Emoji" font-size="20" style="white-space:pre" transform="translate(292.828 112.203)">第2层 2¹ 条记录 </text><g stroke-linecap="round"><path fill="none" stroke="#19be76" stroke-dasharray="8 9" stroke-width="1.5" d="M279.51 127.991c-7.92.46-17.5 1.06-31.55 3.26"/><path fill="#19be76" fill-rule="evenodd" stroke-width="0" d="m247.42 131.381 12.35-7.89 2.88 12.15-14.4-4.69"/><path fill="none" stroke="#19be76" stroke-width="1.5" d="M247.96 131.251c3.55-2.48 5.86-4.8 12.6-8.13m0 0c.32 3.27 1.42 6.41 1.73 12.55m0 0c-3.93-.58-7.76-2.43-14.33-4.42m0 0q0 0 0 0"/></g><g stroke-linecap="round"><path fill="none" stroke="#c92a2a" stroke-dasharray="8 9" stroke-width="1.5" d="M347.265 197.477c-13.42-.69-25.51.3-37.66.29"/><path fill="#c92a2a" fill-rule="evenodd" stroke-width="0" d="m308.815 198.137 14.63-6.98.15 12.41-14.21-5.62"/><path fill="none" stroke="#c92a2a" stroke-width="1.5" d="M309.605 197.767c3.72-2.67 8.44-4.17 13.48-6.57m0 0c.66 5.42-.16 9.52.22 12.67m0 0c-3.44-1.36-6.14-3.08-13.7-6.1m0 0q0 0 0 0"/></g><text fill="#c92a2a" dominant-baseline="text-before-edge" font-family="Helvetica, Segoe UI Emoji" font-size="20" style="white-space:pre" transform="translate(358.731 188.164)">第3层  最多2² 条记录</text><path fill="#0b7285" d="m572.148 48.68 1.08-.02q1.09-.03 2.39.25 1.31.27 2.38.74t2.11 1.16q1.05.69 3 2.05 1.96 1.37 3.54 2.88t2.74 2.95 2.12 3.04q.97 1.59 1.65 3.15.67 1.55 1.25 2.99t.96 2.96q.39 1.52.48 2.82t.13 2.89q.05 1.58-.42 3.38-.46 1.8-1.19 3.58t-1.5 3.6q-.77 1.83-1.75 4.04t-1.72 4.27q-.74 2.07-1.18 4-.44 1.94-.53 3.64-.09 1.71-.01 3.41.07 1.71.63 3.28.57 1.56 1.48 3.09.9 1.52 1.65 2.83.74 1.31 1.5 2.47.75 1.16 1.44 2.21.68 1.04.57 2.17-.12 1.12-.59 2.16-.48 1.05-1.39 2.38-.91 1.32-1.4 2.52-.49 1.19-.9 2.21t-.84 2.85q-.42 1.82-.64 3.59-.22 1.78-.42 3.05-.19 1.28-.3 2.56-.1 1.28-.18 2.67-.07 1.39-.11 3.72-.04 2.32-.01 4.15t0 3.17-.06 3.82q-.03 2.47.15 4.47t.6 4.03q.42 2.02.57 3.17.14 1.14.34 2.45.19 1.31.39 2.37.21 1.06.31 2.39.11 1.33.18 3.54.07 2.2.12 4.02.05 1.81.09 3.36.04 1.54-.02 3.24t-.42 3.45q-.37 1.75-.69 3.03-.32 1.27-.91 2.79-.6 1.52-1.14 2.51t-1.77 2.97q-1.22 1.98-1.57 2.37-.35.4-.8.67-.46.26-.98.37-.51.1-1.04.04-.52-.07-1-.29-.47-.23-.85-.6t-.62-.84-.32-.99.02-1.04q.09-.52.34-.98.26-.46.65-.82.38-.36.86-.57.49-.22 1.01-.27.53-.05 1.04.07t.96.4.79.69q.33.4.52.9.19.49.21 1.02.02.52-.13 1.03t-.45.94-.72.74q-.43.32-.93.48t-1.03.15q-.53 0-1.02-.18-.5-.18-.92-.5-.41-.33-.7-.77t-.43-.95q-.13-.51-.09-1.03.03-.53.23-1.02l.21-.48q-.01 0 1.55-2.52t2.05-3.68q.5-1.16.86-2.36t.68-2.43.43-2.61q.1-1.39.14-2.92.04-1.54.06-3.33.03-1.78.02-2.89-.01-1.1-.1-3.05-.08-1.95-.27-3.05-.19-1.09-.55-3.44-.37-2.34-.8-4.54-.43-2.19-.63-4.62-.19-2.42-.22-4.89-.03-2.48-.06-3.82-.03-1.35.01-3.19.04-1.83.03-4.2 0-2.37-.02-3.85t0-2.98q.03-1.51.14-2.82t.33-3.19q.21-1.89.41-3.31.19-1.42.48-2.47t.95-2.92 1.42-3.32q.76-1.44 1.37-2.37.6-.93 1.41-1.67.8-.75.11.37t-1.43-.24q-.75-1.36-1.37-2.61-.62-1.24-1.2-2.18-.57-.94-1.14-2.01-.56-1.07-1.11-2.41-.55-1.35-.79-2.43-.25-1.08-.31-3.13-.06-2.06.1-4.19.16-2.14.38-3.42t.53-2.37q.3-1.1 1.03-3.36.74-2.25 1.55-4.4.82-2.15 1.25-3.45.43-1.29 1.09-2.87.67-1.59 1.25-3.05t.6-2.93q.02-1.46.02-2.75-.01-1.3-.41-2.54-.41-1.23-.99-2.66t-1.07-2.67-1.31-2.47-1.85-2.46-2.46-2.51q-1.44-1.28-3.09-2.35-1.65-1.06-2.8-1.63-1.15-.56-2.21-.59-1.06-.02-1.37-.06t-.61-.15q-.29-.11-.55-.29t-.47-.42-.36-.52-.22-.58q-.08-.31-.08-.62t.08-.62q.07-.3.22-.58t.36-.52.47-.42.55-.29q.3-.11.61-.15z"/><text fill="#0b7285" dominant-baseline="text-before-edge" font-family="Helvetica, Segoe UI Emoji" font-size="20" style="white-space:pre" transform="translate(610.813 99.784)">三层的话</text><text y="28" fill="#0b7285" dominant-baseline="text-before-edge" font-family="Helvetica, Segoe UI Emoji" font-size="20" style="white-space:pre" transform="translate(610.813 99.784)">最多能放7条数据</text></svg>