<svg xmlns="http://www.w3.org/2000/svg" width="820.942" height="993.169"><defs><style>@font-face{font-family:&quot;Virgil&quot;;src:url(https://unpkg.com/@excalidraw/excalidraw@undefined/dist/excalidraw-assets/Virgil.woff2)}@font-face{font-family:&quot;Cascadia&quot;;src:url(https://unpkg.com/@excalidraw/excalidraw@undefined/dist/excalidraw-assets/Cascadia.woff2)}@font-face{font-family:&quot;Assistant&quot;;src:url(https://unpkg.com/@excalidraw/excalidraw@undefined/dist/excalidraw-assets/Assistant-Regular.woff2)}</style></defs><path fill="#fff" d="M0 0h820.942v993.169H0z"/><text fill="#2f9e44" dominant-baseline="text-before-edge" font-family="Virgil, Segoe UI Emoji" font-size="36" style="white-space:pre" transform="translate(292.95 40.67)">y</text><text fill="#2f9e44" dominant-baseline="text-before-edge" font-family="Virgil, Segoe UI Emoji" font-size="36" style="white-space:pre" transform="translate(627.847 419.24)">X</text><path fill="none" stroke="#000" stroke-linecap="round" d="M192.65 110.702c13.4-.16 29.12.18 40.32 0m-40.32 0c11.9-.3 24.28.58 40.32 0m0 0c-1 11.83.46 21.74 0 42.69m0-42.69c.14 16.33.03 32.77 0 42.69m0 0c-11.68.3-24.99.13-40.32 0m40.32 0c-10.97-.24-21.44.27-40.32 0m0 0c-.62-16.52.35-33.41 0-42.69m0 42.69c-.09-11.62-.3-22.52 0-42.69"/><path fill="none" stroke="#000" stroke-linecap="round" d="M232.968 110.702c15.5.31 29.05.46 40.32 0m-40.32 0c10.3.63 19.4.01 40.32 0m0 0c.32 11.48.58 23.39 0 42.69m0-42.69c0 9.24.03 17.25 0 42.69m0 0c-14.23.11-27.09.87-40.32 0m40.32 0c-10.31.27-21.05-.4-40.32 0m0 0c.37-15.88-.14-30.3 0-42.69m0 42.69c-.22-12.46-.05-25.62 0-42.69"/><path fill="none" stroke="#000" stroke-linecap="round" d="M273.34 110.702c11.89.39 23.31-.06 40.32 0m-40.32 0c8.57-.34 17.44-.66 40.32 0m0 0c.89 17.09-.84 33.75 0 42.69m0-42.69c-.02 14.2.15 29.09 0 42.69m0 0c-13.34.84-26.44-.06-40.32 0m40.32 0c-10.3-.19-21.15-.25-40.32 0m0 0c-.35-12.06-.01-24.82 0-42.69m0 42.69c.04-11.53-.37-23.83 0-42.69"/><path fill="none" stroke="#000" stroke-linecap="round" d="M313.658 110.702c12.75-.09 25.81.89 40.32 0m-40.32 0c15.71-.41 32.18.32 40.32 0m0 0c-.79 12.7.55 25.03 0 42.69m0-42.69c.16 17.22.12 33.62 0 42.69m0 0c-12.69.09-25.03 1.02-40.32 0m40.32 0c-14.54-.51-29.72-.03-40.32 0m0 0c.09-10.43-.18-21.23 0-42.69m0 42.69c-.44-17.12.08-33.52 0-42.69"/><path fill="none" stroke="#000" stroke-linecap="round" d="M354.371 110.702c13.11.98 28.8-.45 40.32 0m-40.32 0c11.33.45 21.7.58 40.32 0m0 0c.18 14.01.78 28.14 0 42.69m0-42.69c.19 10.33.1 21.35 0 42.69m0 0c-15.76.84-30.15.83-40.32 0m40.32 0c-9.5-.05-19.19-.31-40.32 0m0 0c-.25-14.7.93-28.58 0-42.69m0 42.69c.25-14.72.52-29.56 0-42.69M192.65 153.637c13.05-.64 23.93-.49 40.32 0m-40.32 0c8.29.28 16.78-.58 40.32 0m0 0c1.07 13.48-.4 27.29 0 42.69m0-42.69c.08 14.39.46 28.9 0 42.69m0 0c-11.13 1.02-24.26.76-40.32 0m40.32 0c-9.3-.11-17.86.06-40.32 0m0 0c.99-12.74.53-26.19 0-42.69m0 42.69c.3-10.16.3-20.18 0-42.69"/><path fill="none" stroke="#000" stroke-linecap="round" d="M232.968 153.637c15.75-.21 31.18 1.02 40.32 0m-40.32 0c14.36-.63 28.5.03 40.32 0m0 0c-.27 12.87.61 25.33 0 42.69m0-42.69c.42 9.08-.03 18.33 0 42.69m0 0c-16.2.76-31.85.07-40.32 0m40.32 0c-12.76-.05-25.88-.18-40.32 0m0 0c.28-11.77-.79-21.59 0-42.69m0 42.69c.18-13.45-.09-27.39 0-42.69"/><path fill="none" stroke="#000" stroke-linecap="round" d="M273.34 153.637c9.36.99 21.11 0 40.32 0m-40.32 0c15.32.38 30.45.69 40.32 0m0 0c.3 13.03-.94 25.64 0 42.69m0-42.69c.14 11.41.6 23.49 0 42.69m0 0c-16.27.02-30.81-.45-40.32 0m40.32 0c-10.88-.12-21.95.48-40.32 0m0 0c-.69-12.23.14-24.02 0-42.69m0 42.69c-.09-13.58.21-28.18 0-42.69"/><path fill="none" stroke="#000" stroke-linecap="round" d="M313.658 153.637c11.43-.25 22.59.11 40.32 0m-40.32 0c8.23.42 16.52-.32 40.32 0m0 0c-.75 14.25-.2 29.2 0 42.69m0-42.69c.41 11.71.41 22.4 0 42.69m0 0c-14.26-.59-29.24.31-40.32 0m40.32 0c-12.45.42-24.48.19-40.32 0m0 0c.37-8.21.38-17.04 0-42.69m0 42.69c.32-16.61-.28-32.42 0-42.69"/><path fill="none" stroke="#000" stroke-linecap="round" d="M354.371 153.637c16.64.31 30.78.17 40.32 0m-40.32 0c13.64-.44 27.45 0 40.32 0m0 0c-.47 14.64-.52 27.56 0 42.69m0-42.69c.6 11.03.47 22.33 0 42.69m0 0c-12.01.22-23.38-.16-40.32 0m40.32 0c-11.17.43-22.7-.11-40.32 0m0 0c.2-12.61.75-26.39 0-42.69m0 42.69c-.41-15.49.15-31.05 0-42.69M192.65 196.572c10.9.1 24.08-.12 40.32 0m-40.32 0c16.24.3 32.27-.32 40.32 0m0 0c-.4 13-.4 27 0 42.69m0-42.69c.47 15.33.13 31.52 0 42.69m0 0c-9.78.03-19.87-.39-40.32 0m40.32 0c-16.35-.2-31.72.22-40.32 0m0 0c.74-15.42.58-30.34 0-42.69m0 42.69c.41-9.51.59-18.78 0-42.69"/><path fill="none" stroke="#000" stroke-linecap="round" d="M232.968 196.572c13.67-.09 27.56-.04 40.32 0m-40.32 0c10.27-.5 20.33-.23 40.32 0m0 0c-.41 17.18.61 33.49 0 42.69m0-42.69c.07 10.11-.16 19.86 0 42.69m0 0c-13.69-.47-25.95-.12-40.32 0m40.32 0c-13.97 0-27.72.01-40.32 0m0 0c.46-14.84-.95-31.59 0-42.69m0 42.69c.35-12.83-.19-25.66 0-42.69"/><path fill="none" stroke="#000" stroke-linecap="round" d="M273.34 196.572c13.72.01 24.99.34 40.32 0m-40.32 0c13.76.02 27.87 0 40.32 0m0 0c.6 13.34-.73 25.58 0 42.69m0-42.69c-.31 9.39.14 19.1 0 42.69m0 0c-10.99-.21-23.38-1.02-40.32 0m40.32 0c-9.4.18-19.12.45-40.32 0m0 0c-.92-13.74-.09-25.84 0-42.69m0 42.69c-.26-12.16.23-25.17 0-42.69"/><path fill="none" stroke="#000" stroke-linecap="round" d="M313.658 196.572c11.37.32 24.11.24 40.32 0m-40.32 0c9.15-.11 17.43-.11 40.32 0m0 0c-.51 17.05-.62 32.82 0 42.69m0-42.69c.04 13.7-.14 27.25 0 42.69m0 0c-9.77-.95-21.07.08-40.32 0m40.32 0c-12.77.45-26.12.37-40.32 0m0 0c.21-15.14.1-30.53 0-42.69m0 42.69c.46-14.41-.38-28.21 0-42.69"/><path fill="none" stroke="#000" stroke-linecap="round" d="M354.371 196.572c12.48.17 23.33 0 40.32 0m-40.32 0c10.9-.1 22.3.41 40.32 0m0 0c-.91 16.32.06 32.27 0 42.69m0-42.69c.05 11.38-.16 23.46 0 42.69m0 0c-12.24-.09-23.05.45-40.32 0m40.32 0c-13.08.48-25.91-.23-40.32 0m0 0c-.08-9.62.33-21.27 0-42.69m0 42.69c-.59-15.48-.34-31.26 0-42.69M192.65 239.714c12.56.01 26.51.78 40.32 0m-40.32 0c11.16.41 21.89-.26 40.32 0m0 0c.04 14.75-.47 30.97 0 42.69m0-42.69c-.24 13.4-.07 26.1 0 42.69m0 0c-8.1.65-16.44.66-40.32 0m40.32 0c-14.98-.26-30.9.15-40.32 0m0 0c.36-15.49.72-29.89 0-42.69m0 42.69c.02-11.22.35-23.01 0-42.69"/><path fill="none" stroke="#000" stroke-linecap="round" d="M232.968 239.714c12.76.81 25.76-.09 40.32 0m-40.32 0c11.15-.46 21.74-.52 40.32 0m0 0c-.26 12.72.07 24.74 0 42.69m0-42.69c-.16 12.01-.57 23.24 0 42.69m0 0c-12.26.77-24.22.22-40.32 0m40.32 0c-14.91-.13-29-.19-40.32 0m0 0c.63-16.02-.37-34.58 0-42.69m0 42.69c.24-15.44.11-31.02 0-42.69"/><path fill="none" stroke="#000" stroke-linecap="round" d="M273.34 239.714c12.01-.24 24.35.69 40.32 0m-40.32 0c15.13-.25 29.62.24 40.32 0m0 0c-.04 10.35-.31 20.31 0 42.69m0-42.69c-.49 16.53.03 33.76 0 42.69m0 0c-13.86.22-28.67.82-40.32 0m40.32 0c-8.65-.03-17.43.18-40.32 0m0 0c-.44-13.11.49-24.93 0-42.69m0 42.69c-.03-15.64.09-31.81 0-42.69"/><path fill="none" stroke="#000" stroke-linecap="round" d="M313.658 239.714c15.07.87 31.51.86 40.32 0m-40.32 0c9.4.26 18.62 0 40.32 0m0 0c-.24 13.78.94 28.36 0 42.69m0-42.69c-.15 14.96.12 29.81 0 42.69m0 0c-14.04.71-30.12-.5-40.32 0m40.32 0c-11.81.16-24.62.34-40.32 0m0 0c.7-16.8.74-32.63 0-42.69m0 42.69c.15-14.09.4-27.74 0-42.69"/><path fill="none" stroke="#000" stroke-linecap="round" d="M354.371 239.714c12.48.67 22.95.42 40.32 0m-40.32 0c8.73-.2 18.2-.03 40.32 0m0 0c.89 12.52.42 24.33 0 42.69m0-42.69c.34 10.42.34 20.98 0 42.69m0 0c-13.27-.38-24.92.74-40.32 0m40.32 0c-11.88.42-23.21-.08-40.32 0m0 0c.54-9.02.07-18.66 0-42.69m0 42.69c.35-13.73-.44-26.38 0-42.69M192.65 282.649c14.89.42 30.32-.27 40.32 0m-40.32 0c13.1.08 25.83-.06 40.32 0m0 0c.68 9.91-.39 21.79 0 42.69m0-42.69c.45 14.25.18 28.02 0 42.69m0 0c-14.83.5-29.81.85-40.32 0m40.32 0c-13.04-.01-27.35.46-40.32 0m0 0c.06-11.4-.01-22.63 0-42.69m0 42.69c-.54-9.01.29-18.92 0-42.69"/><path fill="none" stroke="#000" stroke-linecap="round" d="M232.968 282.649c14.74-.22 31.22-.69 40.32 0m-40.32 0c10.84-.13 21.49.46 40.32 0m0 0c-.49 12.43.34 25.29 0 42.69m0-42.69c.18 14.21.48 27.4 0 42.69m0 0c-10.06 1.08-19.64 0-40.32 0m40.32 0c-15.33.26-30 .28-40.32 0m0 0c.09-13.99-.84-27.81 0-42.69m0 42.69c.62-9.93.38-19.89 0-42.69"/><path fill="none" stroke="#000" stroke-linecap="round" d="M273.34 282.649c14.67-.55 28.63.35 40.32 0m-40.32 0c11.98.52 24.37.29 40.32 0m0 0c.12 9.47.13 18.32 0 42.69m0-42.69c.36 15.83-.24 32.46 0 42.69m0 0c-14.18.08-28.34 1.06-40.32 0m40.32 0c-11.07.47-21.66.23-40.32 0m0 0c-.83-12.32-.74-27.05 0-42.69m0 42.69c.03-16.36-.47-32.44 0-42.69"/><path fill="none" stroke="#000" stroke-linecap="round" d="M313.658 282.649c11.39.45 23.43.07 40.32 0m-40.32 0c11.06.05 21.77-.48 40.32 0m0 0c.31 13.88.85 26.59 0 42.69m0-42.69c-.12 15.53.45 30.98 0 42.69m0 0c-15.25.84-32.19-.83-40.32 0m40.32 0c-14.51.24-29.32.2-40.32 0m0 0c-.54-14.98.93-27.57 0-42.69m0 42.69c-.37-11.95.06-22.78 0-42.69"/><path fill="none" stroke="#000" stroke-linecap="round" d="M354.371 282.649c9.84-.11 19.38-.53 40.32 0m-40.32 0c15.42-.39 31.82.03 40.32 0m0 0c.85 15.61.69 31.72 0 42.69m0-42.69c.19 9.44.36 19.12 0 42.69m0 0c-11.92-.63-22.61-.14-40.32 0m40.32 0c-14.79.11-29.5-.36-40.32 0m0 0c.91-15.48-.13-32.38 0-42.69m0 42.69c.27-9.7-.03-20.1 0-42.69M192.384 324.68c13.2-.45 27.83-.1 40.32 0m-40.32 0c14.07.24 28.35.25 40.32 0m0 0c.8 16.22-.61 30.54 0 42.69m0-42.69c.6 13.17.07 26.36 0 42.69m0 0c-14.94-.47-30.47.19-40.32 0m40.32 0c-12.77-.37-25.45-.33-40.32 0m0 0c-.44-9.26-.79-19.95 0-42.69m0 42.69c-.21-9.75.16-19.63 0-42.69"/><path fill="none" stroke="#000" stroke-linecap="round" d="M232.702 324.68c12.87-.02 24.33-.84 40.32 0m-40.32 0c10.04.08 19.76.35 40.32 0m0 0c-.65 12.7.18 27.04 0 42.69m0-42.69c.14 12.86.63 24.88 0 42.69m0 0c-8.17.29-17.5.02-40.32 0m40.32 0c-12.22-.52-25.64.22-40.32 0m0 0c-.56-17.33-.62-33.27 0-42.69m0 42.69c.29-16.33-.4-33.39 0-42.69M313.392 324.68c10.72-.91 19.89.13 40.32 0m-40.32 0c13.4.35 26.22.27 40.32 0m0 0c-.12 16.35-.24 32.44 0 42.69m0-42.69c.4 14.12-.43 28.85 0 42.69m0 0c-10.64.15-21.56.41-40.32 0m40.32 0c-9.23.24-17.27-.28-40.32 0m0 0c-.54-14.42 1.01-29.74 0-42.69m0 42.69c-.55-14.63-.29-28.4 0-42.69M354.105 324.68c11.05.29 23.53.82 40.32 0m-40.32 0c13.17.16 26.59-.55 40.32 0m0 0c-.06 11.53.35 21.04 0 42.69m0-42.69c-.22 16.12.03 31.94 0 42.69m0 0c-13.4.35-27.86.86-40.32 0m40.32 0c-8.78.01-18.26-.16-40.32 0m0 0c1.02-10.8.5-20.57 0-42.69m0 42.69c.01-14.39-.21-29.63 0-42.69M192.25 367.958c8.59.61 16.95.62 40.32 0m-40.32 0c15.66-.52 30.38-.1 40.32 0m0 0c.32 15.26.68 31.61 0 42.69m0-42.69c-.33 11.9 0 23.22 0 42.69m0 0c-13.24.91-25.57-.66-40.32 0m40.32 0c-14.94-.37-30.59-.39-40.32 0m0 0c.17-13.67.25-29.14 0-42.69m0 42.69c-.33-10.61-.05-21.09 0-42.69"/><path fill="none" stroke="#000" stroke-linecap="round" d="M232.569 367.958c12.76.51 25.82-.03 40.32 0m-40.32 0c14.39.18 29.59.12 40.32 0m0 0c.77 17.75-.22 32.97 0 42.69m0-42.69c.11 15.65-.03 31.16 0 42.69m0 0c-14.17-.56-26.16 1.1-40.32 0m40.32 0c-11.24-.46-21.78.31-40.32 0m0 0c.36-12.45-.66-23.45 0-42.69m0 42.69c.04-15.69.05-30.68 0-42.69"/><path fill="none" stroke="#000" stroke-linecap="round" d="M272.94 367.958c15.45-.03 29.94.56 40.32 0m-40.32 0c9.25-.04 18.38.16 40.32 0m0 0c-.15 10.98.78 23.26 0 40.88m0-40.88c.11 15.11.24 29.68 0 40.88m0 0c-14.74.78-31.28.3-40.32 0m40.32 0c-9.43.3-19.3.04-40.32 0m0 0c-.67-14.46.49-28.97 0-40.88m0 40.88c-.07-10.15-.01-20.33 0-40.88"/><path fill="none" stroke="#000" stroke-linecap="round" d="M313.259 367.958c15.3.67 28.56-.54 40.32 0m-40.32 0c12.76.18 24.5.36 40.32 0m0 0c.58 15.33.62 31.64 0 40.49m0-40.49c.18 12.59.44 25.62 0 40.49m0 0c-9.45.64-18.96-.35-40.32 0m40.32 0c-9.52.36-18.53.4-40.32 0m0 0c.69-9.24-.43-17.12 0-40.49m0 40.49c-.01-9.04.39-17.53 0-40.49"/><path fill="none" stroke="#000" stroke-linecap="round" d="M353.972 367.958c11.7-.66 25.01.46 40.32 0m-40.32 0c11.76.28 24.07-.21 40.32 0m0 0c.81 9.73.34 18.83 0 42.69m0-42.69c.49 13.02-.29 27.14 0 42.69m0 0c-16.48-.45-32.39.4-40.32 0m40.32 0c-15.41.29-31.72-.22-40.32 0m0 0c-.67-11.44-.97-22.6 0-42.69m0 42.69c.36-11.7.16-23.37 0-42.69M192.073 410.112c14.92.71 29.67 1.06 40.32 0m-40.32 0c13.9-.29 26.54.18 40.32 0m0 0c.35 11.57.28 23.31 0 42.69m0-42.69c-.18 9.77.64 18.64 0 42.69m0 0c-14.58.2-26.93-.41-40.32 0m40.32 0c-14.01-.2-27.29.38-40.32 0m0 0c-.72-9.58-.16-18.78 0-42.69m0 42.69c-.01-10.27-.14-20.4 0-42.69"/><path fill="none" stroke="#000" stroke-linecap="round" d="M232.39 410.112c9.92.83 20.32-.24 40.32 0m-40.32 0c14.52.38 29.69.4 40.32 0m0 0c.18 14.66-.76 29.5 0 42.69m0-42.69c.31 9.65.07 19.26 0 42.69m0 0c-9.05-.24-19.49.5-40.32 0m40.32 0c-14.05.17-28.13-.39-40.32 0m0 0c-.09-11.82-.44-22.73 0-42.69m0 42.69c-.05-12.35.07-24.43 0-42.69"/><path fill="none" stroke="#000" stroke-linecap="round" d="M272.763 410.112c14.86-.31 29.74.67 40.32 0m-40.32 0c10.76.21 22.01-.03 40.32 0m0 0c-.77 14.01-.68 25.6 0 42.69m0-42.69c.42 15.74-.07 31.76 0 42.69m0 0c-12.97.38-26.22-.98-40.32 0m40.32 0c-10.17-.16-19.65-.31-40.32 0m0 0c-.56-11.07-.06-23.23 0-42.69m0 42.69c.13-11.81-.02-23.91 0-42.69"/><path fill="none" stroke="#000" stroke-linecap="round" d="M313.08 410.112c16.65.89 31.6-.78 40.32 0m-40.32 0c14.86-.03 29.4-.07 40.32 0m0 0c-.88 13.53.59 29.44 0 42.69m0-42.69c-.18 11.27.25 23.66 0 42.69m0 0c-10.46-.83-22.37-.29-40.32 0m40.32 0c-14.56-.53-28.98-.25-40.32 0m0 0c.01-12.04-.07-24.58 0-42.69m0 42.69c-.07-12.28.15-24.54 0-42.69M353.794 410.112c11.33-.98 23.89-.48 40.32 0m-40.32 0c14.88.03 29.84-.44 40.32 0m0 0c.61 17.35-.43 33.27 0 42.69m0-42.69c.04 10.58-.27 20.46 0 42.69m0 0c-14.46-.57-27.19-1-40.32 0m40.32 0c-10-.31-19.8-.48-40.32 0m0 0c-.17-15.68-.09-31.13 0-42.69m0 42.69c.22-14.06.46-28.75 0-42.69M192.073 453.19c16.22-.15 31.83.52 40.32 0m-40.32 0c13.1-.43 26.29-.38 40.32 0m0 0c-.12 10.16-.46 18.88 0 42.69m0-42.69c-.09 10.1.28 20.07 0 42.69m0 0c-7.82-.89-17.35-.34-40.32 0m40.32 0c-8.76-.36-17.06-.12-40.32 0m0 0c-.07-13.66.35-27.87 0-42.69m0 42.69c.36-13.5.12-26.09 0-42.69"/><path fill="none" stroke="#000" stroke-linecap="round" d="M232.39 453.19c9.53.42 17.91.15 40.32 0m-40.32 0c13.06-.19 24.91.54 40.32 0m0 0c-.69 16.25-.74 33.88 0 42.69m0-42.69c.16 16.77-.52 32.81 0 42.69m0 0c-11.11-.42-21.96-.41-40.32 0m40.32 0c-10.65-.18-21.85-.22-40.32 0m0 0c.34-12.89.07-25.3 0-42.69m0 42.69c.02-13.48-.52-26.92 0-42.69"/><path fill="none" stroke="#000" stroke-linecap="round" d="M272.763 453.19c11.06.01 21.83.27 40.32 0m-40.32 0c8.51.52 18.2 0 40.32 0m0 0c-.81 15.03.74 29.15 0 42.69m0-42.69c-.37 14.05-.1 28.97 0 42.69m0 0c-9.66-.3-17.9-.17-40.32 0m40.32 0c-9.48-.12-19.21-.08-40.32 0m0 0c-.02-13.5.08-26.93 0-42.69m0 42.69c-.42-8.77-.52-17.67 0-42.69"/><path fill="none" stroke="#000" stroke-linecap="round" d="M313.08 453.19c13.66.32 26.26.83 40.32 0m-40.32 0c9.71-.29 18.71-.47 40.32 0m0 0c.73 10.21.21 21.46 0 42.69m0-42.69c-.39 14.97-.61 29.08 0 42.69m0 0c-11.33-.17-22.72.63-40.32 0m40.32 0c-11.61-.1-23.1.12-40.32 0m0 0c.13-11.76-.97-24.91 0-42.69m0 42.69c-.3-12.58.13-24.69 0-42.69"/><path fill="none" stroke="#000" stroke-linecap="round" d="M353.794 453.19c11.63.78 24.16-.79 40.32 0m-40.32 0c15.38-.26 30.05-.28 40.32 0m0 0c.54 14.55.62 27.3 0 42.69m0-42.69c-.49 10.06-.21 20.25 0 42.69m0 0c-11.71.65-22.31.24-40.32 0m40.32 0c-11.17.13-22.62 0-40.32 0m0 0c-.99-14.17-.15-29.83 0-42.69m0 42.69c.17-12.25.46-24.28 0-42.69M192.073 495.766c12.75-.9 27.68.76 40.32 0m-40.32 0c10.7-.21 22.08.56 40.32 0m0 0c.51 10.62-.5 22.69 0 42.69m0-42.69c-.31 14.85-.3 30.41 0 42.69m0 0c-11.74.4-23.43.15-40.32 0m40.32 0c-11.64.09-23.04.13-40.32 0m0 0c.09-17.33.06-34.22 0-42.69m0 42.69c.28-10.4-.19-20.58 0-42.69"/><path fill="none" stroke="#000" stroke-linecap="round" d="M232.39 495.766c16.26 1.08 30.72.59 40.32 0m-40.32 0c9.73.57 19 .32 40.32 0m0 0c-.49 14.32.67 28.59 0 42.69m0-42.69c-.18 10.31-.12 20.6 0 42.69m0 0c-15.02.06-29.76.31-40.32 0m40.32 0c-13.14.08-26.25-.47-40.32 0m0 0c-.12-15.49-.52-29.27 0-42.69m0 42.69c-.31-11.76-.21-23.96 0-42.69"/><path fill="none" stroke="#000" stroke-linecap="round" d="M272.763 495.766c8.89.26 17.71-.73 40.32 0m-40.32 0c9.22 0 18.97.04 40.32 0m0 0c.45 8.08-.68 17.52 0 42.69m0-42.69c-.11 8.9.28 18.36 0 42.69m0 0c-13.26.26-25.98-.03-40.32 0m40.32 0c-11.84-.45-24.38-.03-40.32 0m0 0c-.52-10.06-.13-19.53 0-42.69m0 42.69c-.01-13.06-.28-26.4 0-42.69"/><path fill="none" stroke="#000" stroke-linecap="round" d="M313.08 495.766c15.23-.63 31.03.21 40.32 0m-40.32 0c15.85.15 30.8-.36 40.32 0m0 0c-.43 10.92-.72 22.11 0 42.69m0-42.69c.31 11.58.1 23.17 0 42.69m0 0c-11.84.02-24.24.47-40.32 0m40.32 0c-12.47-.25-25.68-.27-40.32 0m0 0c-.05-8.56.23-18.58 0-42.69m0 42.69c-.33-15.5-.32-31.15 0-42.69M353.794 495.766c13.23.41 28.68-.19 40.32 0m-40.32 0c13.09-.38 26.9.2 40.32 0m0 0c-.96 9.08-.39 18.54 0 42.69m0-42.69c.27 10.07.15 20.28 0 42.69m0 0c-13.1.41-26.15.9-40.32 0m40.32 0c-8.54-.1-16.87-.3-40.32 0m0 0c.15-13.09.71-25.6 0-42.69m0 42.69c-.2-14.64.19-30.1 0-42.69M395.008 110.359c10.8-.36 20.2.38 40.32 0m-40.32 0c13.67.41 27.32-.16 40.32 0m0 0c-.46 11.58-.8 24.08 0 42.69m0-42.69c.06 12.24.18 24.75 0 42.69m0 0c-11.82.99-24.89.51-40.32 0m40.32 0c-12.06-.31-23.26-.11-40.32 0m0 0c.65-15.31.47-30.99 0-42.69m0 42.69c.19-14.88.35-29.41 0-42.69"/><path fill="none" stroke="#000" stroke-linecap="round" d="M395.008 153.293c13.69.5 27.09-.86 40.32 0m-40.32 0c9.35-.39 19.39-.54 40.32 0m0 0c-.68 12.42-.18 23.75 0 42.69m0-42.69c.13 12.12-.02 23.96 0 42.69m0 0c-14.74.61-27.68-.47-40.32 0m40.32 0c-11.51-.19-22.72-.05-40.32 0m0 0c.35-11.92.27-23.09 0-42.69m0 42.69c.19-15.31-.35-29.94 0-42.69"/><path fill="none" stroke="#000" stroke-linecap="round" d="M395.008 196.228c11.33-1.01 21.21-.47 40.32 0m-40.32 0c14.3-.31 28.73-.03 40.32 0m0 0c-.25 12.56-.33 24.61 0 42.69m0-42.69c.04 12.33.26 24.69 0 42.69m0 0c-15.87-.56-31.65-.78-40.32 0m40.32 0c-9.61.02-19.95.31-40.32 0m0 0c.31-12.76.43-24.02 0-42.69m0 42.69c-.42-10.15-.18-20.66 0-42.69"/><path fill="none" stroke="#000" stroke-linecap="round" d="M395.008 239.37c13.3-.2 28.34-.63 40.32 0m-40.32 0c9.75.03 19.68-.14 40.32 0m0 0c-.22 15.71-.14 31.65 0 42.69m0-42.69c.2 14.21.44 27.79 0 42.69m0 0c-13.96-1-28.17-.15-40.32 0m40.32 0c-11.62.36-22.95.27-40.32 0m0 0c.44-9.62-.66-18.97 0-42.69m0 42.69c.05-10.75.39-21.41 0-42.69"/><path fill="none" stroke="#000" stroke-linecap="round" d="M395.008 282.305c8.97-.74 16.24-.18 40.32 0m-40.32 0c8.64-.25 17.73 0 40.32 0m0 0c-.16 14.18.27 27.8 0 42.69m0-42.69c.54 12.54.3 25.98 0 42.69m0 0c-10.03-.2-19.12.37-40.32 0m40.32 0c-12.66.38-25.49.35-40.32 0m0 0c-.69-9.34-.58-20.17 0-42.69m0 42.69c.28-14.4-.31-29.12 0-42.69"/><path fill="none" stroke="#000" stroke-linecap="round" d="M394.742 324.337c10-.09 20.27-.08 40.32 0m-40.32 0c11.33.06 22.11.03 40.32 0m0 0c.28 12.83.02 26.13 0 42.69m0-42.69c.4 13.36-.13 26.77 0 42.69m0 0c-8.76.54-17.08-.38-40.32 0m40.32 0c-15.2.31-30.03.36-40.32 0m0 0c-.34-13.78.55-26.39 0-42.69m0 42.69c-.46-13.27-.51-27.38 0-42.69M394.609 367.615c7.97-.2 17.35-.07 40.32 0m-40.32 0c9.74-.07 19.22-.03 40.32 0m0 0c.11 14.34.21 28.74 0 42.69m0-42.69c-.24 8.62-.35 17.12 0 42.69m0 0c-11.89-.27-23.33-.07-40.32 0m40.32 0c-14.44.35-28.12-.2-40.32 0m0 0c.53-14.72.25-28.57 0-42.69m0 42.69c-.26-15.4.05-30.08 0-42.69"/><path fill="none" stroke="#000" stroke-linecap="round" d="M394.43 409.768c10.78-.07 21.49.73 40.32 0m-40.32 0c11.62-.02 23.35.2 40.32 0m0 0c.15 13.57-.95 25.76 0 42.69m0-42.69c-.57 12.03-.15 24.53 0 42.69m0 0c-13.61-.26-28.08-.81-40.32 0m40.32 0c-13.75-.18-27.36-.12-40.32 0m0 0c.06-9.43.4-20.53 0-42.69m0 42.69c.07-14.58-.24-28.77 0-42.69M394.43 452.846c10.48.7 22.07.28 40.32 0m-40.32 0c11.43.18 22.58.05 40.32 0m0 0c-.93 15.01-.09 28.53 0 42.69m0-42.69c-.2 12.09.08 24.4 0 42.69m0 0c-10.08-.77-20.71-.75-40.32 0m40.32 0c-14.04-.35-28.82.1-40.32 0m0 0c.46-12.71.32-24.82 0-42.69m0 42.69c-.37-8.75-.25-17.15 0-42.69"/><path fill="none" stroke="#000" stroke-linecap="round" d="M394.43 495.423c11.49.12 23.03-.12 40.32 0m-40.32 0c11.61-.04 23.46.01 40.32 0m0 0c-.33 16.03-.36 32.48 0 42.69m0-42.69c.26 10.52-.2 21.26 0 42.69m0 0c-10.96-.87-22.22-.08-40.32 0m40.32 0c-10.13.12-19.68-.02-40.32 0m0 0c.25-15.71-1.08-29.99 0-42.69m0 42.69c-.12-10.51.37-20.82 0-42.69M435.445 110.359c14.63-.04 29.53.21 40.32 0m-40.32 0c13.56.06 27.15-.49 40.32 0m0 0c-.18 13.75-.58 29.22 0 42.69m0-42.69c-.08 12.44.02 24.45 0 42.69m0 0c-8.62-.08-18.87.26-40.32 0m40.32 0c-10.32.16-20.21.33-40.32 0m0 0c-1.05-10-.59-20.42 0-42.69m0 42.69c.32-11.41-.17-23.36 0-42.69"/><path fill="none" stroke="#000" stroke-linecap="round" d="M435.445 153.293c13.03.26 26.6-.04 40.32 0m-40.32 0c12.75-.51 24.8-.09 40.32 0m0 0c-.58 10.01-.2 20.61 0 42.69m0-42.69c-.17 13.55-.45 26.81 0 42.69m0 0c-9.78.42-18.87-.66-40.32 0m40.32 0c-13.59.28-28.03.21-40.32 0m0 0c-.3-10.14-.02-19.22 0-42.69m0 42.69c-.38-13.46.37-27.15 0-42.69"/><path fill="none" stroke="#000" stroke-linecap="round" d="M435.445 196.228c12.46-.09 24.34.37 40.32 0m-40.32 0c12.89.14 25.03.12 40.32 0m0 0c-.28 9.64 0 17.82 0 42.69m0-42.69c-.41 15.91-.4 31.68 0 42.69m0 0c-12.84-.6-24.31-.11-40.32 0m40.32 0c-13.05.28-25.8-.39-40.32 0m0 0c-.12-12.53.33-23.49 0-42.69m0 42.69c.58-16.03.22-32.77 0-42.69M435.445 239.37c13.19.42 26.43.91 40.32 0m-40.32 0c7.89-.05 16-.25 40.32 0m0 0c.08 12.33.64 25.24 0 42.69m0-42.69c-.52 15.17-.12 29.52 0 42.69m0 0c-13.29-.33-27.29.35-40.32 0m40.32 0c-14.5-.42-28.27-.19-40.32 0m0 0c.27-8.89.88-19.15 0-42.69m0 42.69c-.1-15.28.3-30.44 0-42.69"/><path fill="none" stroke="#000" stroke-linecap="round" d="M435.445 282.305c12.11.82 22.96.34 40.32 0m-40.32 0c11.19-.24 23.23-.05 40.32 0m0 0c.7 14.95.51 29.52 0 42.69m0-42.69c-.12 14.3.05 28.95 0 42.69m0 0c-9.22.45-18.24-.74-40.32 0m40.32 0c-13.63-.45-27.47-.31-40.32 0m0 0c.79-10.91.52-19.72 0-42.69m0 42.69c.46-15.58-.38-30.71 0-42.69"/><path fill="none" stroke="#000" stroke-linecap="round" d="M435.179 324.337c12.82.24 27.44-.83 40.32 0m-40.32 0c11.48.03 23.26.17 40.32 0m0 0c.63 10.45.56 21.65 0 42.69m0-42.69c.21 14.85-.33 30.37 0 42.69m0 0c-10.84-.61-22.32-.72-40.32 0m40.32 0c-8.57-.22-16.6.01-40.32 0m0 0c.39-13.56.47-28.77 0-42.69m0 42.69c-.56-11.9-.71-24.69 0-42.69"/><path fill="none" stroke="#000" stroke-linecap="round" d="M435.045 367.615c15.63-.73 31.35-.95 40.32 0m-40.32 0c10.15.09 19.57.37 40.32 0m0 0c.52 11.33.63 24.15 0 42.69m0-42.69c-.25 10.58-.01 20.81 0 42.69m0 0c-13.71-.96-29.11-.35-40.32 0m40.32 0c-10.32.06-19.86.37-40.32 0m0 0c.53-10.1-.23-19.57 0-42.69m0 42.69c-.35-12.82-.09-25.84 0-42.69"/><path fill="none" stroke="#000" stroke-linecap="round" d="M434.867 409.768c13.66-.74 27.07.11 40.32 0m-40.32 0c11.24.32 22.77.22 40.32 0m0 0c.62 9.75-.48 19.77 0 42.69m0-42.69c-.24 10.9.1 21.9 0 42.69m0 0c-10.23-.37-19.02-.99-40.32 0m40.32 0c-10.97.46-22.63.33-40.32 0m0 0c-.25-15.73-.13-34.13 0-42.69m0 42.69c-.03-16.85-.03-33.25 0-42.69"/><path fill="none" stroke="#000" stroke-linecap="round" d="M434.867 452.846c8.93.15 18.79.72 40.32 0m-40.32 0c12.47.11 24.76.07 40.32 0m0 0c-.46 10.15-.35 18.81 0 42.69m0-42.69c.2 14.9-.39 29.48 0 42.69m0 0c-9.31-.87-17.83-.62-40.32 0m40.32 0c-13.27.45-25.49.49-40.32 0m0 0c.03-14.28.93-28.18 0-42.69m0 42.69c-.13-12.84.44-26.1 0-42.69"/><path fill="none" stroke="#000" stroke-linecap="round" d="M434.867 495.423c8.43.55 17.31-.38 40.32 0m-40.32 0c14.47.11 29.31.17 40.32 0m0 0c-.59 12.42.31 26.01 0 42.69m0-42.69c-.25 13.62-.31 26.4 0 42.69m0 0c-11.51-.75-22.34.22-40.32 0m40.32 0c-14.99.44-30.81.06-40.32 0m0 0c.9-18.03.03-34.56 0-42.69m0 42.69c.44-11.55-.28-22.48 0-42.69M475.362 110.34c12.12-.49 24.69-.29 40.32 0m-40.32 0c13.72.18 28.19-.37 40.32 0m0 0c.33 14.34.05 29.54 0 42.69m0-42.69c-.56 14.42-.25 29.57 0 42.69m0 0c-8.55.27-16.7-.71-40.32 0m40.32 0c-14.29.08-28.26.13-40.32 0m0 0c-.16-10.36-.54-20.22 0-42.69m0 42.69c-.52-13.47-.23-27.6 0-42.69"/><path fill="none" stroke="#000" stroke-linecap="round" d="M475.362 153.274c14.97-.1 29.06-.65 40.32 0m-40.32 0c13.81-.39 27.76-.34 40.32 0m0 0c.24 10.4.58 19.12 0 42.69m0-42.69c-.28 14.07-.59 28.53 0 42.69m0 0c-8.91-.51-18.92.99-40.32 0m40.32 0c-14.22-.02-29.77.43-40.32 0m0 0c-.36-9.06.18-16.48 0-42.69m0 42.69c.08-11.14-.32-21.28 0-42.69"/><path fill="none" stroke="#000" stroke-linecap="round" d="M475.362 196.209c11.06-.7 21.55-.68 40.32 0m-40.32 0c14.44-.12 28.14.33 40.32 0m0 0c.52 11.3.39 23.19 0 42.69m0-42.69c-.46 8.52-.34 17.37 0 42.69m0 0c-13.11.8-26.69.06-40.32 0m40.32 0c-12.01.45-23.83.02-40.32 0m0 0c.26-10.07-.4-22.24 0-42.69m0 42.69c-.44-13.84-.38-27.73 0-42.69"/><path fill="none" stroke="#000" stroke-linecap="round" d="M475.362 239.351c11.79-.57 23.28.22 40.32 0m-40.32 0c9.45.31 19.49.17 40.32 0m0 0c.46 14.08-.88 29.58 0 42.69m0-42.69c-.47 10.73.02 21.65 0 42.69m0 0c-9.06.37-19.53 1.18-40.32 0m40.32 0c-12.62.2-24.48.01-40.32 0m0 0c-.52-11.54.26-21.74 0-42.69m0 42.69c-.21-9.18.17-19.62 0-42.69"/><path fill="none" stroke="#000" stroke-linecap="round" d="M475.362 282.286c9.68.21 17.72.55 40.32 0m-40.32 0c10.13-.01 20.7.16 40.32 0m0 0c-.9 9.6-.44 18.77 0 42.69m0-42.69c.07 12.24-.42 23.92 0 42.69m0 0c-15.9 1.03-31.58-.65-40.32 0m40.32 0c-15.99-.17-31.73.1-40.32 0m0 0c.4-15.87-.64-32.36 0-42.69m0 42.69c.14-15.37.2-30.12 0-42.69"/><path fill="none" stroke="#000" stroke-linecap="round" d="M475.096 324.317c8.63.39 17.94-.69 40.32 0m-40.32 0c14.08.22 27.32.15 40.32 0m0 0c-.72 8.49-.44 18.05 0 42.69m0-42.69c-.21 14.02.54 27.8 0 42.69m0 0c-12.84-.49-24.77-.79-40.32 0m40.32 0c-12.45.02-24.09-.31-40.32 0m0 0c-.8-10.56.46-20.02 0-42.69m0 42.69c.04-16.83-.45-33.82 0-42.69M474.963 367.595c11.91-.76 25.18-.27 40.32 0m-40.32 0c12.34.08 24.98-.59 40.32 0m0 0c-.34 11.36.11 24.27 0 42.69m0-42.69c.33 16.68-.04 32.66 0 42.69m0 0c-15.19-1.13-32.15-.62-40.32 0m40.32 0c-10.35-.2-21.75.19-40.32 0m0 0c.68-12.92 1.1-24.26 0-42.69m0 42.69c-.47-10.26.47-20.6 0-42.69"/><path fill="none" stroke="#000" stroke-linecap="round" d="M474.785 409.749c14.15-.05 27.59.63 40.32 0m-40.32 0c13.68-.56 28.07-.33 40.32 0m0 0c.17 9.67.78 17.97 0 42.69m0-42.69c.29 15.17.69 30.45 0 42.69m0 0c-9.3-.68-19-.67-40.32 0m40.32 0c-13.24.05-25.81-.47-40.32 0m0 0c.83-8.78-.75-17.36 0-42.69m0 42.69c.68-13.18.11-25.23 0-42.69M474.785 452.827c9.51.53 19.22-.67 40.32 0m-40.32 0c13.43-.06 26.65.08 40.32 0m0 0c.88 9.72.61 21.55 0 42.69m0-42.69c.53 15.58-.31 31.61 0 42.69m0 0c-8.46-.57-16.02.58-40.32 0m40.32 0c-10.26-.31-20.83.32-40.32 0m0 0c-.84-9.23-.21-19.47 0-42.69m0 42.69c-.29-11.06-.41-22.42 0-42.69"/><path fill="none" stroke="#000" stroke-linecap="round" d="M474.785 495.403c11.83-.8 23.03-.92 40.32 0m-40.32 0c7.74-.01 16.01.21 40.32 0m0 0c.74 15.39.82 29.13 0 42.69m0-42.69c-.13 12.8-.29 24.72 0 42.69m0 0c-9.96.58-20.77-.85-40.32 0m40.32 0c-13.8.11-27.05.32-40.32 0m0 0c.13-13.4-.2-23.98 0-42.69m0 42.69c-.17-8.99-.13-18.72 0-42.69M516.383 110.34c14.42-.68 27.15-.06 40.32 0m-40.32 0c9.74.16 20.25.46 40.32 0m0 0c.77 10.47.01 21.55 0 42.69m0-42.69c-.64 12.85-.39 25.49 0 42.69m0 0c-10.66-.62-20.07-.03-40.32 0m40.32 0c-9.53.58-18.27-.21-40.32 0m0 0c-.34-12.05-.82-26.19 0-42.69m0 42.69c-.08-15.54.45-30.94 0-42.69"/><path fill="none" stroke="#000" stroke-linecap="round" d="M516.383 153.274c8.28-.04 18-.66 40.32 0m-40.32 0c11.36.37 22.03.24 40.32 0m0 0c.03 17.71.14 32.75 0 42.69m0-42.69c-.46 16.5-.45 33.44 0 42.69m0 0c-14.53-.32-30.4-1.11-40.32 0m40.32 0c-14.26-.13-28.42.18-40.32 0m0 0c-.75-9.02.68-18.11 0-42.69m0 42.69c.43-15.55.2-30.38 0-42.69"/><path fill="none" stroke="#000" stroke-linecap="round" d="M516.383 196.209c8.29-.79 17.37-.54 40.32 0m-40.32 0c12.68.12 26.41.16 40.32 0m0 0c-.02 12.91.88 26.2 0 42.69m0-42.69c-.34 13.03.23 25.62 0 42.69m0 0c-9.8-1-17.6-.86-40.32 0m40.32 0c-15.87-.13-32.25-.3-40.32 0m0 0c.78-17.34.79-34.17 0-42.69m0 42.69c-.03-11.23.02-23.7 0-42.69M516.383 239.351c11.05-.42 22.77.56 40.32 0m-40.32 0c15.91.21 30.99-.17 40.32 0m0 0c.9 16.05.03 33.59 0 42.69m0-42.69c.24 11.08-.48 22.78 0 42.69m0 0c-10.89-1.02-21.9-.27-40.32 0m40.32 0c-10-.17-18.59-.41-40.32 0m0 0c.48-12.39-.39-23.4 0-42.69m0 42.69c.12-12.05-.37-23.3 0-42.69M516.383 282.286c8.98.51 18.36-.47 40.32 0m-40.32 0c14.47-.18 29.25-.13 40.32 0m0 0c.22 9.39-.16 19.27 0 42.69m0-42.69c-.23 13.77.06 26.86 0 42.69m0 0c-7.28-.25-17.08-.12-40.32 0m40.32 0c-11.58-.48-24.21.24-40.32 0m0 0c-.39-10.3-.38-21.79 0-42.69m0 42.69c-.39-16.58-.27-33.73 0-42.69"/><path fill="none" stroke="#000" stroke-linecap="round" d="M516.118 324.317c10.57-.67 20.05.84 40.32 0m-40.32 0c15.21.02 29.08.47 40.32 0m0 0c-.35 8.11.19 17.84 0 42.69m0-42.69c-.25 10.4-.64 21.81 0 42.69m0 0c-9.39.03-17.53-.94-40.32 0m40.32 0c-10.82.14-21.68.14-40.32 0m0 0c-.19-11.14.99-22.44 0-42.69m0 42.69c-.06-10.38.63-20.09 0-42.69M515.984 367.595c14.24 1.04 27.99.3 40.32 0m-40.32 0c11.32.45 22.83.01 40.32 0m0 0c.11 11.42-.55 20.74 0 42.69m0-42.69c-.52 14.36-.45 28.67 0 42.69m0 0c-11.79-.92-23.89.97-40.32 0m40.32 0c-8.99.43-17.73-.01-40.32 0m0 0c.98-15.53-.55-32.39 0-42.69m0 42.69c.58-14.18.47-29.02 0-42.69"/><path fill="none" stroke="#000" stroke-linecap="round" d="M515.806 409.749c10.36 0 19.31.81 40.32 0m-40.32 0c11.62-.17 24-.36 40.32 0m0 0c-.44 10.03.34 21.4 0 42.69m0-42.69c-.62 10.12-.25 18.98 0 42.69m0 0c-12.63.78-25.4-.36-40.32 0m40.32 0c-14.72-.01-28.75 0-40.32 0m0 0c-.8-14.51.21-28.15 0-42.69m0 42.69c.18-11.41-.6-22.52 0-42.69"/><path fill="none" stroke="#000" stroke-linecap="round" d="M515.806 452.827c15.68.95 31.59-.72 40.32 0m-40.32 0c15.5-.18 31.25.09 40.32 0m0 0c.2 15.53-.84 30.44 0 42.69m0-42.69c-.22 14.74-.16 30.11 0 42.69m0 0c-9.18.02-16.1-.22-40.32 0m40.32 0c-14.21-.18-29.01.41-40.32 0m0 0c.53-14.7-.19-27.63 0-42.69m0 42.69c-.55-15.51-.52-32.07 0-42.69"/><path fill="none" stroke="#000" stroke-linecap="round" d="M515.806 495.403c12.84-.89 26.58-1.19 40.32 0m-40.32 0c11.98.17 24.76-.17 40.32 0m0 0c-.68 8.63.59 18.36 0 42.69m0-42.69c0 16.82-.48 33.48 0 42.69m0 0c-15.37-.45-31.35-.37-40.32 0m40.32 0c-10.92.42-21.92-.35-40.32 0m0 0c-.4-9.14.64-19.48 0-42.69m0 42.69c-.19-13.52.34-26.59 0-42.69M557.64 110.015c17-.85 32.21-.34 40.32 0m-40.32 0c11.03-.28 21 .11 40.32 0m0 0c.37 11.26.78 24.1 0 42.69m0-42.69c-.46 9.92.49 19.78 0 42.69m0 0c-10.78-.42-23.04.63-40.32 0m40.32 0c-10.92-.12-22.51.39-40.32 0m0 0c.79-10.36.17-23.05 0-42.69m0 42.69c.32-16.29.04-32.46 0-42.69"/><path fill="none" stroke="#000" stroke-linecap="round" d="M557.64 152.95c9.35-.28 18.3-.27 40.32 0m-40.32 0c12.48.25 25.63-.27 40.32 0m0 0c1.05 8.62-.53 17.45 0 42.69m0-42.69c.28 12.36-.29 25.84 0 42.69m0 0c-10.67.65-21.07.18-40.32 0m40.32 0c-16.17.08-31.9-.28-40.32 0m0 0c-.05-17.82.65-34.79 0-42.69m0 42.69c-.19-10.64.31-21.51 0-42.69"/><path fill="none" stroke="#000" stroke-linecap="round" d="M557.64 195.884c7.75-.38 16.4.78 40.32 0m-40.32 0c10.09-.43 19.87.2 40.32 0m0 0c-.44 9.32.19 17.62 0 42.69m0-42.69c.12 11.67-.01 23.04 0 42.69m0 0c-11.01.4-20.59.5-40.32 0m40.32 0c-9.85-.08-18.82.44-40.32 0m0 0c.78-16.83-.53-31.91 0-42.69m0 42.69c.43-12.54.03-25.05 0-42.69"/><path fill="none" stroke="#000" stroke-linecap="round" d="M557.64 239.026c10.34.77 19.82-.66 40.32 0m-40.32 0c12.83.41 26.22.62 40.32 0m0 0c-.15 11.54-.48 25.9 0 42.69m0-42.69c-.25 9.6-.21 18.46 0 42.69m0 0c-14.07.4-30.6-.58-40.32 0m40.32 0c-13.24.3-27.07-.01-40.32 0m0 0c-.68-9.16-.28-19.23 0-42.69m0 42.69c-.19-13.29-.62-25.88 0-42.69"/><path fill="none" stroke="#000" stroke-linecap="round" d="M557.64 281.96c9.71-.89 20.67-.3 40.32 0m-40.32 0c8.7.36 18.19-.42 40.32 0m0 0c-.34 13.97-.83 25.84 0 42.69m0-42.69c-.26 15.28.27 30.69 0 42.69m0 0c-13.71-.56-25.81-.32-40.32 0m40.32 0c-10.44.2-22.04.55-40.32 0m0 0c0-10.04.13-18.86 0-42.69m0 42.69c-.44-11.09.39-22.04 0-42.69"/><path fill="none" stroke="#000" stroke-linecap="round" d="M557.374 323.992c15.13-.02 28.92-.81 40.32 0m-40.32 0c14.18-.51 28.46-.19 40.32 0m0 0c-.9 8.67.54 17.27 0 42.69m0-42.69c.29 15.3.05 31.31 0 42.69m0 0c-13.11-.52-27.35.87-40.32 0m40.32 0c-15.41.42-30.4-.23-40.32 0m0 0c.04-13.5-.4-28.58 0-42.69m0 42.69c.57-9.45.22-18.36 0-42.69"/><path fill="none" stroke="#000" stroke-linecap="round" d="M557.24 367.27c8.32-.93 18.65-.79 40.32 0m-40.32 0c15.91.12 31.32-.04 40.32 0m0 0c.43 16.5.44 33.51 0 42.69m0-42.69c.28 12.16.33 23.09 0 42.69m0 0c-9.88.91-18.41.7-40.32 0m40.32 0c-12.88-.09-24.89.1-40.32 0m0 0c-.43-11.89-.8-24.59 0-42.69m0 42.69c-.14-11.56-.04-23.82 0-42.69"/><path fill="none" stroke="#000" stroke-linecap="round" d="M557.063 409.424c11.94-.63 23.78.11 40.32 0m-40.32 0c9.07-.17 19.55-.41 40.32 0m0 0c.74 11.73-.13 24.84 0 42.69m0-42.69c.23 11.45-.26 23.7 0 42.69m0 0c-9.79.98-20.93-.57-40.32 0m40.32 0c-15.16-.16-30.78-.09-40.32 0m0 0c-.71-17.01-.1-31.44 0-42.69m0 42.69c.12-12.22.26-25.07 0-42.69"/><path fill="none" stroke="#000" stroke-linecap="round" d="M557.063 452.502c9.16.09 15.8.21 40.32 0m-40.32 0c12.54-.34 24.03.37 40.32 0m0 0c-.13 11.74-.12 22.29 0 42.69m0-42.69c-.24 16.99-.12 33.41 0 42.69m0 0c-15.99-.62-31.39-.54-40.32 0m40.32 0c-10.17-.01-19.73-.24-40.32 0m0 0c-.02-11.87.07-25.21 0-42.69m0 42.69c.22-16.83-.23-33.04 0-42.69"/><path fill="none" stroke="#000" stroke-linecap="round" d="M557.063 495.078c8.12.06 17.51-.91 40.32 0m-40.32 0c10.65.47 21.26.47 40.32 0m0 0c-.31 11.64.87 23.14 0 42.69m0-42.69c-.33 10.07.36 20.81 0 42.69m0 0c-14.43-.86-30.96.19-40.32 0m40.32 0c-11.26-.21-23.3-.4-40.32 0m0 0c-.06-8.89.91-17.63 0-42.69m0 42.69c-.29-14.18-.31-28.21 0-42.69M108.316 110.366c11.77-.94 23.22.95 40.32 0m-40.32 0c8.57.18 17.39-.25 40.32 0m0 0c.88 16.23-.66 31.13 0 42.69m0-42.69c.41 14.9.3 29.13 0 42.69m0 0c-9.48.2-18.06-.37-40.32 0m40.32 0c-12.2-.49-24.8-.18-40.32 0m0 0c.89-15.81.35-31.58 0-42.69m0 42.69c-.12-10.03-.25-20.44 0-42.69M149.634 110.366c11.95 1.15 23.75.01 40.32 0m-40.32 0c14.39-.25 29.46-.25 40.32 0m0 0c-.41 13.25.6 27.36 0 42.69m0-42.69c.6 11.51-.18 23.32 0 42.69m0 0c-9.38-.16-18.52.84-40.32 0m40.32 0c-10.84-.26-20.39-.21-40.32 0m0 0c.14-12.49-.8-26.4 0-42.69m0 42.69c-.24-12.95.32-26.28 0-42.69"/><path fill="none" stroke="#000" stroke-linecap="round" d="M108.316 153.3c7.53-.37 17.32-.61 40.32 0m-40.32 0c14.93-.07 29.26.52 40.32 0m0 0c.27 13.92-.45 29.61 0 42.69m0-42.69c-.22 16.31-.19 31.56 0 42.69m0 0c-13.46.73-27.38-.09-40.32 0m40.32 0c-8.49-.09-17.72.4-40.32 0m0 0c-.68-14.23-.05-28.17 0-42.69m0 42.69c.37-14.71.58-28.36 0-42.69M149.634 153.3c16.59-.38 32.57-.3 40.32 0m-40.32 0c11.17.52 22.27-.25 40.32 0m0 0c-.23 11.12.81 21.03 0 42.69m0-42.69c-.52 13.01 0 26.48 0 42.69m0 0c-11.61.11-23.17-.75-40.32 0m40.32 0c-11.3.41-22.53.14-40.32 0m0 0c.15-15.5.46-30.88 0-42.69m0 42.69c.34-12.23.15-25.06 0-42.69"/><path fill="none" stroke="#000" stroke-linecap="round" d="M108.316 196.235c12-.25 22.52.8 40.32 0m-40.32 0c11.27-.49 21.88.01 40.32 0m0 0c.66 11.91.04 21.5 0 42.69m0-42.69c.02 16.18-.26 32.48 0 42.69m0 0c-16.01-.91-30.6.75-40.32 0m40.32 0c-11.57.34-23.12-.13-40.32 0m0 0c.33-11.99-.12-22.22 0-42.69m0 42.69c.06-9.05.28-17 0-42.69M149.634 196.235c10.15.79 20.57.32 40.32 0m-40.32 0c15.54.32 31.51-.04 40.32 0m0 0c.26 16.27.96 33.39 0 42.69m0-42.69c-.04 10.66.46 21.09 0 42.69m0 0c-12.12.58-23.96-.13-40.32 0m40.32 0c-15.34-.24-31.38.07-40.32 0m0 0c-.19-10.68-1.06-21.42 0-42.69m0 42.69c.36-13.24-.51-26.58 0-42.69"/><path fill="none" stroke="#000" stroke-linecap="round" d="M108.316 239.378c10.51.11 22.45.21 40.32 0m-40.32 0c9.46-.24 19.81.28 40.32 0m0 0c.82 15.42-.48 32.59 0 42.69m0-42.69c.34 12.11-.07 24.25 0 42.69m0 0c-8.55.21-16.02.41-40.32 0m40.32 0c-13.57-.11-27 .04-40.32 0m0 0c-.96-9.17.17-19.61 0-42.69m0 42.69c-.6-8.67-.52-18.15 0-42.69M149.634 239.378c15.93.3 29.39-.68 40.32 0m-40.32 0c14.23.43 27.85.12 40.32 0m0 0c-.34 9.84.06 18.78 0 42.69m0-42.69c.14 12.49-.29 25.68 0 42.69m0 0c-14.3.26-30.02.55-40.32 0m40.32 0c-9.82.17-19.57-.06-40.32 0m0 0c.36-14.34-.69-28.74 0-42.69m0 42.69c-.15-14.72.29-29.09 0-42.69"/><path fill="none" stroke="#000" stroke-linecap="round" d="M108.316 282.312c12.5-.7 26.62-.46 40.32 0m-40.32 0c11.21-.09 21.26.25 40.32 0m0 0c-.22 9.59-.09 20.4 0 42.69m0-42.69c-.46 10.9.37 21.94 0 42.69m0 0c-11.99.59-25.23-.29-40.32 0m40.32 0c-12.5.01-24.12-.43-40.32 0m0 0c-.93-15.64.37-33.95 0-42.69m0 42.69c.26-15.4-.29-30.68 0-42.69M149.634 282.312c13.92-.26 26.71 1.12 40.32 0m-40.32 0c14.64.38 29.7-.27 40.32 0m0 0c-.01 15.04-.45 28.5 0 42.69m0-42.69c.19 9.35-.17 19.23 0 42.69m0 0c-13.74-.23-26.22-.28-40.32 0m40.32 0c-13.19-.52-26.41.05-40.32 0m0 0c.59-15.72.78-30.48 0-42.69m0 42.69c-.48-10.96-.31-22.05 0-42.69"/><path fill="none" stroke="#000" stroke-linecap="round" d="M108.05 324.344c9.25 1.07 19.86.86 40.32 0m-40.32 0c12.18-.41 25.23-.22 40.32 0m0 0c-.42 11.8-.8 22.78 0 42.69m0-42.69c.19 12.43.29 24.15 0 42.69m0 0c-14.26-.46-28.22-.71-40.32 0m40.32 0c-11.18-.13-23-.65-40.32 0m0 0c.5-17.42-.53-33.3 0-42.69m0 42.69c-.08-12.3.42-24.61 0-42.69M149.368 324.344c11.24.58 21.14-.97 40.32 0m-40.32 0c15.5.05 30.55.11 40.32 0m0 0c-.89 15.19-.28 32.96 0 42.69m0-42.69c.14 12.54.28 24.46 0 42.69m0 0c-10.39-.72-21.56.4-40.32 0m40.32 0c-7.88-.42-15.78.23-40.32 0m0 0c-.57-9.11-.3-19.55 0-42.69m0 42.69c.35-12.82.56-24.32 0-42.69"/><path fill="none" stroke="#000" stroke-linecap="round" d="M107.917 367.622c16.2-.93 33-.86 40.32 0m-40.32 0c9.94.03 20.5-.19 40.32 0m0 0c-.36 13.39-.27 25.31 0 42.69m0-42.69c.32 16.22-.12 33.05 0 42.69m0 0c-10.65.34-22.05.75-40.32 0m40.32 0c-12.23.02-25.79.11-40.32 0m0 0c-.08-10.88-.02-20.57 0-42.69m0 42.69c.34-10.34.23-21.4 0-42.69M149.235 367.622c16.03-.54 29.95.5 40.32 0m-40.32 0c12.03-.22 23.26-.4 40.32 0m0 0c-.14 8.99.83 18.14 0 42.69m0-42.69c-.06 14.2-.08 28.54 0 42.69m0 0c-10.48.98-18.84.59-40.32 0m40.32 0c-8.87.37-17.26-.14-40.32 0m0 0c-.08-14.35-.46-27.18 0-42.69m0 42.69c.14-8.63.12-16.8 0-42.69"/><path fill="none" stroke="#000" stroke-linecap="round" d="M107.739 409.776c8.47.48 17.83-.08 40.32 0m-40.32 0c12.15-.31 23.9-.01 40.32 0m0 0c.85 16.31.3 32.66 0 42.69m0-42.69c-.27 10.35-.4 20.32 0 42.69m0 0c-13.86.67-28.92 1.11-40.32 0m40.32 0c-14.02-.11-27.27.03-40.32 0m0 0c-.48-8.67-.97-17.41 0-42.69m0 42.69c.17-15.25-.05-30.75 0-42.69M149.056 409.776c9.16-.29 18.56.7 40.32 0m-40.32 0c9.93.07 21.15.11 40.32 0m0 0c.51 13.57-.43 25.72 0 42.69m0-42.69c-.41 12.83.15 25.29 0 42.69m0 0c-16.55 1.03-30.9-.71-40.32 0m40.32 0c-14.35-.18-29.36-.15-40.32 0m0 0c-.89-9.68.75-20.48 0-42.69m0 42.69c-.04-11.86.36-24.89 0-42.69"/><path fill="none" stroke="#000" stroke-linecap="round" d="M107.739 452.853c13.5.82 26.53 0 40.32 0m-40.32 0c9.25-.01 17.77.47 40.32 0m0 0c-.55 13.55.09 27.4 0 42.69m0-42.69c.1 13.72.3 28.51 0 42.69m0 0c-13.69-.62-27.58-.47-40.32 0m40.32 0c-10.72-.09-20.85-.29-40.32 0m0 0c.86-14.18.08-29.05 0-42.69m0 42.69c.46-15.95.29-31.43 0-42.69M149.056 452.853c10.76-.2 21.57-1.06 40.32 0m-40.32 0c11.35.46 22.78.18 40.32 0m0 0c-.11 14.73.2 29.59 0 42.69m0-42.69c.54 12.38.35 24.16 0 42.69m0 0c-15.25-.82-32.13.07-40.32 0m40.32 0c-11.65-.27-22.53-.52-40.32 0m0 0c-.27-15.98.51-33.04 0-42.69m0 42.69c.12-16.43.01-32.02 0-42.69"/><path fill="none" stroke="#000" stroke-linecap="round" d="M107.739 495.43c14.41-.9 30.22.77 40.32 0m-40.32 0c11.82-.01 23.66-.48 40.32 0m0 0c.33 10.7-.12 23.17 0 42.69m0-42.69c.43 8.15.65 17.4 0 42.69m0 0c-9.27.11-17.83-.99-40.32 0m40.32 0c-11.4-.6-22.83.22-40.32 0m0 0c.67-15.47.8-30.31 0-42.69m0 42.69c.08-9.24.3-18.58 0-42.69M149.056 495.43c11.74.94 23.75.23 40.32 0m-40.32 0c15.87-.37 31.04-.06 40.32 0m0 0c-.05 11.63-.92 23.18 0 42.69m0-42.69c.57 13.64-.3 27.17 0 42.69m0 0c-9.64-.81-19.05-.48-40.32 0m40.32 0c-9.63.12-19.82-.27-40.32 0m0 0c.64-14.5-.92-30.33 0-42.69m0 42.69c.35-9.79-.3-19.88 0-42.69"/><g stroke-linecap="round"><path fill="none" stroke="#2f9e44" stroke-width="2" d="M10.974 410.793c105-.32 523.3-1.6 628-2.05m-628.97.94c104.94-.61 523.29-1.89 628.06-2.51"/><path fill="none" stroke="#2f9e44" stroke-width="2" d="M609.914 417.553c5.72-2.28 13.55-4.05 28.15-10.38m-28.15 10.38c8.96-3.26 18.27-6.4 28.15-10.38M609.824 397.033c5.7 2.01 13.55 4.54 28.24 10.14m-28.24-10.14c9.1 3.56 18.44 7.24 28.24 10.14"/></g><g stroke-linecap="round"><path fill="none" stroke="#2f9e44" stroke-width="2" d="M273.65 689.269c-.93-106.45-4.02-533.05-4.76-639.89m3.34 639.4c-1.15-106.82-3.55-534.72-4.12-641.32"/><path fill="none" stroke="#2f9e44" stroke-width="2" d="M278.52 75.589c-2.15-10.07-7.16-20.08-10.41-28.13m10.41 28.13c-2.77-6.38-5.52-13.54-10.41-28.13"/><path fill="none" stroke="#2f9e44" stroke-width="2" d="M258 75.709c5.57-10.12 8.28-20.18 10.11-28.25M258 75.709c2.12-6.42 4.28-13.61 10.11-28.25"/></g><g stroke-linecap="round"><path fill="none" stroke="#2f9e44" d="M271.624 406.698c-6.49-13.73-32.43-68.65-38.92-82.39m38.92 82.39c-6.49-13.73-32.43-68.65-38.92-82.39"/><path fill="#2f9e44" fill-rule="evenodd" stroke-width="0" d="m232.704 324.308 11.54 9.59-11.46 5.41z"/><path fill="none" stroke="#2f9e44" d="M232.704 324.308c3.52 2.93 7.05 5.86 11.54 9.59m-11.54-9.59c3.49 2.9 6.97 5.79 11.54 9.59m0 0c-4.45 2.1-8.9 4.2-11.46 5.41m11.46-5.41-11.46 5.41m0 0-.08-15m.08 15c-.02-4.3-.05-8.6-.08-15m0 0q0 0 0 0m0 0q0 0 0 0"/></g><g stroke-linecap="round"><path fill="none" stroke="#1971c2" d="M272.865 414.245c-.02-.46-.12-2.28-.14-2.74m.14 2.74c-.02-.46-.12-2.28-.14-2.74"/><path fill="#1971c2" fill-rule="evenodd" stroke-width="0" d="m272.725 411.505.64 1.21-1.15.06z"/><path fill="none" stroke="#1971c2" d="M272.725 411.505c.21.4.42.79.64 1.21m-.64-1.21c.21.4.43.81.64 1.21m0 0c-.4.02-.81.04-1.15.06m1.15-.06c-.29.02-.59.03-1.15.06m0 0c.17-.44.35-.88.51-1.27m-.51 1.27c.18-.46.37-.92.51-1.27m0 0q0 0 0 0m0 0q0 0 0 0"/></g><g stroke-linecap="round"><path fill="none" stroke="#1971c2" d="m272.2 408.967 41.01.36m-41.01-.36 41.01.36"/><path fill="#1971c2" fill-rule="evenodd" stroke-width="0" d="m313.21 409.327-13.65 6.22.11-12.68z"/><path fill="none" stroke="#1971c2" d="M313.21 409.327c-4.84 2.2-9.67 4.4-13.65 6.22m13.65-6.22c-3.94 1.79-7.87 3.58-13.65 6.22m0 0c.04-4.98.08-9.96.11-12.68m-.11 12.68c.03-3.58.06-7.16.11-12.68m0 0c5.27 2.51 10.54 5.02 13.54 6.46m-13.54-6.46c5.11 2.44 10.22 4.87 13.54 6.46m0 0q0 0 0 0m0 0q0 0 0 0"/></g><g stroke-linecap="round"><path fill="none" stroke="#1971c2" d="M272.726 408.672c-.24-6.95-1.19-34.76-1.43-41.71m1.43 41.71c-.24-6.95-1.19-34.76-1.43-41.71"/><path fill="#1971c2" fill-rule="evenodd" stroke-width="0" d="m271.296 366.962 6.8 13.37-12.67.43z"/><path fill="none" stroke="#1971c2" d="M271.296 366.962c1.81 3.55 3.62 7.11 6.8 13.37m-6.8-13.37c1.37 2.69 2.74 5.39 6.8 13.37m0 0c-2.77.09-5.55.19-12.67.43m12.67-.43c-3.66.12-7.31.25-12.67.43m0 0c2.15-5.06 4.3-10.12 5.87-13.8m-5.87 13.8c1.3-3.05 2.6-6.11 5.87-13.8m0 0q0 0 0 0m0 0q0 0 0 0"/></g><text fill="#1971c2" dominant-baseline="text-before-edge" font-family="Virgil, Segoe UI Emoji" font-size="20" style="white-space:pre" transform="translate(314.926 390.588)">i</text><text fill="#1971c2" dominant-baseline="text-before-edge" font-family="Virgil, Segoe UI Emoji" font-size="20" style="white-space:pre" transform="translate(279.59 348.914)">j</text><text fill="#1971c2" dominant-baseline="text-before-edge" font-family="Virgil, Segoe UI Emoji" font-size="20" style="white-space:pre" transform="translate(214.317 323.344)">V</text><g stroke-linecap="round"><path fill="none" stroke="#e03131" d="M275.405 413.72c6.12 14.32 30.61 71.58 36.73 85.9m-36.73-85.9c6.12 14.32 30.61 71.58 36.73 85.9"/><path fill="#e03131" fill-rule="evenodd" stroke-width="0" d="m312.135 499.62-11.17-10.01 11.66-4.99z"/><path fill="none" stroke="#e03131" d="M312.135 499.62c-4.33-3.89-8.67-7.77-11.17-10.01m11.17 10.01c-4.01-3.59-8.01-7.18-11.17-10.01m0 0c2.89-1.24 5.77-2.47 11.66-4.99m-11.66 4.99c3.34-1.43 6.69-2.86 11.66-4.99m0 0-.49 15m.49-15-.49 15m0 0q0 0 0 0m0 0q0 0 0 0"/></g><g stroke-linecap="round"><path fill="none" stroke="#e03131" d="M274.606 411.999c19.98-.06 99.92-.29 119.9-.35m-119.9.35c19.98-.06 99.92-.29 119.9-.35"/><path fill="#e03131" fill-rule="evenodd" stroke-width="0" d="m394.506 411.649-13.57 6.38-.04-12.68z"/><path fill="none" stroke="#e03131" d="M394.506 411.649c-4.74 2.23-9.48 4.46-13.57 6.38m13.57-6.38c-3.46 1.63-6.93 3.26-13.57 6.38m0 0c-.01-4.4-.03-8.81-.04-12.68m.04 12.68c-.02-4.62-.03-9.24-.04-12.68m0 0c4.69 2.17 9.38 4.34 13.61 6.3m-13.61-6.3c5.31 2.46 10.61 4.92 13.61 6.3m0 0q0 0 0 0m0 0q0 0 0 0"/></g><text fill="#e03131" dominant-baseline="text-before-edge" font-family="Helvetica, Segoe UI Emoji" font-size="20" style="white-space:pre" transform="translate(301.855 497.812)">transformed i</text><text fill="#e03131" dominant-baseline="text-before-edge" font-family="Helvetica, Segoe UI Emoji" font-size="20" style="white-space:pre" transform="translate(380.354 416.71)">transformed j</text><g stroke-linecap="round"><path fill="none" stroke="#f08c00" stroke-width="4" d="M273.816 408.43c33.29-13.3 166.45-66.52 199.74-79.82m-199.74 79.82c33.29-13.3 166.45-66.52 199.74-79.82"/><path fill="#f08c00" fill-rule="evenodd" stroke-width="0" d="m473.556 328.61-10.27 10.93-4.71-11.77z"/><path fill="none" stroke="#f08c00" stroke-width="4" d="M473.556 328.61c-2.41 2.57-4.83 5.13-10.27 10.93m10.27-10.93c-2.57 2.73-5.14 5.46-10.27 10.93m0 0c-1.71-4.27-3.42-8.55-4.71-11.77m4.71 11.77c-1.12-2.78-2.23-5.57-4.71-11.77m0 0 14.98.84m-14.98-.84c3.98.22 7.95.45 14.98.84m0 0q0 0 0 0m0 0q0 0 0 0"/></g><text fill="#f08c00" dominant-baseline="text-before-edge" font-family="Helvetica, Segoe UI Emoji" font-size="16" style="white-space:pre" transform="translate(518.897 300.383)">W</text><text fill="#f08c00" dominant-baseline="text-before-edge" font-family="Helvetica, Segoe UI Emoji" font-size="20" style="white-space:pre" transform="translate(293.627 546.894)">v=-1i+2j</text><text y="23" fill="#f08c00" dominant-baseline="text-before-edge" font-family="Helvetica, Segoe UI Emoji" font-size="20" style="white-space:pre" transform="translate(293.627 546.894)">v是i帽+j帽的线性组合 (i/j帽: 可理解为单位向量)</text><text fill="#f08c00" dominant-baseline="text-before-edge" font-family="Helvetica, Segoe UI Emoji" font-size="20" style="white-space:pre" transform="translate(297.306 652.64)">w=-1(transformed i)+2(transformed j)</text><text y="23" fill="#f08c00" dominant-baseline="text-before-edge" font-family="Helvetica, Segoe UI Emoji" font-size="20" style="white-space:pre" transform="translate(297.306 652.64)">w 也是transformed后的i和j的线性组合</text><text y="69" fill="#f08c00" dominant-baseline="text-before-edge" font-family="Helvetica, Segoe UI Emoji" font-size="20" style="white-space:pre" transform="translate(297.306 652.64)">所以只要知道了变换后的i和j就能知道变换后的向量了</text><path fill="none" stroke="#9c36b5" stroke-dasharray="1.5 10" stroke-linecap="round" stroke-width="4.5" d="M435.676 257.854c22.67 43.74 113.34 218.7 136.01 262.44M437.107 494.575c-20.43-41.37-102.14-206.83-122.56-248.2"/><path fill="none" stroke="#f08c00" stroke-dasharray="1.5 10" stroke-linecap="round" stroke-width="4.5" d="M232.345 499.787c68.32-.76 341.62-3.81 409.95-4.58M192.927 325.348l374.42.9"/><text fill="#e03131" dominant-baseline="text-before-edge" font-family="Helvetica, Segoe UI Emoji" font-size="20" style="white-space:pre" transform="translate(295.026 622.291)">你换个角度来看, transformed后的i 和j</text><text fill="#1e1e1e" dominant-baseline="text-before-edge" font-family="Helvetica, Segoe UI Emoji" font-size="20" style="white-space:pre" transform="translate(210.387 10)">二维线性变换</text><text fill="#1e1e1e" dominant-baseline="text-before-edge" font-family="Helvetica, Segoe UI Emoji" font-size="20" style="white-space:pre" transform="translate(96.244 764.733)">上面变换后的i是 [1,-2]   j 是[3,0]  变换后w是 -1[1,-2] + 2[3,0]=  [-1,2] + [6,0]= [5,2]</text><text y="23" fill="#1e1e1e" dominant-baseline="text-before-edge" font-family="Helvetica, Segoe UI Emoji" font-size="20" style="white-space:pre" transform="translate(96.244 764.733)"> 我们将 变换后的i和j 的座标放到一个 2*2的格子里, 称为 矩阵 </text><path fill="#1e1e1e" d="m374.763 864.726-1.25.02q-1.24.02-2.49.1-1.26.09-2.32.25-1.06.17-.56 1.87.51 1.7.47 2.97-.03 1.27-.08 2.73-.06 1.45-.12 2.99t-.09 3.08q-.04 1.54-.06 3.1t-.05 3.21-.05 3.26.01 2.97q.04 1.36.1 2.43.07 1.08.2 2.54t.25 2.55.18 2.3q.05 1.22-.07 2.31-.11 1.09-.82-.2t1.03-1.72 3.54-.31q1.81.13 3.22.19 1.41.05 3.15.15 1.75.1 2.14.16.39.07.75.23.37.16.68.4.32.24.56.55.25.31.42.67.16.36.24.75.07.39.05.79-.02.39-.13.77-.12.38-.32.72t-.48.63q-.27.28-.61.49t-.72.33q-.37.12-.77.15-.39.03-.33.03t-.46-.09-.99-.35q-.47-.25-.83-.64-.36-.4-.58-.88-.22-.49-.27-1.02t.07-1.04q.12-.52.4-.98.28-.45.69-.79t.91-.53q.49-.19 1.02-.21.54-.03 1.05.12t.95.46q.43.3.75.73.32.42.48.93t.16 1.04q-.01.53-.18 1.03-.18.51-.51.93-.32.42-.77.71-.44.29-.96.43-.51.13-1.04.1-.53-.04-1.02-.24-.5-.2-.9-.55t-.67-.81-.38-.98q-.1-.52-.04-1.05t.29-1.01.6-.86.85-.63q.47-.24 1.06-.32.59-.07.98-.01.39.07.75.23.37.16.68.4.32.24.56.55.25.31.42.67.16.36.24.75.07.39.05.79-.02.39-.13.77t-.32.72q-.2.34-.48.63-.27.28-.61.49t-.72.33q-.37.12-.77.15-.39.03-2.81-.11-2.41-.14-4.08-.24-1.68-.1-3.43-.22-1.76-.12-2.92-.17-1.16-.06-2.33-.62-1.17-.57-1.81-2.48-.64-1.92-.5-3.08.14-1.17.21-2.24.06-1.08.1-2.57t.04-2.59q.01-1.11-.01-2.5t-.06-2.98q-.05-1.6-.12-3.23t-.14-3.21l-.14-3.15q-.07-1.57-.13-3.11t-.11-2.99q-.05-1.46-.09-2.73-.03-1.27-.04-3.36-.02-2.09.08-3.19.1-1.09 1.21-2.29t2.35-1.46q1.23-.26 2.48-.2t2.51.15q1.25.08 2.49.1 1.25.02 1.55.06.3.03.58.14t.53.28.46.4q.2.23.34.49.14.27.21.57.07.29.07.59t-.07.59q-.07.3-.21.57-.14.26-.35.49-.2.23-.45.4t-.53.28-.58.14z"/><text fill="#1e1e1e" dominant-baseline="text-before-edge" font-family="Helvetica, Segoe UI Emoji" font-size="20" style="white-space:pre" transform="translate(383.256 859.224)"> 1  3</text><text y="23" fill="#1e1e1e" dominant-baseline="text-before-edge" font-family="Helvetica, Segoe UI Emoji" font-size="20" style="white-space:pre" transform="translate(383.256 859.224)">-2  0</text><path fill="#1e1e1e" d="m430.045 857.112 1.05-.03q1.05-.02 2.35-.1 1.29-.07 2.36-.06 1.08.01 2.16.01 1.08.01 2.21.07 1.13.05 2.41.53 1.29.48 2.37.83 1.08.36 1.58 1.44t.56 2.55.04 3.15-.04 2.76l-.06 2.19q-.03 1.11-.05 2.21-.02 1.09-.04 3.09-.02 2.01-.02 3.68.01 1.68.03 2.98.03 1.3.05 2.39.03 1.09.06 2.4l.06 2.57q.03 1.27.05 2.38l.06 2.19q.03 1.07.05 2.24.03 1.16-.14 2.44t-.2 2.4-.2 2.32-1.3 2.52q-1.14 1.33-2.34 1.53-1.21.2-2.52.21t-2.62-.06q-1.3-.06-1.84.22-.53.28-1.13.38t-1.2 0-1.14-.39q-.54-.28-.95-.72-.42-.45-.67-1-.26-.55-.32-1.16-.07-.6.06-1.19.14-.6.45-1.12.32-.52.78-.91t1.03-.62q.56-.22 1.17-.25t1.19.13q.59.16 1.09.51.5.34.87.82.37.49.56 1.06.19.58.19 1.19t-.2 1.18q-.19.58-.56 1.06t-.87.82q-.51.34-1.09.51-.59.16-1.2.12-.6-.03-1.17-.26-.56-.22-1.02-.62-.47-.39-.78-.91-.31-.53-.44-1.12t-.06-1.2q.07-.6.32-1.15.26-.55.68-.99l.42-.45q0 .01 2.69-.68 2.7-.69 3.89-.68t2.26.03q1.06.02-.19.78t-1.09-.35.28-2.17q.12-1.07.14-2.23.03-1.17.06-2.24l.06-2.19q.02-1.11.05-2.38l.06-2.57q.03-1.31.06-2.4.02-1.09.04-2.39.03-1.3.04-2.98 0-1.67-.02-3.68-.02-2-.04-3.09-.02-1.1-.05-2.21-.03-1.12-.07-3.13-.05-2.01.06-3.54t.96-.66-.46.53q-1.3-.34-2.57-.53-1.27-.2-2.42-.37-1.14-.18-2.43-.25-1.3-.08-2.35-.1-1.05-.03-1.36-.07-.32-.04-.61-.15-.3-.11-.56-.29t-.47-.42-.36-.52-.22-.59q-.08-.31-.08-.62t.08-.62q.07-.31.22-.59t.36-.52.47-.42.56-.29q.29-.11.61-.15z"/><path fill="none" stroke="#2f9e44" stroke-dasharray="1.5 7" stroke-linecap="round" stroke-width="1.5" d="M406.016 840.004v76.72"/><g stroke-linecap="round"><path fill="none" stroke="#1e1e1e" stroke-dasharray="1.5 7" stroke-width="1.5" d="M391.622 912.148c-1.02 6.09-5.1 30.45-6.12 36.55"/><path fill="#1e1e1e" fill-rule="evenodd" stroke-width="0" d="m385.502 948.698-4.01-14.46 12.51 2.1z"/><path fill="none" stroke="#1e1e1e" stroke-width="1.5" d="M385.502 948.698c-.89-3.2-1.77-6.39-4.01-14.46m0 0c4.36.73 8.71 1.46 12.51 2.1m0 0-8.5 12.36m0 0q0 0 0 0"/></g><g stroke-linecap="round"><path fill="none" stroke="#1e1e1e" stroke-dasharray="1.5 7" stroke-width="1.5" d="M419.961 911.799c1.96 6.18 9.78 30.88 11.74 37.05"/><path fill="#1e1e1e" fill-rule="evenodd" stroke-width="0" d="m431.701 948.849-10.15-11.04 12.09-3.83z"/><path fill="none" stroke="#1e1e1e" stroke-width="1.5" d="M431.701 948.849c-2.56-2.78-5.11-5.56-10.15-11.04m0 0c4.75-1.51 9.49-3.01 12.09-3.83m0 0-1.94 14.87m0 0q0 0 0 0"/></g><text fill="#1e1e1e" dominant-baseline="text-before-edge" font-family="Helvetica, Segoe UI Emoji" font-size="20" style="white-space:pre" transform="translate(294.788 960.169)">变换后的i</text><text fill="#1e1e1e" dominant-baseline="text-before-edge" font-family="Helvetica, Segoe UI Emoji" font-size="20" style="white-space:pre" transform="translate(431.274 957.937)">变换后的j</text><path fill="#1e1e1e" d="m602.743 900.212-1.25.02q-1.24.02-2.49.1-1.26.09-2.32.25-1.06.17-.56 1.87.51 1.7.47 2.97-.03 1.27-.08 2.73-.06 1.45-.12 2.99t-.09 3.08q-.04 1.54-.06 3.1t-.05 3.21-.05 3.26.01 2.97q.04 1.36.1 2.43.07 1.08.2 2.54t.25 2.55.18 2.3q.05 1.22-.07 2.31-.11 1.09-.82-.2t1.03-1.72 3.54-.31q1.81.13 3.22.19 1.41.05 3.15.15 1.75.1 2.14.16.39.07.75.23.37.16.68.4.32.24.56.55.25.31.42.67.16.36.24.75.07.39.05.79-.02.39-.13.77-.12.38-.32.72t-.48.63q-.27.28-.61.49t-.72.33q-.37.12-.77.15-.39.03-.33.03t-.46-.09-.99-.35q-.47-.25-.83-.64-.36-.4-.58-.88-.22-.49-.27-1.02t.07-1.04q.12-.52.4-.98.28-.45.69-.79t.91-.53q.49-.19 1.02-.21.54-.03 1.05.12t.95.46q.43.3.75.73.32.42.48.93t.16 1.04q-.01.53-.18 1.03-.18.51-.51.93-.32.42-.77.71-.44.29-.96.43-.51.13-1.04.1-.53-.04-1.02-.24-.5-.2-.9-.55t-.67-.81-.38-.98q-.1-.52-.04-1.05t.29-1.01.6-.86.85-.63q.47-.24 1.06-.32.59-.07.98-.01.39.07.75.23.37.16.68.4.32.24.56.55.25.31.42.67.16.36.24.75.07.39.05.79-.02.39-.13.77t-.32.72q-.2.34-.48.63-.27.28-.61.49t-.72.33q-.37.12-.77.15-.39.03-2.81-.11-2.41-.14-4.08-.24-1.68-.1-3.43-.22-1.76-.12-2.92-.17-1.16-.06-2.33-.62-1.17-.57-1.81-2.48-.64-1.92-.5-3.08.14-1.17.21-2.24.06-1.08.1-2.57t.04-2.59q.01-1.11-.01-2.5t-.06-2.98q-.05-1.6-.12-3.23t-.14-3.21l-.14-3.15q-.07-1.57-.13-3.11t-.11-2.99q-.05-1.46-.09-2.73-.03-1.27-.04-3.36-.02-2.09.08-3.19.1-1.09 1.21-2.29t2.35-1.46q1.23-.26 2.48-.2t2.51.15q1.25.08 2.49.1 1.25.02 1.55.06.3.03.58.14t.53.28.46.4q.2.23.34.49.14.27.21.57.07.29.07.59t-.07.59q-.07.3-.21.57-.14.26-.35.49-.2.23-.45.4t-.53.28-.58.14z"/><text fill="#1e1e1e" dominant-baseline="text-before-edge" font-family="Helvetica, Segoe UI Emoji" font-size="20" style="white-space:pre" transform="translate(606.77 892.952)"> 1  </text><text y="23" fill="#1e1e1e" dominant-baseline="text-before-edge" font-family="Helvetica, Segoe UI Emoji" font-size="20" style="white-space:pre" transform="translate(606.77 892.952)">-2  </text><path fill="#1e1e1e" d="m752.056 893.13 1.05-.03q1.05-.02 2.35-.1 1.29-.07 2.36-.06 1.08.01 2.16.01 1.08.01 2.21.07 1.13.05 2.41.53 1.29.48 2.37.83 1.08.36 1.58 1.44t.56 2.55.04 3.15-.04 2.76l-.06 2.19q-.03 1.11-.05 2.21-.02 1.09-.04 3.09-.02 2.01-.02 3.68.01 1.68.03 2.98.03 1.3.05 2.39.03 1.09.06 2.4l.06 2.57q.03 1.27.05 2.38l.06 2.19q.03 1.07.05 2.24.03 1.16-.14 2.44t-.2 2.4-.2 2.32-1.3 2.52q-1.14 1.33-2.34 1.53-1.21.2-2.52.21t-2.62-.06q-1.3-.06-1.84.22-.53.28-1.13.38t-1.2 0-1.14-.39q-.54-.28-.95-.72-.42-.45-.67-1-.26-.55-.32-1.16-.07-.6.06-1.19.14-.6.45-1.12.32-.52.78-.91t1.03-.62q.56-.22 1.17-.25t1.19.13q.59.16 1.09.51.5.34.87.82.37.49.56 1.06.19.58.19 1.19t-.2 1.18q-.19.58-.56 1.06t-.87.82q-.51.34-1.09.51-.59.16-1.2.12-.6-.03-1.17-.26-.56-.22-1.02-.62-.47-.39-.78-.91-.31-.53-.44-1.12t-.06-1.2q.07-.6.32-1.15.26-.55.68-.99l.42-.45q0 .01 2.69-.68 2.7-.69 3.89-.68t2.26.03q1.06.02-.19.78t-1.09-.35.28-2.17q.12-1.07.14-2.23.03-1.17.06-2.24l.06-2.19q.02-1.11.05-2.38l.06-2.57q.03-1.31.06-2.4.02-1.09.04-2.39.03-1.3.04-2.98 0-1.67-.02-3.68-.02-2-.04-3.09-.02-1.1-.05-2.21-.03-1.12-.07-3.13-.05-2.01.06-3.54t.96-.66-.46.53q-1.3-.34-2.57-.53-1.27-.2-2.42-.37-1.14-.18-2.43-.25-1.3-.08-2.35-.1-1.05-.03-1.36-.07-.32-.04-.61-.15-.3-.11-.56-.29t-.47-.42-.36-.52-.22-.59q-.08-.31-.08-.62t.08-.62q.07-.31.22-.59t.36-.52.47-.42.56-.29q.29-.11.61-.15zM624.693 893.67l1.05-.03q1.05-.02 2.35-.1 1.29-.07 2.36-.06 1.08.01 2.16.01 1.08.01 2.21.07 1.13.05 2.41.53 1.29.48 2.37.83 1.08.36 1.58 1.44t.56 2.55.04 3.15-.04 2.76l-.06 2.19q-.03 1.11-.05 2.21-.02 1.09-.04 3.09-.02 2.01-.02 3.68.01 1.68.03 2.98.03 1.3.05 2.39.03 1.09.06 2.4l.06 2.57q.03 1.27.05 2.38l.06 2.19q.03 1.07.05 2.24.03 1.16-.14 2.44t-.2 2.4-.2 2.32-1.3 2.52q-1.14 1.33-2.34 1.53-1.21.2-2.52.21t-2.62-.06q-1.3-.06-1.84.22-.53.28-1.13.38t-1.2 0-1.14-.39q-.54-.28-.95-.72-.42-.45-.67-1-.26-.55-.32-1.16-.07-.6.06-1.19.14-.6.45-1.12.32-.52.78-.91t1.03-.62q.56-.22 1.17-.25t1.19.13q.59.16 1.09.51.5.34.87.82.37.49.56 1.06.19.58.19 1.19t-.2 1.18q-.19.58-.56 1.06t-.87.82q-.51.34-1.09.51-.59.16-1.2.12-.6-.03-1.17-.26-.56-.22-1.02-.62-.47-.39-.78-.91-.31-.53-.44-1.12t-.06-1.2q.07-.6.32-1.15.26-.55.68-.99l.42-.45q0 .01 2.69-.68 2.7-.69 3.89-.68t2.26.03q1.06.02-.19.78t-1.09-.35.28-2.17q.12-1.07.14-2.23.03-1.17.06-2.24l.06-2.19q.02-1.11.05-2.38l.06-2.57q.03-1.31.06-2.4.02-1.09.04-2.39.03-1.3.04-2.98 0-1.67-.02-3.68-.02-2-.04-3.09-.02-1.1-.05-2.21-.03-1.12-.07-3.13-.05-2.01.06-3.54t.96-.66-.46.53q-1.3-.34-2.57-.53-1.27-.2-2.42-.37-1.14-.18-2.43-.25-1.3-.08-2.35-.1-1.05-.03-1.36-.07-.32-.04-.61-.15-.3-.11-.56-.29t-.47-.42-.36-.52-.22-.59q-.08-.31-.08-.62t.08-.62q.07-.31.22-.59t.36-.52.47-.42.56-.29q.29-.11.61-.15z"/><text fill="#1e1e1e" dominant-baseline="text-before-edge" font-family="Helvetica, Segoe UI Emoji" font-size="20" style="white-space:pre" transform="translate(738.347 893.804)">3</text><text y="23" fill="#1e1e1e" dominant-baseline="text-before-edge" font-family="Helvetica, Segoe UI Emoji" font-size="20" style="white-space:pre" transform="translate(738.347 893.804)">0</text><path fill="#1e1e1e" d="m731.847 899.453-1.25.02q-1.24.02-2.49.1-1.26.09-2.32.25-1.06.17-.56 1.87.51 1.7.47 2.97-.03 1.27-.08 2.73-.06 1.45-.12 2.99t-.09 3.08q-.04 1.54-.06 3.1t-.05 3.21-.05 3.26.01 2.97q.04 1.36.1 2.43.07 1.08.2 2.54t.25 2.55.18 2.3q.05 1.22-.07 2.31-.11 1.09-.82-.2t1.03-1.72 3.54-.31q1.81.13 3.22.19 1.41.05 3.15.15 1.75.1 2.14.16.39.07.75.23.37.16.68.4.32.24.56.55.25.31.42.67.16.36.24.75.07.39.05.79-.02.39-.13.77-.12.38-.32.72t-.48.63q-.27.28-.61.49t-.72.33q-.37.12-.77.15-.39.03-.33.03t-.46-.09-.99-.35q-.47-.25-.83-.64-.36-.4-.58-.88-.22-.49-.27-1.02t.07-1.04q.12-.52.4-.98.28-.45.69-.79t.91-.53q.49-.19 1.02-.21.54-.03 1.05.12t.95.46q.43.3.75.73.32.42.48.93t.16 1.04q-.01.53-.18 1.03-.18.51-.51.93-.32.42-.77.71-.44.29-.96.43-.51.13-1.04.1-.53-.04-1.02-.24-.5-.2-.9-.55t-.67-.81-.38-.98q-.1-.52-.04-1.05t.29-1.01.6-.86.85-.63q.47-.24 1.06-.32.59-.07.98-.01.39.07.75.23.37.16.68.4.32.24.56.55.25.31.42.67.16.36.24.75.07.39.05.79-.02.39-.13.77t-.32.72q-.2.34-.48.63-.27.28-.61.49t-.72.33q-.37.12-.77.15-.39.03-2.81-.11-2.41-.14-4.08-.24-1.68-.1-3.43-.22-1.76-.12-2.92-.17-1.16-.06-2.33-.62-1.17-.57-1.81-2.48-.64-1.92-.5-3.08.14-1.17.21-2.24.06-1.08.1-2.57t.04-2.59q.01-1.11-.01-2.5t-.06-2.98q-.05-1.6-.12-3.23t-.14-3.21l-.14-3.15q-.07-1.57-.13-3.11t-.11-2.99q-.05-1.46-.09-2.73-.03-1.27-.04-3.36-.02-2.09.08-3.19.1-1.09 1.21-2.29t2.35-1.46q1.23-.26 2.48-.2t2.51.15q1.25.08 2.49.1 1.25.02 1.55.06.3.03.58.14t.53.28.46.4q.2.23.34.49.14.27.21.57.07.29.07.59t-.07.59q-.07.3-.21.57-.14.26-.35.49-.2.23-.45.4t-.53.28-.58.14z"/><text fill="#1e1e1e" dominant-baseline="text-before-edge" font-family="Helvetica, Segoe UI Emoji" font-size="36" style="white-space:pre" transform="translate(495.695 830.649)">v =</text><path fill="#1e1e1e" d="m573.964 835.209-1.25.02q-1.24.02-2.49.1-1.26.09-2.32.25-1.06.17-.56 1.87.51 1.7.47 2.97-.03 1.27-.08 2.73-.06 1.45-.12 2.99t-.09 3.08q-.04 1.54-.06 3.1t-.05 3.21-.05 3.26.01 2.97q.04 1.36.1 2.43.07 1.08.2 2.54t.25 2.55.18 2.3q.05 1.22-.07 2.31-.11 1.09-.82-.2t1.03-1.72 3.54-.31q1.81.13 3.22.19 1.41.05 3.15.15 1.75.1 2.14.16.39.07.75.23.37.16.68.4.32.24.56.55.25.31.42.67.16.36.24.75.07.39.05.79-.02.39-.13.77-.12.38-.32.72t-.48.63q-.27.28-.61.49t-.72.33q-.37.12-.77.15-.39.03-.33.03t-.46-.09-.99-.35q-.47-.25-.83-.64-.36-.4-.58-.88-.22-.49-.27-1.02t.07-1.04q.12-.52.4-.98.28-.45.69-.79t.91-.53q.49-.19 1.02-.21.54-.03 1.05.12t.95.46q.43.3.75.73.32.42.48.93t.16 1.04q-.01.53-.18 1.03-.18.51-.51.93-.32.42-.77.71-.44.29-.96.43-.51.13-1.04.1-.53-.04-1.02-.24-.5-.2-.9-.55t-.67-.81-.38-.98q-.1-.52-.04-1.05t.29-1.01.6-.86.85-.63q.47-.24 1.06-.32.59-.07.98-.01.39.07.75.23.37.16.68.4.32.24.56.55.25.31.42.67.16.36.24.75.07.39.05.79-.02.39-.13.77t-.32.72q-.2.34-.48.63-.27.28-.61.49t-.72.33q-.37.12-.77.15-.39.03-2.81-.11-2.41-.14-4.08-.24-1.68-.1-3.43-.22-1.76-.12-2.92-.17-1.16-.06-2.33-.62-1.17-.57-1.81-2.48-.64-1.92-.5-3.08.14-1.17.21-2.24.06-1.08.1-2.57t.04-2.59q.01-1.11-.01-2.5t-.06-2.98q-.05-1.6-.12-3.23t-.14-3.21l-.14-3.15q-.07-1.57-.13-3.11t-.11-2.99q-.05-1.46-.09-2.73-.03-1.27-.04-3.36-.02-2.09.08-3.19.1-1.09 1.21-2.29t2.35-1.46q1.23-.26 2.48-.2t2.51.15q1.25.08 2.49.1 1.25.02 1.55.06.3.03.58.14t.53.28.46.4q.2.23.34.49.14.27.21.57.07.29.07.59t-.07.59q-.07.3-.21.57-.14.26-.35.49-.2.23-.45.4t-.53.28-.58.14z"/><text fill="#1e1e1e" dominant-baseline="text-before-edge" font-family="Helvetica, Segoe UI Emoji" font-size="20" style="white-space:pre" transform="translate(577.99 827.948)">-1  </text><text y="23" fill="#1e1e1e" dominant-baseline="text-before-edge" font-family="Helvetica, Segoe UI Emoji" font-size="20" style="white-space:pre" transform="translate(577.99 827.948)">2  </text><path fill="#1e1e1e" d="m593.885 828.416 1.05-.03q1.05-.02 2.35-.1 1.29-.07 2.36-.06 1.08.01 2.16.01 1.08.01 2.21.07 1.13.05 2.41.53 1.29.48 2.37.83 1.08.36 1.58 1.44t.56 2.55.04 3.15-.04 2.76l-.06 2.19q-.03 1.11-.05 2.21-.02 1.09-.04 3.09-.02 2.01-.02 3.68.01 1.68.03 2.98.03 1.3.05 2.39.03 1.09.06 2.4l.06 2.57q.03 1.27.05 2.38l.06 2.19q.03 1.07.05 2.24.03 1.16-.14 2.44t-.2 2.4-.2 2.32-1.3 2.52q-1.14 1.33-2.34 1.53-1.21.2-2.52.21t-2.62-.06q-1.3-.06-1.84.22-.53.28-1.13.38t-1.2 0-1.14-.39q-.54-.28-.95-.72-.42-.45-.67-1-.26-.55-.32-1.16-.07-.6.06-1.19.14-.6.45-1.12.32-.52.78-.91t1.03-.62q.56-.22 1.17-.25t1.19.13q.59.16 1.09.51.5.34.87.82.37.49.56 1.06.19.58.19 1.19t-.2 1.18q-.19.58-.56 1.06t-.87.82q-.51.34-1.09.51-.59.16-1.2.12-.6-.03-1.17-.26-.56-.22-1.02-.62-.47-.39-.78-.91-.31-.53-.44-1.12t-.06-1.2q.07-.6.32-1.15.26-.55.68-.99l.42-.45q0 .01 2.69-.68 2.7-.69 3.89-.68t2.26.03q1.06.02-.19.78t-1.09-.35.28-2.17q.12-1.07.14-2.23.03-1.17.06-2.24l.06-2.19q.02-1.11.05-2.38l.06-2.57q.03-1.31.06-2.4.02-1.09.04-2.39.03-1.3.04-2.98 0-1.67-.02-3.68-.02-2-.04-3.09-.02-1.1-.05-2.21-.03-1.12-.07-3.13-.05-2.01.06-3.54t.96-.66-.46.53q-1.3-.34-2.57-.53-1.27-.2-2.42-.37-1.14-.18-2.43-.25-1.3-.08-2.35-.1-1.05-.03-1.36-.07-.32-.04-.61-.15-.3-.11-.56-.29t-.47-.42-.36-.52-.22-.59q-.08-.31-.08-.62t.08-.62q.07-.31.22-.59t.36-.52.47-.42.56-.29q.29-.11.61-.15z"/><text fill="#1e1e1e" dominant-baseline="text-before-edge" font-family="Helvetica, Segoe UI Emoji" font-size="36" style="white-space:pre" transform="translate(492.493 899.892)">w = -1</text><text fill="#1e1e1e" dominant-baseline="text-before-edge" font-family="Helvetica, Segoe UI Emoji" font-size="36" style="white-space:pre" transform="translate(659.679 896.285)">+</text><text fill="#1e1e1e" dominant-baseline="text-before-edge" font-family="Helvetica, Segoe UI Emoji" font-size="36" style="white-space:pre" transform="translate(695.635 900.33)">2</text></svg>