<svg xmlns="http://www.w3.org/2000/svg" width="625" height="332" preserveAspectRatio="none" style="width:625px;height:332px;background:#fff"><defs><filter id="a" width="300%" height="300%" x="-1" y="-1"><feGaussianBlur result="blurOut" stdDeviation="2"/><feColorMatrix in="blurOut" result="blurOut2" values="0 0 0 0 0 0 0 0 0 0 0 0 0 0 0 0 0 0 .4 0"/><feOffset dx="4" dy="4" in="blurOut2" result="blurOut3"/><feBlend in="SourceGraphic" in2="blurOut3"/></filter></defs><text x="553" y="19.282" fill="#888" font-family="sans-serif" font-size="10" textLength="52">made by x</text><text x="254" y="45.636" font-family="sans-serif" font-size="14" font-weight="bold" textLength="107">rust 字符串相关</text><rect width="66" height="40.297" x="10" y="160.383" fill="#A8EB99" filter="url(#a)" rx="7.5" ry="7.5" style="stroke:#000;stroke-width:1"/><text x="22" y="185.378" font-family="sans-serif" font-size="14" textLength="42">字符串</text><rect width="42" height="40.297" x="126" y="69.938" fill="#FBC" filter="url(#a)" rx="7.5" ry="7.5" style="stroke:#000;stroke-width:1"/><text x="138" y="94.933" font-family="sans-serif" font-size="14" textLength="18">str</text><rect width="353" height="40.297" x="218" y="69.938" fill="#FBC" filter="url(#a)" rx="7.5" ry="7.5" style="stroke:#000;stroke-width:1"/><text x="230" y="94.933" font-family="sans-serif" font-size="14" textLength="329">可变长度,rust在核心语言层面,只有这一种字符串类型</text><path fill="none" d="M168 90.086h50" style="stroke:red;stroke-width:1;stroke-dasharray:5,5"/><path fill="none" d="M76 180.531h10c15 0 15-90.445 30-90.445h10" style="stroke:green;stroke-width:1;stroke-dasharray:5,5"/><rect width="54" height="40.297" x="126" y="130.234" fill="#FFFFE0" filter="url(#a)" rx="7.5" ry="7.5" style="stroke:#000;stroke-width:1"/><text x="138" y="155.23" font-family="sans-serif" font-size="14" textLength="30">&amp;str</text><rect width="186" height="40.297" x="230" y="130.234" fill="#FFFFE0" filter="url(#a)" rx="7.5" ry="7.5" style="stroke:#000;stroke-width:1"/><text x="242" y="155.23" font-family="sans-serif" font-size="14" textLength="162">字符串切片,是对str的借用</text><path fill="none" d="M180 150.383h50" style="stroke:red;stroke-width:1;stroke-dasharray:5,5"/><path fill="none" d="M76 180.531h10c15 0 15-30.148 30-30.148h10" style="stroke:green;stroke-width:1;stroke-dasharray:5,5"/><rect width="64" height="40.297" x="126" y="190.531" fill="#E0FFFF" filter="url(#a)" rx="7.5" ry="7.5" style="stroke:#000;stroke-width:1"/><text x="138" y="215.526" font-family="sans-serif" font-size="14" textLength="40">String</text><rect width="182" height="40.297" x="240" y="190.531" fill="#E0FFFF" filter="url(#a)" rx="7.5" ry="7.5" style="stroke:#000;stroke-width:1"/><text x="252" y="215.526" font-family="sans-serif" font-size="14" textLength="158">标准库提供的,具有所有权</text><path fill="none" d="M190 210.68h50" style="stroke:red;stroke-width:1;stroke-dasharray:5,5"/><path fill="none" d="M76 180.531h10c15 0 15 30.149 30 30.149h10" style="stroke:green;stroke-width:1;stroke-dasharray:5,5"/><rect width="108" height="40.297" x="126" y="250.828" fill="#FBE972" filter="url(#a)" rx="7.5" ry="7.5" style="stroke:#000;stroke-width:1"/><text x="138" y="275.823" font-family="sans-serif" font-size="14" textLength="84">字符串字面量</text><rect width="322" height="40.297" x="284" y="250.828" fill="#FBE972" filter="url(#a)" rx="7.5" ry="7.5" style="stroke:#000;stroke-width:1"/><text x="296" y="275.823" font-family="sans-serif" font-size="14" textLength="298">在代码中直接出现的,由一对引号包围的字符序列</text><path fill="none" d="M234 270.977h50" style="stroke:red;stroke-width:1;stroke-dasharray:5,5"/><path fill="none" d="M76 180.531h10c15 0 15 90.446 30 90.446h10" style="stroke:green;stroke-width:1;stroke-dasharray:5,5"/><text x="281.5" y="315.12" font-family="sans-serif" font-size="14" textLength="52">figure 1</text></svg>