<svg xmlns="http://www.w3.org/2000/svg" width="727" height="661" preserveAspectRatio="none" style="width:727px;height:661px;background:#fff"><defs><filter id="a" width="300%" height="300%" x="-1" y="-1"><feGaussianBlur result="blurOut" stdDeviation="2"/><feColorMatrix in="blurOut" result="blurOut2" values="0 0 0 0 0 0 0 0 0 0 0 0 0 0 0 0 0 0 .4 0"/><feOffset dx="4" dy="4" in="blurOut2" result="blurOut3"/><feBlend in="SourceGraphic" in2="blurOut3"/></filter></defs><text x="655" y="19.282" fill="#888" font-family="sans-serif" font-size="10" textLength="52">made by x</text><text x="309.5" y="45.636" font-family="sans-serif" font-size="14" font-weight="bold" textLength="98">编程语言的类型</text><rect width="52" height="40.297" x="10" y="294.125" fill="#A8EB99" filter="url(#a)" rx="7.5" ry="7.5" style="stroke:#000;stroke-width:1"/><text x="22" y="319.12" font-family="sans-serif" font-size="14" textLength="28">类型</text><rect width="52" height="40.297" x="112" y="100.086" fill="#FBC" filter="url(#a)" rx="7.5" ry="7.5" style="stroke:#000;stroke-width:1"/><text x="124" y="125.081" font-family="sans-serif" font-size="14" textLength="28">作用</text><rect width="108" height="40.297" x="214" y="69.938" fill="#FBC" filter="url(#a)" rx="7.5" ry="7.5" style="stroke:#000;stroke-width:1"/><text x="226" y="94.933" font-family="sans-serif" font-size="14" textLength="84">如何分配内存</text><path fill="none" d="M164 120.234h10c15 0 15-30.148 30-30.148h10" style="stroke:green;stroke-width:1"/><rect width="108" height="40.297" x="214" y="130.234" fill="#FBC" filter="url(#a)" rx="7.5" ry="7.5" style="stroke:#000;stroke-width:1"/><text x="226" y="155.23" font-family="sans-serif" font-size="14" textLength="84">如何读写内存</text><path fill="none" d="M164 120.234h10c15 0 15 30.149 30 30.149h10M62 314.273h10c15 0 15-194.039 30-194.039h10" style="stroke:green;stroke-width:1"/><rect width="52" height="40.297" x="112" y="263.977" fill="#E0FFFF" filter="url(#a)" rx="7.5" ry="7.5" style="stroke:#000;stroke-width:1"/><text x="124" y="288.972" font-family="sans-serif" font-size="14" textLength="28">分类</text><rect width="52" height="40.297" x="214" y="233.828" fill="#E0FFFF" filter="url(#a)" rx="7.5" ry="7.5" style="stroke:#000;stroke-width:1"/><text x="226" y="258.823" font-family="sans-serif" font-size="14" textLength="28">指针</text><rect width="136" height="66.594" x="316" y="190.531" fill="#E0FFFF" filter="url(#a)" rx="7.5" ry="7.5" style="stroke:#000;stroke-width:1"/><text x="354" y="215.526" font-family="sans-serif" font-size="14" textLength="4"> </text><text x="358" y="215.526" font-family="sans-serif" font-size="14" textLength="56">值是地址</text><path d="M316 223.828h136" style="stroke:#000;stroke-width:1;stroke-dasharray:1,2"/><text x="328" y="241.823" font-family="sans-serif" font-size="14" textLength="112">表示指向一块内存</text><path fill="none" d="M266 253.977h10c15 0 15-30.149 30-30.149h10" style="stroke:green;stroke-width:1"/><rect width="94" height="40.297" x="316" y="277.125" fill="gold" filter="url(#a)" rx="7.5" ry="7.5" style="stroke:#000;stroke-width:1"/><text x="328" y="302.12" font-family="sans-serif" font-size="14" textLength="70">指针的类型</text><rect width="248" height="40.297" x="460" y="277.125" fill="gold" filter="url(#a)" rx="7.5" ry="7.5" style="stroke:#000;stroke-width:1"/><text x="472" y="302.12" font-family="sans-serif" font-size="14" textLength="224">表示你如何去读写它指向的那块内存</text><path fill="none" d="M410 297.273h50M266 253.977h10c15 0 15 43.296 30 43.296h10M164 284.125h10c15 0 15-30.148 30-30.148h10" style="stroke:green;stroke-width:1"/><rect width="66" height="40.297" x="214" y="337.422" fill="#E0FFFF" filter="url(#a)" rx="7.5" ry="7.5" style="stroke:#000;stroke-width:1"/><text x="226" y="362.417" font-family="sans-serif" font-size="14" textLength="42">非指针</text><path fill="none" d="M164 284.125h10c15 0 15 73.445 30 73.445h10M62 314.273h10c15 0 15-30.148 30-30.148h10" style="stroke:green;stroke-width:1"/><rect width="80" height="40.297" x="112" y="397.719" fill="#FFFFE0" filter="url(#a)" rx="7.5" ry="7.5" style="stroke:#000;stroke-width:1"/><text x="124" y="422.714" font-family="sans-serif" font-size="14" textLength="56">类型转换</text><rect width="178" height="40.297" x="242" y="397.719" fill="#FFFFE0" filter="url(#a)" rx="7.5" ry="7.5" style="stroke:#000;stroke-width:1"/><text x="254" y="422.714" font-family="sans-serif" font-size="14" textLength="154">换一种方式读写这块内存</text><path fill="none" d="M192 417.867h50M62 314.273h10c15 0 15 103.594 30 103.594h10" style="stroke:green;stroke-width:1"/><rect width="52" height="40.297" x="112" y="488.164" fill="#F8D9AE" filter="url(#a)" rx="7.5" ry="7.5" style="stroke:#000;stroke-width:1"/><text x="124" y="513.159" font-family="sans-serif" font-size="14" textLength="28">方法</text><rect width="290" height="40.297" x="214" y="458.016" fill="#F8D9AE" filter="url(#a)" rx="7.5" ry="7.5" style="stroke:#000;stroke-width:1"/><text x="226" y="483.011" font-family="sans-serif" font-size="14" textLength="266">可以根据类型的现实意义去推测具有的方法</text><path fill="none" d="M164 508.313h10c15 0 15-30.149 30-30.149h10" style="stroke:green;stroke-width:1"/><rect width="318" height="40.297" x="214" y="518.313" fill="#F8D9AE" filter="url(#a)" rx="7.5" ry="7.5" style="stroke:#000;stroke-width:1"/><text x="226" y="543.308" font-family="sans-serif" font-size="14" textLength="294">可以根据本身的内存布局方式去推测具有的方法</text><path fill="none" d="M164 508.313h10c15 0 15 30.148 30 30.148h10M62 314.273h10c15 0 15 194.04 30 194.04h10" style="stroke:green;stroke-width:1"/><rect width="190" height="36.297" x="263.5" y="580.609" fill="#F3FBEC" rx=".5" ry=".5" style="stroke:#f3fbec;stroke-width:1;stroke-dasharray:4,4"/><text x="273.5" y="603.605" fill="gray" font-family="sans-serif" font-size="14" font-weight="bold" textLength="165">编程语言: 控制内存的艺术</text><text x="345" y="643.901" font-family="sans-serif" font-size="14" textLength="27">图 1</text></svg>