<svg xmlns="http://www.w3.org/2000/svg" preserveAspectRatio="xMinYMin meet" viewBox="0 0 325 283"><svg id="d2-svg" width="325" height="283" class="d2-3388381990" viewBox="-1 -1 325 283"><rect width="325" height="283" x="-1" y="-1" stroke-width="0" rx="0" style="fill:#fff"/><style>.d2-3388381990 .text-mono{font-family:&quot;d2-3388381990-font-mono&quot;}@font-face{font-family:d2-3388381990-font-mono;src:url(/stylesheets/font/Virgil-hand.woff2)}.d2-3388381990 .text-mono-bold{font-family:&quot;d2-3388381990-font-mono-bold&quot;}@font-face{font-family:d2-3388381990-font-mono-bold;src:url(/stylesheets/font/Virgil-hand.woff2)}.connection,.shape{stroke-linejoin:round}.shape{shape-rendering:geometricPrecision}.connection{stroke-linecap:round}.d2-3388381990 .fill-N1{fill:#000410}.d2-3388381990 .fill-B6{fill:#fff}.d2-3388381990 .stroke-B1,.d2-3388381990 .stroke-N1{stroke:#000410}@media screen and (prefers-color-scheme:dark){.d2-3388381990 .fill-N1{fill:#cdd6f4}.d2-3388381990 .fill-B6{fill:#313244}.d2-3388381990 .stroke-N1{stroke:#cdd6f4}.d2-3388381990 .stroke-B1{stroke:#cba6f7}}.dots-overlay{fill:url(#dots);mix-blend-mode:multiply}</style><defs><pattern id="dots" width="15" height="15" x="0" y="0" patternUnits="userSpaceOnUse"><path fill="#0A0F25" d="M2 2h1v1H2zM12 2h1v1h-1zM12 12h1v1h-1zM2 12h1v1H2zM2 7h1v1H2zM12 7h1v1h-1zM7 2h1v1H7zM7 12h1v1H7zM7 7h1v1H7z" opacity=".1" style="mix-blend-mode:multiply"/></pattern></defs><defs><filter id="shadow-filter" width="200%" height="200%" x="-50%" y="-50%"><feGaussianBlur in="SourceGraphic" stdDeviation="1.7"/><feFlood flood-color="#3d4574" flood-opacity=".4" result="ShadowFeFlood"/><feComposite in="ShadowFeFlood" in2="SourceAlpha" operator="in" result="ShadowFeComposite"/><feOffset dx="3" dy="5" in="ShadowFeComposite" result="ShadowFeOffset"/><feBlend in="SourceGraphic" in2="ShadowFeOffset" result="ShadowFeBlend"/></filter></defs><g id="top-row" class="empty"><g class="shape"><path fill="transparent" d="M0 0h320v120H0z" class="stroke-B1" style="stroke-width:0"/><path d="M0 0h320v120H0z" class="dots-overlay" style="stroke-width:0"/><path fill="transparent" d="M5 5h310v110H5z" class="stroke-B1" style="stroke-width:0"/></g></g><g id="bottom-row" class="empty"><g class="shape"><path fill="transparent" d="M0 160h320v122H0z" class="stroke-B1" style="stroke-width:0"/><path d="M0 160h320v122H0z" class="dots-overlay" style="stroke-width:0"/><path fill="transparent" d="M5 165h310v112H5z" class="stroke-B1" style="stroke-width:0"/></g></g><g id="top-row.title" class="empty"><g class="shape"><path fill="transparent" d="M0 0h205v120H0z" class="stroke-B1" style="stroke-width:0"/></g><text x="102.5" y="68" class="text-mono-bold fill-N1" style="text-anchor:middle;font-size:22px">内存对齐优化</text></g><g id="top-row.code"><g style="display:block"><path d="M0 0h112v120H0z" class="shape stroke-N1" style="fill:#fff;stroke-width:2" transform="translate(205)"/><text y="1em" class="text-mono" transform="translate(213 8)"><tspan class="text-mono-bold">struct</tspan> <tspan fill="#458" class="text-mono-bold">A</tspan><tspan fill="#bbb"> </tspan>{<tspan fill="#bbb">
</tspan></text><text y="2.3em" class="text-mono" transform="translate(213 8)"><tspan fill="#bbb">  </tspan>a: <tspan fill="#458" class="text-mono-bold">u8</tspan>,<tspan fill="#bbb">
</tspan></text><text y="3.6em" class="text-mono" transform="translate(213 8)"><tspan fill="#bbb">  </tspan>b: <tspan fill="#458" class="text-mono-bold">u32</tspan>,<tspan fill="#bbb">
</tspan></text><text y="4.9em" class="text-mono" transform="translate(213 8)"><tspan fill="#bbb">  </tspan>c: <tspan fill="#458" class="text-mono-bold">u16</tspan>,<tspan fill="#bbb">
</tspan></text><text y="6.2em" class="text-mono" transform="translate(213 8)">}</text></g></g><g id="bottom-row.a" class="message"><g class="shape" filter="url(#shadow-filter)"><rect width="320" height="30" y="196" class="stroke-B1" rx="10" style="fill:#f5f6f9;stroke-width:2"/><rect width="320" height="30" y="196" class="dots-overlay" rx="10" style="stroke-width:2"/></g><text x="258" y="184" class="text-mono fill-N1" style="text-anchor:middle;font-size:24px">STRUCT A</text></g><g id="bottom-row.byte-Write" class="empty"><g class="shape"><path fill="transparent" d="M0 226h320v56H0z" class="stroke-B1" style="stroke-width:0"/><path d="M0 226h320v56H0z" class="dots-overlay" style="stroke-width:0"/></g></g><g id="bottom-row.a.&quot;a: 1&quot;"><g class="shape"><path d="M0 196h80v30H0z" class="stroke-B1 fill-B6" style="stroke-width:2"/></g><text x="40" y="216.5" class="text-mono-bold fill-N1" style="text-anchor:middle;font-size:16px">a: 1</text></g><g id="bottom-row.a.&quot;c: 3&quot;"><g class="shape"><path d="M80 196h80v30H80z" class="stroke-B1 fill-B6" style="stroke-width:2"/></g><text x="120" y="216.5" class="text-mono-bold fill-N1" style="text-anchor:middle;font-size:16px">c: 3</text></g><g id="bottom-row.a.&quot;b: 2&quot;"><g class="shape"><path d="M160 196h160v30H160z" class="stroke-B1 fill-B6" style="stroke-width:2"/></g><text x="240" y="216.5" class="text-mono-bold fill-N1" style="text-anchor:middle;font-size:16px">b: 2</text></g><g id="bottom-row.byte-Write.7-6" class="outside-empty"><g class="shape"><path fill="transparent" d="M0 252h80v30H0z" class="stroke-B1" style="stroke-width:0"/></g><text x="60.5" y="242" fill="gray" class="text-mono-bold" style="text-anchor:middle;font-size:16px">7-6</text></g><g id="bottom-row.byte-Write.5-4" class="outside-empty"><g class="shape"><path fill="transparent" d="M80 252h80v30H80z" class="stroke-B1" style="stroke-width:0"/></g><text x="140.5" y="242" fill="gray" class="text-mono-bold" style="text-anchor:middle;font-size:16px">5-4</text></g><g id="bottom-row.byte-Write.3-0" class="outside-empty"><g class="shape"><path fill="transparent" d="M160 252h160v30H160z" class="stroke-B1" style="stroke-width:0"/></g><text x="300.5" y="242" fill="gray" class="text-mono-bold" style="text-anchor:middle;font-size:16px">3-0</text></g><g id="(top-row -&gt; bottom-row)[0]"><marker id="mk-4044349442" markerHeight="28" markerUnits="userSpaceOnUse" markerWidth="22" orient="auto" refX="13" refY="14" viewBox="0 0 22 28"><path stroke-width="6" d="m0 0 22 14L0 28z" class="connection" style="fill:#000410"/></marker><path fill="none" marker-end="url(#mk-4044349442)" d="M160 123v28" class="connection stroke-B1" mask="url(#d2-3388381990)" style="stroke-width:6"/></g><mask id="d2-3388381990" width="325" height="283" x="-1" y="-1" maskUnits="userSpaceOnUse"><path fill="#fff" d="M-1-1h325v283H-1z"/><path fill="rgba(0,0,0,0.75)" d="M22.5 46h160v28h-160zM205 0h96v104h-96zM201 160h114v31H201zM21 200.5h38v21H21zM101.5 200.5h37v21h-37zM221.5 200.5h37v21h-37zM46 226h29v21H46zM126 226h29v21h-29zM286 226h29v21h-29z"/></mask></svg></svg>