<svg xmlns="http://www.w3.org/2000/svg" viewBox="0 0 1104 670"><defs><filter id="a" width="1.157" height="1.504" x="-.079" y="-.252"><feGaussianBlur stdDeviation="4.2"/></filter></defs><desc>blockdiag {
default_fontsize = 14;
node_width = 158;
node_height = 40;
span_width = 44;
span_height = 20;
// edge_layout = flowchart;
//orientation = portrait
default_shape = roundedbox;
// database [shape = flowchart.database]
// B [style = dotted];
// C [style = dashed];
// A [width=192,height=64,fontsize=20,textcolor=blue,numbered = 1]
//note [color = none, style = dashed,shape = note];
//A -&gt; B, C;
//D, E -&gt; F;
    API [label=&quot;API 对象&quot;,color=lightgreen,width=66];
    g [label=&quot;Group: API 组&quot;];
v [label=&quot;Version: API 版本&quot;];
  r[label=&quot;Version: API 资源&quot;];
    API -&gt; g,v,r;
    root [label =&quot;/&quot;, color =&quot;pink&quot;, width=66];
    healthz [label=&quot;/healthz&quot;,width=88];
    metrics [label=&quot;/metrics&quot;,width=88];
    api [label=&quot;/api\n核  心  对  象&quot;,color=lightblue,width=88,height=60];
    apis [label=&quot;/apis\n非  核  心  对象&quot;,color=orange,width=88,height=60];
    root -&gt; healthz, metrics, api, apis;
    v1namespaces [label = &quot;/api/v1/namespaces&quot;];
    apiv1 [label = &quot;/api/v1\n(Group是空)&quot;,width=98,height=70];
    apibatch [label = &quot;/apis/batch&quot;,width=98];
    api -&gt; apiv1 -&gt; &quot;/api/v1/pods&quot;,v1namespaces;
    apis -&gt;  apibatch -&gt; &quot;/apis/batch/v1&quot;;
    &quot;/apis/batch/v1&quot; -&gt; &quot;/apis/batch/v1/jobs&quot;;
    default_group_color= none;
    default_node_color= lightyellow;
    group {
        //orientation = portrait ;
        Group [style = dashed,shape = note,label=&quot;Group: batch&quot;];
        Version [style = dashed,shape = note,label=&quot;Version: v1&quot;];
        Resource [style = dashed,shape = note,label=&quot;Resource: jobs&quot;];
        &quot;/apis/batch/v1/jobs&quot; -- Group,Version,Resource [style = dashed];
    }
    apibatch -&gt; &quot;/apis/batch/v1beta&quot;;
    apps [label =&quot;/apis/apps&quot; ,width=98]
    apis -&gt; apps;
}</desc><path fill="none" d="M695 465h370v190H695z" style="filter:url(#a)"/><path stroke="#000" d="M55 26h50a8 8 0 0 1 8 8v24a8 8 0 0 1-8 8H55a8 8 0 0 1-8-8V34a8 8 0 0 1 8-8M165 26h142a8 8 0 0 1 8 8v24a8 8 0 0 1-8 8H165a8 8 0 0 1-8-8V34a8 8 0 0 1 8-8M165 86h142a8 8 0 0 1 8 8v24a8 8 0 0 1-8 8H165a8 8 0 0 1-8-8V94a8 8 0 0 1 8-8M165 146h142a8 8 0 0 1 8 8v24a8 8 0 0 1-8 8H165a8 8 0 0 1-8-8v-24a8 8 0 0 1 8-8M55 206h50a8 8 0 0 1 8 8v24a8 8 0 0 1-8 8H55a8 8 0 0 1-8-8v-24a8 8 0 0 1 8-8M200 206h72a8 8 0 0 1 8 8v24a8 8 0 0 1-8 8h-72a8 8 0 0 1-8-8v-24a8 8 0 0 1 8-8M200 266h72a8 8 0 0 1 8 8v24a8 8 0 0 1-8 8h-72a8 8 0 0 1-8-8v-24a8 8 0 0 1 8-8M200 331h72a8 8 0 0 1 8 8v44a8 8 0 0 1-8 8h-72a8 8 0 0 1-8-8v-44a8 8 0 0 1 8-8M200 476h72a8 8 0 0 1 8 8v44a8 8 0 0 1-8 8h-72a8 8 0 0 1-8-8v-44a8 8 0 0 1 8-8M509 341h142a8 8 0 0 1 8 8v24a8 8 0 0 1-8 8H509a8 8 0 0 1-8-8v-24a8 8 0 0 1 8-8M509 416h142a8 8 0 0 1 8 8v24a8 8 0 0 1-8 8H509a8 8 0 0 1-8-8v-24a8 8 0 0 1 8-8M367 326h82a8 8 0 0 1 8 8v54a8 8 0 0 1-8 8h-82a8 8 0 0 1-8-8v-54a8 8 0 0 1 8-8M367 486h82a8 8 0 0 1 8 8v24a8 8 0 0 1-8 8h-82a8 8 0 0 1-8-8v-24a8 8 0 0 1 8-8M367 556h82a8 8 0 0 1 8 8v24a8 8 0 0 1-8 8h-82a8 8 0 0 1-8-8v-24a8 8 0 0 1 8-8M509 486h142a8 8 0 0 1 8 8v24a8 8 0 0 1-8 8H509a8 8 0 0 1-8-8v-24a8 8 0 0 1 8-8M509 556h142a8 8 0 0 1 8 8v24a8 8 0 0 1-8 8H509a8 8 0 0 1-8-8v-24a8 8 0 0 1 8-8M905 486h142l16 16v24H905zM905 556h142l16 16v24H905zM905 616h142l16 16v24H905zM711 486h142a8 8 0 0 1 8 8v24a8 8 0 0 1-8 8H711a8 8 0 0 1-8-8v-24a8 8 0 0 1 8-8" style="filter:url(#a);opacity:.7;fill-opacity:1"/><path fill="#90EE90" stroke="#000" d="M52 20h50a8 8 0 0 1 8 8v24a8 8 0 0 1-8 8H52a8 8 0 0 1-8-8V28a8 8 0 0 1 8-8"/><text x="77.5" y="48" font-family="sans-serif" font-size="14" text-anchor="middle" textLength="47">API 对象</text><path fill="#FFFFE0" stroke="#000" d="M162 20h142a8 8 0 0 1 8 8v24a8 8 0 0 1-8 8H162a8 8 0 0 1-8-8V28a8 8 0 0 1 8-8"/><text x="233.5" y="48" font-family="sans-serif" font-size="14" text-anchor="middle" textLength="91">Group: API 组</text><path fill="#FFFFE0" stroke="#000" d="M162 80h142a8 8 0 0 1 8 8v24a8 8 0 0 1-8 8H162a8 8 0 0 1-8-8V88a8 8 0 0 1 8-8"/><text x="233.5" y="108" font-family="sans-serif" font-size="14" text-anchor="middle" textLength="109">Version: API 版本</text><path fill="#FFFFE0" stroke="#000" d="M162 140h142a8 8 0 0 1 8 8v24a8 8 0 0 1-8 8H162a8 8 0 0 1-8-8v-24a8 8 0 0 1 8-8"/><text x="233.5" y="168" font-family="sans-serif" font-size="14" text-anchor="middle" textLength="109">Version: API 资源</text><path fill="pink" stroke="#000" d="M52 200h50a8 8 0 0 1 8 8v24a8 8 0 0 1-8 8H52a8 8 0 0 1-8-8v-24a8 8 0 0 1 8-8"/><text x="77.5" y="228" font-family="sans-serif" font-size="14" text-anchor="middle" textLength="5">/</text><path fill="#FFFFE0" stroke="#000" d="M197 200h72a8 8 0 0 1 8 8v24a8 8 0 0 1-8 8h-72a8 8 0 0 1-8-8v-24a8 8 0 0 1 8-8"/><text x="233.5" y="228" font-family="sans-serif" font-size="14" text-anchor="middle" textLength="57">/healthz</text><path fill="#FFFFE0" stroke="#000" d="M197 260h72a8 8 0 0 1 8 8v24a8 8 0 0 1-8 8h-72a8 8 0 0 1-8-8v-24a8 8 0 0 1 8-8"/><text x="233" y="288" font-family="sans-serif" font-size="14" text-anchor="middle" textLength="58">/metrics</text><path fill="#ADD8E6" stroke="#000" d="M197 325h72a8 8 0 0 1 8 8v44a8 8 0 0 1-8 8h-72a8 8 0 0 1-8-8v-44a8 8 0 0 1 8-8"/><text x="233.5" y="355" font-family="sans-serif" font-size="14" text-anchor="middle" textLength="27">/api</text><text x="233" y="372" font-family="sans-serif" font-size="14" text-anchor="middle" textLength="60">核  心  对  象</text><path fill="orange" stroke="#000" d="M197 470h72a8 8 0 0 1 8 8v44a8 8 0 0 1-8 8h-72a8 8 0 0 1-8-8v-44a8 8 0 0 1 8-8"/><text x="233" y="500" font-family="sans-serif" font-size="14" text-anchor="middle" textLength="34">/apis</text><text x="233.5" y="517" font-family="sans-serif" font-size="14" text-anchor="middle" textLength="69">非  核  心  对象</text><path fill="#FFFFE0" stroke="#000" d="M506 335h142a8 8 0 0 1 8 8v24a8 8 0 0 1-8 8H506a8 8 0 0 1-8-8v-24a8 8 0 0 1 8-8"/><text x="577" y="363" font-family="sans-serif" font-size="14" text-anchor="middle" textLength="140">/api/v1/namespaces</text><path fill="#FFFFE0" stroke="#000" d="M506 410h142a8 8 0 0 1 8 8v24a8 8 0 0 1-8 8H506a8 8 0 0 1-8-8v-24a8 8 0 0 1 8-8"/><text x="577" y="438" font-family="sans-serif" font-size="14" text-anchor="middle" textLength="86">/api/v1/pods</text><path fill="#FFFFE0" stroke="#000" d="M364 320h82a8 8 0 0 1 8 8v54a8 8 0 0 1-8 8h-82a8 8 0 0 1-8-8v-54a8 8 0 0 1 8-8"/><text x="405" y="354" font-family="sans-serif" font-size="14" text-anchor="middle" textLength="48">/api/v1</text><text x="405" y="372" font-family="sans-serif" font-size="14" text-anchor="middle" textLength="72">(Group是空)</text><path fill="#FFFFE0" stroke="#000" d="M364 480h82a8 8 0 0 1 8 8v24a8 8 0 0 1-8 8h-82a8 8 0 0 1-8-8v-24a8 8 0 0 1 8-8"/><text x="405" y="508" font-family="sans-serif" font-size="14" text-anchor="middle" textLength="78">/apis/batch</text><path fill="#FFFFE0" stroke="#000" d="M364 550h82a8 8 0 0 1 8 8v24a8 8 0 0 1-8 8h-82a8 8 0 0 1-8-8v-24a8 8 0 0 1 8-8"/><text x="405" y="578" font-family="sans-serif" font-size="14" text-anchor="middle" textLength="72">/apis/apps</text><path fill="#FFFFE0" stroke="#000" d="M506 480h142a8 8 0 0 1 8 8v24a8 8 0 0 1-8 8H506a8 8 0 0 1-8-8v-24a8 8 0 0 1 8-8"/><text x="577" y="508" font-family="sans-serif" font-size="14" text-anchor="middle" textLength="100">/apis/batch/v1</text><path fill="#FFFFE0" stroke="#000" d="M506 550h142a8 8 0 0 1 8 8v24a8 8 0 0 1-8 8H506a8 8 0 0 1-8-8v-24a8 8 0 0 1 8-8"/><text x="577.5" y="578" font-family="sans-serif" font-size="14" text-anchor="middle" textLength="131">/apis/batch/v1beta</text><path fill="#FFFFE0" stroke="#000" stroke-dasharray="4" d="M902 480h142l16 16v24H902z"/><path fill="none" stroke="#000" stroke-dasharray="4" d="M1044 480v16M1044 496h16"/><text x="981.5" y="508" font-family="sans-serif" font-size="14" text-anchor="middle" textLength="93">Group: batch</text><path fill="#FFFFE0" stroke="#000" stroke-dasharray="4" d="M902 550h142l16 16v24H902z"/><path fill="none" stroke="#000" stroke-dasharray="4" d="M1044 550v16M1044 566h16"/><text x="981" y="577" font-family="sans-serif" font-size="14" text-anchor="middle" textLength="80">Version: v1</text><path fill="#FFFFE0" stroke="#000" stroke-dasharray="4" d="M902 610h142l16 16v24H902z"/><path fill="none" stroke="#000" stroke-dasharray="4" d="M1044 610v16M1044 626h16"/><text x="981" y="638" font-family="sans-serif" font-size="14" text-anchor="middle" textLength="104">Resource: jobs</text><path fill="#FFFFE0" stroke="#000" d="M708 480h142a8 8 0 0 1 8 8v24a8 8 0 0 1-8 8H708a8 8 0 0 1-8-8v-24a8 8 0 0 1 8-8"/><text x="779.5" y="508" font-family="sans-serif" font-size="14" text-anchor="middle" textLength="133">/apis/batch/v1/jobs</text><path fill="none" stroke="#000" d="M110 40h36"/><path stroke="#000" d="m153 40-7-4v8z"/><path fill="none" stroke="#000" d="M110 40h22M132 40v60M132 100h14"/><path stroke="#000" d="m153 100-7-4v8z"/><path fill="none" stroke="#000" d="M110 40h22M132 40v120M132 160h14"/><path stroke="#000" d="m153 160-7-4v8z"/><path fill="none" stroke="#000" d="M110 220h71"/><path stroke="#000" d="m188 220-7-4v8z"/><path fill="none" stroke="#000" d="M110 220h22M132 220v60M132 280h49"/><path stroke="#000" d="m188 280-7-4v8z"/><path fill="none" stroke="#000" d="M110 220h22M132 220v135M132 355h49"/><path stroke="#000" d="m188 355-7-4v8z"/><path fill="none" stroke="#000" d="M110 220h22M132 220v280M132 500h49"/><path stroke="#000" d="m188 500-7-4v8z"/><path fill="none" stroke="#000" d="M277 355h71"/><path stroke="#000" d="m355 355-7-4v8z"/><path fill="none" stroke="#000" d="M277 500h71"/><path stroke="#000" d="m355 500-7-4v8z"/><path fill="none" stroke="#000" d="M277 500h57M334 500v70M334 570h14"/><path stroke="#000" d="m355 570-7-4v8z"/><path fill="none" stroke="#000" d="M454 355h22M476 355v75M476 430h14"/><path stroke="#000" d="m497 430-7-4v8z"/><path fill="none" stroke="#000" d="M454 355h36"/><path stroke="#000" d="m497 355-7-4v8z"/><path fill="none" stroke="#000" d="M454 500h36"/><path stroke="#000" d="m497 500-7-4v8z"/><path fill="none" stroke="#000" d="M454 500h22M476 500v70M476 570h14"/><path stroke="#000" d="m497 570-7-4v8z"/><path fill="none" stroke="#000" d="M656 500h36"/><path stroke="#000" d="m699 500-7-4v8z"/><path fill="none" stroke="#000" stroke-dasharray="4" d="M858 500h44M858 500h22M880 500v70M880 570h22M858 500h22M880 500v130M880 630h22"/></svg>