<svg xmlns="http://www.w3.org/2000/svg" width="610" height="754" preserveAspectRatio="none" style="width:610px;height:754px;background:#fff"><defs><filter id="a" width="300%" height="300%" x="-1" y="-1"><feGaussianBlur result="blurOut" stdDeviation="2"/><feColorMatrix in="blurOut" result="blurOut2" values="0 0 0 0 0 0 0 0 0 0 0 0 0 0 0 0 0 0 .4 0"/><feOffset dx="4" dy="4" in="blurOut2" result="blurOut3"/><feBlend in="SourceGraphic" in2="blurOut3"/></filter></defs><text x="538" y="19.282" fill="#888" font-family="sans-serif" font-size="10" textLength="52">made by x</text><text x="270" y="45.636" font-family="sans-serif" font-size="14" font-weight="bold" textLength="60">context</text><rect width="94" height="40.297" x="10" y="220.68" fill="#A8EB99" filter="url(#a)" rx="7.5" ry="7.5" style="stroke:#000;stroke-width:1"/><text x="22" y="245.675" font-family="sans-serif" font-size="14" textLength="52">context</text><text x="74" y="245.675" font-family="sans-serif" font-size="14" textLength="4"> </text><text x="78" y="245.675" font-family="sans-serif" font-size="14" textLength="14">包</text><rect width="128" height="40.297" x="154" y="100.086" fill="#FBE972" filter="url(#a)" rx="7.5" ry="7.5" style="stroke:#000;stroke-width:1"/><text x="166" y="125.081" font-family="sans-serif" font-size="14" textLength="104">实例化最初的ctx</text><rect width="118" height="40.297" x="332" y="69.938" fill="#FBE972" filter="url(#a)" rx="7.5" ry="7.5" style="stroke:#000;stroke-width:1"/><text x="344" y="94.933" font-family="sans-serif" font-size="14" textLength="94">Background()</text><path fill="none" d="M282 120.234h10c15 0 15-30.148 30-30.148h10" style="stroke:red;stroke-width:1;stroke-dasharray:5,5"/><rect width="76" height="40.297" x="332" y="130.234" fill="#FBE972" filter="url(#a)" rx="7.5" ry="7.5" style="stroke:#000;stroke-width:1"/><text x="344" y="155.23" font-family="sans-serif" font-size="14" textLength="52">TODO()</text><path fill="none" d="M282 120.234h10c15 0 15 30.149 30 30.149h10" style="stroke:red;stroke-width:1;stroke-dasharray:5,5"/><path fill="none" d="M104 240.828h10c15 0 15-120.594 30-120.594h10" style="stroke:green;stroke-width:1;stroke-dasharray:5,5"/><rect width="142" height="40.297" x="154" y="280.977" fill="#94C644" filter="url(#a)" rx="7.5" ry="7.5" style="stroke:#000;stroke-width:1"/><text x="166" y="305.972" font-family="sans-serif" font-size="14" textLength="118">根据父实例出子ctx</text><rect width="80" height="40.297" x="346" y="190.531" fill="#94C644" filter="url(#a)" rx="7.5" ry="7.5" style="stroke:#000;stroke-width:1"/><text x="358" y="215.526" font-family="sans-serif" font-size="14" textLength="56">传递数据</text><rect width="92" height="40.297" x="476" y="190.531" fill="#94C644" filter="url(#a)" rx="7.5" ry="7.5" style="stroke:#000;stroke-width:1"/><text x="488" y="215.526" font-family="sans-serif" font-size="14" textLength="68">WithValue</text><path fill="none" d="M426 210.68h50" style="stroke:green;stroke-width:1;stroke-dasharray:5,5"/><path fill="none" d="M296 301.125h10c15 0 15-90.445 30-90.445h10" style="stroke:red;stroke-width:1;stroke-dasharray:5,5"/><rect width="80" height="40.297" x="346" y="311.125" fill="#94C644" filter="url(#a)" rx="7.5" ry="7.5" style="stroke:#000;stroke-width:1"/><text x="358" y="336.12" font-family="sans-serif" font-size="14" textLength="56">用于控制</text><rect width="101" height="40.297" x="476" y="250.828" fill="#94C644" filter="url(#a)" rx="7.5" ry="7.5" style="stroke:#000;stroke-width:1"/><text x="488" y="275.823" font-family="sans-serif" font-size="14" textLength="77">WithCancel</text><path fill="none" d="M426 331.273h10c15 0 15-60.296 30-60.296h10" style="stroke:green;stroke-width:1;stroke-dasharray:5,5"/><rect width="115" height="40.297" x="476" y="311.125" fill="#94C644" filter="url(#a)" rx="7.5" ry="7.5" style="stroke:#000;stroke-width:1"/><text x="488" y="336.12" font-family="sans-serif" font-size="14" textLength="91">WithDeadline</text><path fill="none" d="M426 331.273h50" style="stroke:green;stroke-width:1;stroke-dasharray:5,5"/><rect width="111" height="40.297" x="476" y="371.422" fill="#94C644" filter="url(#a)" rx="7.5" ry="7.5" style="stroke:#000;stroke-width:1"/><text x="488" y="396.417" font-family="sans-serif" font-size="14" textLength="87">WithTimeout</text><path fill="none" d="M426 331.273h10c15 0 15 60.297 30 60.297h10" style="stroke:green;stroke-width:1;stroke-dasharray:5,5"/><path fill="none" d="M296 301.125h10c15 0 15 30.148 30 30.148h10" style="stroke:red;stroke-width:1;stroke-dasharray:5,5"/><path fill="none" d="M104 240.828h10c15 0 15 60.297 30 60.297h10" style="stroke:green;stroke-width:1;stroke-dasharray:5,5"/><rect width="110" height="40.297" x="10" y="552.313" fill="#A8EB99" filter="url(#a)" rx="7.5" ry="7.5" style="stroke:#000;stroke-width:1"/><text x="22" y="577.308" font-family="sans-serif" font-size="14" textLength="54">Context</text><text x="76" y="577.308" font-family="sans-serif" font-size="14" textLength="4"> </text><text x="80" y="577.308" font-family="sans-serif" font-size="14" textLength="28">接口</text><rect width="95" height="40.297" x="170" y="431.719" fill="#FBE972" filter="url(#a)" rx="7.5" ry="7.5" style="stroke:#000;stroke-width:1"/><text x="182" y="456.714" font-family="sans-serif" font-size="14" textLength="71">Deadline()</text><path fill="none" d="M120 572.46h10c15 0 15-120.593 30-120.593h10" style="stroke:green;stroke-width:1;stroke-dasharray:5,5"/><rect width="72" height="40.297" x="170" y="492.016" fill="#FBE972" filter="url(#a)" rx="7.5" ry="7.5" style="stroke:#000;stroke-width:1"/><text x="182" y="517.011" font-family="sans-serif" font-size="14" textLength="48">Done()</text><path fill="none" d="M120 572.46h10c15 0 15-60.296 30-60.296h10" style="stroke:green;stroke-width:1;stroke-dasharray:5,5"/><rect width="53" height="40.297" x="170" y="582.461" fill="#EAB8DE" filter="url(#a)" rx="7.5" ry="7.5" style="stroke:#000;stroke-width:1"/><text x="182" y="607.456" font-family="sans-serif" font-size="14" textLength="29">Err()</text><rect width="145" height="40.297" x="273" y="552.313" fill="#FBE972" filter="url(#a)" rx="7.5" ry="7.5" style="stroke:#000;stroke-width:1"/><text x="285" y="577.308" font-family="sans-serif" font-size="14" textLength="121">context.Canceled</text><path fill="none" d="M223 602.61h10c15 0 15-30.15 30-30.15h10" style="stroke:red;stroke-width:1;stroke-dasharray:5,5"/><rect width="154" height="40.297" x="273" y="612.609" fill="#FBE972" filter="url(#a)" rx="7.5" ry="7.5" style="stroke:#000;stroke-width:1"/><text x="285" y="637.605" font-family="sans-serif" font-size="14" textLength="130">DeadlineExceeded</text><path fill="none" d="M223 602.61h10c15 0 15 30.148 30 30.148h10" style="stroke:red;stroke-width:1;stroke-dasharray:5,5"/><path fill="none" d="M120 572.46h10c15 0 15 30.15 30 30.15h10" style="stroke:green;stroke-width:1;stroke-dasharray:5,5"/><rect width="72" height="40.297" x="170" y="672.906" fill="#FBE972" filter="url(#a)" rx="7.5" ry="7.5" style="stroke:#000;stroke-width:1"/><text x="182" y="697.901" font-family="sans-serif" font-size="14" textLength="48">Value()</text><path fill="none" d="M120 572.46h10c15 0 15 120.595 30 120.595h10" style="stroke:green;stroke-width:1;stroke-dasharray:5,5"/><text x="286.5" y="737.198" font-family="sans-serif" font-size="14" textLength="27">图 1</text></svg>