<svg xmlns="http://www.w3.org/2000/svg" width="782.292" height="691.667" preserveAspectRatio="none" style="width:782px;height:691px;background:#fff" viewBox="0 0 782 691"><path fill="#17A2B8" d="m170.89 23.367-1.526 2.086-1.806 3.056-2.583 2.06-2.714 1.126-2.164.097-2.782-1.408-2.625-.92-1.992-1.868-1.044-2.139-.62-1.703-.607-2.224-.986-1.914.757-1.869.664-2.047 2.49-1.62 1.751-2.1 2.168-.697 2.578-.601 3.305.357 1.81.854 2.105.386 2.559 2.623.892 2.768.388 1.888-.44 3.112z" style="stroke:#2e2e2e;stroke-width:1.0416666666666667"/><path fill="none" d="M16.667 41.667v.219l10.41-.65 10.409.632 10.409.215 10.41-1.16 10.409.663 10.41-.364 10.409.045 10.41.329 10.409-.65 10.409 1.297 10.41-1.233 10.409.45 10.41.657 10.409-.54 10.41.16 10.409-.104 10.409.22 10.41.063 10.409.36 10.41.09 10.409.008 10.41-.442 10.409.218 10.41.248 10.408-1.483 10.41 1.458 10.41-1.015 10.409.865 10.41-1.072 10.409.444 10.41.844 10.409-.823 10.409.16 10.41.243 10.409.081 10.41-.437 10.409.303 10.41-.896 10.409.893 10.409.275 10.41-.108 10.409.175 10.41-1.142 10.409-.176 10.41.032 10.409.586 10.409-.143 10.41.914 10.409-.891 10.41-.176 10.409.595 10.41-.932 10.409.154 10.409 1.217 10.41-.223 10.409.312 10.41-1.1 10.409.667 10.41.283 10.409-1.107 10.41.392 10.409.23 10.409.549 10.41-.684 10.409.486 10.41-1.058 10.409-.129 10.41 1.23 10.409-1.271 10.409 1.277 10.41-.315 10.409-.215-.036-.086.725.277.845.566.636.062.855.59.658.116-.178-.073.68.892.263.719.229.704.241.71.29.731h.757l-.118 10.438-.463 10.437.104 10.438-.416 10.437.883 10.438-.586 10.438.019 10.437-.813 10.438.211 10.437.975 10.438-.105 10.438-.493 10.437-.29 10.438.107 10.437-.487 10.438 1.147 10.438.339 10.437-.222 10.438.175 10.437-.866 10.438.233 10.438-.495 10.437.7 10.438-.039 10.437.319 10.438-.815 10.437.1 10.438.601 10.438.13 10.437-1.126 10.438.332 10.437.358 10.438-.792 10.438 1.004 10.437-.1 10.438-.373 10.437.253 10.438.611 10.438-1.085 10.437.654 10.438-.03 10.437-.177 10.438.026 10.438-.029 10.437-.768 10.438.233 10.437-.064 10.438.548 10.438.025 10.437.077 10.438-.472 10.437.233 10.438-.055 10.437.726 10.438-.157 10.438-.444 10.437-.156-.064-.172.791-.467.67-.028.851-.202.78-.5.655.072.175-.867-.01-.617.594-.897-.082-.611.608-.763.24v-.311l-10.41.412-10.409.15-10.41.241-10.409-1.241-10.41 1.245-10.409-.31-10.41.185-10.409.409-10.41-.774-10.409.177-10.409.04-10.41-.017-10.409-.206-10.41.74-10.409-1.375-10.41 1.224-10.409-1.239-10.409.088-10.41.604-10.409-.012-10.41-.543-10.409.944-10.41-.317-10.409.644-10.409-.063-10.41-1.161-10.409.052-10.41.28-10.409.505-10.41.05-10.409-.107-10.409-.67-10.41 1.02-10.409-.003-10.41-.71-10.409-.2-10.41-.169-10.409.195-10.409.367-10.41-.215-10.409-.364-10.41.943-10.409-.986-10.41 1.002-10.409-.078-10.41-.058-10.409.334-10.409-.978-10.41-.057-10.409.854-10.41-1.162-10.409.378-10.41.364-10.409-.049-10.409-.445-10.41.329-10.409.82-10.41-.1-10.409-1.297-10.41.703-10.409-.617-10.409.508-10.41.333-10.409.132-10.41-1.13-10.409 1.11-10.41-.409-10.409-.587-10.409.088-10.41.83-10.409-.08-10.41-.26-.002-.005-.823-.515-.56.121-.866-.616-.765-.374-.666-.136-.022-.009-.094-.65-.297-.732-.491-.814-.365-.761-.257-.717h.177l.017-10.437-.723-10.438.96-10.438.151-10.437-.806-10.438-.223-10.437 1.15-10.438-.68-10.437-.023-10.438.312-10.438-.984-10.437 1.224-10.438-.568-10.437.713-10.438-.921-10.438.65-10.437-.888-10.438.718-10.437.14-10.438-.737-10.438.72-10.437-.974-10.438.105-10.437 1.202-10.438.001-10.438-.12-10.437-.968-10.438.776-10.437-.892-10.438.552-10.438-.062-10.437-.272-10.438.915-10.437-.18-10.438-.796-10.437.883-10.438-.453-10.438-.704-10.437.365-10.438-.304-10.437.402-10.438-.51-10.438.03-10.437.699-10.438-.2-10.437.065-10.438-.088-10.438.324-10.437-.753-10.438.745-10.437-.94-10.438 1.082-10.438.309-10.437-.074-10.438-.167-10.437-.377-10.438.062.026.277-.748.066-.836.654-.592.268-.753.199-.78-.02-.049.756-.258.71-.37.793-.168.797-.157z" style="stroke:#333;stroke-width:1.0416666666666667"/><path fill="none" d="M98.958 41.667h.195l-.578 4.505.562 4.505.191 4.505-1.03 4.505.66 4.506-.05-.051-2.312 1.855-2.055 2.111-1.877 2.29-2.492 1.675-1.63 2.536v1.538L77.53 72.86 66.518 74.06l-11.012 1.75-11.012-1.439-11.012.428-11.012-.278-11.012.088" style="stroke:#333;stroke-width:1.0416666666666667"/><text x="19.792" y="63.387" fill="#333" font-size="16.667" textLength="66.667">server.c</text><path fill="#474747" d="M127.604 92.318v.219l10.938-.65 10.937.632 10.938.215 10.937-1.16 10.938.663 10.937.08-.056-.136.595.258.63.345.507.044.755.644.515.066-.202-.084.383.647.446.673.078.52.294.61.222.58h-.011l.073 6.797.02 6.797.121 6.797.03 6.797-.233 6.797.218.09-.38.533-.178.617-.167.62-.7.4-.014.686.09.218-.718-.069-.48.51-.725-.086-.533.381-.58.266v.773l-10.937-.823-10.938.16-10.937.243-10.938.081-10.937-.438-10.938.004.038.093-.703-.52-.476.03-.554-.159-.603-.277-.648-.387.197.082-.596-.735-.299-.612-.234-.585-.063-.515-.225-.581h-.069l.305-6.797-.297-6.797-.059-6.797.199-6.797-.08-6.797-.213-.088.291-.57.619-.434.175-.617.34-.55.009-.687-.043-.103.675-.039.625-.157.448-.585.64-.123z" style="stroke:#333;stroke-width:1.0416666666666667"/><text x="134.896" y="119.246" fill="#FFF" font-size="16.667" textLength="51.042">main()</text><path fill="#474747" d="M82.813 155.469v.219l10.347-.65 10.347.632 10.347.215 10.347-1.16 10.348.663 10.347-.364 10.347.045 10.347.329 10.347-.65 10.348 1.298 10.347-1.234 10.347.45 10.347.657 10.348-.54 10.347.09.009.022.576.212.617.311.597.264.636.355.511.056.215.09.247.59.108.532.311.617.32.621.02.496h-.25l.485 6.797-.339 6.797.289 6.797-.357 6.797.172 6.797-.022-.01.015.698-.497.484-.195.61-.17.62-.352.544.055.134-.645.109-.55.337-.704-.031-.475.519-.627.153v.57l-10.347-.107-10.348.175-10.347-1.142-10.347-.176-10.347.032-10.347.586-10.348-.143-10.347.914-10.347-.892-10.347-.175-10.348.595-10.347-.932-10.347.154-10.347 1.216-10.347-.675.057.14-.55-.149-.729-.583-.504-.038-.553-.157-.668-.434-.151-.063-.124-.539-.172-.56-.076-.52-.454-.675-.243-.59h.16l-.352-6.796-.043-6.797.41-6.797-.424-6.797.249-6.797.163.068.147-.63.092-.652.217-.6.504-.482.097-.65-.04-.096.708.042.437-.611.745.131.572-.287z" style="stroke:#333;stroke-width:1.0416666666666667"/><text x="90.104" y="182.398" fill="#FFF" font-size="16.667" textLength="140.625">initServerConfig()</text><path fill="#FFFACD" d="M40.104 208.203v.22l10.371-.651 10.372.633 10.371.214 10.372-1.159 10.371.662 10.371-.363 10.372.045 10.371.328 10.372-.65 10.37 1.298 10.372-1.233 10.372.45 10.371.656 10.371-.54 10.372.161 10.371-.104 10.372.22 10.37.062 10.372.361 10.372.09 10.371.008 10.371-.443 10.372.218 10.371.249 10.372-1.483 10.371 1.458 10.371-1.016 10.372.865 10.371-1.071 10.371.444 10.372.844 10.371-.824 10.372.16 10.371.244 10.371.08 10.372-.437 10.371.303 10.371-.895 10.372.892 10.371.275 10.372-.108 10.371.176 10.371-1.142 10.372-.176 10.371.032 10.372.586 10.37-.144 10.372.915 10.372-.892 10.371-.175 10.371.595 10.372-.933 10.371.154 10.371 1.217 10.372-.222 10.371.311 10.372-1.1 10.371.668 10.371.282 10.372-1.107 10.371.392 10.371.231 10.372.548 10.371-.683 10.372.486 10.371-1.059 10.371-.128 10.372 1.23 10.371-.525-.095-.23.9.698.696.209.673.153.725.277.784.419.147.06.062.636.591.855-.062.585.68.892.107.654h.505l-.25 10.37-.205 10.368.707 10.369-.117 10.368-.463 10.369.103 10.369-.415 10.368.882 10.369-.585 10.369.018 10.368-.813 10.37.211 10.368.975 10.368-.105 10.37-.492 10.368-.291 10.369.107 10.368-.486 10.369.715 10.369.133.055-.201.78-.374.708-.25.759-.573.626-.261.754.012.029-.8.152-.647.52-.742.294-.696.403-.81.128v-.24l-10.371.1-10.372.602-10.371.129-10.371-1.125-10.372.332-10.371.358-10.371-.792-10.372 1.004-10.371-.1-10.372-.373-10.371.253-10.371.611-10.372-1.085-10.371.654-10.371-.03-10.372-.177-10.371.026-10.372-.029-10.371-.768-10.371.232-10.372-.063-10.371.548-10.371.025-10.372.077-10.371-.472-10.372.233-10.371-.055-10.371.726-10.372-.157-10.371-.95-10.372.43-10.37-.525-10.372.901-10.372.334-10.371-.067-10.371-1.02-10.372.936-10.371-1.257-10.372.983-10.37-.52-10.372.412-10.372.15-10.371.24-10.371-1.24-10.372 1.244-10.371-.31-10.372.185-10.37.409-10.372-.773-10.372.177-10.371.04-10.371-.018-10.372-.206-10.371.741-10.372-1.375-10.37 1.224-10.372-1.239-10.372.087-10.371.605-10.371-.012-10.372-.543-10.371.944-10.372-.318-10.37.644-10.372-.062-10.372-1.162-10.371.053-10.372.28-10.37.134.046.114-.73-.29-.75-.338-.822-.511-.607.009-.82-.51.203.085-.524-.827-.367-.762-.357-.759-.245-.711-.236-.708h.143l-.214-10.369-.364-10.369.943-10.368-.986-10.37 1.001-10.368-.078-10.368-.058-10.37.334-10.368-.977-10.369-.057-10.368.853-10.369-1.162-10.369.378-10.368.364-10.37-.049-10.368-.445-10.368.33-10.37.82-10.368-.776-10.369.208.087-.094-.902.521-.647.115-.816.462-.671.313-.733.04.094.753-.265.592-.653.878.037.685-.431z" style="stroke:#333;stroke-width:1.0416666666666667"/><path fill="none" d="M223.438 208.203h.194l-.578 4.505.563 4.506.19 4.505-1.03 4.505.66 4.505-.05-.05-2.312 1.854-2.055 2.112-1.877 2.29-2.492 1.675-1.63 2.536v1.538l-10.478-3.289-10.478 1.201-10.478 1.75-10.478-1.438-10.478.427-10.478-.278-10.478.585-10.478.168-10.478.963-10.478.237-10.478.023-10.478-1.18-10.477.58-10.478.663-10.478-3.953-10.478 3.888-10.478-1.885" style="stroke:#333;stroke-width:1.0416666666666667"/><text x="43.229" y="229.923" fill="#FF4500" font-size="16.667" textLength="5.208"> </text><text x="48.438" y="229.923" fill="#FF4500" font-size="16.667" font-weight="bold" textLength="162.5">initServerConfig()</text><path fill="#474747" d="M54.167 258.854v.22l10.625-.651 10.625.632 10.625.216 10.625-1.16 10.625.662 10.625-.363 10.625.045 10.625.328 10.625-.649 10.625 1.297 10.625-1.233 10.625.45 10.625.656 10.625-.54 10.625.161 10.625-.104 10.625.22 10.625.062 10.625.361 10.625-.61.089.215.59.247.533.108.617.311.621.32.496.02-.231-.096.693.775-.069.46.51.7-.086.452.403.655h-.024l.282 6.797-.275 6.797.054 6.796.08 6.797-.117 6.797.134.055-.379.534-.15.628-.52.475.03.703-.335.552.073.175-.603.211-.567.298-.735-.107-.612.19-.502.453v-.647l-10.625.586-10.625-.144-10.625.915-10.625-.892-10.625-.175-10.625.595-10.625-.933-10.625.154-10.625 1.217-10.625-.222-10.625.311-10.625-1.1-10.625.667-10.625.283-10.625-1.107-10.625.392-10.625.231-10.625.548-10.625-.683-10.625.004.061.148-.724-.57-.606-.284-.432.135-.752-.635-.494-.014.164.067-.341-.63-.397-.652-.271-.6.016-.482-.391-.65h-.104l.31-6.797-.398-6.797.406-6.796-.046-6.797L50 263.02l.079.032.18-.615.462-.5.208-.603.102-.649.19-.611.035.086.536-.372.702.027.515-.424.591-.238z" style="stroke:#333;stroke-width:1.0416666666666667"/><text x="61.458" y="285.783" fill="#FFF" font-size="16.667" textLength="197.917">初始化server.commands</text><path fill="#17A2B8" d="M296.354 332.747h.195l-.578 5.13.562 5.13.191 5.131-1.03 5.13.66 5.13-.014-.07-4.23.517-4.159.872-4.11 1.12-4.279.267-4.041 1.461.1.503 3.952-.242 4.245 1.226 4.281 1.405 4.073.364 4.182.91h.063l-.092 5.131.195 5.13.056 5.13.32 5.13-.542 5.13v1.865l10.322.023 10.322-1.18 10.322.58 10.322.663 10.322-3.954 10.322 3.889 10.322-2.709 10.322 2.307 10.322-2.858 10.322 1.185 10.322 2.25 10.322-2.196 10.322.428 10.322.648 10.322.216 10.322-1.167 10.322.809 10.322-2.388 10.322 2.38 10.322.733 10.322-.288 10.322.468 10.322-3.045 10.321-.47 10.322.086 10.322 1.562 10.322-.382 10.322 2.439 10.322-2.378 10.322-.468 10.322 1.587 10.322-2.486 10.322.41 10.322 3.245 10.322-.593 10.322.83 10.322-2.934 10.322 1.78 10.322.754 10.322-2.952 10.322 1.045 10.322.617 10.322 1.46 10.322-1.81h-.012l1.297-9.844-2.824-9.844-.342-9.843 3.28-9.844-1.4-9.844-.469-.47-1.28-1.28-2.281-2.281-2.395-2.394-2.14-2.14-1.85-1.852v1.275l-10.32-2.106-10.32 2.476-10.32-3.18-10.32 3.25-10.32-.37-10.32-.664-10.32-.55-10.319 1.888-10.32-.314-10.32-1.234-10.32.274-10.319-1.107-10.32 2.353-10.32-1.56-10.32.049-10.32-2.17-10.319.565-10.32 2.6-10.32-.28-10.32-1.314-10.319-.775-10.32.286-10.32-1.298-10.32 3.058-10.319.903-10.32-.592-10.32.468-10.32-2.31-10.32.622-10.319-1.32-10.32 1.866-10.32-.103-10.32.849-10.319-2.172-10.32.264-10.32 1.605-10.32.344-10.319-3-10.32.886-10.32.953-10.32-2.111-10.32 2.678-10.319-.982" style="stroke:#1592a6;stroke-width:1.0416666666666667"/><path fill="#17A2B8" d="M740.104 332.747h.195l-.578 2.084.562 2.083.191 2.083-1.03 2.084.66 2.083v-.072l2.083-.323 2.084.04 2.083.292 2.083-.577 2.084.64.362.363-2.858-2.859-1.8-1.8-1.671-1.671-2.423-2.422-2.027-2.028" style="stroke:#1592a6;stroke-width:1.0416666666666667"/><text x="307.813" y="358.634" fill="#FFF" font-size="16.667" textLength="364.583">redisCommandTable里面是命令对应的处理函数</text><text x="307.813" y="378.036" fill="#FFF" font-size="16.667" textLength="421.875">将来解析客户端传来的命令,执行的对应函数就在这里定义</text><path fill="#474747" d="M49.48 322.005v.22l10.565-.651 10.565.632 10.566.215 10.565-1.159 10.566.662 10.565-.363 10.566.045 10.565.328 10.566-.649 10.565 1.297 10.565-1.233 10.566.45 10.565.656 10.566-.54 10.565.161 10.566-.104 10.565.22 10.566.062 10.565.361 10.566.09 10.565-.7.09.218.533.108.617.311.621.32.4-.212.685.476.218.09-.069.46.51.699-.085.453.38.646.267.598h.772l-.823 10.398.16 10.398.244 10.398.08 10.398-.437 10.398.303 10.398-.3 10.398-.183-.076.031.703-.16.625-.277.575-.19.612-.44.508-.065-.155-.611.19-.586.253-.514.425-.608.2-.563.307v.71l-10.565-.892-10.566-.175-10.565.595-10.566-.933-10.565.154-10.566 1.217-10.565-.222-10.566.311-10.565-1.1-10.566.667-10.565.283-10.565-1.107-10.566.392-10.565.231-10.566.548-10.565-.683-10.566.486-10.565-1.059-10.566-.128-10.565 1.23-10.566-.525-.095-.23-.426.15-.63-.342-.652-.396-.6-.272-.543-.13.147.06-.487-.69.042-.47-.612-.742.132-.433-.443-.672h.505l-.25-10.398-.205-10.398.707-10.398-.117-10.398-.463-10.398.103-10.398-.28-10.398-.041-.017.515-.477.064-.664.25-.587-.006-.693.439-.508-.054-.13.714.056.576-.277.526-.395.552-.334z" style="stroke:#333;stroke-width:1.0416666666666667"/><text x="56.771" y="348.934" fill="#FFF" font-size="16.667" textLength="207.292">populateCommandTable()</text><text x="56.771" y="368.335" fill="#FFF" font-size="16.667" textLength="181.25">把redisCommandTable</text><text x="56.771" y="387.736" fill="#FFF" font-size="16.667" textLength="197.917">填充到server.commands</text><path fill="#474747" d="M108.854 436.458v.22l10.313-.651 10.312.633 10.313.215 10.312-1.16 10.313.662 10.312-.363 10.313.045 10.312.328 10.313-.649 10.312.72.074.178.432-.136.646.383.673.446.52.078.601.272.022.009.212.576.312.617.263.597.356.636.056.511h.233l.003 6.797-.148 6.797.073 6.797.083 6.796-.244 6.797-.231-.095.204.775-.556.46.022.7-.574.452-.086.655-.009-.022-.481.504-.695-.01-.568.294-.559.319-.634.135v.434l-10.312-.438-10.313.303-10.312-.895-10.313.892-10.312.275-10.313-.108-10.312.176-10.313-1.142-10.312-.176-10.313.679-.082-.2-.515-.063-.608-.288-.472.037-.703-.518-.566-.188-.11-.046-.061-.513-.531-.709-.197-.57.13-.433-.451-.676h.15l.105-6.796-.367-6.797.222-6.797.094-6.797-.204-6.797-.152-.063.365-.539.315-.56.413-.52.033-.676.246-.588.061.148.455-.57.572-.284.747.135.427-.636z" style="stroke:#333;stroke-width:1.0416666666666667"/><text x="116.146" y="463.387" fill="#FFF" font-size="16.667" textLength="88.542">initServer()</text><path fill="khaki" d="M27.083 489.193v.219l10.466-.65 10.465.632 10.466.215 10.465-1.16 10.466.663 10.465-.364 10.466.045 10.465.329 10.466-.65 10.465 1.297 10.466-1.233 10.465.45 10.466.657 10.465-.54 10.466.16 10.465-.104 10.466.22 10.465.063 10.466.36 10.465.09 10.466.008 10.465-.442 10.466.218 10.465.248 10.466-1.482 10.465 1.457 10.466-1.015 10.465.865 10.466-1.072 10.465.444 10.466.844 10.465-.823 10.466.16 10.465.243 10.466.081 10.465-.437 10.466.303 10.465-.896 10.466.893 10.465.275 10.466-.108 10.465.175 10.466-1.142 10.465-.176 10.466.032 10.465.586 10.466-.143 10.465.914 10.466-.891 10.465-.176 10.466.596 10.465-.933 10.466.154 10.465 1.217 10.466-.223 10.465.312 10.466-1.1 10.465.667 10.466.283 10.465-1.107 10.466.392 10.465.23 10.466.549 10.465-.68.798.454.602-.02.72.265.893.684.67.143-.23-.095.698.9.208.696.153.673.278.726.418.783h.478l-.79 10.373.929 10.374-1.192 10.373 1.218 10.373-.138 10.373-.25 10.374-.205 10.373.707 10.373-.118 10.373-.462 10.374.103 10.373-.28 10.373-.041-.017-.034.849-.485.662-.3.739-.555.633-.11.817-.054-.13-.612.605-.75.273-.8.154-.773.215-.694.409v-.229l-10.466-.486-10.465 1.147-10.465.338-10.466-.222-10.466.175-10.465-.866-10.466.233-10.465-.494-10.465.7-10.466-.04-10.465.319-10.466-.815-10.465.1-10.466.602-10.465.128-10.466-1.124-10.465.332-10.466.357-10.465-.792-10.466 1.005-10.465-.1-10.466-.373-10.465.253-10.466.61-10.465-1.084-10.466.654-10.465-.03-10.466-.178-10.465.026-10.466-.028-10.465-.769-10.466.233-10.465-.063-10.466.547-10.465.025-10.466.077-10.465-.472-10.466.233-10.465-.055-10.466.726-10.465-.156-10.466-.95-10.465.43-10.466-.526-10.465.902-10.466.333-10.465-.066-10.466-1.021-10.465.937-10.466-1.257-10.465.982-10.466-.52-10.465.412-10.466.15-10.465.241-10.466-1.241-10.465 1.245-10.466-.31-10.465.185-10.466.409-10.465-.774-10.466.177-10.465.04-10.466-.223.027.064-.763-.369-.642-.077-.912-.728-.58.072-.812-.487-.2-.083-.279-.725-.119-.66-.309-.738-.472-.806-.147-.67h.431l-.318-10.374.644-10.373-.062-10.374-1.162-10.373.052-10.373.28-10.373.505-10.374.05-10.373-.106-10.373-.67-10.373 1.019-10.374-.663-10.373.203.084.087-.827.244-.762.253-.758.365-.712.373-.708.019.044.709-.37.69-.418.857-.015.61-.608z" style="stroke:#333;stroke-width:1.0416666666666667"/><path fill="none" d="M152.083 489.193h.195l-.578 4.505.562 4.505.191 4.505-1.03 4.505.66 4.506-.05-.051-2.312 1.855-2.055 2.111-1.877 2.29-2.492 1.675-1.63 2.536v1.538l-9.983-3.288-9.983 1.201-9.982 1.75-9.983-1.439-9.983.428-9.982-.278-9.983.584-9.982.169-9.983.962-9.983.238-9.982.022-9.983-1.887" style="stroke:#333;stroke-width:1.0416666666666667"/><text x="30.208" y="510.913" fill="#FF4500" font-size="16.667" textLength="5.208"> </text><text x="35.417" y="510.913" fill="#FF4500" font-size="16.667" font-weight="bold" textLength="104.167">initServer()</text><path fill="#17A2B8" d="M309.375 532.552h.195l-.579 7.07.563 7.07.191 7.071-1.03 7.07.66 7.07-.014-.07-4.23.517-4.159.872-4.11 1.12-4.28.267-4.04 1.461.1.503 3.952-.242 4.245 1.226 4.281 1.405 4.073.364 4.182.911h.063l-.093 7.07.195 7.07.056 7.07.321 7.071-.542 7.07v1.865l10.332.022 10.332-1.18 10.333.581 10.332.663 10.332-3.954 10.332 3.888 10.332-2.708 10.333 2.306 10.332-2.858 10.332 1.185 10.332 2.25 10.332-2.195 10.333.428 10.332.648 10.332.216 10.332-1.167 10.332.808L495.356 610l10.332 2.38 10.332.732 10.332-.288 10.333.468 10.332-3.044 10.332-.47 10.332.085 10.332 1.563 10.333-.382 10.332 2.438 10.332-2.378 10.332-.467 10.332 1.587 10.333-2.487 10.332.41 10.332 3.245 10.332-.592 10.333.83 10.332-2.04h-.894l1.78-9.803.754-9.803-2.953-9.803 1.046-9.803.617-9.803 1.46-9.802-1.81-9.803-.003-.003-1.778-1.778-2.749-2.749-2.164-2.164-1.31-1.31-2.413-2.413v-1.991l-10.33 3.405-10.33-.84-10.33-1.318-10.33-.239-10.33 2.257-10.33-2.105-10.329 2.475-10.33-3.18-10.33 3.251-10.33-.37-10.33-.664-10.33-.55-10.33 1.887-10.33-.314-10.329-1.234-10.33.275-10.33-1.107-10.33 2.352-10.33-1.56-10.33.05-10.33-2.17-10.329.565-10.33 2.6-10.33-.281-10.33-1.313-10.33-.776-10.33.287-10.33-1.298-10.329 3.058-10.33.902-10.33-.592-10.33.468-10.33-2.31-10.33.622-10.33-1.319-10.329 1.077" style="stroke:#1592a6;stroke-width:1.0416666666666667"/><path fill="#17A2B8" d="M681.25 532.552h.195l-.579 2.083.563 2.084.191 2.083-1.03 2.083.66 2.084v-.072l2.083-.323 2.084.04 2.083.292 2.083-.577 2.084.64.362.362-2.858-2.858-1.8-1.8-1.672-1.671-2.422-2.423-2.027-2.027" style="stroke:#1592a6;stroke-width:1.0416666666666667"/><text x="320.833" y="558.439" fill="#FFF" font-size="16.667" textLength="310.417">我们select 0 ,选择redis数据库, 一共16个</text><text x="320.833" y="577.84" fill="#FFF" font-size="16.667" textLength="244.792">0号数据库对应的是server.db[0]</text><text x="320.833" y="597.241" fill="#FFF" font-size="16.667" textLength="350">你在这个数据库里添加的所有数据都会写入这里</text><path fill="#474747" d="M36.458 550.912v.218l10.33-.65 10.33.633 10.33.215 10.33-1.16 10.33.663 10.33-.364 10.33.045 10.33.329 10.33-.65 10.329 1.297 10.33-1.233 10.33.45 10.33.656 10.33-.539 10.33.16 10.33-.104 10.329.22 10.33.063 10.33.36 10.33.09 10.33.008 10.33-.442 10.33.217 10.329-.482.093.225.4-.213.776.693.46-.068.699.51.518.073-.159-.066.381.646.504.697-.01.484.294.61.21.575h.118l.027 6.797-.146 6.797.101 6.797-.298 6.797.199 6.797.09.037-.159.625-.277.575-.19.612-.596.443-.089.654-.086-.21-.586.255-.514.424-.608.2-.472.526-.68.025v-.182l-10.33-.175-10.33.595-10.33-.933-10.33.154-10.33 1.217-10.33-.222-10.329.311-10.33-1.1-10.33.668-10.33.282-10.33-1.107-10.33.392-10.33.231-10.33.548-10.329-.683-10.33.486-10.33-1.059-10.33-.128-10.33 1.23-10.33-1.272-10.33 1.277-10.329-.315-10.33-.494-10.33.28-.047-.114-.481.016-.69-.487-.47.042-.742-.611-.516-.067.198.082-.287-.607-.32-.621-.308-.616-.026-.499-.477-.686h.213l-.155-6.796.035-6.797-.139-6.797.294-6.797-.248-6.797.05.02.25-.586-.007-.693.309-.562.544-.465.074-.66.057.138.527-.396.552-.334.603-.21.527-.395z" style="stroke:#333;stroke-width:1.0416666666666667"/><text x="43.75" y="577.84" fill="#FFF" font-size="16.667" textLength="233.333">给server.db分配内存,并初始化</text><path fill="none" d="m171.938 671.667-1.68 2.295-1.986 3.362-2.841 2.265-2.986 1.239-2.38.107-3.06-1.549-2.887-1.012-2.191-2.055-1.15-2.353-.681-1.873-.668-2.446-1.084-2.106.833-2.056.73-2.251 2.738-1.781 1.927-2.311 2.385-.768 2.835-.66 3.636.392 1.99.94 2.316.425 2.815 2.884.981 3.045.427 2.077-.483 3.424z" style="stroke:#2e2e2e;stroke-width:1.0416666666666667"/><path fill="none" d="m166.701 670.4-.916 1.252-1.084 1.834-1.55 1.235-1.628.676-1.298.059-1.67-.845-1.574-.552-1.195-1.121-.627-1.284-.372-1.021-.364-1.335-.592-1.148.455-1.121.398-1.229 1.494-.971 1.05-1.26 1.301-.42 1.547-.36 1.983.215 1.086.512 1.263.232 1.536 1.573.535 1.66.232 1.134-.263 1.867z" style="stroke:#2e2e2e;stroke-width:1.0416666666666667"/><path fill="#333" d="M160.417 134.635h.097l-.29 4.167.282 4.167.096 4.166-.516 4.167.33 4.167" style="stroke:#333;stroke-width:3.125"/><path fill="#333" d="m156.25 145.052.068.027.632 2.003 1.029 2.162.9 2.11.474 1.94 1.064 2.175-.025-.01.72-2.129.848-2.077.935-2.043.632-2.164 1.056-1.994.136.136-1.124.543-.727.94-.679.987-.96.706-.812.855.016.017-.857-.858-.782-.782-.819-.819-.748-.748z" style="stroke:#333;stroke-width:1.0416666666666667"/><path fill="#333" d="M160.417 301.172h.097l-.29 4.166.282 4.167.096 4.167-.516 4.166.33 4.167" style="stroke:#333;stroke-width:3.125"/><path fill="#333" d="m156.25 311.589.068.027.632 2.002 1.029 2.162.9 2.11.474 1.94 1.064 2.175-.025-.01.72-2.128.848-2.078.935-2.043.632-2.163 1.056-1.995.136.136-1.124.543-.727.94-.679.988-.96.706-.812.854.016.017-.857-.858-.782-.782-.819-.818-.748-.748z" style="stroke:#333;stroke-width:1.0416666666666667"/><path fill="#333" d="M160.417 197.787h.292l-.868 10.177.844 10.178.287 10.178-1.546 10.178.883 10.178.108 10.178" style="stroke:#333;stroke-width:3.125"/><path fill="#333" d="m156.25 248.438.068.027.632 2.002 1.029 2.162.9 2.11.474 1.94 1.064 2.175-.025-.01.72-2.128.848-2.078.935-2.043.632-2.163 1.056-1.994.136.135-1.124.543-.727.94-.679.988-.96.706-.812.854.016.017-.857-.858-.782-.782-.819-.818-.748-.748z" style="stroke:#333;stroke-width:1.0416666666666667"/><path fill="#333" d="M160.417 403.125h.097l-.29 6.667.282 6.666.096 6.667-.516 6.667.33 6.666" style="stroke:#333;stroke-width:3.125"/><path fill="#333" d="m156.25 426.042.068.027.632 2.003 1.029 2.161.9 2.11.474 1.94 1.064 2.175-.025-.01.72-2.128.848-2.078.935-2.043.632-2.163 1.056-1.994.136.136-1.124.542-.727.94-.679.988-.96.706-.812.854.016.017-.857-.858-.782-.781-.819-.819-.748-.748z" style="stroke:#333;stroke-width:1.0416666666666667"/><path fill="#333" d="M160.417 478.776h.292l-.868 10.305.844 10.305.287 10.305-1.546 10.305.883 10.305-.485 10.305.593 10.306" style="stroke:#333;stroke-width:3.125"/><path fill="#333" d="m156.25 540.495.068.027.632 2.003 1.029 2.161.9 2.11.474 1.94 1.064 2.176-.025-.01.72-2.129.848-2.078.935-2.042.632-2.164 1.056-1.994.136.136-1.124.542-.727.94-.679.988-.96.706-.812.855.016.016-.857-.858-.782-.781-.819-.819-.748-.748z" style="stroke:#333;stroke-width:1.0416666666666667"/><path fill="#333" d="M160.417 31.25h.292l-.868 10.178.844 10.178.287 10.178-1.546 10.178.883 10.178.108 10.178" style="stroke:#333;stroke-width:3.125"/><path fill="#333" d="m156.25 81.901.068.027.632 2.003 1.029 2.162.9 2.11.474 1.94 1.064 2.175-.025-.01.72-2.129.848-2.077.935-2.043.632-2.164 1.056-1.994.136.136-1.124.543-.727.94-.679.987-.96.706-.812.855.016.017-.857-.858-.782-.782-.819-.819-.748-.748z" style="stroke:#333;stroke-width:1.0416666666666667"/><path fill="#333" d="M160.417 593.23h.292l-.868 10.698.844 10.699.287 10.699-1.546 10.698.883 10.7.108 10.698" style="stroke:#333;stroke-width:3.125"/><path fill="#333" d="m156.25 647.005.068.027.632 2.003 1.029 2.162.9 2.11.474 1.94 1.064 2.175-.025-.01.72-2.129.848-2.077.935-2.043.632-2.164 1.056-1.994.136.136-1.124.543-.727.94-.679.987-.96.707-.812.854.016.017-.857-.858-.782-.782-.819-.818-.748-.749z" style="stroke:#333;stroke-width:1.0416666666666667"/></svg>