<svg xmlns="http://www.w3.org/2000/svg" viewBox="0 0 600 380"><defs><filter id="a" width="1.157" height="1.504" x="-.079" y="-.252"><feGaussianBlur stdDeviation="4.2"/></filter></defs><desc>blockdiag {
default_fontsize = 14;
node_width = 88;
node_height = 40;
span_width = 64;
span_height = 30;
//orientation = portrait
default_shape = roundedbox;
//database [shape = flowchart.database]
//B [style = dotted];
//C [style = dashed];
//A [width=192,height=64,fontsize=20,textcolor=blue,numbered = 1]
//note [color = none, style = dashed,shape = note];
//A -&gt; B, C;
//D, E -&gt; F;
    API[label=&quot;API 对象&quot;,width=88];
    API -&gt; TypeMeta,MetaData,Spec,Status;
    Spec [color=lightgreen];
    Status [color=yellow];
    MetaData [label=&quot;MetaData&quot;,width=88];
    TypeMeta -&gt; apiVersion,kind;
    default_group_color = none;
    SpecDataNote [label =&quot;你 所 期 望 的 该 对 象 的 状态&quot;,style = dashed,shape = note, color=lightyellow,width=168];
    MetaDataNote  [label =&quot;帮 助 唯 一 标 识 对 象 的 数 据&quot;,style = dashed,shape = note, color=lightyellow,width=168];
   MetaData -- MetaDataNote [style=dashed];
   StatusNote [label=&quot;对 象 的 当 前 状 态&quot;,style = dashed,shape = note, color=lightyellow,width=168];
   Status -- StatusNote[style=dashed];
   Spec -- SpecDataNote[style=dashed];
    group {
        label = &quot;代码里对应ObjectMeta&quot;;
        MetaData;
    }
    //MetaData -&gt; a,b,c ;
}</desc><path fill="none" d="M208 163h104v54H208z" style="filter:url(#a)"/><path stroke="#000" d="M75 36h72a8 8 0 0 1 8 8v24a8 8 0 0 1-8 8H75a8 8 0 0 1-8-8V44a8 8 0 0 1 8-8M227 36h72a8 8 0 0 1 8 8v24a8 8 0 0 1-8 8h-72a8 8 0 0 1-8-8V44a8 8 0 0 1 8-8M227 176h72a8 8 0 0 1 8 8v24a8 8 0 0 1-8 8h-72a8 8 0 0 1-8-8v-24a8 8 0 0 1 8-8M227 246h72a8 8 0 0 1 8 8v24a8 8 0 0 1-8 8h-72a8 8 0 0 1-8-8v-24a8 8 0 0 1 8-8M227 316h72a8 8 0 0 1 8 8v24a8 8 0 0 1-8 8h-72a8 8 0 0 1-8-8v-24a8 8 0 0 1 8-8M419 36h72a8 8 0 0 1 8 8v24a8 8 0 0 1-8 8h-72a8 8 0 0 1-8-8V44a8 8 0 0 1 8-8M419 106h72a8 8 0 0 1 8 8v24a8 8 0 0 1-8 8h-72a8 8 0 0 1-8-8v-24a8 8 0 0 1 8-8M371 246h152l16 16v24H371zM371 176h152l16 16v24H371zM371 316h152l16 16v24H371z" style="filter:url(#a);opacity:.7;fill-opacity:1"/><path fill="#FFF" stroke="#000" d="M72 30h72a8 8 0 0 1 8 8v24a8 8 0 0 1-8 8H72a8 8 0 0 1-8-8V38a8 8 0 0 1 8-8"/><text x="108.5" y="58" font-family="sans-serif" font-size="14" text-anchor="middle" textLength="47">API 对象</text><path fill="#FFF" stroke="#000" d="M224 30h72a8 8 0 0 1 8 8v24a8 8 0 0 1-8 8h-72a8 8 0 0 1-8-8V38a8 8 0 0 1 8-8"/><text x="260.5" y="58" font-family="sans-serif" font-size="14" text-anchor="middle" textLength="71">TypeMeta</text><path fill="#FFF" stroke="#000" d="M224 170h72a8 8 0 0 1 8 8v24a8 8 0 0 1-8 8h-72a8 8 0 0 1-8-8v-24a8 8 0 0 1 8-8"/><text x="260" y="197" font-family="sans-serif" font-size="14" text-anchor="middle" textLength="70">MetaData</text><path fill="#90EE90" stroke="#000" d="M224 240h72a8 8 0 0 1 8 8v24a8 8 0 0 1-8 8h-72a8 8 0 0 1-8-8v-24a8 8 0 0 1 8-8"/><text x="260.5" y="268" font-family="sans-serif" font-size="14" text-anchor="middle" textLength="35">Spec</text><path fill="#FF0" stroke="#000" d="M224 310h72a8 8 0 0 1 8 8v24a8 8 0 0 1-8 8h-72a8 8 0 0 1-8-8v-24a8 8 0 0 1 8-8"/><text x="260.5" y="337" font-family="sans-serif" font-size="14" text-anchor="middle" textLength="45">Status</text><path fill="#FFF" stroke="#000" d="M416 30h72a8 8 0 0 1 8 8v24a8 8 0 0 1-8 8h-72a8 8 0 0 1-8-8V38a8 8 0 0 1 8-8"/><text x="452.5" y="58" font-family="sans-serif" font-size="14" text-anchor="middle" textLength="75">apiVersion</text><path fill="#FFF" stroke="#000" d="M416 100h72a8 8 0 0 1 8 8v24a8 8 0 0 1-8 8h-72a8 8 0 0 1-8-8v-24a8 8 0 0 1 8-8"/><text x="452.5" y="127" font-family="sans-serif" font-size="14" text-anchor="middle" textLength="31">kind</text><path fill="#FFFFE0" stroke="#000" stroke-dasharray="4" d="M368 240h152l16 16v24H368z"/><path fill="none" stroke="#000" stroke-dasharray="4" d="M520 240v16M520 256h16"/><text x="452.5" y="268" font-family="sans-serif" font-size="14" text-anchor="middle" textLength="133">你 所 期 望 的 该 对 象 的 状态</text><path fill="#FFFFE0" stroke="#000" stroke-dasharray="4" d="M368 170h152l16 16v24H368z"/><path fill="none" stroke="#000" stroke-dasharray="4" d="M520 170v16M520 186h16"/><text x="452.5" y="198" font-family="sans-serif" font-size="14" text-anchor="middle" textLength="137">帮 助 唯 一 标 识 对 象 的 数 据</text><path fill="#FFFFE0" stroke="#000" stroke-dasharray="4" d="M368 310h152l16 16v24H368z"/><path fill="none" stroke="#000" stroke-dasharray="4" d="M520 310v16M520 326h16"/><text x="452" y="338" font-family="sans-serif" font-size="14" text-anchor="middle" textLength="86">对 象 的 当 前 状 态</text><path fill="none" stroke="#000" d="M152 50h56"/><path stroke="#000" d="m215 50-7-4v8z"/><path fill="none" stroke="#000" d="M152 50h32M184 50v140M184 190h24"/><path stroke="#000" d="m215 190-7-4v8z"/><path fill="none" stroke="#000" d="M152 50h32M184 50v210M184 260h24"/><path stroke="#000" d="m215 260-7-4v8z"/><path fill="none" stroke="#000" d="M152 50h32M184 50v280M184 330h24"/><path stroke="#000" d="m215 330-7-4v8z"/><path fill="none" stroke="#000" d="M304 50h96"/><path stroke="#000" d="m407 50-7-4v8z"/><path fill="none" stroke="#000" d="M304 50h32M336 50v70M336 120h64"/><path stroke="#000" d="m407 120-7-4v8z"/><path fill="none" stroke="#000" stroke-dasharray="4" d="M304 260h64M304 330h64M304 190h64"/><text x="260" y="168" font-family="sans-serif" font-size="8" text-anchor="middle" textLength="72">代码里对应ObjectMeta</text></svg>